G75*
G70*
%OFA0B0*%
%FSLAX24Y24*%
%IPPOS*%
%LPD*%
%AMOC8*
5,1,8,0,0,1.08239X$1,22.5*
%
%ADD10C,0.0000*%
D10*
X004651Y004041D02*
X004712Y004039D01*
X004773Y004033D01*
X004834Y004024D01*
X004894Y004011D01*
X004953Y003994D01*
X005010Y003973D01*
X005067Y003949D01*
X005121Y003921D01*
X005174Y003890D01*
X005225Y003856D01*
X005274Y003819D01*
X005320Y003779D01*
X005364Y003736D01*
X005363Y003736D02*
X007533Y001458D01*
X008301Y001089D02*
X009586Y001089D01*
X010282Y001377D02*
X010690Y001784D01*
X011386Y002073D02*
X016476Y002073D01*
X017172Y001784D02*
X017579Y001377D01*
X018275Y001089D02*
X019429Y001089D01*
X020124Y001377D02*
X020532Y001784D01*
X021228Y002073D02*
X026318Y002073D01*
X027014Y001784D02*
X027422Y001377D01*
X028118Y001089D02*
X029271Y001089D01*
X029967Y001377D02*
X030375Y001784D01*
X031071Y002073D02*
X035781Y002073D01*
X035843Y002075D01*
X035904Y002081D01*
X035965Y002090D01*
X036026Y002104D01*
X036085Y002121D01*
X036143Y002142D01*
X036200Y002167D01*
X036255Y002195D01*
X036308Y002226D01*
X036359Y002261D01*
X036408Y002299D01*
X036455Y002340D01*
X036498Y002383D01*
X036539Y002430D01*
X036577Y002479D01*
X036612Y002530D01*
X036643Y002583D01*
X036671Y002638D01*
X036696Y002695D01*
X036717Y002753D01*
X036734Y002812D01*
X036748Y002873D01*
X036757Y002934D01*
X036763Y002995D01*
X036765Y003057D01*
X036765Y019691D01*
X036763Y019753D01*
X036757Y019814D01*
X036748Y019875D01*
X036734Y019936D01*
X036717Y019995D01*
X036696Y020053D01*
X036671Y020110D01*
X036643Y020165D01*
X036612Y020218D01*
X036577Y020269D01*
X036539Y020318D01*
X036498Y020365D01*
X036455Y020408D01*
X036408Y020449D01*
X036359Y020487D01*
X036308Y020522D01*
X036255Y020553D01*
X036200Y020581D01*
X036143Y020606D01*
X036085Y020627D01*
X036026Y020644D01*
X035965Y020658D01*
X035904Y020667D01*
X035843Y020673D01*
X035781Y020675D01*
X031464Y020675D01*
X030768Y020963D02*
X029967Y021765D01*
X029271Y022053D02*
X028118Y022053D01*
X027422Y021765D02*
X027014Y021357D01*
X026318Y021069D02*
X021228Y021069D01*
X020532Y021357D02*
X020124Y021765D01*
X019429Y022053D02*
X018275Y022053D01*
X017579Y021765D02*
X017172Y021357D01*
X016476Y021069D02*
X011386Y021069D01*
X010690Y021357D02*
X010282Y021765D01*
X009586Y022053D02*
X008433Y022053D01*
X007737Y021765D02*
X006148Y020176D01*
X005452Y019888D02*
X003104Y019888D01*
X003104Y019887D02*
X003042Y019885D01*
X002981Y019879D01*
X002920Y019870D01*
X002859Y019856D01*
X002800Y019839D01*
X002742Y019818D01*
X002685Y019793D01*
X002630Y019765D01*
X002577Y019734D01*
X002526Y019699D01*
X002477Y019661D01*
X002430Y019620D01*
X002387Y019577D01*
X002346Y019530D01*
X002308Y019481D01*
X002273Y019430D01*
X002242Y019377D01*
X002214Y019322D01*
X002189Y019265D01*
X002168Y019207D01*
X002151Y019148D01*
X002137Y019087D01*
X002128Y019026D01*
X002122Y018965D01*
X002120Y018903D01*
X002120Y013701D01*
X002122Y013642D01*
X002127Y013582D01*
X002136Y013524D01*
X002149Y013466D01*
X002165Y013408D01*
X002184Y013352D01*
X002207Y013297D01*
X002233Y013244D01*
X002262Y013192D01*
X002294Y013142D01*
X002329Y013094D01*
X002367Y013049D01*
X002408Y013005D01*
X002619Y012794D01*
X002907Y012098D02*
X002907Y005026D01*
X002909Y004964D01*
X002915Y004903D01*
X002924Y004842D01*
X002938Y004781D01*
X002955Y004722D01*
X002976Y004664D01*
X003001Y004607D01*
X003029Y004552D01*
X003060Y004499D01*
X003095Y004448D01*
X003133Y004399D01*
X003174Y004352D01*
X003217Y004309D01*
X003264Y004268D01*
X003313Y004230D01*
X003364Y004195D01*
X003417Y004164D01*
X003472Y004136D01*
X003529Y004111D01*
X003587Y004090D01*
X003646Y004073D01*
X003707Y004059D01*
X003768Y004050D01*
X003829Y004044D01*
X003891Y004042D01*
X003891Y004041D02*
X004651Y004041D01*
X007533Y001458D02*
X007571Y001414D01*
X007611Y001371D01*
X007654Y001331D01*
X007700Y001294D01*
X007748Y001259D01*
X007797Y001228D01*
X007848Y001199D01*
X007901Y001174D01*
X007956Y001152D01*
X008011Y001133D01*
X008068Y001117D01*
X008126Y001105D01*
X008184Y001096D01*
X008242Y001091D01*
X008301Y001089D01*
X009586Y001089D02*
X009645Y001091D01*
X009705Y001096D01*
X009763Y001105D01*
X009821Y001118D01*
X009879Y001134D01*
X009935Y001153D01*
X009990Y001176D01*
X010043Y001202D01*
X010095Y001231D01*
X010145Y001263D01*
X010193Y001298D01*
X010238Y001336D01*
X010282Y001377D01*
X010690Y001785D02*
X010734Y001826D01*
X010779Y001864D01*
X010827Y001899D01*
X010877Y001931D01*
X010929Y001960D01*
X010982Y001986D01*
X011037Y002009D01*
X011093Y002028D01*
X011151Y002044D01*
X011209Y002057D01*
X011267Y002066D01*
X011327Y002071D01*
X011386Y002073D01*
X008389Y002762D02*
X008391Y002811D01*
X008397Y002860D01*
X008407Y002909D01*
X008420Y002956D01*
X008437Y003002D01*
X008458Y003047D01*
X008483Y003090D01*
X008510Y003130D01*
X008541Y003169D01*
X008575Y003205D01*
X008612Y003238D01*
X008651Y003268D01*
X008692Y003295D01*
X008735Y003318D01*
X008780Y003338D01*
X008827Y003355D01*
X008874Y003367D01*
X008923Y003376D01*
X008972Y003381D01*
X009021Y003382D01*
X009071Y003379D01*
X009119Y003372D01*
X009167Y003361D01*
X009215Y003347D01*
X009260Y003329D01*
X009305Y003307D01*
X009347Y003282D01*
X009387Y003253D01*
X009425Y003222D01*
X009460Y003187D01*
X009493Y003150D01*
X009522Y003110D01*
X009548Y003068D01*
X009571Y003025D01*
X009590Y002979D01*
X009605Y002932D01*
X009617Y002884D01*
X009625Y002836D01*
X009629Y002787D01*
X009629Y002737D01*
X009625Y002688D01*
X009617Y002640D01*
X009605Y002592D01*
X009590Y002545D01*
X009571Y002499D01*
X009548Y002456D01*
X009522Y002414D01*
X009493Y002374D01*
X009460Y002337D01*
X009425Y002302D01*
X009387Y002271D01*
X009347Y002242D01*
X009305Y002217D01*
X009260Y002195D01*
X009215Y002177D01*
X009167Y002163D01*
X009119Y002152D01*
X009071Y002145D01*
X009021Y002142D01*
X008972Y002143D01*
X008923Y002148D01*
X008874Y002157D01*
X008827Y002169D01*
X008780Y002186D01*
X008735Y002206D01*
X008692Y002229D01*
X008651Y002256D01*
X008612Y002286D01*
X008575Y002319D01*
X008541Y002355D01*
X008510Y002394D01*
X008483Y002434D01*
X008458Y002477D01*
X008437Y002522D01*
X008420Y002568D01*
X008407Y002615D01*
X008397Y002664D01*
X008391Y002713D01*
X008389Y002762D01*
X016476Y002073D02*
X016535Y002071D01*
X016595Y002066D01*
X016653Y002057D01*
X016711Y002044D01*
X016769Y002028D01*
X016825Y002009D01*
X016880Y001986D01*
X016933Y001960D01*
X016985Y001931D01*
X017035Y001899D01*
X017083Y001864D01*
X017128Y001826D01*
X017172Y001785D01*
X017579Y001377D02*
X017623Y001336D01*
X017668Y001298D01*
X017716Y001263D01*
X017766Y001231D01*
X017818Y001202D01*
X017871Y001176D01*
X017926Y001153D01*
X017982Y001134D01*
X018040Y001118D01*
X018098Y001105D01*
X018156Y001096D01*
X018216Y001091D01*
X018275Y001089D01*
X019429Y001089D02*
X019488Y001091D01*
X019548Y001096D01*
X019606Y001105D01*
X019664Y001118D01*
X019722Y001134D01*
X019778Y001153D01*
X019833Y001176D01*
X019886Y001202D01*
X019938Y001231D01*
X019988Y001263D01*
X020036Y001298D01*
X020081Y001336D01*
X020125Y001377D01*
X020532Y001785D02*
X020576Y001826D01*
X020621Y001864D01*
X020669Y001899D01*
X020719Y001931D01*
X020771Y001960D01*
X020824Y001986D01*
X020879Y002009D01*
X020935Y002028D01*
X020993Y002044D01*
X021051Y002057D01*
X021109Y002066D01*
X021169Y002071D01*
X021228Y002073D01*
X018232Y002762D02*
X018234Y002811D01*
X018240Y002860D01*
X018250Y002909D01*
X018263Y002956D01*
X018280Y003002D01*
X018301Y003047D01*
X018326Y003090D01*
X018353Y003130D01*
X018384Y003169D01*
X018418Y003205D01*
X018455Y003238D01*
X018494Y003268D01*
X018535Y003295D01*
X018578Y003318D01*
X018623Y003338D01*
X018670Y003355D01*
X018717Y003367D01*
X018766Y003376D01*
X018815Y003381D01*
X018864Y003382D01*
X018914Y003379D01*
X018962Y003372D01*
X019010Y003361D01*
X019058Y003347D01*
X019103Y003329D01*
X019148Y003307D01*
X019190Y003282D01*
X019230Y003253D01*
X019268Y003222D01*
X019303Y003187D01*
X019336Y003150D01*
X019365Y003110D01*
X019391Y003068D01*
X019414Y003025D01*
X019433Y002979D01*
X019448Y002932D01*
X019460Y002884D01*
X019468Y002836D01*
X019472Y002787D01*
X019472Y002737D01*
X019468Y002688D01*
X019460Y002640D01*
X019448Y002592D01*
X019433Y002545D01*
X019414Y002499D01*
X019391Y002456D01*
X019365Y002414D01*
X019336Y002374D01*
X019303Y002337D01*
X019268Y002302D01*
X019230Y002271D01*
X019190Y002242D01*
X019148Y002217D01*
X019103Y002195D01*
X019058Y002177D01*
X019010Y002163D01*
X018962Y002152D01*
X018914Y002145D01*
X018864Y002142D01*
X018815Y002143D01*
X018766Y002148D01*
X018717Y002157D01*
X018670Y002169D01*
X018623Y002186D01*
X018578Y002206D01*
X018535Y002229D01*
X018494Y002256D01*
X018455Y002286D01*
X018418Y002319D01*
X018384Y002355D01*
X018353Y002394D01*
X018326Y002434D01*
X018301Y002477D01*
X018280Y002522D01*
X018263Y002568D01*
X018250Y002615D01*
X018240Y002664D01*
X018234Y002713D01*
X018232Y002762D01*
X026318Y002073D02*
X026377Y002071D01*
X026437Y002066D01*
X026495Y002057D01*
X026553Y002044D01*
X026611Y002028D01*
X026667Y002009D01*
X026722Y001986D01*
X026775Y001960D01*
X026827Y001931D01*
X026877Y001899D01*
X026925Y001864D01*
X026970Y001826D01*
X027014Y001785D01*
X027422Y001377D02*
X027466Y001336D01*
X027511Y001298D01*
X027559Y001263D01*
X027609Y001231D01*
X027661Y001202D01*
X027714Y001176D01*
X027769Y001153D01*
X027825Y001134D01*
X027883Y001118D01*
X027941Y001105D01*
X027999Y001096D01*
X028059Y001091D01*
X028118Y001089D01*
X029271Y001089D02*
X029330Y001091D01*
X029390Y001096D01*
X029448Y001105D01*
X029506Y001118D01*
X029564Y001134D01*
X029620Y001153D01*
X029675Y001176D01*
X029728Y001202D01*
X029780Y001231D01*
X029830Y001263D01*
X029878Y001298D01*
X029923Y001336D01*
X029967Y001377D01*
X030375Y001785D02*
X030419Y001826D01*
X030464Y001864D01*
X030512Y001899D01*
X030562Y001931D01*
X030614Y001960D01*
X030667Y001986D01*
X030722Y002009D01*
X030778Y002028D01*
X030836Y002044D01*
X030894Y002057D01*
X030952Y002066D01*
X031012Y002071D01*
X031071Y002073D01*
X028074Y002762D02*
X028076Y002811D01*
X028082Y002860D01*
X028092Y002909D01*
X028105Y002956D01*
X028122Y003002D01*
X028143Y003047D01*
X028168Y003090D01*
X028195Y003130D01*
X028226Y003169D01*
X028260Y003205D01*
X028297Y003238D01*
X028336Y003268D01*
X028377Y003295D01*
X028420Y003318D01*
X028465Y003338D01*
X028512Y003355D01*
X028559Y003367D01*
X028608Y003376D01*
X028657Y003381D01*
X028706Y003382D01*
X028756Y003379D01*
X028804Y003372D01*
X028852Y003361D01*
X028900Y003347D01*
X028945Y003329D01*
X028990Y003307D01*
X029032Y003282D01*
X029072Y003253D01*
X029110Y003222D01*
X029145Y003187D01*
X029178Y003150D01*
X029207Y003110D01*
X029233Y003068D01*
X029256Y003025D01*
X029275Y002979D01*
X029290Y002932D01*
X029302Y002884D01*
X029310Y002836D01*
X029314Y002787D01*
X029314Y002737D01*
X029310Y002688D01*
X029302Y002640D01*
X029290Y002592D01*
X029275Y002545D01*
X029256Y002499D01*
X029233Y002456D01*
X029207Y002414D01*
X029178Y002374D01*
X029145Y002337D01*
X029110Y002302D01*
X029072Y002271D01*
X029032Y002242D01*
X028990Y002217D01*
X028945Y002195D01*
X028900Y002177D01*
X028852Y002163D01*
X028804Y002152D01*
X028756Y002145D01*
X028706Y002142D01*
X028657Y002143D01*
X028608Y002148D01*
X028559Y002157D01*
X028512Y002169D01*
X028465Y002186D01*
X028420Y002206D01*
X028377Y002229D01*
X028336Y002256D01*
X028297Y002286D01*
X028260Y002319D01*
X028226Y002355D01*
X028195Y002394D01*
X028168Y002434D01*
X028143Y002477D01*
X028122Y002522D01*
X028105Y002568D01*
X028092Y002615D01*
X028082Y002664D01*
X028076Y002713D01*
X028074Y002762D01*
X022647Y014112D02*
X022649Y014155D01*
X022655Y014197D01*
X022665Y014239D01*
X022678Y014280D01*
X022696Y014319D01*
X022717Y014357D01*
X022741Y014392D01*
X022768Y014425D01*
X022799Y014456D01*
X022832Y014483D01*
X022867Y014507D01*
X022905Y014528D01*
X022944Y014546D01*
X022985Y014559D01*
X023027Y014569D01*
X023069Y014575D01*
X023112Y014577D01*
X023155Y014575D01*
X023197Y014569D01*
X023239Y014559D01*
X023280Y014546D01*
X023319Y014528D01*
X023357Y014507D01*
X023392Y014483D01*
X023425Y014456D01*
X023456Y014425D01*
X023483Y014392D01*
X023507Y014357D01*
X023528Y014319D01*
X023546Y014280D01*
X023559Y014239D01*
X023569Y014197D01*
X023575Y014155D01*
X023577Y014112D01*
X023575Y014069D01*
X023569Y014027D01*
X023559Y013985D01*
X023546Y013944D01*
X023528Y013905D01*
X023507Y013867D01*
X023483Y013832D01*
X023456Y013799D01*
X023425Y013768D01*
X023392Y013741D01*
X023357Y013717D01*
X023319Y013696D01*
X023280Y013678D01*
X023239Y013665D01*
X023197Y013655D01*
X023155Y013649D01*
X023112Y013647D01*
X023069Y013649D01*
X023027Y013655D01*
X022985Y013665D01*
X022944Y013678D01*
X022905Y013696D01*
X022867Y013717D01*
X022832Y013741D01*
X022799Y013768D01*
X022768Y013799D01*
X022741Y013832D01*
X022717Y013867D01*
X022696Y013905D01*
X022678Y013944D01*
X022665Y013985D01*
X022655Y014027D01*
X022649Y014069D01*
X022647Y014112D01*
X022647Y018837D02*
X022649Y018880D01*
X022655Y018922D01*
X022665Y018964D01*
X022678Y019005D01*
X022696Y019044D01*
X022717Y019082D01*
X022741Y019117D01*
X022768Y019150D01*
X022799Y019181D01*
X022832Y019208D01*
X022867Y019232D01*
X022905Y019253D01*
X022944Y019271D01*
X022985Y019284D01*
X023027Y019294D01*
X023069Y019300D01*
X023112Y019302D01*
X023155Y019300D01*
X023197Y019294D01*
X023239Y019284D01*
X023280Y019271D01*
X023319Y019253D01*
X023357Y019232D01*
X023392Y019208D01*
X023425Y019181D01*
X023456Y019150D01*
X023483Y019117D01*
X023507Y019082D01*
X023528Y019044D01*
X023546Y019005D01*
X023559Y018964D01*
X023569Y018922D01*
X023575Y018880D01*
X023577Y018837D01*
X023575Y018794D01*
X023569Y018752D01*
X023559Y018710D01*
X023546Y018669D01*
X023528Y018630D01*
X023507Y018592D01*
X023483Y018557D01*
X023456Y018524D01*
X023425Y018493D01*
X023392Y018466D01*
X023357Y018442D01*
X023319Y018421D01*
X023280Y018403D01*
X023239Y018390D01*
X023197Y018380D01*
X023155Y018374D01*
X023112Y018372D01*
X023069Y018374D01*
X023027Y018380D01*
X022985Y018390D01*
X022944Y018403D01*
X022905Y018421D01*
X022867Y018442D01*
X022832Y018466D01*
X022799Y018493D01*
X022768Y018524D01*
X022741Y018557D01*
X022717Y018592D01*
X022696Y018630D01*
X022678Y018669D01*
X022665Y018710D01*
X022655Y018752D01*
X022649Y018794D01*
X022647Y018837D01*
X020125Y021765D02*
X020081Y021806D01*
X020036Y021844D01*
X019988Y021879D01*
X019938Y021911D01*
X019886Y021940D01*
X019833Y021966D01*
X019778Y021989D01*
X019722Y022008D01*
X019664Y022024D01*
X019606Y022037D01*
X019548Y022046D01*
X019488Y022051D01*
X019429Y022053D01*
X018275Y022053D02*
X018216Y022051D01*
X018156Y022046D01*
X018098Y022037D01*
X018040Y022024D01*
X017982Y022008D01*
X017926Y021989D01*
X017871Y021966D01*
X017818Y021940D01*
X017766Y021911D01*
X017716Y021879D01*
X017668Y021844D01*
X017623Y021806D01*
X017579Y021765D01*
X017172Y021357D02*
X017128Y021316D01*
X017083Y021278D01*
X017035Y021243D01*
X016985Y021211D01*
X016933Y021182D01*
X016880Y021156D01*
X016825Y021133D01*
X016769Y021114D01*
X016711Y021098D01*
X016653Y021085D01*
X016595Y021076D01*
X016535Y021071D01*
X016476Y021069D01*
X018232Y020380D02*
X018234Y020429D01*
X018240Y020478D01*
X018250Y020527D01*
X018263Y020574D01*
X018280Y020620D01*
X018301Y020665D01*
X018326Y020708D01*
X018353Y020748D01*
X018384Y020787D01*
X018418Y020823D01*
X018455Y020856D01*
X018494Y020886D01*
X018535Y020913D01*
X018578Y020936D01*
X018623Y020956D01*
X018670Y020973D01*
X018717Y020985D01*
X018766Y020994D01*
X018815Y020999D01*
X018864Y021000D01*
X018914Y020997D01*
X018962Y020990D01*
X019010Y020979D01*
X019058Y020965D01*
X019103Y020947D01*
X019148Y020925D01*
X019190Y020900D01*
X019230Y020871D01*
X019268Y020840D01*
X019303Y020805D01*
X019336Y020768D01*
X019365Y020728D01*
X019391Y020686D01*
X019414Y020643D01*
X019433Y020597D01*
X019448Y020550D01*
X019460Y020502D01*
X019468Y020454D01*
X019472Y020405D01*
X019472Y020355D01*
X019468Y020306D01*
X019460Y020258D01*
X019448Y020210D01*
X019433Y020163D01*
X019414Y020117D01*
X019391Y020074D01*
X019365Y020032D01*
X019336Y019992D01*
X019303Y019955D01*
X019268Y019920D01*
X019230Y019889D01*
X019190Y019860D01*
X019148Y019835D01*
X019103Y019813D01*
X019058Y019795D01*
X019010Y019781D01*
X018962Y019770D01*
X018914Y019763D01*
X018864Y019760D01*
X018815Y019761D01*
X018766Y019766D01*
X018717Y019775D01*
X018670Y019787D01*
X018623Y019804D01*
X018578Y019824D01*
X018535Y019847D01*
X018494Y019874D01*
X018455Y019904D01*
X018418Y019937D01*
X018384Y019973D01*
X018353Y020012D01*
X018326Y020052D01*
X018301Y020095D01*
X018280Y020140D01*
X018263Y020186D01*
X018250Y020233D01*
X018240Y020282D01*
X018234Y020331D01*
X018232Y020380D01*
X020532Y021357D02*
X020576Y021316D01*
X020621Y021278D01*
X020669Y021243D01*
X020719Y021211D01*
X020771Y021182D01*
X020824Y021156D01*
X020879Y021133D01*
X020935Y021114D01*
X020993Y021098D01*
X021051Y021085D01*
X021109Y021076D01*
X021169Y021071D01*
X021228Y021069D01*
X026318Y021069D02*
X026377Y021071D01*
X026437Y021076D01*
X026495Y021085D01*
X026553Y021098D01*
X026611Y021114D01*
X026667Y021133D01*
X026722Y021156D01*
X026775Y021182D01*
X026827Y021211D01*
X026877Y021243D01*
X026925Y021278D01*
X026970Y021316D01*
X027014Y021357D01*
X027422Y021765D02*
X027466Y021806D01*
X027511Y021844D01*
X027559Y021879D01*
X027609Y021911D01*
X027661Y021940D01*
X027714Y021966D01*
X027769Y021989D01*
X027825Y022008D01*
X027883Y022024D01*
X027941Y022037D01*
X027999Y022046D01*
X028059Y022051D01*
X028118Y022053D01*
X029271Y022053D02*
X029330Y022051D01*
X029390Y022046D01*
X029448Y022037D01*
X029506Y022024D01*
X029564Y022008D01*
X029620Y021989D01*
X029675Y021966D01*
X029728Y021940D01*
X029780Y021911D01*
X029830Y021879D01*
X029878Y021844D01*
X029923Y021806D01*
X029967Y021765D01*
X030768Y020963D02*
X030812Y020922D01*
X030857Y020884D01*
X030905Y020849D01*
X030955Y020817D01*
X031007Y020788D01*
X031060Y020762D01*
X031115Y020739D01*
X031171Y020720D01*
X031229Y020704D01*
X031287Y020691D01*
X031345Y020682D01*
X031405Y020677D01*
X031464Y020675D01*
X032454Y019494D02*
X032456Y019522D01*
X032462Y019549D01*
X032471Y019576D01*
X032485Y019601D01*
X032501Y019623D01*
X032521Y019643D01*
X032543Y019661D01*
X032567Y019675D01*
X032593Y019685D01*
X032620Y019692D01*
X032648Y019695D01*
X032676Y019694D01*
X032704Y019689D01*
X032730Y019680D01*
X032755Y019668D01*
X032779Y019652D01*
X032800Y019634D01*
X032818Y019612D01*
X032832Y019588D01*
X032844Y019563D01*
X032852Y019536D01*
X032856Y019508D01*
X032856Y019480D01*
X032852Y019452D01*
X032844Y019425D01*
X032832Y019400D01*
X032818Y019376D01*
X032800Y019354D01*
X032779Y019336D01*
X032756Y019320D01*
X032730Y019308D01*
X032704Y019299D01*
X032676Y019294D01*
X032648Y019293D01*
X032620Y019296D01*
X032593Y019303D01*
X032567Y019313D01*
X032543Y019327D01*
X032521Y019345D01*
X032501Y019365D01*
X032485Y019387D01*
X032471Y019412D01*
X032462Y019439D01*
X032456Y019466D01*
X032454Y019494D01*
X028074Y020380D02*
X028076Y020429D01*
X028082Y020478D01*
X028092Y020527D01*
X028105Y020574D01*
X028122Y020620D01*
X028143Y020665D01*
X028168Y020708D01*
X028195Y020748D01*
X028226Y020787D01*
X028260Y020823D01*
X028297Y020856D01*
X028336Y020886D01*
X028377Y020913D01*
X028420Y020936D01*
X028465Y020956D01*
X028512Y020973D01*
X028559Y020985D01*
X028608Y020994D01*
X028657Y020999D01*
X028706Y021000D01*
X028756Y020997D01*
X028804Y020990D01*
X028852Y020979D01*
X028900Y020965D01*
X028945Y020947D01*
X028990Y020925D01*
X029032Y020900D01*
X029072Y020871D01*
X029110Y020840D01*
X029145Y020805D01*
X029178Y020768D01*
X029207Y020728D01*
X029233Y020686D01*
X029256Y020643D01*
X029275Y020597D01*
X029290Y020550D01*
X029302Y020502D01*
X029310Y020454D01*
X029314Y020405D01*
X029314Y020355D01*
X029310Y020306D01*
X029302Y020258D01*
X029290Y020210D01*
X029275Y020163D01*
X029256Y020117D01*
X029233Y020074D01*
X029207Y020032D01*
X029178Y019992D01*
X029145Y019955D01*
X029110Y019920D01*
X029072Y019889D01*
X029032Y019860D01*
X028990Y019835D01*
X028945Y019813D01*
X028900Y019795D01*
X028852Y019781D01*
X028804Y019770D01*
X028756Y019763D01*
X028706Y019760D01*
X028657Y019761D01*
X028608Y019766D01*
X028559Y019775D01*
X028512Y019787D01*
X028465Y019804D01*
X028420Y019824D01*
X028377Y019847D01*
X028336Y019874D01*
X028297Y019904D01*
X028260Y019937D01*
X028226Y019973D01*
X028195Y020012D01*
X028168Y020052D01*
X028143Y020095D01*
X028122Y020140D01*
X028105Y020186D01*
X028092Y020233D01*
X028082Y020282D01*
X028076Y020331D01*
X028074Y020380D01*
X032454Y014770D02*
X032456Y014798D01*
X032462Y014825D01*
X032471Y014852D01*
X032485Y014877D01*
X032501Y014899D01*
X032521Y014919D01*
X032543Y014937D01*
X032567Y014951D01*
X032593Y014961D01*
X032620Y014968D01*
X032648Y014971D01*
X032676Y014970D01*
X032704Y014965D01*
X032730Y014956D01*
X032755Y014944D01*
X032779Y014928D01*
X032800Y014910D01*
X032818Y014888D01*
X032832Y014864D01*
X032844Y014839D01*
X032852Y014812D01*
X032856Y014784D01*
X032856Y014756D01*
X032852Y014728D01*
X032844Y014701D01*
X032832Y014676D01*
X032818Y014652D01*
X032800Y014630D01*
X032779Y014612D01*
X032756Y014596D01*
X032730Y014584D01*
X032704Y014575D01*
X032676Y014570D01*
X032648Y014569D01*
X032620Y014572D01*
X032593Y014579D01*
X032567Y014589D01*
X032543Y014603D01*
X032521Y014621D01*
X032501Y014641D01*
X032485Y014663D01*
X032471Y014688D01*
X032462Y014715D01*
X032456Y014742D01*
X032454Y014770D01*
X012804Y014112D02*
X012806Y014155D01*
X012812Y014197D01*
X012822Y014239D01*
X012835Y014280D01*
X012853Y014319D01*
X012874Y014357D01*
X012898Y014392D01*
X012925Y014425D01*
X012956Y014456D01*
X012989Y014483D01*
X013024Y014507D01*
X013062Y014528D01*
X013101Y014546D01*
X013142Y014559D01*
X013184Y014569D01*
X013226Y014575D01*
X013269Y014577D01*
X013312Y014575D01*
X013354Y014569D01*
X013396Y014559D01*
X013437Y014546D01*
X013476Y014528D01*
X013514Y014507D01*
X013549Y014483D01*
X013582Y014456D01*
X013613Y014425D01*
X013640Y014392D01*
X013664Y014357D01*
X013685Y014319D01*
X013703Y014280D01*
X013716Y014239D01*
X013726Y014197D01*
X013732Y014155D01*
X013734Y014112D01*
X013732Y014069D01*
X013726Y014027D01*
X013716Y013985D01*
X013703Y013944D01*
X013685Y013905D01*
X013664Y013867D01*
X013640Y013832D01*
X013613Y013799D01*
X013582Y013768D01*
X013549Y013741D01*
X013514Y013717D01*
X013476Y013696D01*
X013437Y013678D01*
X013396Y013665D01*
X013354Y013655D01*
X013312Y013649D01*
X013269Y013647D01*
X013226Y013649D01*
X013184Y013655D01*
X013142Y013665D01*
X013101Y013678D01*
X013062Y013696D01*
X013024Y013717D01*
X012989Y013741D01*
X012956Y013768D01*
X012925Y013799D01*
X012898Y013832D01*
X012874Y013867D01*
X012853Y013905D01*
X012835Y013944D01*
X012822Y013985D01*
X012812Y014027D01*
X012806Y014069D01*
X012804Y014112D01*
X012804Y018837D02*
X012806Y018880D01*
X012812Y018922D01*
X012822Y018964D01*
X012835Y019005D01*
X012853Y019044D01*
X012874Y019082D01*
X012898Y019117D01*
X012925Y019150D01*
X012956Y019181D01*
X012989Y019208D01*
X013024Y019232D01*
X013062Y019253D01*
X013101Y019271D01*
X013142Y019284D01*
X013184Y019294D01*
X013226Y019300D01*
X013269Y019302D01*
X013312Y019300D01*
X013354Y019294D01*
X013396Y019284D01*
X013437Y019271D01*
X013476Y019253D01*
X013514Y019232D01*
X013549Y019208D01*
X013582Y019181D01*
X013613Y019150D01*
X013640Y019117D01*
X013664Y019082D01*
X013685Y019044D01*
X013703Y019005D01*
X013716Y018964D01*
X013726Y018922D01*
X013732Y018880D01*
X013734Y018837D01*
X013732Y018794D01*
X013726Y018752D01*
X013716Y018710D01*
X013703Y018669D01*
X013685Y018630D01*
X013664Y018592D01*
X013640Y018557D01*
X013613Y018524D01*
X013582Y018493D01*
X013549Y018466D01*
X013514Y018442D01*
X013476Y018421D01*
X013437Y018403D01*
X013396Y018390D01*
X013354Y018380D01*
X013312Y018374D01*
X013269Y018372D01*
X013226Y018374D01*
X013184Y018380D01*
X013142Y018390D01*
X013101Y018403D01*
X013062Y018421D01*
X013024Y018442D01*
X012989Y018466D01*
X012956Y018493D01*
X012925Y018524D01*
X012898Y018557D01*
X012874Y018592D01*
X012853Y018630D01*
X012835Y018669D01*
X012822Y018710D01*
X012812Y018752D01*
X012806Y018794D01*
X012804Y018837D01*
X010282Y021765D02*
X010238Y021806D01*
X010193Y021844D01*
X010145Y021879D01*
X010095Y021911D01*
X010043Y021940D01*
X009990Y021966D01*
X009935Y021989D01*
X009879Y022008D01*
X009821Y022024D01*
X009763Y022037D01*
X009705Y022046D01*
X009645Y022051D01*
X009586Y022053D01*
X008433Y022053D02*
X008374Y022051D01*
X008314Y022046D01*
X008256Y022037D01*
X008198Y022024D01*
X008140Y022008D01*
X008084Y021989D01*
X008029Y021966D01*
X007976Y021940D01*
X007924Y021911D01*
X007874Y021879D01*
X007826Y021844D01*
X007781Y021806D01*
X007737Y021765D01*
X008389Y020380D02*
X008391Y020429D01*
X008397Y020478D01*
X008407Y020527D01*
X008420Y020574D01*
X008437Y020620D01*
X008458Y020665D01*
X008483Y020708D01*
X008510Y020748D01*
X008541Y020787D01*
X008575Y020823D01*
X008612Y020856D01*
X008651Y020886D01*
X008692Y020913D01*
X008735Y020936D01*
X008780Y020956D01*
X008827Y020973D01*
X008874Y020985D01*
X008923Y020994D01*
X008972Y020999D01*
X009021Y021000D01*
X009071Y020997D01*
X009119Y020990D01*
X009167Y020979D01*
X009215Y020965D01*
X009260Y020947D01*
X009305Y020925D01*
X009347Y020900D01*
X009387Y020871D01*
X009425Y020840D01*
X009460Y020805D01*
X009493Y020768D01*
X009522Y020728D01*
X009548Y020686D01*
X009571Y020643D01*
X009590Y020597D01*
X009605Y020550D01*
X009617Y020502D01*
X009625Y020454D01*
X009629Y020405D01*
X009629Y020355D01*
X009625Y020306D01*
X009617Y020258D01*
X009605Y020210D01*
X009590Y020163D01*
X009571Y020117D01*
X009548Y020074D01*
X009522Y020032D01*
X009493Y019992D01*
X009460Y019955D01*
X009425Y019920D01*
X009387Y019889D01*
X009347Y019860D01*
X009305Y019835D01*
X009260Y019813D01*
X009215Y019795D01*
X009167Y019781D01*
X009119Y019770D01*
X009071Y019763D01*
X009021Y019760D01*
X008972Y019761D01*
X008923Y019766D01*
X008874Y019775D01*
X008827Y019787D01*
X008780Y019804D01*
X008735Y019824D01*
X008692Y019847D01*
X008651Y019874D01*
X008612Y019904D01*
X008575Y019937D01*
X008541Y019973D01*
X008510Y020012D01*
X008483Y020052D01*
X008458Y020095D01*
X008437Y020140D01*
X008420Y020186D01*
X008407Y020233D01*
X008397Y020282D01*
X008391Y020331D01*
X008389Y020380D01*
X010690Y021357D02*
X010734Y021316D01*
X010779Y021278D01*
X010827Y021243D01*
X010877Y021211D01*
X010929Y021182D01*
X010982Y021156D01*
X011037Y021133D01*
X011093Y021114D01*
X011151Y021098D01*
X011209Y021085D01*
X011267Y021076D01*
X011327Y021071D01*
X011386Y021069D01*
X006148Y020176D02*
X006104Y020135D01*
X006059Y020097D01*
X006011Y020062D01*
X005961Y020030D01*
X005909Y020001D01*
X005856Y019975D01*
X005801Y019952D01*
X005745Y019933D01*
X005687Y019917D01*
X005629Y019904D01*
X005571Y019895D01*
X005511Y019890D01*
X005452Y019888D01*
X002962Y018837D02*
X002964Y018880D01*
X002970Y018922D01*
X002980Y018964D01*
X002993Y019005D01*
X003011Y019044D01*
X003032Y019082D01*
X003056Y019117D01*
X003083Y019150D01*
X003114Y019181D01*
X003147Y019208D01*
X003182Y019232D01*
X003220Y019253D01*
X003259Y019271D01*
X003300Y019284D01*
X003342Y019294D01*
X003384Y019300D01*
X003427Y019302D01*
X003470Y019300D01*
X003512Y019294D01*
X003554Y019284D01*
X003595Y019271D01*
X003634Y019253D01*
X003672Y019232D01*
X003707Y019208D01*
X003740Y019181D01*
X003771Y019150D01*
X003798Y019117D01*
X003822Y019082D01*
X003843Y019044D01*
X003861Y019005D01*
X003874Y018964D01*
X003884Y018922D01*
X003890Y018880D01*
X003892Y018837D01*
X003890Y018794D01*
X003884Y018752D01*
X003874Y018710D01*
X003861Y018669D01*
X003843Y018630D01*
X003822Y018592D01*
X003798Y018557D01*
X003771Y018524D01*
X003740Y018493D01*
X003707Y018466D01*
X003672Y018442D01*
X003634Y018421D01*
X003595Y018403D01*
X003554Y018390D01*
X003512Y018380D01*
X003470Y018374D01*
X003427Y018372D01*
X003384Y018374D01*
X003342Y018380D01*
X003300Y018390D01*
X003259Y018403D01*
X003220Y018421D01*
X003182Y018442D01*
X003147Y018466D01*
X003114Y018493D01*
X003083Y018524D01*
X003056Y018557D01*
X003032Y018592D01*
X003011Y018630D01*
X002993Y018669D01*
X002980Y018710D01*
X002970Y018752D01*
X002964Y018794D01*
X002962Y018837D01*
X002962Y014112D02*
X002964Y014155D01*
X002970Y014197D01*
X002980Y014239D01*
X002993Y014280D01*
X003011Y014319D01*
X003032Y014357D01*
X003056Y014392D01*
X003083Y014425D01*
X003114Y014456D01*
X003147Y014483D01*
X003182Y014507D01*
X003220Y014528D01*
X003259Y014546D01*
X003300Y014559D01*
X003342Y014569D01*
X003384Y014575D01*
X003427Y014577D01*
X003470Y014575D01*
X003512Y014569D01*
X003554Y014559D01*
X003595Y014546D01*
X003634Y014528D01*
X003672Y014507D01*
X003707Y014483D01*
X003740Y014456D01*
X003771Y014425D01*
X003798Y014392D01*
X003822Y014357D01*
X003843Y014319D01*
X003861Y014280D01*
X003874Y014239D01*
X003884Y014197D01*
X003890Y014155D01*
X003892Y014112D01*
X003890Y014069D01*
X003884Y014027D01*
X003874Y013985D01*
X003861Y013944D01*
X003843Y013905D01*
X003822Y013867D01*
X003798Y013832D01*
X003771Y013799D01*
X003740Y013768D01*
X003707Y013741D01*
X003672Y013717D01*
X003634Y013696D01*
X003595Y013678D01*
X003554Y013665D01*
X003512Y013655D01*
X003470Y013649D01*
X003427Y013647D01*
X003384Y013649D01*
X003342Y013655D01*
X003300Y013665D01*
X003259Y013678D01*
X003220Y013696D01*
X003182Y013717D01*
X003147Y013741D01*
X003114Y013768D01*
X003083Y013799D01*
X003056Y013832D01*
X003032Y013867D01*
X003011Y013905D01*
X002993Y013944D01*
X002980Y013985D01*
X002970Y014027D01*
X002964Y014069D01*
X002962Y014112D01*
X002619Y012794D02*
X002660Y012750D01*
X002698Y012705D01*
X002733Y012657D01*
X002765Y012607D01*
X002794Y012555D01*
X002820Y012502D01*
X002843Y012447D01*
X002862Y012391D01*
X002878Y012333D01*
X002891Y012275D01*
X002900Y012217D01*
X002905Y012157D01*
X002907Y012098D01*
M02*
