G75*
G70*
%OFA0B0*%
%FSLAX24Y24*%
%IPPOS*%
%LPD*%
%AMOC8*
5,1,8,0,0,1.08239X$1,22.5*
%
%ADD10C,0.0000*%
%ADD11C,0.0602*%
%ADD12R,0.0602X0.0602*%
%ADD13R,0.0525X0.0525*%
%ADD14C,0.0525*%
%ADD15R,0.0531X0.0531*%
%ADD16C,0.0531*%
%ADD17C,0.0540*%
%ADD18C,0.0118*%
%ADD19C,0.0157*%
%ADD20C,0.0297*%
%ADD21C,0.0098*%
D10*
X004651Y004041D02*
X004712Y004039D01*
X004773Y004033D01*
X004834Y004024D01*
X004894Y004011D01*
X004953Y003994D01*
X005010Y003973D01*
X005067Y003949D01*
X005121Y003921D01*
X005174Y003890D01*
X005225Y003856D01*
X005274Y003819D01*
X005320Y003779D01*
X005364Y003736D01*
X005363Y003736D02*
X007533Y001458D01*
X008301Y001089D02*
X009586Y001089D01*
X010282Y001377D02*
X010690Y001784D01*
X011386Y002073D02*
X016476Y002073D01*
X017172Y001784D02*
X017579Y001377D01*
X018275Y001089D02*
X019429Y001089D01*
X020124Y001377D02*
X020532Y001784D01*
X021228Y002073D02*
X026318Y002073D01*
X027014Y001784D02*
X027422Y001377D01*
X028118Y001089D02*
X029271Y001089D01*
X029967Y001377D02*
X030375Y001784D01*
X031071Y002073D02*
X035781Y002073D01*
X035843Y002075D01*
X035904Y002081D01*
X035965Y002090D01*
X036026Y002104D01*
X036085Y002121D01*
X036143Y002142D01*
X036200Y002167D01*
X036255Y002195D01*
X036308Y002226D01*
X036359Y002261D01*
X036408Y002299D01*
X036455Y002340D01*
X036498Y002383D01*
X036539Y002430D01*
X036577Y002479D01*
X036612Y002530D01*
X036643Y002583D01*
X036671Y002638D01*
X036696Y002695D01*
X036717Y002753D01*
X036734Y002812D01*
X036748Y002873D01*
X036757Y002934D01*
X036763Y002995D01*
X036765Y003057D01*
X036765Y019691D01*
X036763Y019753D01*
X036757Y019814D01*
X036748Y019875D01*
X036734Y019936D01*
X036717Y019995D01*
X036696Y020053D01*
X036671Y020110D01*
X036643Y020165D01*
X036612Y020218D01*
X036577Y020269D01*
X036539Y020318D01*
X036498Y020365D01*
X036455Y020408D01*
X036408Y020449D01*
X036359Y020487D01*
X036308Y020522D01*
X036255Y020553D01*
X036200Y020581D01*
X036143Y020606D01*
X036085Y020627D01*
X036026Y020644D01*
X035965Y020658D01*
X035904Y020667D01*
X035843Y020673D01*
X035781Y020675D01*
X031464Y020675D01*
X030768Y020963D02*
X029967Y021765D01*
X029271Y022053D02*
X028118Y022053D01*
X027422Y021765D02*
X027014Y021357D01*
X026318Y021069D02*
X021228Y021069D01*
X020532Y021357D02*
X020124Y021765D01*
X019429Y022053D02*
X018275Y022053D01*
X017579Y021765D02*
X017172Y021357D01*
X016476Y021069D02*
X011386Y021069D01*
X010690Y021357D02*
X010282Y021765D01*
X009586Y022053D02*
X008433Y022053D01*
X007737Y021765D02*
X006148Y020176D01*
X005452Y019888D02*
X003104Y019888D01*
X003104Y019887D02*
X003042Y019885D01*
X002981Y019879D01*
X002920Y019870D01*
X002859Y019856D01*
X002800Y019839D01*
X002742Y019818D01*
X002685Y019793D01*
X002630Y019765D01*
X002577Y019734D01*
X002526Y019699D01*
X002477Y019661D01*
X002430Y019620D01*
X002387Y019577D01*
X002346Y019530D01*
X002308Y019481D01*
X002273Y019430D01*
X002242Y019377D01*
X002214Y019322D01*
X002189Y019265D01*
X002168Y019207D01*
X002151Y019148D01*
X002137Y019087D01*
X002128Y019026D01*
X002122Y018965D01*
X002120Y018903D01*
X002120Y013701D01*
X002122Y013642D01*
X002127Y013582D01*
X002136Y013524D01*
X002149Y013466D01*
X002165Y013408D01*
X002184Y013352D01*
X002207Y013297D01*
X002233Y013244D01*
X002262Y013192D01*
X002294Y013142D01*
X002329Y013094D01*
X002367Y013049D01*
X002408Y013005D01*
X002619Y012794D01*
X002907Y012098D02*
X002907Y005026D01*
X002909Y004964D01*
X002915Y004903D01*
X002924Y004842D01*
X002938Y004781D01*
X002955Y004722D01*
X002976Y004664D01*
X003001Y004607D01*
X003029Y004552D01*
X003060Y004499D01*
X003095Y004448D01*
X003133Y004399D01*
X003174Y004352D01*
X003217Y004309D01*
X003264Y004268D01*
X003313Y004230D01*
X003364Y004195D01*
X003417Y004164D01*
X003472Y004136D01*
X003529Y004111D01*
X003587Y004090D01*
X003646Y004073D01*
X003707Y004059D01*
X003768Y004050D01*
X003829Y004044D01*
X003891Y004042D01*
X003891Y004041D02*
X004651Y004041D01*
X007533Y001458D02*
X007571Y001414D01*
X007611Y001371D01*
X007654Y001331D01*
X007700Y001294D01*
X007748Y001259D01*
X007797Y001228D01*
X007848Y001199D01*
X007901Y001174D01*
X007956Y001152D01*
X008011Y001133D01*
X008068Y001117D01*
X008126Y001105D01*
X008184Y001096D01*
X008242Y001091D01*
X008301Y001089D01*
X009586Y001089D02*
X009645Y001091D01*
X009705Y001096D01*
X009763Y001105D01*
X009821Y001118D01*
X009879Y001134D01*
X009935Y001153D01*
X009990Y001176D01*
X010043Y001202D01*
X010095Y001231D01*
X010145Y001263D01*
X010193Y001298D01*
X010238Y001336D01*
X010282Y001377D01*
X010690Y001785D02*
X010734Y001826D01*
X010779Y001864D01*
X010827Y001899D01*
X010877Y001931D01*
X010929Y001960D01*
X010982Y001986D01*
X011037Y002009D01*
X011093Y002028D01*
X011151Y002044D01*
X011209Y002057D01*
X011267Y002066D01*
X011327Y002071D01*
X011386Y002073D01*
X008389Y002762D02*
X008391Y002811D01*
X008397Y002860D01*
X008407Y002909D01*
X008420Y002956D01*
X008437Y003002D01*
X008458Y003047D01*
X008483Y003090D01*
X008510Y003130D01*
X008541Y003169D01*
X008575Y003205D01*
X008612Y003238D01*
X008651Y003268D01*
X008692Y003295D01*
X008735Y003318D01*
X008780Y003338D01*
X008827Y003355D01*
X008874Y003367D01*
X008923Y003376D01*
X008972Y003381D01*
X009021Y003382D01*
X009071Y003379D01*
X009119Y003372D01*
X009167Y003361D01*
X009215Y003347D01*
X009260Y003329D01*
X009305Y003307D01*
X009347Y003282D01*
X009387Y003253D01*
X009425Y003222D01*
X009460Y003187D01*
X009493Y003150D01*
X009522Y003110D01*
X009548Y003068D01*
X009571Y003025D01*
X009590Y002979D01*
X009605Y002932D01*
X009617Y002884D01*
X009625Y002836D01*
X009629Y002787D01*
X009629Y002737D01*
X009625Y002688D01*
X009617Y002640D01*
X009605Y002592D01*
X009590Y002545D01*
X009571Y002499D01*
X009548Y002456D01*
X009522Y002414D01*
X009493Y002374D01*
X009460Y002337D01*
X009425Y002302D01*
X009387Y002271D01*
X009347Y002242D01*
X009305Y002217D01*
X009260Y002195D01*
X009215Y002177D01*
X009167Y002163D01*
X009119Y002152D01*
X009071Y002145D01*
X009021Y002142D01*
X008972Y002143D01*
X008923Y002148D01*
X008874Y002157D01*
X008827Y002169D01*
X008780Y002186D01*
X008735Y002206D01*
X008692Y002229D01*
X008651Y002256D01*
X008612Y002286D01*
X008575Y002319D01*
X008541Y002355D01*
X008510Y002394D01*
X008483Y002434D01*
X008458Y002477D01*
X008437Y002522D01*
X008420Y002568D01*
X008407Y002615D01*
X008397Y002664D01*
X008391Y002713D01*
X008389Y002762D01*
X016476Y002073D02*
X016535Y002071D01*
X016595Y002066D01*
X016653Y002057D01*
X016711Y002044D01*
X016769Y002028D01*
X016825Y002009D01*
X016880Y001986D01*
X016933Y001960D01*
X016985Y001931D01*
X017035Y001899D01*
X017083Y001864D01*
X017128Y001826D01*
X017172Y001785D01*
X017579Y001377D02*
X017623Y001336D01*
X017668Y001298D01*
X017716Y001263D01*
X017766Y001231D01*
X017818Y001202D01*
X017871Y001176D01*
X017926Y001153D01*
X017982Y001134D01*
X018040Y001118D01*
X018098Y001105D01*
X018156Y001096D01*
X018216Y001091D01*
X018275Y001089D01*
X019429Y001089D02*
X019488Y001091D01*
X019548Y001096D01*
X019606Y001105D01*
X019664Y001118D01*
X019722Y001134D01*
X019778Y001153D01*
X019833Y001176D01*
X019886Y001202D01*
X019938Y001231D01*
X019988Y001263D01*
X020036Y001298D01*
X020081Y001336D01*
X020125Y001377D01*
X020532Y001785D02*
X020576Y001826D01*
X020621Y001864D01*
X020669Y001899D01*
X020719Y001931D01*
X020771Y001960D01*
X020824Y001986D01*
X020879Y002009D01*
X020935Y002028D01*
X020993Y002044D01*
X021051Y002057D01*
X021109Y002066D01*
X021169Y002071D01*
X021228Y002073D01*
X018232Y002762D02*
X018234Y002811D01*
X018240Y002860D01*
X018250Y002909D01*
X018263Y002956D01*
X018280Y003002D01*
X018301Y003047D01*
X018326Y003090D01*
X018353Y003130D01*
X018384Y003169D01*
X018418Y003205D01*
X018455Y003238D01*
X018494Y003268D01*
X018535Y003295D01*
X018578Y003318D01*
X018623Y003338D01*
X018670Y003355D01*
X018717Y003367D01*
X018766Y003376D01*
X018815Y003381D01*
X018864Y003382D01*
X018914Y003379D01*
X018962Y003372D01*
X019010Y003361D01*
X019058Y003347D01*
X019103Y003329D01*
X019148Y003307D01*
X019190Y003282D01*
X019230Y003253D01*
X019268Y003222D01*
X019303Y003187D01*
X019336Y003150D01*
X019365Y003110D01*
X019391Y003068D01*
X019414Y003025D01*
X019433Y002979D01*
X019448Y002932D01*
X019460Y002884D01*
X019468Y002836D01*
X019472Y002787D01*
X019472Y002737D01*
X019468Y002688D01*
X019460Y002640D01*
X019448Y002592D01*
X019433Y002545D01*
X019414Y002499D01*
X019391Y002456D01*
X019365Y002414D01*
X019336Y002374D01*
X019303Y002337D01*
X019268Y002302D01*
X019230Y002271D01*
X019190Y002242D01*
X019148Y002217D01*
X019103Y002195D01*
X019058Y002177D01*
X019010Y002163D01*
X018962Y002152D01*
X018914Y002145D01*
X018864Y002142D01*
X018815Y002143D01*
X018766Y002148D01*
X018717Y002157D01*
X018670Y002169D01*
X018623Y002186D01*
X018578Y002206D01*
X018535Y002229D01*
X018494Y002256D01*
X018455Y002286D01*
X018418Y002319D01*
X018384Y002355D01*
X018353Y002394D01*
X018326Y002434D01*
X018301Y002477D01*
X018280Y002522D01*
X018263Y002568D01*
X018250Y002615D01*
X018240Y002664D01*
X018234Y002713D01*
X018232Y002762D01*
X026318Y002073D02*
X026377Y002071D01*
X026437Y002066D01*
X026495Y002057D01*
X026553Y002044D01*
X026611Y002028D01*
X026667Y002009D01*
X026722Y001986D01*
X026775Y001960D01*
X026827Y001931D01*
X026877Y001899D01*
X026925Y001864D01*
X026970Y001826D01*
X027014Y001785D01*
X027422Y001377D02*
X027466Y001336D01*
X027511Y001298D01*
X027559Y001263D01*
X027609Y001231D01*
X027661Y001202D01*
X027714Y001176D01*
X027769Y001153D01*
X027825Y001134D01*
X027883Y001118D01*
X027941Y001105D01*
X027999Y001096D01*
X028059Y001091D01*
X028118Y001089D01*
X029271Y001089D02*
X029330Y001091D01*
X029390Y001096D01*
X029448Y001105D01*
X029506Y001118D01*
X029564Y001134D01*
X029620Y001153D01*
X029675Y001176D01*
X029728Y001202D01*
X029780Y001231D01*
X029830Y001263D01*
X029878Y001298D01*
X029923Y001336D01*
X029967Y001377D01*
X030375Y001785D02*
X030419Y001826D01*
X030464Y001864D01*
X030512Y001899D01*
X030562Y001931D01*
X030614Y001960D01*
X030667Y001986D01*
X030722Y002009D01*
X030778Y002028D01*
X030836Y002044D01*
X030894Y002057D01*
X030952Y002066D01*
X031012Y002071D01*
X031071Y002073D01*
X028074Y002762D02*
X028076Y002811D01*
X028082Y002860D01*
X028092Y002909D01*
X028105Y002956D01*
X028122Y003002D01*
X028143Y003047D01*
X028168Y003090D01*
X028195Y003130D01*
X028226Y003169D01*
X028260Y003205D01*
X028297Y003238D01*
X028336Y003268D01*
X028377Y003295D01*
X028420Y003318D01*
X028465Y003338D01*
X028512Y003355D01*
X028559Y003367D01*
X028608Y003376D01*
X028657Y003381D01*
X028706Y003382D01*
X028756Y003379D01*
X028804Y003372D01*
X028852Y003361D01*
X028900Y003347D01*
X028945Y003329D01*
X028990Y003307D01*
X029032Y003282D01*
X029072Y003253D01*
X029110Y003222D01*
X029145Y003187D01*
X029178Y003150D01*
X029207Y003110D01*
X029233Y003068D01*
X029256Y003025D01*
X029275Y002979D01*
X029290Y002932D01*
X029302Y002884D01*
X029310Y002836D01*
X029314Y002787D01*
X029314Y002737D01*
X029310Y002688D01*
X029302Y002640D01*
X029290Y002592D01*
X029275Y002545D01*
X029256Y002499D01*
X029233Y002456D01*
X029207Y002414D01*
X029178Y002374D01*
X029145Y002337D01*
X029110Y002302D01*
X029072Y002271D01*
X029032Y002242D01*
X028990Y002217D01*
X028945Y002195D01*
X028900Y002177D01*
X028852Y002163D01*
X028804Y002152D01*
X028756Y002145D01*
X028706Y002142D01*
X028657Y002143D01*
X028608Y002148D01*
X028559Y002157D01*
X028512Y002169D01*
X028465Y002186D01*
X028420Y002206D01*
X028377Y002229D01*
X028336Y002256D01*
X028297Y002286D01*
X028260Y002319D01*
X028226Y002355D01*
X028195Y002394D01*
X028168Y002434D01*
X028143Y002477D01*
X028122Y002522D01*
X028105Y002568D01*
X028092Y002615D01*
X028082Y002664D01*
X028076Y002713D01*
X028074Y002762D01*
X022647Y014112D02*
X022649Y014155D01*
X022655Y014197D01*
X022665Y014239D01*
X022678Y014280D01*
X022696Y014319D01*
X022717Y014357D01*
X022741Y014392D01*
X022768Y014425D01*
X022799Y014456D01*
X022832Y014483D01*
X022867Y014507D01*
X022905Y014528D01*
X022944Y014546D01*
X022985Y014559D01*
X023027Y014569D01*
X023069Y014575D01*
X023112Y014577D01*
X023155Y014575D01*
X023197Y014569D01*
X023239Y014559D01*
X023280Y014546D01*
X023319Y014528D01*
X023357Y014507D01*
X023392Y014483D01*
X023425Y014456D01*
X023456Y014425D01*
X023483Y014392D01*
X023507Y014357D01*
X023528Y014319D01*
X023546Y014280D01*
X023559Y014239D01*
X023569Y014197D01*
X023575Y014155D01*
X023577Y014112D01*
X023575Y014069D01*
X023569Y014027D01*
X023559Y013985D01*
X023546Y013944D01*
X023528Y013905D01*
X023507Y013867D01*
X023483Y013832D01*
X023456Y013799D01*
X023425Y013768D01*
X023392Y013741D01*
X023357Y013717D01*
X023319Y013696D01*
X023280Y013678D01*
X023239Y013665D01*
X023197Y013655D01*
X023155Y013649D01*
X023112Y013647D01*
X023069Y013649D01*
X023027Y013655D01*
X022985Y013665D01*
X022944Y013678D01*
X022905Y013696D01*
X022867Y013717D01*
X022832Y013741D01*
X022799Y013768D01*
X022768Y013799D01*
X022741Y013832D01*
X022717Y013867D01*
X022696Y013905D01*
X022678Y013944D01*
X022665Y013985D01*
X022655Y014027D01*
X022649Y014069D01*
X022647Y014112D01*
X022647Y018837D02*
X022649Y018880D01*
X022655Y018922D01*
X022665Y018964D01*
X022678Y019005D01*
X022696Y019044D01*
X022717Y019082D01*
X022741Y019117D01*
X022768Y019150D01*
X022799Y019181D01*
X022832Y019208D01*
X022867Y019232D01*
X022905Y019253D01*
X022944Y019271D01*
X022985Y019284D01*
X023027Y019294D01*
X023069Y019300D01*
X023112Y019302D01*
X023155Y019300D01*
X023197Y019294D01*
X023239Y019284D01*
X023280Y019271D01*
X023319Y019253D01*
X023357Y019232D01*
X023392Y019208D01*
X023425Y019181D01*
X023456Y019150D01*
X023483Y019117D01*
X023507Y019082D01*
X023528Y019044D01*
X023546Y019005D01*
X023559Y018964D01*
X023569Y018922D01*
X023575Y018880D01*
X023577Y018837D01*
X023575Y018794D01*
X023569Y018752D01*
X023559Y018710D01*
X023546Y018669D01*
X023528Y018630D01*
X023507Y018592D01*
X023483Y018557D01*
X023456Y018524D01*
X023425Y018493D01*
X023392Y018466D01*
X023357Y018442D01*
X023319Y018421D01*
X023280Y018403D01*
X023239Y018390D01*
X023197Y018380D01*
X023155Y018374D01*
X023112Y018372D01*
X023069Y018374D01*
X023027Y018380D01*
X022985Y018390D01*
X022944Y018403D01*
X022905Y018421D01*
X022867Y018442D01*
X022832Y018466D01*
X022799Y018493D01*
X022768Y018524D01*
X022741Y018557D01*
X022717Y018592D01*
X022696Y018630D01*
X022678Y018669D01*
X022665Y018710D01*
X022655Y018752D01*
X022649Y018794D01*
X022647Y018837D01*
X020125Y021765D02*
X020081Y021806D01*
X020036Y021844D01*
X019988Y021879D01*
X019938Y021911D01*
X019886Y021940D01*
X019833Y021966D01*
X019778Y021989D01*
X019722Y022008D01*
X019664Y022024D01*
X019606Y022037D01*
X019548Y022046D01*
X019488Y022051D01*
X019429Y022053D01*
X018275Y022053D02*
X018216Y022051D01*
X018156Y022046D01*
X018098Y022037D01*
X018040Y022024D01*
X017982Y022008D01*
X017926Y021989D01*
X017871Y021966D01*
X017818Y021940D01*
X017766Y021911D01*
X017716Y021879D01*
X017668Y021844D01*
X017623Y021806D01*
X017579Y021765D01*
X017172Y021357D02*
X017128Y021316D01*
X017083Y021278D01*
X017035Y021243D01*
X016985Y021211D01*
X016933Y021182D01*
X016880Y021156D01*
X016825Y021133D01*
X016769Y021114D01*
X016711Y021098D01*
X016653Y021085D01*
X016595Y021076D01*
X016535Y021071D01*
X016476Y021069D01*
X018232Y020380D02*
X018234Y020429D01*
X018240Y020478D01*
X018250Y020527D01*
X018263Y020574D01*
X018280Y020620D01*
X018301Y020665D01*
X018326Y020708D01*
X018353Y020748D01*
X018384Y020787D01*
X018418Y020823D01*
X018455Y020856D01*
X018494Y020886D01*
X018535Y020913D01*
X018578Y020936D01*
X018623Y020956D01*
X018670Y020973D01*
X018717Y020985D01*
X018766Y020994D01*
X018815Y020999D01*
X018864Y021000D01*
X018914Y020997D01*
X018962Y020990D01*
X019010Y020979D01*
X019058Y020965D01*
X019103Y020947D01*
X019148Y020925D01*
X019190Y020900D01*
X019230Y020871D01*
X019268Y020840D01*
X019303Y020805D01*
X019336Y020768D01*
X019365Y020728D01*
X019391Y020686D01*
X019414Y020643D01*
X019433Y020597D01*
X019448Y020550D01*
X019460Y020502D01*
X019468Y020454D01*
X019472Y020405D01*
X019472Y020355D01*
X019468Y020306D01*
X019460Y020258D01*
X019448Y020210D01*
X019433Y020163D01*
X019414Y020117D01*
X019391Y020074D01*
X019365Y020032D01*
X019336Y019992D01*
X019303Y019955D01*
X019268Y019920D01*
X019230Y019889D01*
X019190Y019860D01*
X019148Y019835D01*
X019103Y019813D01*
X019058Y019795D01*
X019010Y019781D01*
X018962Y019770D01*
X018914Y019763D01*
X018864Y019760D01*
X018815Y019761D01*
X018766Y019766D01*
X018717Y019775D01*
X018670Y019787D01*
X018623Y019804D01*
X018578Y019824D01*
X018535Y019847D01*
X018494Y019874D01*
X018455Y019904D01*
X018418Y019937D01*
X018384Y019973D01*
X018353Y020012D01*
X018326Y020052D01*
X018301Y020095D01*
X018280Y020140D01*
X018263Y020186D01*
X018250Y020233D01*
X018240Y020282D01*
X018234Y020331D01*
X018232Y020380D01*
X020532Y021357D02*
X020576Y021316D01*
X020621Y021278D01*
X020669Y021243D01*
X020719Y021211D01*
X020771Y021182D01*
X020824Y021156D01*
X020879Y021133D01*
X020935Y021114D01*
X020993Y021098D01*
X021051Y021085D01*
X021109Y021076D01*
X021169Y021071D01*
X021228Y021069D01*
X026318Y021069D02*
X026377Y021071D01*
X026437Y021076D01*
X026495Y021085D01*
X026553Y021098D01*
X026611Y021114D01*
X026667Y021133D01*
X026722Y021156D01*
X026775Y021182D01*
X026827Y021211D01*
X026877Y021243D01*
X026925Y021278D01*
X026970Y021316D01*
X027014Y021357D01*
X027422Y021765D02*
X027466Y021806D01*
X027511Y021844D01*
X027559Y021879D01*
X027609Y021911D01*
X027661Y021940D01*
X027714Y021966D01*
X027769Y021989D01*
X027825Y022008D01*
X027883Y022024D01*
X027941Y022037D01*
X027999Y022046D01*
X028059Y022051D01*
X028118Y022053D01*
X029271Y022053D02*
X029330Y022051D01*
X029390Y022046D01*
X029448Y022037D01*
X029506Y022024D01*
X029564Y022008D01*
X029620Y021989D01*
X029675Y021966D01*
X029728Y021940D01*
X029780Y021911D01*
X029830Y021879D01*
X029878Y021844D01*
X029923Y021806D01*
X029967Y021765D01*
X030768Y020963D02*
X030812Y020922D01*
X030857Y020884D01*
X030905Y020849D01*
X030955Y020817D01*
X031007Y020788D01*
X031060Y020762D01*
X031115Y020739D01*
X031171Y020720D01*
X031229Y020704D01*
X031287Y020691D01*
X031345Y020682D01*
X031405Y020677D01*
X031464Y020675D01*
X032454Y019494D02*
X032456Y019522D01*
X032462Y019549D01*
X032471Y019576D01*
X032485Y019601D01*
X032501Y019623D01*
X032521Y019643D01*
X032543Y019661D01*
X032567Y019675D01*
X032593Y019685D01*
X032620Y019692D01*
X032648Y019695D01*
X032676Y019694D01*
X032704Y019689D01*
X032730Y019680D01*
X032755Y019668D01*
X032779Y019652D01*
X032800Y019634D01*
X032818Y019612D01*
X032832Y019588D01*
X032844Y019563D01*
X032852Y019536D01*
X032856Y019508D01*
X032856Y019480D01*
X032852Y019452D01*
X032844Y019425D01*
X032832Y019400D01*
X032818Y019376D01*
X032800Y019354D01*
X032779Y019336D01*
X032756Y019320D01*
X032730Y019308D01*
X032704Y019299D01*
X032676Y019294D01*
X032648Y019293D01*
X032620Y019296D01*
X032593Y019303D01*
X032567Y019313D01*
X032543Y019327D01*
X032521Y019345D01*
X032501Y019365D01*
X032485Y019387D01*
X032471Y019412D01*
X032462Y019439D01*
X032456Y019466D01*
X032454Y019494D01*
X028074Y020380D02*
X028076Y020429D01*
X028082Y020478D01*
X028092Y020527D01*
X028105Y020574D01*
X028122Y020620D01*
X028143Y020665D01*
X028168Y020708D01*
X028195Y020748D01*
X028226Y020787D01*
X028260Y020823D01*
X028297Y020856D01*
X028336Y020886D01*
X028377Y020913D01*
X028420Y020936D01*
X028465Y020956D01*
X028512Y020973D01*
X028559Y020985D01*
X028608Y020994D01*
X028657Y020999D01*
X028706Y021000D01*
X028756Y020997D01*
X028804Y020990D01*
X028852Y020979D01*
X028900Y020965D01*
X028945Y020947D01*
X028990Y020925D01*
X029032Y020900D01*
X029072Y020871D01*
X029110Y020840D01*
X029145Y020805D01*
X029178Y020768D01*
X029207Y020728D01*
X029233Y020686D01*
X029256Y020643D01*
X029275Y020597D01*
X029290Y020550D01*
X029302Y020502D01*
X029310Y020454D01*
X029314Y020405D01*
X029314Y020355D01*
X029310Y020306D01*
X029302Y020258D01*
X029290Y020210D01*
X029275Y020163D01*
X029256Y020117D01*
X029233Y020074D01*
X029207Y020032D01*
X029178Y019992D01*
X029145Y019955D01*
X029110Y019920D01*
X029072Y019889D01*
X029032Y019860D01*
X028990Y019835D01*
X028945Y019813D01*
X028900Y019795D01*
X028852Y019781D01*
X028804Y019770D01*
X028756Y019763D01*
X028706Y019760D01*
X028657Y019761D01*
X028608Y019766D01*
X028559Y019775D01*
X028512Y019787D01*
X028465Y019804D01*
X028420Y019824D01*
X028377Y019847D01*
X028336Y019874D01*
X028297Y019904D01*
X028260Y019937D01*
X028226Y019973D01*
X028195Y020012D01*
X028168Y020052D01*
X028143Y020095D01*
X028122Y020140D01*
X028105Y020186D01*
X028092Y020233D01*
X028082Y020282D01*
X028076Y020331D01*
X028074Y020380D01*
X032454Y014770D02*
X032456Y014798D01*
X032462Y014825D01*
X032471Y014852D01*
X032485Y014877D01*
X032501Y014899D01*
X032521Y014919D01*
X032543Y014937D01*
X032567Y014951D01*
X032593Y014961D01*
X032620Y014968D01*
X032648Y014971D01*
X032676Y014970D01*
X032704Y014965D01*
X032730Y014956D01*
X032755Y014944D01*
X032779Y014928D01*
X032800Y014910D01*
X032818Y014888D01*
X032832Y014864D01*
X032844Y014839D01*
X032852Y014812D01*
X032856Y014784D01*
X032856Y014756D01*
X032852Y014728D01*
X032844Y014701D01*
X032832Y014676D01*
X032818Y014652D01*
X032800Y014630D01*
X032779Y014612D01*
X032756Y014596D01*
X032730Y014584D01*
X032704Y014575D01*
X032676Y014570D01*
X032648Y014569D01*
X032620Y014572D01*
X032593Y014579D01*
X032567Y014589D01*
X032543Y014603D01*
X032521Y014621D01*
X032501Y014641D01*
X032485Y014663D01*
X032471Y014688D01*
X032462Y014715D01*
X032456Y014742D01*
X032454Y014770D01*
X012804Y014112D02*
X012806Y014155D01*
X012812Y014197D01*
X012822Y014239D01*
X012835Y014280D01*
X012853Y014319D01*
X012874Y014357D01*
X012898Y014392D01*
X012925Y014425D01*
X012956Y014456D01*
X012989Y014483D01*
X013024Y014507D01*
X013062Y014528D01*
X013101Y014546D01*
X013142Y014559D01*
X013184Y014569D01*
X013226Y014575D01*
X013269Y014577D01*
X013312Y014575D01*
X013354Y014569D01*
X013396Y014559D01*
X013437Y014546D01*
X013476Y014528D01*
X013514Y014507D01*
X013549Y014483D01*
X013582Y014456D01*
X013613Y014425D01*
X013640Y014392D01*
X013664Y014357D01*
X013685Y014319D01*
X013703Y014280D01*
X013716Y014239D01*
X013726Y014197D01*
X013732Y014155D01*
X013734Y014112D01*
X013732Y014069D01*
X013726Y014027D01*
X013716Y013985D01*
X013703Y013944D01*
X013685Y013905D01*
X013664Y013867D01*
X013640Y013832D01*
X013613Y013799D01*
X013582Y013768D01*
X013549Y013741D01*
X013514Y013717D01*
X013476Y013696D01*
X013437Y013678D01*
X013396Y013665D01*
X013354Y013655D01*
X013312Y013649D01*
X013269Y013647D01*
X013226Y013649D01*
X013184Y013655D01*
X013142Y013665D01*
X013101Y013678D01*
X013062Y013696D01*
X013024Y013717D01*
X012989Y013741D01*
X012956Y013768D01*
X012925Y013799D01*
X012898Y013832D01*
X012874Y013867D01*
X012853Y013905D01*
X012835Y013944D01*
X012822Y013985D01*
X012812Y014027D01*
X012806Y014069D01*
X012804Y014112D01*
X012804Y018837D02*
X012806Y018880D01*
X012812Y018922D01*
X012822Y018964D01*
X012835Y019005D01*
X012853Y019044D01*
X012874Y019082D01*
X012898Y019117D01*
X012925Y019150D01*
X012956Y019181D01*
X012989Y019208D01*
X013024Y019232D01*
X013062Y019253D01*
X013101Y019271D01*
X013142Y019284D01*
X013184Y019294D01*
X013226Y019300D01*
X013269Y019302D01*
X013312Y019300D01*
X013354Y019294D01*
X013396Y019284D01*
X013437Y019271D01*
X013476Y019253D01*
X013514Y019232D01*
X013549Y019208D01*
X013582Y019181D01*
X013613Y019150D01*
X013640Y019117D01*
X013664Y019082D01*
X013685Y019044D01*
X013703Y019005D01*
X013716Y018964D01*
X013726Y018922D01*
X013732Y018880D01*
X013734Y018837D01*
X013732Y018794D01*
X013726Y018752D01*
X013716Y018710D01*
X013703Y018669D01*
X013685Y018630D01*
X013664Y018592D01*
X013640Y018557D01*
X013613Y018524D01*
X013582Y018493D01*
X013549Y018466D01*
X013514Y018442D01*
X013476Y018421D01*
X013437Y018403D01*
X013396Y018390D01*
X013354Y018380D01*
X013312Y018374D01*
X013269Y018372D01*
X013226Y018374D01*
X013184Y018380D01*
X013142Y018390D01*
X013101Y018403D01*
X013062Y018421D01*
X013024Y018442D01*
X012989Y018466D01*
X012956Y018493D01*
X012925Y018524D01*
X012898Y018557D01*
X012874Y018592D01*
X012853Y018630D01*
X012835Y018669D01*
X012822Y018710D01*
X012812Y018752D01*
X012806Y018794D01*
X012804Y018837D01*
X010282Y021765D02*
X010238Y021806D01*
X010193Y021844D01*
X010145Y021879D01*
X010095Y021911D01*
X010043Y021940D01*
X009990Y021966D01*
X009935Y021989D01*
X009879Y022008D01*
X009821Y022024D01*
X009763Y022037D01*
X009705Y022046D01*
X009645Y022051D01*
X009586Y022053D01*
X008433Y022053D02*
X008374Y022051D01*
X008314Y022046D01*
X008256Y022037D01*
X008198Y022024D01*
X008140Y022008D01*
X008084Y021989D01*
X008029Y021966D01*
X007976Y021940D01*
X007924Y021911D01*
X007874Y021879D01*
X007826Y021844D01*
X007781Y021806D01*
X007737Y021765D01*
X008389Y020380D02*
X008391Y020429D01*
X008397Y020478D01*
X008407Y020527D01*
X008420Y020574D01*
X008437Y020620D01*
X008458Y020665D01*
X008483Y020708D01*
X008510Y020748D01*
X008541Y020787D01*
X008575Y020823D01*
X008612Y020856D01*
X008651Y020886D01*
X008692Y020913D01*
X008735Y020936D01*
X008780Y020956D01*
X008827Y020973D01*
X008874Y020985D01*
X008923Y020994D01*
X008972Y020999D01*
X009021Y021000D01*
X009071Y020997D01*
X009119Y020990D01*
X009167Y020979D01*
X009215Y020965D01*
X009260Y020947D01*
X009305Y020925D01*
X009347Y020900D01*
X009387Y020871D01*
X009425Y020840D01*
X009460Y020805D01*
X009493Y020768D01*
X009522Y020728D01*
X009548Y020686D01*
X009571Y020643D01*
X009590Y020597D01*
X009605Y020550D01*
X009617Y020502D01*
X009625Y020454D01*
X009629Y020405D01*
X009629Y020355D01*
X009625Y020306D01*
X009617Y020258D01*
X009605Y020210D01*
X009590Y020163D01*
X009571Y020117D01*
X009548Y020074D01*
X009522Y020032D01*
X009493Y019992D01*
X009460Y019955D01*
X009425Y019920D01*
X009387Y019889D01*
X009347Y019860D01*
X009305Y019835D01*
X009260Y019813D01*
X009215Y019795D01*
X009167Y019781D01*
X009119Y019770D01*
X009071Y019763D01*
X009021Y019760D01*
X008972Y019761D01*
X008923Y019766D01*
X008874Y019775D01*
X008827Y019787D01*
X008780Y019804D01*
X008735Y019824D01*
X008692Y019847D01*
X008651Y019874D01*
X008612Y019904D01*
X008575Y019937D01*
X008541Y019973D01*
X008510Y020012D01*
X008483Y020052D01*
X008458Y020095D01*
X008437Y020140D01*
X008420Y020186D01*
X008407Y020233D01*
X008397Y020282D01*
X008391Y020331D01*
X008389Y020380D01*
X010690Y021357D02*
X010734Y021316D01*
X010779Y021278D01*
X010827Y021243D01*
X010877Y021211D01*
X010929Y021182D01*
X010982Y021156D01*
X011037Y021133D01*
X011093Y021114D01*
X011151Y021098D01*
X011209Y021085D01*
X011267Y021076D01*
X011327Y021071D01*
X011386Y021069D01*
X006148Y020176D02*
X006104Y020135D01*
X006059Y020097D01*
X006011Y020062D01*
X005961Y020030D01*
X005909Y020001D01*
X005856Y019975D01*
X005801Y019952D01*
X005745Y019933D01*
X005687Y019917D01*
X005629Y019904D01*
X005571Y019895D01*
X005511Y019890D01*
X005452Y019888D01*
X002962Y018837D02*
X002964Y018880D01*
X002970Y018922D01*
X002980Y018964D01*
X002993Y019005D01*
X003011Y019044D01*
X003032Y019082D01*
X003056Y019117D01*
X003083Y019150D01*
X003114Y019181D01*
X003147Y019208D01*
X003182Y019232D01*
X003220Y019253D01*
X003259Y019271D01*
X003300Y019284D01*
X003342Y019294D01*
X003384Y019300D01*
X003427Y019302D01*
X003470Y019300D01*
X003512Y019294D01*
X003554Y019284D01*
X003595Y019271D01*
X003634Y019253D01*
X003672Y019232D01*
X003707Y019208D01*
X003740Y019181D01*
X003771Y019150D01*
X003798Y019117D01*
X003822Y019082D01*
X003843Y019044D01*
X003861Y019005D01*
X003874Y018964D01*
X003884Y018922D01*
X003890Y018880D01*
X003892Y018837D01*
X003890Y018794D01*
X003884Y018752D01*
X003874Y018710D01*
X003861Y018669D01*
X003843Y018630D01*
X003822Y018592D01*
X003798Y018557D01*
X003771Y018524D01*
X003740Y018493D01*
X003707Y018466D01*
X003672Y018442D01*
X003634Y018421D01*
X003595Y018403D01*
X003554Y018390D01*
X003512Y018380D01*
X003470Y018374D01*
X003427Y018372D01*
X003384Y018374D01*
X003342Y018380D01*
X003300Y018390D01*
X003259Y018403D01*
X003220Y018421D01*
X003182Y018442D01*
X003147Y018466D01*
X003114Y018493D01*
X003083Y018524D01*
X003056Y018557D01*
X003032Y018592D01*
X003011Y018630D01*
X002993Y018669D01*
X002980Y018710D01*
X002970Y018752D01*
X002964Y018794D01*
X002962Y018837D01*
X002962Y014112D02*
X002964Y014155D01*
X002970Y014197D01*
X002980Y014239D01*
X002993Y014280D01*
X003011Y014319D01*
X003032Y014357D01*
X003056Y014392D01*
X003083Y014425D01*
X003114Y014456D01*
X003147Y014483D01*
X003182Y014507D01*
X003220Y014528D01*
X003259Y014546D01*
X003300Y014559D01*
X003342Y014569D01*
X003384Y014575D01*
X003427Y014577D01*
X003470Y014575D01*
X003512Y014569D01*
X003554Y014559D01*
X003595Y014546D01*
X003634Y014528D01*
X003672Y014507D01*
X003707Y014483D01*
X003740Y014456D01*
X003771Y014425D01*
X003798Y014392D01*
X003822Y014357D01*
X003843Y014319D01*
X003861Y014280D01*
X003874Y014239D01*
X003884Y014197D01*
X003890Y014155D01*
X003892Y014112D01*
X003890Y014069D01*
X003884Y014027D01*
X003874Y013985D01*
X003861Y013944D01*
X003843Y013905D01*
X003822Y013867D01*
X003798Y013832D01*
X003771Y013799D01*
X003740Y013768D01*
X003707Y013741D01*
X003672Y013717D01*
X003634Y013696D01*
X003595Y013678D01*
X003554Y013665D01*
X003512Y013655D01*
X003470Y013649D01*
X003427Y013647D01*
X003384Y013649D01*
X003342Y013655D01*
X003300Y013665D01*
X003259Y013678D01*
X003220Y013696D01*
X003182Y013717D01*
X003147Y013741D01*
X003114Y013768D01*
X003083Y013799D01*
X003056Y013832D01*
X003032Y013867D01*
X003011Y013905D01*
X002993Y013944D01*
X002980Y013985D01*
X002970Y014027D01*
X002964Y014069D01*
X002962Y014112D01*
X002619Y012794D02*
X002660Y012750D01*
X002698Y012705D01*
X002733Y012657D01*
X002765Y012607D01*
X002794Y012555D01*
X002820Y012502D01*
X002843Y012447D01*
X002862Y012391D01*
X002878Y012333D01*
X002891Y012275D01*
X002900Y012217D01*
X002905Y012157D01*
X002907Y012098D01*
D11*
X003427Y015293D03*
X004608Y015293D03*
X004608Y016474D03*
X003427Y016474D03*
X003427Y017655D03*
X004608Y017655D03*
X013269Y017655D03*
X014450Y017655D03*
X014450Y016474D03*
X013269Y016474D03*
X013269Y015293D03*
X014450Y015293D03*
X023112Y015293D03*
X024293Y015293D03*
X024293Y016474D03*
X023112Y016474D03*
X023112Y017655D03*
X024293Y017655D03*
X033025Y017132D03*
X034206Y017132D03*
X033025Y018313D03*
X033025Y015951D03*
X034206Y015951D03*
D12*
X034206Y018313D03*
D13*
X024273Y008151D03*
X014431Y008151D03*
X004588Y008151D03*
D14*
X003588Y008151D03*
X003588Y007151D03*
X004588Y007151D03*
X004588Y006151D03*
X003588Y006151D03*
X003588Y005151D03*
X004588Y005151D03*
X013431Y005151D03*
X014431Y005151D03*
X014431Y006151D03*
X013431Y006151D03*
X013431Y007151D03*
X014431Y007151D03*
X013431Y008151D03*
X023273Y008151D03*
X023273Y007151D03*
X024273Y007151D03*
X024273Y006151D03*
X023273Y006151D03*
X023273Y005151D03*
X024273Y005151D03*
D15*
X035289Y012604D03*
D16*
X034305Y012604D03*
X033320Y012604D03*
X032336Y012604D03*
D17*
X034100Y009797D03*
X035100Y009797D03*
X035100Y008797D03*
X034100Y008797D03*
X034100Y007797D03*
X035100Y007797D03*
X035100Y006797D03*
X034100Y006797D03*
X035100Y005797D03*
X035100Y004797D03*
X034100Y004797D03*
X034100Y003797D03*
X035100Y003797D03*
D18*
X034659Y004238D02*
X032041Y004238D01*
X030128Y006151D01*
X024273Y006151D01*
X023824Y006600D01*
X018734Y006600D01*
X018655Y006522D01*
X018025Y006522D01*
X017946Y006600D01*
X015702Y006600D01*
X015254Y006151D01*
X014431Y006151D01*
X013982Y006600D01*
X013045Y006600D01*
X012946Y006502D01*
X005565Y006502D01*
X005214Y006151D01*
X004588Y006151D01*
X004088Y005616D02*
X003588Y006116D01*
X003588Y006151D01*
X004088Y005616D02*
X005269Y005616D01*
X005860Y006207D01*
X013376Y006207D01*
X013431Y006151D01*
X013431Y006116D01*
X013931Y005616D01*
X015309Y005616D01*
X015899Y006207D01*
X023218Y006207D01*
X023273Y006151D01*
X023435Y006151D01*
X023970Y005616D01*
X030072Y005616D01*
X031891Y003797D01*
X027612Y006699D02*
X026037Y006699D01*
X025781Y006955D01*
X025742Y006955D01*
X025250Y007289D02*
X024954Y007585D01*
X023706Y007585D01*
X023273Y007151D01*
X018734Y007151D01*
X018596Y007289D01*
X018065Y007289D01*
X017927Y007151D01*
X016824Y007151D01*
X016293Y007683D01*
X013962Y007683D01*
X013431Y007151D01*
X005604Y007151D01*
X005171Y007585D01*
X004021Y007585D01*
X003588Y007151D01*
X008419Y005911D02*
X009108Y005222D01*
X015702Y007092D02*
X015899Y006896D01*
X018360Y006896D01*
X025250Y007289D02*
X030565Y007289D01*
X031057Y006797D01*
X032927Y006797D01*
X033419Y007289D01*
X034592Y007289D01*
X034576Y008274D02*
X033813Y008274D01*
X032927Y007388D01*
X031844Y007388D01*
X032371Y014474D02*
X023773Y014474D01*
X023773Y015674D01*
X024034Y015674D01*
X023993Y015644D01*
X023942Y015593D01*
X023899Y015534D01*
X023866Y015470D01*
X023844Y015401D01*
X023833Y015335D01*
X024251Y015335D01*
X024251Y015252D01*
X023833Y015252D01*
X023844Y015185D01*
X023866Y015117D01*
X023899Y015052D01*
X023942Y014993D01*
X023993Y014942D01*
X024052Y014900D01*
X024116Y014867D01*
X024185Y014844D01*
X024251Y014834D01*
X024251Y015252D01*
X024334Y015252D01*
X024334Y014834D01*
X024401Y014844D01*
X024470Y014867D01*
X024534Y014900D01*
X024593Y014942D01*
X024644Y014993D01*
X024686Y015052D01*
X024719Y015117D01*
X024742Y015185D01*
X024752Y015252D01*
X024334Y015252D01*
X024334Y015335D01*
X024752Y015335D01*
X024742Y015401D01*
X024719Y015470D01*
X024686Y015534D01*
X024644Y015593D01*
X024593Y015644D01*
X024551Y015674D01*
X024634Y015674D01*
X025009Y016049D01*
X032611Y016049D01*
X032605Y016034D01*
X032605Y015867D01*
X032669Y015713D01*
X032787Y015594D01*
X032942Y015530D01*
X033109Y015530D01*
X033263Y015594D01*
X033381Y015713D01*
X033445Y015867D01*
X033445Y016034D01*
X033439Y016049D01*
X033616Y016049D01*
X033616Y019199D01*
X035978Y019199D01*
X035978Y014474D01*
X032939Y014474D01*
X033003Y014537D01*
X033065Y014688D01*
X033065Y014851D01*
X033003Y015002D01*
X032887Y015117D01*
X032737Y015179D01*
X032574Y015179D01*
X032423Y015117D01*
X032308Y015002D01*
X032245Y014851D01*
X032245Y014688D01*
X032308Y014537D01*
X032371Y014474D01*
X032341Y014504D02*
X023773Y014504D01*
X023773Y014620D02*
X032273Y014620D01*
X032245Y014737D02*
X023773Y014737D01*
X023773Y014854D02*
X024156Y014854D01*
X024251Y014854D02*
X024334Y014854D01*
X024429Y014854D02*
X032246Y014854D01*
X032295Y014970D02*
X024621Y014970D01*
X024704Y015087D02*
X032393Y015087D01*
X032917Y015087D02*
X035978Y015087D01*
X035978Y015204D02*
X024745Y015204D01*
X024730Y015437D02*
X035978Y015437D01*
X035978Y015554D02*
X034346Y015554D01*
X034290Y015530D02*
X034444Y015594D01*
X034563Y015713D01*
X034626Y015867D01*
X034626Y016034D01*
X034563Y016189D01*
X034444Y016307D01*
X034290Y016371D01*
X034123Y016371D01*
X033968Y016307D01*
X033850Y016189D01*
X033786Y016034D01*
X033786Y015867D01*
X033850Y015713D01*
X033968Y015594D01*
X034123Y015530D01*
X034290Y015530D01*
X034067Y015554D02*
X033164Y015554D01*
X033339Y015670D02*
X033892Y015670D01*
X033819Y015787D02*
X033412Y015787D01*
X033445Y015904D02*
X033786Y015904D01*
X033786Y016020D02*
X033445Y016020D01*
X033616Y016137D02*
X033829Y016137D01*
X033915Y016253D02*
X033616Y016253D01*
X033616Y016370D02*
X034121Y016370D01*
X034292Y016370D02*
X035978Y016370D01*
X035978Y016253D02*
X034498Y016253D01*
X034584Y016137D02*
X035978Y016137D01*
X035978Y016020D02*
X034626Y016020D01*
X034626Y015904D02*
X035978Y015904D01*
X035978Y015787D02*
X034593Y015787D01*
X034520Y015670D02*
X035978Y015670D01*
X035978Y015320D02*
X024334Y015320D01*
X024251Y015320D02*
X023773Y015320D01*
X023773Y015204D02*
X023841Y015204D01*
X023881Y015087D02*
X023773Y015087D01*
X023773Y014970D02*
X023965Y014970D01*
X024251Y014970D02*
X024334Y014970D01*
X024334Y015087D02*
X024251Y015087D01*
X024251Y015204D02*
X024334Y015204D01*
X023856Y015437D02*
X023773Y015437D01*
X023773Y015554D02*
X023913Y015554D01*
X024029Y015670D02*
X023773Y015670D01*
X023675Y015852D02*
X024561Y015852D01*
X025742Y017033D01*
X031057Y017033D01*
X032336Y018313D01*
X033025Y018313D01*
X033616Y018353D02*
X034165Y018353D01*
X034165Y018354D02*
X034165Y018271D01*
X034248Y018271D01*
X034248Y017853D01*
X034528Y017853D01*
X034569Y017864D01*
X034605Y017884D01*
X034635Y017914D01*
X034656Y017950D01*
X034666Y017991D01*
X034666Y018271D01*
X034248Y018271D01*
X034248Y018354D01*
X034666Y018354D01*
X034666Y018635D01*
X034656Y018675D01*
X034635Y018712D01*
X034605Y018741D01*
X034569Y018762D01*
X034528Y018773D01*
X034248Y018773D01*
X034248Y018354D01*
X034165Y018354D01*
X033746Y018354D01*
X033746Y018635D01*
X033757Y018675D01*
X033778Y018712D01*
X033807Y018741D01*
X033844Y018762D01*
X033884Y018773D01*
X034165Y018773D01*
X034165Y018354D01*
X034165Y018271D02*
X033746Y018271D01*
X033746Y017991D01*
X033757Y017950D01*
X033778Y017914D01*
X033807Y017884D01*
X033844Y017864D01*
X033884Y017853D01*
X034165Y017853D01*
X034165Y018271D01*
X034165Y018237D02*
X034248Y018237D01*
X034248Y018353D02*
X035978Y018353D01*
X035978Y018237D02*
X034666Y018237D01*
X034666Y018120D02*
X035978Y018120D01*
X035978Y018003D02*
X034666Y018003D01*
X034607Y017887D02*
X035978Y017887D01*
X035978Y017770D02*
X033616Y017770D01*
X033616Y017887D02*
X033805Y017887D01*
X033746Y018003D02*
X033616Y018003D01*
X033616Y018120D02*
X033746Y018120D01*
X033746Y018237D02*
X033616Y018237D01*
X033616Y018470D02*
X033746Y018470D01*
X033746Y018587D02*
X033616Y018587D01*
X033616Y018703D02*
X033773Y018703D01*
X033616Y018820D02*
X035978Y018820D01*
X035978Y018936D02*
X033616Y018936D01*
X033616Y019053D02*
X035978Y019053D01*
X035978Y019170D02*
X033616Y019170D01*
X034165Y018703D02*
X034248Y018703D01*
X034248Y018587D02*
X034165Y018587D01*
X034165Y018470D02*
X034248Y018470D01*
X034666Y018470D02*
X035978Y018470D01*
X035978Y018587D02*
X034666Y018587D01*
X034640Y018703D02*
X035978Y018703D01*
X034248Y018120D02*
X034165Y018120D01*
X034165Y018003D02*
X034248Y018003D01*
X034248Y017887D02*
X034165Y017887D01*
X034123Y017552D02*
X033968Y017488D01*
X033850Y017370D01*
X033786Y017215D01*
X033786Y017048D01*
X033850Y016894D01*
X033968Y016776D01*
X034123Y016712D01*
X034290Y016712D01*
X034444Y016776D01*
X034563Y016894D01*
X034626Y017048D01*
X034626Y017215D01*
X034563Y017370D01*
X034444Y017488D01*
X034290Y017552D01*
X034123Y017552D01*
X034086Y017537D02*
X033616Y017537D01*
X033616Y017653D02*
X035978Y017653D01*
X035978Y017537D02*
X034327Y017537D01*
X034512Y017420D02*
X035978Y017420D01*
X035978Y017303D02*
X034590Y017303D01*
X034626Y017187D02*
X035978Y017187D01*
X035978Y017070D02*
X034626Y017070D01*
X034587Y016953D02*
X035978Y016953D01*
X035978Y016837D02*
X034506Y016837D01*
X034310Y016720D02*
X035978Y016720D01*
X035978Y016603D02*
X033616Y016603D01*
X033616Y016487D02*
X035978Y016487D01*
X034102Y016720D02*
X033616Y016720D01*
X033616Y016837D02*
X033907Y016837D01*
X033825Y016953D02*
X033616Y016953D01*
X033616Y017070D02*
X033786Y017070D01*
X033786Y017187D02*
X033616Y017187D01*
X033616Y017303D02*
X033823Y017303D01*
X033900Y017420D02*
X033616Y017420D01*
X032605Y016020D02*
X024980Y016020D01*
X024864Y015904D02*
X032605Y015904D01*
X032638Y015787D02*
X024747Y015787D01*
X024557Y015670D02*
X032711Y015670D01*
X032886Y015554D02*
X024673Y015554D01*
X023675Y015852D02*
X023116Y015293D01*
X023112Y015293D01*
X022651Y015754D01*
X013730Y015754D01*
X013269Y015293D01*
X012809Y015754D01*
X003887Y015754D01*
X003427Y015293D01*
X003950Y015951D02*
X012746Y015951D01*
X013269Y016474D01*
X013793Y015951D01*
X022588Y015951D01*
X023112Y016474D01*
X033016Y014970D02*
X035978Y014970D01*
X035978Y014854D02*
X033064Y014854D01*
X033065Y014737D02*
X035978Y014737D01*
X035978Y014620D02*
X033037Y014620D01*
X032969Y014504D02*
X035978Y014504D01*
X003950Y015951D02*
X003427Y016474D01*
D19*
X009403Y010931D02*
X007139Y008667D01*
X007139Y007585D01*
X004108Y004632D02*
X003588Y005151D01*
X004108Y004632D02*
X012911Y004632D01*
X013431Y005151D01*
X013950Y004632D01*
X022754Y004632D01*
X023273Y005151D01*
X023793Y004632D01*
X030072Y004632D01*
X031891Y003797D02*
X034100Y003797D01*
X034659Y004238D02*
X035100Y003797D01*
X034592Y007289D02*
X035100Y007797D01*
X034576Y008274D02*
X035100Y008797D01*
X032828Y010144D02*
X029285Y010144D01*
X026824Y007683D01*
X026824Y007585D01*
X032238Y010537D02*
X018655Y010537D01*
X016982Y008864D01*
X016982Y007585D01*
X009403Y010931D02*
X031647Y010931D01*
X033320Y012604D01*
X034305Y012604D02*
X032238Y010537D01*
X032828Y010144D02*
X035289Y012604D01*
D20*
X030466Y012506D03*
X026824Y007585D03*
X025742Y006955D03*
X027612Y006699D03*
X030072Y004632D03*
X030072Y003844D03*
X031844Y007388D03*
X021411Y003844D03*
X018360Y006896D03*
X016982Y007585D03*
X015702Y007092D03*
X018261Y009356D03*
X017080Y009750D03*
X021411Y012506D03*
X011962Y012506D03*
X006844Y012506D03*
X007139Y007585D03*
X008419Y005911D03*
X009108Y005222D03*
X006844Y003844D03*
X011962Y003844D03*
D21*
X012833Y004444D02*
X012989Y004444D01*
X013334Y004789D01*
X013357Y004780D01*
X013505Y004780D01*
X013527Y004789D01*
X013762Y004554D01*
X013873Y004444D01*
X022676Y004444D01*
X022831Y004444D01*
X023177Y004789D01*
X023199Y004780D01*
X023347Y004780D01*
X023370Y004789D01*
X023605Y004554D01*
X023715Y004444D01*
X029896Y004444D01*
X029926Y004413D01*
X030021Y004374D01*
X030124Y004374D01*
X030219Y004413D01*
X030291Y004486D01*
X030330Y004580D01*
X030330Y004683D01*
X030291Y004778D01*
X030219Y004850D01*
X030124Y004890D01*
X030021Y004890D01*
X029926Y004850D01*
X029896Y004820D01*
X024444Y004820D01*
X024484Y004836D01*
X024588Y004941D01*
X024645Y005078D01*
X024645Y005225D01*
X024588Y005362D01*
X024503Y005448D01*
X030003Y005448D01*
X031703Y003747D01*
X031703Y003719D01*
X031813Y003609D01*
X033767Y003609D01*
X033779Y003582D01*
X033885Y003476D01*
X034025Y003418D01*
X034175Y003418D01*
X034315Y003476D01*
X034421Y003582D01*
X034479Y003722D01*
X034479Y003873D01*
X034421Y004012D01*
X034364Y004070D01*
X034561Y004070D01*
X034732Y003899D01*
X034721Y003873D01*
X034721Y003722D01*
X034779Y003582D01*
X034885Y003476D01*
X035025Y003418D01*
X035175Y003418D01*
X035315Y003476D01*
X035421Y003582D01*
X035479Y003722D01*
X035479Y003873D01*
X035421Y004012D01*
X035315Y004119D01*
X035175Y004176D01*
X035025Y004176D01*
X034998Y004165D01*
X034737Y004426D01*
X034581Y004426D01*
X034561Y004406D01*
X032111Y004406D01*
X030296Y006221D01*
X030197Y006320D01*
X024606Y006320D01*
X024588Y006362D01*
X024484Y006467D01*
X024347Y006523D01*
X024199Y006523D01*
X024157Y006506D01*
X023993Y006670D01*
X023894Y006769D01*
X018664Y006769D01*
X018585Y006690D01*
X018519Y006690D01*
X018579Y006749D01*
X018618Y006844D01*
X018618Y006947D01*
X018579Y007042D01*
X018506Y007114D01*
X018490Y007121D01*
X018526Y007121D01*
X018566Y007082D01*
X018664Y006983D01*
X022941Y006983D01*
X022958Y006941D01*
X023063Y006836D01*
X023199Y006780D01*
X023347Y006780D01*
X023484Y006836D01*
X023588Y006941D01*
X023645Y007078D01*
X023645Y007225D01*
X023627Y007268D01*
X023776Y007416D01*
X024012Y007416D01*
X023958Y007362D01*
X023901Y007225D01*
X023901Y007078D01*
X023958Y006941D01*
X024063Y006836D01*
X024199Y006780D01*
X024347Y006780D01*
X024484Y006836D01*
X024588Y006941D01*
X024645Y007078D01*
X024645Y007225D01*
X024588Y007362D01*
X024534Y007416D01*
X024885Y007416D01*
X025180Y007121D01*
X025319Y007121D01*
X025543Y007121D01*
X025523Y007101D01*
X025484Y007006D01*
X025484Y006903D01*
X025523Y006809D01*
X025596Y006736D01*
X025690Y006697D01*
X025793Y006697D01*
X025799Y006699D01*
X025869Y006629D01*
X025967Y006530D01*
X027415Y006530D01*
X027466Y006480D01*
X027560Y006441D01*
X027663Y006441D01*
X027758Y006480D01*
X027830Y006553D01*
X027870Y006647D01*
X027870Y006750D01*
X027830Y006845D01*
X027758Y006917D01*
X027663Y006957D01*
X027560Y006957D01*
X027466Y006917D01*
X027415Y006867D01*
X026107Y006867D01*
X026000Y006974D01*
X026000Y007006D01*
X025960Y007101D01*
X025940Y007121D01*
X030495Y007121D01*
X030888Y006727D01*
X030987Y006629D01*
X032857Y006629D01*
X032996Y006629D01*
X033489Y007121D01*
X033833Y007121D01*
X033827Y007117D01*
X033780Y007070D01*
X033741Y007017D01*
X033711Y006958D01*
X033691Y006895D01*
X033682Y006838D01*
X034059Y006838D01*
X034059Y006756D01*
X034141Y006756D01*
X034141Y006379D01*
X034198Y006388D01*
X034261Y006409D01*
X034320Y006439D01*
X034373Y006477D01*
X034420Y006524D01*
X034459Y006577D01*
X034488Y006636D01*
X034509Y006699D01*
X034518Y006756D01*
X034141Y006756D01*
X034141Y006838D01*
X034518Y006838D01*
X034509Y006895D01*
X034488Y006958D01*
X034459Y007017D01*
X034420Y007070D01*
X034373Y007117D01*
X034367Y007121D01*
X034495Y007121D01*
X034514Y007101D01*
X034670Y007101D01*
X034998Y007429D01*
X035025Y007418D01*
X035175Y007418D01*
X035315Y007476D01*
X035421Y007582D01*
X035479Y007722D01*
X035479Y007873D01*
X035421Y008012D01*
X035315Y008119D01*
X035175Y008176D01*
X035025Y008176D01*
X034885Y008119D01*
X034779Y008012D01*
X034721Y007873D01*
X034721Y007722D01*
X034732Y007695D01*
X034495Y007458D01*
X034346Y007458D01*
X034373Y007477D01*
X034420Y007524D01*
X034459Y007577D01*
X034488Y007636D01*
X034509Y007699D01*
X034518Y007756D01*
X034141Y007756D01*
X034141Y007838D01*
X034518Y007838D01*
X034509Y007895D01*
X034488Y007958D01*
X034459Y008017D01*
X034420Y008070D01*
X034837Y008070D01*
X034762Y007973D02*
X034481Y007973D01*
X034512Y007876D02*
X034722Y007876D01*
X034721Y007779D02*
X034141Y007779D01*
X034059Y007779D02*
X033556Y007779D01*
X033682Y007756D02*
X033691Y007699D01*
X033711Y007636D01*
X033741Y007577D01*
X033780Y007524D01*
X033827Y007477D01*
X033854Y007458D01*
X033349Y007458D01*
X033251Y007359D01*
X032857Y006965D01*
X031126Y006965D01*
X030634Y007458D01*
X030495Y007458D01*
X027051Y007458D01*
X027082Y007533D01*
X027082Y007636D01*
X027071Y007664D01*
X029363Y009956D01*
X032906Y009956D01*
X033016Y010066D01*
X035180Y012229D01*
X035600Y012229D01*
X035664Y012293D01*
X035664Y012915D01*
X035600Y012979D01*
X034978Y012979D01*
X034914Y012915D01*
X034914Y012495D01*
X032750Y010332D01*
X029363Y010332D01*
X029207Y010332D01*
X026747Y007871D01*
X026679Y007804D01*
X026678Y007803D01*
X026606Y007731D01*
X026566Y007636D01*
X026566Y007533D01*
X026598Y007458D01*
X025319Y007458D01*
X025123Y007654D01*
X025024Y007753D01*
X024598Y007753D01*
X024627Y007770D01*
X024655Y007797D01*
X024675Y007831D01*
X024685Y007869D01*
X024685Y008113D01*
X024312Y008113D01*
X024312Y008190D01*
X024685Y008190D01*
X024685Y008434D01*
X024675Y008472D01*
X024655Y008506D01*
X024627Y008533D01*
X024593Y008553D01*
X024555Y008563D01*
X024311Y008563D01*
X024311Y008190D01*
X024235Y008190D01*
X024235Y008563D01*
X023991Y008563D01*
X023953Y008553D01*
X023919Y008533D01*
X023891Y008506D01*
X023872Y008472D01*
X023861Y008434D01*
X023861Y008190D01*
X024235Y008190D01*
X024235Y008113D01*
X023861Y008113D01*
X023861Y007869D01*
X023872Y007831D01*
X023891Y007797D01*
X023919Y007770D01*
X023948Y007753D01*
X023776Y007753D01*
X023637Y007753D01*
X023389Y007506D01*
X023347Y007523D01*
X023199Y007523D01*
X023063Y007467D01*
X022958Y007362D01*
X022941Y007320D01*
X018804Y007320D01*
X018666Y007458D01*
X018526Y007458D01*
X017995Y007458D01*
X017896Y007359D01*
X017857Y007320D01*
X016894Y007320D01*
X016856Y007357D01*
X016931Y007327D01*
X017033Y007327D01*
X017128Y007366D01*
X017201Y007438D01*
X017240Y007533D01*
X017240Y007636D01*
X017201Y007731D01*
X017170Y007761D01*
X017170Y008786D01*
X018733Y010349D01*
X032316Y010349D01*
X032426Y010459D01*
X034206Y012239D01*
X034230Y012229D01*
X034379Y012229D01*
X034517Y012286D01*
X034623Y012392D01*
X034680Y012530D01*
X034680Y012679D01*
X034623Y012817D01*
X034517Y012922D01*
X034379Y012979D01*
X034230Y012979D01*
X034092Y012922D01*
X033987Y012817D01*
X033930Y012679D01*
X033930Y012530D01*
X033940Y012505D01*
X032160Y010725D01*
X018733Y010725D01*
X018577Y010725D01*
X016904Y009052D01*
X016794Y008942D01*
X016794Y007761D01*
X016763Y007731D01*
X016724Y007636D01*
X016724Y007533D01*
X016755Y007459D01*
X016461Y007753D01*
X016363Y007851D01*
X014838Y007851D01*
X014842Y007869D01*
X014842Y008113D01*
X014469Y008113D01*
X014469Y008190D01*
X014392Y008190D01*
X014392Y008113D01*
X014019Y008113D01*
X014019Y007869D01*
X014024Y007851D01*
X013892Y007851D01*
X013547Y007506D01*
X013505Y007523D01*
X013357Y007523D01*
X013220Y007467D01*
X013116Y007362D01*
X013098Y007320D01*
X005674Y007320D01*
X005339Y007654D01*
X005241Y007753D01*
X004913Y007753D01*
X004942Y007770D01*
X004970Y007797D01*
X004990Y007831D01*
X005000Y007869D01*
X005000Y008113D01*
X004627Y008113D01*
X004627Y008190D01*
X005000Y008190D01*
X005000Y008434D01*
X004990Y008472D01*
X004970Y008506D01*
X004942Y008533D01*
X004908Y008553D01*
X004870Y008563D01*
X004626Y008563D01*
X004626Y008190D01*
X004550Y008190D01*
X004550Y008563D01*
X004306Y008563D01*
X004268Y008553D01*
X004234Y008533D01*
X004206Y008506D01*
X004187Y008472D01*
X004176Y008434D01*
X004176Y008190D01*
X004550Y008190D01*
X004550Y008113D01*
X004176Y008113D01*
X004176Y007869D01*
X004187Y007831D01*
X004206Y007797D01*
X004234Y007770D01*
X004263Y007753D01*
X004091Y007753D01*
X003952Y007753D01*
X003704Y007506D01*
X003662Y007523D01*
X003514Y007523D01*
X003378Y007467D01*
X003273Y007362D01*
X003216Y007225D01*
X003216Y007078D01*
X003273Y006941D01*
X003378Y006836D01*
X003514Y006780D01*
X003662Y006780D01*
X003799Y006836D01*
X003903Y006941D01*
X003960Y007078D01*
X003960Y007225D01*
X003942Y007268D01*
X004091Y007416D01*
X004327Y007416D01*
X004273Y007362D01*
X004216Y007225D01*
X004216Y007078D01*
X004273Y006941D01*
X004378Y006836D01*
X004514Y006780D01*
X004662Y006780D01*
X004799Y006836D01*
X004903Y006941D01*
X004960Y007078D01*
X004960Y007225D01*
X004903Y007362D01*
X004849Y007416D01*
X005101Y007416D01*
X005534Y006983D01*
X005674Y006983D01*
X013098Y006983D01*
X013116Y006941D01*
X013220Y006836D01*
X013357Y006780D01*
X013505Y006780D01*
X013641Y006836D01*
X013746Y006941D01*
X013802Y007078D01*
X013802Y007225D01*
X013785Y007268D01*
X014032Y007515D01*
X014336Y007515D01*
X014220Y007467D01*
X014116Y007362D01*
X014059Y007225D01*
X014059Y007078D01*
X014116Y006941D01*
X014220Y006836D01*
X014357Y006780D01*
X014505Y006780D01*
X014641Y006836D01*
X014746Y006941D01*
X014802Y007078D01*
X014802Y007225D01*
X014746Y007362D01*
X014641Y007467D01*
X014525Y007515D01*
X016223Y007515D01*
X016674Y007064D01*
X015969Y007064D01*
X015960Y007072D01*
X015960Y007144D01*
X015921Y007239D01*
X015848Y007311D01*
X015754Y007350D01*
X015651Y007350D01*
X015556Y007311D01*
X015484Y007239D01*
X015444Y007144D01*
X015444Y007041D01*
X015484Y006946D01*
X015556Y006874D01*
X015651Y006834D01*
X015722Y006834D01*
X015731Y006826D01*
X015788Y006769D01*
X015772Y006769D01*
X015633Y006769D01*
X015184Y006320D01*
X014763Y006320D01*
X014746Y006362D01*
X014641Y006467D01*
X014505Y006523D01*
X014357Y006523D01*
X014314Y006506D01*
X014150Y006670D01*
X014052Y006769D01*
X012975Y006769D01*
X012877Y006670D01*
X005634Y006670D01*
X005495Y006670D01*
X005144Y006320D01*
X004921Y006320D01*
X004903Y006362D01*
X004799Y006467D01*
X004662Y006523D01*
X004514Y006523D01*
X004378Y006467D01*
X004273Y006362D01*
X004216Y006225D01*
X004216Y006078D01*
X004273Y005941D01*
X004378Y005836D01*
X004503Y005784D01*
X004158Y005784D01*
X003932Y006010D01*
X003960Y006078D01*
X003960Y006225D01*
X003903Y006362D01*
X003799Y006467D01*
X003662Y006523D01*
X003514Y006523D01*
X003378Y006467D01*
X003273Y006362D01*
X003216Y006225D01*
X003216Y006078D01*
X003273Y005941D01*
X003378Y005836D01*
X003514Y005780D01*
X003662Y005780D01*
X003679Y005787D01*
X004018Y005448D01*
X004158Y005448D01*
X004359Y005448D01*
X004273Y005362D01*
X004216Y005225D01*
X004216Y005078D01*
X004273Y004941D01*
X004378Y004836D01*
X004418Y004820D01*
X004186Y004820D01*
X003951Y005055D01*
X003960Y005078D01*
X003960Y005225D01*
X003903Y005362D01*
X003799Y005467D01*
X003662Y005523D01*
X003514Y005523D01*
X003378Y005467D01*
X003273Y005362D01*
X003216Y005225D01*
X003216Y005078D01*
X003273Y004941D01*
X003378Y004836D01*
X003514Y004780D01*
X003662Y004780D01*
X003685Y004789D01*
X003920Y004554D01*
X004030Y004444D01*
X012833Y004444D01*
X013027Y004482D02*
X013834Y004482D01*
X013737Y004579D02*
X013124Y004579D01*
X013221Y004676D02*
X013640Y004676D01*
X013543Y004773D02*
X013318Y004773D01*
X014301Y006519D02*
X014346Y006519D01*
X014515Y006519D02*
X015383Y006519D01*
X015480Y006616D02*
X014204Y006616D01*
X014107Y006713D02*
X015577Y006713D01*
X015747Y006810D02*
X014577Y006810D01*
X014712Y006907D02*
X015523Y006907D01*
X015460Y007004D02*
X014772Y007004D01*
X014802Y007101D02*
X015444Y007101D01*
X015467Y007198D02*
X014802Y007198D01*
X014774Y007294D02*
X015540Y007294D01*
X015865Y007294D02*
X016443Y007294D01*
X016540Y007198D02*
X015938Y007198D01*
X015960Y007101D02*
X016637Y007101D01*
X016346Y007391D02*
X014716Y007391D01*
X014589Y007488D02*
X016249Y007488D01*
X016531Y007682D02*
X016743Y007682D01*
X016724Y007585D02*
X016628Y007585D01*
X016725Y007488D02*
X016742Y007488D01*
X016794Y007779D02*
X016434Y007779D01*
X016794Y007876D02*
X014842Y007876D01*
X014842Y007973D02*
X016794Y007973D01*
X016794Y008070D02*
X014842Y008070D01*
X014842Y008190D02*
X014469Y008190D01*
X014469Y008563D01*
X014713Y008563D01*
X014751Y008553D01*
X014785Y008533D01*
X014813Y008506D01*
X014832Y008472D01*
X014842Y008434D01*
X014842Y008190D01*
X014842Y008264D02*
X016794Y008264D01*
X016794Y008167D02*
X014469Y008167D01*
X014392Y008167D02*
X013802Y008167D01*
X013802Y008225D02*
X013746Y008362D01*
X013641Y008467D01*
X013505Y008523D01*
X013357Y008523D01*
X013220Y008467D01*
X013116Y008362D01*
X013059Y008225D01*
X013059Y008078D01*
X013116Y007941D01*
X013220Y007836D01*
X013357Y007780D01*
X013505Y007780D01*
X013641Y007836D01*
X013746Y007941D01*
X013802Y008078D01*
X013802Y008225D01*
X013786Y008264D02*
X014019Y008264D01*
X014019Y008190D02*
X014392Y008190D01*
X014392Y008563D01*
X014149Y008563D01*
X014111Y008553D01*
X014077Y008533D01*
X014049Y008506D01*
X014029Y008472D01*
X014019Y008434D01*
X014019Y008190D01*
X014019Y008070D02*
X013799Y008070D01*
X013759Y007973D02*
X014019Y007973D01*
X014019Y007876D02*
X013681Y007876D01*
X013821Y007779D02*
X007327Y007779D01*
X007327Y007761D02*
X007327Y008589D01*
X009481Y010743D01*
X031725Y010743D01*
X031835Y010853D01*
X033221Y012239D01*
X033246Y012229D01*
X033395Y012229D01*
X033533Y012286D01*
X033638Y012392D01*
X033695Y012530D01*
X033695Y012679D01*
X033638Y012817D01*
X033533Y012922D01*
X033395Y012979D01*
X033246Y012979D01*
X033108Y012922D01*
X033003Y012817D01*
X032946Y012679D01*
X032946Y012530D01*
X032956Y012505D01*
X031569Y011119D01*
X009481Y011119D01*
X009325Y011119D01*
X007061Y008855D01*
X006951Y008745D01*
X006951Y007761D01*
X006921Y007731D01*
X006881Y007636D01*
X006881Y007533D01*
X006921Y007438D01*
X006993Y007366D01*
X007088Y007327D01*
X007191Y007327D01*
X007285Y007366D01*
X007358Y007438D01*
X007397Y007533D01*
X007397Y007636D01*
X007358Y007731D01*
X007327Y007761D01*
X007378Y007682D02*
X013724Y007682D01*
X013627Y007585D02*
X007397Y007585D01*
X007379Y007488D02*
X013273Y007488D01*
X013145Y007391D02*
X007311Y007391D01*
X006968Y007391D02*
X005602Y007391D01*
X005505Y007488D02*
X006900Y007488D01*
X006881Y007585D02*
X005408Y007585D01*
X005311Y007682D02*
X006901Y007682D01*
X006951Y007779D02*
X004952Y007779D01*
X005000Y007876D02*
X006951Y007876D01*
X006951Y007973D02*
X005000Y007973D01*
X005000Y008070D02*
X006951Y008070D01*
X006951Y008167D02*
X004627Y008167D01*
X004550Y008167D02*
X003960Y008167D01*
X003960Y008225D02*
X003903Y008362D01*
X003799Y008467D01*
X003662Y008523D01*
X003514Y008523D01*
X003378Y008467D01*
X003273Y008362D01*
X003216Y008225D01*
X003216Y008078D01*
X003273Y007941D01*
X003378Y007836D01*
X003514Y007780D01*
X003662Y007780D01*
X003799Y007836D01*
X003903Y007941D01*
X003960Y008078D01*
X003960Y008225D01*
X003944Y008264D02*
X004176Y008264D01*
X004176Y008361D02*
X003904Y008361D01*
X003807Y008458D02*
X004183Y008458D01*
X004276Y008555D02*
X003106Y008555D01*
X003106Y008458D02*
X003369Y008458D01*
X003273Y008361D02*
X003106Y008361D01*
X003106Y008264D02*
X003233Y008264D01*
X003216Y008167D02*
X003106Y008167D01*
X003106Y008070D02*
X003219Y008070D01*
X003260Y007973D02*
X003106Y007973D01*
X003106Y007876D02*
X003338Y007876D01*
X003106Y007779D02*
X004224Y007779D01*
X004176Y007876D02*
X003839Y007876D01*
X003917Y007973D02*
X004176Y007973D01*
X004176Y008070D02*
X003957Y008070D01*
X003881Y007682D02*
X003106Y007682D01*
X003106Y007585D02*
X003784Y007585D01*
X004066Y007391D02*
X004302Y007391D01*
X004245Y007294D02*
X003969Y007294D01*
X003960Y007198D02*
X004216Y007198D01*
X004216Y007101D02*
X003960Y007101D01*
X003929Y007004D02*
X004247Y007004D01*
X004307Y006907D02*
X003869Y006907D01*
X003734Y006810D02*
X004442Y006810D01*
X004734Y006810D02*
X013285Y006810D01*
X013150Y006907D02*
X004869Y006907D01*
X004929Y007004D02*
X005514Y007004D01*
X005417Y007101D02*
X004960Y007101D01*
X004960Y007198D02*
X005320Y007198D01*
X005223Y007294D02*
X004931Y007294D01*
X004874Y007391D02*
X005126Y007391D01*
X005440Y006616D02*
X003106Y006616D01*
X003106Y006713D02*
X012919Y006713D01*
X013577Y006810D02*
X014285Y006810D01*
X014150Y006907D02*
X013712Y006907D01*
X013772Y007004D02*
X014090Y007004D01*
X014059Y007101D02*
X013802Y007101D01*
X013802Y007198D02*
X014059Y007198D01*
X014088Y007294D02*
X013812Y007294D01*
X013909Y007391D02*
X014145Y007391D01*
X014273Y007488D02*
X014006Y007488D01*
X013180Y007876D02*
X007327Y007876D01*
X007327Y007973D02*
X013102Y007973D01*
X013062Y008070D02*
X007327Y008070D01*
X007327Y008167D02*
X013059Y008167D01*
X013075Y008264D02*
X007327Y008264D01*
X007327Y008361D02*
X013115Y008361D01*
X013212Y008458D02*
X007327Y008458D01*
X007327Y008555D02*
X014118Y008555D01*
X014026Y008458D02*
X013650Y008458D01*
X013746Y008361D02*
X014019Y008361D01*
X014392Y008361D02*
X014469Y008361D01*
X014469Y008264D02*
X014392Y008264D01*
X014392Y008458D02*
X014469Y008458D01*
X014469Y008555D02*
X014392Y008555D01*
X014743Y008555D02*
X016794Y008555D01*
X016794Y008458D02*
X014836Y008458D01*
X014842Y008361D02*
X016794Y008361D01*
X016794Y008652D02*
X007390Y008652D01*
X007487Y008749D02*
X016794Y008749D01*
X016794Y008846D02*
X007584Y008846D01*
X007681Y008943D02*
X016795Y008943D01*
X016892Y009040D02*
X007778Y009040D01*
X007875Y009137D02*
X016989Y009137D01*
X017086Y009234D02*
X007972Y009234D01*
X008069Y009331D02*
X017183Y009331D01*
X017280Y009428D02*
X008166Y009428D01*
X008263Y009525D02*
X017377Y009525D01*
X017474Y009622D02*
X008360Y009622D01*
X008457Y009719D02*
X017571Y009719D01*
X017668Y009816D02*
X008554Y009816D01*
X008651Y009913D02*
X017765Y009913D01*
X017862Y010010D02*
X008748Y010010D01*
X008844Y010107D02*
X017959Y010107D01*
X018056Y010204D02*
X008941Y010204D01*
X009038Y010301D02*
X018153Y010301D01*
X018249Y010397D02*
X009135Y010397D01*
X009232Y010494D02*
X018346Y010494D01*
X018443Y010591D02*
X009329Y010591D01*
X009426Y010688D02*
X018540Y010688D01*
X018684Y010301D02*
X029176Y010301D01*
X029079Y010204D02*
X018587Y010204D01*
X018490Y010107D02*
X028982Y010107D01*
X028885Y010010D02*
X018393Y010010D01*
X018296Y009913D02*
X028788Y009913D01*
X028691Y009816D02*
X018199Y009816D01*
X018102Y009719D02*
X028594Y009719D01*
X028497Y009622D02*
X018005Y009622D01*
X017908Y009525D02*
X028400Y009525D01*
X028303Y009428D02*
X017811Y009428D01*
X017714Y009331D02*
X028206Y009331D01*
X028109Y009234D02*
X017617Y009234D01*
X017520Y009137D02*
X028013Y009137D01*
X027916Y009040D02*
X017424Y009040D01*
X017327Y008943D02*
X027819Y008943D01*
X027722Y008846D02*
X017230Y008846D01*
X017170Y008749D02*
X027625Y008749D01*
X027528Y008652D02*
X017170Y008652D01*
X017170Y008555D02*
X023961Y008555D01*
X023868Y008458D02*
X023492Y008458D01*
X023484Y008467D02*
X023347Y008523D01*
X023199Y008523D01*
X023063Y008467D01*
X022958Y008362D01*
X022901Y008225D01*
X022901Y008078D01*
X022958Y007941D01*
X023063Y007836D01*
X023199Y007780D01*
X023347Y007780D01*
X023484Y007836D01*
X023588Y007941D01*
X023645Y008078D01*
X023645Y008225D01*
X023588Y008362D01*
X023484Y008467D01*
X023589Y008361D02*
X023861Y008361D01*
X023861Y008264D02*
X023629Y008264D01*
X023645Y008167D02*
X024235Y008167D01*
X024312Y008167D02*
X027043Y008167D01*
X026946Y008070D02*
X024685Y008070D01*
X024685Y007973D02*
X026849Y007973D01*
X026752Y007876D02*
X024685Y007876D01*
X024637Y007779D02*
X026654Y007779D01*
X026586Y007682D02*
X025094Y007682D01*
X025191Y007585D02*
X026566Y007585D01*
X026585Y007488D02*
X025288Y007488D01*
X025006Y007294D02*
X024616Y007294D01*
X024645Y007198D02*
X025103Y007198D01*
X024909Y007391D02*
X024559Y007391D01*
X024645Y007101D02*
X025523Y007101D01*
X025484Y007004D02*
X024614Y007004D01*
X024554Y006907D02*
X025484Y006907D01*
X025523Y006810D02*
X024419Y006810D01*
X024127Y006810D02*
X023419Y006810D01*
X023554Y006907D02*
X023992Y006907D01*
X023932Y007004D02*
X023614Y007004D01*
X023645Y007101D02*
X023901Y007101D01*
X023901Y007198D02*
X023645Y007198D01*
X023654Y007294D02*
X023930Y007294D01*
X023988Y007391D02*
X023751Y007391D01*
X023469Y007585D02*
X017240Y007585D01*
X017221Y007488D02*
X023115Y007488D01*
X022987Y007391D02*
X018732Y007391D01*
X018547Y007101D02*
X018520Y007101D01*
X018594Y007004D02*
X018644Y007004D01*
X018618Y006907D02*
X022992Y006907D01*
X023127Y006810D02*
X018603Y006810D01*
X018608Y006713D02*
X018542Y006713D01*
X017929Y007391D02*
X017154Y007391D01*
X017221Y007682D02*
X023566Y007682D01*
X023524Y007876D02*
X023861Y007876D01*
X023861Y007973D02*
X023602Y007973D01*
X023642Y008070D02*
X023861Y008070D01*
X023909Y007779D02*
X017170Y007779D01*
X017170Y007876D02*
X023023Y007876D01*
X022945Y007973D02*
X017170Y007973D01*
X017170Y008070D02*
X022904Y008070D01*
X022901Y008167D02*
X017170Y008167D01*
X017170Y008264D02*
X022918Y008264D01*
X022958Y008361D02*
X017170Y008361D01*
X017170Y008458D02*
X023054Y008458D01*
X024235Y008458D02*
X024311Y008458D01*
X024311Y008361D02*
X024235Y008361D01*
X024235Y008264D02*
X024311Y008264D01*
X024685Y008264D02*
X027140Y008264D01*
X027237Y008361D02*
X024685Y008361D01*
X024678Y008458D02*
X027334Y008458D01*
X027431Y008555D02*
X024586Y008555D01*
X024311Y008555D02*
X024235Y008555D01*
X025961Y007101D02*
X030515Y007101D01*
X030612Y007004D02*
X026000Y007004D01*
X026067Y006907D02*
X027455Y006907D01*
X027769Y006907D02*
X030709Y006907D01*
X030806Y006810D02*
X027845Y006810D01*
X027870Y006713D02*
X030903Y006713D01*
X031088Y007004D02*
X032895Y007004D01*
X032992Y007101D02*
X030991Y007101D01*
X030894Y007198D02*
X031669Y007198D01*
X031698Y007169D02*
X031793Y007130D01*
X031895Y007130D01*
X031990Y007169D01*
X032041Y007219D01*
X032857Y007219D01*
X032996Y007219D01*
X033700Y007923D01*
X033691Y007895D01*
X033682Y007838D01*
X034059Y007838D01*
X034059Y007756D01*
X033682Y007756D01*
X033696Y007682D02*
X033459Y007682D01*
X033362Y007585D02*
X033737Y007585D01*
X033816Y007488D02*
X033265Y007488D01*
X033283Y007391D02*
X033168Y007391D01*
X033186Y007294D02*
X033071Y007294D01*
X033089Y007198D02*
X032019Y007198D01*
X031698Y007169D02*
X031625Y007242D01*
X031586Y007336D01*
X031586Y007439D01*
X031625Y007534D01*
X031698Y007606D01*
X031793Y007646D01*
X031895Y007646D01*
X031990Y007606D01*
X032041Y007556D01*
X032857Y007556D01*
X033644Y008343D01*
X033743Y008442D01*
X033876Y008442D01*
X033827Y008477D01*
X033780Y008524D01*
X033741Y008577D01*
X033711Y008636D01*
X033691Y008699D01*
X033682Y008756D01*
X034059Y008756D01*
X034059Y008838D01*
X033682Y008838D01*
X033691Y008895D01*
X033711Y008958D01*
X033741Y009017D01*
X033780Y009070D01*
X033827Y009117D01*
X033880Y009156D01*
X033939Y009186D01*
X034002Y009206D01*
X034059Y009215D01*
X034059Y008838D01*
X034141Y008838D01*
X034518Y008838D01*
X034509Y008895D01*
X034488Y008958D01*
X034459Y009017D01*
X034420Y009070D01*
X034373Y009117D01*
X034320Y009156D01*
X034261Y009186D01*
X034198Y009206D01*
X034141Y009215D01*
X034141Y008838D01*
X034141Y008756D01*
X034518Y008756D01*
X034509Y008699D01*
X034488Y008636D01*
X034459Y008577D01*
X034420Y008524D01*
X034373Y008477D01*
X034324Y008442D01*
X034479Y008442D01*
X034732Y008695D01*
X034721Y008722D01*
X034721Y008873D01*
X034779Y009012D01*
X034885Y009119D01*
X035025Y009176D01*
X035175Y009176D01*
X035315Y009119D01*
X035421Y009012D01*
X035479Y008873D01*
X035479Y008722D01*
X035421Y008582D01*
X035315Y008476D01*
X035175Y008418D01*
X035025Y008418D01*
X034998Y008429D01*
X034654Y008086D01*
X034499Y008086D01*
X034479Y008105D01*
X034385Y008105D01*
X034420Y008070D01*
X034736Y008167D02*
X035002Y008167D01*
X034833Y008264D02*
X036566Y008264D01*
X036566Y008167D02*
X035198Y008167D01*
X035363Y008070D02*
X036566Y008070D01*
X036566Y007973D02*
X035438Y007973D01*
X035478Y007876D02*
X036566Y007876D01*
X036566Y007779D02*
X035479Y007779D01*
X035463Y007682D02*
X036566Y007682D01*
X036566Y007585D02*
X035423Y007585D01*
X035328Y007488D02*
X036566Y007488D01*
X036566Y007391D02*
X034960Y007391D01*
X034863Y007294D02*
X036566Y007294D01*
X036566Y007198D02*
X034766Y007198D01*
X034867Y007101D02*
X034389Y007101D01*
X034465Y007004D02*
X034775Y007004D01*
X034779Y007012D02*
X034721Y006873D01*
X034721Y006722D01*
X034779Y006582D01*
X034885Y006476D01*
X035025Y006418D01*
X035175Y006418D01*
X035315Y006476D01*
X035421Y006582D01*
X035479Y006722D01*
X035479Y006873D01*
X035421Y007012D01*
X035315Y007119D01*
X035175Y007176D01*
X035025Y007176D01*
X034885Y007119D01*
X034779Y007012D01*
X034735Y006907D02*
X034505Y006907D01*
X034511Y006713D02*
X034724Y006713D01*
X034721Y006810D02*
X034141Y006810D01*
X034059Y006810D02*
X033177Y006810D01*
X033274Y006907D02*
X033695Y006907D01*
X033735Y007004D02*
X033371Y007004D01*
X033468Y007101D02*
X033811Y007101D01*
X033682Y006756D02*
X033691Y006699D01*
X033711Y006636D01*
X033741Y006577D01*
X033780Y006524D01*
X033827Y006477D01*
X033880Y006439D01*
X033939Y006409D01*
X034002Y006388D01*
X034059Y006379D01*
X034059Y006756D01*
X033682Y006756D01*
X033689Y006713D02*
X033080Y006713D01*
X033722Y006616D02*
X027857Y006616D01*
X027797Y006519D02*
X033786Y006519D01*
X033913Y006422D02*
X024529Y006422D01*
X024604Y006325D02*
X036566Y006325D01*
X036566Y006422D02*
X035185Y006422D01*
X035015Y006422D02*
X034287Y006422D01*
X034141Y006422D02*
X034059Y006422D01*
X034059Y006519D02*
X034141Y006519D01*
X034141Y006616D02*
X034059Y006616D01*
X034059Y006713D02*
X034141Y006713D01*
X034414Y006519D02*
X034842Y006519D01*
X034765Y006616D02*
X034478Y006616D01*
X034885Y006119D02*
X034779Y006012D01*
X034721Y005873D01*
X034721Y005722D01*
X034779Y005582D01*
X034885Y005476D01*
X035025Y005418D01*
X035175Y005418D01*
X035315Y005476D01*
X035421Y005582D01*
X035479Y005722D01*
X035479Y005873D01*
X035421Y006012D01*
X035315Y006119D01*
X035175Y006176D01*
X035025Y006176D01*
X034885Y006119D01*
X034915Y006131D02*
X030386Y006131D01*
X030289Y006228D02*
X036566Y006228D01*
X036566Y006131D02*
X035285Y006131D01*
X035400Y006034D02*
X036566Y006034D01*
X036566Y005937D02*
X035453Y005937D01*
X035479Y005840D02*
X036566Y005840D01*
X036566Y005743D02*
X035479Y005743D01*
X035448Y005646D02*
X036566Y005646D01*
X036566Y005549D02*
X035388Y005549D01*
X035258Y005452D02*
X036566Y005452D01*
X036566Y005355D02*
X031162Y005355D01*
X031259Y005258D02*
X036566Y005258D01*
X036566Y005161D02*
X035212Y005161D01*
X035175Y005176D02*
X035025Y005176D01*
X034885Y005119D01*
X034779Y005012D01*
X034721Y004873D01*
X034721Y004722D01*
X034779Y004582D01*
X034885Y004476D01*
X035025Y004418D01*
X035175Y004418D01*
X035315Y004476D01*
X035421Y004582D01*
X035479Y004722D01*
X035479Y004873D01*
X035421Y005012D01*
X035315Y005119D01*
X035175Y005176D01*
X034988Y005161D02*
X034212Y005161D01*
X034175Y005176D02*
X034315Y005119D01*
X034421Y005012D01*
X034479Y004873D01*
X034479Y004722D01*
X034421Y004582D01*
X034315Y004476D01*
X034175Y004418D01*
X034025Y004418D01*
X033885Y004476D01*
X033779Y004582D01*
X033721Y004722D01*
X033721Y004873D01*
X033779Y005012D01*
X033885Y005119D01*
X034025Y005176D01*
X034175Y005176D01*
X033988Y005161D02*
X031356Y005161D01*
X031453Y005064D02*
X033831Y005064D01*
X033760Y004967D02*
X031550Y004967D01*
X031647Y004870D02*
X033721Y004870D01*
X033721Y004773D02*
X031744Y004773D01*
X031841Y004676D02*
X033740Y004676D01*
X033781Y004579D02*
X031938Y004579D01*
X032035Y004482D02*
X033878Y004482D01*
X034322Y004482D02*
X034878Y004482D01*
X034781Y004579D02*
X034419Y004579D01*
X034460Y004676D02*
X034740Y004676D01*
X034721Y004773D02*
X034479Y004773D01*
X034479Y004870D02*
X034721Y004870D01*
X034760Y004967D02*
X034440Y004967D01*
X034369Y005064D02*
X034831Y005064D01*
X034942Y005452D02*
X031065Y005452D01*
X030968Y005549D02*
X034812Y005549D01*
X034752Y005646D02*
X030871Y005646D01*
X030774Y005743D02*
X034721Y005743D01*
X034721Y005840D02*
X030677Y005840D01*
X030580Y005937D02*
X034747Y005937D01*
X034800Y006034D02*
X030483Y006034D01*
X030095Y005355D02*
X024591Y005355D01*
X024631Y005258D02*
X030192Y005258D01*
X030289Y005161D02*
X024645Y005161D01*
X024639Y005064D02*
X030386Y005064D01*
X030483Y004967D02*
X024599Y004967D01*
X024518Y004870D02*
X029974Y004870D01*
X030171Y004870D02*
X030580Y004870D01*
X030677Y004773D02*
X030293Y004773D01*
X030330Y004676D02*
X030774Y004676D01*
X030871Y004579D02*
X030330Y004579D01*
X030288Y004482D02*
X030968Y004482D01*
X031065Y004385D02*
X030152Y004385D01*
X029993Y004385D02*
X003453Y004385D01*
X003535Y004326D02*
X003336Y004470D01*
X003192Y004669D01*
X003116Y004903D01*
X003106Y005025D01*
X003106Y012016D01*
X003106Y012045D01*
X003106Y012181D01*
X003106Y012254D01*
X003026Y012555D01*
X002870Y012825D01*
X002818Y012877D01*
X002548Y013146D01*
X002481Y013223D01*
X002379Y013400D01*
X002326Y013598D01*
X002326Y013597D02*
X003003Y013597D01*
X003051Y013549D02*
X003295Y013448D01*
X003559Y013448D01*
X003803Y013549D01*
X003989Y013736D01*
X004091Y013980D01*
X004091Y014244D01*
X003989Y014488D01*
X003803Y014675D01*
X003559Y014776D01*
X003295Y014776D01*
X003051Y014675D01*
X002864Y014488D01*
X002763Y014244D01*
X002763Y013980D01*
X002864Y013736D01*
X003051Y013549D01*
X003169Y013500D02*
X002352Y013500D01*
X002378Y013404D02*
X036566Y013404D01*
X036566Y013500D02*
X023370Y013500D01*
X023488Y013549D02*
X023244Y013448D01*
X022980Y013448D01*
X022736Y013549D01*
X022549Y013736D01*
X022448Y013980D01*
X022448Y014244D01*
X022549Y014488D01*
X022736Y014675D01*
X022980Y014776D01*
X023244Y014776D01*
X023488Y014675D01*
X023605Y014558D01*
X023605Y015545D01*
X023497Y015436D01*
X023522Y015375D01*
X023522Y015212D01*
X023460Y015061D01*
X023344Y014945D01*
X023193Y014883D01*
X023030Y014883D01*
X022879Y014945D01*
X022764Y015061D01*
X022701Y015212D01*
X022701Y015375D01*
X022728Y015439D01*
X022581Y015586D01*
X014738Y015586D01*
X014798Y015526D01*
X014861Y015375D01*
X014861Y015212D01*
X014798Y015061D01*
X014683Y014945D01*
X014532Y014883D01*
X014369Y014883D01*
X014218Y014945D01*
X014102Y015061D01*
X014040Y015212D01*
X014040Y015375D01*
X014102Y015526D01*
X014162Y015586D01*
X013800Y015586D01*
X013653Y015439D01*
X013680Y015375D01*
X013680Y015212D01*
X013617Y015061D01*
X013502Y014945D01*
X013351Y014883D01*
X013188Y014883D01*
X013037Y014945D01*
X012921Y015061D01*
X012859Y015212D01*
X012859Y015375D01*
X012886Y015439D01*
X012739Y015586D01*
X004896Y015586D01*
X004956Y015526D01*
X005018Y015375D01*
X005018Y015212D01*
X004956Y015061D01*
X004840Y014945D01*
X004689Y014883D01*
X004526Y014883D01*
X004375Y014945D01*
X004260Y015061D01*
X004197Y015212D01*
X004197Y015375D01*
X004260Y015526D01*
X004320Y015586D01*
X003957Y015586D01*
X003811Y015439D01*
X003837Y015375D01*
X003837Y015212D01*
X003775Y015061D01*
X003659Y014945D01*
X003508Y014883D01*
X003345Y014883D01*
X003194Y014945D01*
X003079Y015061D01*
X003016Y015212D01*
X003016Y015375D01*
X003079Y015526D01*
X003194Y015641D01*
X003345Y015704D01*
X003508Y015704D01*
X003573Y015677D01*
X003719Y015824D01*
X003779Y015884D01*
X003573Y016091D01*
X003508Y016064D01*
X003345Y016064D01*
X003194Y016126D01*
X003079Y016242D01*
X003016Y016393D01*
X003016Y016556D01*
X003079Y016707D01*
X003194Y016822D01*
X003345Y016885D01*
X003508Y016885D01*
X003659Y016822D01*
X003775Y016707D01*
X003837Y016556D01*
X003837Y016393D01*
X003811Y016328D01*
X004020Y016119D01*
X004331Y016119D01*
X004314Y016131D01*
X004264Y016181D01*
X004223Y016238D01*
X004190Y016301D01*
X004169Y016369D01*
X004160Y016425D01*
X004558Y016425D01*
X004558Y016523D01*
X004160Y016523D01*
X004169Y016580D01*
X004190Y016647D01*
X004223Y016710D01*
X004264Y016768D01*
X004314Y016818D01*
X004372Y016860D01*
X004435Y016892D01*
X004502Y016914D01*
X004559Y016922D01*
X004559Y016524D01*
X004657Y016524D01*
X004657Y016922D01*
X004713Y016914D01*
X004781Y016892D01*
X004844Y016860D01*
X004901Y016818D01*
X004951Y016768D01*
X004993Y016710D01*
X005025Y016647D01*
X005047Y016580D01*
X005056Y016523D01*
X004657Y016523D01*
X004657Y016425D01*
X005056Y016425D01*
X005047Y016369D01*
X005025Y016301D01*
X004993Y016238D01*
X004951Y016181D01*
X004901Y016131D01*
X004885Y016119D01*
X012676Y016119D01*
X012886Y016328D01*
X012859Y016393D01*
X012859Y016556D01*
X012921Y016707D01*
X013037Y016822D01*
X013188Y016885D01*
X013351Y016885D01*
X013502Y016822D01*
X013617Y016707D01*
X013680Y016556D01*
X013680Y016393D01*
X013653Y016328D01*
X013863Y016119D01*
X014173Y016119D01*
X014157Y016131D01*
X014107Y016181D01*
X014065Y016238D01*
X014033Y016301D01*
X014011Y016369D01*
X014002Y016425D01*
X014401Y016425D01*
X014401Y016523D01*
X014002Y016523D01*
X014011Y016580D01*
X014033Y016647D01*
X014065Y016710D01*
X014107Y016768D01*
X014157Y016818D01*
X014214Y016860D01*
X014277Y016892D01*
X014345Y016914D01*
X014401Y016922D01*
X014401Y016524D01*
X014500Y016524D01*
X014500Y016922D01*
X014556Y016914D01*
X014623Y016892D01*
X014686Y016860D01*
X014744Y016818D01*
X014794Y016768D01*
X014836Y016710D01*
X014868Y016647D01*
X014890Y016580D01*
X014899Y016523D01*
X014500Y016523D01*
X014500Y016425D01*
X014899Y016425D01*
X014890Y016369D01*
X014868Y016301D01*
X014836Y016238D01*
X014794Y016181D01*
X014744Y016131D01*
X014727Y016119D01*
X022518Y016119D01*
X022728Y016328D01*
X022701Y016393D01*
X022701Y016556D01*
X022764Y016707D01*
X022879Y016822D01*
X023030Y016885D01*
X023193Y016885D01*
X023344Y016822D01*
X023460Y016707D01*
X023522Y016556D01*
X023522Y016393D01*
X023460Y016242D01*
X023344Y016126D01*
X023193Y016064D01*
X023030Y016064D01*
X022966Y016091D01*
X022759Y015884D01*
X022966Y015677D01*
X023030Y015704D01*
X023193Y015704D01*
X023260Y015676D01*
X023507Y015922D01*
X023605Y016020D01*
X023605Y016119D01*
X023704Y016217D01*
X023923Y016217D01*
X023908Y016238D01*
X023876Y016301D01*
X023854Y016369D01*
X023845Y016425D01*
X024244Y016425D01*
X024244Y016523D01*
X023845Y016523D01*
X023854Y016580D01*
X023876Y016647D01*
X023908Y016710D01*
X023949Y016768D01*
X023999Y016818D01*
X024057Y016860D01*
X024120Y016892D01*
X024187Y016914D01*
X024244Y016922D01*
X024244Y016524D01*
X024342Y016524D01*
X024342Y016922D01*
X024398Y016914D01*
X024466Y016892D01*
X024529Y016860D01*
X024586Y016818D01*
X024636Y016768D01*
X024678Y016710D01*
X024710Y016647D01*
X024732Y016580D01*
X024741Y016523D01*
X024342Y016523D01*
X024342Y016425D01*
X024741Y016425D01*
X024732Y016369D01*
X024710Y016301D01*
X024678Y016238D01*
X024663Y016217D01*
X024688Y016217D01*
X025573Y017103D01*
X025672Y017202D01*
X030987Y017202D01*
X032168Y018383D01*
X032266Y018481D01*
X032651Y018481D01*
X032677Y018545D01*
X032793Y018661D01*
X032944Y018723D01*
X033107Y018723D01*
X033258Y018661D01*
X033373Y018545D01*
X033436Y018395D01*
X033436Y018231D01*
X033373Y018080D01*
X033258Y017965D01*
X033107Y017903D01*
X032944Y017903D01*
X032793Y017965D01*
X032677Y018080D01*
X032651Y018145D01*
X032406Y018145D01*
X031126Y016865D01*
X030987Y016865D01*
X025811Y016865D01*
X025164Y016217D01*
X032711Y016217D01*
X032793Y016299D01*
X032944Y016361D01*
X033107Y016361D01*
X033258Y016299D01*
X033339Y016217D01*
X033447Y016217D01*
X033447Y019268D01*
X033546Y019367D01*
X033685Y019367D01*
X036048Y019367D01*
X036146Y019268D01*
X036146Y019129D01*
X036146Y014405D01*
X036048Y014306D01*
X035908Y014306D01*
X023750Y014306D01*
X023776Y014244D01*
X023776Y013980D01*
X023674Y013736D01*
X023488Y013549D01*
X023536Y013597D02*
X036566Y013597D01*
X036566Y013694D02*
X023633Y013694D01*
X023697Y013791D02*
X036566Y013791D01*
X036566Y013888D02*
X023738Y013888D01*
X023776Y013985D02*
X036566Y013985D01*
X036566Y014082D02*
X023776Y014082D01*
X023776Y014179D02*
X036566Y014179D01*
X036566Y014276D02*
X023762Y014276D01*
X023605Y014567D02*
X023595Y014567D01*
X023605Y014664D02*
X023499Y014664D01*
X023605Y014761D02*
X023280Y014761D01*
X023354Y014955D02*
X023605Y014955D01*
X023605Y015052D02*
X023451Y015052D01*
X023496Y015149D02*
X023605Y015149D01*
X023605Y015246D02*
X023522Y015246D01*
X023522Y015343D02*
X023605Y015343D01*
X023605Y015440D02*
X023500Y015440D01*
X023597Y015537D02*
X023605Y015537D01*
X023315Y015731D02*
X022912Y015731D01*
X022815Y015828D02*
X023412Y015828D01*
X023509Y015925D02*
X022800Y015925D01*
X022897Y016022D02*
X023605Y016022D01*
X023605Y016119D02*
X023325Y016119D01*
X023433Y016216D02*
X023702Y016216D01*
X023872Y016313D02*
X023489Y016313D01*
X023522Y016410D02*
X023847Y016410D01*
X023861Y016603D02*
X023502Y016603D01*
X023522Y016506D02*
X024244Y016506D01*
X024244Y016603D02*
X024342Y016603D01*
X024342Y016506D02*
X024977Y016506D01*
X024880Y016410D02*
X024739Y016410D01*
X024714Y016313D02*
X024783Y016313D01*
X024724Y016603D02*
X025074Y016603D01*
X025171Y016700D02*
X024683Y016700D01*
X024607Y016797D02*
X025268Y016797D01*
X025365Y016894D02*
X024458Y016894D01*
X024342Y016894D02*
X024244Y016894D01*
X024244Y016797D02*
X024342Y016797D01*
X024342Y016700D02*
X024244Y016700D01*
X024128Y016894D02*
X014615Y016894D01*
X014500Y016894D02*
X014401Y016894D01*
X014401Y016797D02*
X014500Y016797D01*
X014500Y016700D02*
X014401Y016700D01*
X014401Y016603D02*
X014500Y016603D01*
X014500Y016506D02*
X022701Y016506D01*
X022701Y016410D02*
X014896Y016410D01*
X014871Y016313D02*
X022712Y016313D01*
X022615Y016216D02*
X014819Y016216D01*
X014882Y016603D02*
X022721Y016603D01*
X022761Y016700D02*
X014841Y016700D01*
X014764Y016797D02*
X022855Y016797D01*
X023369Y016797D02*
X023979Y016797D01*
X023903Y016700D02*
X023462Y016700D01*
X023193Y017245D02*
X023344Y017308D01*
X023460Y017423D01*
X023522Y017574D01*
X023522Y017737D01*
X023460Y017888D01*
X023344Y018003D01*
X023193Y018066D01*
X023030Y018066D01*
X022879Y018003D01*
X022764Y017888D01*
X022701Y017737D01*
X022701Y017574D01*
X022764Y017423D01*
X022879Y017308D01*
X023030Y017245D01*
X023193Y017245D01*
X023283Y017282D02*
X024121Y017282D01*
X024060Y017308D02*
X024211Y017245D01*
X024375Y017245D01*
X024525Y017308D01*
X024641Y017423D01*
X024703Y017574D01*
X024703Y017737D01*
X024641Y017888D01*
X024525Y018003D01*
X024375Y018066D01*
X024211Y018066D01*
X024060Y018003D01*
X023945Y017888D01*
X023883Y017737D01*
X023883Y017574D01*
X023945Y017423D01*
X024060Y017308D01*
X023989Y017379D02*
X023416Y017379D01*
X023482Y017476D02*
X023923Y017476D01*
X023883Y017573D02*
X023522Y017573D01*
X023522Y017670D02*
X023883Y017670D01*
X023895Y017767D02*
X023510Y017767D01*
X023470Y017864D02*
X023935Y017864D01*
X024018Y017961D02*
X023387Y017961D01*
X023212Y018058D02*
X024192Y018058D01*
X024393Y018058D02*
X031843Y018058D01*
X031746Y017961D02*
X024568Y017961D01*
X024651Y017864D02*
X031649Y017864D01*
X031552Y017767D02*
X024691Y017767D01*
X024703Y017670D02*
X031455Y017670D01*
X031359Y017573D02*
X024703Y017573D01*
X024663Y017476D02*
X031262Y017476D01*
X031165Y017379D02*
X024597Y017379D01*
X024464Y017282D02*
X031068Y017282D01*
X031350Y017088D02*
X032615Y017088D01*
X032615Y017050D02*
X032677Y016899D01*
X032793Y016784D01*
X032944Y016721D01*
X033107Y016721D01*
X033258Y016784D01*
X033373Y016899D01*
X033436Y017050D01*
X033436Y017213D01*
X033373Y017364D01*
X033258Y017480D01*
X033107Y017542D01*
X032944Y017542D01*
X032793Y017480D01*
X032677Y017364D01*
X032615Y017213D01*
X032615Y017050D01*
X032639Y016991D02*
X031253Y016991D01*
X031156Y016894D02*
X032682Y016894D01*
X032779Y016797D02*
X025744Y016797D01*
X025647Y016700D02*
X033447Y016700D01*
X033447Y016603D02*
X025550Y016603D01*
X025453Y016506D02*
X033447Y016506D01*
X033447Y016410D02*
X025356Y016410D01*
X025259Y016313D02*
X032826Y016313D01*
X033224Y016313D02*
X033447Y016313D01*
X033447Y016797D02*
X033271Y016797D01*
X033368Y016894D02*
X033447Y016894D01*
X033447Y016991D02*
X033411Y016991D01*
X033436Y017088D02*
X033447Y017088D01*
X033436Y017185D02*
X033447Y017185D01*
X033447Y017282D02*
X033407Y017282D01*
X033447Y017379D02*
X033358Y017379D01*
X033447Y017476D02*
X033261Y017476D01*
X033447Y017573D02*
X031834Y017573D01*
X031737Y017476D02*
X032789Y017476D01*
X032692Y017379D02*
X031640Y017379D01*
X031544Y017282D02*
X032643Y017282D01*
X032615Y017185D02*
X031447Y017185D01*
X031931Y017670D02*
X033447Y017670D01*
X033447Y017767D02*
X032028Y017767D01*
X032125Y017864D02*
X033447Y017864D01*
X033447Y017961D02*
X033248Y017961D01*
X033351Y018058D02*
X033447Y018058D01*
X033447Y018155D02*
X033404Y018155D01*
X033436Y018252D02*
X033447Y018252D01*
X033436Y018349D02*
X033447Y018349D01*
X033447Y018446D02*
X033414Y018446D01*
X033447Y018543D02*
X033374Y018543D01*
X033447Y018640D02*
X033279Y018640D01*
X033447Y018737D02*
X023776Y018737D01*
X023776Y018704D02*
X023674Y018461D01*
X023488Y018274D01*
X023244Y018173D01*
X022980Y018173D01*
X022736Y018274D01*
X022549Y018461D01*
X022448Y018704D01*
X022448Y018969D01*
X022549Y019213D01*
X022736Y019399D01*
X022980Y019500D01*
X023244Y019500D01*
X023488Y019399D01*
X023674Y019213D01*
X023776Y018969D01*
X023776Y018704D01*
X023749Y018640D02*
X032772Y018640D01*
X032676Y018543D02*
X023709Y018543D01*
X023660Y018446D02*
X032231Y018446D01*
X032134Y018349D02*
X023563Y018349D01*
X023435Y018252D02*
X032037Y018252D01*
X031940Y018155D02*
X002319Y018155D01*
X002319Y018252D02*
X003104Y018252D01*
X003051Y018274D02*
X003295Y018173D01*
X003559Y018173D01*
X003803Y018274D01*
X003989Y018461D01*
X004091Y018704D01*
X004091Y018969D01*
X003989Y019213D01*
X003803Y019399D01*
X003559Y019500D01*
X003295Y019500D01*
X003051Y019399D01*
X002864Y019213D01*
X002763Y018969D01*
X002763Y018704D01*
X002864Y018461D01*
X003051Y018274D01*
X002976Y018349D02*
X002319Y018349D01*
X002319Y018446D02*
X002879Y018446D01*
X002830Y018543D02*
X002319Y018543D01*
X002319Y018640D02*
X002790Y018640D01*
X002763Y018737D02*
X002319Y018737D01*
X002319Y018821D02*
X002319Y018903D01*
X002329Y019026D01*
X002404Y019260D01*
X002549Y019459D01*
X002748Y019603D01*
X002981Y019679D01*
X003104Y019689D01*
X003186Y019689D01*
X005535Y019689D01*
X005608Y019689D01*
X005909Y019769D01*
X006179Y019925D01*
X006231Y019977D01*
X007878Y021624D01*
X007955Y021692D01*
X008132Y021794D01*
X008330Y021847D01*
X008433Y021854D01*
X009503Y021854D01*
X009586Y021854D01*
X009688Y021847D01*
X009886Y021794D01*
X010064Y021692D01*
X010141Y021624D01*
X010490Y021275D01*
X010505Y021260D01*
X010607Y021158D01*
X010607Y021158D01*
X010659Y021106D01*
X010929Y020950D01*
X011230Y020870D01*
X011303Y020870D01*
X016393Y020870D01*
X016409Y020870D01*
X016558Y020870D01*
X016632Y020870D01*
X016933Y020950D01*
X017202Y021106D01*
X017202Y021106D01*
X017254Y021158D01*
X017254Y021158D01*
X017721Y021624D01*
X017797Y021692D01*
X017975Y021794D01*
X018173Y021847D01*
X018275Y021854D01*
X018358Y021854D01*
X019346Y021854D01*
X019429Y021854D01*
X019531Y021847D01*
X019729Y021794D01*
X019906Y021692D01*
X019983Y021624D01*
X020333Y021275D01*
X020357Y021250D01*
X020450Y021158D01*
X020501Y021106D01*
X020502Y021106D01*
X020771Y020950D01*
X020771Y020950D01*
X021072Y020870D01*
X021072Y020870D01*
X021146Y020870D01*
X026236Y020870D01*
X026258Y020870D01*
X026401Y020870D01*
X026474Y020870D01*
X026775Y020950D01*
X027045Y021106D01*
X027097Y021158D01*
X027563Y021624D01*
X027640Y021692D01*
X027817Y021794D01*
X028015Y021847D01*
X028118Y021854D01*
X029271Y021854D01*
X029374Y021847D01*
X029571Y021794D01*
X029749Y021692D01*
X029826Y021624D01*
X030569Y020881D01*
X030628Y020823D01*
X030628Y020822D01*
X030629Y020822D01*
X030686Y020764D01*
X030738Y020712D01*
X031008Y020557D01*
X031309Y020476D01*
X031382Y020476D01*
X035699Y020476D01*
X035781Y020476D01*
X035904Y020466D01*
X036137Y020390D01*
X036336Y020246D01*
X036481Y020047D01*
X036556Y019814D01*
X036566Y019691D01*
X036566Y003140D01*
X036566Y003057D01*
X036556Y002934D01*
X036481Y002701D01*
X036336Y002502D01*
X036137Y002357D01*
X035904Y002282D01*
X035781Y002272D01*
X031153Y002272D01*
X031138Y002272D01*
X030988Y002272D01*
X030915Y002272D01*
X030915Y002272D01*
X030614Y002191D01*
X030614Y002191D01*
X030344Y002035D01*
X030292Y001984D01*
X029826Y001517D01*
X029749Y001450D01*
X029571Y001347D01*
X029374Y001294D01*
X029271Y001288D01*
X028200Y001288D01*
X028118Y001288D01*
X028015Y001294D01*
X027817Y001347D01*
X027640Y001450D01*
X027563Y001517D01*
X027213Y001867D01*
X027193Y001888D01*
X027097Y001984D01*
X027097Y001984D01*
X027045Y002035D01*
X026775Y002191D01*
X026474Y002272D01*
X026401Y002272D01*
X021311Y002272D01*
X021291Y002272D01*
X021146Y002272D01*
X021072Y002272D01*
X020771Y002191D01*
X020502Y002035D01*
X020501Y002035D01*
X020450Y001984D01*
X019983Y001517D01*
X019906Y001450D01*
X019729Y001347D01*
X019531Y001294D01*
X019429Y001288D01*
X018275Y001288D01*
X018173Y001294D01*
X017975Y001347D01*
X017797Y001450D01*
X017721Y001517D01*
X017371Y001867D01*
X017326Y001912D01*
X017313Y001925D01*
X017313Y001925D01*
X017312Y001926D01*
X017254Y001984D01*
X017202Y002035D01*
X017202Y002035D01*
X016933Y002191D01*
X016632Y002272D01*
X016632Y002272D01*
X016558Y002272D01*
X011468Y002272D01*
X011436Y002272D01*
X011303Y002272D01*
X011230Y002272D01*
X011230Y002272D01*
X010929Y002191D01*
X010659Y002035D01*
X010607Y001984D01*
X010141Y001517D01*
X010064Y001450D01*
X009886Y001347D01*
X009688Y001294D01*
X009586Y001288D01*
X008384Y001288D01*
X008303Y001288D01*
X008301Y001288D01*
X008185Y001296D01*
X007961Y001365D01*
X007768Y001497D01*
X007734Y001533D01*
X007734Y001536D01*
X007683Y001589D01*
X007637Y001647D01*
X007627Y001648D01*
X005564Y003813D01*
X005564Y003814D01*
X005508Y003873D01*
X005397Y003990D01*
X005121Y004155D01*
X004811Y004240D01*
X004733Y004240D01*
X004733Y004240D01*
X003974Y004240D01*
X003891Y004240D01*
X003769Y004250D01*
X003535Y004326D01*
X003651Y004288D02*
X031162Y004288D01*
X031259Y004191D02*
X004988Y004191D01*
X005121Y004155D02*
X005121Y004155D01*
X005222Y004095D02*
X031356Y004095D01*
X031453Y003998D02*
X005383Y003998D01*
X005482Y003901D02*
X031550Y003901D01*
X031647Y003804D02*
X005574Y003804D01*
X005666Y003707D02*
X031716Y003707D01*
X031813Y003610D02*
X005759Y003610D01*
X005851Y003513D02*
X008682Y003513D01*
X008545Y003456D02*
X008315Y003226D01*
X008190Y002925D01*
X008190Y002599D01*
X008315Y002298D01*
X008545Y002067D01*
X008846Y001942D01*
X009172Y001942D01*
X009474Y002067D01*
X009704Y002298D01*
X009829Y002599D01*
X009829Y002925D01*
X009704Y003226D01*
X009474Y003456D01*
X009172Y003581D01*
X008846Y003581D01*
X008545Y003456D01*
X008505Y003416D02*
X005943Y003416D01*
X006036Y003319D02*
X008408Y003319D01*
X008313Y003222D02*
X006128Y003222D01*
X006220Y003125D02*
X008273Y003125D01*
X008233Y003028D02*
X006313Y003028D01*
X006405Y002931D02*
X008193Y002931D01*
X008190Y002834D02*
X006497Y002834D01*
X006590Y002737D02*
X008190Y002737D01*
X008190Y002640D02*
X006682Y002640D01*
X006774Y002543D02*
X008213Y002543D01*
X008253Y002446D02*
X006867Y002446D01*
X006959Y002349D02*
X008294Y002349D01*
X008360Y002252D02*
X007051Y002252D01*
X007144Y002155D02*
X008457Y002155D01*
X008567Y002058D02*
X007236Y002058D01*
X007329Y001961D02*
X008801Y001961D01*
X009218Y001961D02*
X010585Y001961D01*
X010607Y001984D02*
X010607Y001984D01*
X010659Y002035D02*
X010659Y002035D01*
X010698Y002058D02*
X009452Y002058D01*
X009561Y002155D02*
X010866Y002155D01*
X010929Y002191D02*
X010929Y002191D01*
X011156Y002252D02*
X009658Y002252D01*
X009725Y002349D02*
X018136Y002349D01*
X018157Y002298D02*
X018388Y002067D01*
X018689Y001942D01*
X019015Y001942D01*
X019316Y002067D01*
X019546Y002298D01*
X019671Y002599D01*
X019671Y002925D01*
X019546Y003226D01*
X019316Y003456D01*
X019015Y003581D01*
X018689Y003581D01*
X018388Y003456D01*
X018157Y003226D01*
X018033Y002925D01*
X018033Y002599D01*
X018157Y002298D01*
X018203Y002252D02*
X016705Y002252D01*
X016933Y002191D02*
X016933Y002191D01*
X016995Y002155D02*
X018300Y002155D01*
X018410Y002058D02*
X017163Y002058D01*
X017202Y002035D02*
X017202Y002035D01*
X017254Y001984D02*
X017254Y001984D01*
X017277Y001961D02*
X018644Y001961D01*
X019060Y001961D02*
X020427Y001961D01*
X020450Y001984D02*
X020450Y001984D01*
X020541Y002058D02*
X019294Y002058D01*
X019404Y002155D02*
X020709Y002155D01*
X020771Y002191D02*
X020771Y002191D01*
X020998Y002252D02*
X019501Y002252D01*
X019568Y002349D02*
X027979Y002349D01*
X028000Y002298D02*
X028230Y002067D01*
X028531Y001942D01*
X028857Y001942D01*
X029159Y002067D01*
X029389Y002298D01*
X029514Y002599D01*
X029514Y002925D01*
X029389Y003226D01*
X029159Y003456D01*
X028857Y003581D01*
X028531Y003581D01*
X028230Y003456D01*
X028000Y003226D01*
X027875Y002925D01*
X027875Y002599D01*
X028000Y002298D01*
X028045Y002252D02*
X026548Y002252D01*
X026474Y002272D02*
X026474Y002272D01*
X026775Y002191D02*
X026775Y002191D01*
X026838Y002155D02*
X028142Y002155D01*
X028252Y002058D02*
X027006Y002058D01*
X027045Y002035D02*
X027045Y002035D01*
X027119Y001961D02*
X028486Y001961D01*
X028903Y001961D02*
X030270Y001961D01*
X030292Y001984D02*
X030292Y001984D01*
X030344Y002035D02*
X030344Y002035D01*
X030383Y002058D02*
X029137Y002058D01*
X029247Y002155D02*
X030551Y002155D01*
X030841Y002252D02*
X029344Y002252D01*
X029410Y002349D02*
X036112Y002349D01*
X036259Y002446D02*
X029450Y002446D01*
X029491Y002543D02*
X036366Y002543D01*
X036437Y002640D02*
X029514Y002640D01*
X029514Y002737D02*
X036492Y002737D01*
X036524Y002834D02*
X029514Y002834D01*
X029511Y002931D02*
X036555Y002931D01*
X036564Y003028D02*
X029471Y003028D01*
X029431Y003125D02*
X036566Y003125D01*
X036566Y003222D02*
X029391Y003222D01*
X029296Y003319D02*
X036566Y003319D01*
X036566Y003416D02*
X029199Y003416D01*
X029022Y003513D02*
X033848Y003513D01*
X034352Y003513D02*
X034848Y003513D01*
X034767Y003610D02*
X034433Y003610D01*
X034473Y003707D02*
X034727Y003707D01*
X034721Y003804D02*
X034479Y003804D01*
X034468Y003901D02*
X034731Y003901D01*
X034634Y003998D02*
X034427Y003998D01*
X034777Y004385D02*
X036566Y004385D01*
X036566Y004288D02*
X034874Y004288D01*
X034971Y004191D02*
X036566Y004191D01*
X036566Y004095D02*
X035339Y004095D01*
X035427Y003998D02*
X036566Y003998D01*
X036566Y003901D02*
X035468Y003901D01*
X035479Y003804D02*
X036566Y003804D01*
X036566Y003707D02*
X035473Y003707D01*
X035433Y003610D02*
X036566Y003610D01*
X036566Y003513D02*
X035352Y003513D01*
X035322Y004482D02*
X036566Y004482D01*
X036566Y004579D02*
X035419Y004579D01*
X035460Y004676D02*
X036566Y004676D01*
X036566Y004773D02*
X035479Y004773D01*
X035479Y004870D02*
X036566Y004870D01*
X036566Y004967D02*
X035440Y004967D01*
X035369Y005064D02*
X036566Y005064D01*
X036566Y006519D02*
X035358Y006519D01*
X035435Y006616D02*
X036566Y006616D01*
X036566Y006713D02*
X035475Y006713D01*
X035479Y006810D02*
X036566Y006810D01*
X036566Y006907D02*
X035465Y006907D01*
X035425Y007004D02*
X036566Y007004D01*
X036566Y007101D02*
X035333Y007101D01*
X034622Y007585D02*
X034463Y007585D01*
X034503Y007682D02*
X034719Y007682D01*
X034526Y007488D02*
X034384Y007488D01*
X033688Y007876D02*
X033653Y007876D01*
X033371Y008070D02*
X027477Y008070D01*
X027380Y007973D02*
X033274Y007973D01*
X033177Y007876D02*
X027284Y007876D01*
X027187Y007779D02*
X033080Y007779D01*
X032983Y007682D02*
X027090Y007682D01*
X027082Y007585D02*
X031677Y007585D01*
X031607Y007488D02*
X027064Y007488D01*
X027574Y008167D02*
X033468Y008167D01*
X033565Y008264D02*
X027671Y008264D01*
X027768Y008361D02*
X033662Y008361D01*
X033853Y008458D02*
X027865Y008458D01*
X027962Y008555D02*
X033758Y008555D01*
X033706Y008652D02*
X028059Y008652D01*
X028156Y008749D02*
X033683Y008749D01*
X033683Y008846D02*
X028253Y008846D01*
X028350Y008943D02*
X033707Y008943D01*
X033758Y009040D02*
X028447Y009040D01*
X028544Y009137D02*
X033854Y009137D01*
X034059Y009137D02*
X034141Y009137D01*
X034141Y009040D02*
X034059Y009040D01*
X034059Y008943D02*
X034141Y008943D01*
X034141Y008846D02*
X034059Y008846D01*
X034346Y009137D02*
X034929Y009137D01*
X034806Y009040D02*
X034442Y009040D01*
X034493Y008943D02*
X034750Y008943D01*
X034721Y008846D02*
X034517Y008846D01*
X034517Y008749D02*
X034721Y008749D01*
X034689Y008652D02*
X034494Y008652D01*
X034442Y008555D02*
X034592Y008555D01*
X034495Y008458D02*
X034346Y008458D01*
X034930Y008361D02*
X036566Y008361D01*
X036566Y008458D02*
X035272Y008458D01*
X035394Y008555D02*
X036566Y008555D01*
X036566Y008652D02*
X035450Y008652D01*
X035479Y008749D02*
X036566Y008749D01*
X036566Y008846D02*
X035479Y008846D01*
X035450Y008943D02*
X036566Y008943D01*
X036566Y009040D02*
X035394Y009040D01*
X035271Y009137D02*
X036566Y009137D01*
X036566Y009234D02*
X028641Y009234D01*
X028738Y009331D02*
X036566Y009331D01*
X036566Y009428D02*
X035199Y009428D01*
X035175Y009418D02*
X035315Y009476D01*
X035421Y009582D01*
X035479Y009722D01*
X035479Y009873D01*
X035421Y010012D01*
X035315Y010119D01*
X035175Y010176D01*
X035025Y010176D01*
X034885Y010119D01*
X034779Y010012D01*
X034721Y009873D01*
X034721Y009722D01*
X034779Y009582D01*
X034885Y009476D01*
X035025Y009418D01*
X035175Y009418D01*
X035001Y009428D02*
X034199Y009428D01*
X034175Y009418D02*
X034315Y009476D01*
X034421Y009582D01*
X034479Y009722D01*
X034479Y009873D01*
X034421Y010012D01*
X034315Y010119D01*
X034175Y010176D01*
X034025Y010176D01*
X033885Y010119D01*
X033779Y010012D01*
X033721Y009873D01*
X033721Y009722D01*
X033779Y009582D01*
X033885Y009476D01*
X034025Y009418D01*
X034175Y009418D01*
X034001Y009428D02*
X028835Y009428D01*
X028932Y009525D02*
X033836Y009525D01*
X033762Y009622D02*
X029029Y009622D01*
X029126Y009719D02*
X033722Y009719D01*
X033721Y009816D02*
X029223Y009816D01*
X029320Y009913D02*
X033737Y009913D01*
X033778Y010010D02*
X032960Y010010D01*
X033057Y010107D02*
X033873Y010107D01*
X034327Y010107D02*
X034873Y010107D01*
X034778Y010010D02*
X034422Y010010D01*
X034463Y009913D02*
X034737Y009913D01*
X034721Y009816D02*
X034479Y009816D01*
X034478Y009719D02*
X034722Y009719D01*
X034762Y009622D02*
X034438Y009622D01*
X034364Y009525D02*
X034836Y009525D01*
X035364Y009525D02*
X036566Y009525D01*
X036566Y009622D02*
X035438Y009622D01*
X035478Y009719D02*
X036566Y009719D01*
X036566Y009816D02*
X035479Y009816D01*
X035463Y009913D02*
X036566Y009913D01*
X036566Y010010D02*
X035422Y010010D01*
X035327Y010107D02*
X036566Y010107D01*
X036566Y010204D02*
X033154Y010204D01*
X033251Y010301D02*
X036566Y010301D01*
X036566Y010397D02*
X033348Y010397D01*
X033445Y010494D02*
X036566Y010494D01*
X036566Y010591D02*
X033542Y010591D01*
X033639Y010688D02*
X036566Y010688D01*
X036566Y010785D02*
X033736Y010785D01*
X033833Y010882D02*
X036566Y010882D01*
X036566Y010979D02*
X033930Y010979D01*
X034027Y011076D02*
X036566Y011076D01*
X036566Y011173D02*
X034124Y011173D01*
X034221Y011270D02*
X036566Y011270D01*
X036566Y011367D02*
X034318Y011367D01*
X034415Y011464D02*
X036566Y011464D01*
X036566Y011561D02*
X034512Y011561D01*
X034609Y011658D02*
X036566Y011658D01*
X036566Y011755D02*
X034706Y011755D01*
X034803Y011852D02*
X036566Y011852D01*
X036566Y011949D02*
X034899Y011949D01*
X034996Y012046D02*
X036566Y012046D01*
X036566Y012143D02*
X035093Y012143D01*
X034756Y012337D02*
X034568Y012337D01*
X034640Y012434D02*
X034853Y012434D01*
X034914Y012531D02*
X034680Y012531D01*
X034680Y012628D02*
X034914Y012628D01*
X034914Y012725D02*
X034661Y012725D01*
X034617Y012822D02*
X034914Y012822D01*
X034917Y012919D02*
X034521Y012919D01*
X034089Y012919D02*
X033536Y012919D01*
X033633Y012822D02*
X033992Y012822D01*
X033949Y012725D02*
X033676Y012725D01*
X033695Y012628D02*
X033930Y012628D01*
X033930Y012531D02*
X033695Y012531D01*
X033656Y012434D02*
X033869Y012434D01*
X033772Y012337D02*
X033583Y012337D01*
X033675Y012240D02*
X033421Y012240D01*
X033578Y012143D02*
X033125Y012143D01*
X033028Y012046D02*
X033481Y012046D01*
X033384Y011949D02*
X032931Y011949D01*
X032834Y011852D02*
X033287Y011852D01*
X033190Y011755D02*
X032737Y011755D01*
X032640Y011658D02*
X033093Y011658D01*
X032996Y011561D02*
X032543Y011561D01*
X032446Y011464D02*
X032899Y011464D01*
X032802Y011367D02*
X032349Y011367D01*
X032252Y011270D02*
X032705Y011270D01*
X032608Y011173D02*
X032155Y011173D01*
X032058Y011076D02*
X032511Y011076D01*
X032414Y010979D02*
X031961Y010979D01*
X031864Y010882D02*
X032317Y010882D01*
X032220Y010785D02*
X031767Y010785D01*
X032364Y010397D02*
X032816Y010397D01*
X032913Y010494D02*
X032461Y010494D01*
X032558Y010591D02*
X033010Y010591D01*
X033107Y010688D02*
X032655Y010688D01*
X032752Y010785D02*
X033204Y010785D01*
X033301Y010882D02*
X032849Y010882D01*
X032946Y010979D02*
X033398Y010979D01*
X033495Y011076D02*
X033042Y011076D01*
X033139Y011173D02*
X033592Y011173D01*
X033689Y011270D02*
X033236Y011270D01*
X033333Y011367D02*
X033786Y011367D01*
X033883Y011464D02*
X033430Y011464D01*
X033527Y011561D02*
X033980Y011561D01*
X034077Y011658D02*
X033624Y011658D01*
X033721Y011755D02*
X034174Y011755D01*
X034271Y011852D02*
X033818Y011852D01*
X033915Y011949D02*
X034368Y011949D01*
X034465Y012046D02*
X034012Y012046D01*
X034109Y012143D02*
X034562Y012143D01*
X034659Y012240D02*
X034405Y012240D01*
X035611Y012240D02*
X036566Y012240D01*
X036566Y012337D02*
X035664Y012337D01*
X035664Y012434D02*
X036566Y012434D01*
X036566Y012531D02*
X035664Y012531D01*
X035664Y012628D02*
X036566Y012628D01*
X036566Y012725D02*
X035664Y012725D01*
X035664Y012822D02*
X036566Y012822D01*
X036566Y012919D02*
X035660Y012919D01*
X036566Y013016D02*
X002679Y013016D01*
X002582Y013113D02*
X036566Y013113D01*
X036566Y013210D02*
X002493Y013210D01*
X002433Y013307D02*
X036566Y013307D01*
X036566Y014373D02*
X036115Y014373D01*
X036146Y014470D02*
X036566Y014470D01*
X036566Y014567D02*
X036146Y014567D01*
X036146Y014664D02*
X036566Y014664D01*
X036566Y014761D02*
X036146Y014761D01*
X036146Y014858D02*
X036566Y014858D01*
X036566Y014955D02*
X036146Y014955D01*
X036146Y015052D02*
X036566Y015052D01*
X036566Y015149D02*
X036146Y015149D01*
X036146Y015246D02*
X036566Y015246D01*
X036566Y015343D02*
X036146Y015343D01*
X036146Y015440D02*
X036566Y015440D01*
X036566Y015537D02*
X036146Y015537D01*
X036146Y015634D02*
X036566Y015634D01*
X036566Y015731D02*
X036146Y015731D01*
X036146Y015828D02*
X036566Y015828D01*
X036566Y015925D02*
X036146Y015925D01*
X036146Y016022D02*
X036566Y016022D01*
X036566Y016119D02*
X036146Y016119D01*
X036146Y016216D02*
X036566Y016216D01*
X036566Y016313D02*
X036146Y016313D01*
X036146Y016410D02*
X036566Y016410D01*
X036566Y016506D02*
X036146Y016506D01*
X036146Y016603D02*
X036566Y016603D01*
X036566Y016700D02*
X036146Y016700D01*
X036146Y016797D02*
X036566Y016797D01*
X036566Y016894D02*
X036146Y016894D01*
X036146Y016991D02*
X036566Y016991D01*
X036566Y017088D02*
X036146Y017088D01*
X036146Y017185D02*
X036566Y017185D01*
X036566Y017282D02*
X036146Y017282D01*
X036146Y017379D02*
X036566Y017379D01*
X036566Y017476D02*
X036146Y017476D01*
X036146Y017573D02*
X036566Y017573D01*
X036566Y017670D02*
X036146Y017670D01*
X036146Y017767D02*
X036566Y017767D01*
X036566Y017864D02*
X036146Y017864D01*
X036146Y017961D02*
X036566Y017961D01*
X036566Y018058D02*
X036146Y018058D01*
X036146Y018155D02*
X036566Y018155D01*
X036566Y018252D02*
X036146Y018252D01*
X036146Y018349D02*
X036566Y018349D01*
X036566Y018446D02*
X036146Y018446D01*
X036146Y018543D02*
X036566Y018543D01*
X036566Y018640D02*
X036146Y018640D01*
X036146Y018737D02*
X036566Y018737D01*
X036566Y018834D02*
X036146Y018834D01*
X036146Y018931D02*
X036566Y018931D01*
X036566Y019028D02*
X036146Y019028D01*
X036146Y019125D02*
X036566Y019125D01*
X036566Y019222D02*
X036146Y019222D01*
X036096Y019319D02*
X036566Y019319D01*
X036566Y019416D02*
X033055Y019416D01*
X033055Y019414D02*
X032994Y019267D01*
X032882Y019155D01*
X032735Y019094D01*
X032576Y019094D01*
X032429Y019155D01*
X032316Y019267D01*
X032255Y019414D01*
X032255Y019574D01*
X032316Y019721D01*
X032429Y019833D01*
X032576Y019894D01*
X032735Y019894D01*
X032882Y019833D01*
X032994Y019721D01*
X033055Y019574D01*
X033055Y019414D01*
X033055Y019513D02*
X036566Y019513D01*
X036566Y019609D02*
X033040Y019609D01*
X033000Y019706D02*
X036565Y019706D01*
X036557Y019803D02*
X032911Y019803D01*
X032399Y019803D02*
X029277Y019803D01*
X029180Y019706D02*
X032310Y019706D01*
X032270Y019609D02*
X028976Y019609D01*
X028857Y019561D02*
X029159Y019685D01*
X029389Y019916D01*
X029514Y020217D01*
X029514Y020543D01*
X029389Y020844D01*
X029159Y021074D01*
X028857Y021199D01*
X028531Y021199D01*
X028230Y021074D01*
X028000Y020844D01*
X027875Y020543D01*
X027875Y020217D01*
X028000Y019916D01*
X028230Y019685D01*
X028531Y019561D01*
X028857Y019561D01*
X028413Y019609D02*
X019133Y019609D01*
X019015Y019561D02*
X019316Y019685D01*
X019546Y019916D01*
X019671Y020217D01*
X019671Y020543D01*
X019546Y020844D01*
X019316Y021074D01*
X019015Y021199D01*
X018689Y021199D01*
X018388Y021074D01*
X018157Y020844D01*
X018033Y020543D01*
X018033Y020217D01*
X018157Y019916D01*
X018388Y019685D01*
X018689Y019561D01*
X019015Y019561D01*
X019337Y019706D02*
X028209Y019706D01*
X028112Y019803D02*
X019434Y019803D01*
X019531Y019900D02*
X028015Y019900D01*
X027966Y019997D02*
X019580Y019997D01*
X019620Y020094D02*
X027926Y020094D01*
X027886Y020191D02*
X019661Y020191D01*
X019671Y020288D02*
X027875Y020288D01*
X027875Y020385D02*
X019671Y020385D01*
X019671Y020482D02*
X027875Y020482D01*
X027890Y020579D02*
X019656Y020579D01*
X019616Y020676D02*
X027930Y020676D01*
X027971Y020773D02*
X019576Y020773D01*
X019520Y020870D02*
X021071Y020870D01*
X020742Y020967D02*
X019423Y020967D01*
X019326Y021064D02*
X020574Y021064D01*
X020450Y021158D02*
X020450Y021158D01*
X020447Y021161D02*
X019107Y021161D01*
X018597Y021161D02*
X017257Y021161D01*
X017354Y021258D02*
X020350Y021258D01*
X020253Y021355D02*
X017451Y021355D01*
X017548Y021452D02*
X020156Y021452D01*
X020059Y021549D02*
X017645Y021549D01*
X017745Y021646D02*
X019959Y021646D01*
X019818Y021743D02*
X017886Y021743D01*
X018145Y021840D02*
X019559Y021840D01*
X018378Y021064D02*
X017130Y021064D01*
X016962Y020967D02*
X018281Y020967D01*
X018184Y020870D02*
X016633Y020870D01*
X016632Y020870D02*
X016632Y020870D01*
X016933Y020950D02*
X016933Y020950D01*
X018048Y020579D02*
X009814Y020579D01*
X009829Y020543D02*
X009704Y020844D01*
X009474Y021074D01*
X009172Y021199D01*
X008846Y021199D01*
X008545Y021074D01*
X008315Y020844D01*
X008190Y020543D01*
X008190Y020217D01*
X008315Y019916D01*
X008545Y019685D01*
X008846Y019561D01*
X009172Y019561D01*
X009474Y019685D01*
X009704Y019916D01*
X009829Y020217D01*
X009829Y020543D01*
X009829Y020482D02*
X018033Y020482D01*
X018033Y020385D02*
X009829Y020385D01*
X009829Y020288D02*
X018033Y020288D01*
X018043Y020191D02*
X009818Y020191D01*
X009778Y020094D02*
X018083Y020094D01*
X018124Y019997D02*
X009738Y019997D01*
X009689Y019900D02*
X018173Y019900D01*
X018270Y019803D02*
X009592Y019803D01*
X009495Y019706D02*
X018367Y019706D01*
X018571Y019609D02*
X009291Y019609D01*
X008728Y019609D02*
X002768Y019609D01*
X002623Y019513D02*
X032255Y019513D01*
X032255Y019416D02*
X023448Y019416D01*
X023568Y019319D02*
X032295Y019319D01*
X032362Y019222D02*
X023665Y019222D01*
X023711Y019125D02*
X032502Y019125D01*
X032809Y019125D02*
X033447Y019125D01*
X033447Y019222D02*
X032948Y019222D01*
X033015Y019319D02*
X033498Y019319D01*
X033447Y019028D02*
X023751Y019028D01*
X023776Y018931D02*
X033447Y018931D01*
X033447Y018834D02*
X023776Y018834D01*
X022789Y018252D02*
X013592Y018252D01*
X013645Y018274D02*
X013832Y018461D01*
X013933Y018704D01*
X013933Y018969D01*
X013832Y019213D01*
X013645Y019399D01*
X013401Y019500D01*
X013137Y019500D01*
X012893Y019399D01*
X012707Y019213D01*
X012606Y018969D01*
X012606Y018704D01*
X012707Y018461D01*
X012893Y018274D01*
X013137Y018173D01*
X013401Y018173D01*
X013645Y018274D01*
X013720Y018349D02*
X022661Y018349D01*
X022564Y018446D02*
X013817Y018446D01*
X013866Y018543D02*
X022515Y018543D01*
X022475Y018640D02*
X013906Y018640D01*
X013933Y018737D02*
X022448Y018737D01*
X022448Y018834D02*
X013933Y018834D01*
X013933Y018931D02*
X022448Y018931D01*
X022473Y019028D02*
X013909Y019028D01*
X013868Y019125D02*
X022513Y019125D01*
X022558Y019222D02*
X013823Y019222D01*
X013726Y019319D02*
X022655Y019319D01*
X022775Y019416D02*
X013606Y019416D01*
X012933Y019416D02*
X003763Y019416D01*
X003883Y019319D02*
X012813Y019319D01*
X012716Y019222D02*
X003980Y019222D01*
X004026Y019125D02*
X012670Y019125D01*
X012630Y019028D02*
X004066Y019028D01*
X004091Y018931D02*
X012606Y018931D01*
X012606Y018834D02*
X004091Y018834D01*
X004091Y018737D02*
X012606Y018737D01*
X012632Y018640D02*
X004064Y018640D01*
X004024Y018543D02*
X012672Y018543D01*
X012721Y018446D02*
X003975Y018446D01*
X003878Y018349D02*
X012818Y018349D01*
X012946Y018252D02*
X003750Y018252D01*
X003659Y018003D02*
X003508Y018066D01*
X003345Y018066D01*
X003194Y018003D01*
X003079Y017888D01*
X003016Y017737D01*
X003016Y017574D01*
X003079Y017423D01*
X003194Y017308D01*
X003345Y017245D01*
X003508Y017245D01*
X003659Y017308D01*
X003775Y017423D01*
X003837Y017574D01*
X003837Y017737D01*
X003775Y017888D01*
X003659Y018003D01*
X003701Y017961D02*
X004333Y017961D01*
X004375Y018003D02*
X004260Y017888D01*
X004197Y017737D01*
X004197Y017574D01*
X004260Y017423D01*
X004375Y017308D01*
X004526Y017245D01*
X004689Y017245D01*
X004840Y017308D01*
X004956Y017423D01*
X005018Y017574D01*
X005018Y017737D01*
X004956Y017888D01*
X004840Y018003D01*
X004689Y018066D01*
X004526Y018066D01*
X004375Y018003D01*
X004507Y018058D02*
X003527Y018058D01*
X003326Y018058D02*
X002319Y018058D01*
X002319Y017961D02*
X003152Y017961D01*
X003069Y017864D02*
X002319Y017864D01*
X002319Y017767D02*
X003029Y017767D01*
X003016Y017670D02*
X002319Y017670D01*
X002319Y017573D02*
X003017Y017573D01*
X003057Y017476D02*
X002319Y017476D01*
X002319Y017379D02*
X003123Y017379D01*
X003255Y017282D02*
X002319Y017282D01*
X002319Y017185D02*
X025656Y017185D01*
X025559Y017088D02*
X002319Y017088D01*
X002319Y016991D02*
X025462Y016991D01*
X022940Y017282D02*
X014622Y017282D01*
X014683Y017308D02*
X014532Y017245D01*
X014369Y017245D01*
X014218Y017308D01*
X014102Y017423D01*
X014040Y017574D01*
X014040Y017737D01*
X014102Y017888D01*
X014218Y018003D01*
X014369Y018066D01*
X014532Y018066D01*
X014683Y018003D01*
X014798Y017888D01*
X014861Y017737D01*
X014861Y017574D01*
X014798Y017423D01*
X014683Y017308D01*
X014755Y017379D02*
X022808Y017379D01*
X022742Y017476D02*
X014820Y017476D01*
X014860Y017573D02*
X022702Y017573D01*
X022701Y017670D02*
X014861Y017670D01*
X014848Y017767D02*
X022714Y017767D01*
X022754Y017864D02*
X014808Y017864D01*
X014725Y017961D02*
X022837Y017961D01*
X023011Y018058D02*
X014551Y018058D01*
X014350Y018058D02*
X013370Y018058D01*
X013351Y018066D02*
X013188Y018066D01*
X013037Y018003D01*
X012921Y017888D01*
X012859Y017737D01*
X012859Y017574D01*
X012921Y017423D01*
X013037Y017308D01*
X013188Y017245D01*
X013351Y017245D01*
X013502Y017308D01*
X013617Y017423D01*
X013680Y017574D01*
X013680Y017737D01*
X013617Y017888D01*
X013502Y018003D01*
X013351Y018066D01*
X013169Y018058D02*
X004708Y018058D01*
X004883Y017961D02*
X012995Y017961D01*
X012912Y017864D02*
X004966Y017864D01*
X005006Y017767D02*
X012871Y017767D01*
X012859Y017670D02*
X005018Y017670D01*
X005018Y017573D02*
X012859Y017573D01*
X012899Y017476D02*
X004978Y017476D01*
X004912Y017379D02*
X012965Y017379D01*
X013098Y017282D02*
X004779Y017282D01*
X004436Y017282D02*
X003598Y017282D01*
X003731Y017379D02*
X004304Y017379D01*
X004238Y017476D02*
X003797Y017476D01*
X003837Y017573D02*
X004198Y017573D01*
X004197Y017670D02*
X003837Y017670D01*
X003825Y017767D02*
X004210Y017767D01*
X004250Y017864D02*
X003785Y017864D01*
X004443Y016894D02*
X002319Y016894D01*
X002319Y016797D02*
X003169Y016797D01*
X003076Y016700D02*
X002319Y016700D01*
X002319Y016603D02*
X003036Y016603D01*
X003016Y016506D02*
X002319Y016506D01*
X002319Y016410D02*
X003016Y016410D01*
X003050Y016313D02*
X002319Y016313D01*
X002319Y016216D02*
X003105Y016216D01*
X003213Y016119D02*
X002319Y016119D01*
X002319Y016022D02*
X003641Y016022D01*
X003738Y015925D02*
X002319Y015925D01*
X002319Y015828D02*
X003723Y015828D01*
X003626Y015731D02*
X002319Y015731D01*
X002319Y015634D02*
X003187Y015634D01*
X003090Y015537D02*
X002319Y015537D01*
X002319Y015440D02*
X003043Y015440D01*
X003016Y015343D02*
X002319Y015343D01*
X002319Y015246D02*
X003016Y015246D01*
X003042Y015149D02*
X002319Y015149D01*
X002319Y015052D02*
X003088Y015052D01*
X003185Y014955D02*
X002319Y014955D01*
X002319Y014858D02*
X023605Y014858D01*
X022944Y014761D02*
X013437Y014761D01*
X013401Y014776D02*
X013137Y014776D01*
X012893Y014675D01*
X012707Y014488D01*
X012606Y014244D01*
X012606Y013980D01*
X012707Y013736D01*
X012893Y013549D01*
X013137Y013448D01*
X013401Y013448D01*
X013645Y013549D01*
X013832Y013736D01*
X013933Y013980D01*
X013933Y014244D01*
X013832Y014488D01*
X013645Y014675D01*
X013401Y014776D01*
X013511Y014955D02*
X014208Y014955D01*
X014111Y015052D02*
X013608Y015052D01*
X013654Y015149D02*
X014066Y015149D01*
X014040Y015246D02*
X013680Y015246D01*
X013680Y015343D02*
X014040Y015343D01*
X014067Y015440D02*
X013654Y015440D01*
X013751Y015537D02*
X014114Y015537D01*
X014787Y015537D02*
X022630Y015537D01*
X022727Y015440D02*
X014834Y015440D01*
X014861Y015343D02*
X022701Y015343D01*
X022701Y015246D02*
X014861Y015246D01*
X014835Y015149D02*
X022727Y015149D01*
X022773Y015052D02*
X014789Y015052D01*
X014693Y014955D02*
X022870Y014955D01*
X022725Y014664D02*
X013656Y014664D01*
X013753Y014567D02*
X022628Y014567D01*
X022542Y014470D02*
X013839Y014470D01*
X013880Y014373D02*
X022501Y014373D01*
X022461Y014276D02*
X013920Y014276D01*
X013933Y014179D02*
X022448Y014179D01*
X022448Y014082D02*
X013933Y014082D01*
X013933Y013985D02*
X022448Y013985D01*
X022486Y013888D02*
X013895Y013888D01*
X013855Y013791D02*
X022526Y013791D01*
X022591Y013694D02*
X013790Y013694D01*
X013693Y013597D02*
X022688Y013597D01*
X022854Y013500D02*
X013527Y013500D01*
X013011Y013500D02*
X003685Y013500D01*
X003851Y013597D02*
X012845Y013597D01*
X012748Y013694D02*
X003948Y013694D01*
X004012Y013791D02*
X012684Y013791D01*
X012644Y013888D02*
X004052Y013888D01*
X004091Y013985D02*
X012606Y013985D01*
X012606Y014082D02*
X004091Y014082D01*
X004091Y014179D02*
X012606Y014179D01*
X012619Y014276D02*
X004077Y014276D01*
X004037Y014373D02*
X012659Y014373D01*
X012699Y014470D02*
X003997Y014470D01*
X003910Y014567D02*
X012786Y014567D01*
X012883Y014664D02*
X003813Y014664D01*
X003595Y014761D02*
X013102Y014761D01*
X013027Y014955D02*
X004850Y014955D01*
X004947Y015052D02*
X012930Y015052D01*
X012885Y015149D02*
X004992Y015149D01*
X005018Y015246D02*
X012859Y015246D01*
X012859Y015343D02*
X005018Y015343D01*
X004991Y015440D02*
X012885Y015440D01*
X012788Y015537D02*
X004945Y015537D01*
X004271Y015537D02*
X003908Y015537D01*
X003811Y015440D02*
X004224Y015440D01*
X004197Y015343D02*
X003837Y015343D01*
X003837Y015246D02*
X004197Y015246D01*
X004223Y015149D02*
X003811Y015149D01*
X003766Y015052D02*
X004269Y015052D01*
X004366Y014955D02*
X003669Y014955D01*
X003259Y014761D02*
X002319Y014761D01*
X002319Y014664D02*
X003040Y014664D01*
X002943Y014567D02*
X002319Y014567D01*
X002319Y014470D02*
X002857Y014470D01*
X002816Y014373D02*
X002319Y014373D01*
X002319Y014276D02*
X002776Y014276D01*
X002763Y014179D02*
X002319Y014179D01*
X002319Y014082D02*
X002763Y014082D01*
X002763Y013985D02*
X002319Y013985D01*
X002319Y013888D02*
X002801Y013888D01*
X002841Y013791D02*
X002319Y013791D01*
X002319Y013701D02*
X002319Y018821D01*
X002319Y018834D02*
X002763Y018834D01*
X002763Y018931D02*
X002321Y018931D01*
X002329Y019028D02*
X002788Y019028D01*
X002828Y019125D02*
X002360Y019125D01*
X002392Y019222D02*
X002873Y019222D01*
X002970Y019319D02*
X002447Y019319D01*
X002518Y019416D02*
X003090Y019416D01*
X005675Y019706D02*
X008524Y019706D01*
X008427Y019803D02*
X005968Y019803D01*
X006136Y019900D02*
X008330Y019900D01*
X008281Y019997D02*
X006251Y019997D01*
X006231Y019977D02*
X006231Y019977D01*
X006348Y020094D02*
X008241Y020094D01*
X008201Y020191D02*
X006445Y020191D01*
X006542Y020288D02*
X008190Y020288D01*
X008190Y020385D02*
X006639Y020385D01*
X006736Y020482D02*
X008190Y020482D01*
X008205Y020579D02*
X006833Y020579D01*
X006930Y020676D02*
X008245Y020676D01*
X008286Y020773D02*
X007027Y020773D01*
X007124Y020870D02*
X008341Y020870D01*
X008438Y020967D02*
X007221Y020967D01*
X007318Y021064D02*
X008535Y021064D01*
X008754Y021161D02*
X007415Y021161D01*
X007512Y021258D02*
X010507Y021258D01*
X010410Y021355D02*
X007609Y021355D01*
X007706Y021452D02*
X010313Y021452D01*
X010216Y021549D02*
X007803Y021549D01*
X007903Y021646D02*
X010116Y021646D01*
X009975Y021743D02*
X008044Y021743D01*
X008303Y021840D02*
X009716Y021840D01*
X009264Y021161D02*
X010604Y021161D01*
X010659Y021106D02*
X010659Y021106D01*
X010732Y021064D02*
X009484Y021064D01*
X009581Y020967D02*
X010900Y020967D01*
X010929Y020950D02*
X010929Y020950D01*
X011228Y020870D02*
X009678Y020870D01*
X009733Y020773D02*
X018128Y020773D01*
X018088Y020676D02*
X009774Y020676D01*
X011230Y020870D02*
X011230Y020870D01*
X013544Y017961D02*
X014176Y017961D01*
X014093Y017864D02*
X013627Y017864D01*
X013667Y017767D02*
X014052Y017767D01*
X014040Y017670D02*
X013680Y017670D01*
X013679Y017573D02*
X014040Y017573D01*
X014080Y017476D02*
X013639Y017476D01*
X013573Y017379D02*
X014146Y017379D01*
X014279Y017282D02*
X013441Y017282D01*
X013527Y016797D02*
X014137Y016797D01*
X014060Y016700D02*
X013620Y016700D01*
X013660Y016603D02*
X014019Y016603D01*
X014005Y016410D02*
X013680Y016410D01*
X013680Y016506D02*
X014401Y016506D01*
X014029Y016313D02*
X013669Y016313D01*
X013766Y016216D02*
X014082Y016216D01*
X014286Y016894D02*
X004773Y016894D01*
X004657Y016894D02*
X004559Y016894D01*
X004559Y016797D02*
X004657Y016797D01*
X004657Y016700D02*
X004559Y016700D01*
X004559Y016603D02*
X004657Y016603D01*
X004657Y016506D02*
X012859Y016506D01*
X012859Y016410D02*
X005054Y016410D01*
X005029Y016313D02*
X012870Y016313D01*
X012773Y016216D02*
X004977Y016216D01*
X005039Y016603D02*
X012879Y016603D01*
X012919Y016700D02*
X004998Y016700D01*
X004922Y016797D02*
X013012Y016797D01*
X004558Y016506D02*
X003837Y016506D01*
X003837Y016410D02*
X004162Y016410D01*
X004187Y016313D02*
X003826Y016313D01*
X003923Y016216D02*
X004239Y016216D01*
X004176Y016603D02*
X003817Y016603D01*
X003777Y016700D02*
X004218Y016700D01*
X004294Y016797D02*
X003684Y016797D01*
X002906Y013694D02*
X002319Y013694D01*
X002319Y013701D02*
X002326Y013598D01*
X002776Y012919D02*
X032120Y012919D01*
X032124Y012922D02*
X032018Y012817D01*
X031961Y012679D01*
X031961Y012530D01*
X032018Y012392D01*
X032124Y012286D01*
X032262Y012229D01*
X032411Y012229D01*
X032549Y012286D01*
X032654Y012392D01*
X032711Y012530D01*
X032711Y012679D01*
X032654Y012817D01*
X032549Y012922D01*
X032411Y012979D01*
X032262Y012979D01*
X032124Y012922D01*
X032023Y012822D02*
X002872Y012822D01*
X002870Y012825D02*
X002870Y012825D01*
X002818Y012877D02*
X002818Y012877D01*
X002928Y012725D02*
X031980Y012725D01*
X031961Y012628D02*
X002984Y012628D01*
X003026Y012555D02*
X003026Y012555D01*
X003032Y012531D02*
X031961Y012531D01*
X032001Y012434D02*
X003058Y012434D01*
X003084Y012337D02*
X032073Y012337D01*
X032236Y012240D02*
X003106Y012240D01*
X003106Y012254D02*
X003106Y012254D01*
X003106Y012143D02*
X032593Y012143D01*
X032496Y012046D02*
X003106Y012046D01*
X003106Y011949D02*
X032399Y011949D01*
X032302Y011852D02*
X003106Y011852D01*
X003106Y011755D02*
X032206Y011755D01*
X032109Y011658D02*
X003106Y011658D01*
X003106Y011561D02*
X032012Y011561D01*
X031915Y011464D02*
X003106Y011464D01*
X003106Y011367D02*
X031818Y011367D01*
X031721Y011270D02*
X003106Y011270D01*
X003106Y011173D02*
X031624Y011173D01*
X032436Y012240D02*
X032690Y012240D01*
X032599Y012337D02*
X032787Y012337D01*
X032884Y012434D02*
X032671Y012434D01*
X032711Y012531D02*
X032946Y012531D01*
X032946Y012628D02*
X032711Y012628D01*
X032692Y012725D02*
X032965Y012725D01*
X033008Y012822D02*
X032649Y012822D01*
X032552Y012919D02*
X033105Y012919D01*
X032802Y017961D02*
X032222Y017961D01*
X032319Y018058D02*
X032700Y018058D01*
X029374Y019900D02*
X036528Y019900D01*
X036497Y019997D02*
X029423Y019997D01*
X029463Y020094D02*
X036446Y020094D01*
X036376Y020191D02*
X029503Y020191D01*
X029514Y020288D02*
X036278Y020288D01*
X036144Y020385D02*
X029514Y020385D01*
X029514Y020482D02*
X031285Y020482D01*
X031309Y020476D02*
X031309Y020476D01*
X031008Y020557D02*
X031008Y020557D01*
X030968Y020579D02*
X029499Y020579D01*
X029459Y020676D02*
X030800Y020676D01*
X030738Y020712D02*
X030738Y020712D01*
X030738Y020712D01*
X030686Y020764D02*
X030686Y020764D01*
X030677Y020773D02*
X029418Y020773D01*
X029363Y020870D02*
X030580Y020870D01*
X030483Y020967D02*
X029266Y020967D01*
X029169Y021064D02*
X030386Y021064D01*
X030289Y021161D02*
X028949Y021161D01*
X028440Y021161D02*
X027100Y021161D01*
X027097Y021158D02*
X027097Y021158D01*
X027045Y021106D02*
X027045Y021106D01*
X026972Y021064D02*
X028220Y021064D01*
X028123Y020967D02*
X026804Y020967D01*
X026775Y020950D02*
X026775Y020950D01*
X026476Y020870D02*
X028026Y020870D01*
X027294Y021355D02*
X030095Y021355D01*
X029998Y021452D02*
X027391Y021452D01*
X027488Y021549D02*
X029901Y021549D01*
X029801Y021646D02*
X027588Y021646D01*
X027729Y021743D02*
X029660Y021743D01*
X029571Y021794D02*
X029571Y021794D01*
X029401Y021840D02*
X027988Y021840D01*
X027197Y021258D02*
X030192Y021258D01*
X026474Y020870D02*
X026474Y020870D01*
X009283Y011076D02*
X003106Y011076D01*
X003106Y010979D02*
X009186Y010979D01*
X009089Y010882D02*
X003106Y010882D01*
X003106Y010785D02*
X008992Y010785D01*
X008895Y010688D02*
X003106Y010688D01*
X003106Y010591D02*
X008798Y010591D01*
X008701Y010494D02*
X003106Y010494D01*
X003106Y010397D02*
X008604Y010397D01*
X008507Y010301D02*
X003106Y010301D01*
X003106Y010204D02*
X008410Y010204D01*
X008313Y010107D02*
X003106Y010107D01*
X003106Y010010D02*
X008216Y010010D01*
X008119Y009913D02*
X003106Y009913D01*
X003106Y009816D02*
X008022Y009816D01*
X007925Y009719D02*
X003106Y009719D01*
X003106Y009622D02*
X007828Y009622D01*
X007731Y009525D02*
X003106Y009525D01*
X003106Y009428D02*
X007634Y009428D01*
X007537Y009331D02*
X003106Y009331D01*
X003106Y009234D02*
X007440Y009234D01*
X007343Y009137D02*
X003106Y009137D01*
X003106Y009040D02*
X007246Y009040D01*
X007149Y008943D02*
X003106Y008943D01*
X003106Y008846D02*
X007052Y008846D01*
X006955Y008749D02*
X003106Y008749D01*
X003106Y008652D02*
X006951Y008652D01*
X006951Y008555D02*
X004901Y008555D01*
X004993Y008458D02*
X006951Y008458D01*
X006951Y008361D02*
X005000Y008361D01*
X005000Y008264D02*
X006951Y008264D01*
X004626Y008264D02*
X004550Y008264D01*
X004550Y008361D02*
X004626Y008361D01*
X004626Y008458D02*
X004550Y008458D01*
X004550Y008555D02*
X004626Y008555D01*
X003430Y007488D02*
X003106Y007488D01*
X003106Y007391D02*
X003302Y007391D01*
X003245Y007294D02*
X003106Y007294D01*
X003106Y007198D02*
X003216Y007198D01*
X003216Y007101D02*
X003106Y007101D01*
X003106Y007004D02*
X003247Y007004D01*
X003307Y006907D02*
X003106Y006907D01*
X003106Y006810D02*
X003442Y006810D01*
X003504Y006519D02*
X003106Y006519D01*
X003106Y006422D02*
X003333Y006422D01*
X003258Y006325D02*
X003106Y006325D01*
X003106Y006228D02*
X003217Y006228D01*
X003216Y006131D02*
X003106Y006131D01*
X003106Y006034D02*
X003234Y006034D01*
X003277Y005937D02*
X003106Y005937D01*
X003106Y005840D02*
X003374Y005840D01*
X003106Y005743D02*
X003723Y005743D01*
X003820Y005646D02*
X003106Y005646D01*
X003106Y005549D02*
X003917Y005549D01*
X004014Y005452D02*
X003813Y005452D01*
X003906Y005355D02*
X004270Y005355D01*
X004230Y005258D02*
X003946Y005258D01*
X003960Y005161D02*
X004216Y005161D01*
X004222Y005064D02*
X003954Y005064D01*
X004038Y004967D02*
X004262Y004967D01*
X004344Y004870D02*
X004135Y004870D01*
X003894Y004579D02*
X003257Y004579D01*
X003189Y004676D02*
X003798Y004676D01*
X003701Y004773D02*
X003158Y004773D01*
X003126Y004870D02*
X003344Y004870D01*
X003262Y004967D02*
X003111Y004967D01*
X003106Y005064D02*
X003222Y005064D01*
X003216Y005161D02*
X003106Y005161D01*
X003106Y005258D02*
X003230Y005258D01*
X003270Y005355D02*
X003106Y005355D01*
X003106Y005452D02*
X003363Y005452D01*
X004005Y005937D02*
X004277Y005937D01*
X004234Y006034D02*
X003942Y006034D01*
X003960Y006131D02*
X004216Y006131D01*
X004217Y006228D02*
X003959Y006228D01*
X003919Y006325D02*
X004258Y006325D01*
X004333Y006422D02*
X003844Y006422D01*
X003673Y006519D02*
X004504Y006519D01*
X004673Y006519D02*
X005343Y006519D01*
X005246Y006422D02*
X004844Y006422D01*
X004919Y006325D02*
X005150Y006325D01*
X004374Y005840D02*
X004102Y005840D01*
X003991Y004482D02*
X003328Y004482D01*
X007421Y001864D02*
X010488Y001864D01*
X010391Y001767D02*
X007513Y001767D01*
X007606Y001670D02*
X010294Y001670D01*
X010197Y001573D02*
X007698Y001573D01*
X007798Y001476D02*
X010094Y001476D01*
X009942Y001379D02*
X007940Y001379D01*
X009765Y002446D02*
X018096Y002446D01*
X018056Y002543D02*
X009806Y002543D01*
X009829Y002640D02*
X018033Y002640D01*
X018033Y002737D02*
X009829Y002737D01*
X009829Y002834D02*
X018033Y002834D01*
X018035Y002931D02*
X009826Y002931D01*
X009786Y003028D02*
X018075Y003028D01*
X018116Y003125D02*
X009746Y003125D01*
X009706Y003222D02*
X018156Y003222D01*
X018250Y003319D02*
X009611Y003319D01*
X009514Y003416D02*
X018347Y003416D01*
X018524Y003513D02*
X009337Y003513D01*
X014686Y006422D02*
X015286Y006422D01*
X015189Y006325D02*
X014761Y006325D01*
X019180Y003513D02*
X028367Y003513D01*
X028190Y003416D02*
X019357Y003416D01*
X019454Y003319D02*
X028093Y003319D01*
X027998Y003222D02*
X019548Y003222D01*
X019588Y003125D02*
X027958Y003125D01*
X027918Y003028D02*
X019629Y003028D01*
X019669Y002931D02*
X027878Y002931D01*
X027875Y002834D02*
X019671Y002834D01*
X019671Y002737D02*
X027875Y002737D01*
X027875Y002640D02*
X019671Y002640D01*
X019648Y002543D02*
X027898Y002543D01*
X027938Y002446D02*
X019608Y002446D01*
X020330Y001864D02*
X017374Y001864D01*
X017471Y001767D02*
X020233Y001767D01*
X020136Y001670D02*
X017568Y001670D01*
X017665Y001573D02*
X020039Y001573D01*
X019937Y001476D02*
X017767Y001476D01*
X017920Y001379D02*
X019784Y001379D01*
X021072Y002272D02*
X021072Y002272D01*
X022870Y004482D02*
X023676Y004482D01*
X023580Y004579D02*
X022967Y004579D01*
X023064Y004676D02*
X023483Y004676D01*
X023386Y004773D02*
X023161Y004773D01*
X024144Y006519D02*
X024189Y006519D01*
X024358Y006519D02*
X027427Y006519D01*
X025882Y006616D02*
X024047Y006616D01*
X023950Y006713D02*
X025652Y006713D01*
X025869Y006629D02*
X025869Y006629D01*
X030700Y007391D02*
X031586Y007391D01*
X031603Y007294D02*
X030797Y007294D01*
X032011Y007585D02*
X032886Y007585D01*
X030173Y001864D02*
X027216Y001864D01*
X027313Y001767D02*
X030076Y001767D01*
X029979Y001670D02*
X027410Y001670D01*
X027507Y001573D02*
X029882Y001573D01*
X029779Y001476D02*
X027610Y001476D01*
X027762Y001379D02*
X029627Y001379D01*
M02*
