%
M48
M72
T01C0.0157
T02C0.0350
T03C0.0354
T04C0.0360
T05C0.0402
T06C0.0929
T07C0.1240
%
T01
X6844Y3844
X9108Y5222
X8419Y5911
X7139Y7585
X11962Y3844
X15702Y7092
X16982Y7585
X18360Y6896
X18261Y9356
X17080Y9750
X21411Y12506
X26824Y7585
X25742Y6955
X27612Y6699
X30072Y4632
X30072Y3844
X31844Y7388
X30466Y12506
X21411Y3844
X11962Y12506
X6844Y12506
T02
X4588Y8151
X3588Y8151
X3588Y7151
X4588Y7151
X4588Y6151
X3588Y6151
X3588Y5151
X4588Y5151
X13431Y5151
X14431Y5151
X14431Y6151
X13431Y6151
X13431Y7151
X14431Y7151
X14431Y8151
X13431Y8151
X23273Y8151
X24273Y8151
X24273Y7151
X23273Y7151
X23273Y6151
X24273Y6151
X24273Y5151
X23273Y5151
T03
X32336Y12604
X33320Y12604
X34305Y12604
X35289Y12604
T04
X35100Y9797
X34100Y9797
X34100Y8797
X35100Y8797
X35100Y7797
X34100Y7797
X34100Y6797
X35100Y6797
X35100Y5797
X35100Y4797
X34100Y4797
X34100Y3797
X35100Y3797
T05
X32655Y14770
X33025Y15951
X34206Y15951
X34206Y17132
X33025Y17132
X33025Y18313
X34206Y18313
X32655Y19494
X24293Y17655
X23112Y17655
X23112Y16474
X24293Y16474
X24293Y15293
X23112Y15293
X14450Y15293
X13269Y15293
X13269Y16474
X14450Y16474
X14450Y17655
X13269Y17655
X4608Y17655
X3427Y17655
X3427Y16474
X4608Y16474
X4608Y15293
X3427Y15293
T06
X3427Y14112
X3427Y18837
X13269Y18837
X13269Y14112
X23112Y14112
X23112Y18837
T07
X18852Y20380
X28694Y20380
X9009Y20380
X9009Y2762
X18852Y2762
X28694Y2762
M30
