G75*
G70*
%OFA0B0*%
%FSLAX24Y24*%
%IPPOS*%
%LPD*%
%AMOC8*
5,1,8,0,0,1.08239X$1,22.5*
%
%ADD10C,0.0000*%
D10*
X001632Y000181D02*
X001632Y008410D01*
X001633Y008410D02*
X001557Y008506D01*
X001486Y008606D01*
X001419Y008708D01*
X001358Y008814D01*
X001302Y008922D01*
X001251Y009034D01*
X001205Y009147D01*
X001165Y009262D01*
X001131Y009380D01*
X001102Y009498D01*
X001079Y009618D01*
X001061Y009739D01*
X001050Y009861D01*
X001044Y009983D01*
X001044Y010105D01*
X001050Y010227D01*
X001061Y010349D01*
X001079Y010470D01*
X001102Y010590D01*
X001131Y010708D01*
X001165Y010826D01*
X001205Y010941D01*
X001251Y011054D01*
X001302Y011166D01*
X001358Y011274D01*
X001419Y011380D01*
X001486Y011482D01*
X001557Y011582D01*
X001633Y011678D01*
X001632Y011677D02*
X001632Y012504D01*
X002431Y012504D01*
X002431Y014670D01*
X000561Y014670D01*
X000561Y019866D01*
X007550Y019866D01*
X009420Y018095D01*
X009420Y001953D01*
X007550Y000181D01*
X001632Y000181D01*
X006907Y005103D02*
X006909Y005151D01*
X006915Y005199D01*
X006925Y005246D01*
X006938Y005292D01*
X006956Y005337D01*
X006976Y005381D01*
X007001Y005423D01*
X007029Y005462D01*
X007059Y005499D01*
X007093Y005533D01*
X007130Y005565D01*
X007168Y005594D01*
X007209Y005619D01*
X007252Y005641D01*
X007297Y005659D01*
X007343Y005673D01*
X007390Y005684D01*
X007438Y005691D01*
X007486Y005694D01*
X007534Y005693D01*
X007582Y005688D01*
X007630Y005679D01*
X007676Y005667D01*
X007721Y005650D01*
X007765Y005630D01*
X007807Y005607D01*
X007847Y005580D01*
X007885Y005550D01*
X007920Y005517D01*
X007952Y005481D01*
X007982Y005443D01*
X008008Y005402D01*
X008030Y005359D01*
X008050Y005315D01*
X008065Y005270D01*
X008077Y005223D01*
X008085Y005175D01*
X008089Y005127D01*
X008089Y005079D01*
X008085Y005031D01*
X008077Y004983D01*
X008065Y004936D01*
X008050Y004891D01*
X008030Y004847D01*
X008008Y004804D01*
X007982Y004763D01*
X007952Y004725D01*
X007920Y004689D01*
X007885Y004656D01*
X007847Y004626D01*
X007807Y004599D01*
X007765Y004576D01*
X007721Y004556D01*
X007676Y004539D01*
X007630Y004527D01*
X007582Y004518D01*
X007534Y004513D01*
X007486Y004512D01*
X007438Y004515D01*
X007390Y004522D01*
X007343Y004533D01*
X007297Y004547D01*
X007252Y004565D01*
X007209Y004587D01*
X007168Y004612D01*
X007130Y004641D01*
X007093Y004673D01*
X007059Y004707D01*
X007029Y004744D01*
X007001Y004783D01*
X006976Y004825D01*
X006956Y004869D01*
X006938Y004914D01*
X006925Y004960D01*
X006915Y005007D01*
X006909Y005055D01*
X006907Y005103D01*
X006865Y010024D02*
X006867Y010065D01*
X006873Y010106D01*
X006883Y010146D01*
X006896Y010185D01*
X006913Y010222D01*
X006934Y010258D01*
X006958Y010292D01*
X006985Y010323D01*
X007014Y010351D01*
X007047Y010377D01*
X007081Y010399D01*
X007118Y010418D01*
X007156Y010433D01*
X007196Y010445D01*
X007236Y010453D01*
X007277Y010457D01*
X007319Y010457D01*
X007360Y010453D01*
X007400Y010445D01*
X007440Y010433D01*
X007478Y010418D01*
X007514Y010399D01*
X007549Y010377D01*
X007582Y010351D01*
X007611Y010323D01*
X007638Y010292D01*
X007662Y010258D01*
X007683Y010222D01*
X007700Y010185D01*
X007713Y010146D01*
X007723Y010106D01*
X007729Y010065D01*
X007731Y010024D01*
X007729Y009983D01*
X007723Y009942D01*
X007713Y009902D01*
X007700Y009863D01*
X007683Y009826D01*
X007662Y009790D01*
X007638Y009756D01*
X007611Y009725D01*
X007582Y009697D01*
X007549Y009671D01*
X007515Y009649D01*
X007478Y009630D01*
X007440Y009615D01*
X007400Y009603D01*
X007360Y009595D01*
X007319Y009591D01*
X007277Y009591D01*
X007236Y009595D01*
X007196Y009603D01*
X007156Y009615D01*
X007118Y009630D01*
X007082Y009649D01*
X007047Y009671D01*
X007014Y009697D01*
X006985Y009725D01*
X006958Y009756D01*
X006934Y009790D01*
X006913Y009826D01*
X006896Y009863D01*
X006883Y009902D01*
X006873Y009942D01*
X006867Y009983D01*
X006865Y010024D01*
M02*
