G75*
G70*
%OFA0B0*%
%FSLAX24Y24*%
%IPPOS*%
%LPD*%
%AMOC8*
5,1,8,0,0,1.08239X$1,22.5*
%
%ADD10C,0.0000*%
%ADD11R,0.0525X0.0525*%
%ADD12C,0.0525*%
%ADD13R,0.0602X0.0602*%
%ADD14C,0.0602*%
%ADD15C,0.0709*%
%ADD16C,0.0768*%
%ADD17R,0.0430X0.0430*%
%ADD18C,0.0430*%
%ADD19C,0.0079*%
%ADD20C,0.0160*%
D10*
X001632Y000181D02*
X001632Y008410D01*
X001633Y008410D02*
X001557Y008506D01*
X001486Y008606D01*
X001419Y008708D01*
X001358Y008814D01*
X001302Y008922D01*
X001251Y009034D01*
X001205Y009147D01*
X001165Y009262D01*
X001131Y009380D01*
X001102Y009498D01*
X001079Y009618D01*
X001061Y009739D01*
X001050Y009861D01*
X001044Y009983D01*
X001044Y010105D01*
X001050Y010227D01*
X001061Y010349D01*
X001079Y010470D01*
X001102Y010590D01*
X001131Y010708D01*
X001165Y010826D01*
X001205Y010941D01*
X001251Y011054D01*
X001302Y011166D01*
X001358Y011274D01*
X001419Y011380D01*
X001486Y011482D01*
X001557Y011582D01*
X001633Y011678D01*
X001632Y011677D02*
X001632Y012504D01*
X002431Y012504D01*
X002431Y014670D01*
X000561Y014670D01*
X000561Y019866D01*
X007550Y019866D01*
X009420Y018095D01*
X009420Y001953D01*
X007550Y000181D01*
X001632Y000181D01*
X006907Y005103D02*
X006909Y005151D01*
X006915Y005199D01*
X006925Y005246D01*
X006938Y005292D01*
X006956Y005337D01*
X006976Y005381D01*
X007001Y005423D01*
X007029Y005462D01*
X007059Y005499D01*
X007093Y005533D01*
X007130Y005565D01*
X007168Y005594D01*
X007209Y005619D01*
X007252Y005641D01*
X007297Y005659D01*
X007343Y005673D01*
X007390Y005684D01*
X007438Y005691D01*
X007486Y005694D01*
X007534Y005693D01*
X007582Y005688D01*
X007630Y005679D01*
X007676Y005667D01*
X007721Y005650D01*
X007765Y005630D01*
X007807Y005607D01*
X007847Y005580D01*
X007885Y005550D01*
X007920Y005517D01*
X007952Y005481D01*
X007982Y005443D01*
X008008Y005402D01*
X008030Y005359D01*
X008050Y005315D01*
X008065Y005270D01*
X008077Y005223D01*
X008085Y005175D01*
X008089Y005127D01*
X008089Y005079D01*
X008085Y005031D01*
X008077Y004983D01*
X008065Y004936D01*
X008050Y004891D01*
X008030Y004847D01*
X008008Y004804D01*
X007982Y004763D01*
X007952Y004725D01*
X007920Y004689D01*
X007885Y004656D01*
X007847Y004626D01*
X007807Y004599D01*
X007765Y004576D01*
X007721Y004556D01*
X007676Y004539D01*
X007630Y004527D01*
X007582Y004518D01*
X007534Y004513D01*
X007486Y004512D01*
X007438Y004515D01*
X007390Y004522D01*
X007343Y004533D01*
X007297Y004547D01*
X007252Y004565D01*
X007209Y004587D01*
X007168Y004612D01*
X007130Y004641D01*
X007093Y004673D01*
X007059Y004707D01*
X007029Y004744D01*
X007001Y004783D01*
X006976Y004825D01*
X006956Y004869D01*
X006938Y004914D01*
X006925Y004960D01*
X006915Y005007D01*
X006909Y005055D01*
X006907Y005103D01*
X006865Y010024D02*
X006867Y010065D01*
X006873Y010106D01*
X006883Y010146D01*
X006896Y010185D01*
X006913Y010222D01*
X006934Y010258D01*
X006958Y010292D01*
X006985Y010323D01*
X007014Y010351D01*
X007047Y010377D01*
X007081Y010399D01*
X007118Y010418D01*
X007156Y010433D01*
X007196Y010445D01*
X007236Y010453D01*
X007277Y010457D01*
X007319Y010457D01*
X007360Y010453D01*
X007400Y010445D01*
X007440Y010433D01*
X007478Y010418D01*
X007514Y010399D01*
X007549Y010377D01*
X007582Y010351D01*
X007611Y010323D01*
X007638Y010292D01*
X007662Y010258D01*
X007683Y010222D01*
X007700Y010185D01*
X007713Y010146D01*
X007723Y010106D01*
X007729Y010065D01*
X007731Y010024D01*
X007729Y009983D01*
X007723Y009942D01*
X007713Y009902D01*
X007700Y009863D01*
X007683Y009826D01*
X007662Y009790D01*
X007638Y009756D01*
X007611Y009725D01*
X007582Y009697D01*
X007549Y009671D01*
X007515Y009649D01*
X007478Y009630D01*
X007440Y009615D01*
X007400Y009603D01*
X007360Y009595D01*
X007319Y009591D01*
X007277Y009591D01*
X007236Y009595D01*
X007196Y009603D01*
X007156Y009615D01*
X007118Y009630D01*
X007082Y009649D01*
X007047Y009671D01*
X007014Y009697D01*
X006985Y009725D01*
X006958Y009756D01*
X006934Y009790D01*
X006913Y009826D01*
X006896Y009863D01*
X006883Y009902D01*
X006873Y009942D01*
X006867Y009983D01*
X006865Y010024D01*
D11*
X007502Y013445D03*
D12*
X007502Y014445D03*
X007502Y015445D03*
X007502Y016445D03*
X006502Y016445D03*
X006502Y015445D03*
X006502Y014445D03*
X006502Y013445D03*
D13*
X004140Y006284D03*
D14*
X004140Y005103D03*
X004140Y003922D03*
X002959Y003922D03*
X002959Y005103D03*
X002959Y006284D03*
D15*
X002905Y009328D03*
X003601Y010024D03*
X002905Y010720D03*
X004297Y010720D03*
X004297Y009328D03*
D16*
X005176Y010024D03*
D17*
X001394Y018807D03*
D18*
X001394Y018307D03*
X001394Y017807D03*
X001394Y017307D03*
X001394Y016807D03*
X001394Y016307D03*
X001394Y015807D03*
X001894Y015807D03*
X001894Y016307D03*
X001894Y016807D03*
X001894Y017307D03*
X001894Y017807D03*
X001894Y018307D03*
X001894Y018807D03*
D19*
X001394Y016807D02*
X001054Y016467D01*
X001054Y015634D01*
X001349Y015339D01*
X005286Y015339D01*
X006172Y014453D01*
X006510Y014453D01*
X006502Y014445D01*
X006510Y014453D02*
X006565Y014453D01*
D20*
X006844Y014217D02*
X006730Y014104D01*
X006582Y014043D01*
X006422Y014043D01*
X006274Y014104D01*
X006161Y014217D01*
X006138Y014274D01*
X006097Y014274D01*
X005992Y014379D01*
X005211Y015160D01*
X001274Y015160D01*
X001169Y015265D01*
X000874Y015560D01*
X000791Y015560D01*
X000874Y015560D02*
X000874Y015708D01*
X000874Y016541D01*
X000979Y016646D01*
X001048Y016715D01*
X001039Y016737D01*
X001039Y016878D01*
X001093Y017008D01*
X001142Y017057D01*
X001093Y017106D01*
X001039Y017237D01*
X001039Y017378D01*
X001093Y017508D01*
X001142Y017557D01*
X001093Y017606D01*
X001039Y017737D01*
X001039Y017878D01*
X001093Y018008D01*
X001142Y018057D01*
X001093Y018106D01*
X001039Y018237D01*
X001039Y018378D01*
X001085Y018489D01*
X001039Y018534D01*
X001039Y019080D01*
X001121Y019162D01*
X001667Y019162D01*
X001713Y019117D01*
X001823Y019162D01*
X001965Y019162D01*
X002095Y019108D01*
X002195Y019008D01*
X002249Y018878D01*
X002249Y018737D01*
X002195Y018606D01*
X002174Y018586D01*
X002201Y018559D01*
X002244Y018494D01*
X002274Y018423D01*
X002289Y018346D01*
X002289Y018308D01*
X001894Y018308D01*
X001894Y018307D01*
X002289Y018307D01*
X002289Y018268D01*
X002274Y018192D01*
X002244Y018120D01*
X002201Y018056D01*
X002174Y018029D01*
X002195Y018008D01*
X002249Y017878D01*
X002249Y017737D01*
X002195Y017606D01*
X002174Y017586D01*
X002201Y017559D01*
X002244Y017494D01*
X002274Y017423D01*
X002289Y017346D01*
X002289Y017308D01*
X001894Y017308D01*
X001894Y017307D01*
X001894Y017307D01*
X001894Y017202D01*
X001894Y016808D01*
X001894Y016808D01*
X001894Y017202D01*
X001894Y017307D01*
X002289Y017307D01*
X002289Y017268D01*
X002274Y017192D01*
X002244Y017120D01*
X002202Y017057D01*
X002244Y016994D01*
X002274Y016923D01*
X002289Y016846D01*
X002289Y016808D01*
X001894Y016808D01*
X001894Y016807D01*
X001894Y016807D01*
X001894Y016702D01*
X001894Y016308D01*
X001894Y016308D01*
X001894Y016702D01*
X001894Y016807D01*
X002289Y016807D01*
X002289Y016768D01*
X002274Y016692D01*
X002244Y016620D01*
X002202Y016557D01*
X002244Y016494D01*
X002274Y016423D01*
X002289Y016346D01*
X002289Y016308D01*
X001894Y016308D01*
X001894Y016307D01*
X002289Y016307D01*
X002289Y016268D01*
X002274Y016192D01*
X002244Y016120D01*
X002201Y016056D01*
X002174Y016029D01*
X002195Y016008D01*
X002249Y015878D01*
X002249Y015737D01*
X002195Y015606D01*
X002107Y015518D01*
X005211Y015518D01*
X005360Y015518D01*
X006183Y014695D01*
X006274Y014786D01*
X006422Y014848D01*
X006582Y014848D01*
X006730Y014786D01*
X006844Y014673D01*
X006905Y014525D01*
X006905Y014365D01*
X006844Y014217D01*
X006874Y014292D02*
X007130Y014292D01*
X007100Y014365D02*
X007161Y014217D01*
X007274Y014104D01*
X007422Y014043D01*
X007582Y014043D01*
X007730Y014104D01*
X007844Y014217D01*
X007905Y014365D01*
X007905Y014525D01*
X007844Y014673D01*
X007730Y014786D01*
X007582Y014848D01*
X007422Y014848D01*
X007274Y014786D01*
X007161Y014673D01*
X007100Y014525D01*
X007100Y014365D01*
X007100Y014450D02*
X006905Y014450D01*
X006870Y014609D02*
X007134Y014609D01*
X007255Y014767D02*
X006749Y014767D01*
X006582Y015043D02*
X006730Y015104D01*
X006844Y015217D01*
X006905Y015365D01*
X006905Y015525D01*
X006844Y015673D01*
X006730Y015786D01*
X006582Y015848D01*
X006422Y015848D01*
X006274Y015786D01*
X006161Y015673D01*
X006100Y015525D01*
X006100Y015365D01*
X006161Y015217D01*
X006274Y015104D01*
X006422Y015043D01*
X006582Y015043D01*
X006683Y015084D02*
X007321Y015084D01*
X007274Y015104D02*
X007422Y015043D01*
X007582Y015043D01*
X007730Y015104D01*
X007844Y015217D01*
X007905Y015365D01*
X007905Y015525D01*
X007844Y015673D01*
X007730Y015786D01*
X007582Y015848D01*
X007422Y015848D01*
X007274Y015786D01*
X007161Y015673D01*
X007100Y015525D01*
X007100Y015365D01*
X007161Y015217D01*
X007274Y015104D01*
X007150Y015243D02*
X006854Y015243D01*
X006905Y015402D02*
X007100Y015402D01*
X007114Y015560D02*
X006890Y015560D01*
X006798Y015719D02*
X007207Y015719D01*
X007422Y016043D02*
X007274Y016104D01*
X007161Y016217D01*
X007100Y016365D01*
X007100Y016525D01*
X007161Y016673D01*
X007274Y016786D01*
X007422Y016848D01*
X007582Y016848D01*
X007730Y016786D01*
X007844Y016673D01*
X007905Y016525D01*
X007905Y016365D01*
X007844Y016217D01*
X007730Y016104D01*
X007582Y016043D01*
X007422Y016043D01*
X007184Y016194D02*
X006821Y016194D01*
X006844Y016217D02*
X006905Y016365D01*
X006905Y016525D01*
X006844Y016673D01*
X006730Y016786D01*
X006582Y016848D01*
X006422Y016848D01*
X006274Y016786D01*
X006161Y016673D01*
X006100Y016525D01*
X006100Y016365D01*
X006161Y016217D01*
X006274Y016104D01*
X006422Y016043D01*
X006582Y016043D01*
X006730Y016104D01*
X006844Y016217D01*
X006900Y016353D02*
X007105Y016353D01*
X007100Y016511D02*
X006905Y016511D01*
X006845Y016670D02*
X007160Y016670D01*
X007376Y016828D02*
X006629Y016828D01*
X006376Y016828D02*
X002289Y016828D01*
X002265Y016670D02*
X006160Y016670D01*
X006100Y016511D02*
X002233Y016511D01*
X002288Y016353D02*
X006105Y016353D01*
X006184Y016194D02*
X002274Y016194D01*
X002181Y016036D02*
X009190Y016036D01*
X009190Y016194D02*
X007821Y016194D01*
X007900Y016353D02*
X009190Y016353D01*
X009190Y016511D02*
X007905Y016511D01*
X007845Y016670D02*
X009190Y016670D01*
X009190Y016828D02*
X007629Y016828D01*
X007798Y015719D02*
X009190Y015719D01*
X009190Y015877D02*
X002249Y015877D01*
X002242Y015719D02*
X006207Y015719D01*
X006114Y015560D02*
X002149Y015560D01*
X002336Y014900D02*
X000791Y014900D01*
X000791Y019636D01*
X007458Y019636D01*
X009190Y017996D01*
X009190Y002052D01*
X007458Y000411D01*
X001862Y000411D01*
X001862Y008399D01*
X001870Y008483D01*
X001862Y008493D01*
X001862Y008505D01*
X001805Y008562D01*
X001650Y008773D01*
X001411Y009253D01*
X001288Y009775D01*
X001288Y010312D01*
X001411Y010834D01*
X001650Y011314D01*
X001805Y011525D01*
X001862Y011582D01*
X001862Y011594D01*
X001870Y011604D01*
X001862Y011688D01*
X001862Y012274D01*
X002527Y012274D01*
X002661Y012409D01*
X002661Y012599D01*
X002661Y014765D01*
X002527Y014900D01*
X002336Y014900D01*
X002659Y014767D02*
X005604Y014767D01*
X005445Y014926D02*
X000791Y014926D01*
X000791Y015084D02*
X005287Y015084D01*
X005477Y015402D02*
X006100Y015402D01*
X006150Y015243D02*
X005635Y015243D01*
X005794Y015084D02*
X006321Y015084D01*
X006255Y014767D02*
X006111Y014767D01*
X005952Y014926D02*
X009190Y014926D01*
X009190Y015084D02*
X007683Y015084D01*
X007854Y015243D02*
X009190Y015243D01*
X009190Y015402D02*
X007905Y015402D01*
X007890Y015560D02*
X009190Y015560D01*
X009190Y014767D02*
X007749Y014767D01*
X007870Y014609D02*
X009190Y014609D01*
X009190Y014450D02*
X007905Y014450D01*
X007874Y014292D02*
X009190Y014292D01*
X009190Y014133D02*
X007760Y014133D01*
X007789Y013888D02*
X007510Y013888D01*
X007510Y013453D01*
X007495Y013453D01*
X007495Y013888D01*
X007216Y013888D01*
X007170Y013875D01*
X007129Y013852D01*
X007096Y013818D01*
X007072Y013777D01*
X007060Y013731D01*
X007060Y013453D01*
X007495Y013453D01*
X007495Y013438D01*
X007060Y013438D01*
X007060Y013159D01*
X007072Y013113D01*
X007096Y013072D01*
X007129Y013039D01*
X007170Y013015D01*
X007216Y013003D01*
X007495Y013003D01*
X007495Y013437D01*
X007510Y013437D01*
X007510Y013003D01*
X007789Y013003D01*
X007834Y013015D01*
X007875Y013039D01*
X007909Y013072D01*
X007933Y013113D01*
X007945Y013159D01*
X007945Y013438D01*
X007510Y013438D01*
X007510Y013453D01*
X007945Y013453D01*
X007945Y013731D01*
X007933Y013777D01*
X007909Y013818D01*
X007875Y013852D01*
X007834Y013875D01*
X007789Y013888D01*
X007910Y013816D02*
X009190Y013816D01*
X009190Y013658D02*
X007945Y013658D01*
X007945Y013499D02*
X009190Y013499D01*
X009190Y013341D02*
X007945Y013341D01*
X007945Y013182D02*
X009190Y013182D01*
X009190Y013023D02*
X007849Y013023D01*
X007510Y013023D02*
X007495Y013023D01*
X007495Y013182D02*
X007510Y013182D01*
X007495Y013341D02*
X007510Y013341D01*
X007495Y013499D02*
X007510Y013499D01*
X007495Y013658D02*
X007510Y013658D01*
X007495Y013816D02*
X007510Y013816D01*
X007245Y014133D02*
X006760Y014133D01*
X006659Y013816D02*
X007095Y013816D01*
X007060Y013658D02*
X006850Y013658D01*
X006844Y013673D02*
X006730Y013786D01*
X006582Y013848D01*
X006422Y013848D01*
X006274Y013786D01*
X006161Y013673D01*
X006100Y013525D01*
X006100Y013365D01*
X006161Y013217D01*
X006274Y013104D01*
X006422Y013043D01*
X006582Y013043D01*
X006730Y013104D01*
X006844Y013217D01*
X006905Y013365D01*
X006905Y013525D01*
X006844Y013673D01*
X006905Y013499D02*
X007060Y013499D01*
X007060Y013341D02*
X006895Y013341D01*
X006808Y013182D02*
X007060Y013182D01*
X007156Y013023D02*
X002661Y013023D01*
X002661Y012865D02*
X009190Y012865D01*
X009190Y012706D02*
X002661Y012706D01*
X002661Y012548D02*
X009190Y012548D01*
X009190Y012389D02*
X002642Y012389D01*
X002661Y013182D02*
X006196Y013182D01*
X006110Y013341D02*
X002661Y013341D01*
X002661Y013499D02*
X006100Y013499D01*
X006155Y013658D02*
X002661Y013658D01*
X002661Y013816D02*
X006346Y013816D01*
X006245Y014133D02*
X002661Y014133D01*
X002661Y013975D02*
X009190Y013975D01*
X009190Y012231D02*
X001862Y012231D01*
X001862Y012072D02*
X009190Y012072D01*
X009190Y011914D02*
X001862Y011914D01*
X001862Y011755D02*
X009190Y011755D01*
X009190Y011597D02*
X001864Y011597D01*
X001741Y011438D02*
X009190Y011438D01*
X009190Y011279D02*
X001632Y011279D01*
X001554Y011121D02*
X002550Y011121D01*
X002557Y011127D02*
X002497Y011068D01*
X002448Y011000D01*
X002410Y010925D01*
X002384Y010845D01*
X002371Y010762D01*
X002371Y010758D01*
X002866Y010758D01*
X002866Y010682D01*
X002371Y010682D01*
X002371Y010678D01*
X002384Y010595D01*
X002410Y010515D01*
X002448Y010440D01*
X002497Y010372D01*
X002557Y010312D01*
X002625Y010263D01*
X002700Y010225D01*
X002780Y010199D01*
X002863Y010186D01*
X002867Y010186D01*
X002867Y010681D01*
X002943Y010681D01*
X002943Y010186D01*
X002947Y010186D01*
X003030Y010199D01*
X003110Y010225D01*
X003159Y010250D01*
X003106Y010122D01*
X003106Y009926D01*
X003179Y009749D01*
X003003Y009822D01*
X002806Y009822D01*
X002625Y009747D01*
X002486Y009608D01*
X002411Y009426D01*
X002411Y009230D01*
X002486Y009048D01*
X002625Y008909D01*
X002806Y008834D01*
X003003Y008834D01*
X003185Y008909D01*
X003324Y009048D01*
X003381Y009185D01*
X003381Y006418D01*
X003333Y006534D01*
X003209Y006658D01*
X003047Y006725D01*
X002871Y006725D01*
X002709Y006658D01*
X002585Y006534D01*
X002518Y006372D01*
X002518Y006196D01*
X002585Y006034D01*
X002709Y005910D01*
X002871Y005843D01*
X003047Y005843D01*
X003209Y005910D01*
X003333Y006034D01*
X003381Y006149D01*
X003381Y005836D01*
X003077Y005531D01*
X003047Y005544D01*
X002871Y005544D01*
X002709Y005477D01*
X002585Y005353D01*
X002518Y005190D01*
X002518Y005015D01*
X002585Y004853D01*
X002709Y004729D01*
X002871Y004661D01*
X003047Y004661D01*
X003209Y004729D01*
X003333Y004853D01*
X003400Y005015D01*
X003400Y005190D01*
X003388Y005220D01*
X003692Y005524D01*
X003821Y005653D01*
X003821Y005843D01*
X004499Y005843D01*
X004581Y005925D01*
X004581Y006643D01*
X004499Y006725D01*
X003821Y006725D01*
X003821Y009085D01*
X003840Y009048D01*
X003889Y008980D01*
X003949Y008920D01*
X004017Y008871D01*
X004092Y008833D01*
X004172Y008807D01*
X004255Y008794D01*
X004259Y008794D01*
X004259Y009290D01*
X004335Y009290D01*
X004335Y009366D01*
X004831Y009366D01*
X004831Y009370D01*
X004818Y009453D01*
X004792Y009533D01*
X004754Y009608D01*
X004704Y009676D01*
X004645Y009736D01*
X004577Y009785D01*
X004502Y009823D01*
X004422Y009849D01*
X004339Y009862D01*
X004335Y009862D01*
X004335Y009366D01*
X004259Y009366D01*
X004259Y009862D01*
X004255Y009862D01*
X004172Y009849D01*
X004092Y009823D01*
X004042Y009798D01*
X004095Y009926D01*
X004095Y010122D01*
X004022Y010299D01*
X004198Y010226D01*
X004395Y010226D01*
X004577Y010301D01*
X004716Y010440D01*
X004791Y010622D01*
X004791Y010818D01*
X004716Y011000D01*
X004577Y011139D01*
X004395Y011214D01*
X004198Y011214D01*
X004017Y011139D01*
X003878Y011000D01*
X003802Y010818D01*
X003802Y010622D01*
X003875Y010445D01*
X003699Y010518D01*
X003502Y010518D01*
X003375Y010465D01*
X003400Y010515D01*
X003426Y010595D01*
X003439Y010678D01*
X003439Y010682D01*
X002943Y010682D01*
X002943Y010758D01*
X003439Y010758D01*
X003439Y010762D01*
X003426Y010845D01*
X003400Y010925D01*
X003362Y011000D01*
X003312Y011068D01*
X003253Y011127D01*
X003185Y011177D01*
X003110Y011215D01*
X003030Y011241D01*
X002947Y011254D01*
X002943Y011254D01*
X002943Y010758D01*
X002867Y010758D01*
X002867Y011254D01*
X002863Y011254D01*
X002780Y011241D01*
X002700Y011215D01*
X002625Y011177D01*
X002557Y011127D01*
X002429Y010962D02*
X001475Y010962D01*
X001404Y010804D02*
X002377Y010804D01*
X002376Y010645D02*
X001366Y010645D01*
X001329Y010487D02*
X002424Y010487D01*
X002541Y010328D02*
X001292Y010328D01*
X001288Y010170D02*
X003126Y010170D01*
X003106Y010011D02*
X001288Y010011D01*
X001288Y009853D02*
X003137Y009853D01*
X003601Y010024D02*
X003601Y005744D01*
X002959Y005103D01*
X002646Y005413D02*
X001862Y005413D01*
X001862Y005255D02*
X002545Y005255D01*
X002518Y005096D02*
X001862Y005096D01*
X001862Y004938D02*
X002550Y004938D01*
X002659Y004779D02*
X001862Y004779D01*
X001862Y004621D02*
X006820Y004621D01*
X006803Y004638D02*
X007034Y004407D01*
X007335Y004282D01*
X007662Y004282D01*
X007963Y004407D01*
X008194Y004638D01*
X008319Y004939D01*
X008319Y005266D01*
X008194Y005567D01*
X007963Y005798D01*
X007662Y005923D01*
X007335Y005923D01*
X007034Y005798D01*
X006803Y005567D01*
X006678Y005266D01*
X006678Y004939D01*
X006803Y004638D01*
X006744Y004779D02*
X004497Y004779D01*
X004507Y004789D02*
X004552Y004850D01*
X004586Y004918D01*
X004609Y004990D01*
X004621Y005065D01*
X004621Y005082D01*
X004161Y005082D01*
X004161Y005123D01*
X004621Y005123D01*
X004621Y005141D01*
X004609Y005215D01*
X004586Y005287D01*
X004552Y005355D01*
X004507Y005416D01*
X004454Y005470D01*
X004392Y005514D01*
X004325Y005549D01*
X004253Y005572D01*
X006807Y005572D01*
X006739Y005413D02*
X004509Y005413D01*
X004597Y005255D02*
X006678Y005255D01*
X006678Y005096D02*
X004161Y005096D01*
X004161Y005082D02*
X004161Y004621D01*
X004178Y004621D01*
X004253Y004633D01*
X004325Y004657D01*
X004392Y004691D01*
X004454Y004736D01*
X004507Y004789D01*
X004592Y004938D02*
X006679Y004938D01*
X006979Y004462D02*
X001862Y004462D01*
X001862Y004304D02*
X002728Y004304D01*
X002709Y004296D02*
X002585Y004171D01*
X002518Y004009D01*
X002518Y003834D01*
X002585Y003672D01*
X002709Y003548D01*
X002871Y003480D01*
X003047Y003480D01*
X003209Y003548D01*
X003333Y003672D01*
X003400Y003834D01*
X003400Y004009D01*
X003333Y004171D01*
X003209Y004296D01*
X003047Y004363D01*
X002871Y004363D01*
X002709Y004296D01*
X002574Y004145D02*
X001862Y004145D01*
X001862Y003986D02*
X002518Y003986D01*
X002520Y003828D02*
X001862Y003828D01*
X001862Y003669D02*
X002587Y003669D01*
X002798Y003511D02*
X001862Y003511D01*
X001862Y003352D02*
X009190Y003352D01*
X009190Y003194D02*
X001862Y003194D01*
X001862Y003035D02*
X009190Y003035D01*
X009190Y002877D02*
X001862Y002877D01*
X001862Y002718D02*
X009190Y002718D01*
X009190Y002560D02*
X001862Y002560D01*
X001862Y002401D02*
X009190Y002401D01*
X009190Y002242D02*
X001862Y002242D01*
X001862Y002084D02*
X009190Y002084D01*
X009056Y001925D02*
X001862Y001925D01*
X001862Y001767D02*
X008889Y001767D01*
X008721Y001608D02*
X001862Y001608D01*
X001862Y001450D02*
X008554Y001450D01*
X008387Y001291D02*
X001862Y001291D01*
X001862Y001133D02*
X008219Y001133D01*
X008052Y000974D02*
X001862Y000974D01*
X001862Y000816D02*
X007885Y000816D01*
X007717Y000657D02*
X001862Y000657D01*
X001862Y000499D02*
X007550Y000499D01*
X009190Y003511D02*
X004301Y003511D01*
X004228Y003480D02*
X004390Y003548D01*
X004514Y003672D01*
X004581Y003834D01*
X004581Y004009D01*
X004514Y004171D01*
X004390Y004296D01*
X004228Y004363D01*
X004052Y004363D01*
X003890Y004296D01*
X003766Y004171D01*
X003699Y004009D01*
X003699Y003834D01*
X003766Y003672D01*
X003890Y003548D01*
X004052Y003480D01*
X004228Y003480D01*
X003979Y003511D02*
X003120Y003511D01*
X003331Y003669D02*
X003768Y003669D01*
X003701Y003828D02*
X003398Y003828D01*
X003400Y003986D02*
X003699Y003986D01*
X003755Y004145D02*
X003344Y004145D01*
X003190Y004304D02*
X003910Y004304D01*
X004027Y004633D02*
X004102Y004621D01*
X004120Y004621D01*
X004120Y005082D01*
X004161Y005082D01*
X004161Y005123D02*
X004120Y005123D01*
X004120Y005584D01*
X004102Y005584D01*
X004027Y005572D01*
X003739Y005572D01*
X003827Y005470D02*
X003773Y005416D01*
X003729Y005355D01*
X003694Y005287D01*
X003671Y005215D01*
X003659Y005141D01*
X003659Y005123D01*
X004119Y005123D01*
X004119Y005082D01*
X003659Y005082D01*
X003659Y005065D01*
X003671Y004990D01*
X003694Y004918D01*
X003729Y004850D01*
X003773Y004789D01*
X003827Y004736D01*
X003888Y004691D01*
X003955Y004657D01*
X004027Y004633D01*
X004120Y004779D02*
X004161Y004779D01*
X004161Y004938D02*
X004120Y004938D01*
X004119Y005096D02*
X003400Y005096D01*
X003422Y005255D02*
X003684Y005255D01*
X003771Y005413D02*
X003581Y005413D01*
X003827Y005470D02*
X003888Y005514D01*
X003955Y005549D01*
X004027Y005572D01*
X004120Y005572D02*
X004161Y005572D01*
X004161Y005584D02*
X004161Y005123D01*
X004161Y005255D02*
X004120Y005255D01*
X004120Y005413D02*
X004161Y005413D01*
X004178Y005584D02*
X004161Y005584D01*
X004178Y005584D02*
X004253Y005572D01*
X004546Y005889D02*
X007253Y005889D01*
X006966Y005730D02*
X003821Y005730D01*
X003381Y005889D02*
X003159Y005889D01*
X003276Y005730D02*
X001862Y005730D01*
X001862Y005572D02*
X003117Y005572D01*
X002759Y005889D02*
X001862Y005889D01*
X001862Y006048D02*
X002579Y006048D01*
X002518Y006206D02*
X001862Y006206D01*
X001862Y006365D02*
X002518Y006365D01*
X002581Y006523D02*
X001862Y006523D01*
X001862Y006682D02*
X002767Y006682D01*
X003151Y006682D02*
X003381Y006682D01*
X003381Y006840D02*
X001862Y006840D01*
X001862Y006999D02*
X003381Y006999D01*
X003381Y007157D02*
X001862Y007157D01*
X001862Y007316D02*
X003381Y007316D01*
X003381Y007474D02*
X001862Y007474D01*
X001862Y007633D02*
X003381Y007633D01*
X003381Y007791D02*
X001862Y007791D01*
X001862Y007950D02*
X003381Y007950D01*
X003381Y008109D02*
X001862Y008109D01*
X001862Y008267D02*
X003381Y008267D01*
X003381Y008426D02*
X001865Y008426D01*
X001789Y008584D02*
X003381Y008584D01*
X003381Y008743D02*
X001672Y008743D01*
X001586Y008901D02*
X002643Y008901D01*
X002481Y009060D02*
X001507Y009060D01*
X001428Y009218D02*
X002415Y009218D01*
X002411Y009377D02*
X001382Y009377D01*
X001344Y009535D02*
X002456Y009535D01*
X002572Y009694D02*
X001307Y009694D01*
X002867Y010328D02*
X002943Y010328D01*
X002943Y010487D02*
X002867Y010487D01*
X002867Y010645D02*
X002943Y010645D01*
X002943Y010804D02*
X002867Y010804D01*
X002867Y010962D02*
X002943Y010962D01*
X002943Y011121D02*
X002867Y011121D01*
X003259Y011121D02*
X003999Y011121D01*
X003862Y010962D02*
X003381Y010962D01*
X003433Y010804D02*
X003802Y010804D01*
X003802Y010645D02*
X003434Y010645D01*
X003426Y010487D02*
X003386Y010487D01*
X003775Y010487D02*
X003858Y010487D01*
X004075Y010170D02*
X004630Y010170D01*
X004626Y010156D02*
X004612Y010072D01*
X005127Y010072D01*
X005127Y009976D01*
X004612Y009976D01*
X004626Y009892D01*
X004653Y009807D01*
X004693Y009728D01*
X004746Y009657D01*
X004808Y009594D01*
X004880Y009542D01*
X004959Y009501D01*
X005044Y009474D01*
X005128Y009461D01*
X005128Y009976D01*
X005224Y009976D01*
X005224Y010072D01*
X005739Y010072D01*
X005726Y010156D01*
X005698Y010240D01*
X005658Y010319D01*
X005606Y010391D01*
X005543Y010454D01*
X005471Y010506D01*
X005392Y010546D01*
X005308Y010574D01*
X005224Y010587D01*
X005224Y010072D01*
X005128Y010072D01*
X005128Y010587D01*
X005044Y010574D01*
X004959Y010546D01*
X004880Y010506D01*
X004808Y010454D01*
X004746Y010391D01*
X004693Y010319D01*
X004653Y010240D01*
X004626Y010156D01*
X004604Y010328D02*
X004700Y010328D01*
X004735Y010487D02*
X004853Y010487D01*
X004791Y010645D02*
X007065Y010645D01*
X007166Y010687D02*
X006922Y010586D01*
X006736Y010400D01*
X006635Y010156D01*
X006635Y009892D01*
X006736Y009648D01*
X006922Y009462D01*
X007166Y009361D01*
X007430Y009361D01*
X007673Y009462D01*
X007860Y009648D01*
X007961Y009892D01*
X007961Y010156D01*
X007860Y010400D01*
X007673Y010586D01*
X007430Y010687D01*
X007166Y010687D01*
X007530Y010645D02*
X009190Y010645D01*
X009190Y010487D02*
X007773Y010487D01*
X007889Y010328D02*
X009190Y010328D01*
X009190Y010170D02*
X007955Y010170D01*
X007961Y010011D02*
X009190Y010011D01*
X009190Y009853D02*
X007944Y009853D01*
X007879Y009694D02*
X009190Y009694D01*
X009190Y009535D02*
X007747Y009535D01*
X007468Y009377D02*
X009190Y009377D01*
X009190Y009218D02*
X004820Y009218D01*
X004818Y009203D02*
X004831Y009286D01*
X004831Y009290D01*
X004335Y009290D01*
X004335Y008794D01*
X004339Y008794D01*
X004422Y008807D01*
X004502Y008833D01*
X004577Y008871D01*
X004645Y008920D01*
X004704Y008980D01*
X004754Y009048D01*
X004792Y009123D01*
X004818Y009203D01*
X004760Y009060D02*
X009190Y009060D01*
X009190Y008901D02*
X004618Y008901D01*
X004335Y008901D02*
X004259Y008901D01*
X004259Y009060D02*
X004335Y009060D01*
X004335Y009218D02*
X004259Y009218D01*
X004259Y009377D02*
X004335Y009377D01*
X004335Y009535D02*
X004259Y009535D01*
X004259Y009694D02*
X004335Y009694D01*
X004335Y009853D02*
X004259Y009853D01*
X004193Y009853D02*
X004065Y009853D01*
X004095Y010011D02*
X005127Y010011D01*
X005224Y010011D02*
X006635Y010011D01*
X006640Y010170D02*
X005721Y010170D01*
X005651Y010328D02*
X006706Y010328D01*
X006823Y010487D02*
X005498Y010487D01*
X005224Y010487D02*
X005128Y010487D01*
X005128Y010328D02*
X005224Y010328D01*
X005224Y010170D02*
X005128Y010170D01*
X005224Y009976D02*
X005739Y009976D01*
X005726Y009892D01*
X005698Y009807D01*
X005658Y009728D01*
X005606Y009657D01*
X005543Y009594D01*
X005471Y009542D01*
X005392Y009501D01*
X005308Y009474D01*
X005224Y009461D01*
X005224Y009976D01*
X005224Y009853D02*
X005128Y009853D01*
X005128Y009694D02*
X005224Y009694D01*
X005224Y009535D02*
X005128Y009535D01*
X004892Y009535D02*
X004791Y009535D01*
X004830Y009377D02*
X007127Y009377D01*
X006848Y009535D02*
X005459Y009535D01*
X005633Y009694D02*
X006717Y009694D01*
X006651Y009853D02*
X005713Y009853D01*
X004791Y010804D02*
X009190Y010804D01*
X009190Y010962D02*
X004731Y010962D01*
X004595Y011121D02*
X009190Y011121D01*
X009190Y008743D02*
X003821Y008743D01*
X003821Y008901D02*
X003975Y008901D01*
X003834Y009060D02*
X003821Y009060D01*
X003821Y008584D02*
X009190Y008584D01*
X009190Y008426D02*
X003821Y008426D01*
X003821Y008267D02*
X009190Y008267D01*
X009190Y008109D02*
X003821Y008109D01*
X003821Y007950D02*
X009190Y007950D01*
X009190Y007791D02*
X003821Y007791D01*
X003821Y007633D02*
X009190Y007633D01*
X009190Y007474D02*
X003821Y007474D01*
X003821Y007316D02*
X009190Y007316D01*
X009190Y007157D02*
X003821Y007157D01*
X003821Y006999D02*
X009190Y006999D01*
X009190Y006840D02*
X003821Y006840D01*
X003381Y006523D02*
X003337Y006523D01*
X003339Y006048D02*
X003381Y006048D01*
X003368Y004938D02*
X003688Y004938D01*
X003783Y004779D02*
X003259Y004779D01*
X004371Y004304D02*
X007283Y004304D01*
X007713Y004304D02*
X009190Y004304D01*
X009190Y004462D02*
X008018Y004462D01*
X008177Y004621D02*
X009190Y004621D01*
X009190Y004779D02*
X008253Y004779D01*
X008318Y004938D02*
X009190Y004938D01*
X009190Y005096D02*
X008319Y005096D01*
X008319Y005255D02*
X009190Y005255D01*
X009190Y005413D02*
X008258Y005413D01*
X008190Y005572D02*
X009190Y005572D01*
X009190Y005730D02*
X008031Y005730D01*
X007744Y005889D02*
X009190Y005889D01*
X009190Y006048D02*
X004581Y006048D01*
X004581Y006206D02*
X009190Y006206D01*
X009190Y006365D02*
X004581Y006365D01*
X004581Y006523D02*
X009190Y006523D01*
X009190Y006682D02*
X004543Y006682D01*
X003381Y008901D02*
X003166Y008901D01*
X003329Y009060D02*
X003381Y009060D01*
X004400Y009853D02*
X004638Y009853D01*
X004686Y009694D02*
X004718Y009694D01*
X006079Y014292D02*
X002661Y014292D01*
X002661Y014450D02*
X005921Y014450D01*
X005762Y014609D02*
X002661Y014609D01*
X001894Y016353D02*
X001894Y016353D01*
X001894Y016511D02*
X001894Y016511D01*
X001894Y016670D02*
X001894Y016670D01*
X001894Y016828D02*
X001894Y016828D01*
X001894Y016987D02*
X001894Y016987D01*
X001894Y017146D02*
X001894Y017146D01*
X001894Y017304D02*
X001894Y017304D01*
X002201Y017621D02*
X009190Y017621D01*
X009190Y017463D02*
X002257Y017463D01*
X002289Y017304D02*
X009190Y017304D01*
X009190Y017146D02*
X002255Y017146D01*
X002247Y016987D02*
X009190Y016987D01*
X009190Y017780D02*
X002249Y017780D01*
X002224Y017938D02*
X009190Y017938D01*
X009083Y018097D02*
X002228Y018097D01*
X002286Y018255D02*
X008916Y018255D01*
X008748Y018414D02*
X002276Y018414D01*
X002188Y018572D02*
X008581Y018572D01*
X008414Y018731D02*
X002247Y018731D01*
X002244Y018890D02*
X008246Y018890D01*
X008079Y019048D02*
X002155Y019048D01*
X001039Y019048D02*
X000791Y019048D01*
X000791Y018890D02*
X001039Y018890D01*
X001039Y018731D02*
X000791Y018731D01*
X000791Y018572D02*
X001039Y018572D01*
X001054Y018414D02*
X000791Y018414D01*
X000791Y018255D02*
X001039Y018255D01*
X001103Y018097D02*
X000791Y018097D01*
X000791Y017938D02*
X001064Y017938D01*
X001039Y017780D02*
X000791Y017780D01*
X000791Y017621D02*
X001087Y017621D01*
X001074Y017463D02*
X000791Y017463D01*
X000791Y017304D02*
X001039Y017304D01*
X001077Y017146D02*
X000791Y017146D01*
X000791Y016987D02*
X001084Y016987D01*
X001039Y016828D02*
X000791Y016828D01*
X000791Y016670D02*
X001003Y016670D01*
X000874Y016511D02*
X000791Y016511D01*
X000791Y016353D02*
X000874Y016353D01*
X000874Y016194D02*
X000791Y016194D01*
X000791Y016036D02*
X000874Y016036D01*
X000874Y015877D02*
X000791Y015877D01*
X000791Y015719D02*
X000874Y015719D01*
X000791Y015402D02*
X001032Y015402D01*
X001191Y015243D02*
X000791Y015243D01*
X000791Y019207D02*
X007912Y019207D01*
X007744Y019365D02*
X000791Y019365D01*
X000791Y019524D02*
X007577Y019524D01*
X009190Y004145D02*
X004525Y004145D01*
X004581Y003986D02*
X009190Y003986D01*
X009190Y003828D02*
X004579Y003828D01*
X004512Y003669D02*
X009190Y003669D01*
M02*
