%
M48
M72
T01C0.0276
T02C0.0350
T03C0.0402
T04C0.0472
T05C0.0512
T06C0.0866
T07C0.1181
%
T01
X1394Y15807
X1394Y16307
X1394Y16807
X1394Y17307
X1394Y17807
X1394Y18307
X1394Y18807
X1894Y18807
X1894Y18307
X1894Y17807
X1894Y17307
X1894Y16807
X1894Y16307
X1894Y15807
T02
X6502Y15445
X6502Y14445
X6502Y13445
X7502Y13445
X7502Y14445
X7502Y15445
X7502Y16445
X6502Y16445
T03
X2959Y3922
X2959Y5103
X2959Y6284
X4140Y6284
X4140Y5103
X4140Y3922
T04
X4297Y9328
X3601Y10024
X2905Y10720
X2905Y9328
X4297Y10720
T05
X5176Y10024
T06
X7298Y10024
T07
X7498Y5103
M30
