G75*
G70*
%OFA0B0*%
%FSLAX24Y24*%
%IPPOS*%
%LPD*%
%AMOC8*
5,1,8,0,0,1.08239X$1,22.5*
%
%ADD10C,0.0000*%
%ADD11C,0.0709*%
%ADD12OC8,0.0600*%
%ADD13C,0.0443*%
%ADD14C,0.0472*%
%ADD15C,0.0591*%
%ADD16C,0.0600*%
%ADD17R,0.0650X0.0650*%
%ADD18C,0.0650*%
%ADD19C,0.0100*%
%ADD20C,0.0376*%
%ADD21R,0.0376X0.0376*%
D10*
X047008Y000668D02*
X047008Y019668D01*
X084008Y019668D01*
X084000Y000668D01*
X047008Y000668D01*
X047642Y002168D02*
X047644Y002226D01*
X047650Y002285D01*
X047660Y002342D01*
X047673Y002399D01*
X047691Y002455D01*
X047712Y002510D01*
X047737Y002562D01*
X047765Y002614D01*
X047797Y002663D01*
X047832Y002710D01*
X047870Y002754D01*
X047911Y002796D01*
X047955Y002835D01*
X048001Y002870D01*
X048050Y002903D01*
X048101Y002932D01*
X048153Y002958D01*
X048207Y002980D01*
X048263Y002999D01*
X048319Y003013D01*
X048377Y003024D01*
X048435Y003031D01*
X048493Y003034D01*
X048552Y003033D01*
X048610Y003028D01*
X048668Y003019D01*
X048725Y003006D01*
X048781Y002990D01*
X048836Y002969D01*
X048889Y002945D01*
X048941Y002918D01*
X048991Y002887D01*
X049038Y002853D01*
X049083Y002815D01*
X049126Y002775D01*
X049165Y002732D01*
X049202Y002686D01*
X049235Y002638D01*
X049265Y002588D01*
X049292Y002536D01*
X049315Y002482D01*
X049334Y002427D01*
X049350Y002371D01*
X049362Y002314D01*
X049370Y002256D01*
X049374Y002197D01*
X049374Y002139D01*
X049370Y002080D01*
X049362Y002022D01*
X049350Y001965D01*
X049334Y001909D01*
X049315Y001854D01*
X049292Y001800D01*
X049265Y001748D01*
X049235Y001698D01*
X049202Y001650D01*
X049165Y001604D01*
X049126Y001561D01*
X049083Y001521D01*
X049038Y001483D01*
X048991Y001449D01*
X048941Y001418D01*
X048889Y001391D01*
X048836Y001367D01*
X048781Y001346D01*
X048725Y001330D01*
X048668Y001317D01*
X048610Y001308D01*
X048552Y001303D01*
X048493Y001302D01*
X048435Y001305D01*
X048377Y001312D01*
X048319Y001323D01*
X048263Y001337D01*
X048207Y001356D01*
X048153Y001378D01*
X048101Y001404D01*
X048050Y001433D01*
X048001Y001466D01*
X047955Y001501D01*
X047911Y001540D01*
X047870Y001582D01*
X047832Y001626D01*
X047797Y001673D01*
X047765Y001722D01*
X047737Y001774D01*
X047712Y001826D01*
X047691Y001881D01*
X047673Y001937D01*
X047660Y001994D01*
X047650Y002051D01*
X047644Y002110D01*
X047642Y002168D01*
X081642Y002168D02*
X081644Y002226D01*
X081650Y002285D01*
X081660Y002342D01*
X081673Y002399D01*
X081691Y002455D01*
X081712Y002510D01*
X081737Y002562D01*
X081765Y002614D01*
X081797Y002663D01*
X081832Y002710D01*
X081870Y002754D01*
X081911Y002796D01*
X081955Y002835D01*
X082001Y002870D01*
X082050Y002903D01*
X082101Y002932D01*
X082153Y002958D01*
X082207Y002980D01*
X082263Y002999D01*
X082319Y003013D01*
X082377Y003024D01*
X082435Y003031D01*
X082493Y003034D01*
X082552Y003033D01*
X082610Y003028D01*
X082668Y003019D01*
X082725Y003006D01*
X082781Y002990D01*
X082836Y002969D01*
X082889Y002945D01*
X082941Y002918D01*
X082991Y002887D01*
X083038Y002853D01*
X083083Y002815D01*
X083126Y002775D01*
X083165Y002732D01*
X083202Y002686D01*
X083235Y002638D01*
X083265Y002588D01*
X083292Y002536D01*
X083315Y002482D01*
X083334Y002427D01*
X083350Y002371D01*
X083362Y002314D01*
X083370Y002256D01*
X083374Y002197D01*
X083374Y002139D01*
X083370Y002080D01*
X083362Y002022D01*
X083350Y001965D01*
X083334Y001909D01*
X083315Y001854D01*
X083292Y001800D01*
X083265Y001748D01*
X083235Y001698D01*
X083202Y001650D01*
X083165Y001604D01*
X083126Y001561D01*
X083083Y001521D01*
X083038Y001483D01*
X082991Y001449D01*
X082941Y001418D01*
X082889Y001391D01*
X082836Y001367D01*
X082781Y001346D01*
X082725Y001330D01*
X082668Y001317D01*
X082610Y001308D01*
X082552Y001303D01*
X082493Y001302D01*
X082435Y001305D01*
X082377Y001312D01*
X082319Y001323D01*
X082263Y001337D01*
X082207Y001356D01*
X082153Y001378D01*
X082101Y001404D01*
X082050Y001433D01*
X082001Y001466D01*
X081955Y001501D01*
X081911Y001540D01*
X081870Y001582D01*
X081832Y001626D01*
X081797Y001673D01*
X081765Y001722D01*
X081737Y001774D01*
X081712Y001826D01*
X081691Y001881D01*
X081673Y001937D01*
X081660Y001994D01*
X081650Y002051D01*
X081644Y002110D01*
X081642Y002168D01*
X081642Y018168D02*
X081644Y018226D01*
X081650Y018285D01*
X081660Y018342D01*
X081673Y018399D01*
X081691Y018455D01*
X081712Y018510D01*
X081737Y018562D01*
X081765Y018614D01*
X081797Y018663D01*
X081832Y018710D01*
X081870Y018754D01*
X081911Y018796D01*
X081955Y018835D01*
X082001Y018870D01*
X082050Y018903D01*
X082101Y018932D01*
X082153Y018958D01*
X082207Y018980D01*
X082263Y018999D01*
X082319Y019013D01*
X082377Y019024D01*
X082435Y019031D01*
X082493Y019034D01*
X082552Y019033D01*
X082610Y019028D01*
X082668Y019019D01*
X082725Y019006D01*
X082781Y018990D01*
X082836Y018969D01*
X082889Y018945D01*
X082941Y018918D01*
X082991Y018887D01*
X083038Y018853D01*
X083083Y018815D01*
X083126Y018775D01*
X083165Y018732D01*
X083202Y018686D01*
X083235Y018638D01*
X083265Y018588D01*
X083292Y018536D01*
X083315Y018482D01*
X083334Y018427D01*
X083350Y018371D01*
X083362Y018314D01*
X083370Y018256D01*
X083374Y018197D01*
X083374Y018139D01*
X083370Y018080D01*
X083362Y018022D01*
X083350Y017965D01*
X083334Y017909D01*
X083315Y017854D01*
X083292Y017800D01*
X083265Y017748D01*
X083235Y017698D01*
X083202Y017650D01*
X083165Y017604D01*
X083126Y017561D01*
X083083Y017521D01*
X083038Y017483D01*
X082991Y017449D01*
X082941Y017418D01*
X082889Y017391D01*
X082836Y017367D01*
X082781Y017346D01*
X082725Y017330D01*
X082668Y017317D01*
X082610Y017308D01*
X082552Y017303D01*
X082493Y017302D01*
X082435Y017305D01*
X082377Y017312D01*
X082319Y017323D01*
X082263Y017337D01*
X082207Y017356D01*
X082153Y017378D01*
X082101Y017404D01*
X082050Y017433D01*
X082001Y017466D01*
X081955Y017501D01*
X081911Y017540D01*
X081870Y017582D01*
X081832Y017626D01*
X081797Y017673D01*
X081765Y017722D01*
X081737Y017774D01*
X081712Y017826D01*
X081691Y017881D01*
X081673Y017937D01*
X081660Y017994D01*
X081650Y018051D01*
X081644Y018110D01*
X081642Y018168D01*
X047642Y018168D02*
X047644Y018226D01*
X047650Y018285D01*
X047660Y018342D01*
X047673Y018399D01*
X047691Y018455D01*
X047712Y018510D01*
X047737Y018562D01*
X047765Y018614D01*
X047797Y018663D01*
X047832Y018710D01*
X047870Y018754D01*
X047911Y018796D01*
X047955Y018835D01*
X048001Y018870D01*
X048050Y018903D01*
X048101Y018932D01*
X048153Y018958D01*
X048207Y018980D01*
X048263Y018999D01*
X048319Y019013D01*
X048377Y019024D01*
X048435Y019031D01*
X048493Y019034D01*
X048552Y019033D01*
X048610Y019028D01*
X048668Y019019D01*
X048725Y019006D01*
X048781Y018990D01*
X048836Y018969D01*
X048889Y018945D01*
X048941Y018918D01*
X048991Y018887D01*
X049038Y018853D01*
X049083Y018815D01*
X049126Y018775D01*
X049165Y018732D01*
X049202Y018686D01*
X049235Y018638D01*
X049265Y018588D01*
X049292Y018536D01*
X049315Y018482D01*
X049334Y018427D01*
X049350Y018371D01*
X049362Y018314D01*
X049370Y018256D01*
X049374Y018197D01*
X049374Y018139D01*
X049370Y018080D01*
X049362Y018022D01*
X049350Y017965D01*
X049334Y017909D01*
X049315Y017854D01*
X049292Y017800D01*
X049265Y017748D01*
X049235Y017698D01*
X049202Y017650D01*
X049165Y017604D01*
X049126Y017561D01*
X049083Y017521D01*
X049038Y017483D01*
X048991Y017449D01*
X048941Y017418D01*
X048889Y017391D01*
X048836Y017367D01*
X048781Y017346D01*
X048725Y017330D01*
X048668Y017317D01*
X048610Y017308D01*
X048552Y017303D01*
X048493Y017302D01*
X048435Y017305D01*
X048377Y017312D01*
X048319Y017323D01*
X048263Y017337D01*
X048207Y017356D01*
X048153Y017378D01*
X048101Y017404D01*
X048050Y017433D01*
X048001Y017466D01*
X047955Y017501D01*
X047911Y017540D01*
X047870Y017582D01*
X047832Y017626D01*
X047797Y017673D01*
X047765Y017722D01*
X047737Y017774D01*
X047712Y017826D01*
X047691Y017881D01*
X047673Y017937D01*
X047660Y017994D01*
X047650Y018051D01*
X047644Y018110D01*
X047642Y018168D01*
D11*
X051708Y017943D03*
X051708Y014794D03*
X051708Y013643D03*
X051708Y010494D03*
X051708Y009243D03*
X051708Y006094D03*
X051708Y005043D03*
X051708Y001894D03*
D12*
X053608Y005368D03*
X060608Y005368D03*
X060708Y008768D03*
X053708Y008768D03*
X053608Y011868D03*
X060608Y011868D03*
X060608Y015168D03*
X053608Y015168D03*
D13*
X068808Y014137D03*
X068808Y012168D03*
X068808Y009637D03*
X068808Y007668D03*
X068808Y005237D03*
X068808Y003268D03*
X068808Y016568D03*
X068808Y018537D03*
D14*
X079508Y015393D03*
X080492Y015393D03*
X080492Y014605D03*
X079508Y014605D03*
X079508Y013818D03*
X080492Y013818D03*
X080492Y013031D03*
X079508Y013031D03*
X079508Y012243D03*
X080492Y012243D03*
X080492Y011456D03*
X079508Y011456D03*
X079508Y010668D03*
X080492Y010668D03*
X080492Y009881D03*
X079508Y009881D03*
X079508Y009094D03*
X080492Y009094D03*
X080492Y008306D03*
X079508Y008306D03*
X079508Y007519D03*
X080492Y007519D03*
X080492Y006731D03*
X079508Y006731D03*
X079508Y005944D03*
X080492Y005944D03*
D15*
X061908Y004868D03*
X061908Y008568D03*
X063908Y012168D03*
X063908Y015968D03*
D16*
X061908Y015968D03*
X062908Y016968D03*
X062908Y013168D03*
X061908Y012168D03*
X063908Y008568D03*
X062908Y007568D03*
X063908Y004868D03*
X062908Y003868D03*
D17*
X048708Y011153D03*
D18*
X048708Y009184D03*
D19*
X048708Y007068D01*
X056208Y007068D01*
X058508Y004768D01*
X058508Y002968D01*
X068808Y005237D02*
X071139Y007568D01*
X074108Y007568D01*
X075508Y006168D01*
X077508Y006168D01*
X078008Y005568D02*
X071508Y005568D01*
X071508Y006768D01*
X075008Y007368D02*
X075008Y007668D01*
X077608Y007668D01*
X077757Y007519D01*
X079508Y007519D01*
X079708Y007168D02*
X080058Y007519D01*
X080492Y007519D01*
X079708Y007168D02*
X077708Y007168D01*
X077508Y007368D01*
X075908Y007368D01*
X074108Y007868D02*
X074108Y008368D01*
X075908Y008368D02*
X077208Y008368D01*
X078308Y009468D01*
X079608Y009468D01*
X080020Y009881D01*
X080492Y009881D01*
X080008Y010668D02*
X079608Y010268D01*
X078708Y010268D01*
X078008Y009568D01*
X077508Y009568D01*
X079608Y008668D02*
X080033Y009094D01*
X080492Y009094D01*
X079608Y008668D02*
X078908Y008668D01*
X078108Y007868D01*
X074108Y007868D01*
X078008Y005568D02*
X078971Y006731D01*
X079508Y006731D01*
X080008Y010668D02*
X080492Y010668D01*
X077508Y011668D02*
X073708Y011668D01*
X071239Y014137D01*
X068808Y014137D01*
X068208Y013868D02*
X069408Y012668D01*
X072208Y012668D01*
X072508Y012368D01*
X075908Y012968D02*
X077208Y012968D01*
X077508Y012668D01*
X079708Y012668D01*
X080133Y012243D01*
X080492Y012243D01*
X078008Y014368D02*
X077608Y014368D01*
X076508Y015468D01*
X071908Y015468D01*
X068839Y018537D01*
X068808Y018537D01*
X068776Y018537D01*
X064508Y014268D01*
X064508Y013768D01*
X062008Y011268D01*
X060608Y011268D01*
X060608Y011868D01*
X058108Y015168D02*
X053408Y010468D01*
X051733Y010468D01*
X051708Y010494D01*
X050792Y011153D02*
X055208Y015568D01*
X055208Y017068D01*
X062908Y016968D02*
X062908Y015068D01*
X061608Y014168D02*
X060608Y015168D01*
X058108Y015168D01*
X061608Y014168D02*
X062908Y014168D01*
X065108Y014168D02*
X065808Y014568D01*
X065908Y013868D02*
X068208Y013868D01*
X078008Y014368D02*
X078008Y014968D01*
X079708Y014968D01*
X080132Y015393D01*
X080492Y015393D01*
X050792Y011153D02*
X048708Y011153D01*
D20*
X062908Y014168D03*
X065108Y014168D03*
X065908Y013868D03*
X065808Y014568D03*
X072508Y012368D03*
X075908Y012968D03*
X077508Y011668D03*
X077508Y009568D03*
X075908Y008368D03*
X075908Y008368D03*
X074108Y008368D03*
X074108Y008368D03*
X075008Y007368D03*
X075008Y007368D03*
X075908Y007368D03*
X071508Y006768D03*
X077508Y006168D03*
X058508Y002968D03*
X077608Y014368D03*
X055208Y017068D03*
D21*
X062908Y015068D03*
M02*
