%
M48
M72
T01C0.0236
T02C0.0295
T03C0.0315
T04C0.0394
T05C0.0400
T06C0.0433
T07C0.0472
T08C0.1732
%
T01
X58508Y2968
X71508Y6768
X75008Y7368
X75008Y7368
X75908Y7368
X75908Y8368
X75908Y8368
X74108Y8368
X74108Y8368
X77508Y9568
X77508Y11668
X75908Y12968
X72508Y12368
X65908Y13868
X65108Y14168
X65808Y14568
X62908Y14168
X62908Y15068
X55208Y17068
X77608Y14368
X77508Y6168
T02
X68808Y5237
X68808Y3268
X68808Y7668
X68808Y9637
X68808Y12168
X68808Y14137
X68808Y16568
X68808Y18537
T03
X79508Y15393
X80492Y15393
X80492Y14605
X79508Y14605
X79508Y13818
X80492Y13818
X80492Y13031
X79508Y13031
X79508Y12243
X80492Y12243
X80492Y11456
X79508Y11456
X79508Y10668
X80492Y10668
X80492Y9881
X79508Y9881
X79508Y9094
X80492Y9094
X80492Y8306
X79508Y8306
X79508Y7519
X80492Y7519
X80492Y6731
X79508Y6731
X79508Y5944
X80492Y5944
T04
X61908Y4868
X61908Y8568
X63908Y12168
X63908Y15968
T05
X61908Y15968
X60608Y15168
X53608Y15168
X62908Y16968
X62908Y13168
X61908Y12168
X60608Y11868
X53608Y11868
X53708Y8768
X60708Y8768
X63908Y8568
X62908Y7568
X60608Y5368
X63908Y4868
X62908Y3868
X53608Y5368
T06
X48708Y9184
X48708Y11153
T07
X51708Y10494
X51708Y9243
X51708Y6094
X51708Y5043
X51708Y1894
X51708Y13643
X51708Y14794
X51708Y17943
T08
X48508Y2168
X82508Y2168
X82508Y18168
X48508Y18168
M30
