G75*
G70*
%OFA0B0*%
%FSLAX24Y24*%
%IPPOS*%
%LPD*%
%AMOC8*
5,1,8,0,0,1.08239X$1,22.5*
%
%ADD10C,0.0060*%
%ADD11C,0.0080*%
%ADD12C,0.0100*%
%ADD13C,0.0120*%
%ADD14C,0.0050*%
%ADD15R,0.1050X0.0050*%
%ADD16R,0.1150X0.0050*%
%ADD17R,0.1250X0.0050*%
%ADD18R,0.1350X0.0050*%
%ADD19R,0.1450X0.0050*%
%ADD20R,0.1550X0.0050*%
%ADD21R,0.1650X0.0050*%
%ADD22R,0.1750X0.0050*%
%ADD23R,0.1850X0.0050*%
%ADD24R,0.0650X0.0050*%
%ADD25R,0.0600X0.0050*%
%ADD26R,0.0550X0.0050*%
%ADD27R,0.0200X0.0050*%
%ADD28R,0.0050X0.0050*%
%ADD29R,0.0100X0.0050*%
%ADD30R,0.0300X0.0050*%
%ADD31R,0.1100X0.0050*%
D10*
X047237Y003498D02*
X047237Y003712D01*
X047237Y003605D02*
X047878Y003605D01*
X047878Y003498D02*
X047878Y003712D01*
X047878Y003928D02*
X047237Y003928D01*
X047878Y004355D01*
X047237Y004355D01*
X047237Y004573D02*
X047237Y004893D01*
X047344Y005000D01*
X047557Y005000D01*
X047664Y004893D01*
X047664Y004573D01*
X047878Y004573D02*
X047237Y004573D01*
X048337Y004463D02*
X048337Y004250D01*
X048444Y004143D01*
X048444Y003925D02*
X048871Y003498D01*
X048978Y003498D01*
X048337Y003498D02*
X048337Y003925D01*
X048444Y003925D01*
X048978Y004143D02*
X048551Y004570D01*
X048444Y004570D01*
X048337Y004463D01*
X048978Y004570D02*
X048978Y004143D01*
X047878Y005324D02*
X047878Y005537D01*
X047771Y005644D01*
X047237Y005644D01*
X047237Y005862D02*
X047237Y006289D01*
X047237Y006075D02*
X047878Y006075D01*
X048337Y006076D02*
X048337Y006397D01*
X048444Y006503D01*
X048871Y006503D01*
X048978Y006397D01*
X048978Y006076D01*
X048337Y006076D01*
X048337Y005859D02*
X048764Y005859D01*
X048978Y005645D01*
X048764Y005432D01*
X048337Y005432D01*
X047878Y005324D02*
X047771Y005217D01*
X047237Y005217D01*
X048444Y006721D02*
X048871Y006721D01*
X048978Y006828D01*
X048978Y007041D01*
X048871Y007148D01*
X048444Y007148D02*
X048337Y007041D01*
X048337Y006828D01*
X048444Y006721D01*
X053858Y006418D02*
X053858Y005768D01*
X053858Y006418D02*
X053860Y006441D01*
X053865Y006464D01*
X053874Y006486D01*
X053887Y006506D01*
X053902Y006524D01*
X053920Y006539D01*
X053940Y006552D01*
X053962Y006561D01*
X053985Y006566D01*
X054008Y006568D01*
X054358Y006568D01*
X054458Y006468D01*
X059758Y006468D01*
X059858Y006568D01*
X060208Y006568D01*
X060231Y006566D01*
X060254Y006561D01*
X060276Y006552D01*
X060296Y006539D01*
X060314Y006524D01*
X060329Y006506D01*
X060342Y006486D01*
X060351Y006464D01*
X060356Y006441D01*
X060358Y006418D01*
X060358Y005768D01*
X060358Y004968D02*
X060358Y004318D01*
X060356Y004295D01*
X060351Y004272D01*
X060342Y004250D01*
X060329Y004230D01*
X060314Y004212D01*
X060296Y004197D01*
X060276Y004184D01*
X060254Y004175D01*
X060231Y004170D01*
X060208Y004168D01*
X059858Y004168D01*
X059758Y004268D01*
X054458Y004268D01*
X054358Y004168D01*
X054008Y004168D01*
X053985Y004170D01*
X053962Y004175D01*
X053940Y004184D01*
X053920Y004197D01*
X053902Y004212D01*
X053887Y004230D01*
X053874Y004250D01*
X053865Y004272D01*
X053860Y004295D01*
X053858Y004318D01*
X053858Y004968D01*
X054108Y007568D02*
X054458Y007568D01*
X054558Y007668D01*
X059858Y007668D01*
X059958Y007568D01*
X060308Y007568D01*
X060331Y007570D01*
X060354Y007575D01*
X060376Y007584D01*
X060396Y007597D01*
X060414Y007612D01*
X060429Y007630D01*
X060442Y007650D01*
X060451Y007672D01*
X060456Y007695D01*
X060458Y007718D01*
X060458Y008368D01*
X060458Y009168D02*
X060458Y009818D01*
X060456Y009841D01*
X060451Y009864D01*
X060442Y009886D01*
X060429Y009906D01*
X060414Y009924D01*
X060396Y009939D01*
X060376Y009952D01*
X060354Y009961D01*
X060331Y009966D01*
X060308Y009968D01*
X059958Y009968D01*
X059858Y009868D01*
X054558Y009868D01*
X054458Y009968D01*
X054108Y009968D01*
X054085Y009966D01*
X054062Y009961D01*
X054040Y009952D01*
X054020Y009939D01*
X054002Y009924D01*
X053987Y009906D01*
X053974Y009886D01*
X053965Y009864D01*
X053960Y009841D01*
X053958Y009818D01*
X053958Y009168D01*
X053958Y008368D02*
X053958Y007718D01*
X053960Y007695D01*
X053965Y007672D01*
X053974Y007650D01*
X053987Y007630D01*
X054002Y007612D01*
X054020Y007597D01*
X054040Y007584D01*
X054062Y007575D01*
X054085Y007570D01*
X054108Y007568D01*
X064537Y007727D02*
X064644Y007620D01*
X065071Y007620D01*
X065178Y007727D01*
X065178Y007940D01*
X065071Y008047D01*
X065178Y008265D02*
X065178Y008692D01*
X065178Y008478D02*
X064537Y008478D01*
X064751Y008265D01*
X064644Y008047D02*
X064537Y007940D01*
X064537Y007727D01*
X064537Y007403D02*
X064964Y007403D01*
X065178Y007189D01*
X064964Y006976D01*
X064537Y006976D01*
X064857Y005981D02*
X064857Y005554D01*
X064644Y005767D02*
X065071Y005767D01*
X064857Y005336D02*
X064857Y004909D01*
X064537Y005229D01*
X065178Y005229D01*
X065178Y004692D02*
X065178Y004265D01*
X064751Y004692D01*
X064644Y004692D01*
X064537Y004585D01*
X064537Y004371D01*
X064644Y004265D01*
X064644Y004047D02*
X064537Y003940D01*
X064537Y003727D01*
X064644Y003620D01*
X065071Y003620D01*
X065178Y003727D01*
X065178Y003940D01*
X065071Y004047D01*
X064964Y003403D02*
X064537Y003403D01*
X064964Y003403D02*
X065178Y003189D01*
X064964Y002976D01*
X064537Y002976D01*
X069936Y001639D02*
X070256Y001639D01*
X070363Y001532D01*
X070363Y001105D01*
X070256Y000998D01*
X069936Y000998D01*
X069936Y001639D01*
X070580Y001425D02*
X070794Y001639D01*
X071007Y001425D01*
X071007Y000998D01*
X071225Y000998D02*
X071225Y001639D01*
X071652Y000998D01*
X071652Y001639D01*
X071869Y001532D02*
X071869Y001105D01*
X071976Y000998D01*
X072189Y000998D01*
X072296Y001105D01*
X072296Y001319D01*
X072083Y001319D01*
X072296Y001532D02*
X072189Y001639D01*
X071976Y001639D01*
X071869Y001532D01*
X072514Y001639D02*
X072514Y000998D01*
X072941Y000998D01*
X073158Y000998D02*
X073158Y001639D01*
X073479Y001639D01*
X073585Y001532D01*
X073585Y001319D01*
X073479Y001212D01*
X073158Y001212D01*
X073372Y001212D02*
X073585Y000998D01*
X074447Y000998D02*
X074447Y001105D01*
X074874Y001532D01*
X074874Y001639D01*
X074447Y001639D01*
X075092Y001532D02*
X075199Y001639D01*
X075412Y001639D01*
X075519Y001532D01*
X075519Y001425D01*
X075092Y000998D01*
X075519Y000998D01*
X076381Y001212D02*
X076594Y000998D01*
X076808Y001212D01*
X076808Y001639D01*
X077025Y001532D02*
X077025Y001105D01*
X077132Y000998D01*
X077346Y000998D01*
X077452Y001105D01*
X077452Y001532D01*
X077346Y001639D01*
X077132Y001639D01*
X077025Y001532D01*
X076381Y001639D02*
X076381Y001212D01*
X077670Y000998D02*
X078097Y000998D01*
X077670Y000998D02*
X077670Y001639D01*
X078315Y001639D02*
X078742Y001639D01*
X078528Y001639D02*
X078528Y000998D01*
X078959Y001105D02*
X079066Y000998D01*
X079279Y000998D01*
X079386Y001105D01*
X079386Y001212D01*
X079279Y001319D01*
X079066Y001319D01*
X078959Y001425D01*
X078959Y001532D01*
X079066Y001639D01*
X079279Y001639D01*
X079386Y001532D01*
X080248Y001639D02*
X080568Y001639D01*
X080675Y001532D01*
X080675Y001105D01*
X080568Y000998D01*
X080248Y000998D01*
X080248Y001639D01*
X080893Y001532D02*
X080999Y001639D01*
X081213Y001639D01*
X081320Y001532D01*
X080893Y001532D02*
X080893Y001105D01*
X080999Y000998D01*
X081213Y000998D01*
X081320Y001105D01*
X072941Y001639D02*
X072514Y001639D01*
X072514Y001319D02*
X072727Y001319D01*
X071007Y001319D02*
X070580Y001319D01*
X070580Y001425D02*
X070580Y000998D01*
X080599Y003998D02*
X080599Y004639D01*
X080812Y004639D02*
X080385Y004639D01*
X081030Y004532D02*
X081030Y004105D01*
X081136Y003998D01*
X081350Y003998D01*
X081457Y004105D01*
X081457Y004532D01*
X081350Y004639D01*
X081136Y004639D01*
X081030Y004532D01*
X082319Y004639D02*
X082319Y003998D01*
X082639Y003998D01*
X082746Y004105D01*
X082746Y004212D01*
X082639Y004319D01*
X082319Y004319D01*
X082639Y004319D02*
X082746Y004425D01*
X082746Y004532D01*
X082639Y004639D01*
X082319Y004639D01*
X082963Y004639D02*
X083177Y004639D01*
X083070Y004639D02*
X083070Y003998D01*
X082963Y003998D02*
X083177Y003998D01*
X083393Y003998D02*
X083393Y004639D01*
X083606Y004425D01*
X083820Y004639D01*
X083820Y003998D01*
X065178Y009016D02*
X065071Y008909D01*
X064964Y008909D01*
X064857Y009016D01*
X064857Y009229D01*
X064964Y009336D01*
X065071Y009336D01*
X065178Y009229D01*
X065178Y009016D01*
X064857Y009016D02*
X064751Y008909D01*
X064644Y008909D01*
X064537Y009016D01*
X064537Y009229D01*
X064644Y009336D01*
X064751Y009336D01*
X064857Y009229D01*
X064857Y009554D02*
X064857Y009981D01*
X064644Y009767D02*
X065071Y009767D01*
X060358Y010818D02*
X060358Y011468D01*
X060358Y010818D02*
X060356Y010795D01*
X060351Y010772D01*
X060342Y010750D01*
X060329Y010730D01*
X060314Y010712D01*
X060296Y010697D01*
X060276Y010684D01*
X060254Y010675D01*
X060231Y010670D01*
X060208Y010668D01*
X059858Y010668D01*
X059758Y010768D01*
X054458Y010768D01*
X054358Y010668D01*
X054008Y010668D01*
X053985Y010670D01*
X053962Y010675D01*
X053940Y010684D01*
X053920Y010697D01*
X053902Y010712D01*
X053887Y010730D01*
X053874Y010750D01*
X053865Y010772D01*
X053860Y010795D01*
X053858Y010818D01*
X053858Y011468D01*
X053858Y012268D02*
X053858Y012918D01*
X053860Y012941D01*
X053865Y012964D01*
X053874Y012986D01*
X053887Y013006D01*
X053902Y013024D01*
X053920Y013039D01*
X053940Y013052D01*
X053962Y013061D01*
X053985Y013066D01*
X054008Y013068D01*
X054358Y013068D01*
X054458Y012968D01*
X059758Y012968D01*
X059858Y013068D01*
X060208Y013068D01*
X060231Y013066D01*
X060254Y013061D01*
X060276Y013052D01*
X060296Y013039D01*
X060314Y013024D01*
X060329Y013006D01*
X060342Y012986D01*
X060351Y012964D01*
X060356Y012941D01*
X060358Y012918D01*
X060358Y012268D01*
X064537Y012085D02*
X064537Y011871D01*
X064644Y011765D01*
X065071Y011765D01*
X065178Y011871D01*
X065178Y012085D01*
X065071Y012192D01*
X065071Y012409D02*
X064857Y012409D01*
X064857Y012729D01*
X064964Y012836D01*
X065071Y012836D01*
X065178Y012729D01*
X065178Y012516D01*
X065071Y012409D01*
X064857Y012409D02*
X064644Y012623D01*
X064537Y012836D01*
X064857Y013054D02*
X064857Y013481D01*
X064644Y013267D02*
X065071Y013267D01*
X064644Y012192D02*
X064537Y012085D01*
X064537Y011547D02*
X064964Y011547D01*
X065178Y011334D01*
X064964Y011120D01*
X064537Y011120D01*
X060208Y013968D02*
X059858Y013968D01*
X059758Y014068D01*
X054458Y014068D01*
X054358Y013968D01*
X054008Y013968D01*
X053985Y013970D01*
X053962Y013975D01*
X053940Y013984D01*
X053920Y013997D01*
X053902Y014012D01*
X053887Y014030D01*
X053874Y014050D01*
X053865Y014072D01*
X053860Y014095D01*
X053858Y014118D01*
X053858Y014768D01*
X053858Y015568D02*
X053858Y016218D01*
X053860Y016241D01*
X053865Y016264D01*
X053874Y016286D01*
X053887Y016306D01*
X053902Y016324D01*
X053920Y016339D01*
X053940Y016352D01*
X053962Y016361D01*
X053985Y016366D01*
X054008Y016368D01*
X054358Y016368D01*
X054458Y016268D01*
X059758Y016268D01*
X059858Y016368D01*
X060208Y016368D01*
X060231Y016366D01*
X060254Y016361D01*
X060276Y016352D01*
X060296Y016339D01*
X060314Y016324D01*
X060329Y016306D01*
X060342Y016286D01*
X060351Y016264D01*
X060356Y016241D01*
X060358Y016218D01*
X060358Y015568D01*
X060358Y014768D02*
X060358Y014118D01*
X060356Y014095D01*
X060351Y014072D01*
X060342Y014050D01*
X060329Y014030D01*
X060314Y014012D01*
X060296Y013997D01*
X060276Y013984D01*
X060254Y013975D01*
X060231Y013970D01*
X060208Y013968D01*
X064537Y014476D02*
X064964Y014476D01*
X065178Y014689D01*
X064964Y014903D01*
X064537Y014903D01*
X064644Y015120D02*
X065071Y015120D01*
X065178Y015227D01*
X065178Y015440D01*
X065071Y015547D01*
X065178Y015765D02*
X065178Y016192D01*
X065178Y015978D02*
X064537Y015978D01*
X064751Y015765D01*
X064644Y015547D02*
X064537Y015440D01*
X064537Y015227D01*
X064644Y015120D01*
X064644Y016409D02*
X064537Y016516D01*
X064537Y016729D01*
X064644Y016836D01*
X064751Y016836D01*
X065178Y016409D01*
X065178Y016836D01*
X064857Y017054D02*
X064857Y017481D01*
X064644Y017267D02*
X065071Y017267D01*
X057820Y017998D02*
X057393Y017998D01*
X057606Y017998D02*
X057606Y018639D01*
X057393Y018425D01*
X057175Y018639D02*
X056748Y018639D01*
X056748Y017998D01*
X056748Y018319D02*
X056962Y018319D01*
X056748Y002139D02*
X057175Y002139D01*
X057393Y002032D02*
X057500Y002139D01*
X057713Y002139D01*
X057820Y002032D01*
X057820Y001925D01*
X057393Y001498D01*
X057820Y001498D01*
X056748Y001498D02*
X056748Y002139D01*
X056748Y001819D02*
X056962Y001819D01*
D11*
X062127Y002669D02*
X062741Y002669D01*
X063127Y002669D02*
X063741Y002669D01*
X062434Y002976D02*
X062434Y002362D01*
X049007Y007208D02*
X049007Y007822D01*
X048700Y007515D02*
X049314Y007515D01*
X049007Y012708D02*
X049007Y013322D01*
D12*
X056208Y016568D02*
X056208Y017768D01*
X058108Y017768D01*
X058108Y016568D01*
X056208Y016568D01*
X056208Y003468D02*
X056208Y002468D01*
X058008Y002468D01*
X058008Y003468D01*
X056208Y003468D01*
D13*
X052180Y002878D02*
X051235Y002878D01*
X051235Y007078D02*
X052180Y007078D01*
X069557Y008709D02*
X069557Y009630D01*
X069557Y013209D02*
X069557Y014130D01*
X069557Y017609D02*
X069557Y018530D01*
X052180Y015778D02*
X051235Y015778D01*
X051235Y011478D02*
X052180Y011478D01*
X069557Y005230D02*
X069557Y004309D01*
D14*
X064208Y003368D02*
X061608Y003368D01*
X061608Y006258D01*
X064208Y006258D01*
X064208Y003368D01*
X064208Y007068D02*
X061608Y007068D01*
X061608Y009958D01*
X064208Y009958D01*
X064208Y007068D01*
X064208Y010778D02*
X061608Y010778D01*
X061608Y013668D01*
X064208Y013668D01*
X064208Y010778D01*
X064208Y014578D02*
X061608Y014578D01*
X061608Y017468D01*
X064208Y017468D01*
X064208Y014578D01*
D15*
X080408Y016668D03*
D16*
X080408Y016718D03*
X080408Y019068D03*
D17*
X080408Y019018D03*
X080408Y016768D03*
D18*
X080408Y016818D03*
X080408Y018968D03*
D19*
X080408Y018918D03*
X080408Y016868D03*
D20*
X080408Y016918D03*
X080408Y018868D03*
D21*
X080408Y018818D03*
X080408Y016968D03*
D22*
X080408Y017018D03*
X080408Y018768D03*
D23*
X080408Y018718D03*
X080408Y018668D03*
X080408Y018618D03*
X080408Y018568D03*
X080408Y017218D03*
X080408Y017168D03*
X080408Y017118D03*
X080408Y017068D03*
D24*
X081008Y017268D03*
X079808Y017268D03*
X079808Y018518D03*
X081008Y018518D03*
D25*
X081033Y018468D03*
X079783Y018468D03*
X079783Y017318D03*
X081033Y017318D03*
D26*
X081058Y017368D03*
X081058Y017418D03*
X081058Y017468D03*
X079758Y017468D03*
X079758Y017418D03*
X079758Y017368D03*
X079758Y017518D03*
X079758Y017568D03*
X079758Y017618D03*
X079758Y017668D03*
X079758Y017718D03*
X079758Y017768D03*
X079758Y017818D03*
X079758Y017868D03*
X079758Y017918D03*
X079758Y017968D03*
X079758Y018018D03*
X079758Y018068D03*
X079758Y018118D03*
X079758Y018168D03*
X079758Y018218D03*
X079758Y018268D03*
X079758Y018318D03*
X079758Y018368D03*
X079758Y018418D03*
X081058Y018418D03*
X081058Y018368D03*
X081058Y018318D03*
X081058Y018268D03*
D27*
X081233Y017518D03*
X080883Y017518D03*
D28*
X080808Y017568D03*
X081058Y018168D03*
D29*
X081283Y017568D03*
D30*
X081033Y018218D03*
D31*
X080383Y019118D03*
M02*
