G75*
G70*
%OFA0B0*%
%FSLAX24Y24*%
%IPPOS*%
%LPD*%
%AMOC8*
5,1,8,0,0,1.08239X$1,22.5*
%
%ADD10C,0.0000*%
D10*
X003488Y003336D02*
X043842Y003336D01*
X043881Y003338D01*
X043919Y003344D01*
X043956Y003353D01*
X043993Y003366D01*
X044028Y003383D01*
X044061Y003402D01*
X044092Y003425D01*
X044121Y003451D01*
X044147Y003480D01*
X044170Y003511D01*
X044189Y003544D01*
X044206Y003579D01*
X044219Y003616D01*
X044228Y003653D01*
X044234Y003691D01*
X044236Y003730D01*
X044236Y007701D01*
X044121Y007979D02*
X043564Y008536D01*
X043449Y008814D02*
X043449Y017625D01*
X043506Y017764D02*
X044121Y018378D01*
X044236Y018657D02*
X044236Y022627D01*
X044234Y022666D01*
X044228Y022704D01*
X044219Y022741D01*
X044206Y022778D01*
X044189Y022813D01*
X044170Y022846D01*
X044147Y022877D01*
X044121Y022906D01*
X044092Y022932D01*
X044061Y022955D01*
X044028Y022974D01*
X043993Y022991D01*
X043956Y023004D01*
X043919Y023013D01*
X043881Y023019D01*
X043842Y023021D01*
X003488Y023021D01*
X003449Y023019D01*
X003411Y023013D01*
X003374Y023004D01*
X003337Y022991D01*
X003302Y022974D01*
X003269Y022955D01*
X003238Y022932D01*
X003209Y022906D01*
X003183Y022877D01*
X003160Y022846D01*
X003141Y022813D01*
X003124Y022778D01*
X003111Y022741D01*
X003102Y022704D01*
X003096Y022666D01*
X003094Y022627D01*
X003094Y003730D01*
X003096Y003691D01*
X003102Y003653D01*
X003111Y003616D01*
X003124Y003579D01*
X003141Y003544D01*
X003160Y003511D01*
X003183Y003480D01*
X003209Y003451D01*
X003238Y003425D01*
X003269Y003402D01*
X003302Y003383D01*
X003337Y003366D01*
X003374Y003353D01*
X003411Y003344D01*
X003449Y003338D01*
X003488Y003336D01*
X010732Y005305D02*
X010734Y005346D01*
X010740Y005387D01*
X010750Y005427D01*
X010763Y005466D01*
X010780Y005503D01*
X010801Y005539D01*
X010825Y005573D01*
X010852Y005604D01*
X010881Y005632D01*
X010914Y005658D01*
X010948Y005680D01*
X010985Y005699D01*
X011023Y005714D01*
X011063Y005726D01*
X011103Y005734D01*
X011144Y005738D01*
X011186Y005738D01*
X011227Y005734D01*
X011267Y005726D01*
X011307Y005714D01*
X011345Y005699D01*
X011381Y005680D01*
X011416Y005658D01*
X011449Y005632D01*
X011478Y005604D01*
X011505Y005573D01*
X011529Y005539D01*
X011550Y005503D01*
X011567Y005466D01*
X011580Y005427D01*
X011590Y005387D01*
X011596Y005346D01*
X011598Y005305D01*
X011596Y005264D01*
X011590Y005223D01*
X011580Y005183D01*
X011567Y005144D01*
X011550Y005107D01*
X011529Y005071D01*
X011505Y005037D01*
X011478Y005006D01*
X011449Y004978D01*
X011416Y004952D01*
X011382Y004930D01*
X011345Y004911D01*
X011307Y004896D01*
X011267Y004884D01*
X011227Y004876D01*
X011186Y004872D01*
X011144Y004872D01*
X011103Y004876D01*
X011063Y004884D01*
X011023Y004896D01*
X010985Y004911D01*
X010949Y004930D01*
X010914Y004952D01*
X010881Y004978D01*
X010852Y005006D01*
X010825Y005037D01*
X010801Y005071D01*
X010780Y005107D01*
X010763Y005144D01*
X010750Y005183D01*
X010740Y005223D01*
X010734Y005264D01*
X010732Y005305D01*
X022543Y005305D02*
X022545Y005346D01*
X022551Y005387D01*
X022561Y005427D01*
X022574Y005466D01*
X022591Y005503D01*
X022612Y005539D01*
X022636Y005573D01*
X022663Y005604D01*
X022692Y005632D01*
X022725Y005658D01*
X022759Y005680D01*
X022796Y005699D01*
X022834Y005714D01*
X022874Y005726D01*
X022914Y005734D01*
X022955Y005738D01*
X022997Y005738D01*
X023038Y005734D01*
X023078Y005726D01*
X023118Y005714D01*
X023156Y005699D01*
X023192Y005680D01*
X023227Y005658D01*
X023260Y005632D01*
X023289Y005604D01*
X023316Y005573D01*
X023340Y005539D01*
X023361Y005503D01*
X023378Y005466D01*
X023391Y005427D01*
X023401Y005387D01*
X023407Y005346D01*
X023409Y005305D01*
X023407Y005264D01*
X023401Y005223D01*
X023391Y005183D01*
X023378Y005144D01*
X023361Y005107D01*
X023340Y005071D01*
X023316Y005037D01*
X023289Y005006D01*
X023260Y004978D01*
X023227Y004952D01*
X023193Y004930D01*
X023156Y004911D01*
X023118Y004896D01*
X023078Y004884D01*
X023038Y004876D01*
X022997Y004872D01*
X022955Y004872D01*
X022914Y004876D01*
X022874Y004884D01*
X022834Y004896D01*
X022796Y004911D01*
X022760Y004930D01*
X022725Y004952D01*
X022692Y004978D01*
X022663Y005006D01*
X022636Y005037D01*
X022612Y005071D01*
X022591Y005107D01*
X022574Y005144D01*
X022561Y005183D01*
X022551Y005223D01*
X022545Y005264D01*
X022543Y005305D01*
X031204Y013179D02*
X031206Y013220D01*
X031212Y013261D01*
X031222Y013301D01*
X031235Y013340D01*
X031252Y013377D01*
X031273Y013413D01*
X031297Y013447D01*
X031324Y013478D01*
X031353Y013506D01*
X031386Y013532D01*
X031420Y013554D01*
X031457Y013573D01*
X031495Y013588D01*
X031535Y013600D01*
X031575Y013608D01*
X031616Y013612D01*
X031658Y013612D01*
X031699Y013608D01*
X031739Y013600D01*
X031779Y013588D01*
X031817Y013573D01*
X031853Y013554D01*
X031888Y013532D01*
X031921Y013506D01*
X031950Y013478D01*
X031977Y013447D01*
X032001Y013413D01*
X032022Y013377D01*
X032039Y013340D01*
X032052Y013301D01*
X032062Y013261D01*
X032068Y013220D01*
X032070Y013179D01*
X032068Y013138D01*
X032062Y013097D01*
X032052Y013057D01*
X032039Y013018D01*
X032022Y012981D01*
X032001Y012945D01*
X031977Y012911D01*
X031950Y012880D01*
X031921Y012852D01*
X031888Y012826D01*
X031854Y012804D01*
X031817Y012785D01*
X031779Y012770D01*
X031739Y012758D01*
X031699Y012750D01*
X031658Y012746D01*
X031616Y012746D01*
X031575Y012750D01*
X031535Y012758D01*
X031495Y012770D01*
X031457Y012785D01*
X031421Y012804D01*
X031386Y012826D01*
X031353Y012852D01*
X031324Y012880D01*
X031297Y012911D01*
X031273Y012945D01*
X031252Y012981D01*
X031235Y013018D01*
X031222Y013057D01*
X031212Y013097D01*
X031206Y013138D01*
X031204Y013179D01*
X040623Y016131D02*
X040625Y016174D01*
X040631Y016216D01*
X040641Y016258D01*
X040654Y016298D01*
X040672Y016337D01*
X040692Y016375D01*
X040717Y016410D01*
X040744Y016443D01*
X040774Y016473D01*
X040807Y016500D01*
X040842Y016525D01*
X040880Y016545D01*
X040919Y016563D01*
X040959Y016576D01*
X041001Y016586D01*
X041043Y016592D01*
X041086Y016594D01*
X041129Y016592D01*
X041171Y016586D01*
X041213Y016576D01*
X041253Y016563D01*
X041292Y016545D01*
X041330Y016525D01*
X041365Y016500D01*
X041398Y016473D01*
X041428Y016443D01*
X041455Y016410D01*
X041480Y016375D01*
X041500Y016337D01*
X041518Y016298D01*
X041531Y016258D01*
X041541Y016216D01*
X041547Y016174D01*
X041549Y016131D01*
X041547Y016088D01*
X041541Y016046D01*
X041531Y016004D01*
X041518Y015964D01*
X041500Y015925D01*
X041480Y015887D01*
X041455Y015852D01*
X041428Y015819D01*
X041398Y015789D01*
X041365Y015762D01*
X041330Y015737D01*
X041292Y015717D01*
X041253Y015699D01*
X041213Y015686D01*
X041171Y015676D01*
X041129Y015670D01*
X041086Y015668D01*
X041043Y015670D01*
X041001Y015676D01*
X040959Y015686D01*
X040919Y015699D01*
X040880Y015717D01*
X040842Y015737D01*
X040807Y015762D01*
X040774Y015789D01*
X040744Y015819D01*
X040717Y015852D01*
X040692Y015887D01*
X040672Y015925D01*
X040654Y015964D01*
X040641Y016004D01*
X040631Y016046D01*
X040625Y016088D01*
X040623Y016131D01*
X042110Y016131D02*
X042112Y016178D01*
X042118Y016224D01*
X042128Y016270D01*
X042141Y016315D01*
X042159Y016358D01*
X042180Y016400D01*
X042204Y016440D01*
X042232Y016477D01*
X042263Y016512D01*
X042297Y016545D01*
X042333Y016574D01*
X042372Y016600D01*
X042413Y016623D01*
X042456Y016642D01*
X042500Y016658D01*
X042545Y016670D01*
X042591Y016678D01*
X042638Y016682D01*
X042684Y016682D01*
X042731Y016678D01*
X042777Y016670D01*
X042822Y016658D01*
X042866Y016642D01*
X042909Y016623D01*
X042950Y016600D01*
X042989Y016574D01*
X043025Y016545D01*
X043059Y016512D01*
X043090Y016477D01*
X043118Y016440D01*
X043142Y016400D01*
X043163Y016358D01*
X043181Y016315D01*
X043194Y016270D01*
X043204Y016224D01*
X043210Y016178D01*
X043212Y016131D01*
X043210Y016084D01*
X043204Y016038D01*
X043194Y015992D01*
X043181Y015947D01*
X043163Y015904D01*
X043142Y015862D01*
X043118Y015822D01*
X043090Y015785D01*
X043059Y015750D01*
X043025Y015717D01*
X042989Y015688D01*
X042950Y015662D01*
X042909Y015639D01*
X042866Y015620D01*
X042822Y015604D01*
X042777Y015592D01*
X042731Y015584D01*
X042684Y015580D01*
X042638Y015580D01*
X042591Y015584D01*
X042545Y015592D01*
X042500Y015604D01*
X042456Y015620D01*
X042413Y015639D01*
X042372Y015662D01*
X042333Y015688D01*
X042297Y015717D01*
X042263Y015750D01*
X042232Y015785D01*
X042204Y015822D01*
X042180Y015862D01*
X042159Y015904D01*
X042141Y015947D01*
X042128Y015992D01*
X042118Y016038D01*
X042112Y016084D01*
X042110Y016131D01*
X043448Y017625D02*
X043450Y017651D01*
X043455Y017676D01*
X043463Y017700D01*
X043474Y017723D01*
X043489Y017745D01*
X043506Y017764D01*
X044121Y018378D02*
X044147Y018407D01*
X044170Y018438D01*
X044189Y018471D01*
X044206Y018506D01*
X044219Y018543D01*
X044228Y018580D01*
X044234Y018618D01*
X044236Y018657D01*
X042110Y010226D02*
X042112Y010273D01*
X042118Y010319D01*
X042128Y010365D01*
X042141Y010410D01*
X042159Y010453D01*
X042180Y010495D01*
X042204Y010535D01*
X042232Y010572D01*
X042263Y010607D01*
X042297Y010640D01*
X042333Y010669D01*
X042372Y010695D01*
X042413Y010718D01*
X042456Y010737D01*
X042500Y010753D01*
X042545Y010765D01*
X042591Y010773D01*
X042638Y010777D01*
X042684Y010777D01*
X042731Y010773D01*
X042777Y010765D01*
X042822Y010753D01*
X042866Y010737D01*
X042909Y010718D01*
X042950Y010695D01*
X042989Y010669D01*
X043025Y010640D01*
X043059Y010607D01*
X043090Y010572D01*
X043118Y010535D01*
X043142Y010495D01*
X043163Y010453D01*
X043181Y010410D01*
X043194Y010365D01*
X043204Y010319D01*
X043210Y010273D01*
X043212Y010226D01*
X043210Y010179D01*
X043204Y010133D01*
X043194Y010087D01*
X043181Y010042D01*
X043163Y009999D01*
X043142Y009957D01*
X043118Y009917D01*
X043090Y009880D01*
X043059Y009845D01*
X043025Y009812D01*
X042989Y009783D01*
X042950Y009757D01*
X042909Y009734D01*
X042866Y009715D01*
X042822Y009699D01*
X042777Y009687D01*
X042731Y009679D01*
X042684Y009675D01*
X042638Y009675D01*
X042591Y009679D01*
X042545Y009687D01*
X042500Y009699D01*
X042456Y009715D01*
X042413Y009734D01*
X042372Y009757D01*
X042333Y009783D01*
X042297Y009812D01*
X042263Y009845D01*
X042232Y009880D01*
X042204Y009917D01*
X042180Y009957D01*
X042159Y009999D01*
X042141Y010042D01*
X042128Y010087D01*
X042118Y010133D01*
X042112Y010179D01*
X042110Y010226D01*
X040623Y010226D02*
X040625Y010269D01*
X040631Y010311D01*
X040641Y010353D01*
X040654Y010393D01*
X040672Y010432D01*
X040692Y010470D01*
X040717Y010505D01*
X040744Y010538D01*
X040774Y010568D01*
X040807Y010595D01*
X040842Y010620D01*
X040880Y010640D01*
X040919Y010658D01*
X040959Y010671D01*
X041001Y010681D01*
X041043Y010687D01*
X041086Y010689D01*
X041129Y010687D01*
X041171Y010681D01*
X041213Y010671D01*
X041253Y010658D01*
X041292Y010640D01*
X041330Y010620D01*
X041365Y010595D01*
X041398Y010568D01*
X041428Y010538D01*
X041455Y010505D01*
X041480Y010470D01*
X041500Y010432D01*
X041518Y010393D01*
X041531Y010353D01*
X041541Y010311D01*
X041547Y010269D01*
X041549Y010226D01*
X041547Y010183D01*
X041541Y010141D01*
X041531Y010099D01*
X041518Y010059D01*
X041500Y010020D01*
X041480Y009982D01*
X041455Y009947D01*
X041428Y009914D01*
X041398Y009884D01*
X041365Y009857D01*
X041330Y009832D01*
X041292Y009812D01*
X041253Y009794D01*
X041213Y009781D01*
X041171Y009771D01*
X041129Y009765D01*
X041086Y009763D01*
X041043Y009765D01*
X041001Y009771D01*
X040959Y009781D01*
X040919Y009794D01*
X040880Y009812D01*
X040842Y009832D01*
X040807Y009857D01*
X040774Y009884D01*
X040744Y009914D01*
X040717Y009947D01*
X040692Y009982D01*
X040672Y010020D01*
X040654Y010059D01*
X040641Y010099D01*
X040631Y010141D01*
X040625Y010183D01*
X040623Y010226D01*
X043448Y008814D02*
X043450Y008775D01*
X043456Y008737D01*
X043465Y008700D01*
X043478Y008663D01*
X043495Y008628D01*
X043514Y008595D01*
X043537Y008564D01*
X043563Y008535D01*
X044121Y007980D02*
X044147Y007951D01*
X044170Y007920D01*
X044189Y007887D01*
X044206Y007852D01*
X044219Y007815D01*
X044228Y007778D01*
X044234Y007740D01*
X044236Y007701D01*
X022543Y021053D02*
X022545Y021094D01*
X022551Y021135D01*
X022561Y021175D01*
X022574Y021214D01*
X022591Y021251D01*
X022612Y021287D01*
X022636Y021321D01*
X022663Y021352D01*
X022692Y021380D01*
X022725Y021406D01*
X022759Y021428D01*
X022796Y021447D01*
X022834Y021462D01*
X022874Y021474D01*
X022914Y021482D01*
X022955Y021486D01*
X022997Y021486D01*
X023038Y021482D01*
X023078Y021474D01*
X023118Y021462D01*
X023156Y021447D01*
X023192Y021428D01*
X023227Y021406D01*
X023260Y021380D01*
X023289Y021352D01*
X023316Y021321D01*
X023340Y021287D01*
X023361Y021251D01*
X023378Y021214D01*
X023391Y021175D01*
X023401Y021135D01*
X023407Y021094D01*
X023409Y021053D01*
X023407Y021012D01*
X023401Y020971D01*
X023391Y020931D01*
X023378Y020892D01*
X023361Y020855D01*
X023340Y020819D01*
X023316Y020785D01*
X023289Y020754D01*
X023260Y020726D01*
X023227Y020700D01*
X023193Y020678D01*
X023156Y020659D01*
X023118Y020644D01*
X023078Y020632D01*
X023038Y020624D01*
X022997Y020620D01*
X022955Y020620D01*
X022914Y020624D01*
X022874Y020632D01*
X022834Y020644D01*
X022796Y020659D01*
X022760Y020678D01*
X022725Y020700D01*
X022692Y020726D01*
X022663Y020754D01*
X022636Y020785D01*
X022612Y020819D01*
X022591Y020855D01*
X022574Y020892D01*
X022561Y020931D01*
X022551Y020971D01*
X022545Y021012D01*
X022543Y021053D01*
X010732Y021053D02*
X010734Y021094D01*
X010740Y021135D01*
X010750Y021175D01*
X010763Y021214D01*
X010780Y021251D01*
X010801Y021287D01*
X010825Y021321D01*
X010852Y021352D01*
X010881Y021380D01*
X010914Y021406D01*
X010948Y021428D01*
X010985Y021447D01*
X011023Y021462D01*
X011063Y021474D01*
X011103Y021482D01*
X011144Y021486D01*
X011186Y021486D01*
X011227Y021482D01*
X011267Y021474D01*
X011307Y021462D01*
X011345Y021447D01*
X011381Y021428D01*
X011416Y021406D01*
X011449Y021380D01*
X011478Y021352D01*
X011505Y021321D01*
X011529Y021287D01*
X011550Y021251D01*
X011567Y021214D01*
X011580Y021175D01*
X011590Y021135D01*
X011596Y021094D01*
X011598Y021053D01*
X011596Y021012D01*
X011590Y020971D01*
X011580Y020931D01*
X011567Y020892D01*
X011550Y020855D01*
X011529Y020819D01*
X011505Y020785D01*
X011478Y020754D01*
X011449Y020726D01*
X011416Y020700D01*
X011382Y020678D01*
X011345Y020659D01*
X011307Y020644D01*
X011267Y020632D01*
X011227Y020624D01*
X011186Y020620D01*
X011144Y020620D01*
X011103Y020624D01*
X011063Y020632D01*
X011023Y020644D01*
X010985Y020659D01*
X010949Y020678D01*
X010914Y020700D01*
X010881Y020726D01*
X010852Y020754D01*
X010825Y020785D01*
X010801Y020819D01*
X010780Y020855D01*
X010763Y020892D01*
X010750Y020931D01*
X010740Y020971D01*
X010734Y021012D01*
X010732Y021053D01*
X010732Y013179D02*
X010734Y013220D01*
X010740Y013261D01*
X010750Y013301D01*
X010763Y013340D01*
X010780Y013377D01*
X010801Y013413D01*
X010825Y013447D01*
X010852Y013478D01*
X010881Y013506D01*
X010914Y013532D01*
X010948Y013554D01*
X010985Y013573D01*
X011023Y013588D01*
X011063Y013600D01*
X011103Y013608D01*
X011144Y013612D01*
X011186Y013612D01*
X011227Y013608D01*
X011267Y013600D01*
X011307Y013588D01*
X011345Y013573D01*
X011381Y013554D01*
X011416Y013532D01*
X011449Y013506D01*
X011478Y013478D01*
X011505Y013447D01*
X011529Y013413D01*
X011550Y013377D01*
X011567Y013340D01*
X011580Y013301D01*
X011590Y013261D01*
X011596Y013220D01*
X011598Y013179D01*
X011596Y013138D01*
X011590Y013097D01*
X011580Y013057D01*
X011567Y013018D01*
X011550Y012981D01*
X011529Y012945D01*
X011505Y012911D01*
X011478Y012880D01*
X011449Y012852D01*
X011416Y012826D01*
X011382Y012804D01*
X011345Y012785D01*
X011307Y012770D01*
X011267Y012758D01*
X011227Y012750D01*
X011186Y012746D01*
X011144Y012746D01*
X011103Y012750D01*
X011063Y012758D01*
X011023Y012770D01*
X010985Y012785D01*
X010949Y012804D01*
X010914Y012826D01*
X010881Y012852D01*
X010852Y012880D01*
X010825Y012911D01*
X010801Y012945D01*
X010780Y012981D01*
X010763Y013018D01*
X010750Y013057D01*
X010740Y013097D01*
X010734Y013138D01*
X010732Y013179D01*
M02*
