G75*
G70*
%OFA0B0*%
%FSLAX24Y24*%
%IPPOS*%
%LPD*%
%AMOC8*
5,1,8,0,0,1.08239X$1,22.5*
%
%ADD10C,0.0059*%
%ADD11C,0.0020*%
%ADD12C,0.0030*%
%ADD13C,0.0040*%
%ADD14C,0.0060*%
%ADD15C,0.0039*%
%ADD16C,0.0120*%
%ADD17C,0.0080*%
%ADD18C,0.0050*%
%ADD19C,0.0150*%
%ADD20C,0.0100*%
%ADD21C,0.0010*%
%ADD22C,0.0079*%
%ADD23C,0.0157*%
%ADD24C,0.0295*%
D10*
X006342Y004616D02*
X006342Y004911D01*
X006145Y004911D01*
X006342Y004911D02*
X006342Y005206D01*
X007917Y005206D01*
X007917Y004616D01*
X006342Y004616D01*
X006342Y005403D02*
X006342Y005698D01*
X006145Y005698D01*
X006342Y005698D02*
X006342Y005994D01*
X007917Y005994D01*
X007917Y005403D01*
X006342Y005403D01*
X006342Y006190D02*
X006342Y006486D01*
X006145Y006486D01*
X006342Y006486D02*
X006342Y006781D01*
X007917Y006781D01*
X007917Y006190D01*
X006342Y006190D01*
X017956Y006535D02*
X017956Y005354D01*
X019925Y005354D01*
X019925Y006535D01*
X017956Y006535D01*
X024748Y005698D02*
X024748Y004714D01*
X027208Y004714D01*
X027208Y005698D01*
X024748Y005698D01*
X027011Y007076D02*
X027011Y008159D01*
X028488Y008159D01*
X028488Y007076D01*
X027011Y007076D01*
X028882Y006879D02*
X028882Y004812D01*
X029866Y004812D01*
X029866Y006879D01*
X028882Y006879D01*
X029767Y012686D02*
X025732Y012686D01*
X025732Y013671D01*
X029767Y013671D01*
X029767Y012686D01*
X029866Y014261D02*
X030850Y014261D01*
X030850Y015246D01*
X029866Y015246D01*
X029866Y014261D01*
X029275Y018395D02*
X027208Y018395D01*
X027208Y019379D01*
X029275Y019379D01*
X029275Y018395D01*
X025830Y020167D02*
X025830Y022234D01*
X024748Y022234D01*
X024748Y020167D01*
X025830Y020167D01*
X020712Y020462D02*
X020712Y021840D01*
X019334Y021840D01*
X019334Y020462D01*
X020712Y020462D01*
X006342Y020364D02*
X006342Y020954D01*
X006342Y021151D02*
X006342Y021446D01*
X006145Y021446D01*
X006342Y021446D02*
X006342Y021742D01*
X006342Y020167D02*
X006342Y019576D01*
X006342Y019379D02*
X006342Y018789D01*
D11*
X013454Y022076D02*
X013483Y022106D01*
X013542Y022106D01*
X013571Y022135D01*
X013542Y022165D01*
X013454Y022165D01*
X013454Y022076D02*
X013483Y022047D01*
X013571Y022047D01*
X013635Y022047D02*
X013723Y022047D01*
X013753Y022076D01*
X013723Y022106D01*
X013635Y022106D01*
X013635Y022135D02*
X013635Y022047D01*
X013635Y022135D02*
X013664Y022165D01*
X013723Y022165D01*
X013816Y022165D02*
X013904Y022165D01*
X013934Y022135D01*
X013934Y022076D01*
X013904Y022047D01*
X013816Y022047D01*
X013816Y022017D02*
X013816Y022165D01*
X013816Y022017D02*
X013845Y021988D01*
X013875Y021988D01*
X013997Y022047D02*
X013997Y022135D01*
X014027Y022165D01*
X014115Y022165D01*
X014115Y022047D01*
X014178Y022047D02*
X014267Y022047D01*
X014296Y022076D01*
X014267Y022106D01*
X014178Y022106D01*
X014178Y022135D02*
X014178Y022047D01*
X014178Y022135D02*
X014208Y022165D01*
X014267Y022165D01*
X014360Y022224D02*
X014478Y022106D01*
X014448Y022135D02*
X014360Y022047D01*
X014478Y022047D02*
X014478Y022224D01*
X014541Y022135D02*
X014659Y022135D01*
X014721Y022047D02*
X014780Y022047D01*
X014750Y022047D02*
X014750Y022224D01*
X014780Y022224D01*
X014871Y022224D02*
X014871Y022047D01*
X014900Y022047D02*
X014841Y022047D01*
X014964Y022106D02*
X015082Y022106D01*
X015082Y022135D02*
X015052Y022165D01*
X014993Y022165D01*
X014964Y022135D01*
X014964Y022106D01*
X014993Y022047D02*
X015052Y022047D01*
X015082Y022076D01*
X015082Y022135D01*
X015145Y022135D02*
X015145Y022047D01*
X015145Y022135D02*
X015174Y022165D01*
X015263Y022165D01*
X015263Y022047D01*
X015326Y022047D02*
X015326Y022135D01*
X015356Y022165D01*
X015444Y022165D01*
X015444Y022047D01*
X015507Y022076D02*
X015507Y022135D01*
X015537Y022165D01*
X015596Y022165D01*
X015625Y022135D01*
X015625Y022076D01*
X015596Y022047D01*
X015537Y022047D01*
X015507Y022076D01*
X015689Y022076D02*
X015718Y022047D01*
X015807Y022047D01*
X015807Y022224D01*
X015718Y022224D01*
X015689Y022194D01*
X015689Y022165D01*
X015718Y022135D01*
X015807Y022135D01*
X015718Y022135D02*
X015689Y022106D01*
X015689Y022076D01*
X016051Y022047D02*
X016051Y022135D01*
X016081Y022165D01*
X016169Y022165D01*
X016169Y022047D01*
X016232Y022076D02*
X016232Y022135D01*
X016262Y022165D01*
X016321Y022165D01*
X016350Y022135D01*
X016350Y022076D01*
X016321Y022047D01*
X016262Y022047D01*
X016232Y022076D01*
X016413Y022165D02*
X016442Y022165D01*
X016501Y022106D01*
X016501Y022047D02*
X016501Y022165D01*
X016564Y022135D02*
X016564Y022047D01*
X016653Y022047D01*
X016682Y022076D01*
X016653Y022106D01*
X016564Y022106D01*
X016564Y022135D02*
X016594Y022165D01*
X016653Y022165D01*
X016746Y022165D02*
X016746Y022047D01*
X016746Y022135D02*
X016864Y022135D01*
X016864Y022165D02*
X016805Y022224D01*
X016746Y022165D01*
X016864Y022165D02*
X016864Y022047D01*
X014900Y022224D02*
X014871Y022224D01*
X020821Y021763D02*
X020821Y021717D01*
X020844Y021694D01*
X020867Y021694D01*
X020889Y021717D01*
X020889Y021763D01*
X020867Y021786D01*
X020844Y021786D01*
X020821Y021763D01*
X020889Y021763D02*
X020912Y021786D01*
X020935Y021786D01*
X020958Y021763D01*
X020958Y021717D01*
X020935Y021694D01*
X020912Y021694D01*
X020889Y021717D01*
X020889Y021641D02*
X020889Y021549D01*
X020958Y021618D01*
X020821Y021618D01*
X020821Y021496D02*
X020821Y021404D01*
X020821Y021450D02*
X020958Y021450D01*
X020912Y021404D01*
X020889Y021351D02*
X020867Y021328D01*
X020867Y021259D01*
X020867Y021305D02*
X020821Y021351D01*
X020889Y021351D02*
X020935Y021351D01*
X020958Y021328D01*
X020958Y021259D01*
X020821Y021259D01*
X021018Y021259D02*
X021155Y021259D01*
X021155Y021328D01*
X021132Y021351D01*
X021086Y021351D01*
X021063Y021328D01*
X021063Y021259D01*
X021063Y021305D02*
X021018Y021351D01*
X021018Y021404D02*
X021018Y021496D01*
X021018Y021450D02*
X021155Y021450D01*
X021109Y021404D01*
X021086Y021549D02*
X021155Y021618D01*
X021018Y021618D01*
X021086Y021641D02*
X021086Y021549D01*
X021109Y021694D02*
X021086Y021717D01*
X021086Y021786D01*
X021040Y021786D02*
X021132Y021786D01*
X021155Y021763D01*
X021155Y021717D01*
X021132Y021694D01*
X021109Y021694D01*
X021040Y021694D02*
X021018Y021717D01*
X021018Y021763D01*
X021040Y021786D01*
D12*
X024161Y021207D02*
X024188Y021235D01*
X024244Y021235D01*
X024272Y021207D01*
X024272Y021179D01*
X024244Y021151D01*
X024161Y021151D01*
X024161Y021095D02*
X024161Y021207D01*
X024161Y021095D02*
X024188Y021068D01*
X024244Y021068D01*
X024272Y021095D01*
X024342Y021095D02*
X024370Y021068D01*
X024425Y021068D01*
X024453Y021095D01*
X024453Y021123D01*
X024425Y021151D01*
X024370Y021151D01*
X024342Y021123D01*
X024342Y021095D01*
X024370Y021151D02*
X024342Y021179D01*
X024342Y021207D01*
X024370Y021235D01*
X024425Y021235D01*
X024453Y021207D01*
X024453Y021179D01*
X024425Y021151D01*
X024523Y021095D02*
X024551Y021068D01*
X024606Y021068D01*
X024634Y021095D01*
X024634Y021207D01*
X024606Y021235D01*
X024551Y021235D01*
X024523Y021207D01*
X024551Y020939D02*
X024606Y020939D01*
X024634Y020911D01*
X024634Y020800D01*
X024606Y020772D01*
X024551Y020772D01*
X024523Y020800D01*
X024453Y020800D02*
X024425Y020772D01*
X024370Y020772D01*
X024342Y020800D01*
X024342Y020911D01*
X024370Y020939D01*
X024425Y020939D01*
X024453Y020911D01*
X024453Y020884D01*
X024425Y020856D01*
X024342Y020856D01*
X024272Y020911D02*
X024244Y020939D01*
X024188Y020939D01*
X024161Y020911D01*
X024272Y020800D01*
X024244Y020772D01*
X024188Y020772D01*
X024161Y020800D01*
X024161Y020911D01*
X024272Y020911D02*
X024272Y020800D01*
X024216Y020644D02*
X024216Y020477D01*
X024161Y020477D02*
X024272Y020477D01*
X024342Y020505D02*
X024342Y020616D01*
X024370Y020644D01*
X024425Y020644D01*
X024453Y020616D01*
X024453Y020588D01*
X024425Y020561D01*
X024342Y020561D01*
X024342Y020505D02*
X024370Y020477D01*
X024425Y020477D01*
X024453Y020505D01*
X024523Y020505D02*
X024551Y020477D01*
X024606Y020477D01*
X024634Y020505D01*
X024634Y020616D01*
X024606Y020644D01*
X024551Y020644D01*
X024523Y020616D01*
X024272Y020588D02*
X024216Y020644D01*
X024188Y020349D02*
X024161Y020321D01*
X024161Y020293D01*
X024272Y020182D01*
X024161Y020182D01*
X024188Y020349D02*
X024244Y020349D01*
X024272Y020321D01*
X024342Y020321D02*
X024370Y020349D01*
X024425Y020349D01*
X024453Y020321D01*
X024453Y020293D01*
X024425Y020265D01*
X024342Y020265D01*
X024342Y020210D02*
X024342Y020321D01*
X024342Y020210D02*
X024370Y020182D01*
X024425Y020182D01*
X024453Y020210D01*
X024523Y020210D02*
X024551Y020182D01*
X024606Y020182D01*
X024634Y020210D01*
X024634Y020321D01*
X024606Y020349D01*
X024551Y020349D01*
X024523Y020321D01*
X024523Y020911D02*
X024551Y020939D01*
X025972Y019324D02*
X025944Y019296D01*
X025944Y019241D01*
X025972Y019213D01*
X026027Y019213D02*
X026055Y019269D01*
X026055Y019296D01*
X026027Y019324D01*
X025972Y019324D01*
X026027Y019213D02*
X026111Y019213D01*
X026111Y019324D01*
X026239Y019213D02*
X026267Y019213D01*
X026378Y019324D01*
X026406Y019324D01*
X026406Y019213D01*
X026378Y019143D02*
X026267Y019032D01*
X026239Y019060D01*
X026239Y019115D01*
X026267Y019143D01*
X026378Y019143D01*
X026406Y019115D01*
X026406Y019060D01*
X026378Y019032D01*
X026267Y019032D01*
X026239Y018962D02*
X026239Y018851D01*
X026239Y018906D02*
X026406Y018906D01*
X026350Y018851D01*
X026378Y018781D02*
X026406Y018753D01*
X026406Y018697D01*
X026378Y018669D01*
X026267Y018669D01*
X026239Y018697D01*
X026239Y018753D01*
X026267Y018781D01*
X026111Y018753D02*
X026111Y018697D01*
X026083Y018669D01*
X025972Y018669D01*
X025944Y018697D01*
X025944Y018753D01*
X025972Y018781D01*
X025944Y018851D02*
X025944Y018962D01*
X025944Y018906D02*
X026111Y018906D01*
X026055Y018851D01*
X026083Y018781D02*
X026111Y018753D01*
X026083Y019032D02*
X026111Y019060D01*
X026111Y019115D01*
X026083Y019143D01*
X025972Y019032D01*
X025944Y019060D01*
X025944Y019115D01*
X025972Y019143D01*
X026083Y019143D01*
X026083Y019032D02*
X025972Y019032D01*
X026534Y019060D02*
X026562Y019032D01*
X026674Y019143D01*
X026562Y019143D01*
X026534Y019115D01*
X026534Y019060D01*
X026562Y019032D02*
X026674Y019032D01*
X026701Y019060D01*
X026701Y019115D01*
X026674Y019143D01*
X026674Y019213D02*
X026646Y019213D01*
X026618Y019241D01*
X026618Y019296D01*
X026590Y019324D01*
X026562Y019324D01*
X026534Y019296D01*
X026534Y019241D01*
X026562Y019213D01*
X026590Y019213D01*
X026618Y019241D01*
X026618Y019296D02*
X026646Y019324D01*
X026674Y019324D01*
X026701Y019296D01*
X026701Y019241D01*
X026674Y019213D01*
X026830Y019241D02*
X026830Y019296D01*
X026857Y019324D01*
X026885Y019324D01*
X026913Y019296D01*
X026913Y019213D01*
X026857Y019213D01*
X026830Y019241D01*
X026913Y019213D02*
X026969Y019269D01*
X026997Y019324D01*
X026969Y019143D02*
X026857Y019032D01*
X026830Y019060D01*
X026830Y019115D01*
X026857Y019143D01*
X026969Y019143D01*
X026997Y019115D01*
X026997Y019060D01*
X026969Y019032D01*
X026857Y019032D01*
X026830Y018962D02*
X026830Y018851D01*
X026830Y018906D02*
X026997Y018906D01*
X026941Y018851D01*
X026969Y018781D02*
X026997Y018753D01*
X026997Y018697D01*
X026969Y018669D01*
X026857Y018669D01*
X026830Y018697D01*
X026830Y018753D01*
X026857Y018781D01*
X026701Y018753D02*
X026701Y018697D01*
X026674Y018669D01*
X026562Y018669D01*
X026534Y018697D01*
X026534Y018753D01*
X026562Y018781D01*
X026534Y018851D02*
X026534Y018962D01*
X026534Y018906D02*
X026701Y018906D01*
X026646Y018851D01*
X026674Y018781D02*
X026701Y018753D01*
X030968Y015329D02*
X031023Y015301D01*
X031079Y015246D01*
X030995Y015246D01*
X030968Y015218D01*
X030968Y015190D01*
X030995Y015162D01*
X031051Y015162D01*
X031079Y015190D01*
X031079Y015246D01*
X031149Y015246D02*
X031260Y015246D01*
X031177Y015329D01*
X031177Y015162D01*
X031177Y015034D02*
X031260Y014950D01*
X031149Y014950D01*
X031177Y014867D02*
X031177Y015034D01*
X031079Y015034D02*
X030968Y015034D01*
X030968Y015006D01*
X031079Y014895D01*
X031079Y014867D01*
X031330Y014867D02*
X031441Y014867D01*
X031386Y014867D02*
X031386Y015034D01*
X031441Y014978D01*
X031511Y014950D02*
X031539Y014922D01*
X031622Y014922D01*
X031567Y014922D02*
X031511Y014867D01*
X031511Y014950D02*
X031511Y015006D01*
X031539Y015034D01*
X031622Y015034D01*
X031622Y014867D01*
X031622Y015162D02*
X031622Y015329D01*
X031539Y015329D01*
X031511Y015301D01*
X031511Y015246D01*
X031539Y015218D01*
X031622Y015218D01*
X031567Y015218D02*
X031511Y015162D01*
X031441Y015162D02*
X031330Y015162D01*
X031386Y015162D02*
X031386Y015329D01*
X031441Y015273D01*
X029753Y012533D02*
X029753Y012422D01*
X029669Y012422D01*
X029697Y012477D01*
X029697Y012505D01*
X029669Y012533D01*
X029613Y012533D01*
X029586Y012505D01*
X029586Y012450D01*
X029613Y012422D01*
X029613Y012352D02*
X029586Y012324D01*
X029586Y012268D01*
X029613Y012241D01*
X029641Y012241D01*
X029669Y012268D01*
X029669Y012324D01*
X029641Y012352D01*
X029613Y012352D01*
X029669Y012324D02*
X029697Y012352D01*
X029725Y012352D01*
X029753Y012324D01*
X029753Y012268D01*
X029725Y012241D01*
X029697Y012241D01*
X029669Y012268D01*
X029613Y012171D02*
X029586Y012143D01*
X029586Y012087D01*
X029613Y012059D01*
X029725Y012059D01*
X029753Y012087D01*
X029753Y012143D01*
X029725Y012171D01*
X029457Y012143D02*
X029457Y012087D01*
X029429Y012059D01*
X029318Y012059D01*
X029290Y012087D01*
X029290Y012143D01*
X029318Y012171D01*
X029318Y012241D02*
X029346Y012241D01*
X029374Y012268D01*
X029374Y012324D01*
X029346Y012352D01*
X029318Y012352D01*
X029290Y012324D01*
X029290Y012268D01*
X029318Y012241D01*
X029374Y012268D02*
X029402Y012241D01*
X029429Y012241D01*
X029457Y012268D01*
X029457Y012324D01*
X029429Y012352D01*
X029402Y012352D01*
X029374Y012324D01*
X029374Y012422D02*
X029318Y012422D01*
X029290Y012450D01*
X029290Y012505D01*
X029318Y012533D01*
X029346Y012533D01*
X029374Y012505D01*
X029374Y012422D01*
X029429Y012477D01*
X029457Y012533D01*
X029162Y012505D02*
X029078Y012422D01*
X029078Y012533D01*
X028995Y012505D02*
X029162Y012505D01*
X029134Y012352D02*
X029023Y012240D01*
X028995Y012268D01*
X028995Y012324D01*
X029023Y012352D01*
X029134Y012352D01*
X029162Y012324D01*
X029162Y012268D01*
X029134Y012240D01*
X029023Y012240D01*
X028995Y012171D02*
X028995Y012059D01*
X028995Y012115D02*
X029162Y012115D01*
X029106Y012059D01*
X029134Y011989D02*
X029162Y011961D01*
X029162Y011906D01*
X029134Y011878D01*
X029023Y011878D01*
X028995Y011906D01*
X028995Y011961D01*
X029023Y011989D01*
X028867Y012087D02*
X028839Y012059D01*
X028728Y012059D01*
X028700Y012087D01*
X028700Y012143D01*
X028728Y012171D01*
X028728Y012241D02*
X028755Y012241D01*
X028783Y012268D01*
X028783Y012324D01*
X028755Y012352D01*
X028728Y012352D01*
X028700Y012324D01*
X028700Y012268D01*
X028728Y012241D01*
X028783Y012268D02*
X028811Y012241D01*
X028839Y012241D01*
X028867Y012268D01*
X028867Y012324D01*
X028839Y012352D01*
X028811Y012352D01*
X028783Y012324D01*
X028728Y012422D02*
X028700Y012422D01*
X028728Y012422D02*
X028839Y012533D01*
X028867Y012533D01*
X028867Y012422D01*
X028839Y012171D02*
X028867Y012143D01*
X028867Y012087D01*
X028571Y012115D02*
X028404Y012115D01*
X028404Y012059D02*
X028404Y012171D01*
X028432Y012240D02*
X028544Y012352D01*
X028432Y012352D01*
X028404Y012324D01*
X028404Y012268D01*
X028432Y012240D01*
X028544Y012240D01*
X028571Y012268D01*
X028571Y012324D01*
X028544Y012352D01*
X028544Y012422D02*
X028571Y012449D01*
X028571Y012505D01*
X028544Y012533D01*
X028516Y012533D01*
X028488Y012505D01*
X028460Y012533D01*
X028432Y012533D01*
X028404Y012505D01*
X028404Y012449D01*
X028432Y012422D01*
X028488Y012477D02*
X028488Y012505D01*
X028276Y012477D02*
X028109Y012477D01*
X028109Y012422D02*
X028109Y012533D01*
X027981Y012505D02*
X027981Y012449D01*
X027953Y012422D01*
X027953Y012352D02*
X027842Y012240D01*
X027814Y012268D01*
X027814Y012324D01*
X027842Y012352D01*
X027953Y012352D01*
X027981Y012324D01*
X027981Y012268D01*
X027953Y012240D01*
X027842Y012240D01*
X027814Y012171D02*
X027814Y012059D01*
X027814Y012115D02*
X027981Y012115D01*
X027925Y012059D01*
X027953Y011989D02*
X027981Y011961D01*
X027981Y011906D01*
X027953Y011878D01*
X027842Y011878D01*
X027814Y011906D01*
X027814Y011961D01*
X027842Y011989D01*
X027686Y012087D02*
X027658Y012059D01*
X027546Y012059D01*
X027519Y012087D01*
X027519Y012143D01*
X027546Y012171D01*
X027546Y012241D02*
X027574Y012241D01*
X027602Y012268D01*
X027602Y012324D01*
X027574Y012352D01*
X027546Y012352D01*
X027519Y012324D01*
X027519Y012268D01*
X027546Y012241D01*
X027602Y012268D02*
X027630Y012241D01*
X027658Y012241D01*
X027686Y012268D01*
X027686Y012324D01*
X027658Y012352D01*
X027630Y012352D01*
X027602Y012324D01*
X027574Y012422D02*
X027602Y012450D01*
X027602Y012505D01*
X027574Y012533D01*
X027546Y012533D01*
X027519Y012505D01*
X027519Y012450D01*
X027546Y012422D01*
X027574Y012422D01*
X027602Y012450D02*
X027630Y012422D01*
X027658Y012422D01*
X027686Y012450D01*
X027686Y012505D01*
X027658Y012533D01*
X027630Y012533D01*
X027602Y012505D01*
X027814Y012533D02*
X027814Y012422D01*
X027925Y012533D01*
X027953Y012533D01*
X027981Y012505D01*
X028137Y012352D02*
X028109Y012324D01*
X028109Y012268D01*
X028137Y012240D01*
X028248Y012352D01*
X028137Y012352D01*
X028220Y012422D02*
X028276Y012477D01*
X028248Y012352D02*
X028276Y012324D01*
X028276Y012268D01*
X028248Y012240D01*
X028137Y012240D01*
X028109Y012171D02*
X028109Y012059D01*
X028109Y012115D02*
X028276Y012115D01*
X028220Y012059D01*
X028248Y011989D02*
X028276Y011961D01*
X028276Y011906D01*
X028248Y011878D01*
X028137Y011878D01*
X028109Y011906D01*
X028109Y011961D01*
X028137Y011989D01*
X028404Y011961D02*
X028432Y011989D01*
X028404Y011961D02*
X028404Y011906D01*
X028432Y011878D01*
X028544Y011878D01*
X028571Y011906D01*
X028571Y011961D01*
X028544Y011989D01*
X028516Y012059D02*
X028571Y012115D01*
X029429Y012171D02*
X029457Y012143D01*
X027686Y012143D02*
X027686Y012087D01*
X027686Y012143D02*
X027658Y012171D01*
X028980Y008140D02*
X028980Y008029D01*
X029064Y008112D01*
X028897Y008112D01*
X028980Y007959D02*
X028980Y007847D01*
X029064Y007931D01*
X028897Y007931D01*
X028897Y007777D02*
X028897Y007666D01*
X028897Y007722D02*
X029064Y007722D01*
X029008Y007666D01*
X029036Y007596D02*
X028980Y007596D01*
X028952Y007568D01*
X028952Y007485D01*
X028897Y007485D02*
X029064Y007485D01*
X029064Y007568D01*
X029036Y007596D01*
X028952Y007541D02*
X028897Y007596D01*
X030047Y006176D02*
X030103Y006176D01*
X030131Y006148D01*
X030200Y006148D02*
X030200Y006120D01*
X030228Y006092D01*
X030284Y006092D01*
X030312Y006120D01*
X030312Y006148D01*
X030284Y006176D01*
X030228Y006176D01*
X030200Y006148D01*
X030228Y006092D02*
X030200Y006064D01*
X030200Y006036D01*
X030228Y006009D01*
X030284Y006009D01*
X030312Y006036D01*
X030312Y006064D01*
X030284Y006092D01*
X030382Y006036D02*
X030410Y006009D01*
X030465Y006009D01*
X030493Y006036D01*
X030493Y006148D01*
X030465Y006176D01*
X030410Y006176D01*
X030382Y006148D01*
X030410Y005880D02*
X030465Y005880D01*
X030493Y005852D01*
X030493Y005741D01*
X030465Y005713D01*
X030410Y005713D01*
X030382Y005741D01*
X030312Y005741D02*
X030312Y005769D01*
X030284Y005797D01*
X030228Y005797D01*
X030200Y005769D01*
X030200Y005741D01*
X030228Y005713D01*
X030284Y005713D01*
X030312Y005741D01*
X030284Y005797D02*
X030312Y005825D01*
X030312Y005852D01*
X030284Y005880D01*
X030228Y005880D01*
X030200Y005852D01*
X030200Y005825D01*
X030228Y005797D01*
X030131Y005825D02*
X030075Y005880D01*
X030075Y005713D01*
X030131Y005713D02*
X030019Y005713D01*
X030047Y005585D02*
X030019Y005557D01*
X030019Y005529D01*
X030047Y005501D01*
X030019Y005474D01*
X030019Y005446D01*
X030047Y005418D01*
X030103Y005418D01*
X030131Y005446D01*
X030200Y005446D02*
X030228Y005418D01*
X030284Y005418D01*
X030312Y005446D01*
X030312Y005474D01*
X030284Y005501D01*
X030228Y005501D01*
X030200Y005474D01*
X030200Y005446D01*
X030228Y005501D02*
X030200Y005529D01*
X030200Y005557D01*
X030228Y005585D01*
X030284Y005585D01*
X030312Y005557D01*
X030312Y005529D01*
X030284Y005501D01*
X030382Y005446D02*
X030410Y005418D01*
X030465Y005418D01*
X030493Y005446D01*
X030493Y005557D01*
X030465Y005585D01*
X030410Y005585D01*
X030382Y005557D01*
X030131Y005557D02*
X030103Y005585D01*
X030047Y005585D01*
X030047Y005501D02*
X030075Y005501D01*
X030047Y005290D02*
X030131Y005206D01*
X030019Y005206D01*
X030047Y005123D02*
X030047Y005290D01*
X030200Y005262D02*
X030200Y005234D01*
X030228Y005206D01*
X030284Y005206D01*
X030312Y005234D01*
X030312Y005262D01*
X030284Y005290D01*
X030228Y005290D01*
X030200Y005262D01*
X030228Y005206D02*
X030200Y005178D01*
X030200Y005151D01*
X030228Y005123D01*
X030284Y005123D01*
X030312Y005151D01*
X030312Y005178D01*
X030284Y005206D01*
X030382Y005151D02*
X030410Y005123D01*
X030465Y005123D01*
X030493Y005151D01*
X030493Y005262D01*
X030465Y005290D01*
X030410Y005290D01*
X030382Y005262D01*
X030382Y005852D02*
X030410Y005880D01*
X030131Y006009D02*
X030019Y006120D01*
X030019Y006148D01*
X030047Y006176D01*
X030019Y006009D02*
X030131Y006009D01*
X024634Y005123D02*
X024634Y005068D01*
X024607Y005040D01*
X024579Y005040D01*
X024551Y005068D01*
X024551Y005151D01*
X024607Y005151D02*
X024634Y005123D01*
X024607Y005151D02*
X024495Y005151D01*
X024467Y005123D01*
X024467Y005068D01*
X024495Y005040D01*
X024607Y004970D02*
X024495Y004859D01*
X024467Y004859D01*
X024495Y004789D02*
X024467Y004761D01*
X024467Y004705D01*
X024495Y004677D01*
X024607Y004677D01*
X024634Y004705D01*
X024634Y004761D01*
X024607Y004789D01*
X024634Y004859D02*
X024634Y004970D01*
X024607Y004970D01*
X024339Y004942D02*
X024311Y004970D01*
X024283Y004970D01*
X024256Y004942D01*
X024256Y004886D01*
X024283Y004859D01*
X024311Y004859D01*
X024339Y004886D01*
X024339Y004942D01*
X024256Y004942D02*
X024228Y004970D01*
X024200Y004970D01*
X024172Y004942D01*
X024172Y004886D01*
X024200Y004859D01*
X024228Y004859D01*
X024256Y004886D01*
X024311Y004789D02*
X024339Y004761D01*
X024339Y004705D01*
X024311Y004677D01*
X024200Y004677D01*
X024172Y004705D01*
X024172Y004761D01*
X024200Y004789D01*
X024044Y004761D02*
X024044Y004705D01*
X024016Y004677D01*
X023905Y004677D01*
X023877Y004705D01*
X023877Y004761D01*
X023905Y004789D01*
X023905Y004859D02*
X023877Y004859D01*
X023905Y004859D02*
X024016Y004970D01*
X024044Y004970D01*
X024044Y004859D01*
X024016Y004789D02*
X024044Y004761D01*
X024044Y005040D02*
X024044Y005151D01*
X024016Y005151D01*
X023905Y005040D01*
X023877Y005040D01*
X023749Y005068D02*
X023749Y005123D01*
X023721Y005151D01*
X023693Y005151D01*
X023665Y005123D01*
X023665Y005068D01*
X023693Y005040D01*
X023721Y005040D01*
X023749Y005068D01*
X023665Y005068D02*
X023637Y005040D01*
X023609Y005040D01*
X023582Y005068D01*
X023582Y005123D01*
X023609Y005151D01*
X023637Y005151D01*
X023665Y005123D01*
X023721Y004970D02*
X023609Y004859D01*
X023582Y004859D01*
X023609Y004789D02*
X023582Y004761D01*
X023582Y004705D01*
X023609Y004677D01*
X023721Y004677D01*
X023749Y004705D01*
X023749Y004761D01*
X023721Y004789D01*
X023749Y004859D02*
X023749Y004970D01*
X023721Y004970D01*
X024172Y005068D02*
X024200Y005040D01*
X024311Y005151D01*
X024200Y005151D01*
X024172Y005123D01*
X024172Y005068D01*
X024200Y005040D02*
X024311Y005040D01*
X024339Y005068D01*
X024339Y005123D01*
X024311Y005151D01*
X039948Y012757D02*
X040059Y012757D01*
X040004Y012701D02*
X040004Y012813D01*
X040031Y012883D02*
X040087Y012938D01*
X039920Y012938D01*
X039920Y012883D02*
X039920Y012994D01*
X039920Y013064D02*
X040031Y013175D01*
X040059Y013175D01*
X040087Y013147D01*
X040087Y013092D01*
X040059Y013064D01*
X039920Y013064D02*
X039920Y013175D01*
X039976Y013245D02*
X039920Y013301D01*
X039976Y013356D01*
X040087Y013356D01*
X040087Y013245D02*
X039976Y013245D01*
X041003Y013714D02*
X041003Y013769D01*
X041031Y013797D01*
X041003Y013867D02*
X041114Y013867D01*
X041170Y013923D01*
X041114Y013978D01*
X041003Y013978D01*
X041003Y014048D02*
X041170Y014048D01*
X041003Y014159D01*
X041170Y014159D01*
X041170Y014229D02*
X041003Y014229D01*
X041003Y014341D01*
X041086Y013978D02*
X041086Y013867D01*
X041142Y013797D02*
X041170Y013769D01*
X041170Y013714D01*
X041142Y013686D01*
X041031Y013686D01*
X041003Y013714D01*
X041523Y014375D02*
X041495Y014402D01*
X041495Y014458D01*
X041523Y014486D01*
X041495Y014556D02*
X041606Y014556D01*
X041662Y014612D01*
X041606Y014667D01*
X041495Y014667D01*
X041495Y014737D02*
X041662Y014737D01*
X041495Y014848D01*
X041662Y014848D01*
X041662Y014918D02*
X041495Y014918D01*
X041578Y014918D02*
X041578Y015030D01*
X041495Y015030D02*
X041662Y015030D01*
X041578Y014667D02*
X041578Y014556D01*
X041634Y014486D02*
X041662Y014458D01*
X041662Y014402D01*
X041634Y014375D01*
X041523Y014375D01*
X040087Y014402D02*
X040059Y014375D01*
X039948Y014375D01*
X039920Y014402D01*
X039920Y014458D01*
X039948Y014486D01*
X040004Y014486D01*
X040004Y014430D01*
X040059Y014486D02*
X040087Y014458D01*
X040087Y014402D01*
X040087Y014556D02*
X039920Y014667D01*
X040087Y014667D01*
X040087Y014737D02*
X040087Y014821D01*
X040059Y014848D01*
X039948Y014848D01*
X039920Y014821D01*
X039920Y014737D01*
X040087Y014737D01*
X040087Y014556D02*
X039920Y014556D01*
D13*
X009355Y015941D02*
X009270Y015856D01*
X009185Y015941D01*
X009185Y016112D01*
X009083Y016069D02*
X009083Y015899D01*
X009040Y015856D01*
X008955Y015856D01*
X008913Y015899D01*
X008811Y015856D02*
X008641Y015856D01*
X008726Y015856D02*
X008726Y016112D01*
X008811Y016026D01*
X008913Y016069D02*
X008955Y016112D01*
X009040Y016112D01*
X009083Y016069D01*
X009355Y016112D02*
X009355Y015941D01*
X009083Y015324D02*
X009083Y015154D01*
X008998Y015069D01*
X008913Y015154D01*
X008913Y015324D01*
X008811Y015282D02*
X008811Y015111D01*
X008769Y015069D01*
X008683Y015069D01*
X008641Y015111D01*
X008539Y015111D02*
X008539Y015069D01*
X008539Y015111D02*
X008369Y015282D01*
X008369Y015324D01*
X008539Y015324D01*
X008641Y015282D02*
X008683Y015324D01*
X008769Y015324D01*
X008811Y015282D01*
X008267Y015196D02*
X008097Y015196D01*
X008182Y015282D02*
X008182Y015111D01*
X008412Y014537D02*
X008369Y014494D01*
X008369Y014452D01*
X008412Y014409D01*
X008369Y014366D01*
X008369Y014324D01*
X008412Y014281D01*
X008497Y014281D01*
X008539Y014324D01*
X008641Y014324D02*
X008683Y014281D01*
X008769Y014281D01*
X008811Y014324D01*
X008811Y014494D01*
X008769Y014537D01*
X008683Y014537D01*
X008641Y014494D01*
X008539Y014494D02*
X008497Y014537D01*
X008412Y014537D01*
X008412Y014409D02*
X008454Y014409D01*
X008267Y014409D02*
X008097Y014409D01*
X008182Y014494D02*
X008182Y014324D01*
X008913Y014366D02*
X008913Y014537D01*
X009083Y014537D02*
X009083Y014366D01*
X008998Y014281D01*
X008913Y014366D01*
X008539Y015856D02*
X008369Y015856D01*
X008454Y015856D02*
X008454Y016112D01*
X008539Y016026D01*
X008267Y015984D02*
X008097Y015984D01*
X008182Y016069D02*
X008182Y015899D01*
X008412Y016643D02*
X008497Y016643D01*
X008539Y016686D01*
X008539Y016771D02*
X008454Y016814D01*
X008412Y016814D01*
X008369Y016771D01*
X008369Y016686D01*
X008412Y016643D01*
X008539Y016771D02*
X008539Y016899D01*
X008369Y016899D01*
X008267Y016771D02*
X008097Y016771D01*
X008182Y016856D02*
X008182Y016686D01*
X008641Y016643D02*
X008811Y016643D01*
X008726Y016643D02*
X008726Y016899D01*
X008811Y016814D01*
X008913Y016856D02*
X008955Y016899D01*
X009040Y016899D01*
X009083Y016856D01*
X009083Y016686D01*
X009040Y016643D01*
X008955Y016643D01*
X008913Y016686D01*
X009185Y016729D02*
X009185Y016899D01*
X009355Y016899D02*
X009355Y016729D01*
X009270Y016643D01*
X009185Y016729D01*
X009270Y017431D02*
X009185Y017516D01*
X009185Y017686D01*
X009083Y017644D02*
X009083Y017473D01*
X009040Y017431D01*
X008955Y017431D01*
X008913Y017473D01*
X008811Y017431D02*
X008641Y017431D01*
X008726Y017431D02*
X008726Y017686D01*
X008811Y017601D01*
X008913Y017644D02*
X008955Y017686D01*
X009040Y017686D01*
X009083Y017644D01*
X009355Y017686D02*
X009355Y017516D01*
X009270Y017431D01*
X009270Y018120D02*
X009185Y018205D01*
X009185Y018375D01*
X009083Y018333D02*
X009083Y018162D01*
X009040Y018120D01*
X008955Y018120D01*
X008913Y018162D01*
X008811Y018120D02*
X008641Y018290D01*
X008641Y018333D01*
X008683Y018375D01*
X008769Y018375D01*
X008811Y018333D01*
X008913Y018333D02*
X008955Y018375D01*
X009040Y018375D01*
X009083Y018333D01*
X009355Y018375D02*
X009355Y018205D01*
X009270Y018120D01*
X008811Y018120D02*
X008641Y018120D01*
X008539Y018162D02*
X008497Y018120D01*
X008412Y018120D01*
X008369Y018162D01*
X008369Y018205D01*
X008412Y018248D01*
X008454Y018248D01*
X008412Y018248D02*
X008369Y018290D01*
X008369Y018333D01*
X008412Y018375D01*
X008497Y018375D01*
X008539Y018333D01*
X008267Y018248D02*
X008097Y018248D01*
X008182Y018333D02*
X008182Y018162D01*
X008182Y017644D02*
X008182Y017473D01*
X008267Y017559D02*
X008097Y017559D01*
X008369Y017559D02*
X008497Y017559D01*
X008539Y017601D01*
X008539Y017644D01*
X008497Y017686D01*
X008412Y017686D01*
X008369Y017644D01*
X008369Y017473D01*
X008412Y017431D01*
X008497Y017431D01*
X008539Y017473D01*
X006125Y017516D02*
X006040Y017431D01*
X005955Y017516D01*
X005955Y017686D01*
X005854Y017644D02*
X005854Y017473D01*
X005811Y017431D01*
X005726Y017431D01*
X005683Y017473D01*
X005582Y017431D02*
X005411Y017431D01*
X005496Y017431D02*
X005496Y017686D01*
X005582Y017601D01*
X005683Y017644D02*
X005726Y017686D01*
X005811Y017686D01*
X005854Y017644D01*
X006125Y017686D02*
X006125Y017516D01*
X005310Y017473D02*
X005310Y017431D01*
X005310Y017473D02*
X005139Y017644D01*
X005139Y017686D01*
X005310Y017686D01*
X005038Y017559D02*
X004868Y017559D01*
X004953Y017644D02*
X004953Y017473D01*
X004953Y016856D02*
X004953Y016686D01*
X005038Y016771D02*
X004868Y016771D01*
X005139Y016729D02*
X005139Y016686D01*
X005182Y016643D01*
X005267Y016643D01*
X005310Y016686D01*
X005411Y016643D02*
X005582Y016643D01*
X005496Y016643D02*
X005496Y016899D01*
X005582Y016814D01*
X005683Y016856D02*
X005726Y016899D01*
X005811Y016899D01*
X005854Y016856D01*
X005854Y016686D01*
X005811Y016643D01*
X005726Y016643D01*
X005683Y016686D01*
X005955Y016729D02*
X005955Y016899D01*
X006125Y016899D02*
X006125Y016729D01*
X006040Y016643D01*
X005955Y016729D01*
X005310Y016856D02*
X005267Y016899D01*
X005182Y016899D01*
X005139Y016856D01*
X005139Y016814D01*
X005182Y016771D01*
X005139Y016729D01*
X005182Y016771D02*
X005225Y016771D01*
X005454Y016112D02*
X005539Y016112D01*
X005582Y016069D01*
X005582Y016026D01*
X005539Y015984D01*
X005411Y015984D01*
X005411Y015899D02*
X005411Y016069D01*
X005454Y016112D01*
X005310Y015984D02*
X005139Y015984D01*
X005225Y016069D02*
X005225Y015899D01*
X005411Y015899D02*
X005454Y015856D01*
X005539Y015856D01*
X005582Y015899D01*
X005683Y015899D02*
X005726Y015856D01*
X005811Y015856D01*
X005854Y015899D01*
X005854Y016069D01*
X005811Y016112D01*
X005726Y016112D01*
X005683Y016069D01*
X005955Y016112D02*
X005955Y015941D01*
X006040Y015856D01*
X006125Y015941D01*
X006125Y016112D01*
X006125Y015324D02*
X006125Y015154D01*
X006040Y015069D01*
X005955Y015154D01*
X005955Y015324D01*
X005854Y015282D02*
X005854Y015111D01*
X005811Y015069D01*
X005726Y015069D01*
X005683Y015111D01*
X005582Y015111D02*
X005539Y015069D01*
X005454Y015069D01*
X005411Y015111D01*
X005411Y015196D01*
X005454Y015239D01*
X005496Y015239D01*
X005582Y015196D01*
X005582Y015324D01*
X005411Y015324D01*
X005310Y015196D02*
X005139Y015196D01*
X005225Y015111D02*
X005225Y015282D01*
X005683Y015282D02*
X005726Y015324D01*
X005811Y015324D01*
X005854Y015282D01*
X005811Y014537D02*
X005854Y014494D01*
X005854Y014324D01*
X005811Y014281D01*
X005726Y014281D01*
X005683Y014324D01*
X005582Y014281D02*
X005411Y014281D01*
X005496Y014281D02*
X005496Y014537D01*
X005582Y014452D01*
X005683Y014494D02*
X005726Y014537D01*
X005811Y014537D01*
X005955Y014537D02*
X005955Y014366D01*
X006040Y014281D01*
X006125Y014366D01*
X006125Y014537D01*
X005310Y014409D02*
X005139Y014409D01*
X005225Y014494D02*
X005225Y014324D01*
X005169Y012175D02*
X005084Y012175D01*
X005041Y012132D01*
X005041Y012089D01*
X005211Y011919D01*
X005041Y011919D01*
X004940Y012047D02*
X004769Y012047D01*
X004854Y012132D02*
X004854Y011962D01*
X005169Y012175D02*
X005211Y012132D01*
X005313Y012132D02*
X005356Y012175D01*
X005441Y012175D01*
X005483Y012132D01*
X005585Y012132D02*
X005627Y012175D01*
X005713Y012175D01*
X005755Y012132D01*
X005755Y011962D01*
X005713Y011919D01*
X005627Y011919D01*
X005585Y011962D01*
X005483Y011919D02*
X005313Y012089D01*
X005313Y012132D01*
X005313Y011919D02*
X005483Y011919D01*
X005857Y012004D02*
X005857Y012175D01*
X006027Y012175D02*
X006027Y012004D01*
X005942Y011919D01*
X005857Y012004D01*
X005857Y011387D02*
X005857Y011217D01*
X005942Y011132D01*
X006027Y011217D01*
X006027Y011387D01*
X005755Y011345D02*
X005755Y011174D01*
X005713Y011132D01*
X005627Y011132D01*
X005585Y011174D01*
X005483Y011132D02*
X005313Y011132D01*
X005398Y011132D02*
X005398Y011387D01*
X005483Y011302D01*
X005585Y011345D02*
X005627Y011387D01*
X005713Y011387D01*
X005755Y011345D01*
X005211Y011345D02*
X005211Y011302D01*
X005169Y011259D01*
X005084Y011259D01*
X005041Y011217D01*
X005041Y011174D01*
X005084Y011132D01*
X005169Y011132D01*
X005211Y011174D01*
X005211Y011217D01*
X005169Y011259D01*
X005084Y011259D02*
X005041Y011302D01*
X005041Y011345D01*
X005084Y011387D01*
X005169Y011387D01*
X005211Y011345D01*
X004940Y011259D02*
X004769Y011259D01*
X004854Y011345D02*
X004854Y011174D01*
X004854Y010557D02*
X004854Y010387D01*
X004940Y010472D02*
X004769Y010472D01*
X005041Y010472D02*
X005211Y010472D01*
X005084Y010600D01*
X005084Y010344D01*
X005313Y010344D02*
X005483Y010344D01*
X005398Y010344D02*
X005398Y010600D01*
X005483Y010515D01*
X005585Y010557D02*
X005627Y010600D01*
X005713Y010600D01*
X005755Y010557D01*
X005755Y010387D01*
X005713Y010344D01*
X005627Y010344D01*
X005585Y010387D01*
X005857Y010429D02*
X005857Y010600D01*
X006027Y010600D02*
X006027Y010429D01*
X005942Y010344D01*
X005857Y010429D01*
X005857Y009812D02*
X005857Y009642D01*
X005942Y009557D01*
X006027Y009642D01*
X006027Y009812D01*
X005755Y009770D02*
X005755Y009599D01*
X005713Y009557D01*
X005627Y009557D01*
X005585Y009599D01*
X005483Y009557D02*
X005313Y009557D01*
X005398Y009557D02*
X005398Y009812D01*
X005483Y009727D01*
X005585Y009770D02*
X005627Y009812D01*
X005713Y009812D01*
X005755Y009770D01*
X005211Y009770D02*
X005169Y009812D01*
X005084Y009812D01*
X005041Y009770D01*
X005211Y009599D01*
X005169Y009557D01*
X005084Y009557D01*
X005041Y009599D01*
X005041Y009770D01*
X004940Y009685D02*
X004769Y009685D01*
X004854Y009770D02*
X004854Y009599D01*
X005211Y009599D02*
X005211Y009770D01*
X005313Y009025D02*
X005398Y008982D01*
X005483Y008897D01*
X005356Y008897D01*
X005313Y008855D01*
X005313Y008812D01*
X005356Y008769D01*
X005441Y008769D01*
X005483Y008812D01*
X005483Y008897D01*
X005585Y008812D02*
X005627Y008769D01*
X005713Y008769D01*
X005755Y008812D01*
X005755Y008982D01*
X005713Y009025D01*
X005627Y009025D01*
X005585Y008982D01*
X005857Y009025D02*
X005857Y008855D01*
X005942Y008769D01*
X006027Y008855D01*
X006027Y009025D01*
X005211Y008897D02*
X005041Y008897D01*
X005126Y008982D02*
X005126Y008812D01*
X005126Y008195D02*
X005126Y008025D01*
X005211Y008110D02*
X005041Y008110D01*
X005313Y008152D02*
X005483Y007982D01*
X005313Y007982D01*
X005313Y008152D02*
X005313Y008195D01*
X005356Y008238D01*
X005441Y008238D01*
X005483Y008195D01*
X005585Y008195D02*
X005627Y008238D01*
X005713Y008238D01*
X005755Y008195D01*
X005755Y008025D01*
X005713Y007982D01*
X005627Y007982D01*
X005585Y008025D01*
X005857Y008067D02*
X005857Y008238D01*
X006027Y008238D02*
X006027Y008067D01*
X005942Y007982D01*
X005857Y008067D01*
X005857Y007450D02*
X005857Y007280D01*
X005942Y007195D01*
X006027Y007280D01*
X006027Y007450D01*
X005755Y007408D02*
X005713Y007450D01*
X005627Y007450D01*
X005585Y007408D01*
X005483Y007365D02*
X005398Y007450D01*
X005398Y007195D01*
X005483Y007195D02*
X005313Y007195D01*
X005211Y007322D02*
X005041Y007322D01*
X005585Y007237D02*
X005627Y007195D01*
X005713Y007195D01*
X005755Y007237D01*
X005755Y007408D01*
X005713Y006663D02*
X005627Y006663D01*
X005585Y006620D01*
X005627Y006535D02*
X005585Y006492D01*
X005585Y006450D01*
X005627Y006407D01*
X005713Y006407D01*
X005755Y006450D01*
X005713Y006535D02*
X005627Y006535D01*
X005713Y006535D02*
X005755Y006578D01*
X005755Y006620D01*
X005713Y006663D01*
X005857Y006663D02*
X006027Y006663D01*
X005942Y006663D02*
X005942Y006407D01*
X005483Y006450D02*
X005441Y006407D01*
X005356Y006407D01*
X005313Y006450D01*
X005313Y006492D01*
X005356Y006535D01*
X005398Y006535D01*
X005356Y006535D02*
X005313Y006578D01*
X005313Y006620D01*
X005356Y006663D01*
X005441Y006663D01*
X005483Y006620D01*
X005441Y005875D02*
X005483Y005833D01*
X005441Y005875D02*
X005356Y005875D01*
X005313Y005833D01*
X005313Y005790D01*
X005483Y005620D01*
X005313Y005620D01*
X005585Y005662D02*
X005627Y005620D01*
X005713Y005620D01*
X005755Y005662D01*
X005713Y005748D02*
X005627Y005748D01*
X005585Y005705D01*
X005585Y005662D01*
X005713Y005748D02*
X005755Y005790D01*
X005755Y005833D01*
X005713Y005875D01*
X005627Y005875D01*
X005585Y005833D01*
X005857Y005875D02*
X006027Y005875D01*
X005942Y005875D02*
X005942Y005620D01*
X005942Y005088D02*
X005942Y004832D01*
X005755Y004875D02*
X005713Y004832D01*
X005627Y004832D01*
X005585Y004875D01*
X005585Y004918D01*
X005627Y004960D01*
X005713Y004960D01*
X005755Y005003D01*
X005755Y005045D01*
X005713Y005088D01*
X005627Y005088D01*
X005585Y005045D01*
X005483Y005003D02*
X005398Y005088D01*
X005398Y004832D01*
X005483Y004832D02*
X005313Y004832D01*
X005857Y005088D02*
X006027Y005088D01*
X008182Y008025D02*
X008182Y008195D01*
X008267Y008110D02*
X008097Y008110D01*
X008369Y008110D02*
X008539Y008110D01*
X008412Y008238D01*
X008412Y007982D01*
X008641Y008025D02*
X008683Y007982D01*
X008769Y007982D01*
X008811Y008025D01*
X008811Y008195D01*
X008769Y008238D01*
X008683Y008238D01*
X008641Y008195D01*
X008913Y008238D02*
X008913Y008067D01*
X008998Y007982D01*
X009083Y008067D01*
X009083Y008238D01*
X008998Y008769D02*
X008913Y008855D01*
X008913Y009025D01*
X008811Y008982D02*
X008811Y008812D01*
X008769Y008769D01*
X008683Y008769D01*
X008641Y008812D01*
X008539Y008812D02*
X008539Y008855D01*
X008497Y008897D01*
X008412Y008897D01*
X008369Y008855D01*
X008369Y008812D01*
X008412Y008769D01*
X008497Y008769D01*
X008539Y008812D01*
X008497Y008897D02*
X008539Y008940D01*
X008539Y008982D01*
X008497Y009025D01*
X008412Y009025D01*
X008369Y008982D01*
X008369Y008940D01*
X008412Y008897D01*
X008267Y008897D02*
X008097Y008897D01*
X008182Y008982D02*
X008182Y008812D01*
X008641Y008982D02*
X008683Y009025D01*
X008769Y009025D01*
X008811Y008982D01*
X009083Y009025D02*
X009083Y008855D01*
X008998Y008769D01*
X008955Y009557D02*
X008913Y009599D01*
X008955Y009557D02*
X009040Y009557D01*
X009083Y009599D01*
X009083Y009770D01*
X009040Y009812D01*
X008955Y009812D01*
X008913Y009770D01*
X008811Y009727D02*
X008726Y009812D01*
X008726Y009557D01*
X008811Y009557D02*
X008641Y009557D01*
X008539Y009557D02*
X008369Y009727D01*
X008369Y009770D01*
X008412Y009812D01*
X008497Y009812D01*
X008539Y009770D01*
X008539Y009557D02*
X008369Y009557D01*
X008267Y009685D02*
X008097Y009685D01*
X008182Y009770D02*
X008182Y009599D01*
X008412Y010344D02*
X008369Y010387D01*
X008369Y010429D01*
X008412Y010472D01*
X008539Y010472D01*
X008539Y010387D01*
X008497Y010344D01*
X008412Y010344D01*
X008539Y010472D02*
X008454Y010557D01*
X008369Y010600D01*
X008267Y010472D02*
X008097Y010472D01*
X008182Y010557D02*
X008182Y010387D01*
X008641Y010344D02*
X008811Y010344D01*
X008726Y010344D02*
X008726Y010600D01*
X008811Y010515D01*
X008913Y010557D02*
X008955Y010600D01*
X009040Y010600D01*
X009083Y010557D01*
X009083Y010387D01*
X009040Y010344D01*
X008955Y010344D01*
X008913Y010387D01*
X009185Y010429D02*
X009185Y010600D01*
X009355Y010600D02*
X009355Y010429D01*
X009270Y010344D01*
X009185Y010429D01*
X009185Y009812D02*
X009185Y009642D01*
X009270Y009557D01*
X009355Y009642D01*
X009355Y009812D01*
X009270Y011132D02*
X009185Y011217D01*
X009185Y011387D01*
X009083Y011345D02*
X009083Y011174D01*
X009040Y011132D01*
X008955Y011132D01*
X008913Y011174D01*
X008811Y011132D02*
X008641Y011132D01*
X008726Y011132D02*
X008726Y011387D01*
X008811Y011302D01*
X008913Y011345D02*
X008955Y011387D01*
X009040Y011387D01*
X009083Y011345D01*
X009355Y011387D02*
X009355Y011217D01*
X009270Y011132D01*
X008539Y011174D02*
X008539Y011217D01*
X008497Y011259D01*
X008412Y011259D01*
X008369Y011217D01*
X008369Y011174D01*
X008412Y011132D01*
X008497Y011132D01*
X008539Y011174D01*
X008497Y011259D02*
X008539Y011302D01*
X008539Y011345D01*
X008497Y011387D01*
X008412Y011387D01*
X008369Y011345D01*
X008369Y011302D01*
X008412Y011259D01*
X008267Y011259D02*
X008097Y011259D01*
X008182Y011345D02*
X008182Y011174D01*
X008412Y011919D02*
X008412Y012175D01*
X008539Y012047D01*
X008369Y012047D01*
X008267Y012047D02*
X008097Y012047D01*
X008182Y012132D02*
X008182Y011962D01*
X008641Y011919D02*
X008811Y011919D01*
X008641Y012089D01*
X008641Y012132D01*
X008683Y012175D01*
X008769Y012175D01*
X008811Y012132D01*
X008913Y012132D02*
X008955Y012175D01*
X009040Y012175D01*
X009083Y012132D01*
X009083Y011962D01*
X009040Y011919D01*
X008955Y011919D01*
X008913Y011962D01*
X009185Y012004D02*
X009185Y012175D01*
X009355Y012175D02*
X009355Y012004D01*
X009270Y011919D01*
X009185Y012004D01*
X006040Y018218D02*
X005955Y018303D01*
X005955Y018474D01*
X005854Y018431D02*
X005854Y018261D01*
X005811Y018218D01*
X005726Y018218D01*
X005683Y018261D01*
X005582Y018218D02*
X005411Y018389D01*
X005411Y018431D01*
X005454Y018474D01*
X005539Y018474D01*
X005582Y018431D01*
X005683Y018431D02*
X005726Y018474D01*
X005811Y018474D01*
X005854Y018431D01*
X006125Y018474D02*
X006125Y018303D01*
X006040Y018218D01*
X005582Y018218D02*
X005411Y018218D01*
X005310Y018218D02*
X005139Y018218D01*
X005225Y018218D02*
X005225Y018474D01*
X005310Y018389D01*
X005038Y018346D02*
X004868Y018346D01*
X004953Y018431D02*
X004953Y018261D01*
X005356Y019006D02*
X005441Y019006D01*
X005483Y019048D01*
X005483Y019133D02*
X005398Y019176D01*
X005356Y019176D01*
X005313Y019133D01*
X005313Y019048D01*
X005356Y019006D01*
X005483Y019133D02*
X005483Y019261D01*
X005313Y019261D01*
X005585Y019219D02*
X005627Y019261D01*
X005713Y019261D01*
X005755Y019219D01*
X005755Y019176D01*
X005713Y019133D01*
X005627Y019133D01*
X005585Y019091D01*
X005585Y019048D01*
X005627Y019006D01*
X005713Y019006D01*
X005755Y019048D01*
X005942Y019006D02*
X005942Y019261D01*
X006027Y019261D02*
X005857Y019261D01*
X005942Y019793D02*
X005942Y020049D01*
X006027Y020049D02*
X005857Y020049D01*
X005755Y020006D02*
X005755Y019963D01*
X005713Y019921D01*
X005627Y019921D01*
X005585Y019878D01*
X005585Y019836D01*
X005627Y019793D01*
X005713Y019793D01*
X005755Y019836D01*
X005755Y020006D02*
X005713Y020049D01*
X005627Y020049D01*
X005585Y020006D01*
X005483Y019921D02*
X005356Y019921D01*
X005313Y019878D01*
X005313Y019836D01*
X005356Y019793D01*
X005441Y019793D01*
X005483Y019836D01*
X005483Y019921D01*
X005398Y020006D01*
X005313Y020049D01*
X005483Y020580D02*
X005483Y020623D01*
X005313Y020793D01*
X005313Y020836D01*
X005483Y020836D01*
X005585Y020793D02*
X005627Y020836D01*
X005713Y020836D01*
X005755Y020793D01*
X005755Y020751D01*
X005713Y020708D01*
X005627Y020708D01*
X005585Y020666D01*
X005585Y020623D01*
X005627Y020580D01*
X005713Y020580D01*
X005755Y020623D01*
X005942Y020580D02*
X005942Y020836D01*
X006027Y020836D02*
X005857Y020836D01*
X005843Y021368D02*
X005843Y021623D01*
X005758Y021623D02*
X005929Y021623D01*
X005657Y021581D02*
X005657Y021538D01*
X005614Y021496D01*
X005529Y021496D01*
X005486Y021453D01*
X005486Y021410D01*
X005529Y021368D01*
X005614Y021368D01*
X005657Y021410D01*
X005657Y021581D02*
X005614Y021623D01*
X005529Y021623D01*
X005486Y021581D01*
X005385Y021581D02*
X005385Y021538D01*
X005342Y021496D01*
X005257Y021496D01*
X005214Y021453D01*
X005214Y021410D01*
X005257Y021368D01*
X005342Y021368D01*
X005385Y021410D01*
X005385Y021453D01*
X005342Y021496D01*
X005257Y021496D02*
X005214Y021538D01*
X005214Y021581D01*
X005257Y021623D01*
X005342Y021623D01*
X005385Y021581D01*
X006900Y022451D02*
X007136Y022451D01*
X006900Y022687D01*
X006900Y022746D01*
X006959Y022805D01*
X007077Y022805D01*
X007136Y022746D01*
X007258Y022510D02*
X007258Y022451D01*
X007317Y022451D01*
X007317Y022510D01*
X007258Y022510D01*
X007444Y022510D02*
X007503Y022451D01*
X007621Y022451D01*
X007680Y022510D01*
X007444Y022746D01*
X007444Y022510D01*
X007444Y022746D02*
X007503Y022805D01*
X007621Y022805D01*
X007680Y022746D01*
X007680Y022510D01*
X007802Y022510D02*
X007802Y022451D01*
X007861Y022451D01*
X007861Y022510D01*
X007802Y022510D01*
X007988Y022451D02*
X008224Y022451D01*
X007988Y022687D01*
X007988Y022746D01*
X008047Y022805D01*
X008165Y022805D01*
X008224Y022746D01*
X008350Y022687D02*
X008468Y022451D01*
X008586Y022687D01*
D14*
X009130Y022628D02*
X009130Y022572D01*
X009352Y022572D01*
X009352Y022628D02*
X009297Y022683D01*
X009185Y022683D01*
X009130Y022628D01*
X009185Y022461D02*
X009297Y022461D01*
X009352Y022516D01*
X009352Y022628D01*
X009483Y022461D02*
X009594Y022461D01*
X009538Y022461D02*
X009538Y022795D01*
X009594Y022795D01*
X009734Y022683D02*
X009734Y022461D01*
X009901Y022461D01*
X009957Y022516D01*
X009957Y022683D01*
X010096Y022683D02*
X010263Y022683D01*
X010319Y022628D01*
X010319Y022516D01*
X010263Y022461D01*
X010096Y022461D01*
X010096Y022795D01*
X010459Y022628D02*
X010459Y022516D01*
X010515Y022461D01*
X010626Y022461D01*
X010681Y022516D01*
X010681Y022628D01*
X010626Y022683D01*
X010515Y022683D01*
X010459Y022628D01*
X010821Y022795D02*
X010821Y022461D01*
X011044Y022461D02*
X011044Y022795D01*
X010933Y022683D01*
X010821Y022795D01*
X011546Y022628D02*
X011546Y022572D01*
X011769Y022572D01*
X011769Y022628D02*
X011713Y022683D01*
X011602Y022683D01*
X011546Y022628D01*
X011602Y022461D02*
X011713Y022461D01*
X011769Y022516D01*
X011769Y022628D01*
X011909Y022683D02*
X012076Y022683D01*
X012131Y022628D01*
X012131Y022516D01*
X012076Y022461D01*
X011909Y022461D01*
X012271Y022461D02*
X012438Y022461D01*
X012494Y022516D01*
X012438Y022572D01*
X012271Y022572D01*
X012271Y022628D02*
X012271Y022461D01*
X012271Y022628D02*
X012327Y022683D01*
X012438Y022683D01*
X012624Y022628D02*
X012736Y022628D01*
X012680Y022739D02*
X012624Y022795D01*
X012680Y022739D02*
X012680Y022461D01*
X012871Y022683D02*
X012926Y022683D01*
X013038Y022572D01*
X013038Y022461D02*
X013038Y022683D01*
X013177Y022628D02*
X013177Y022572D01*
X013400Y022572D01*
X013400Y022628D02*
X013344Y022683D01*
X013233Y022683D01*
X013177Y022628D01*
X013233Y022461D02*
X013344Y022461D01*
X013400Y022516D01*
X013400Y022628D01*
X013530Y022683D02*
X013642Y022683D01*
X013586Y022739D02*
X013586Y022516D01*
X013530Y022461D01*
X013782Y022461D02*
X013782Y022628D01*
X013837Y022683D01*
X014004Y022683D01*
X014004Y022461D01*
X014135Y022461D02*
X014246Y022461D01*
X014190Y022461D02*
X014190Y022795D01*
X014135Y022795D02*
X014246Y022795D01*
X014748Y022683D02*
X014748Y022405D01*
X014804Y022349D01*
X014860Y022349D01*
X014915Y022461D02*
X014748Y022461D01*
X014915Y022461D02*
X014971Y022516D01*
X014971Y022683D01*
X015106Y022683D02*
X015162Y022683D01*
X015273Y022572D01*
X015273Y022461D02*
X015273Y022683D01*
X015413Y022628D02*
X015413Y022572D01*
X015635Y022572D01*
X015635Y022628D02*
X015580Y022683D01*
X015468Y022683D01*
X015413Y022628D01*
X015468Y022461D02*
X015580Y022461D01*
X015635Y022516D01*
X015635Y022628D01*
X015766Y022683D02*
X015877Y022683D01*
X015821Y022739D02*
X015821Y022516D01*
X015766Y022461D01*
X016007Y022461D02*
X016063Y022516D01*
X016063Y022739D01*
X016119Y022683D02*
X016007Y022683D01*
X016259Y022628D02*
X016259Y022461D01*
X016426Y022461D01*
X016481Y022516D01*
X016426Y022572D01*
X016259Y022572D01*
X016259Y022628D02*
X016314Y022683D01*
X016426Y022683D01*
X016621Y022683D02*
X016677Y022628D01*
X016844Y022628D01*
X016844Y022795D02*
X016677Y022795D01*
X016621Y022739D01*
X016621Y022683D01*
X016677Y022628D02*
X016621Y022572D01*
X016621Y022516D01*
X016677Y022461D01*
X016844Y022461D01*
X016844Y022795D01*
X013891Y019251D02*
X013891Y018917D01*
X013891Y019084D02*
X013668Y019084D01*
X013668Y019251D02*
X013668Y018917D01*
X013528Y018917D02*
X013417Y018917D01*
X013473Y018917D02*
X013473Y019251D01*
X013528Y019251D02*
X013417Y019251D01*
X013287Y019196D02*
X013287Y018973D01*
X013231Y018917D01*
X013120Y018917D01*
X013064Y018973D01*
X013064Y019084D01*
X013176Y019084D01*
X013287Y019196D02*
X013231Y019251D01*
X013120Y019251D01*
X013064Y019196D01*
X012924Y019251D02*
X012924Y018917D01*
X012924Y019084D02*
X012702Y019084D01*
X012702Y019251D02*
X012702Y018917D01*
X012199Y019029D02*
X012199Y019251D01*
X011977Y019251D02*
X011977Y019029D01*
X012088Y018917D01*
X012199Y019029D01*
X011837Y018973D02*
X011781Y018917D01*
X011670Y018917D01*
X011614Y018973D01*
X011614Y019196D01*
X011670Y019251D01*
X011781Y019251D01*
X011837Y019196D01*
X011837Y018973D01*
X011474Y018917D02*
X011474Y019251D01*
X011474Y018917D02*
X011252Y018917D01*
X011001Y018917D02*
X011001Y019251D01*
X011112Y019251D02*
X010889Y019251D01*
X010749Y019140D02*
X010638Y019251D01*
X010527Y019140D01*
X010527Y018917D01*
X010387Y018973D02*
X010331Y018917D01*
X010220Y018917D01*
X010164Y018973D01*
X010164Y019084D01*
X010276Y019084D01*
X010387Y018973D02*
X010387Y019196D01*
X010331Y019251D01*
X010220Y019251D01*
X010164Y019196D01*
X010024Y019251D02*
X010024Y018917D01*
X009802Y018917D01*
X009913Y019084D02*
X010024Y019084D01*
X010024Y019251D02*
X009802Y019251D01*
X010527Y019084D02*
X010749Y019084D01*
X010749Y019140D02*
X010749Y018917D01*
D15*
X011345Y017295D02*
X011275Y017002D01*
X011568Y017072D01*
X011345Y017295D01*
X011343Y017288D02*
X011351Y017288D01*
X011334Y017250D02*
X011389Y017250D01*
X011427Y017212D02*
X011325Y017212D01*
X011316Y017174D02*
X011465Y017174D01*
X011503Y017137D02*
X011307Y017137D01*
X011298Y017099D02*
X011541Y017099D01*
X011521Y017061D02*
X011289Y017061D01*
X011280Y017023D02*
X011362Y017023D01*
X011832Y016807D02*
X011763Y016515D01*
X012055Y016585D01*
X011832Y016807D01*
X011829Y016795D02*
X011844Y016795D01*
X011820Y016757D02*
X011882Y016757D01*
X011920Y016719D02*
X011811Y016719D01*
X011802Y016682D02*
X011958Y016682D01*
X011996Y016644D02*
X011793Y016644D01*
X011784Y016606D02*
X012034Y016606D01*
X011984Y016568D02*
X011775Y016568D01*
X011766Y016530D02*
X011825Y016530D01*
X012319Y016320D02*
X012250Y016028D01*
X012542Y016097D01*
X012319Y016320D01*
X012315Y016302D02*
X012337Y016302D01*
X012306Y016265D02*
X012375Y016265D01*
X012413Y016227D02*
X012297Y016227D01*
X012288Y016189D02*
X012451Y016189D01*
X012489Y016151D02*
X012279Y016151D01*
X012270Y016113D02*
X012527Y016113D01*
X012448Y016075D02*
X012261Y016075D01*
X012252Y016037D02*
X012288Y016037D01*
X012806Y015833D02*
X012737Y015541D01*
X013029Y015610D01*
X012806Y015833D01*
X012801Y015810D02*
X012830Y015810D01*
X012792Y015772D02*
X012868Y015772D01*
X012906Y015734D02*
X012783Y015734D01*
X012774Y015696D02*
X012944Y015696D01*
X012982Y015658D02*
X012765Y015658D01*
X012756Y015620D02*
X013019Y015620D01*
X012911Y015582D02*
X012747Y015582D01*
X012751Y015544D02*
X012738Y015544D01*
X013294Y015346D02*
X013224Y015054D01*
X013516Y015123D01*
X013294Y015346D01*
X013287Y015317D02*
X013323Y015317D01*
X013361Y015279D02*
X013278Y015279D01*
X013269Y015241D02*
X013399Y015241D01*
X013436Y015203D02*
X013260Y015203D01*
X013251Y015165D02*
X013474Y015165D01*
X013512Y015127D02*
X013242Y015127D01*
X013233Y015089D02*
X013374Y015089D01*
X013781Y014859D02*
X013711Y014566D01*
X014004Y014636D01*
X013781Y014859D01*
X013773Y014824D02*
X013816Y014824D01*
X013854Y014786D02*
X013764Y014786D01*
X013755Y014748D02*
X013891Y014748D01*
X013929Y014710D02*
X013745Y014710D01*
X013736Y014672D02*
X013967Y014672D01*
X013997Y014634D02*
X013727Y014634D01*
X013718Y014596D02*
X013837Y014596D01*
X015445Y015827D02*
X015751Y016133D01*
X016545Y015339D01*
X016238Y015033D01*
X015445Y015827D01*
X015889Y018198D02*
X016027Y018690D01*
X015889Y018592D01*
X015889Y019084D01*
X016185Y018887D01*
X016185Y020167D01*
X015693Y020167D01*
X015988Y019183D01*
X015594Y019478D01*
X015791Y018592D01*
X015614Y018651D01*
X015889Y018198D01*
X015900Y018236D02*
X015866Y018236D01*
X015843Y018274D02*
X015911Y018274D01*
X015921Y018312D02*
X015820Y018312D01*
X015797Y018350D02*
X015932Y018350D01*
X015942Y018388D02*
X015774Y018388D01*
X015751Y018426D02*
X015953Y018426D01*
X015964Y018464D02*
X015728Y018464D01*
X015705Y018501D02*
X015974Y018501D01*
X015985Y018539D02*
X015682Y018539D01*
X015659Y018577D02*
X015996Y018577D01*
X016006Y018615D02*
X015922Y018615D01*
X015889Y018615D02*
X015786Y018615D01*
X015777Y018653D02*
X015889Y018653D01*
X015889Y018691D02*
X015769Y018691D01*
X015761Y018729D02*
X015889Y018729D01*
X015889Y018767D02*
X015752Y018767D01*
X015744Y018805D02*
X015889Y018805D01*
X015889Y018843D02*
X015735Y018843D01*
X015727Y018881D02*
X015889Y018881D01*
X015889Y018918D02*
X015718Y018918D01*
X015710Y018956D02*
X015889Y018956D01*
X015889Y018994D02*
X015702Y018994D01*
X015693Y019032D02*
X015889Y019032D01*
X015889Y019070D02*
X015685Y019070D01*
X015676Y019108D02*
X016185Y019108D01*
X016185Y019070D02*
X015910Y019070D01*
X015967Y019032D02*
X016185Y019032D01*
X016185Y018994D02*
X016024Y018994D01*
X016081Y018956D02*
X016185Y018956D01*
X016185Y018918D02*
X016138Y018918D01*
X016185Y019146D02*
X015668Y019146D01*
X015659Y019184D02*
X015986Y019184D01*
X015987Y019184D02*
X016185Y019184D01*
X016185Y019222D02*
X015976Y019222D01*
X015965Y019260D02*
X016185Y019260D01*
X016185Y019298D02*
X015953Y019298D01*
X015942Y019336D02*
X016185Y019336D01*
X016185Y019373D02*
X015931Y019373D01*
X015919Y019411D02*
X016185Y019411D01*
X016185Y019449D02*
X015908Y019449D01*
X015896Y019487D02*
X016185Y019487D01*
X016185Y019525D02*
X015885Y019525D01*
X015874Y019563D02*
X016185Y019563D01*
X016185Y019601D02*
X015862Y019601D01*
X015851Y019639D02*
X016185Y019639D01*
X016185Y019677D02*
X015840Y019677D01*
X015828Y019715D02*
X016185Y019715D01*
X016185Y019753D02*
X015817Y019753D01*
X015805Y019790D02*
X016185Y019790D01*
X016185Y019828D02*
X015794Y019828D01*
X015783Y019866D02*
X016185Y019866D01*
X016185Y019904D02*
X015771Y019904D01*
X015760Y019942D02*
X016185Y019942D01*
X016185Y019980D02*
X015749Y019980D01*
X015737Y020018D02*
X016185Y020018D01*
X016185Y020056D02*
X015726Y020056D01*
X015714Y020094D02*
X016185Y020094D01*
X016185Y020132D02*
X015703Y020132D01*
X015632Y019449D02*
X015601Y019449D01*
X015609Y019411D02*
X015683Y019411D01*
X015733Y019373D02*
X015617Y019373D01*
X015626Y019336D02*
X015784Y019336D01*
X015834Y019298D02*
X015634Y019298D01*
X015643Y019260D02*
X015885Y019260D01*
X015936Y019222D02*
X015651Y019222D01*
X015636Y018615D02*
X015721Y018615D01*
X015975Y018653D02*
X016017Y018653D01*
X021618Y018395D02*
X021874Y018553D01*
X021874Y018238D01*
X021618Y018395D01*
X021630Y018388D02*
X021874Y018388D01*
X021874Y018426D02*
X021667Y018426D01*
X021729Y018464D02*
X021874Y018464D01*
X021874Y018501D02*
X021791Y018501D01*
X021852Y018539D02*
X021874Y018539D01*
X021874Y018350D02*
X021691Y018350D01*
X021753Y018312D02*
X021874Y018312D01*
X021874Y018274D02*
X021815Y018274D01*
X021874Y017864D02*
X021618Y017706D01*
X021874Y017549D01*
X021874Y017864D01*
X021874Y017857D02*
X021863Y017857D01*
X021874Y017819D02*
X021801Y017819D01*
X021740Y017781D02*
X021874Y017781D01*
X021874Y017743D02*
X021678Y017743D01*
X021619Y017705D02*
X021874Y017705D01*
X021874Y017667D02*
X021681Y017667D01*
X021743Y017629D02*
X021874Y017629D01*
X021874Y017591D02*
X021804Y017591D01*
X021866Y017554D02*
X021874Y017554D01*
X021874Y017175D02*
X021618Y017017D01*
X021874Y016860D01*
X021874Y017175D01*
X021873Y017174D02*
X021874Y017174D01*
X021874Y017137D02*
X021812Y017137D01*
X021750Y017099D02*
X021874Y017099D01*
X021874Y017061D02*
X021689Y017061D01*
X021627Y017023D02*
X021874Y017023D01*
X021874Y016985D02*
X021670Y016985D01*
X021732Y016947D02*
X021874Y016947D01*
X021874Y016909D02*
X021794Y016909D01*
X021855Y016871D02*
X021874Y016871D01*
X021874Y016486D02*
X021618Y016328D01*
X021874Y016171D01*
X021874Y016486D01*
X021874Y016454D02*
X021822Y016454D01*
X021874Y016416D02*
X021761Y016416D01*
X021699Y016378D02*
X021874Y016378D01*
X021874Y016340D02*
X021638Y016340D01*
X021660Y016302D02*
X021874Y016302D01*
X021874Y016265D02*
X021721Y016265D01*
X021783Y016227D02*
X021874Y016227D01*
X021874Y016189D02*
X021844Y016189D01*
X021874Y015797D02*
X021618Y015639D01*
X021874Y015482D01*
X021874Y015797D01*
X021874Y015772D02*
X021833Y015772D01*
X021874Y015734D02*
X021771Y015734D01*
X021710Y015696D02*
X021874Y015696D01*
X021874Y015658D02*
X021648Y015658D01*
X021649Y015620D02*
X021874Y015620D01*
X021874Y015582D02*
X021711Y015582D01*
X021772Y015544D02*
X021874Y015544D01*
X021874Y015506D02*
X021834Y015506D01*
X021874Y015108D02*
X021618Y014950D01*
X021874Y014793D01*
X021874Y015108D01*
X021874Y015089D02*
X021844Y015089D01*
X021874Y015051D02*
X021782Y015051D01*
X021720Y015013D02*
X021874Y015013D01*
X021874Y014975D02*
X021659Y014975D01*
X021638Y014938D02*
X021874Y014938D01*
X021874Y014900D02*
X021700Y014900D01*
X021762Y014862D02*
X021874Y014862D01*
X021874Y014824D02*
X021823Y014824D01*
X021460Y013986D02*
X021460Y013553D01*
X020338Y013553D01*
X020338Y013986D01*
X021460Y013986D01*
X021480Y012608D02*
X020358Y012608D01*
X020358Y012175D01*
X021480Y012175D01*
X021480Y012608D01*
X022307Y011407D02*
X022563Y011564D01*
X022563Y011249D01*
X022307Y011407D01*
X022314Y011412D02*
X022563Y011412D01*
X022563Y011450D02*
X022376Y011450D01*
X022438Y011487D02*
X022563Y011487D01*
X022563Y011525D02*
X022499Y011525D01*
X022561Y011563D02*
X022563Y011563D01*
X022563Y011374D02*
X022361Y011374D01*
X022422Y011336D02*
X022563Y011336D01*
X022563Y011298D02*
X022484Y011298D01*
X022546Y011260D02*
X022563Y011260D01*
X022563Y010875D02*
X022307Y010718D01*
X022563Y010560D01*
X022563Y010875D01*
X022563Y010843D02*
X022510Y010843D01*
X022563Y010805D02*
X022448Y010805D01*
X022387Y010767D02*
X022563Y010767D01*
X022563Y010729D02*
X022325Y010729D01*
X022350Y010691D02*
X022563Y010691D01*
X022563Y010653D02*
X022412Y010653D01*
X022473Y010615D02*
X022563Y010615D01*
X022563Y010578D02*
X022535Y010578D01*
X022563Y010186D02*
X022307Y010029D01*
X022563Y009871D01*
X022563Y010186D01*
X022563Y010160D02*
X022520Y010160D01*
X022563Y010123D02*
X022459Y010123D01*
X022397Y010085D02*
X022563Y010085D01*
X022563Y010047D02*
X022336Y010047D01*
X022340Y010009D02*
X022563Y010009D01*
X022563Y009971D02*
X022401Y009971D01*
X022463Y009933D02*
X022563Y009933D01*
X022563Y009895D02*
X022524Y009895D01*
X022563Y009497D02*
X022307Y009340D01*
X022563Y009183D01*
X022563Y009497D01*
X022563Y009478D02*
X022531Y009478D01*
X022563Y009440D02*
X022469Y009440D01*
X022408Y009402D02*
X022563Y009402D01*
X022563Y009364D02*
X022346Y009364D01*
X022329Y009326D02*
X022563Y009326D01*
X022563Y009288D02*
X022391Y009288D01*
X022452Y009251D02*
X022563Y009251D01*
X022563Y009213D02*
X022514Y009213D01*
X022563Y008809D02*
X022307Y008651D01*
X022563Y008494D01*
X022563Y008809D01*
X022563Y008796D02*
X022542Y008796D01*
X022563Y008758D02*
X022480Y008758D01*
X022418Y008720D02*
X022563Y008720D01*
X022563Y008682D02*
X022357Y008682D01*
X022318Y008644D02*
X022563Y008644D01*
X022563Y008606D02*
X022380Y008606D01*
X022442Y008568D02*
X022563Y008568D01*
X022563Y008530D02*
X022503Y008530D01*
X022563Y008120D02*
X022307Y007962D01*
X022563Y007805D01*
X022563Y008120D01*
X022563Y008113D02*
X022552Y008113D01*
X022563Y008075D02*
X022491Y008075D01*
X022429Y008037D02*
X022563Y008037D01*
X022563Y007999D02*
X022367Y007999D01*
X022308Y007961D02*
X022563Y007961D01*
X022563Y007924D02*
X022369Y007924D01*
X022431Y007886D02*
X022563Y007886D01*
X022563Y007848D02*
X022493Y007848D01*
X022554Y007810D02*
X022563Y007810D01*
X018212Y004478D02*
X017386Y005305D01*
X016874Y004832D02*
X017700Y004005D01*
X017267Y003533D02*
X016441Y004360D01*
X009315Y004005D02*
X009315Y005029D01*
X008724Y005029D02*
X008724Y004005D01*
X008134Y004005D02*
X008134Y005029D01*
X008134Y006092D02*
X008134Y007116D01*
X008724Y007116D02*
X008724Y006092D01*
X009315Y006092D02*
X009315Y007116D01*
X011064Y009288D02*
X010995Y009581D01*
X011287Y009511D01*
X011064Y009288D01*
X011065Y009288D01*
X011055Y009326D02*
X011103Y009326D01*
X011141Y009364D02*
X011046Y009364D01*
X011037Y009402D02*
X011178Y009402D01*
X011216Y009440D02*
X011028Y009440D01*
X011019Y009478D02*
X011254Y009478D01*
X011266Y009516D02*
X011010Y009516D01*
X011001Y009554D02*
X011107Y009554D01*
X011552Y009775D02*
X011482Y010068D01*
X011774Y009998D01*
X011552Y009775D01*
X011550Y009781D02*
X011558Y009781D01*
X011541Y009819D02*
X011595Y009819D01*
X011633Y009857D02*
X011532Y009857D01*
X011523Y009895D02*
X011671Y009895D01*
X011709Y009933D02*
X011514Y009933D01*
X011505Y009971D02*
X011747Y009971D01*
X011730Y010009D02*
X011496Y010009D01*
X011487Y010047D02*
X011570Y010047D01*
X012039Y010263D02*
X011969Y010555D01*
X012262Y010485D01*
X012039Y010263D01*
X012036Y010274D02*
X012050Y010274D01*
X012027Y010312D02*
X012088Y010312D01*
X012126Y010350D02*
X012018Y010350D01*
X012009Y010388D02*
X012164Y010388D01*
X012202Y010426D02*
X012000Y010426D01*
X011991Y010464D02*
X012240Y010464D01*
X012193Y010502D02*
X011982Y010502D01*
X011973Y010540D02*
X012033Y010540D01*
X012526Y010750D02*
X012456Y011042D01*
X012749Y010973D01*
X012526Y010750D01*
X012522Y010767D02*
X012543Y010767D01*
X012513Y010805D02*
X012581Y010805D01*
X012619Y010843D02*
X012504Y010843D01*
X012495Y010881D02*
X012657Y010881D01*
X012695Y010919D02*
X012486Y010919D01*
X012477Y010957D02*
X012733Y010957D01*
X012656Y010995D02*
X012468Y010995D01*
X012459Y011032D02*
X012497Y011032D01*
X013013Y011237D02*
X012944Y011529D01*
X013236Y011460D01*
X013013Y011237D01*
X013008Y011260D02*
X013036Y011260D01*
X012999Y011298D02*
X013074Y011298D01*
X013112Y011336D02*
X012990Y011336D01*
X012981Y011374D02*
X013150Y011374D01*
X013188Y011412D02*
X012972Y011412D01*
X012963Y011450D02*
X013226Y011450D01*
X013119Y011487D02*
X012954Y011487D01*
X012960Y011525D02*
X012945Y011525D01*
X013500Y011724D02*
X013431Y012016D01*
X013723Y011947D01*
X013500Y011724D01*
X013494Y011753D02*
X013529Y011753D01*
X013567Y011791D02*
X013485Y011791D01*
X013476Y011829D02*
X013605Y011829D01*
X013643Y011867D02*
X013466Y011867D01*
X013457Y011904D02*
X013681Y011904D01*
X013719Y011942D02*
X013448Y011942D01*
X013439Y011980D02*
X013582Y011980D01*
X016854Y010974D02*
X017287Y010974D01*
X017287Y009852D01*
X016854Y009852D01*
X016854Y010974D01*
X030771Y007352D02*
X031913Y007352D01*
X031913Y006801D02*
X030771Y006801D01*
X030811Y006171D02*
X031952Y006171D01*
X031913Y005580D02*
X030771Y005580D01*
X030771Y005029D02*
X031913Y005029D01*
X031913Y004753D02*
X031913Y003651D01*
X031362Y003651D02*
X031362Y004753D01*
X030771Y004753D02*
X030771Y003651D01*
X037031Y003927D02*
X037031Y005029D01*
X037504Y005029D02*
X037504Y003927D01*
X038015Y003927D02*
X038015Y005029D01*
X039393Y010620D02*
X040417Y010620D01*
X040417Y011210D02*
X039393Y011210D01*
X039393Y011801D02*
X040417Y011801D01*
X034571Y015147D02*
X034315Y014990D01*
X034315Y015305D01*
X034571Y015147D01*
X034541Y015165D02*
X034315Y015165D01*
X034315Y015127D02*
X034538Y015127D01*
X034477Y015089D02*
X034315Y015089D01*
X034315Y015051D02*
X034415Y015051D01*
X034353Y015013D02*
X034315Y015013D01*
X034315Y015203D02*
X034480Y015203D01*
X034418Y015241D02*
X034315Y015241D01*
X034315Y015279D02*
X034357Y015279D01*
X034019Y019143D02*
X034019Y020324D01*
X033232Y020324D02*
X033232Y019143D01*
X032464Y019123D02*
X032464Y020305D01*
X032504Y020541D02*
X032504Y021564D01*
X031952Y021564D02*
X031952Y020541D01*
X031323Y020541D02*
X031323Y021564D01*
D16*
X013861Y019910D02*
X013861Y019439D01*
X013625Y019439D01*
X013547Y019518D01*
X013547Y019832D01*
X013625Y019910D01*
X013861Y019910D01*
X013317Y019753D02*
X013160Y019910D01*
X013003Y019753D01*
X013003Y019439D01*
X012773Y019439D02*
X012773Y019910D01*
X012460Y019439D01*
X012460Y019910D01*
X012230Y019832D02*
X012230Y019518D01*
X012151Y019439D01*
X011994Y019439D01*
X011916Y019518D01*
X011916Y019675D01*
X012073Y019675D01*
X012230Y019832D02*
X012151Y019910D01*
X011994Y019910D01*
X011916Y019832D01*
X011686Y019910D02*
X011686Y019439D01*
X011372Y019439D01*
X011142Y019439D02*
X011142Y019910D01*
X010907Y019910D01*
X010828Y019832D01*
X010828Y019675D01*
X010907Y019596D01*
X011142Y019596D01*
X010985Y019596D02*
X010828Y019439D01*
X011529Y019675D02*
X011686Y019675D01*
X011686Y019910D02*
X011372Y019910D01*
X013003Y019675D02*
X013317Y019675D01*
X013317Y019753D02*
X013317Y019439D01*
D17*
X035652Y007965D02*
X035652Y003878D01*
D18*
X036643Y003421D02*
X032143Y003421D01*
X039259Y008690D02*
X039261Y008704D01*
X039267Y008718D01*
X039275Y008730D01*
X039287Y008738D01*
X039301Y008744D01*
X039315Y008746D01*
X039329Y008744D01*
X039343Y008738D01*
X039355Y008730D01*
X039363Y008718D01*
X039369Y008704D01*
X039371Y008690D01*
X039369Y008676D01*
X039363Y008662D01*
X039355Y008650D01*
X039343Y008642D01*
X039329Y008636D01*
X039315Y008634D01*
X039301Y008636D01*
X039287Y008642D01*
X039275Y008650D01*
X039267Y008662D01*
X039261Y008676D01*
X039259Y008690D01*
X033629Y021131D02*
X033631Y021145D01*
X033637Y021159D01*
X033645Y021171D01*
X033657Y021179D01*
X033671Y021185D01*
X033685Y021187D01*
X033699Y021185D01*
X033713Y021179D01*
X033725Y021171D01*
X033733Y021159D01*
X033739Y021145D01*
X033741Y021131D01*
X033739Y021117D01*
X033733Y021103D01*
X033725Y021091D01*
X033713Y021083D01*
X033699Y021077D01*
X033685Y021075D01*
X033671Y021077D01*
X033657Y021083D01*
X033645Y021091D01*
X033637Y021103D01*
X033631Y021117D01*
X033629Y021131D01*
D19*
X035023Y021108D02*
X036106Y021108D01*
D20*
X034846Y022312D02*
X034531Y022549D01*
X034846Y022785D01*
X034846Y022312D01*
X034531Y022312D02*
X034531Y022785D01*
D21*
X019920Y005188D02*
X019812Y005188D01*
X019812Y005152D02*
X019812Y005224D01*
X019723Y005206D02*
X019705Y005224D01*
X019633Y005152D01*
X019615Y005170D01*
X019615Y005206D01*
X019633Y005224D01*
X019705Y005224D01*
X019723Y005206D02*
X019723Y005170D01*
X019705Y005152D01*
X019633Y005152D01*
X019669Y005115D02*
X019669Y005043D01*
X019723Y005097D01*
X019615Y005097D01*
X019526Y005097D02*
X019472Y005043D01*
X019472Y005115D01*
X019508Y005152D02*
X019526Y005170D01*
X019526Y005206D01*
X019508Y005224D01*
X019490Y005224D01*
X019418Y005152D01*
X019418Y005224D01*
X019329Y005206D02*
X019311Y005224D01*
X019293Y005224D01*
X019275Y005206D01*
X019257Y005224D01*
X019239Y005224D01*
X019221Y005206D01*
X019221Y005170D01*
X019239Y005152D01*
X019275Y005188D02*
X019275Y005206D01*
X019329Y005206D02*
X019329Y005170D01*
X019311Y005152D01*
X019275Y005115D02*
X019275Y005043D01*
X019329Y005097D01*
X019221Y005097D01*
X019221Y005006D02*
X019221Y004934D01*
X019221Y004970D02*
X019329Y004970D01*
X019293Y004934D01*
X019275Y004897D02*
X019257Y004879D01*
X019257Y004825D01*
X019221Y004825D02*
X019329Y004825D01*
X019329Y004879D01*
X019311Y004897D01*
X019275Y004897D01*
X019257Y004861D02*
X019221Y004897D01*
X019418Y004897D02*
X019454Y004861D01*
X019454Y004879D02*
X019454Y004825D01*
X019418Y004825D02*
X019526Y004825D01*
X019526Y004879D01*
X019508Y004897D01*
X019472Y004897D01*
X019454Y004879D01*
X019418Y004934D02*
X019418Y005006D01*
X019418Y004970D02*
X019526Y004970D01*
X019490Y004934D01*
X019615Y004934D02*
X019615Y005006D01*
X019615Y004970D02*
X019723Y004970D01*
X019687Y004934D01*
X019669Y004897D02*
X019651Y004879D01*
X019651Y004825D01*
X019615Y004825D02*
X019723Y004825D01*
X019723Y004879D01*
X019705Y004897D01*
X019669Y004897D01*
X019651Y004861D02*
X019615Y004897D01*
X019812Y004897D02*
X019848Y004861D01*
X019848Y004879D02*
X019848Y004825D01*
X019812Y004825D02*
X019920Y004825D01*
X019920Y004879D01*
X019902Y004897D01*
X019866Y004897D01*
X019848Y004879D01*
X019884Y004934D02*
X019920Y004970D01*
X019812Y004970D01*
X019812Y004934D02*
X019812Y005006D01*
X019866Y005043D02*
X019866Y005115D01*
X019884Y005152D02*
X019920Y005188D01*
X019920Y005097D02*
X019866Y005043D01*
X019812Y005097D02*
X019920Y005097D01*
X019526Y005097D02*
X019418Y005097D01*
D22*
X022287Y007785D02*
X022287Y008139D01*
X022287Y008474D02*
X022287Y008828D01*
X022287Y009163D02*
X022287Y009517D01*
X022287Y009852D02*
X022287Y010206D01*
X022287Y010541D02*
X022287Y010895D01*
X022287Y011230D02*
X022287Y011584D01*
X021598Y014773D02*
X021598Y015127D01*
X021598Y015462D02*
X021598Y015816D01*
X021598Y016151D02*
X021598Y016505D01*
X021598Y016840D02*
X021598Y017194D01*
X021598Y017529D02*
X021598Y017883D01*
X021598Y018218D02*
X021598Y018572D01*
X013823Y014427D02*
X013572Y014678D01*
X013335Y014914D02*
X013085Y015165D01*
X012848Y015401D02*
X012598Y015652D01*
X012361Y015889D02*
X012111Y016139D01*
X011874Y016376D02*
X011623Y016626D01*
X011387Y016863D02*
X011136Y017114D01*
X013542Y012156D02*
X013292Y011905D01*
X013055Y011668D02*
X012804Y011418D01*
X012568Y011181D02*
X012317Y010931D01*
X012081Y010694D02*
X011830Y010444D01*
X011593Y010207D02*
X011343Y009956D01*
X011106Y009720D02*
X010856Y009469D01*
X034590Y014970D02*
X034590Y015324D01*
D23*
X037427Y016623D02*
X037429Y016641D01*
X037435Y016657D01*
X037444Y016672D01*
X037457Y016685D01*
X037472Y016694D01*
X037488Y016700D01*
X037506Y016702D01*
X037524Y016700D01*
X037540Y016694D01*
X037555Y016685D01*
X037568Y016672D01*
X037577Y016657D01*
X037583Y016641D01*
X037585Y016623D01*
X037583Y016605D01*
X037577Y016589D01*
X037568Y016574D01*
X037555Y016561D01*
X037540Y016552D01*
X037524Y016546D01*
X037506Y016544D01*
X037488Y016546D01*
X037472Y016552D01*
X037457Y016561D01*
X037444Y016574D01*
X037435Y016589D01*
X037429Y016605D01*
X037427Y016623D01*
D24*
X017738Y018517D02*
X016216Y020767D01*
X016215Y020768D02*
X016192Y020799D01*
X016166Y020827D01*
X016138Y020853D01*
X016107Y020875D01*
X016074Y020895D01*
X016039Y020911D01*
X016003Y020924D01*
X015965Y020934D01*
X015927Y020939D01*
X015889Y020941D01*
X015851Y020939D01*
X015813Y020934D01*
X015775Y020924D01*
X015739Y020911D01*
X015704Y020895D01*
X015671Y020875D01*
X015640Y020853D01*
X015612Y020827D01*
X015586Y020799D01*
X015563Y020768D01*
X015563Y020767D02*
X014041Y018517D01*
X014041Y018518D02*
X014021Y018485D01*
X014004Y018450D01*
X013991Y018413D01*
X013981Y018376D01*
X013975Y018337D01*
X013973Y018299D01*
X013975Y018260D01*
X013980Y018222D01*
X013990Y018184D01*
X014003Y018147D01*
X014019Y018112D01*
X014039Y018079D01*
X014062Y018048D01*
X014088Y018019D01*
X014116Y017993D01*
X014148Y017970D01*
X014181Y017950D01*
X014216Y017933D01*
X014252Y017920D01*
X014290Y017911D01*
X014328Y017905D01*
X014367Y017903D01*
X017412Y017903D01*
X017451Y017905D01*
X017489Y017911D01*
X017527Y017920D01*
X017563Y017933D01*
X017598Y017950D01*
X017631Y017970D01*
X017663Y017993D01*
X017691Y018019D01*
X017717Y018048D01*
X017740Y018079D01*
X017760Y018112D01*
X017776Y018147D01*
X017789Y018184D01*
X017799Y018222D01*
X017804Y018260D01*
X017806Y018299D01*
X017804Y018337D01*
X017798Y018376D01*
X017788Y018413D01*
X017775Y018450D01*
X017758Y018485D01*
X017738Y018518D01*
M02*
