G75*
G70*
%OFA0B0*%
%FSLAX24Y24*%
%IPPOS*%
%LPD*%
%AMOC8*
5,1,8,0,0,1.08239X$1,22.5*
%
%ADD10C,0.0946*%
%ADD11R,0.0356X0.0434*%
%ADD12R,0.0434X0.0356*%
%ADD13R,0.0592X0.0671*%
%ADD14R,0.0513X0.0474*%
%ADD15R,0.0474X0.0513*%
%ADD16R,0.0631X0.0671*%
%ADD17R,0.0671X0.0631*%
%ADD18R,0.0946X0.0316*%
%ADD19R,0.0379X0.0379*%
%ADD20R,0.0379X0.0379*%
%ADD21R,0.0493X0.0316*%
%ADD22R,0.0671X0.0592*%
%ADD23R,0.0277X0.0474*%
%ADD24R,0.0749X0.1064*%
%ADD25C,0.0680*%
%ADD26R,0.0710X0.0789*%
%ADD27R,0.0631X0.0631*%
%ADD28C,0.0552*%
%ADD29R,0.0930X0.0970*%
%ADD30C,0.0789*%
%ADD31C,0.1005*%
%ADD32C,0.1182*%
%ADD33C,0.0848*%
%ADD34R,0.0328X0.0407*%
%ADD35R,0.0297X0.0671*%
%ADD36C,0.0830*%
D10*
X011165Y005305D03*
X022976Y005305D03*
X031637Y013179D03*
X022976Y021053D03*
X011165Y021053D03*
X011165Y013179D03*
D11*
X016618Y009537D03*
X017130Y009537D03*
X018685Y009438D03*
X019197Y009438D03*
X019197Y008946D03*
X019197Y008454D03*
X018685Y008454D03*
X018685Y008946D03*
X018685Y007962D03*
X019197Y007962D03*
X029118Y006584D03*
X029630Y006584D03*
X029630Y006092D03*
X029630Y005600D03*
X029118Y005600D03*
X029118Y006092D03*
X029118Y005108D03*
X029630Y005108D03*
X030102Y014557D03*
X030102Y014999D03*
X030614Y014999D03*
X030614Y014557D03*
X025594Y020462D03*
X025594Y020954D03*
X025082Y020954D03*
X025082Y020462D03*
X025082Y021446D03*
X025594Y021446D03*
X025594Y021938D03*
X025082Y021938D03*
X019393Y018297D03*
X018882Y018297D03*
X018882Y017805D03*
X018882Y017312D03*
X019393Y017312D03*
X019393Y017805D03*
X019393Y016820D03*
X018882Y016820D03*
D12*
X023173Y012844D03*
X023665Y012844D03*
X023665Y012332D03*
X023173Y012332D03*
X026027Y012923D03*
X026519Y012923D03*
X027011Y012923D03*
X027504Y012923D03*
X027996Y012923D03*
X028488Y012923D03*
X028980Y012923D03*
X029472Y012923D03*
X029472Y013434D03*
X028980Y013434D03*
X028488Y013434D03*
X027996Y013434D03*
X027504Y013434D03*
X027011Y013434D03*
X026519Y013434D03*
X026027Y013434D03*
X027504Y018631D03*
X027996Y018631D03*
X028488Y018631D03*
X028980Y018631D03*
X028980Y019143D03*
X028488Y019143D03*
X027996Y019143D03*
X027504Y019143D03*
X027454Y007873D03*
X028045Y007873D03*
X028045Y007362D03*
X027454Y007362D03*
X026913Y005462D03*
X026421Y005462D03*
X026421Y004950D03*
X026913Y004950D03*
X025535Y004950D03*
X025043Y004950D03*
X025043Y005462D03*
X025535Y005462D03*
X019630Y005639D03*
X019187Y005639D03*
X018744Y005639D03*
X018301Y005639D03*
X018301Y006151D03*
X018744Y006151D03*
X019187Y006151D03*
X019630Y006151D03*
D13*
X023980Y007962D03*
X024728Y007962D03*
D14*
X031008Y007076D03*
X031677Y007076D03*
X031677Y006486D03*
X031677Y005895D03*
X031008Y005895D03*
X031008Y006486D03*
X031008Y005305D03*
X031677Y005305D03*
X035092Y009772D03*
X035762Y009772D03*
X036421Y009734D03*
X037090Y009734D03*
X040358Y006387D03*
X041027Y006387D03*
X041086Y005738D03*
X041086Y005068D03*
X039708Y005068D03*
X039708Y005738D03*
X035112Y013731D03*
X034443Y013731D03*
X032228Y020718D03*
X031637Y020718D03*
X031637Y021387D03*
X032228Y021387D03*
X020319Y021486D03*
X019728Y021486D03*
X019728Y020816D03*
X020319Y020816D03*
X009295Y020915D03*
X009295Y020403D03*
X008704Y020403D03*
X008704Y020915D03*
X008704Y021584D03*
X009295Y021584D03*
X009295Y019734D03*
X009295Y019222D03*
X008704Y019222D03*
X008704Y019734D03*
X008704Y018553D03*
X009295Y018553D03*
X021893Y012726D03*
X021893Y012057D03*
X018055Y010757D03*
X018055Y010088D03*
X009000Y006919D03*
X008409Y006919D03*
X008409Y006249D03*
X009000Y006249D03*
X009000Y004852D03*
X008409Y004852D03*
X008409Y004183D03*
X009000Y004183D03*
D15*
G36*
X016821Y004061D02*
X016486Y004396D01*
X016847Y004757D01*
X017182Y004422D01*
X016821Y004061D01*
G37*
G36*
X017294Y003588D02*
X016959Y003923D01*
X017320Y004284D01*
X017655Y003949D01*
X017294Y003588D01*
G37*
G36*
X017786Y004080D02*
X017451Y004415D01*
X017812Y004776D01*
X018147Y004441D01*
X017786Y004080D01*
G37*
G36*
X017313Y004553D02*
X016978Y004888D01*
X017339Y005249D01*
X017674Y004914D01*
X017313Y004553D01*
G37*
X023527Y008946D03*
X023527Y009438D03*
X023527Y009931D03*
X023527Y010423D03*
X023527Y010915D03*
X023527Y011407D03*
X024197Y011407D03*
X024197Y010915D03*
X024197Y010423D03*
X024197Y009931D03*
X024197Y009438D03*
X024197Y008946D03*
X018980Y012686D03*
X018311Y012686D03*
X019295Y013671D03*
X019295Y014183D03*
X019964Y014183D03*
X019964Y013671D03*
G36*
X017262Y015075D02*
X016927Y014740D01*
X016566Y015101D01*
X016901Y015436D01*
X017262Y015075D01*
G37*
G36*
X016788Y014602D02*
X016453Y014267D01*
X016092Y014628D01*
X016427Y014963D01*
X016788Y014602D01*
G37*
X017671Y016328D03*
X018340Y016328D03*
G36*
X014004Y016612D02*
X014339Y016947D01*
X014700Y016586D01*
X014365Y016251D01*
X014004Y016612D01*
G37*
G36*
X013656Y016960D02*
X013991Y017295D01*
X014352Y016934D01*
X014017Y016599D01*
X013656Y016960D01*
G37*
G36*
X013308Y017308D02*
X013643Y017643D01*
X014004Y017282D01*
X013669Y016947D01*
X013308Y017308D01*
G37*
G36*
X012960Y017656D02*
X013295Y017991D01*
X013656Y017630D01*
X013321Y017295D01*
X012960Y017656D01*
G37*
G36*
X012612Y018004D02*
X012947Y018339D01*
X013308Y017978D01*
X012973Y017643D01*
X012612Y018004D01*
G37*
G36*
X012264Y018352D02*
X012599Y018687D01*
X012960Y018326D01*
X012625Y017991D01*
X012264Y018352D01*
G37*
G36*
X011790Y017878D02*
X012125Y018213D01*
X012486Y017852D01*
X012151Y017517D01*
X011790Y017878D01*
G37*
G36*
X012138Y017530D02*
X012473Y017865D01*
X012834Y017504D01*
X012499Y017169D01*
X012138Y017530D01*
G37*
G36*
X012486Y017182D02*
X012821Y017517D01*
X013182Y017156D01*
X012847Y016821D01*
X012486Y017182D01*
G37*
G36*
X012834Y016834D02*
X013169Y017169D01*
X013530Y016808D01*
X013195Y016473D01*
X012834Y016834D01*
G37*
G36*
X013182Y016486D02*
X013517Y016821D01*
X013878Y016460D01*
X013543Y016125D01*
X013182Y016486D01*
G37*
G36*
X013530Y016138D02*
X013865Y016473D01*
X014226Y016112D01*
X013891Y015777D01*
X013530Y016138D01*
G37*
G36*
X014350Y010875D02*
X014015Y011210D01*
X014376Y011571D01*
X014711Y011236D01*
X014350Y010875D01*
G37*
G36*
X014002Y010527D02*
X013667Y010862D01*
X014028Y011223D01*
X014363Y010888D01*
X014002Y010527D01*
G37*
G36*
X013654Y010179D02*
X013319Y010514D01*
X013680Y010875D01*
X014015Y010540D01*
X013654Y010179D01*
G37*
G36*
X013306Y009831D02*
X012971Y010166D01*
X013332Y010527D01*
X013667Y010192D01*
X013306Y009831D01*
G37*
G36*
X012958Y009483D02*
X012623Y009818D01*
X012984Y010179D01*
X013319Y009844D01*
X012958Y009483D01*
G37*
G36*
X012610Y009135D02*
X012275Y009470D01*
X012636Y009831D01*
X012971Y009496D01*
X012610Y009135D01*
G37*
G36*
X013084Y008662D02*
X012749Y008997D01*
X013110Y009358D01*
X013445Y009023D01*
X013084Y008662D01*
G37*
G36*
X013432Y009010D02*
X013097Y009345D01*
X013458Y009706D01*
X013793Y009371D01*
X013432Y009010D01*
G37*
G36*
X013780Y009358D02*
X013445Y009693D01*
X013806Y010054D01*
X014141Y009719D01*
X013780Y009358D01*
G37*
G36*
X014128Y009706D02*
X013793Y010041D01*
X014154Y010402D01*
X014489Y010067D01*
X014128Y009706D01*
G37*
G36*
X014476Y010054D02*
X014141Y010389D01*
X014502Y010750D01*
X014837Y010415D01*
X014476Y010054D01*
G37*
G36*
X014824Y010402D02*
X014489Y010737D01*
X014850Y011098D01*
X015185Y010763D01*
X014824Y010402D01*
G37*
X023429Y016033D03*
X024098Y016033D03*
X024098Y016525D03*
X023429Y016525D03*
X023429Y017017D03*
X023429Y017509D03*
X024098Y017509D03*
X024098Y017017D03*
X024098Y018001D03*
X024098Y018494D03*
X023429Y018494D03*
X023429Y018001D03*
X034393Y020895D03*
X034393Y021564D03*
X038035Y017057D03*
X038035Y016387D03*
X036106Y015147D03*
X035437Y015147D03*
X037740Y013513D03*
X037740Y012844D03*
X037828Y011779D03*
X037828Y011110D03*
X039571Y010915D03*
X039571Y011505D03*
X040240Y011505D03*
X040240Y010915D03*
X034010Y010815D03*
X034010Y011484D03*
X038429Y015088D03*
X039098Y015088D03*
X037740Y004812D03*
X037287Y004812D03*
X037287Y004143D03*
X037740Y004143D03*
X031637Y003887D03*
X031047Y003887D03*
X031047Y004557D03*
X031637Y004557D03*
D16*
X034945Y010362D03*
X035752Y010362D03*
X035259Y012786D03*
X034452Y012786D03*
X038451Y014381D03*
X039259Y014381D03*
D17*
X037149Y013582D03*
X037149Y012775D03*
D18*
X036204Y007671D03*
X036204Y007171D03*
X036204Y006671D03*
X036204Y006171D03*
X036204Y005671D03*
X036204Y005171D03*
X036204Y004671D03*
X036204Y004171D03*
X032582Y004171D03*
X032582Y004671D03*
X032582Y005171D03*
X032582Y005671D03*
X032582Y006171D03*
X032582Y006671D03*
X032582Y007171D03*
X032582Y007671D03*
D19*
X021283Y011940D03*
X020535Y011940D03*
X020909Y012842D03*
X020909Y013318D03*
X020535Y014220D03*
X021283Y014220D03*
X016620Y010797D03*
X016620Y010049D03*
X017521Y010423D03*
D20*
G36*
X015934Y015274D02*
X016201Y015007D01*
X015934Y014740D01*
X015667Y015007D01*
X015934Y015274D01*
G37*
G36*
X015405Y015803D02*
X015672Y015536D01*
X015405Y015269D01*
X015138Y015536D01*
X015405Y015803D01*
G37*
G36*
X016307Y016176D02*
X016574Y015909D01*
X016307Y015642D01*
X016040Y015909D01*
X016307Y016176D01*
G37*
D21*
X038960Y009438D03*
X038960Y009064D03*
X038960Y008690D03*
X040023Y008690D03*
X040023Y009064D03*
X040023Y009438D03*
D22*
X042071Y008198D03*
X042071Y007529D03*
X042563Y017568D03*
X042563Y018238D03*
X033626Y019320D03*
X033626Y020068D03*
X032838Y020068D03*
X032838Y019320D03*
D23*
X032937Y020816D03*
X033311Y020816D03*
X033685Y020816D03*
X033685Y021643D03*
X033311Y021643D03*
X032937Y021643D03*
D24*
X035574Y021545D03*
X035574Y019970D03*
D25*
X036761Y020299D02*
X038443Y020299D01*
X038443Y020073D01*
X036761Y020073D01*
X036761Y020299D01*
X036761Y021835D02*
X038443Y021835D01*
X038443Y021609D01*
X036761Y021609D01*
X036761Y021835D01*
D26*
X033074Y022411D03*
X031972Y022411D03*
D27*
X033862Y022549D03*
X035358Y022549D03*
D28*
X006637Y004911D03*
X007622Y004911D03*
X007622Y005698D03*
X007622Y006486D03*
X006637Y006486D03*
X006637Y005698D03*
X006637Y007273D03*
X007622Y007273D03*
X007622Y008060D03*
X007622Y008848D03*
X006637Y008848D03*
X006637Y008060D03*
X006637Y009635D03*
X006637Y010423D03*
X007622Y010423D03*
X007622Y009635D03*
X007622Y011210D03*
X007622Y011997D03*
X006637Y011997D03*
X006637Y011210D03*
X006637Y014360D03*
X007622Y014360D03*
X007622Y015147D03*
X007622Y015934D03*
X006637Y015934D03*
X006637Y015147D03*
X006637Y016722D03*
X006637Y017509D03*
X007622Y017509D03*
X007622Y016722D03*
X007622Y018297D03*
X007622Y019084D03*
X006637Y019084D03*
X006637Y018297D03*
X006637Y019871D03*
X006637Y020659D03*
X007622Y020659D03*
X007622Y019871D03*
X007622Y021446D03*
X006637Y021446D03*
D29*
X034787Y018076D03*
X034787Y016156D03*
X039511Y016156D03*
X039511Y018076D03*
D30*
X040390Y013875D03*
X041086Y013179D03*
X041782Y013875D03*
X041782Y012483D03*
X040390Y012483D03*
D31*
X041086Y010226D03*
X041086Y016131D03*
D32*
X042661Y016131D03*
X042661Y010226D03*
D33*
X042661Y013179D03*
D34*
X034832Y015147D03*
X033954Y015147D03*
X022923Y011407D03*
X022923Y010718D03*
X022923Y010029D03*
X022923Y009340D03*
X022045Y009340D03*
X022045Y010029D03*
X022045Y010718D03*
X022045Y011407D03*
X022045Y008651D03*
X022045Y007962D03*
X022923Y007962D03*
X022923Y008651D03*
G36*
X013893Y011840D02*
X014125Y011608D01*
X013839Y011322D01*
X013607Y011554D01*
X013893Y011840D01*
G37*
G36*
X013273Y012461D02*
X013505Y012229D01*
X013219Y011943D01*
X012987Y012175D01*
X013273Y012461D01*
G37*
G36*
X012785Y011973D02*
X013017Y011741D01*
X012731Y011455D01*
X012499Y011687D01*
X012785Y011973D01*
G37*
G36*
X012298Y011486D02*
X012530Y011254D01*
X012244Y010968D01*
X012012Y011200D01*
X012298Y011486D01*
G37*
G36*
X013406Y011353D02*
X013638Y011121D01*
X013352Y010835D01*
X013120Y011067D01*
X013406Y011353D01*
G37*
G36*
X012919Y010865D02*
X013151Y010633D01*
X012865Y010347D01*
X012633Y010579D01*
X012919Y010865D01*
G37*
G36*
X012432Y010378D02*
X012664Y010146D01*
X012378Y009860D01*
X012146Y010092D01*
X012432Y010378D01*
G37*
G36*
X011811Y010999D02*
X012043Y010767D01*
X011757Y010481D01*
X011525Y010713D01*
X011811Y010999D01*
G37*
G36*
X011324Y010512D02*
X011556Y010280D01*
X011270Y009994D01*
X011038Y010226D01*
X011324Y010512D01*
G37*
G36*
X010837Y010025D02*
X011069Y009793D01*
X010783Y009507D01*
X010551Y009739D01*
X010837Y010025D01*
G37*
G36*
X011945Y009891D02*
X012177Y009659D01*
X011891Y009373D01*
X011659Y009605D01*
X011945Y009891D01*
G37*
G36*
X011458Y009404D02*
X011690Y009172D01*
X011404Y008886D01*
X011172Y009118D01*
X011458Y009404D01*
G37*
G36*
X013267Y014408D02*
X013499Y014640D01*
X013785Y014354D01*
X013553Y014122D01*
X013267Y014408D01*
G37*
G36*
X012780Y014895D02*
X013012Y015127D01*
X013298Y014841D01*
X013066Y014609D01*
X012780Y014895D01*
G37*
G36*
X012293Y015383D02*
X012525Y015615D01*
X012811Y015329D01*
X012579Y015097D01*
X012293Y015383D01*
G37*
G36*
X011806Y015870D02*
X012038Y016102D01*
X012324Y015816D01*
X012092Y015584D01*
X011806Y015870D01*
G37*
G36*
X011318Y016357D02*
X011550Y016589D01*
X011836Y016303D01*
X011604Y016071D01*
X011318Y016357D01*
G37*
G36*
X010831Y016844D02*
X011063Y017076D01*
X011349Y016790D01*
X011117Y016558D01*
X010831Y016844D01*
G37*
G36*
X011452Y017465D02*
X011684Y017697D01*
X011970Y017411D01*
X011738Y017179D01*
X011452Y017465D01*
G37*
G36*
X011939Y016978D02*
X012171Y017210D01*
X012457Y016924D01*
X012225Y016692D01*
X011939Y016978D01*
G37*
G36*
X012426Y016491D02*
X012658Y016723D01*
X012944Y016437D01*
X012712Y016205D01*
X012426Y016491D01*
G37*
G36*
X012914Y016003D02*
X013146Y016235D01*
X013432Y015949D01*
X013200Y015717D01*
X012914Y016003D01*
G37*
G36*
X013401Y015516D02*
X013633Y015748D01*
X013919Y015462D01*
X013687Y015230D01*
X013401Y015516D01*
G37*
G36*
X013888Y015029D02*
X014120Y015261D01*
X014406Y014975D01*
X014174Y014743D01*
X013888Y015029D01*
G37*
X021356Y014950D03*
X021356Y015639D03*
X021356Y016328D03*
X022234Y016328D03*
X022234Y015639D03*
X022234Y014950D03*
X022234Y017017D03*
X022234Y017706D03*
X022234Y018395D03*
X021356Y018395D03*
X021356Y017706D03*
X021356Y017017D03*
D35*
X036006Y015954D03*
X036506Y015954D03*
X037006Y015954D03*
X037506Y015954D03*
X037506Y018080D03*
X037006Y018080D03*
X036506Y018080D03*
X036006Y018080D03*
D36*
X041094Y022336D03*
X042094Y022336D03*
X030578Y022348D03*
X040110Y003942D03*
M02*
