%
M48
M72
T01C0.0100
T02C0.0157
T03C0.0315
T04C0.0472
T05C0.0500
T06C0.0512
T07C0.0866
T08C0.0925
T09C0.1102
%
T01
X9393Y4123
X9393Y4812
X9689Y5797
X9689Y6190
X11657Y7371
X11657Y7765
X12051Y7765
X12740Y8553
X12543Y8749
X11854Y9045
X11657Y9340
X11460Y10127
X12445Y9655
X12789Y9980
X13134Y10373
X13478Y10718
X13823Y11062
X14197Y11387
X13429Y12096
X12445Y11112
X14462Y9734
X14807Y10078
X15151Y10423
X16185Y10521
X17071Y11013
X17267Y10816
X16677Y11505
X16677Y12194
X16283Y12194
X15889Y12194
X18055Y13375
X18350Y13375
X18645Y13375
X18645Y13671
X19433Y14064
X18449Y12686
X19236Y12194
X20220Y11604
X21598Y10816
X21598Y10521
X21795Y10029
X23370Y9931
X23370Y10423
X23370Y10915
X23370Y11407
X24354Y11407
X24354Y10915
X24354Y10423
X24354Y9931
X24354Y9438
X24354Y8946
X24059Y8553
X23763Y8553
X23360Y8946
X23370Y9438
X21795Y8651
X23173Y8257
X23960Y7470
X23960Y7175
X24551Y8257
X24846Y8257
X26224Y7962
X26618Y7864
X27159Y7864
X28291Y7914
X28389Y6879
X28586Y6683
X27897Y6781
X27011Y6879
X26716Y6978
X25830Y6190
X26224Y5895
X25929Y5403
X25535Y4714
X26421Y4714
X25043Y5698
X25240Y6683
X28783Y5600
X28783Y5108
X29177Y4714
X30063Y4714
X30358Y5009
X30260Y4123
X30489Y3583
X31047Y3583
X33409Y4222
X31834Y5108
X31834Y5797
X31933Y6289
X31933Y6879
X31539Y7470
X31834Y7765
X30555Y7568
X30260Y7568
X29521Y7371
X29423Y7716
X30456Y6486
X31047Y6190
X33409Y6584
X33409Y7667
X35476Y7076
X35476Y6584
X36756Y5895
X35378Y5206
X33409Y5403
X36165Y8060
X36756Y8060
X37346Y8257
X37740Y7371
X39610Y8651
X39413Y9045
X38724Y9635
X40004Y10127
X40200Y10521
X39216Y11801
X39511Y12096
X38035Y11997
X37641Y11997
X37149Y11997
X37149Y12293
X38035Y11112
X36854Y10029
X36362Y10029
X35968Y10029
X35968Y9734
X34886Y9832
X34000Y11013
X34000Y11309
X34787Y11801
X35870Y11013
X36165Y11013
X35279Y13375
X34984Y13375
X34590Y13572
X35673Y13868
X35968Y13868
X36263Y13868
X35771Y14852
X35181Y15147
X36657Y14950
X37248Y14950
X37838Y14950
X37838Y15147
X37937Y15738
X38823Y15934
X38429Y17017
X36657Y16919
X36165Y16722
X35673Y16722
X35181Y16820
X34886Y16820
X33901Y16427
X33901Y15934
X32326Y16919
X32031Y16919
X30742Y16968
X30555Y17608
X29423Y17805
X29374Y16820
X31834Y15738
X30260Y14999
X29767Y14901
X29472Y14360
X30260Y13572
X30063Y13375
X29472Y13277
X28980Y13277
X28488Y13080
X27996Y13277
X27504Y13080
X27011Y13080
X26519Y13080
X26027Y13277
X25141Y12982
X24748Y12982
X24699Y13474
X23665Y14064
X23665Y14360
X22582Y15049
X22582Y15344
X23271Y16033
X23665Y15541
X24256Y16033
X24256Y16525
X24256Y17017
X24256Y17509
X24256Y18001
X24256Y18494
X24945Y19084
X26618Y18395
X27011Y18494
X27504Y19478
X27504Y19773
X27110Y19675
X27996Y19773
X28980Y19478
X31244Y21053
X31441Y21840
X31736Y21840
X32031Y21840
X32740Y20029
X32720Y19576
X32917Y19576
X32819Y19183
X33409Y18739
X33704Y18592
X33704Y18887
X34492Y19183
X34689Y19183
X34590Y19576
X35279Y19478
X35574Y19478
X35574Y19773
X35870Y19478
X36263Y20068
X36263Y20364
X36263Y20659
X35476Y20610
X35476Y20856
X33882Y20029
X33291Y20029
X36362Y22529
X39019Y19871
X40299Y20856
X41086Y20856
X42169Y19281
X41972Y18198
X42563Y17116
X42071Y16919
X40496Y18198
X37543Y18494
X37543Y18789
X31441Y14458
X31145Y14458
X28193Y14999
X27307Y14999
X26933Y14990
X26618Y14990
X25978Y15049
X23271Y16525
X23271Y17017
X23271Y17509
X23271Y18001
X22976Y18986
X21008Y18100
X20811Y17903
X21106Y17017
X19826Y16131
X19826Y15836
X18941Y15885
X18055Y15541
X17760Y15541
X18350Y16673
X18594Y17136
X18350Y17608
X18055Y17312
X17267Y18100
X16874Y17608
X16628Y17461
X16194Y17286
X14511Y16722
X14144Y17086
X13794Y17436
X13444Y17786
X13094Y18136
X12744Y18486
X11952Y18887
X11559Y19281
X11362Y19084
X12094Y17836
X12420Y17485
X12789Y17116
X13133Y16772
X13476Y16439
X13829Y16076
X14413Y16033
X14610Y15836
X16086Y15246
X15397Y14557
X14905Y14557
X14413Y14557
X12838Y14753
X11854Y15639
X10574Y16820
X8212Y18986
X8212Y19478
X9295Y19871
X9886Y20364
X14118Y21249
X16794Y21436
X17563Y21938
X17819Y21722
X19433Y22431
X19826Y22431
X19826Y22037
X20023Y20364
X19630Y19970
X19433Y20167
X18449Y19281
X19236Y18887
X17858Y18592
X21106Y15639
X21598Y14261
X21500Y13474
X22484Y12686
X22878Y13080
X22582Y12293
X21697Y11604
X19334Y10423
X18055Y10324
X16332Y9537
X16677Y8848
X16874Y8553
X17169Y8454
X17740Y7903
X17937Y7549
X18212Y7312
X18201Y6437
X17760Y5895
X17366Y5501
X18793Y5354
X19088Y5206
X20319Y5600
X20319Y6092
X19187Y6387
X16037Y4173
X17513Y3730
X14118Y5009
X13921Y4812
X13527Y5797
X12937Y5600
X14167Y6486
X13429Y8700
X13773Y9045
X14118Y9389
X26716Y11358
X27110Y11358
X29472Y10521
X29423Y10127
X30506Y10472
X31736Y10423
X31736Y10915
X38134Y13671
X40594Y9242
X40594Y8651
X40496Y7864
X41382Y7175
X41972Y6978
X42169Y6978
X41382Y6387
X41480Y5206
X39315Y5206
X38527Y4812
X38232Y4812
X38232Y4222
X38527Y4222
X38527Y3730
X38232Y3730
X42464Y8257
X26224Y20364
X25437Y20315
X24894Y20486
X24894Y20986
X24894Y21486
X26224Y21249
X26224Y20757
X25043Y22332
X25043Y22627
T02
X17947Y19479
X17390Y20035
X16834Y19479
X16277Y20035
X15720Y19479
X15163Y20035
X14637Y19479
X15163Y18922
X15720Y18365
X16277Y17808
X16834Y18365
X17390Y18922
X16277Y18922
X16834Y20592
X16277Y21149
X15720Y20592
X26519Y17903
X26519Y17116
X27307Y17116
X28094Y17116
X28094Y17903
X27307Y17903
X28882Y17903
X28882Y17116
X28882Y16328
X28882Y15541
X28094Y15541
X27307Y15541
X27307Y16328
X28094Y16328
X26519Y16328
X26519Y15541
X26519Y10816
X27307Y10816
X28094Y10816
X28882Y10816
X28882Y10029
X28094Y10029
X27307Y10029
X26519Y10029
X26519Y9242
X27307Y9242
X28094Y9242
X28882Y9242
X28882Y8454
X28094Y8454
X27307Y8454
X26519Y8454
X17951Y6884
X17395Y6328
X16838Y6884
X16281Y6328
X15724Y6884
X15168Y6328
X15724Y5771
X16281Y5214
X16838Y5771
X14611Y6884
X15168Y7441
X15724Y7998
X16281Y7441
X16838Y7998
X17395Y7441
X16281Y8555
T03
X6637Y4911
X7622Y4911
X7622Y5698
X7622Y6486
X6637Y6486
X6637Y5698
X6637Y7273
X7622Y7273
X7622Y8060
X7622Y8848
X6637Y8848
X6637Y8060
X6637Y9635
X6637Y10423
X7622Y10423
X7622Y9635
X7622Y11210
X7622Y11997
X6637Y11997
X6637Y11210
X6637Y14360
X7622Y14360
X7622Y15147
X7622Y15934
X6637Y15934
X6637Y15147
X6637Y16722
X6637Y17509
X7622Y17509
X7622Y16722
X7622Y18297
X7622Y19084
X6637Y19084
X6637Y18297
X6637Y19871
X6637Y20659
X7622Y20659
X7622Y19871
X7622Y21446
X6637Y21446
T04
X40390Y13875
X41086Y13179
X41782Y13875
X41782Y12483
X40390Y12483
T05
X40110Y3942
X41094Y22336
X42094Y22336
X30578Y22348
T06
X42661Y13179
T07
X31637Y13179
X22976Y5305
X11165Y5305
X11165Y13179
X11165Y21053
X22976Y21053
T08
X41086Y16131
X41086Y10226
T09
X42661Y10226
X42661Y16131
M30
