G75*
G70*
%OFA0B0*%
%FSLAX24Y24*%
%IPPOS*%
%LPD*%
%AMOC8*
5,1,8,0,0,1.08239X$1,22.5*
%
%ADD10C,0.0000*%
%ADD11C,0.0472*%
%ADD12C,0.0709*%
%ADD13C,0.0768*%
%ADD14C,0.0180*%
%ADD15C,0.0237*%
%ADD16C,0.0098*%
%ADD17C,0.0197*%
%ADD18C,0.0750*%
D10*
X003488Y003336D02*
X045023Y003336D01*
X045062Y003338D01*
X045100Y003344D01*
X045137Y003353D01*
X045174Y003366D01*
X045209Y003383D01*
X045242Y003402D01*
X045273Y003425D01*
X045302Y003451D01*
X045328Y003480D01*
X045351Y003511D01*
X045370Y003544D01*
X045387Y003579D01*
X045400Y003616D01*
X045409Y003653D01*
X045415Y003691D01*
X045417Y003730D01*
X045417Y007597D01*
X045415Y007636D01*
X045409Y007675D01*
X045400Y007713D01*
X045386Y007749D01*
X045370Y007785D01*
X045349Y007818D01*
X045326Y007849D01*
X045299Y007878D01*
X045270Y007904D01*
X045239Y007927D01*
X045205Y007947D01*
X045169Y007963D01*
X045170Y007963D02*
X043696Y008552D01*
X043660Y008568D01*
X043626Y008588D01*
X043595Y008611D01*
X043566Y008637D01*
X043539Y008666D01*
X043516Y008697D01*
X043495Y008730D01*
X043479Y008766D01*
X043465Y008802D01*
X043456Y008840D01*
X043450Y008879D01*
X043448Y008918D01*
X043449Y008918D02*
X043449Y017440D01*
X043448Y017440D02*
X043450Y017479D01*
X043456Y017518D01*
X043465Y017556D01*
X043479Y017592D01*
X043495Y017628D01*
X043516Y017661D01*
X043539Y017692D01*
X043566Y017721D01*
X043595Y017747D01*
X043626Y017770D01*
X043660Y017790D01*
X043696Y017806D01*
X043696Y017805D02*
X045170Y018395D01*
X045169Y018394D02*
X045205Y018410D01*
X045239Y018430D01*
X045270Y018453D01*
X045299Y018479D01*
X045326Y018508D01*
X045349Y018539D01*
X045370Y018572D01*
X045386Y018608D01*
X045400Y018644D01*
X045409Y018682D01*
X045415Y018721D01*
X045417Y018760D01*
X045417Y022627D01*
X045415Y022666D01*
X045409Y022704D01*
X045400Y022741D01*
X045387Y022778D01*
X045370Y022813D01*
X045351Y022846D01*
X045328Y022877D01*
X045302Y022906D01*
X045273Y022932D01*
X045242Y022955D01*
X045209Y022974D01*
X045174Y022991D01*
X045137Y023004D01*
X045100Y023013D01*
X045062Y023019D01*
X045023Y023021D01*
X003488Y023021D01*
X003449Y023019D01*
X003411Y023013D01*
X003374Y023004D01*
X003337Y022991D01*
X003302Y022974D01*
X003269Y022955D01*
X003238Y022932D01*
X003209Y022906D01*
X003183Y022877D01*
X003160Y022846D01*
X003141Y022813D01*
X003124Y022778D01*
X003111Y022741D01*
X003102Y022704D01*
X003096Y022666D01*
X003094Y022627D01*
X003094Y003730D01*
X003096Y003691D01*
X003102Y003653D01*
X003111Y003616D01*
X003124Y003579D01*
X003141Y003544D01*
X003160Y003511D01*
X003183Y003480D01*
X003209Y003451D01*
X003238Y003425D01*
X003269Y003402D01*
X003302Y003383D01*
X003337Y003366D01*
X003374Y003353D01*
X003411Y003344D01*
X003449Y003338D01*
X003488Y003336D01*
X010732Y005305D02*
X010734Y005346D01*
X010740Y005387D01*
X010750Y005427D01*
X010763Y005466D01*
X010780Y005503D01*
X010801Y005539D01*
X010825Y005573D01*
X010852Y005604D01*
X010881Y005632D01*
X010914Y005658D01*
X010948Y005680D01*
X010985Y005699D01*
X011023Y005714D01*
X011063Y005726D01*
X011103Y005734D01*
X011144Y005738D01*
X011186Y005738D01*
X011227Y005734D01*
X011267Y005726D01*
X011307Y005714D01*
X011345Y005699D01*
X011381Y005680D01*
X011416Y005658D01*
X011449Y005632D01*
X011478Y005604D01*
X011505Y005573D01*
X011529Y005539D01*
X011550Y005503D01*
X011567Y005466D01*
X011580Y005427D01*
X011590Y005387D01*
X011596Y005346D01*
X011598Y005305D01*
X011596Y005264D01*
X011590Y005223D01*
X011580Y005183D01*
X011567Y005144D01*
X011550Y005107D01*
X011529Y005071D01*
X011505Y005037D01*
X011478Y005006D01*
X011449Y004978D01*
X011416Y004952D01*
X011382Y004930D01*
X011345Y004911D01*
X011307Y004896D01*
X011267Y004884D01*
X011227Y004876D01*
X011186Y004872D01*
X011144Y004872D01*
X011103Y004876D01*
X011063Y004884D01*
X011023Y004896D01*
X010985Y004911D01*
X010949Y004930D01*
X010914Y004952D01*
X010881Y004978D01*
X010852Y005006D01*
X010825Y005037D01*
X010801Y005071D01*
X010780Y005107D01*
X010763Y005144D01*
X010750Y005183D01*
X010740Y005223D01*
X010734Y005264D01*
X010732Y005305D01*
X022543Y005305D02*
X022545Y005346D01*
X022551Y005387D01*
X022561Y005427D01*
X022574Y005466D01*
X022591Y005503D01*
X022612Y005539D01*
X022636Y005573D01*
X022663Y005604D01*
X022692Y005632D01*
X022725Y005658D01*
X022759Y005680D01*
X022796Y005699D01*
X022834Y005714D01*
X022874Y005726D01*
X022914Y005734D01*
X022955Y005738D01*
X022997Y005738D01*
X023038Y005734D01*
X023078Y005726D01*
X023118Y005714D01*
X023156Y005699D01*
X023192Y005680D01*
X023227Y005658D01*
X023260Y005632D01*
X023289Y005604D01*
X023316Y005573D01*
X023340Y005539D01*
X023361Y005503D01*
X023378Y005466D01*
X023391Y005427D01*
X023401Y005387D01*
X023407Y005346D01*
X023409Y005305D01*
X023407Y005264D01*
X023401Y005223D01*
X023391Y005183D01*
X023378Y005144D01*
X023361Y005107D01*
X023340Y005071D01*
X023316Y005037D01*
X023289Y005006D01*
X023260Y004978D01*
X023227Y004952D01*
X023193Y004930D01*
X023156Y004911D01*
X023118Y004896D01*
X023078Y004884D01*
X023038Y004876D01*
X022997Y004872D01*
X022955Y004872D01*
X022914Y004876D01*
X022874Y004884D01*
X022834Y004896D01*
X022796Y004911D01*
X022760Y004930D01*
X022725Y004952D01*
X022692Y004978D01*
X022663Y005006D01*
X022636Y005037D01*
X022612Y005071D01*
X022591Y005107D01*
X022574Y005144D01*
X022561Y005183D01*
X022551Y005223D01*
X022545Y005264D01*
X022543Y005305D01*
X031204Y013179D02*
X031206Y013220D01*
X031212Y013261D01*
X031222Y013301D01*
X031235Y013340D01*
X031252Y013377D01*
X031273Y013413D01*
X031297Y013447D01*
X031324Y013478D01*
X031353Y013506D01*
X031386Y013532D01*
X031420Y013554D01*
X031457Y013573D01*
X031495Y013588D01*
X031535Y013600D01*
X031575Y013608D01*
X031616Y013612D01*
X031658Y013612D01*
X031699Y013608D01*
X031739Y013600D01*
X031779Y013588D01*
X031817Y013573D01*
X031853Y013554D01*
X031888Y013532D01*
X031921Y013506D01*
X031950Y013478D01*
X031977Y013447D01*
X032001Y013413D01*
X032022Y013377D01*
X032039Y013340D01*
X032052Y013301D01*
X032062Y013261D01*
X032068Y013220D01*
X032070Y013179D01*
X032068Y013138D01*
X032062Y013097D01*
X032052Y013057D01*
X032039Y013018D01*
X032022Y012981D01*
X032001Y012945D01*
X031977Y012911D01*
X031950Y012880D01*
X031921Y012852D01*
X031888Y012826D01*
X031854Y012804D01*
X031817Y012785D01*
X031779Y012770D01*
X031739Y012758D01*
X031699Y012750D01*
X031658Y012746D01*
X031616Y012746D01*
X031575Y012750D01*
X031535Y012758D01*
X031495Y012770D01*
X031457Y012785D01*
X031421Y012804D01*
X031386Y012826D01*
X031353Y012852D01*
X031324Y012880D01*
X031297Y012911D01*
X031273Y012945D01*
X031252Y012981D01*
X031235Y013018D01*
X031222Y013057D01*
X031212Y013097D01*
X031206Y013138D01*
X031204Y013179D01*
X040623Y016131D02*
X040625Y016174D01*
X040631Y016216D01*
X040641Y016258D01*
X040654Y016298D01*
X040672Y016337D01*
X040692Y016375D01*
X040717Y016410D01*
X040744Y016443D01*
X040774Y016473D01*
X040807Y016500D01*
X040842Y016525D01*
X040880Y016545D01*
X040919Y016563D01*
X040959Y016576D01*
X041001Y016586D01*
X041043Y016592D01*
X041086Y016594D01*
X041129Y016592D01*
X041171Y016586D01*
X041213Y016576D01*
X041253Y016563D01*
X041292Y016545D01*
X041330Y016525D01*
X041365Y016500D01*
X041398Y016473D01*
X041428Y016443D01*
X041455Y016410D01*
X041480Y016375D01*
X041500Y016337D01*
X041518Y016298D01*
X041531Y016258D01*
X041541Y016216D01*
X041547Y016174D01*
X041549Y016131D01*
X041547Y016088D01*
X041541Y016046D01*
X041531Y016004D01*
X041518Y015964D01*
X041500Y015925D01*
X041480Y015887D01*
X041455Y015852D01*
X041428Y015819D01*
X041398Y015789D01*
X041365Y015762D01*
X041330Y015737D01*
X041292Y015717D01*
X041253Y015699D01*
X041213Y015686D01*
X041171Y015676D01*
X041129Y015670D01*
X041086Y015668D01*
X041043Y015670D01*
X041001Y015676D01*
X040959Y015686D01*
X040919Y015699D01*
X040880Y015717D01*
X040842Y015737D01*
X040807Y015762D01*
X040774Y015789D01*
X040744Y015819D01*
X040717Y015852D01*
X040692Y015887D01*
X040672Y015925D01*
X040654Y015964D01*
X040641Y016004D01*
X040631Y016046D01*
X040625Y016088D01*
X040623Y016131D01*
X042110Y016131D02*
X042112Y016178D01*
X042118Y016224D01*
X042128Y016270D01*
X042141Y016315D01*
X042159Y016358D01*
X042180Y016400D01*
X042204Y016440D01*
X042232Y016477D01*
X042263Y016512D01*
X042297Y016545D01*
X042333Y016574D01*
X042372Y016600D01*
X042413Y016623D01*
X042456Y016642D01*
X042500Y016658D01*
X042545Y016670D01*
X042591Y016678D01*
X042638Y016682D01*
X042684Y016682D01*
X042731Y016678D01*
X042777Y016670D01*
X042822Y016658D01*
X042866Y016642D01*
X042909Y016623D01*
X042950Y016600D01*
X042989Y016574D01*
X043025Y016545D01*
X043059Y016512D01*
X043090Y016477D01*
X043118Y016440D01*
X043142Y016400D01*
X043163Y016358D01*
X043181Y016315D01*
X043194Y016270D01*
X043204Y016224D01*
X043210Y016178D01*
X043212Y016131D01*
X043210Y016084D01*
X043204Y016038D01*
X043194Y015992D01*
X043181Y015947D01*
X043163Y015904D01*
X043142Y015862D01*
X043118Y015822D01*
X043090Y015785D01*
X043059Y015750D01*
X043025Y015717D01*
X042989Y015688D01*
X042950Y015662D01*
X042909Y015639D01*
X042866Y015620D01*
X042822Y015604D01*
X042777Y015592D01*
X042731Y015584D01*
X042684Y015580D01*
X042638Y015580D01*
X042591Y015584D01*
X042545Y015592D01*
X042500Y015604D01*
X042456Y015620D01*
X042413Y015639D01*
X042372Y015662D01*
X042333Y015688D01*
X042297Y015717D01*
X042263Y015750D01*
X042232Y015785D01*
X042204Y015822D01*
X042180Y015862D01*
X042159Y015904D01*
X042141Y015947D01*
X042128Y015992D01*
X042118Y016038D01*
X042112Y016084D01*
X042110Y016131D01*
X042110Y010226D02*
X042112Y010273D01*
X042118Y010319D01*
X042128Y010365D01*
X042141Y010410D01*
X042159Y010453D01*
X042180Y010495D01*
X042204Y010535D01*
X042232Y010572D01*
X042263Y010607D01*
X042297Y010640D01*
X042333Y010669D01*
X042372Y010695D01*
X042413Y010718D01*
X042456Y010737D01*
X042500Y010753D01*
X042545Y010765D01*
X042591Y010773D01*
X042638Y010777D01*
X042684Y010777D01*
X042731Y010773D01*
X042777Y010765D01*
X042822Y010753D01*
X042866Y010737D01*
X042909Y010718D01*
X042950Y010695D01*
X042989Y010669D01*
X043025Y010640D01*
X043059Y010607D01*
X043090Y010572D01*
X043118Y010535D01*
X043142Y010495D01*
X043163Y010453D01*
X043181Y010410D01*
X043194Y010365D01*
X043204Y010319D01*
X043210Y010273D01*
X043212Y010226D01*
X043210Y010179D01*
X043204Y010133D01*
X043194Y010087D01*
X043181Y010042D01*
X043163Y009999D01*
X043142Y009957D01*
X043118Y009917D01*
X043090Y009880D01*
X043059Y009845D01*
X043025Y009812D01*
X042989Y009783D01*
X042950Y009757D01*
X042909Y009734D01*
X042866Y009715D01*
X042822Y009699D01*
X042777Y009687D01*
X042731Y009679D01*
X042684Y009675D01*
X042638Y009675D01*
X042591Y009679D01*
X042545Y009687D01*
X042500Y009699D01*
X042456Y009715D01*
X042413Y009734D01*
X042372Y009757D01*
X042333Y009783D01*
X042297Y009812D01*
X042263Y009845D01*
X042232Y009880D01*
X042204Y009917D01*
X042180Y009957D01*
X042159Y009999D01*
X042141Y010042D01*
X042128Y010087D01*
X042118Y010133D01*
X042112Y010179D01*
X042110Y010226D01*
X040623Y010226D02*
X040625Y010269D01*
X040631Y010311D01*
X040641Y010353D01*
X040654Y010393D01*
X040672Y010432D01*
X040692Y010470D01*
X040717Y010505D01*
X040744Y010538D01*
X040774Y010568D01*
X040807Y010595D01*
X040842Y010620D01*
X040880Y010640D01*
X040919Y010658D01*
X040959Y010671D01*
X041001Y010681D01*
X041043Y010687D01*
X041086Y010689D01*
X041129Y010687D01*
X041171Y010681D01*
X041213Y010671D01*
X041253Y010658D01*
X041292Y010640D01*
X041330Y010620D01*
X041365Y010595D01*
X041398Y010568D01*
X041428Y010538D01*
X041455Y010505D01*
X041480Y010470D01*
X041500Y010432D01*
X041518Y010393D01*
X041531Y010353D01*
X041541Y010311D01*
X041547Y010269D01*
X041549Y010226D01*
X041547Y010183D01*
X041541Y010141D01*
X041531Y010099D01*
X041518Y010059D01*
X041500Y010020D01*
X041480Y009982D01*
X041455Y009947D01*
X041428Y009914D01*
X041398Y009884D01*
X041365Y009857D01*
X041330Y009832D01*
X041292Y009812D01*
X041253Y009794D01*
X041213Y009781D01*
X041171Y009771D01*
X041129Y009765D01*
X041086Y009763D01*
X041043Y009765D01*
X041001Y009771D01*
X040959Y009781D01*
X040919Y009794D01*
X040880Y009812D01*
X040842Y009832D01*
X040807Y009857D01*
X040774Y009884D01*
X040744Y009914D01*
X040717Y009947D01*
X040692Y009982D01*
X040672Y010020D01*
X040654Y010059D01*
X040641Y010099D01*
X040631Y010141D01*
X040625Y010183D01*
X040623Y010226D01*
X022543Y021053D02*
X022545Y021094D01*
X022551Y021135D01*
X022561Y021175D01*
X022574Y021214D01*
X022591Y021251D01*
X022612Y021287D01*
X022636Y021321D01*
X022663Y021352D01*
X022692Y021380D01*
X022725Y021406D01*
X022759Y021428D01*
X022796Y021447D01*
X022834Y021462D01*
X022874Y021474D01*
X022914Y021482D01*
X022955Y021486D01*
X022997Y021486D01*
X023038Y021482D01*
X023078Y021474D01*
X023118Y021462D01*
X023156Y021447D01*
X023192Y021428D01*
X023227Y021406D01*
X023260Y021380D01*
X023289Y021352D01*
X023316Y021321D01*
X023340Y021287D01*
X023361Y021251D01*
X023378Y021214D01*
X023391Y021175D01*
X023401Y021135D01*
X023407Y021094D01*
X023409Y021053D01*
X023407Y021012D01*
X023401Y020971D01*
X023391Y020931D01*
X023378Y020892D01*
X023361Y020855D01*
X023340Y020819D01*
X023316Y020785D01*
X023289Y020754D01*
X023260Y020726D01*
X023227Y020700D01*
X023193Y020678D01*
X023156Y020659D01*
X023118Y020644D01*
X023078Y020632D01*
X023038Y020624D01*
X022997Y020620D01*
X022955Y020620D01*
X022914Y020624D01*
X022874Y020632D01*
X022834Y020644D01*
X022796Y020659D01*
X022760Y020678D01*
X022725Y020700D01*
X022692Y020726D01*
X022663Y020754D01*
X022636Y020785D01*
X022612Y020819D01*
X022591Y020855D01*
X022574Y020892D01*
X022561Y020931D01*
X022551Y020971D01*
X022545Y021012D01*
X022543Y021053D01*
X010732Y021053D02*
X010734Y021094D01*
X010740Y021135D01*
X010750Y021175D01*
X010763Y021214D01*
X010780Y021251D01*
X010801Y021287D01*
X010825Y021321D01*
X010852Y021352D01*
X010881Y021380D01*
X010914Y021406D01*
X010948Y021428D01*
X010985Y021447D01*
X011023Y021462D01*
X011063Y021474D01*
X011103Y021482D01*
X011144Y021486D01*
X011186Y021486D01*
X011227Y021482D01*
X011267Y021474D01*
X011307Y021462D01*
X011345Y021447D01*
X011381Y021428D01*
X011416Y021406D01*
X011449Y021380D01*
X011478Y021352D01*
X011505Y021321D01*
X011529Y021287D01*
X011550Y021251D01*
X011567Y021214D01*
X011580Y021175D01*
X011590Y021135D01*
X011596Y021094D01*
X011598Y021053D01*
X011596Y021012D01*
X011590Y020971D01*
X011580Y020931D01*
X011567Y020892D01*
X011550Y020855D01*
X011529Y020819D01*
X011505Y020785D01*
X011478Y020754D01*
X011449Y020726D01*
X011416Y020700D01*
X011382Y020678D01*
X011345Y020659D01*
X011307Y020644D01*
X011267Y020632D01*
X011227Y020624D01*
X011186Y020620D01*
X011144Y020620D01*
X011103Y020624D01*
X011063Y020632D01*
X011023Y020644D01*
X010985Y020659D01*
X010949Y020678D01*
X010914Y020700D01*
X010881Y020726D01*
X010852Y020754D01*
X010825Y020785D01*
X010801Y020819D01*
X010780Y020855D01*
X010763Y020892D01*
X010750Y020931D01*
X010740Y020971D01*
X010734Y021012D01*
X010732Y021053D01*
X010732Y013179D02*
X010734Y013220D01*
X010740Y013261D01*
X010750Y013301D01*
X010763Y013340D01*
X010780Y013377D01*
X010801Y013413D01*
X010825Y013447D01*
X010852Y013478D01*
X010881Y013506D01*
X010914Y013532D01*
X010948Y013554D01*
X010985Y013573D01*
X011023Y013588D01*
X011063Y013600D01*
X011103Y013608D01*
X011144Y013612D01*
X011186Y013612D01*
X011227Y013608D01*
X011267Y013600D01*
X011307Y013588D01*
X011345Y013573D01*
X011381Y013554D01*
X011416Y013532D01*
X011449Y013506D01*
X011478Y013478D01*
X011505Y013447D01*
X011529Y013413D01*
X011550Y013377D01*
X011567Y013340D01*
X011580Y013301D01*
X011590Y013261D01*
X011596Y013220D01*
X011598Y013179D01*
X011596Y013138D01*
X011590Y013097D01*
X011580Y013057D01*
X011567Y013018D01*
X011550Y012981D01*
X011529Y012945D01*
X011505Y012911D01*
X011478Y012880D01*
X011449Y012852D01*
X011416Y012826D01*
X011382Y012804D01*
X011345Y012785D01*
X011307Y012770D01*
X011267Y012758D01*
X011227Y012750D01*
X011186Y012746D01*
X011144Y012746D01*
X011103Y012750D01*
X011063Y012758D01*
X011023Y012770D01*
X010985Y012785D01*
X010949Y012804D01*
X010914Y012826D01*
X010881Y012852D01*
X010852Y012880D01*
X010825Y012911D01*
X010801Y012945D01*
X010780Y012981D01*
X010763Y013018D01*
X010750Y013057D01*
X010740Y013097D01*
X010734Y013138D01*
X010732Y013179D01*
D11*
X007622Y014360D03*
X006637Y014360D03*
X006637Y015147D03*
X006637Y015934D03*
X007622Y015934D03*
X007622Y015147D03*
X007622Y016722D03*
X007622Y017509D03*
X006637Y017509D03*
X006637Y016722D03*
X006637Y018297D03*
X006637Y019084D03*
X007622Y019084D03*
X007622Y018297D03*
X007622Y019871D03*
X007622Y020659D03*
X006637Y020659D03*
X006637Y019871D03*
X006637Y021446D03*
X007622Y021446D03*
X007622Y011997D03*
X007622Y011210D03*
X006637Y011210D03*
X006637Y011997D03*
X006637Y010423D03*
X006637Y009635D03*
X007622Y009635D03*
X007622Y010423D03*
X007622Y008848D03*
X007622Y008060D03*
X006637Y008060D03*
X006637Y008848D03*
X006637Y007273D03*
X007622Y007273D03*
X007622Y006486D03*
X007622Y005698D03*
X006637Y005698D03*
X006637Y006486D03*
X006637Y004911D03*
X007622Y004911D03*
D12*
X040390Y012483D03*
X041086Y013179D03*
X040390Y013875D03*
X041782Y013875D03*
X041782Y012483D03*
D13*
X042661Y013179D03*
D14*
X039511Y012096D03*
X039216Y011801D03*
X038035Y011997D03*
X037641Y011997D03*
X037149Y011997D03*
X037149Y012293D03*
X038035Y011112D03*
X036854Y010029D03*
X036362Y010029D03*
X035968Y010029D03*
X035968Y009734D03*
X034886Y009832D03*
X034000Y011013D03*
X034000Y011309D03*
X034787Y011801D03*
X035870Y011013D03*
X036165Y011013D03*
X038724Y009635D03*
X039413Y009045D03*
X039610Y008651D03*
X040594Y008651D03*
X040594Y009242D03*
X040004Y010127D03*
X040200Y010521D03*
X042464Y008257D03*
X041382Y007175D03*
X041972Y006978D03*
X042169Y006978D03*
X041382Y006387D03*
X041480Y005206D03*
X039315Y005206D03*
X038527Y004812D03*
X038232Y004812D03*
X038232Y004222D03*
X038527Y004222D03*
X038527Y003730D03*
X038232Y003730D03*
X035378Y005206D03*
X036756Y005895D03*
X035476Y006584D03*
X035476Y007076D03*
X036165Y008060D03*
X036756Y008060D03*
X037346Y008257D03*
X037740Y007371D03*
X040496Y007864D03*
X033409Y007667D03*
X031933Y006879D03*
X031933Y006289D03*
X031834Y005797D03*
X031834Y005108D03*
X030358Y005009D03*
X030063Y004714D03*
X030260Y004123D03*
X030489Y003583D03*
X031047Y003583D03*
X029177Y004714D03*
X028783Y005108D03*
X028783Y005600D03*
X028586Y006683D03*
X028389Y006879D03*
X027897Y006781D03*
X027011Y006879D03*
X026716Y006978D03*
X025830Y006190D03*
X026224Y005895D03*
X025929Y005403D03*
X025535Y004714D03*
X026421Y004714D03*
X025043Y005698D03*
X025240Y006683D03*
X023960Y007175D03*
X023960Y007470D03*
X024551Y008257D03*
X024846Y008257D03*
X024059Y008553D03*
X023763Y008553D03*
X023360Y008946D03*
X023370Y009438D03*
X023370Y009931D03*
X023370Y010423D03*
X023370Y010915D03*
X023370Y011407D03*
X024354Y011407D03*
X024354Y010915D03*
X024354Y010423D03*
X024354Y009931D03*
X024354Y009438D03*
X024354Y008946D03*
X023173Y008257D03*
X021795Y008651D03*
X021795Y010029D03*
X021598Y010521D03*
X021598Y010816D03*
X021697Y011604D03*
X022582Y012293D03*
X022484Y012686D03*
X022878Y013080D03*
X023665Y014064D03*
X023665Y014360D03*
X022582Y015049D03*
X022582Y015344D03*
X023271Y016033D03*
X023665Y015541D03*
X024256Y016033D03*
X024256Y016525D03*
X024256Y017017D03*
X024256Y017509D03*
X024256Y018001D03*
X024256Y018494D03*
X024945Y019084D03*
X026618Y018395D03*
X027011Y018494D03*
X027504Y019478D03*
X027504Y019773D03*
X027110Y019675D03*
X027996Y019773D03*
X028980Y019478D03*
X031244Y021053D03*
X031441Y021840D03*
X031736Y021840D03*
X032031Y021840D03*
X035476Y020856D03*
X035476Y020610D03*
X036263Y020659D03*
X036263Y020364D03*
X036263Y020068D03*
X035870Y019478D03*
X035574Y019478D03*
X035279Y019478D03*
X035574Y019773D03*
X034590Y019576D03*
X034492Y019183D03*
X034689Y019183D03*
X033704Y018887D03*
X033704Y018592D03*
X033409Y018739D03*
X032819Y019183D03*
X032917Y019576D03*
X032720Y019576D03*
X029423Y017805D03*
X030555Y017608D03*
X030742Y016968D03*
X029374Y016820D03*
X031834Y015738D03*
X030260Y014999D03*
X029767Y014901D03*
X029472Y014360D03*
X030260Y013572D03*
X030063Y013375D03*
X029472Y013277D03*
X028980Y013277D03*
X028488Y013080D03*
X027996Y013277D03*
X027504Y013080D03*
X027011Y013080D03*
X026519Y013080D03*
X026027Y013277D03*
X025141Y012982D03*
X024748Y012982D03*
X024699Y013474D03*
X025978Y015049D03*
X026618Y014990D03*
X026933Y014990D03*
X027307Y014999D03*
X028193Y014999D03*
X031145Y014458D03*
X031441Y014458D03*
X033901Y015934D03*
X033901Y016427D03*
X034886Y016820D03*
X035181Y016820D03*
X035673Y016722D03*
X036165Y016722D03*
X036657Y016919D03*
X038429Y017017D03*
X038823Y015934D03*
X037937Y015738D03*
X037838Y015147D03*
X037838Y014950D03*
X037248Y014950D03*
X036657Y014950D03*
X035771Y014852D03*
X035181Y015147D03*
X035673Y013868D03*
X035968Y013868D03*
X036263Y013868D03*
X035279Y013375D03*
X034984Y013375D03*
X034590Y013572D03*
X038134Y013671D03*
X042071Y016919D03*
X042563Y017116D03*
X041972Y018198D03*
X040496Y018198D03*
X042169Y019281D03*
X041086Y020856D03*
X040299Y020856D03*
X039019Y019871D03*
X037543Y018789D03*
X037543Y018494D03*
X032326Y016919D03*
X032031Y016919D03*
X026224Y020364D03*
X025437Y020315D03*
X024894Y020486D03*
X024894Y020986D03*
X024894Y021486D03*
X026224Y021249D03*
X026224Y020757D03*
X025043Y022332D03*
X025043Y022627D03*
X019826Y022431D03*
X019433Y022431D03*
X019826Y022037D03*
X017819Y021722D03*
X017563Y021938D03*
X016794Y021436D03*
X014118Y021249D03*
X011559Y019281D03*
X011362Y019084D03*
X011952Y018887D03*
X012744Y018486D03*
X013094Y018136D03*
X013444Y017786D03*
X013794Y017436D03*
X014144Y017086D03*
X014511Y016722D03*
X013829Y016076D03*
X013476Y016439D03*
X013133Y016772D03*
X012789Y017116D03*
X012420Y017485D03*
X012094Y017836D03*
X010574Y016820D03*
X011854Y015639D03*
X012838Y014753D03*
X014413Y014557D03*
X014905Y014557D03*
X015397Y014557D03*
X016086Y015246D03*
X014610Y015836D03*
X014413Y016033D03*
X016194Y017286D03*
X016628Y017461D03*
X016874Y017608D03*
X017267Y018100D03*
X017858Y018592D03*
X018449Y019281D03*
X019236Y018887D03*
X019630Y019970D03*
X019433Y020167D03*
X020023Y020364D03*
X022976Y018986D03*
X023271Y018001D03*
X023271Y017509D03*
X023271Y017017D03*
X023271Y016525D03*
X021106Y017017D03*
X020811Y017903D03*
X021008Y018100D03*
X018594Y017136D03*
X018350Y017608D03*
X018055Y017312D03*
X018350Y016673D03*
X018941Y015885D03*
X018055Y015541D03*
X017760Y015541D03*
X019826Y015836D03*
X019826Y016131D03*
X021106Y015639D03*
X021598Y014261D03*
X021500Y013474D03*
X019433Y014064D03*
X018645Y013671D03*
X018645Y013375D03*
X018350Y013375D03*
X018055Y013375D03*
X018449Y012686D03*
X019236Y012194D03*
X020220Y011604D03*
X019334Y010423D03*
X018055Y010324D03*
X017267Y010816D03*
X017071Y011013D03*
X016677Y011505D03*
X016677Y012194D03*
X016283Y012194D03*
X015889Y012194D03*
X014197Y011387D03*
X013823Y011062D03*
X013478Y010718D03*
X013134Y010373D03*
X012789Y009980D03*
X012445Y009655D03*
X011657Y009340D03*
X011854Y009045D03*
X012543Y008749D03*
X012740Y008553D03*
X013429Y008700D03*
X013773Y009045D03*
X014118Y009389D03*
X014462Y009734D03*
X014807Y010078D03*
X015151Y010423D03*
X016185Y010521D03*
X016332Y009537D03*
X016677Y008848D03*
X016874Y008553D03*
X017169Y008454D03*
X017740Y007903D03*
X017937Y007549D03*
X018212Y007312D03*
X018201Y006437D03*
X017760Y005895D03*
X017366Y005501D03*
X018793Y005354D03*
X019088Y005206D03*
X020319Y005600D03*
X020319Y006092D03*
X019187Y006387D03*
X016037Y004173D03*
X017513Y003730D03*
X014118Y005009D03*
X013921Y004812D03*
X013527Y005797D03*
X012937Y005600D03*
X014167Y006486D03*
X012051Y007765D03*
X011657Y007765D03*
X011657Y007371D03*
X009689Y006190D03*
X009689Y005797D03*
X009393Y004812D03*
X009393Y004123D03*
X011460Y010127D03*
X012445Y011112D03*
X013429Y012096D03*
X008212Y018986D03*
X008212Y019478D03*
X009295Y019871D03*
X009886Y020364D03*
X026716Y011358D03*
X027110Y011358D03*
X029472Y010521D03*
X029423Y010127D03*
X030506Y010472D03*
X031736Y010423D03*
X031736Y010915D03*
X031834Y007765D03*
X031539Y007470D03*
X030555Y007568D03*
X030260Y007568D03*
X029521Y007371D03*
X029423Y007716D03*
X028291Y007914D03*
X027159Y007864D03*
X026618Y007864D03*
X026224Y007962D03*
X030456Y006486D03*
X031047Y006190D03*
X033409Y006584D03*
X033409Y005403D03*
X033409Y004222D03*
X036362Y022529D03*
D15*
X028882Y017903D03*
X028882Y017116D03*
X028094Y017116D03*
X027307Y017116D03*
X027307Y017903D03*
X028094Y017903D03*
X026519Y017903D03*
X026519Y017116D03*
X026519Y016328D03*
X026519Y015541D03*
X027307Y015541D03*
X028094Y015541D03*
X028094Y016328D03*
X027307Y016328D03*
X028882Y016328D03*
X028882Y015541D03*
X028882Y010816D03*
X028094Y010816D03*
X027307Y010816D03*
X026519Y010816D03*
X026519Y010029D03*
X027307Y010029D03*
X028094Y010029D03*
X028882Y010029D03*
X028882Y009242D03*
X028882Y008454D03*
X028094Y008454D03*
X027307Y008454D03*
X027307Y009242D03*
X028094Y009242D03*
X026519Y009242D03*
X026519Y008454D03*
X017951Y006884D03*
X017395Y006328D03*
X016838Y006884D03*
X016281Y006328D03*
X015724Y006884D03*
X015168Y006328D03*
X015724Y005771D03*
X016281Y005214D03*
X016838Y005771D03*
X014611Y006884D03*
X015168Y007441D03*
X015724Y007998D03*
X016281Y007441D03*
X016838Y007998D03*
X017395Y007441D03*
X016281Y008555D03*
X016277Y017808D03*
X016834Y018365D03*
X017390Y018922D03*
X016834Y019479D03*
X017390Y020035D03*
X017947Y019479D03*
X016834Y020592D03*
X016277Y020035D03*
X015720Y019479D03*
X015163Y020035D03*
X014637Y019479D03*
X015163Y018922D03*
X015720Y018365D03*
X016277Y018922D03*
X015720Y020592D03*
X016277Y021149D03*
D16*
X016605Y021358D02*
X016716Y021247D01*
X016873Y021247D01*
X016983Y021358D01*
X016983Y021514D01*
X016873Y021625D01*
X016716Y021625D01*
X016605Y021514D01*
X016605Y021358D01*
X016605Y021372D02*
X014263Y021372D01*
X014307Y021328D02*
X014196Y021439D01*
X014039Y021439D01*
X013929Y021328D01*
X013929Y021171D01*
X014039Y021060D01*
X014196Y021060D01*
X014307Y021171D01*
X014307Y021328D01*
X014307Y021275D02*
X016687Y021275D01*
X016605Y021469D02*
X011643Y021469D01*
X011701Y021411D02*
X011523Y021589D01*
X011291Y021685D01*
X011039Y021685D01*
X010807Y021589D01*
X010629Y021411D01*
X010533Y021178D01*
X007828Y021178D01*
X007812Y021162D02*
X007906Y021256D01*
X007957Y021380D01*
X007957Y021513D01*
X007906Y021636D01*
X007812Y021731D01*
X007688Y021782D01*
X007555Y021782D01*
X007432Y021731D01*
X007337Y021636D01*
X007286Y021513D01*
X007286Y021380D01*
X007337Y021256D01*
X007432Y021162D01*
X007555Y021111D01*
X007688Y021111D01*
X007812Y021162D01*
X007914Y021275D02*
X010573Y021275D01*
X010533Y021178D02*
X010533Y020927D01*
X010629Y020694D01*
X010807Y020517D01*
X011039Y020420D01*
X011291Y020420D01*
X011523Y020517D01*
X011701Y020694D01*
X011797Y020927D01*
X011797Y021178D01*
X013929Y021178D01*
X013929Y021275D02*
X011757Y021275D01*
X011797Y021178D02*
X011701Y021411D01*
X011717Y021372D02*
X013973Y021372D01*
X014018Y021081D02*
X011797Y021081D01*
X011797Y020984D02*
X022344Y020984D01*
X022344Y020927D02*
X022440Y020694D01*
X022618Y020517D01*
X022850Y020420D01*
X023102Y020420D01*
X023334Y020517D01*
X023512Y020694D01*
X023608Y020927D01*
X023608Y021178D01*
X026035Y021178D01*
X026035Y021171D02*
X026146Y021060D01*
X026302Y021060D01*
X026413Y021171D01*
X026413Y021328D01*
X026302Y021439D01*
X026146Y021439D01*
X026035Y021328D01*
X026035Y021171D01*
X026035Y021275D02*
X023568Y021275D01*
X023608Y021178D02*
X023512Y021411D01*
X023334Y021589D01*
X023102Y021685D01*
X022850Y021685D01*
X022618Y021589D01*
X022440Y021411D01*
X022344Y021178D01*
X014307Y021178D01*
X014217Y021081D02*
X022344Y021081D01*
X022344Y021178D02*
X022344Y020927D01*
X022360Y020887D02*
X011781Y020887D01*
X011741Y020790D02*
X022400Y020790D01*
X022441Y020693D02*
X011700Y020693D01*
X011603Y020596D02*
X022538Y020596D01*
X022659Y020499D02*
X020155Y020499D01*
X020102Y020553D02*
X019945Y020553D01*
X019834Y020442D01*
X019834Y020285D01*
X019945Y020174D01*
X020102Y020174D01*
X020212Y020285D01*
X020212Y020442D01*
X020102Y020553D01*
X020212Y020403D02*
X025256Y020403D01*
X025247Y020394D02*
X025247Y020237D01*
X025358Y020126D01*
X025515Y020126D01*
X025626Y020237D01*
X025626Y020394D01*
X025515Y020504D01*
X025358Y020504D01*
X025247Y020394D01*
X025247Y020306D02*
X020212Y020306D01*
X020136Y020209D02*
X025276Y020209D01*
X025353Y020499D02*
X023293Y020499D01*
X023414Y020596D02*
X026117Y020596D01*
X026146Y020568D02*
X026302Y020568D01*
X026413Y020679D01*
X026413Y020836D01*
X026302Y020946D01*
X026146Y020946D01*
X026035Y020836D01*
X026035Y020679D01*
X026146Y020568D01*
X026146Y020553D02*
X026035Y020442D01*
X026035Y020285D01*
X026146Y020174D01*
X026302Y020174D01*
X026413Y020285D01*
X026413Y020442D01*
X026302Y020553D01*
X026146Y020553D01*
X026092Y020499D02*
X025520Y020499D01*
X025617Y020403D02*
X026035Y020403D01*
X026035Y020306D02*
X025626Y020306D01*
X025598Y020209D02*
X026112Y020209D01*
X026337Y020209D02*
X028544Y020209D01*
X028623Y020118D02*
X028536Y020031D01*
X028536Y019908D01*
X028536Y018150D01*
X026766Y018150D01*
X026766Y018276D01*
X026807Y018317D01*
X026807Y018473D01*
X026766Y018514D01*
X026766Y019342D01*
X026679Y019429D01*
X026581Y019528D01*
X026458Y019528D01*
X022619Y019528D01*
X022532Y019441D01*
X019284Y016193D01*
X019284Y016070D01*
X019284Y015504D01*
X019174Y015394D01*
X017600Y015394D01*
X017513Y015307D01*
X016615Y014410D01*
X010808Y014410D01*
X010721Y014323D01*
X009836Y013437D01*
X009836Y013314D01*
X009836Y013240D01*
X009836Y012157D01*
X008446Y010768D01*
X008077Y010768D01*
X007954Y010768D01*
X007867Y010681D01*
X007867Y010652D01*
X007812Y010707D01*
X007688Y010758D01*
X007555Y010758D01*
X007432Y010707D01*
X007344Y010620D01*
X006915Y010620D01*
X006827Y010707D01*
X006704Y010758D01*
X006571Y010758D01*
X006447Y010707D01*
X006360Y010620D01*
X006244Y010620D01*
X006244Y022822D01*
X025931Y022822D01*
X028635Y020118D01*
X028623Y020118D01*
X028617Y020112D02*
X007856Y020112D01*
X007812Y020156D02*
X007688Y020207D01*
X007555Y020207D01*
X007432Y020156D01*
X007337Y020061D01*
X007286Y019938D01*
X007286Y019805D01*
X007337Y019681D01*
X007432Y019587D01*
X007555Y019536D01*
X007688Y019536D01*
X007812Y019587D01*
X007906Y019681D01*
X007957Y019805D01*
X007957Y019938D01*
X007906Y020061D01*
X007812Y020156D01*
X007925Y020015D02*
X009171Y020015D01*
X009217Y020061D02*
X009106Y019950D01*
X009106Y019793D01*
X009217Y019682D01*
X009373Y019682D01*
X009484Y019793D01*
X009484Y019950D01*
X009373Y020061D01*
X009217Y020061D01*
X009106Y019918D02*
X007957Y019918D01*
X007957Y019821D02*
X009106Y019821D01*
X009175Y019724D02*
X007924Y019724D01*
X007851Y019627D02*
X008094Y019627D01*
X008134Y019667D02*
X008023Y019556D01*
X008023Y019399D01*
X008134Y019289D01*
X008291Y019289D01*
X008401Y019399D01*
X008401Y019556D01*
X008291Y019667D01*
X008134Y019667D01*
X008023Y019530D02*
X006244Y019530D01*
X006244Y019627D02*
X006408Y019627D01*
X006447Y019587D02*
X006571Y019536D01*
X006704Y019536D01*
X006827Y019587D01*
X006922Y019681D01*
X006973Y019805D01*
X006973Y019938D01*
X006922Y020061D01*
X006827Y020156D01*
X006704Y020207D01*
X006571Y020207D01*
X006447Y020156D01*
X006353Y020061D01*
X006302Y019938D01*
X006302Y019805D01*
X006353Y019681D01*
X006447Y019587D01*
X006336Y019724D02*
X006244Y019724D01*
X006244Y019821D02*
X006302Y019821D01*
X006302Y019918D02*
X006244Y019918D01*
X006244Y020015D02*
X006334Y020015D01*
X006403Y020112D02*
X006244Y020112D01*
X006244Y020209D02*
X009773Y020209D01*
X009807Y020174D02*
X009696Y020285D01*
X009696Y020442D01*
X009807Y020553D01*
X009964Y020553D01*
X010075Y020442D01*
X010075Y020285D01*
X009964Y020174D01*
X009807Y020174D01*
X009696Y020306D02*
X006244Y020306D01*
X006244Y020403D02*
X006419Y020403D01*
X006447Y020375D02*
X006353Y020469D01*
X006302Y020592D01*
X006302Y020726D01*
X006353Y020849D01*
X006447Y020943D01*
X006571Y020994D01*
X006704Y020994D01*
X006827Y020943D01*
X006922Y020849D01*
X006973Y020726D01*
X006973Y020592D01*
X006922Y020469D01*
X006827Y020375D01*
X006704Y020323D01*
X006571Y020323D01*
X006447Y020375D01*
X006340Y020499D02*
X006244Y020499D01*
X006244Y020596D02*
X006302Y020596D01*
X006302Y020693D02*
X006244Y020693D01*
X006244Y020790D02*
X006329Y020790D01*
X006392Y020887D02*
X006244Y020887D01*
X006244Y020984D02*
X006547Y020984D01*
X006571Y021111D02*
X006704Y021111D01*
X006827Y021162D01*
X006922Y021256D01*
X006973Y021380D01*
X006973Y021513D01*
X006922Y021636D01*
X006827Y021731D01*
X006704Y021782D01*
X006571Y021782D01*
X006447Y021731D01*
X006353Y021636D01*
X006302Y021513D01*
X006302Y021380D01*
X006353Y021256D01*
X006447Y021162D01*
X006571Y021111D01*
X006431Y021178D02*
X006244Y021178D01*
X006244Y021081D02*
X010533Y021081D01*
X010533Y020984D02*
X007713Y020984D01*
X007688Y020994D02*
X007555Y020994D01*
X007432Y020943D01*
X007337Y020849D01*
X007286Y020726D01*
X007286Y020592D01*
X007337Y020469D01*
X007432Y020375D01*
X007555Y020323D01*
X007688Y020323D01*
X007812Y020375D01*
X007906Y020469D01*
X007957Y020592D01*
X007957Y020726D01*
X007906Y020849D01*
X007812Y020943D01*
X007688Y020994D01*
X007531Y020984D02*
X006728Y020984D01*
X006883Y020887D02*
X007376Y020887D01*
X007313Y020790D02*
X006946Y020790D01*
X006973Y020693D02*
X007286Y020693D01*
X007286Y020596D02*
X006973Y020596D01*
X006934Y020499D02*
X007325Y020499D01*
X007404Y020403D02*
X006855Y020403D01*
X006872Y020112D02*
X007387Y020112D01*
X007318Y020015D02*
X006941Y020015D01*
X006973Y019918D02*
X007286Y019918D01*
X007286Y019821D02*
X006973Y019821D01*
X006939Y019724D02*
X007320Y019724D01*
X007392Y019627D02*
X006867Y019627D01*
X006827Y019368D02*
X006704Y019419D01*
X006571Y019419D01*
X006447Y019368D01*
X006353Y019274D01*
X006302Y019151D01*
X006302Y019017D01*
X006353Y018894D01*
X006447Y018800D01*
X006571Y018749D01*
X006704Y018749D01*
X006827Y018800D01*
X006922Y018894D01*
X006973Y019017D01*
X006973Y019151D01*
X006922Y019274D01*
X006827Y019368D01*
X006860Y019336D02*
X007399Y019336D01*
X007432Y019368D02*
X007337Y019274D01*
X007286Y019151D01*
X007286Y019017D01*
X007337Y018894D01*
X007432Y018800D01*
X007555Y018749D01*
X007688Y018749D01*
X007812Y018800D01*
X007906Y018894D01*
X007957Y019017D01*
X007957Y019151D01*
X007906Y019274D01*
X007812Y019368D01*
X007688Y019419D01*
X007555Y019419D01*
X007432Y019368D01*
X007323Y019239D02*
X006936Y019239D01*
X006973Y019142D02*
X007286Y019142D01*
X007286Y019045D02*
X006973Y019045D01*
X006944Y018948D02*
X007315Y018948D01*
X007380Y018851D02*
X006879Y018851D01*
X006717Y018754D02*
X007542Y018754D01*
X007555Y018632D02*
X007432Y018581D01*
X007337Y018487D01*
X007286Y018363D01*
X007286Y018230D01*
X007337Y018107D01*
X007432Y018012D01*
X007555Y017961D01*
X007688Y017961D01*
X007812Y018012D01*
X007906Y018107D01*
X007957Y018230D01*
X007957Y018363D01*
X007906Y018487D01*
X007812Y018581D01*
X007688Y018632D01*
X007555Y018632D01*
X007411Y018560D02*
X006848Y018560D01*
X006827Y018581D02*
X006704Y018632D01*
X006571Y018632D01*
X006447Y018581D01*
X006353Y018487D01*
X006302Y018363D01*
X006302Y018230D01*
X006353Y018107D01*
X006447Y018012D01*
X006571Y017961D01*
X006704Y017961D01*
X006827Y018012D01*
X006922Y018107D01*
X006973Y018230D01*
X006973Y018363D01*
X006922Y018487D01*
X006827Y018581D01*
X006932Y018463D02*
X007328Y018463D01*
X007287Y018366D02*
X006972Y018366D01*
X006973Y018269D02*
X007286Y018269D01*
X007310Y018172D02*
X006949Y018172D01*
X006890Y018075D02*
X007369Y018075D01*
X007514Y017978D02*
X006745Y017978D01*
X006704Y017845D02*
X006571Y017845D01*
X006447Y017794D01*
X006353Y017699D01*
X006302Y017576D01*
X006302Y017443D01*
X006353Y017319D01*
X006447Y017225D01*
X006571Y017174D01*
X006704Y017174D01*
X006827Y017225D01*
X006922Y017319D01*
X006973Y017443D01*
X006973Y017576D01*
X006922Y017699D01*
X006827Y017794D01*
X006704Y017845D01*
X006837Y017784D02*
X007422Y017784D01*
X007432Y017794D02*
X007337Y017699D01*
X007286Y017576D01*
X007286Y017443D01*
X007337Y017319D01*
X007432Y017225D01*
X007555Y017174D01*
X007688Y017174D01*
X007812Y017225D01*
X007906Y017319D01*
X007957Y017443D01*
X007957Y017576D01*
X007906Y017699D01*
X007812Y017794D01*
X007688Y017845D01*
X007555Y017845D01*
X007432Y017794D01*
X007332Y017687D02*
X006927Y017687D01*
X006967Y017590D02*
X007292Y017590D01*
X007286Y017493D02*
X006973Y017493D01*
X006954Y017396D02*
X007305Y017396D01*
X007357Y017300D02*
X006902Y017300D01*
X006773Y017203D02*
X007486Y017203D01*
X007555Y017057D02*
X007432Y017006D01*
X007337Y016912D01*
X007286Y016789D01*
X007286Y016655D01*
X007337Y016532D01*
X007432Y016438D01*
X007555Y016386D01*
X007688Y016386D01*
X007812Y016438D01*
X007906Y016532D01*
X007957Y016655D01*
X007957Y016789D01*
X007906Y016912D01*
X007812Y017006D01*
X007688Y017057D01*
X007555Y017057D01*
X007438Y017009D02*
X006822Y017009D01*
X006827Y017006D02*
X006704Y017057D01*
X006571Y017057D01*
X006447Y017006D01*
X006353Y016912D01*
X006302Y016789D01*
X006302Y016655D01*
X006353Y016532D01*
X006447Y016438D01*
X006571Y016386D01*
X006704Y016386D01*
X006827Y016438D01*
X006922Y016532D01*
X006973Y016655D01*
X006973Y016789D01*
X006922Y016912D01*
X006827Y017006D01*
X006922Y016912D02*
X007337Y016912D01*
X007297Y016815D02*
X006962Y016815D01*
X006973Y016718D02*
X007286Y016718D01*
X007301Y016621D02*
X006959Y016621D01*
X006914Y016524D02*
X007345Y016524D01*
X007458Y016427D02*
X006802Y016427D01*
X006704Y016270D02*
X006571Y016270D01*
X006447Y016219D01*
X006353Y016124D01*
X006302Y016001D01*
X006302Y015868D01*
X006353Y015744D01*
X006447Y015650D01*
X006571Y015599D01*
X006704Y015599D01*
X006827Y015650D01*
X006922Y015744D01*
X006973Y015868D01*
X006973Y016001D01*
X006922Y016124D01*
X006827Y016219D01*
X006704Y016270D01*
X006794Y016233D02*
X007466Y016233D01*
X007432Y016219D02*
X007337Y016124D01*
X007286Y016001D01*
X007286Y015868D01*
X007337Y015744D01*
X007432Y015650D01*
X007555Y015599D01*
X007688Y015599D01*
X007812Y015650D01*
X007906Y015744D01*
X007957Y015868D01*
X007957Y016001D01*
X007906Y016124D01*
X007812Y016219D01*
X007688Y016270D01*
X007555Y016270D01*
X007432Y016219D01*
X007349Y016136D02*
X006910Y016136D01*
X006957Y016039D02*
X007302Y016039D01*
X007286Y015942D02*
X006973Y015942D01*
X006963Y015845D02*
X007296Y015845D01*
X007336Y015748D02*
X006923Y015748D01*
X006828Y015651D02*
X007431Y015651D01*
X007494Y015457D02*
X006765Y015457D01*
X006704Y015482D02*
X006571Y015482D01*
X006447Y015431D01*
X006353Y015337D01*
X006302Y015214D01*
X006302Y015080D01*
X006353Y014957D01*
X006447Y014863D01*
X006571Y014812D01*
X006704Y014812D01*
X006827Y014863D01*
X006922Y014957D01*
X006973Y015080D01*
X006973Y015214D01*
X006922Y015337D01*
X006827Y015431D01*
X006704Y015482D01*
X006510Y015457D02*
X006244Y015457D01*
X006244Y015360D02*
X006376Y015360D01*
X006323Y015263D02*
X006244Y015263D01*
X006244Y015166D02*
X006302Y015166D01*
X006307Y015069D02*
X006244Y015069D01*
X006244Y014972D02*
X006347Y014972D01*
X006435Y014875D02*
X006244Y014875D01*
X006244Y014778D02*
X012649Y014778D01*
X012649Y014832D02*
X012649Y014675D01*
X012760Y014564D01*
X012917Y014564D01*
X013027Y014675D01*
X013027Y014832D01*
X012917Y014943D01*
X012760Y014943D01*
X012649Y014832D01*
X012693Y014875D02*
X007824Y014875D01*
X007812Y014863D02*
X007906Y014957D01*
X007957Y015080D01*
X007957Y015214D01*
X007906Y015337D01*
X007812Y015431D01*
X007688Y015482D01*
X007555Y015482D01*
X007432Y015431D01*
X007337Y015337D01*
X007286Y015214D01*
X007286Y015080D01*
X007337Y014957D01*
X007432Y014863D01*
X007555Y014812D01*
X007688Y014812D01*
X007812Y014863D01*
X007912Y014972D02*
X017178Y014972D01*
X017081Y014875D02*
X012984Y014875D01*
X013027Y014778D02*
X016984Y014778D01*
X016887Y014681D02*
X013027Y014681D01*
X012937Y014584D02*
X016790Y014584D01*
X016693Y014487D02*
X007932Y014487D01*
X007957Y014426D02*
X007906Y014550D01*
X007812Y014644D01*
X007688Y014695D01*
X007555Y014695D01*
X007432Y014644D01*
X007337Y014550D01*
X007286Y014426D01*
X007286Y014293D01*
X007337Y014170D01*
X007432Y014075D01*
X007555Y014024D01*
X007688Y014024D01*
X007812Y014075D01*
X007906Y014170D01*
X007957Y014293D01*
X007957Y014426D01*
X007957Y014390D02*
X010789Y014390D01*
X010692Y014294D02*
X007957Y014294D01*
X007917Y014197D02*
X010595Y014197D01*
X010498Y014100D02*
X007836Y014100D01*
X007407Y014100D02*
X006852Y014100D01*
X006827Y014075D02*
X006922Y014170D01*
X006973Y014293D01*
X006973Y014426D01*
X006922Y014550D01*
X006827Y014644D01*
X006704Y014695D01*
X006571Y014695D01*
X006447Y014644D01*
X006353Y014550D01*
X006302Y014426D01*
X006302Y014293D01*
X006353Y014170D01*
X006447Y014075D01*
X006571Y014024D01*
X006704Y014024D01*
X006827Y014075D01*
X006933Y014197D02*
X007326Y014197D01*
X007286Y014294D02*
X006973Y014294D01*
X006973Y014390D02*
X007286Y014390D01*
X007312Y014487D02*
X006948Y014487D01*
X006887Y014584D02*
X007372Y014584D01*
X007522Y014681D02*
X006737Y014681D01*
X006538Y014681D02*
X006244Y014681D01*
X006244Y014584D02*
X006388Y014584D01*
X006327Y014487D02*
X006244Y014487D01*
X006244Y014390D02*
X006302Y014390D01*
X006302Y014294D02*
X006244Y014294D01*
X006244Y014197D02*
X006342Y014197D01*
X006423Y014100D02*
X006244Y014100D01*
X006244Y014003D02*
X010401Y014003D01*
X010304Y013906D02*
X006244Y013906D01*
X006244Y013809D02*
X010207Y013809D01*
X010110Y013712D02*
X006244Y013712D01*
X006244Y013615D02*
X010013Y013615D01*
X009916Y013518D02*
X006244Y013518D01*
X006244Y013421D02*
X009836Y013421D01*
X009836Y013324D02*
X006244Y013324D01*
X006244Y013227D02*
X009836Y013227D01*
X009836Y013130D02*
X006244Y013130D01*
X006244Y013033D02*
X009836Y013033D01*
X009836Y012936D02*
X006244Y012936D01*
X006244Y012839D02*
X009836Y012839D01*
X009836Y012742D02*
X006244Y012742D01*
X006244Y012645D02*
X009836Y012645D01*
X009836Y012548D02*
X006244Y012548D01*
X006244Y012451D02*
X009836Y012451D01*
X009836Y012354D02*
X006244Y012354D01*
X006244Y012257D02*
X006423Y012257D01*
X006447Y012282D02*
X006353Y012187D01*
X006302Y012064D01*
X006302Y011931D01*
X006353Y011807D01*
X006447Y011713D01*
X006571Y011662D01*
X006704Y011662D01*
X006827Y011713D01*
X006922Y011807D01*
X006973Y011931D01*
X006973Y012064D01*
X006922Y012187D01*
X006827Y012282D01*
X006704Y012333D01*
X006571Y012333D01*
X006447Y012282D01*
X006342Y012160D02*
X006244Y012160D01*
X006244Y012063D02*
X006302Y012063D01*
X006302Y011966D02*
X006244Y011966D01*
X006244Y011869D02*
X006327Y011869D01*
X006388Y011772D02*
X006244Y011772D01*
X006244Y011675D02*
X006539Y011675D01*
X006525Y011581D02*
X006455Y011552D01*
X006392Y011509D01*
X006338Y011456D01*
X006296Y011393D01*
X006267Y011322D01*
X006252Y011248D01*
X006252Y011240D01*
X006608Y011240D01*
X006608Y011595D01*
X006599Y011595D01*
X006525Y011581D01*
X006520Y011578D02*
X006244Y011578D01*
X006244Y011481D02*
X006364Y011481D01*
X006293Y011384D02*
X006244Y011384D01*
X006244Y011287D02*
X006260Y011287D01*
X006244Y011191D02*
X006608Y011191D01*
X006608Y011180D02*
X006252Y011180D01*
X006252Y011172D01*
X006267Y011098D01*
X006296Y011027D01*
X006338Y010964D01*
X006392Y010911D01*
X006455Y010869D01*
X006525Y010839D01*
X006599Y010825D01*
X006608Y010825D01*
X006608Y011180D01*
X006667Y011180D01*
X006667Y010825D01*
X006675Y010825D01*
X006750Y010839D01*
X006820Y010869D01*
X006883Y010911D01*
X006937Y010964D01*
X006979Y011027D01*
X007008Y011098D01*
X007023Y011172D01*
X007023Y011180D01*
X006667Y011180D01*
X006667Y011240D01*
X006608Y011240D01*
X006608Y011180D01*
X006667Y011191D02*
X007286Y011191D01*
X007286Y011143D02*
X007337Y011020D01*
X007432Y010926D01*
X007555Y010875D01*
X007688Y010875D01*
X007812Y010926D01*
X007906Y011020D01*
X007957Y011143D01*
X007957Y011277D01*
X007906Y011400D01*
X007812Y011494D01*
X007688Y011545D01*
X007555Y011545D01*
X007432Y011494D01*
X007337Y011400D01*
X007286Y011277D01*
X007286Y011143D01*
X007307Y011094D02*
X007006Y011094D01*
X006958Y010997D02*
X007361Y010997D01*
X007495Y010900D02*
X006867Y010900D01*
X006829Y010706D02*
X007430Y010706D01*
X007749Y010900D02*
X008578Y010900D01*
X008675Y010997D02*
X007883Y010997D01*
X007936Y011094D02*
X008772Y011094D01*
X008869Y011191D02*
X007957Y011191D01*
X007953Y011287D02*
X008966Y011287D01*
X009063Y011384D02*
X007913Y011384D01*
X007825Y011481D02*
X009160Y011481D01*
X009257Y011578D02*
X006755Y011578D01*
X006750Y011581D02*
X006675Y011595D01*
X006667Y011595D01*
X006667Y011240D01*
X007023Y011240D01*
X007023Y011248D01*
X007008Y011322D01*
X006979Y011393D01*
X006937Y011456D01*
X006883Y011509D01*
X006820Y011552D01*
X006750Y011581D01*
X006667Y011578D02*
X006608Y011578D01*
X006608Y011481D02*
X006667Y011481D01*
X006667Y011384D02*
X006608Y011384D01*
X006608Y011287D02*
X006667Y011287D01*
X006667Y011094D02*
X006608Y011094D01*
X006608Y010997D02*
X006667Y010997D01*
X006667Y010900D02*
X006608Y010900D01*
X006408Y010900D02*
X006244Y010900D01*
X006244Y010997D02*
X006317Y010997D01*
X006269Y011094D02*
X006244Y011094D01*
X006244Y010803D02*
X008481Y010803D01*
X008594Y010706D02*
X010661Y010706D01*
X010758Y010803D02*
X008691Y010803D01*
X008788Y010900D02*
X010855Y010900D01*
X010952Y010997D02*
X008885Y010997D01*
X008982Y011094D02*
X011049Y011094D01*
X011145Y011191D02*
X009079Y011191D01*
X009176Y011287D02*
X011242Y011287D01*
X011339Y011384D02*
X009272Y011384D01*
X009369Y011481D02*
X011436Y011481D01*
X011533Y011578D02*
X009466Y011578D01*
X009563Y011675D02*
X011630Y011675D01*
X011727Y011772D02*
X009660Y011772D01*
X009757Y011869D02*
X011824Y011869D01*
X011921Y011966D02*
X009854Y011966D01*
X009951Y012063D02*
X012018Y012063D01*
X012115Y012160D02*
X009984Y012160D01*
X009984Y012096D02*
X009984Y013179D01*
X010533Y013179D01*
X010533Y013053D01*
X010629Y012820D01*
X010807Y012643D01*
X011039Y012546D01*
X011291Y012546D01*
X011523Y012643D01*
X011701Y012820D01*
X011797Y013053D01*
X011797Y013179D01*
X022709Y013179D01*
X022688Y013159D01*
X022688Y013002D01*
X022799Y012891D01*
X022956Y012891D01*
X023067Y013002D01*
X023067Y013159D01*
X023047Y013179D01*
X025858Y013179D01*
X025949Y013088D01*
X026106Y013088D01*
X026196Y013179D01*
X026350Y013179D01*
X026330Y013159D01*
X026330Y013002D01*
X026441Y012891D01*
X026519Y012891D01*
X026519Y010915D01*
X028882Y010915D01*
X028882Y013108D01*
X028902Y013088D01*
X029058Y013088D01*
X029149Y013179D01*
X029303Y013179D01*
X029394Y013088D01*
X029550Y013088D01*
X029641Y013179D01*
X031005Y013179D01*
X031005Y013053D01*
X031101Y012820D01*
X031279Y012643D01*
X031512Y012546D01*
X031763Y012546D01*
X031996Y012643D01*
X032173Y012820D01*
X032270Y013053D01*
X032270Y013179D01*
X032917Y013179D01*
X032917Y008454D01*
X032031Y008454D01*
X030456Y006879D01*
X029669Y006879D01*
X027307Y004517D01*
X024846Y004517D01*
X024157Y005206D01*
X023608Y005206D01*
X023608Y005430D01*
X023512Y005663D01*
X023334Y005841D01*
X023102Y005937D01*
X022850Y005937D01*
X022618Y005841D01*
X022440Y005663D01*
X022344Y005430D01*
X022344Y005206D01*
X021992Y005206D01*
X019531Y007667D01*
X018252Y007667D01*
X018126Y007541D01*
X018126Y007627D01*
X018015Y007738D01*
X017858Y007738D01*
X017747Y007627D01*
X017747Y007470D01*
X017858Y007359D01*
X017944Y007359D01*
X017267Y006683D01*
X017056Y006894D01*
X017056Y006975D01*
X016928Y007102D01*
X016848Y007102D01*
X016499Y007451D01*
X016499Y007531D01*
X016371Y007659D01*
X016291Y007659D01*
X015988Y007962D01*
X016363Y008337D01*
X016371Y008337D01*
X016499Y008464D01*
X016499Y008473D01*
X016684Y008659D01*
X016712Y008659D01*
X016684Y008631D01*
X016684Y008474D01*
X016795Y008363D01*
X016952Y008363D01*
X016980Y008391D01*
X016980Y008376D01*
X017091Y008265D01*
X017247Y008265D01*
X017358Y008376D01*
X017358Y008533D01*
X017247Y008643D01*
X017091Y008643D01*
X017063Y008616D01*
X017063Y008631D01*
X016952Y008742D01*
X016838Y008742D01*
X016866Y008769D01*
X016866Y008840D01*
X017464Y009438D01*
X018055Y009438D01*
X018449Y009832D01*
X019039Y009832D01*
X019039Y010816D01*
X018350Y010816D01*
X017760Y011407D01*
X016846Y011407D01*
X016866Y011427D01*
X016866Y011584D01*
X016755Y011695D01*
X016598Y011695D01*
X016488Y011584D01*
X016488Y011427D01*
X016508Y011407D01*
X015988Y011407D01*
X014807Y012588D01*
X012543Y012588D01*
X008704Y008749D01*
X008015Y008749D01*
X008015Y010620D01*
X008508Y010620D01*
X009984Y012096D01*
X009984Y012257D02*
X012212Y012257D01*
X012309Y012354D02*
X009984Y012354D01*
X009984Y012451D02*
X012406Y012451D01*
X012503Y012548D02*
X011295Y012548D01*
X011526Y012645D02*
X018259Y012645D01*
X018259Y012608D02*
X018370Y012497D01*
X018527Y012497D01*
X018638Y012608D01*
X018638Y012765D01*
X018527Y012876D01*
X018370Y012876D01*
X018259Y012765D01*
X018259Y012608D01*
X018319Y012548D02*
X014847Y012548D01*
X014944Y012451D02*
X022473Y012451D01*
X022504Y012482D02*
X022393Y012371D01*
X022393Y012214D01*
X022504Y012104D01*
X022661Y012104D01*
X022772Y012214D01*
X022772Y012371D01*
X022661Y012482D01*
X022504Y012482D01*
X022562Y012497D02*
X022673Y012608D01*
X022673Y012765D01*
X022562Y012876D01*
X022406Y012876D01*
X022295Y012765D01*
X022295Y012608D01*
X022406Y012497D01*
X022562Y012497D01*
X022613Y012548D02*
X026519Y012548D01*
X026519Y012451D02*
X022692Y012451D01*
X022772Y012354D02*
X026519Y012354D01*
X026519Y012257D02*
X022772Y012257D01*
X022717Y012160D02*
X026519Y012160D01*
X026519Y012063D02*
X019372Y012063D01*
X019425Y012116D02*
X019314Y012005D01*
X019158Y012005D01*
X019047Y012116D01*
X019047Y012273D01*
X019158Y012384D01*
X019314Y012384D01*
X019425Y012273D01*
X019425Y012116D01*
X019425Y012160D02*
X022447Y012160D01*
X022393Y012257D02*
X019425Y012257D01*
X019344Y012354D02*
X022393Y012354D01*
X022355Y012548D02*
X018578Y012548D01*
X018638Y012645D02*
X022295Y012645D01*
X022295Y012742D02*
X018638Y012742D01*
X018564Y012839D02*
X022369Y012839D01*
X022599Y012839D02*
X026519Y012839D01*
X026519Y012742D02*
X022673Y012742D01*
X022673Y012645D02*
X026519Y012645D01*
X026668Y012645D02*
X028733Y012645D01*
X028733Y012548D02*
X026668Y012548D01*
X026668Y012451D02*
X028733Y012451D01*
X028733Y012354D02*
X026668Y012354D01*
X026668Y012257D02*
X028733Y012257D01*
X028733Y012160D02*
X026668Y012160D01*
X026668Y012063D02*
X028733Y012063D01*
X028733Y011966D02*
X026668Y011966D01*
X026668Y011869D02*
X028733Y011869D01*
X028733Y011772D02*
X026668Y011772D01*
X026668Y011675D02*
X028733Y011675D01*
X028733Y011578D02*
X026668Y011578D01*
X026668Y011547D02*
X026668Y012961D01*
X026709Y013002D01*
X026709Y013159D01*
X026668Y013199D01*
X026668Y013240D01*
X026581Y013327D01*
X026458Y013327D01*
X026216Y013327D01*
X026216Y013355D01*
X026106Y013466D01*
X025949Y013466D01*
X025838Y013355D01*
X025838Y013327D01*
X024819Y013327D01*
X024888Y013395D01*
X024888Y013552D01*
X024777Y013663D01*
X024620Y013663D01*
X024509Y013552D01*
X024509Y013395D01*
X024578Y013327D01*
X021620Y013327D01*
X021689Y013395D01*
X021689Y013552D01*
X021578Y013663D01*
X021421Y013663D01*
X021310Y013552D01*
X021310Y013395D01*
X021379Y013327D01*
X011788Y013327D01*
X011701Y013537D01*
X011523Y013715D01*
X011291Y013811D01*
X011039Y013811D01*
X010807Y013715D01*
X010629Y013537D01*
X010542Y013327D01*
X010045Y013327D01*
X009984Y013327D01*
X009984Y013375D01*
X010870Y014261D01*
X016677Y014261D01*
X017661Y015246D01*
X019236Y015246D01*
X019433Y015442D01*
X019433Y016131D01*
X022681Y019379D01*
X026519Y019379D01*
X026618Y019281D01*
X026618Y018584D01*
X026539Y018584D01*
X026429Y018473D01*
X026429Y018317D01*
X026539Y018206D01*
X026618Y018206D01*
X026618Y018001D01*
X028685Y018001D01*
X028685Y019970D01*
X029078Y019970D01*
X030161Y018887D01*
X030949Y018887D01*
X032917Y016919D01*
X032917Y013327D01*
X032260Y013327D01*
X032173Y013537D01*
X031996Y013715D01*
X031763Y013811D01*
X031512Y013811D01*
X031279Y013715D01*
X031101Y013537D01*
X031015Y013327D01*
X029661Y013327D01*
X029661Y013355D01*
X029550Y013466D01*
X029394Y013466D01*
X029283Y013355D01*
X029283Y013327D01*
X029169Y013327D01*
X029169Y013355D01*
X029058Y013466D01*
X028902Y013466D01*
X028791Y013355D01*
X028791Y013298D01*
X028733Y013240D01*
X028733Y011063D01*
X026668Y011063D01*
X026668Y011169D01*
X026795Y011169D01*
X026905Y011279D01*
X026905Y011436D01*
X026795Y011547D01*
X026668Y011547D01*
X026519Y011578D02*
X024450Y011578D01*
X024432Y011596D02*
X024276Y011596D01*
X024165Y011485D01*
X024165Y011329D01*
X024276Y011218D01*
X024432Y011218D01*
X024543Y011329D01*
X024543Y011485D01*
X024432Y011596D01*
X024543Y011481D02*
X026519Y011481D01*
X026519Y011384D02*
X024543Y011384D01*
X024502Y011287D02*
X026519Y011287D01*
X026519Y011191D02*
X017976Y011191D01*
X017879Y011287D02*
X023222Y011287D01*
X023181Y011329D02*
X023291Y011218D01*
X023448Y011218D01*
X023559Y011329D01*
X023559Y011485D01*
X023448Y011596D01*
X023291Y011596D01*
X023181Y011485D01*
X023181Y011329D01*
X023181Y011384D02*
X017782Y011384D01*
X017698Y011259D02*
X018202Y010755D01*
X018289Y010668D01*
X018891Y010668D01*
X018891Y009981D01*
X018510Y009981D01*
X018387Y009981D01*
X017993Y009587D01*
X017526Y009587D01*
X017403Y009587D01*
X016804Y008988D01*
X016755Y009037D01*
X016598Y009037D01*
X016488Y008926D01*
X016488Y008769D01*
X016537Y008721D01*
X015926Y008110D01*
X015839Y008024D01*
X015839Y007901D01*
X017119Y006621D01*
X017206Y006534D01*
X017329Y006534D01*
X018026Y007231D01*
X018134Y007123D01*
X018291Y007123D01*
X018401Y007234D01*
X018401Y007391D01*
X018293Y007499D01*
X018313Y007518D01*
X019470Y007518D01*
X021843Y005145D01*
X021930Y005058D01*
X022394Y005058D01*
X022440Y004946D01*
X022618Y004769D01*
X022850Y004672D01*
X023102Y004672D01*
X023334Y004769D01*
X023512Y004946D01*
X023558Y005058D01*
X024096Y005058D01*
X024698Y004456D01*
X024785Y004369D01*
X027245Y004369D01*
X027368Y004369D01*
X028594Y005594D01*
X028594Y005521D01*
X028705Y005411D01*
X028861Y005411D01*
X028972Y005521D01*
X028972Y005678D01*
X028861Y005789D01*
X028788Y005789D01*
X029730Y006731D01*
X030395Y006731D01*
X030518Y006731D01*
X032093Y008306D01*
X032856Y008306D01*
X032917Y008306D01*
X032917Y007864D01*
X034295Y006486D01*
X034276Y003535D01*
X006145Y003535D01*
X006145Y008749D01*
X006315Y008749D01*
X006353Y008658D01*
X006447Y008564D01*
X006571Y008512D01*
X006704Y008512D01*
X006827Y008564D01*
X006922Y008658D01*
X006960Y008749D01*
X007299Y008749D01*
X007337Y008658D01*
X007432Y008564D01*
X007555Y008512D01*
X007688Y008512D01*
X007812Y008564D01*
X007902Y008653D01*
X007954Y008601D01*
X008643Y008601D01*
X008766Y008601D01*
X012604Y012440D01*
X014745Y012440D01*
X015839Y011345D01*
X015926Y011259D01*
X017698Y011259D01*
X017766Y011191D02*
X013962Y011191D01*
X014012Y011141D02*
X013901Y011252D01*
X013744Y011252D01*
X013633Y011141D01*
X013633Y010984D01*
X013744Y010873D01*
X013901Y010873D01*
X014012Y010984D01*
X014012Y011141D01*
X014012Y011094D02*
X017863Y011094D01*
X017960Y010997D02*
X014012Y010997D01*
X013927Y010900D02*
X018057Y010900D01*
X018154Y010803D02*
X013661Y010803D01*
X013667Y010796D02*
X013556Y010907D01*
X013400Y010907D01*
X013289Y010796D01*
X013289Y010640D01*
X013400Y010529D01*
X013556Y010529D01*
X013667Y010640D01*
X013667Y010796D01*
X013667Y010706D02*
X016102Y010706D01*
X016106Y010710D02*
X015996Y010599D01*
X015996Y010443D01*
X016106Y010332D01*
X016263Y010332D01*
X016374Y010443D01*
X016374Y010599D01*
X016263Y010710D01*
X016106Y010710D01*
X016005Y010609D02*
X015233Y010609D01*
X015230Y010612D02*
X015073Y010612D01*
X014962Y010501D01*
X014962Y010344D01*
X015073Y010233D01*
X015230Y010233D01*
X015340Y010344D01*
X015340Y010501D01*
X015230Y010612D01*
X015330Y010512D02*
X015996Y010512D01*
X016023Y010415D02*
X015340Y010415D01*
X015314Y010318D02*
X017866Y010318D01*
X017866Y010246D02*
X017976Y010135D01*
X018133Y010135D01*
X018244Y010246D01*
X018244Y010403D01*
X018133Y010513D01*
X017976Y010513D01*
X017866Y010403D01*
X017866Y010246D01*
X017891Y010221D02*
X014932Y010221D01*
X014885Y010267D02*
X014996Y010157D01*
X014996Y010000D01*
X014885Y009889D01*
X014728Y009889D01*
X014618Y010000D01*
X014618Y010157D01*
X014728Y010267D01*
X014885Y010267D01*
X014989Y010318D02*
X013323Y010318D01*
X013323Y010295D02*
X013212Y010184D01*
X013055Y010184D01*
X012944Y010295D01*
X012944Y010452D01*
X013055Y010563D01*
X013212Y010563D01*
X013323Y010452D01*
X013323Y010295D01*
X013248Y010221D02*
X014682Y010221D01*
X014618Y010124D02*
X012912Y010124D01*
X012867Y010169D02*
X012711Y010169D01*
X012600Y010058D01*
X012600Y009901D01*
X012711Y009791D01*
X012867Y009791D01*
X012978Y009901D01*
X012978Y010058D01*
X012867Y010169D01*
X013019Y010221D02*
X011634Y010221D01*
X011649Y010206D02*
X011539Y010317D01*
X011382Y010317D01*
X011271Y010206D01*
X011271Y010049D01*
X011382Y009938D01*
X011539Y009938D01*
X011649Y010049D01*
X011649Y010206D01*
X011649Y010124D02*
X012666Y010124D01*
X012600Y010027D02*
X011627Y010027D01*
X011293Y010027D02*
X010192Y010027D01*
X010289Y010124D02*
X011271Y010124D01*
X011286Y010221D02*
X010386Y010221D01*
X010483Y010318D02*
X012944Y010318D01*
X012944Y010415D02*
X010580Y010415D01*
X010677Y010512D02*
X013004Y010512D01*
X013263Y010512D02*
X014973Y010512D01*
X014962Y010415D02*
X013323Y010415D01*
X013320Y010609D02*
X010774Y010609D01*
X010871Y010706D02*
X013289Y010706D01*
X013295Y010803D02*
X010967Y010803D01*
X011064Y010900D02*
X013392Y010900D01*
X013564Y010900D02*
X013718Y010900D01*
X013633Y010997D02*
X012597Y010997D01*
X012634Y011033D02*
X012523Y010922D01*
X012366Y010922D01*
X012255Y011033D01*
X012255Y011190D01*
X012366Y011301D01*
X012523Y011301D01*
X012634Y011190D01*
X012634Y011033D01*
X012634Y011094D02*
X013633Y011094D01*
X013683Y011191D02*
X012633Y011191D01*
X012536Y011287D02*
X014029Y011287D01*
X014007Y011309D02*
X014118Y011198D01*
X014275Y011198D01*
X014386Y011309D01*
X014386Y011466D01*
X014275Y011576D01*
X014118Y011576D01*
X014007Y011466D01*
X014007Y011309D01*
X014007Y011384D02*
X011549Y011384D01*
X011452Y011287D02*
X012353Y011287D01*
X012256Y011191D02*
X011355Y011191D01*
X011258Y011094D02*
X012255Y011094D01*
X012292Y010997D02*
X011161Y010997D01*
X010564Y010609D02*
X008015Y010609D01*
X008015Y010512D02*
X010467Y010512D01*
X010370Y010415D02*
X008015Y010415D01*
X008015Y010318D02*
X010273Y010318D01*
X010176Y010221D02*
X008015Y010221D01*
X008015Y010124D02*
X010079Y010124D01*
X009982Y010027D02*
X008015Y010027D01*
X008015Y009930D02*
X009885Y009930D01*
X009788Y009833D02*
X008015Y009833D01*
X008015Y009736D02*
X009691Y009736D01*
X009594Y009639D02*
X008015Y009639D01*
X008015Y009542D02*
X009497Y009542D01*
X009400Y009445D02*
X008015Y009445D01*
X008015Y009348D02*
X009303Y009348D01*
X009206Y009251D02*
X008015Y009251D01*
X008015Y009154D02*
X009109Y009154D01*
X009012Y009057D02*
X008015Y009057D01*
X008015Y008960D02*
X008915Y008960D01*
X008818Y008863D02*
X008015Y008863D01*
X008015Y008766D02*
X008721Y008766D01*
X008834Y008669D02*
X013240Y008669D01*
X013240Y008622D02*
X013240Y008779D01*
X013350Y008889D01*
X013507Y008889D01*
X013618Y008779D01*
X013618Y008622D01*
X013507Y008511D01*
X013350Y008511D01*
X013240Y008622D01*
X013289Y008572D02*
X007821Y008572D01*
X007731Y008378D02*
X016194Y008378D01*
X016097Y008281D02*
X007875Y008281D01*
X007906Y008250D02*
X007812Y008345D01*
X007688Y008396D01*
X007555Y008396D01*
X007432Y008345D01*
X007337Y008250D01*
X007286Y008127D01*
X007286Y007994D01*
X007337Y007870D01*
X007432Y007776D01*
X007555Y007725D01*
X007688Y007725D01*
X007812Y007776D01*
X007906Y007870D01*
X007957Y007994D01*
X007957Y008127D01*
X007906Y008250D01*
X007933Y008184D02*
X016000Y008184D01*
X015903Y008088D02*
X007957Y008088D01*
X007956Y007991D02*
X015839Y007991D01*
X015846Y007894D02*
X007916Y007894D01*
X007832Y007797D02*
X015943Y007797D01*
X016040Y007700D02*
X006145Y007700D01*
X006145Y007797D02*
X006427Y007797D01*
X006447Y007776D02*
X006571Y007725D01*
X006704Y007725D01*
X006827Y007776D01*
X006922Y007870D01*
X006973Y007994D01*
X006973Y008127D01*
X006922Y008250D01*
X006827Y008345D01*
X006704Y008396D01*
X006571Y008396D01*
X006447Y008345D01*
X006353Y008250D01*
X006302Y008127D01*
X006302Y007994D01*
X006353Y007870D01*
X006447Y007776D01*
X006525Y007644D02*
X006455Y007615D01*
X006392Y007572D01*
X006338Y007519D01*
X006296Y007456D01*
X006267Y007385D01*
X006252Y007311D01*
X006252Y007303D01*
X006608Y007303D01*
X006608Y007658D01*
X006599Y007658D01*
X006525Y007644D01*
X006608Y007603D02*
X006667Y007603D01*
X006667Y007658D02*
X006667Y007303D01*
X006608Y007303D01*
X006608Y007243D01*
X006667Y007243D01*
X006667Y006888D01*
X006675Y006888D01*
X006750Y006902D01*
X006820Y006931D01*
X006883Y006974D01*
X006937Y007027D01*
X006979Y007090D01*
X007008Y007161D01*
X007023Y007235D01*
X007023Y007243D01*
X006667Y007243D01*
X006667Y007303D01*
X007023Y007303D01*
X007023Y007311D01*
X007008Y007385D01*
X006979Y007456D01*
X006937Y007519D01*
X006883Y007572D01*
X006820Y007615D01*
X006750Y007644D01*
X006675Y007658D01*
X006667Y007658D01*
X006667Y007506D02*
X006608Y007506D01*
X006608Y007409D02*
X006667Y007409D01*
X006667Y007312D02*
X006608Y007312D01*
X006608Y007243D02*
X006252Y007243D01*
X006252Y007235D01*
X006267Y007161D01*
X006296Y007090D01*
X006338Y007027D01*
X006392Y006974D01*
X006455Y006931D01*
X006525Y006902D01*
X006599Y006888D01*
X006608Y006888D01*
X006608Y007243D01*
X006608Y007215D02*
X006667Y007215D01*
X006667Y007118D02*
X006608Y007118D01*
X006608Y007021D02*
X006667Y007021D01*
X006667Y006924D02*
X006608Y006924D01*
X006571Y006821D02*
X006447Y006770D01*
X006353Y006676D01*
X006302Y006552D01*
X006302Y006419D01*
X006353Y006296D01*
X006447Y006201D01*
X006571Y006150D01*
X006704Y006150D01*
X006827Y006201D01*
X006922Y006296D01*
X006973Y006419D01*
X006973Y006552D01*
X006922Y006676D01*
X006827Y006770D01*
X006704Y006821D01*
X006571Y006821D01*
X006473Y006924D02*
X006145Y006924D01*
X006145Y007021D02*
X006345Y007021D01*
X006285Y007118D02*
X006145Y007118D01*
X006145Y007215D02*
X006256Y007215D01*
X006252Y007312D02*
X006145Y007312D01*
X006145Y007409D02*
X006276Y007409D01*
X006329Y007506D02*
X006145Y007506D01*
X006145Y007603D02*
X006437Y007603D01*
X006344Y007894D02*
X006145Y007894D01*
X006145Y007991D02*
X006303Y007991D01*
X006302Y008088D02*
X006145Y008088D01*
X006145Y008184D02*
X006326Y008184D01*
X006384Y008281D02*
X006145Y008281D01*
X006145Y008378D02*
X006529Y008378D01*
X006439Y008572D02*
X006145Y008572D01*
X006145Y008475D02*
X016291Y008475D01*
X016388Y008572D02*
X013569Y008572D01*
X013618Y008669D02*
X016485Y008669D01*
X016491Y008766D02*
X013618Y008766D01*
X013695Y008856D02*
X013852Y008856D01*
X013962Y008966D01*
X013962Y009123D01*
X013852Y009234D01*
X013695Y009234D01*
X013584Y009123D01*
X013584Y008966D01*
X013695Y008856D01*
X013687Y008863D02*
X013533Y008863D01*
X013590Y008960D02*
X009125Y008960D01*
X009028Y008863D02*
X013324Y008863D01*
X013240Y008766D02*
X008931Y008766D01*
X009222Y009057D02*
X013584Y009057D01*
X013615Y009154D02*
X009319Y009154D01*
X009416Y009251D02*
X013988Y009251D01*
X014039Y009200D02*
X014196Y009200D01*
X014307Y009311D01*
X014307Y009468D01*
X014196Y009578D01*
X014039Y009578D01*
X013929Y009468D01*
X013929Y009311D01*
X014039Y009200D01*
X013931Y009154D02*
X016970Y009154D01*
X016873Y009057D02*
X013962Y009057D01*
X013956Y008960D02*
X016522Y008960D01*
X016488Y008863D02*
X013859Y008863D01*
X014247Y009251D02*
X017067Y009251D01*
X017164Y009348D02*
X016411Y009348D01*
X016522Y009458D01*
X016522Y009615D01*
X016411Y009726D01*
X016254Y009726D01*
X016143Y009615D01*
X016143Y009458D01*
X016254Y009348D01*
X016411Y009348D01*
X016508Y009445D02*
X017261Y009445D01*
X017358Y009542D02*
X016522Y009542D01*
X016498Y009639D02*
X018046Y009639D01*
X018142Y009736D02*
X014651Y009736D01*
X014651Y009812D02*
X014541Y009923D01*
X014384Y009923D01*
X014273Y009812D01*
X014273Y009655D01*
X014384Y009544D01*
X014541Y009544D01*
X014651Y009655D01*
X014651Y009812D01*
X014631Y009833D02*
X018239Y009833D01*
X018336Y009930D02*
X014926Y009930D01*
X014996Y010027D02*
X018891Y010027D01*
X018891Y010124D02*
X014996Y010124D01*
X014687Y009930D02*
X012978Y009930D01*
X012978Y010027D02*
X014618Y010027D01*
X014294Y009833D02*
X012910Y009833D01*
X012668Y009833D02*
X012534Y009833D01*
X012523Y009844D02*
X012366Y009844D01*
X012255Y009733D01*
X012255Y009577D01*
X012366Y009466D01*
X012523Y009466D01*
X012634Y009577D01*
X012634Y009733D01*
X012523Y009844D01*
X012600Y009930D02*
X010095Y009930D01*
X009998Y009833D02*
X012355Y009833D01*
X012258Y009736D02*
X009901Y009736D01*
X009804Y009639D02*
X012255Y009639D01*
X012290Y009542D02*
X009707Y009542D01*
X009610Y009445D02*
X013929Y009445D01*
X013929Y009348D02*
X009513Y009348D01*
X007892Y010706D02*
X007813Y010706D01*
X007291Y011287D02*
X007015Y011287D01*
X006982Y011384D02*
X007331Y011384D01*
X007419Y011481D02*
X006911Y011481D01*
X006736Y011675D02*
X007523Y011675D01*
X007555Y011662D02*
X007688Y011662D01*
X007812Y011713D01*
X007906Y011807D01*
X007957Y011931D01*
X007957Y012064D01*
X007906Y012187D01*
X007812Y012282D01*
X007688Y012333D01*
X007555Y012333D01*
X007432Y012282D01*
X007337Y012187D01*
X007286Y012064D01*
X007286Y011931D01*
X007337Y011807D01*
X007432Y011713D01*
X007555Y011662D01*
X007721Y011675D02*
X009354Y011675D01*
X009450Y011772D02*
X007871Y011772D01*
X007932Y011869D02*
X009547Y011869D01*
X009644Y011966D02*
X007957Y011966D01*
X007957Y012063D02*
X009741Y012063D01*
X009836Y012160D02*
X007917Y012160D01*
X007836Y012257D02*
X009836Y012257D01*
X009984Y012548D02*
X011035Y012548D01*
X010804Y012645D02*
X009984Y012645D01*
X009984Y012742D02*
X010707Y012742D01*
X010621Y012839D02*
X009984Y012839D01*
X009984Y012936D02*
X010581Y012936D01*
X010541Y013033D02*
X009984Y013033D01*
X009984Y013130D02*
X010533Y013130D01*
X010581Y013421D02*
X010029Y013421D01*
X010126Y013518D02*
X010621Y013518D01*
X010707Y013615D02*
X010223Y013615D01*
X010320Y013712D02*
X010804Y013712D01*
X011034Y013809D02*
X010417Y013809D01*
X010514Y013906D02*
X019324Y013906D01*
X019354Y013875D02*
X019244Y013986D01*
X019244Y014143D01*
X019354Y014254D01*
X019511Y014254D01*
X019622Y014143D01*
X019622Y013986D01*
X019511Y013875D01*
X019354Y013875D01*
X019244Y014003D02*
X010611Y014003D01*
X010708Y014100D02*
X019244Y014100D01*
X019297Y014197D02*
X010805Y014197D01*
X011296Y013809D02*
X018516Y013809D01*
X018567Y013860D02*
X018456Y013749D01*
X018456Y013592D01*
X018567Y013481D01*
X018724Y013481D01*
X018835Y013592D01*
X018835Y013749D01*
X018724Y013860D01*
X018567Y013860D01*
X018456Y013712D02*
X011526Y013712D01*
X011623Y013615D02*
X018456Y013615D01*
X018531Y013518D02*
X011709Y013518D01*
X011749Y013421D02*
X021310Y013421D01*
X021310Y013518D02*
X018760Y013518D01*
X018835Y013615D02*
X021373Y013615D01*
X021626Y013615D02*
X024572Y013615D01*
X024509Y013518D02*
X021689Y013518D01*
X021689Y013421D02*
X024509Y013421D01*
X024825Y013615D02*
X031179Y013615D01*
X031094Y013518D02*
X024888Y013518D01*
X024888Y013421D02*
X025903Y013421D01*
X026151Y013421D02*
X027872Y013421D01*
X027917Y013466D02*
X027807Y013355D01*
X027807Y013199D01*
X027917Y013088D01*
X028074Y013088D01*
X028185Y013199D01*
X028185Y013355D01*
X028074Y013466D01*
X027917Y013466D01*
X027807Y013324D02*
X026584Y013324D01*
X026668Y013227D02*
X026891Y013227D01*
X026933Y013269D02*
X026822Y013159D01*
X026822Y013002D01*
X026933Y012891D01*
X027090Y012891D01*
X027201Y013002D01*
X027201Y013159D01*
X027090Y013269D01*
X026933Y013269D01*
X026822Y013130D02*
X026709Y013130D01*
X026709Y013033D02*
X026822Y013033D01*
X026888Y012936D02*
X026668Y012936D01*
X026668Y012839D02*
X028733Y012839D01*
X028733Y012936D02*
X028611Y012936D01*
X028566Y012891D02*
X028677Y013002D01*
X028677Y013159D01*
X028566Y013269D01*
X028409Y013269D01*
X028299Y013159D01*
X028299Y013002D01*
X028409Y012891D01*
X028566Y012891D01*
X028677Y013033D02*
X028733Y013033D01*
X028733Y013130D02*
X028677Y013130D01*
X028733Y013227D02*
X028609Y013227D01*
X028791Y013324D02*
X028185Y013324D01*
X028185Y013227D02*
X028367Y013227D01*
X028299Y013130D02*
X028116Y013130D01*
X028299Y013033D02*
X027693Y013033D01*
X027693Y013002D02*
X027582Y012891D01*
X027425Y012891D01*
X027314Y013002D01*
X027314Y013159D01*
X027425Y013269D01*
X027582Y013269D01*
X027693Y013159D01*
X027693Y013002D01*
X027627Y012936D02*
X028364Y012936D01*
X028733Y012742D02*
X026668Y012742D01*
X026396Y012936D02*
X023001Y012936D01*
X023067Y013033D02*
X026330Y013033D01*
X026330Y013130D02*
X026148Y013130D01*
X025907Y013130D02*
X023067Y013130D01*
X022754Y012936D02*
X011749Y012936D01*
X011789Y013033D02*
X022688Y013033D01*
X022688Y013130D02*
X011797Y013130D01*
X011709Y012839D02*
X018333Y012839D01*
X018259Y012742D02*
X011623Y012742D01*
X012228Y012063D02*
X013240Y012063D01*
X013240Y012018D02*
X013240Y012174D01*
X013350Y012285D01*
X013507Y012285D01*
X013618Y012174D01*
X013618Y012018D01*
X013507Y011907D01*
X013350Y011907D01*
X013240Y012018D01*
X013291Y011966D02*
X012131Y011966D01*
X012034Y011869D02*
X015316Y011869D01*
X015413Y011772D02*
X011937Y011772D01*
X011840Y011675D02*
X015510Y011675D01*
X015606Y011578D02*
X011743Y011578D01*
X011646Y011481D02*
X014023Y011481D01*
X014370Y011481D02*
X015703Y011481D01*
X015800Y011384D02*
X014386Y011384D01*
X014364Y011287D02*
X015897Y011287D01*
X015913Y011481D02*
X016488Y011481D01*
X016488Y011578D02*
X015816Y011578D01*
X015719Y011675D02*
X016579Y011675D01*
X016774Y011675D02*
X021507Y011675D01*
X021507Y011682D02*
X021507Y011525D01*
X021618Y011415D01*
X021775Y011415D01*
X021886Y011525D01*
X021886Y011682D01*
X021775Y011793D01*
X021618Y011793D01*
X021507Y011682D01*
X021507Y011578D02*
X016866Y011578D01*
X016866Y011481D02*
X021551Y011481D01*
X021842Y011481D02*
X023181Y011481D01*
X023274Y011578D02*
X021886Y011578D01*
X021886Y011675D02*
X026519Y011675D01*
X026519Y011772D02*
X021796Y011772D01*
X021598Y011772D02*
X015622Y011772D01*
X015526Y011869D02*
X026519Y011869D01*
X026519Y011966D02*
X015429Y011966D01*
X015332Y012063D02*
X019099Y012063D01*
X019047Y012160D02*
X015235Y012160D01*
X015138Y012257D02*
X019047Y012257D01*
X019128Y012354D02*
X015041Y012354D01*
X014928Y012257D02*
X013535Y012257D01*
X013618Y012160D02*
X015025Y012160D01*
X015122Y012063D02*
X013618Y012063D01*
X013567Y011966D02*
X015219Y011966D01*
X014831Y012354D02*
X012519Y012354D01*
X012422Y012257D02*
X013323Y012257D01*
X013240Y012160D02*
X012325Y012160D01*
X013636Y010609D02*
X015070Y010609D01*
X016268Y010706D02*
X018251Y010706D01*
X018267Y010900D02*
X023181Y010900D01*
X023181Y010836D02*
X023291Y010726D01*
X023448Y010726D01*
X023559Y010836D01*
X023559Y010993D01*
X023448Y011104D01*
X023291Y011104D01*
X023181Y010993D01*
X023181Y010836D01*
X023214Y010803D02*
X019039Y010803D01*
X019039Y010706D02*
X029389Y010706D01*
X029394Y010710D02*
X029283Y010599D01*
X029283Y010443D01*
X029394Y010332D01*
X029550Y010332D01*
X029661Y010443D01*
X029661Y010599D01*
X029550Y010710D01*
X029394Y010710D01*
X029292Y010609D02*
X024436Y010609D01*
X024432Y010612D02*
X024276Y010612D01*
X024165Y010501D01*
X024165Y010344D01*
X024276Y010233D01*
X024432Y010233D01*
X024543Y010344D01*
X024543Y010501D01*
X024432Y010612D01*
X024432Y010726D02*
X024543Y010836D01*
X024543Y010993D01*
X024432Y011104D01*
X024276Y011104D01*
X024165Y010993D01*
X024165Y010836D01*
X024276Y010726D01*
X024432Y010726D01*
X024509Y010803D02*
X032917Y010803D01*
X032917Y010900D02*
X024543Y010900D01*
X024540Y010997D02*
X026519Y010997D01*
X026519Y011094D02*
X024443Y011094D01*
X024265Y011094D02*
X023459Y011094D01*
X023556Y010997D02*
X024168Y010997D01*
X024165Y010900D02*
X023559Y010900D01*
X023525Y010803D02*
X024199Y010803D01*
X024272Y010609D02*
X023451Y010609D01*
X023448Y010612D02*
X023291Y010612D01*
X023181Y010501D01*
X023181Y010344D01*
X023291Y010233D01*
X023448Y010233D01*
X023559Y010344D01*
X023559Y010501D01*
X023448Y010612D01*
X023548Y010512D02*
X024176Y010512D01*
X024165Y010415D02*
X023559Y010415D01*
X023532Y010318D02*
X024191Y010318D01*
X024276Y010120D02*
X024165Y010009D01*
X024165Y009852D01*
X024276Y009741D01*
X024432Y009741D01*
X024543Y009852D01*
X024543Y010009D01*
X024432Y010120D01*
X024276Y010120D01*
X024183Y010027D02*
X023541Y010027D01*
X023559Y010009D02*
X023448Y010120D01*
X023291Y010120D01*
X023181Y010009D01*
X023181Y009852D01*
X023291Y009741D01*
X023448Y009741D01*
X023559Y009852D01*
X023559Y010009D01*
X023559Y009930D02*
X024165Y009930D01*
X024184Y009833D02*
X023540Y009833D01*
X023448Y009628D02*
X023291Y009628D01*
X023181Y009517D01*
X023181Y009360D01*
X023291Y009249D01*
X023448Y009249D01*
X023559Y009360D01*
X023559Y009517D01*
X023448Y009628D01*
X023534Y009542D02*
X024190Y009542D01*
X024165Y009517D02*
X024276Y009628D01*
X024432Y009628D01*
X024543Y009517D01*
X024543Y009360D01*
X024432Y009249D01*
X024276Y009249D01*
X024165Y009360D01*
X024165Y009517D01*
X024165Y009445D02*
X023559Y009445D01*
X023547Y009348D02*
X024177Y009348D01*
X024274Y009251D02*
X023450Y009251D01*
X023438Y009135D02*
X023282Y009135D01*
X023171Y009025D01*
X023171Y008868D01*
X023282Y008757D01*
X023438Y008757D01*
X023549Y008868D01*
X023549Y009025D01*
X023438Y009135D01*
X023517Y009057D02*
X024197Y009057D01*
X024165Y009025D02*
X024276Y009135D01*
X024432Y009135D01*
X024543Y009025D01*
X024543Y008868D01*
X024432Y008757D01*
X024276Y008757D01*
X024165Y008868D01*
X024165Y009025D01*
X024165Y008960D02*
X023549Y008960D01*
X023544Y008863D02*
X024169Y008863D01*
X024266Y008766D02*
X023447Y008766D01*
X023272Y008766D02*
X021947Y008766D01*
X021984Y008729D02*
X021873Y008840D01*
X021717Y008840D01*
X021606Y008729D01*
X021606Y008573D01*
X021717Y008462D01*
X021873Y008462D01*
X021984Y008573D01*
X021984Y008729D01*
X021984Y008669D02*
X032917Y008669D01*
X032917Y008572D02*
X021984Y008572D01*
X021887Y008475D02*
X032917Y008475D01*
X032917Y008281D02*
X032068Y008281D01*
X031971Y008184D02*
X032917Y008184D01*
X032917Y008088D02*
X031874Y008088D01*
X031777Y007991D02*
X032917Y007991D01*
X032917Y007894D02*
X031680Y007894D01*
X031584Y007797D02*
X032984Y007797D01*
X033081Y007700D02*
X031487Y007700D01*
X031390Y007603D02*
X033178Y007603D01*
X033275Y007506D02*
X031293Y007506D01*
X031196Y007409D02*
X033372Y007409D01*
X033469Y007312D02*
X031099Y007312D01*
X031002Y007215D02*
X033566Y007215D01*
X033663Y007118D02*
X030905Y007118D01*
X030808Y007021D02*
X031807Y007021D01*
X031854Y007069D02*
X031744Y006958D01*
X031744Y006801D01*
X031854Y006690D01*
X032011Y006690D01*
X032122Y006801D01*
X032122Y006958D01*
X032011Y007069D01*
X031854Y007069D01*
X031744Y006924D02*
X030711Y006924D01*
X030614Y006827D02*
X031744Y006827D01*
X031815Y006730D02*
X029729Y006730D01*
X029632Y006633D02*
X030336Y006633D01*
X030378Y006675D02*
X030267Y006564D01*
X030267Y006407D01*
X030378Y006296D01*
X030535Y006296D01*
X030646Y006407D01*
X030646Y006564D01*
X030535Y006675D01*
X030378Y006675D01*
X030267Y006536D02*
X029535Y006536D01*
X029439Y006439D02*
X030267Y006439D01*
X030332Y006342D02*
X029342Y006342D01*
X029245Y006245D02*
X031744Y006245D01*
X031744Y006210D02*
X031854Y006100D01*
X032011Y006100D01*
X032122Y006210D01*
X032122Y006367D01*
X032011Y006478D01*
X031854Y006478D01*
X031744Y006367D01*
X031744Y006210D01*
X031806Y006148D02*
X029148Y006148D01*
X029051Y006051D02*
X034292Y006051D01*
X034292Y005954D02*
X031944Y005954D01*
X031913Y005986D02*
X031756Y005986D01*
X031645Y005875D01*
X031645Y005718D01*
X031756Y005607D01*
X031913Y005607D01*
X032024Y005718D01*
X032024Y005875D01*
X031913Y005986D01*
X032024Y005857D02*
X034291Y005857D01*
X034290Y005760D02*
X032024Y005760D01*
X031969Y005663D02*
X034290Y005663D01*
X034289Y005566D02*
X033513Y005566D01*
X033487Y005592D02*
X033331Y005592D01*
X033220Y005481D01*
X033220Y005325D01*
X033331Y005214D01*
X033487Y005214D01*
X033598Y005325D01*
X033598Y005481D01*
X033487Y005592D01*
X033598Y005469D02*
X034289Y005469D01*
X034288Y005372D02*
X033598Y005372D01*
X033549Y005275D02*
X034287Y005275D01*
X034287Y005178D02*
X032024Y005178D01*
X032024Y005186D02*
X031913Y005297D01*
X031756Y005297D01*
X031645Y005186D01*
X031645Y005029D01*
X031756Y004919D01*
X031913Y004919D01*
X032024Y005029D01*
X032024Y005186D01*
X032024Y005081D02*
X034286Y005081D01*
X034286Y004985D02*
X031979Y004985D01*
X031690Y004985D02*
X030547Y004985D01*
X030547Y004931D02*
X030547Y005088D01*
X030436Y005198D01*
X030280Y005198D01*
X030169Y005088D01*
X030169Y004931D01*
X030280Y004820D01*
X030436Y004820D01*
X030547Y004931D01*
X030504Y004888D02*
X034285Y004888D01*
X034284Y004791D02*
X030252Y004791D01*
X030252Y004792D02*
X030141Y004903D01*
X029984Y004903D01*
X029873Y004792D01*
X029873Y004636D01*
X029984Y004525D01*
X030141Y004525D01*
X030252Y004636D01*
X030252Y004792D01*
X030252Y004694D02*
X034284Y004694D01*
X034283Y004597D02*
X030213Y004597D01*
X030181Y004313D02*
X030070Y004202D01*
X030070Y004045D01*
X030181Y003934D01*
X030338Y003934D01*
X030449Y004045D01*
X030449Y004202D01*
X030338Y004313D01*
X030181Y004313D01*
X030174Y004306D02*
X016172Y004306D01*
X016226Y004251D02*
X016115Y004362D01*
X015959Y004362D01*
X015848Y004251D01*
X015848Y004094D01*
X015959Y003983D01*
X016115Y003983D01*
X016226Y004094D01*
X016226Y004251D01*
X016226Y004209D02*
X030077Y004209D01*
X030070Y004112D02*
X016226Y004112D01*
X016147Y004015D02*
X030101Y004015D01*
X030418Y004015D02*
X034280Y004015D01*
X034280Y004112D02*
X033567Y004112D01*
X033598Y004144D02*
X033487Y004033D01*
X033331Y004033D01*
X033220Y004144D01*
X033220Y004300D01*
X033331Y004411D01*
X033487Y004411D01*
X033598Y004300D01*
X033598Y004144D01*
X033598Y004209D02*
X034281Y004209D01*
X034281Y004306D02*
X033593Y004306D01*
X033496Y004403D02*
X034282Y004403D01*
X034283Y004500D02*
X027499Y004500D01*
X027596Y004597D02*
X029027Y004597D01*
X028988Y004636D02*
X029098Y004525D01*
X029255Y004525D01*
X029366Y004636D01*
X029366Y004792D01*
X029255Y004903D01*
X029098Y004903D01*
X028988Y004792D01*
X028988Y004636D01*
X028988Y004694D02*
X027693Y004694D01*
X027790Y004791D02*
X028988Y004791D01*
X029083Y004888D02*
X027887Y004888D01*
X027984Y004985D02*
X028639Y004985D01*
X028594Y005029D02*
X028705Y004919D01*
X028861Y004919D01*
X028972Y005029D01*
X028972Y005186D01*
X028861Y005297D01*
X028705Y005297D01*
X028594Y005186D01*
X028594Y005029D01*
X028594Y005081D02*
X028081Y005081D01*
X028178Y005178D02*
X028594Y005178D01*
X028683Y005275D02*
X028275Y005275D01*
X028372Y005372D02*
X033220Y005372D01*
X033220Y005469D02*
X028920Y005469D01*
X028972Y005566D02*
X033305Y005566D01*
X033269Y005275D02*
X031934Y005275D01*
X031734Y005275D02*
X028883Y005275D01*
X028972Y005178D02*
X030260Y005178D01*
X030169Y005081D02*
X028972Y005081D01*
X028928Y004985D02*
X030169Y004985D01*
X030157Y004888D02*
X030212Y004888D01*
X029969Y004888D02*
X029271Y004888D01*
X029366Y004791D02*
X029873Y004791D01*
X029873Y004694D02*
X029366Y004694D01*
X029327Y004597D02*
X029912Y004597D01*
X030345Y004306D02*
X033225Y004306D01*
X033220Y004209D02*
X030442Y004209D01*
X030449Y004112D02*
X033252Y004112D01*
X033322Y004403D02*
X027402Y004403D01*
X027386Y004597D02*
X024767Y004597D01*
X024670Y004694D02*
X027483Y004694D01*
X027580Y004791D02*
X024573Y004791D01*
X024476Y004888D02*
X027677Y004888D01*
X027774Y004985D02*
X024379Y004985D01*
X024282Y005081D02*
X027871Y005081D01*
X027968Y005178D02*
X024185Y005178D01*
X024169Y004985D02*
X023528Y004985D01*
X023453Y004888D02*
X024266Y004888D01*
X024363Y004791D02*
X023356Y004791D01*
X023153Y004694D02*
X024460Y004694D01*
X024557Y004597D02*
X007740Y004597D01*
X007688Y004575D02*
X007812Y004626D01*
X007906Y004721D01*
X007957Y004844D01*
X007957Y004978D01*
X007906Y005101D01*
X007812Y005195D01*
X007688Y005246D01*
X007555Y005246D01*
X007432Y005195D01*
X007337Y005101D01*
X007286Y004978D01*
X007286Y004844D01*
X007337Y004721D01*
X007432Y004626D01*
X007555Y004575D01*
X007688Y004575D01*
X007504Y004597D02*
X006755Y004597D01*
X006704Y004575D02*
X006827Y004626D01*
X006922Y004721D01*
X006973Y004844D01*
X006973Y004978D01*
X006922Y005101D01*
X006827Y005195D01*
X006704Y005246D01*
X006571Y005246D01*
X006447Y005195D01*
X006353Y005101D01*
X006302Y004978D01*
X006302Y004844D01*
X006353Y004721D01*
X006447Y004626D01*
X006571Y004575D01*
X006704Y004575D01*
X006519Y004597D02*
X006145Y004597D01*
X006145Y004694D02*
X006380Y004694D01*
X006324Y004791D02*
X006145Y004791D01*
X006145Y004888D02*
X006302Y004888D01*
X006305Y004985D02*
X006145Y004985D01*
X006145Y005081D02*
X006345Y005081D01*
X006431Y005178D02*
X006145Y005178D01*
X006145Y005275D02*
X010533Y005275D01*
X010533Y005179D02*
X010533Y005430D01*
X010629Y005663D01*
X010807Y005841D01*
X011039Y005937D01*
X011291Y005937D01*
X011523Y005841D01*
X011701Y005663D01*
X011797Y005430D01*
X011797Y005179D01*
X011701Y004946D01*
X011523Y004769D01*
X011291Y004672D01*
X011039Y004672D01*
X010807Y004769D01*
X010629Y004946D01*
X010533Y005179D01*
X010533Y005178D02*
X007828Y005178D01*
X007914Y005081D02*
X010573Y005081D01*
X010613Y004985D02*
X009489Y004985D01*
X009472Y005002D02*
X009315Y005002D01*
X009204Y004891D01*
X009204Y004734D01*
X009315Y004623D01*
X009472Y004623D01*
X009583Y004734D01*
X009583Y004891D01*
X009472Y005002D01*
X009583Y004888D02*
X010688Y004888D01*
X010785Y004791D02*
X009583Y004791D01*
X009542Y004694D02*
X010988Y004694D01*
X011342Y004694D02*
X022799Y004694D01*
X022596Y004791D02*
X011545Y004791D01*
X011642Y004888D02*
X022499Y004888D01*
X022424Y004985D02*
X011717Y004985D01*
X011757Y005081D02*
X018945Y005081D01*
X018899Y005128D02*
X019010Y005017D01*
X019167Y005017D01*
X019277Y005128D01*
X019277Y005284D01*
X019167Y005395D01*
X019010Y005395D01*
X018982Y005368D01*
X018982Y005432D01*
X018871Y005543D01*
X018715Y005543D01*
X018604Y005432D01*
X018604Y005275D01*
X018715Y005165D01*
X018871Y005165D01*
X018899Y005192D01*
X018899Y005128D01*
X018899Y005178D02*
X018885Y005178D01*
X018701Y005178D02*
X011797Y005178D01*
X011797Y005275D02*
X018604Y005275D01*
X018604Y005372D02*
X017504Y005372D01*
X017555Y005423D02*
X017444Y005312D01*
X017287Y005312D01*
X017177Y005423D01*
X017177Y005580D01*
X017287Y005691D01*
X017444Y005691D01*
X017555Y005580D01*
X017555Y005423D01*
X017555Y005469D02*
X018641Y005469D01*
X018945Y005469D02*
X021519Y005469D01*
X021616Y005372D02*
X019190Y005372D01*
X019277Y005275D02*
X021713Y005275D01*
X021810Y005178D02*
X019277Y005178D01*
X019231Y005081D02*
X021907Y005081D01*
X021923Y005275D02*
X022344Y005275D01*
X022344Y005372D02*
X021826Y005372D01*
X021729Y005469D02*
X022360Y005469D01*
X022400Y005566D02*
X021632Y005566D01*
X021535Y005663D02*
X022441Y005663D01*
X022538Y005760D02*
X021438Y005760D01*
X021341Y005857D02*
X022658Y005857D01*
X023294Y005857D02*
X024934Y005857D01*
X024965Y005887D02*
X024854Y005777D01*
X024854Y005620D01*
X024965Y005509D01*
X025121Y005509D01*
X025232Y005620D01*
X025232Y005777D01*
X025121Y005887D01*
X024965Y005887D01*
X024854Y005760D02*
X023414Y005760D01*
X023511Y005663D02*
X024854Y005663D01*
X024907Y005566D02*
X023552Y005566D01*
X023592Y005469D02*
X025740Y005469D01*
X025740Y005481D02*
X025740Y005325D01*
X025850Y005214D01*
X026007Y005214D01*
X026118Y005325D01*
X026118Y005481D01*
X026007Y005592D01*
X025850Y005592D01*
X025740Y005481D01*
X025740Y005372D02*
X023608Y005372D01*
X023608Y005275D02*
X025789Y005275D01*
X026069Y005275D02*
X028065Y005275D01*
X028162Y005372D02*
X026118Y005372D01*
X026118Y005469D02*
X028259Y005469D01*
X028356Y005566D02*
X026033Y005566D01*
X026146Y005706D02*
X026302Y005706D01*
X026413Y005817D01*
X026413Y005973D01*
X026302Y006084D01*
X026146Y006084D01*
X026035Y005973D01*
X026035Y005817D01*
X026146Y005706D01*
X026091Y005760D02*
X025232Y005760D01*
X025232Y005663D02*
X028453Y005663D01*
X028550Y005760D02*
X026357Y005760D01*
X026413Y005857D02*
X028647Y005857D01*
X028744Y005954D02*
X026413Y005954D01*
X026336Y006051D02*
X028841Y006051D01*
X028938Y006148D02*
X026020Y006148D01*
X026020Y006112D02*
X025909Y006001D01*
X025752Y006001D01*
X025641Y006112D01*
X025641Y006269D01*
X025752Y006380D01*
X025909Y006380D01*
X026020Y006269D01*
X026020Y006112D01*
X025959Y006051D02*
X026113Y006051D01*
X026035Y005954D02*
X021244Y005954D01*
X021147Y006051D02*
X025702Y006051D01*
X025641Y006148D02*
X021050Y006148D01*
X020953Y006245D02*
X025641Y006245D01*
X025715Y006342D02*
X020856Y006342D01*
X020759Y006439D02*
X029229Y006439D01*
X029326Y006536D02*
X028707Y006536D01*
X028665Y006493D02*
X028775Y006604D01*
X028775Y006761D01*
X028665Y006872D01*
X028579Y006872D01*
X028579Y006958D01*
X028468Y007069D01*
X028311Y007069D01*
X028200Y006958D01*
X028200Y006801D01*
X028311Y006690D01*
X028397Y006690D01*
X028397Y006604D01*
X028508Y006493D01*
X028665Y006493D01*
X028775Y006633D02*
X029423Y006633D01*
X029520Y006730D02*
X028775Y006730D01*
X028709Y006827D02*
X029617Y006827D01*
X029600Y007182D02*
X029711Y007293D01*
X029711Y007450D01*
X029600Y007561D01*
X029535Y007561D01*
X029612Y007638D01*
X029612Y007794D01*
X029501Y007905D01*
X029345Y007905D01*
X029234Y007794D01*
X029234Y007638D01*
X029345Y007527D01*
X029409Y007527D01*
X029332Y007450D01*
X029332Y007293D01*
X029443Y007182D01*
X029600Y007182D01*
X029632Y007215D02*
X030792Y007215D01*
X030889Y007312D02*
X029711Y007312D01*
X029711Y007409D02*
X030986Y007409D01*
X031083Y007506D02*
X029655Y007506D01*
X029577Y007603D02*
X031180Y007603D01*
X031277Y007700D02*
X029612Y007700D01*
X029610Y007797D02*
X031374Y007797D01*
X031471Y007894D02*
X029513Y007894D01*
X029333Y007894D02*
X028480Y007894D01*
X028480Y007835D02*
X028369Y007724D01*
X028213Y007724D01*
X028102Y007835D01*
X028102Y007992D01*
X028213Y008103D01*
X028369Y008103D01*
X028480Y007992D01*
X028480Y007835D01*
X028442Y007797D02*
X029236Y007797D01*
X029234Y007700D02*
X027263Y007700D01*
X027237Y007674D02*
X027348Y007785D01*
X027348Y007942D01*
X027237Y008053D01*
X027081Y008053D01*
X026970Y007942D01*
X026970Y007785D01*
X027081Y007674D01*
X027237Y007674D01*
X027348Y007797D02*
X028140Y007797D01*
X028102Y007894D02*
X027348Y007894D01*
X027300Y007991D02*
X028102Y007991D01*
X028197Y008088D02*
X026366Y008088D01*
X026413Y008040D02*
X026302Y008151D01*
X026146Y008151D01*
X026035Y008040D01*
X026035Y007884D01*
X026146Y007773D01*
X026302Y007773D01*
X026413Y007884D01*
X026413Y008040D01*
X026413Y007991D02*
X026477Y007991D01*
X026429Y007942D02*
X026429Y007785D01*
X026539Y007674D01*
X026696Y007674D01*
X026807Y007785D01*
X026807Y007942D01*
X026696Y008053D01*
X026539Y008053D01*
X026429Y007942D01*
X026429Y007894D02*
X026413Y007894D01*
X026429Y007797D02*
X026326Y007797D01*
X026122Y007797D02*
X017901Y007797D01*
X017929Y007825D02*
X017818Y007714D01*
X017661Y007714D01*
X017551Y007825D01*
X017551Y007981D01*
X017661Y008092D01*
X017818Y008092D01*
X017929Y007981D01*
X017929Y007825D01*
X017929Y007894D02*
X026035Y007894D01*
X026035Y007991D02*
X017920Y007991D01*
X017823Y008088D02*
X024453Y008088D01*
X024472Y008068D02*
X024629Y008068D01*
X024698Y008137D01*
X024768Y008068D01*
X024924Y008068D01*
X025035Y008179D01*
X025035Y008336D01*
X024924Y008446D01*
X024768Y008446D01*
X024698Y008377D01*
X024629Y008446D01*
X024472Y008446D01*
X024362Y008336D01*
X024362Y008179D01*
X024472Y008068D01*
X024362Y008184D02*
X016959Y008184D01*
X016928Y008216D02*
X016748Y008216D01*
X016620Y008088D01*
X016620Y007908D01*
X016748Y007780D01*
X016928Y007780D01*
X017056Y007908D01*
X017056Y008088D01*
X016928Y008216D01*
X017074Y008281D02*
X016307Y008281D01*
X016210Y008184D02*
X016716Y008184D01*
X016620Y008088D02*
X016113Y008088D01*
X016016Y007991D02*
X016620Y007991D01*
X016634Y007894D02*
X016056Y007894D01*
X016153Y007797D02*
X016731Y007797D01*
X016945Y007797D02*
X017579Y007797D01*
X017551Y007894D02*
X017042Y007894D01*
X017056Y007991D02*
X017560Y007991D01*
X017657Y008088D02*
X017056Y008088D01*
X017264Y008281D02*
X024362Y008281D01*
X024404Y008378D02*
X017358Y008378D01*
X017358Y008475D02*
X021703Y008475D01*
X021606Y008572D02*
X017318Y008572D01*
X017024Y008669D02*
X021606Y008669D01*
X021643Y008766D02*
X016863Y008766D01*
X016889Y008863D02*
X023175Y008863D01*
X023171Y008960D02*
X016986Y008960D01*
X017083Y009057D02*
X023203Y009057D01*
X023289Y009251D02*
X017277Y009251D01*
X017180Y009154D02*
X032917Y009154D01*
X032917Y009057D02*
X024511Y009057D01*
X024543Y008960D02*
X032917Y008960D01*
X032917Y008863D02*
X024539Y008863D01*
X024442Y008766D02*
X032917Y008766D01*
X032917Y009251D02*
X024434Y009251D01*
X024531Y009348D02*
X032917Y009348D01*
X032917Y009445D02*
X024543Y009445D01*
X024518Y009542D02*
X032917Y009542D01*
X032917Y009639D02*
X018255Y009639D01*
X018158Y009542D02*
X023206Y009542D01*
X023181Y009445D02*
X018061Y009445D01*
X018352Y009736D02*
X032917Y009736D01*
X032917Y009833D02*
X024524Y009833D01*
X024543Y009930D02*
X032917Y009930D01*
X032917Y010027D02*
X029590Y010027D01*
X029612Y010049D02*
X029501Y009938D01*
X029345Y009938D01*
X029234Y010049D01*
X029234Y010206D01*
X029345Y010317D01*
X029501Y010317D01*
X029612Y010206D01*
X029612Y010049D01*
X029612Y010124D02*
X032917Y010124D01*
X032917Y010221D02*
X029597Y010221D01*
X029633Y010415D02*
X030316Y010415D01*
X030316Y010394D02*
X030427Y010283D01*
X030584Y010283D01*
X030695Y010394D01*
X030695Y010550D01*
X030584Y010661D01*
X030427Y010661D01*
X030316Y010550D01*
X030316Y010394D01*
X030392Y010318D02*
X024517Y010318D01*
X024543Y010415D02*
X029311Y010415D01*
X029283Y010512D02*
X024532Y010512D01*
X024525Y010027D02*
X029256Y010027D01*
X029234Y010124D02*
X021968Y010124D01*
X021984Y010107D02*
X021873Y010218D01*
X021717Y010218D01*
X021606Y010107D01*
X021606Y009951D01*
X021717Y009840D01*
X021873Y009840D01*
X021984Y009951D01*
X021984Y010107D01*
X021984Y010027D02*
X023199Y010027D01*
X023181Y009930D02*
X021963Y009930D01*
X021626Y009930D02*
X019039Y009930D01*
X019039Y010027D02*
X021606Y010027D01*
X021622Y010124D02*
X019039Y010124D01*
X019039Y010221D02*
X029249Y010221D01*
X029661Y010512D02*
X030316Y010512D01*
X030375Y010609D02*
X029652Y010609D01*
X029555Y010706D02*
X032917Y010706D01*
X032917Y010609D02*
X030636Y010609D01*
X030695Y010512D02*
X032917Y010512D01*
X032917Y010415D02*
X030695Y010415D01*
X030619Y010318D02*
X032917Y010318D01*
X033409Y010318D02*
X040424Y010318D01*
X040424Y010357D02*
X040424Y010094D01*
X040525Y009851D01*
X040711Y009665D01*
X040955Y009564D01*
X041218Y009564D01*
X041461Y009665D01*
X041647Y009851D01*
X041748Y010094D01*
X041748Y010357D01*
X041647Y010601D01*
X041461Y010787D01*
X041218Y010888D01*
X040955Y010888D01*
X040711Y010787D01*
X040525Y010601D01*
X040424Y010357D01*
X040448Y010415D02*
X033409Y010415D01*
X033409Y010512D02*
X040488Y010512D01*
X040533Y010609D02*
X033409Y010609D01*
X033409Y010706D02*
X040630Y010706D01*
X040750Y010803D02*
X033409Y010803D01*
X033409Y010900D02*
X033846Y010900D01*
X033810Y010935D02*
X033921Y010824D01*
X034078Y010824D01*
X034189Y010935D01*
X034189Y011092D01*
X034078Y011202D01*
X033921Y011202D01*
X033810Y011092D01*
X033810Y010935D01*
X033810Y010997D02*
X033409Y010997D01*
X033409Y011094D02*
X033812Y011094D01*
X033909Y011191D02*
X033409Y011191D01*
X033409Y011287D02*
X037943Y011287D01*
X037957Y011301D02*
X037846Y011190D01*
X037846Y011033D01*
X037957Y010922D01*
X038113Y010922D01*
X038224Y011033D01*
X038224Y011190D01*
X038113Y011301D01*
X037957Y011301D01*
X037846Y011191D02*
X036255Y011191D01*
X036243Y011202D02*
X036087Y011202D01*
X036017Y011133D01*
X035948Y011202D01*
X035791Y011202D01*
X035681Y011092D01*
X035681Y010935D01*
X035791Y010824D01*
X035948Y010824D01*
X036017Y010893D01*
X036087Y010824D01*
X036243Y010824D01*
X036354Y010935D01*
X036354Y011092D01*
X036243Y011202D01*
X036352Y011094D02*
X037846Y011094D01*
X037883Y010997D02*
X036354Y010997D01*
X036319Y010900D02*
X042327Y010900D01*
X042236Y010862D02*
X042025Y010651D01*
X041911Y010375D01*
X041911Y010077D01*
X042025Y009801D01*
X042236Y009590D01*
X042512Y009475D01*
X042810Y009475D01*
X043086Y009590D01*
X043249Y009753D01*
X043249Y008835D01*
X043249Y008835D01*
X043249Y008798D01*
X043341Y008579D01*
X043341Y008579D01*
X043511Y008411D01*
X043511Y008411D01*
X043545Y008398D01*
X043545Y008398D01*
X045019Y007808D01*
X045096Y007778D01*
X045130Y007760D01*
X045184Y007706D01*
X045214Y007635D01*
X045218Y007597D01*
X045218Y007569D01*
X045218Y007515D01*
X045218Y003730D01*
X045214Y003692D01*
X045185Y003622D01*
X045131Y003568D01*
X045061Y003539D01*
X045023Y003535D01*
X040366Y003535D01*
X040379Y003540D01*
X040512Y003674D01*
X040584Y003848D01*
X040584Y004037D01*
X040512Y004211D01*
X040379Y004344D01*
X040204Y004417D01*
X040016Y004417D01*
X039841Y004344D01*
X039708Y004211D01*
X039636Y004037D01*
X039636Y003848D01*
X039708Y003674D01*
X039841Y003540D01*
X039854Y003535D01*
X034769Y003535D01*
X034786Y006386D01*
X034787Y006388D01*
X034787Y006486D01*
X034788Y006580D01*
X034787Y006582D01*
X034787Y006584D01*
X034750Y006673D01*
X034714Y006762D01*
X034713Y006763D01*
X034712Y006764D01*
X034645Y006831D01*
X034576Y006901D01*
X034575Y006902D01*
X033409Y008067D01*
X033409Y008356D01*
X033409Y013081D01*
X033409Y013276D01*
X033409Y017017D01*
X033334Y017197D01*
X033196Y017336D01*
X031227Y019304D01*
X031046Y019379D01*
X030851Y019379D01*
X030365Y019379D01*
X029357Y020387D01*
X029176Y020462D01*
X029078Y020462D01*
X029078Y022822D01*
X030484Y022822D01*
X030310Y022750D01*
X030176Y022616D01*
X030104Y022442D01*
X030104Y022254D01*
X030176Y022079D01*
X030310Y021946D01*
X030484Y021874D01*
X030673Y021874D01*
X030847Y021946D01*
X030980Y022079D01*
X031053Y022254D01*
X031053Y022442D01*
X030980Y022616D01*
X030847Y022750D01*
X030673Y022822D01*
X045023Y022822D01*
X045061Y022818D01*
X045131Y022789D01*
X045185Y022735D01*
X045214Y022665D01*
X045218Y022628D01*
X045218Y022557D01*
X045218Y022545D01*
X045218Y018760D01*
X045214Y018722D01*
X045184Y018651D01*
X045130Y018597D01*
X045096Y018579D01*
X045019Y018549D01*
X045019Y018549D01*
X043545Y017959D01*
X043511Y017946D01*
X043341Y017779D01*
X043341Y017779D01*
X043249Y017559D01*
X043249Y017522D01*
X043249Y017440D01*
X043249Y017357D01*
X043249Y016604D01*
X043086Y016767D01*
X042810Y016882D01*
X042512Y016882D01*
X042236Y016767D01*
X042025Y016556D01*
X041911Y016281D01*
X041911Y015982D01*
X042025Y015706D01*
X042236Y015495D01*
X042512Y015381D01*
X042810Y015381D01*
X043086Y015495D01*
X043249Y015658D01*
X043249Y010699D01*
X043086Y010862D01*
X042810Y010976D01*
X042512Y010976D01*
X042236Y010862D01*
X042177Y010803D02*
X041423Y010803D01*
X041542Y010706D02*
X042080Y010706D01*
X042008Y010609D02*
X041639Y010609D01*
X041684Y010512D02*
X041967Y010512D01*
X041927Y010415D02*
X041724Y010415D01*
X041748Y010318D02*
X041911Y010318D01*
X041911Y010221D02*
X041748Y010221D01*
X041748Y010124D02*
X041911Y010124D01*
X041931Y010027D02*
X041720Y010027D01*
X041680Y009930D02*
X041971Y009930D01*
X042012Y009833D02*
X041629Y009833D01*
X041532Y009736D02*
X042090Y009736D01*
X042187Y009639D02*
X041399Y009639D01*
X040774Y009639D02*
X038913Y009639D01*
X038913Y009714D02*
X038802Y009824D01*
X038646Y009824D01*
X038535Y009714D01*
X038535Y009557D01*
X038646Y009446D01*
X038802Y009446D01*
X038913Y009557D01*
X038913Y009714D01*
X038891Y009736D02*
X040640Y009736D01*
X040543Y009833D02*
X036136Y009833D01*
X036157Y009812D02*
X036088Y009881D01*
X036157Y009951D01*
X036157Y010107D01*
X036047Y010218D01*
X035890Y010218D01*
X035779Y010107D01*
X035779Y009951D01*
X035848Y009881D01*
X035779Y009812D01*
X035779Y009655D01*
X035890Y009544D01*
X036047Y009544D01*
X036157Y009655D01*
X036157Y009812D01*
X036157Y009736D02*
X038557Y009736D01*
X038535Y009639D02*
X036141Y009639D01*
X036284Y009840D02*
X036440Y009840D01*
X036551Y009951D01*
X036551Y010107D01*
X036440Y010218D01*
X036284Y010218D01*
X036173Y010107D01*
X036173Y009951D01*
X036284Y009840D01*
X036193Y009930D02*
X036137Y009930D01*
X036157Y010027D02*
X036173Y010027D01*
X036189Y010124D02*
X036141Y010124D01*
X035796Y010124D02*
X033409Y010124D01*
X033409Y010221D02*
X039829Y010221D01*
X039814Y010206D02*
X039814Y010049D01*
X039925Y009938D01*
X040082Y009938D01*
X040193Y010049D01*
X040193Y010206D01*
X040082Y010317D01*
X039925Y010317D01*
X039814Y010206D01*
X039814Y010124D02*
X036535Y010124D01*
X036551Y010027D02*
X039837Y010027D01*
X040171Y010027D02*
X040452Y010027D01*
X040424Y010124D02*
X040193Y010124D01*
X040178Y010221D02*
X040424Y010221D01*
X040492Y009930D02*
X036530Y009930D01*
X035800Y009930D02*
X033409Y009930D01*
X033409Y010027D02*
X035779Y010027D01*
X035800Y009833D02*
X033409Y009833D01*
X033409Y009736D02*
X035779Y009736D01*
X035795Y009639D02*
X033409Y009639D01*
X033409Y009542D02*
X038550Y009542D01*
X038898Y009542D02*
X042351Y009542D01*
X042971Y009542D02*
X043249Y009542D01*
X043249Y009445D02*
X033409Y009445D01*
X033409Y009348D02*
X040433Y009348D01*
X040405Y009320D02*
X040405Y009163D01*
X040516Y009052D01*
X040673Y009052D01*
X040783Y009163D01*
X040783Y009320D01*
X040673Y009431D01*
X040516Y009431D01*
X040405Y009320D01*
X040405Y009251D02*
X033409Y009251D01*
X033409Y009154D02*
X040414Y009154D01*
X040511Y009057D02*
X033409Y009057D01*
X033409Y008960D02*
X043249Y008960D01*
X043249Y008863D02*
X033409Y008863D01*
X033409Y008766D02*
X039458Y008766D01*
X039421Y008729D02*
X039421Y008573D01*
X039532Y008462D01*
X039688Y008462D01*
X039799Y008573D01*
X039799Y008729D01*
X039688Y008840D01*
X039532Y008840D01*
X039421Y008729D01*
X039421Y008669D02*
X033409Y008669D01*
X033409Y008572D02*
X039421Y008572D01*
X039518Y008475D02*
X033409Y008475D01*
X033409Y008378D02*
X037200Y008378D01*
X037157Y008336D02*
X037268Y008446D01*
X037424Y008446D01*
X037535Y008336D01*
X037535Y008179D01*
X037424Y008068D01*
X037268Y008068D01*
X037157Y008179D01*
X037157Y008336D01*
X037157Y008281D02*
X033409Y008281D01*
X033409Y008184D02*
X036612Y008184D01*
X036566Y008139D02*
X036566Y007982D01*
X036677Y007871D01*
X036834Y007871D01*
X036945Y007982D01*
X036945Y008139D01*
X036834Y008250D01*
X036677Y008250D01*
X036566Y008139D01*
X036566Y008088D02*
X033409Y008088D01*
X033486Y007991D02*
X036566Y007991D01*
X036655Y007894D02*
X033583Y007894D01*
X033680Y007797D02*
X040307Y007797D01*
X040307Y007785D02*
X040417Y007674D01*
X040574Y007674D01*
X040685Y007785D01*
X040685Y007942D01*
X040574Y008053D01*
X040417Y008053D01*
X040307Y007942D01*
X040307Y007785D01*
X040307Y007894D02*
X036856Y007894D01*
X036945Y007991D02*
X040355Y007991D01*
X040636Y007991D02*
X044563Y007991D01*
X044321Y008088D02*
X042562Y008088D01*
X042543Y008068D02*
X042653Y008179D01*
X042653Y008336D01*
X042543Y008446D01*
X042386Y008446D01*
X042275Y008336D01*
X042275Y008179D01*
X042386Y008068D01*
X042543Y008068D01*
X042653Y008184D02*
X044078Y008184D01*
X043836Y008281D02*
X042653Y008281D01*
X042611Y008378D02*
X043594Y008378D01*
X043446Y008475D02*
X040686Y008475D01*
X040673Y008462D02*
X040783Y008573D01*
X040783Y008729D01*
X040673Y008840D01*
X040516Y008840D01*
X040405Y008729D01*
X040405Y008573D01*
X040516Y008462D01*
X040673Y008462D01*
X040783Y008572D02*
X043348Y008572D01*
X043303Y008669D02*
X040783Y008669D01*
X040746Y008766D02*
X043263Y008766D01*
X043249Y008798D02*
X043249Y008798D01*
X043249Y009057D02*
X040677Y009057D01*
X040774Y009154D02*
X043249Y009154D01*
X043249Y009251D02*
X040783Y009251D01*
X040755Y009348D02*
X043249Y009348D01*
X043249Y009639D02*
X043135Y009639D01*
X043232Y009736D02*
X043249Y009736D01*
X043242Y010706D02*
X043249Y010706D01*
X043249Y010803D02*
X043145Y010803D01*
X043249Y010900D02*
X042995Y010900D01*
X043249Y010997D02*
X038188Y010997D01*
X038224Y011094D02*
X043249Y011094D01*
X043249Y011191D02*
X038224Y011191D01*
X038127Y011287D02*
X043249Y011287D01*
X043249Y011384D02*
X033409Y011384D01*
X033409Y011481D02*
X043249Y011481D01*
X043249Y011578D02*
X033409Y011578D01*
X033409Y011675D02*
X034645Y011675D01*
X034598Y011722D02*
X034709Y011611D01*
X034865Y011611D01*
X034976Y011722D01*
X034976Y011879D01*
X034865Y011990D01*
X034709Y011990D01*
X034598Y011879D01*
X034598Y011722D01*
X034598Y011772D02*
X033409Y011772D01*
X033409Y011869D02*
X034598Y011869D01*
X034685Y011966D02*
X033409Y011966D01*
X033409Y012063D02*
X036960Y012063D01*
X036960Y012076D02*
X036960Y011919D01*
X037071Y011808D01*
X037228Y011808D01*
X037338Y011919D01*
X037338Y012076D01*
X037269Y012145D01*
X037338Y012214D01*
X037338Y012371D01*
X037228Y012482D01*
X037071Y012482D01*
X036960Y012371D01*
X036960Y012214D01*
X037029Y012145D01*
X036960Y012076D01*
X037014Y012160D02*
X033409Y012160D01*
X033409Y012257D02*
X036960Y012257D01*
X036960Y012354D02*
X033409Y012354D01*
X033409Y012451D02*
X037040Y012451D01*
X037258Y012451D02*
X039937Y012451D01*
X039937Y012392D02*
X040006Y012226D01*
X040133Y012098D01*
X040300Y012029D01*
X040481Y012029D01*
X040647Y012098D01*
X040775Y012226D01*
X040844Y012392D01*
X040844Y012573D01*
X040775Y012740D01*
X040647Y012867D01*
X040481Y012936D01*
X040696Y012936D01*
X040702Y012922D02*
X040829Y012794D01*
X040996Y012725D01*
X041176Y012725D01*
X041343Y012794D01*
X041471Y012922D01*
X041540Y013088D01*
X041540Y013269D01*
X041471Y013435D01*
X041343Y013563D01*
X041176Y013632D01*
X040996Y013632D01*
X040829Y013563D01*
X040702Y013435D01*
X040633Y013269D01*
X040633Y013088D01*
X040702Y012922D01*
X040675Y012839D02*
X040784Y012839D01*
X040772Y012742D02*
X040955Y012742D01*
X040814Y012645D02*
X041306Y012645D01*
X041316Y012676D02*
X041291Y012601D01*
X041280Y012532D01*
X041733Y012532D01*
X041733Y012985D01*
X041664Y012974D01*
X041589Y012949D01*
X041518Y012913D01*
X041454Y012867D01*
X041398Y012811D01*
X041352Y012747D01*
X041316Y012676D01*
X041349Y012742D02*
X041217Y012742D01*
X041388Y012839D02*
X041426Y012839D01*
X041477Y012936D02*
X041563Y012936D01*
X041517Y013033D02*
X042148Y013033D01*
X042141Y013054D02*
X042167Y012974D01*
X042205Y012899D01*
X042254Y012831D01*
X042314Y012772D01*
X042382Y012723D01*
X042456Y012685D01*
X042536Y012659D01*
X042612Y012647D01*
X042612Y013129D01*
X042710Y013129D01*
X042710Y012647D01*
X042786Y012659D01*
X042866Y012685D01*
X042940Y012723D01*
X043008Y012772D01*
X043068Y012831D01*
X043117Y012899D01*
X043155Y012974D01*
X043181Y013054D01*
X043193Y013129D01*
X042710Y013129D01*
X042710Y013228D01*
X042612Y013228D01*
X042612Y013710D01*
X042536Y013699D01*
X042456Y013673D01*
X042382Y013634D01*
X042314Y013585D01*
X042254Y013526D01*
X042205Y013458D01*
X042167Y013383D01*
X042141Y013303D01*
X042129Y013228D01*
X042612Y013228D01*
X042612Y013129D01*
X042129Y013129D01*
X042141Y013054D01*
X042186Y012936D02*
X042002Y012936D01*
X041976Y012949D02*
X041900Y012974D01*
X041831Y012985D01*
X041831Y012532D01*
X041733Y012532D01*
X041733Y012433D01*
X041831Y012433D01*
X041831Y011981D01*
X041900Y011991D01*
X041976Y012016D01*
X042046Y012052D01*
X042110Y012099D01*
X042166Y012155D01*
X042213Y012219D01*
X042249Y012289D01*
X042273Y012365D01*
X042284Y012433D01*
X041832Y012433D01*
X041832Y012532D01*
X042284Y012532D01*
X042273Y012601D01*
X042249Y012676D01*
X042213Y012747D01*
X042166Y012811D01*
X042110Y012867D01*
X042046Y012913D01*
X041976Y012949D01*
X041831Y012936D02*
X041733Y012936D01*
X041733Y012839D02*
X041831Y012839D01*
X041831Y012742D02*
X041733Y012742D01*
X041733Y012645D02*
X041831Y012645D01*
X041831Y012548D02*
X041733Y012548D01*
X041733Y012451D02*
X040844Y012451D01*
X040844Y012548D02*
X041283Y012548D01*
X041280Y012433D02*
X041291Y012365D01*
X041316Y012289D01*
X041352Y012219D01*
X041398Y012155D01*
X041454Y012099D01*
X041518Y012052D01*
X041589Y012016D01*
X041664Y011991D01*
X041733Y011981D01*
X041733Y012433D01*
X041280Y012433D01*
X041295Y012354D02*
X040828Y012354D01*
X040788Y012257D02*
X041332Y012257D01*
X041394Y012160D02*
X040709Y012160D01*
X040563Y012063D02*
X041503Y012063D01*
X041733Y012063D02*
X041831Y012063D01*
X041831Y012160D02*
X041733Y012160D01*
X041733Y012257D02*
X041831Y012257D01*
X041831Y012354D02*
X041733Y012354D01*
X041832Y012451D02*
X043249Y012451D01*
X043249Y012354D02*
X042270Y012354D01*
X042232Y012257D02*
X043249Y012257D01*
X043249Y012160D02*
X042170Y012160D01*
X042062Y012063D02*
X043249Y012063D01*
X043249Y011966D02*
X039649Y011966D01*
X039701Y012018D02*
X039590Y011907D01*
X039433Y011907D01*
X039322Y012018D01*
X039322Y012174D01*
X039433Y012285D01*
X039590Y012285D01*
X039701Y012174D01*
X039701Y012018D01*
X039701Y012063D02*
X040218Y012063D01*
X040071Y012160D02*
X039701Y012160D01*
X039618Y012257D02*
X039993Y012257D01*
X039953Y012354D02*
X037338Y012354D01*
X037338Y012257D02*
X039405Y012257D01*
X039322Y012160D02*
X037284Y012160D01*
X037338Y012063D02*
X039322Y012063D01*
X039295Y011990D02*
X039138Y011990D01*
X039027Y011879D01*
X039027Y011722D01*
X039138Y011611D01*
X039295Y011611D01*
X039405Y011722D01*
X039405Y011879D01*
X039295Y011990D01*
X039318Y011966D02*
X039374Y011966D01*
X039405Y011869D02*
X043249Y011869D01*
X043249Y011772D02*
X039405Y011772D01*
X039359Y011675D02*
X043249Y011675D01*
X043249Y012548D02*
X042282Y012548D01*
X042259Y012645D02*
X043249Y012645D01*
X043249Y012742D02*
X042967Y012742D01*
X043073Y012839D02*
X043249Y012839D01*
X043249Y012936D02*
X043136Y012936D01*
X043174Y013033D02*
X043249Y013033D01*
X043249Y013130D02*
X042710Y013130D01*
X042710Y013227D02*
X043249Y013227D01*
X043193Y013228D02*
X043181Y013303D01*
X043155Y013383D01*
X043117Y013458D01*
X043068Y013526D01*
X043008Y013585D01*
X042940Y013634D01*
X042866Y013673D01*
X042786Y013699D01*
X042710Y013710D01*
X042710Y013228D01*
X043193Y013228D01*
X043174Y013324D02*
X043249Y013324D01*
X043249Y013421D02*
X043136Y013421D01*
X043074Y013518D02*
X043249Y013518D01*
X043249Y013615D02*
X042968Y013615D01*
X042710Y013615D02*
X042612Y013615D01*
X042612Y013518D02*
X042710Y013518D01*
X042710Y013421D02*
X042612Y013421D01*
X042612Y013324D02*
X042710Y013324D01*
X042612Y013227D02*
X041540Y013227D01*
X041540Y013130D02*
X042612Y013130D01*
X042612Y013033D02*
X042710Y013033D01*
X042710Y012936D02*
X042612Y012936D01*
X042612Y012839D02*
X042710Y012839D01*
X042710Y012742D02*
X042612Y012742D01*
X042355Y012742D02*
X042215Y012742D01*
X042249Y012839D02*
X042138Y012839D01*
X042148Y013324D02*
X041517Y013324D01*
X041477Y013421D02*
X042186Y013421D01*
X042249Y013518D02*
X042067Y013518D01*
X042039Y013490D02*
X042167Y013618D01*
X042236Y013784D01*
X042236Y013965D01*
X042167Y014131D01*
X042039Y014259D01*
X041872Y014328D01*
X041692Y014328D01*
X041525Y014259D01*
X041398Y014131D01*
X041329Y013965D01*
X041329Y013784D01*
X041398Y013618D01*
X041525Y013490D01*
X041692Y013421D01*
X041872Y013421D01*
X042039Y013490D01*
X042164Y013615D02*
X042355Y013615D01*
X042206Y013712D02*
X043249Y013712D01*
X043249Y013809D02*
X042236Y013809D01*
X042236Y013906D02*
X043249Y013906D01*
X043249Y014003D02*
X042220Y014003D01*
X042180Y014100D02*
X043249Y014100D01*
X043249Y014197D02*
X042102Y014197D01*
X041956Y014294D02*
X043249Y014294D01*
X043249Y014390D02*
X036313Y014390D01*
X036313Y014294D02*
X040110Y014294D01*
X040126Y014305D02*
X040062Y014259D01*
X040006Y014203D01*
X039960Y014138D01*
X039924Y014068D01*
X039899Y013992D01*
X039888Y013924D01*
X040341Y013924D01*
X040341Y014376D01*
X040272Y014366D01*
X040197Y014341D01*
X040126Y014305D01*
X040002Y014197D02*
X036313Y014197D01*
X036313Y014126D02*
X036313Y016603D01*
X036354Y016644D01*
X036354Y016800D01*
X036243Y016911D01*
X036087Y016911D01*
X035976Y016800D01*
X035976Y016644D01*
X036017Y016603D01*
X036017Y016588D01*
X035862Y016743D01*
X035862Y016800D01*
X035751Y016911D01*
X035595Y016911D01*
X035484Y016800D01*
X035484Y016644D01*
X035595Y016533D01*
X035652Y016533D01*
X035820Y016365D01*
X035820Y015041D01*
X035693Y015041D01*
X035582Y014930D01*
X035582Y014773D01*
X035693Y014663D01*
X035820Y014663D01*
X035820Y014224D01*
X035652Y014057D01*
X035595Y014057D01*
X035484Y013946D01*
X035484Y013789D01*
X035595Y013678D01*
X035751Y013678D01*
X035821Y013748D01*
X035890Y013678D01*
X036047Y013678D01*
X036116Y013748D01*
X036185Y013678D01*
X036342Y013678D01*
X036453Y013789D01*
X036453Y013946D01*
X036342Y014057D01*
X036313Y014057D01*
X036313Y014126D01*
X036313Y014100D02*
X039940Y014100D01*
X039903Y014003D02*
X036396Y014003D01*
X036453Y013906D02*
X040341Y013906D01*
X040341Y013924D02*
X040341Y013825D01*
X040439Y013825D01*
X040439Y013372D01*
X040508Y013383D01*
X040584Y013408D01*
X040654Y013444D01*
X040718Y013490D01*
X040774Y013546D01*
X040821Y013611D01*
X040857Y013681D01*
X040881Y013757D01*
X040892Y013825D01*
X040440Y013825D01*
X040440Y013924D01*
X040892Y013924D01*
X040881Y013992D01*
X040857Y014068D01*
X040821Y014138D01*
X040774Y014203D01*
X040718Y014259D01*
X040654Y014305D01*
X040584Y014341D01*
X040508Y014366D01*
X040439Y014376D01*
X040439Y013924D01*
X040341Y013924D01*
X040341Y014003D02*
X040439Y014003D01*
X040439Y014100D02*
X040341Y014100D01*
X040341Y014197D02*
X040439Y014197D01*
X040439Y014294D02*
X040341Y014294D01*
X040670Y014294D02*
X041609Y014294D01*
X041463Y014197D02*
X040779Y014197D01*
X040841Y014100D02*
X041385Y014100D01*
X041344Y014003D02*
X040878Y014003D01*
X040890Y013809D02*
X041329Y013809D01*
X041329Y013906D02*
X040440Y013906D01*
X040439Y013809D02*
X040341Y013809D01*
X040341Y013825D02*
X040341Y013372D01*
X040272Y013383D01*
X040197Y013408D01*
X040126Y013444D01*
X040062Y013490D01*
X040006Y013546D01*
X039960Y013611D01*
X039924Y013681D01*
X039899Y013757D01*
X039888Y013825D01*
X040341Y013825D01*
X040341Y013712D02*
X040439Y013712D01*
X040439Y013615D02*
X040341Y013615D01*
X040341Y013518D02*
X040439Y013518D01*
X040439Y013421D02*
X040341Y013421D01*
X040172Y013421D02*
X034706Y013421D01*
X034669Y013383D02*
X034779Y013494D01*
X034779Y013651D01*
X034669Y013761D01*
X034512Y013761D01*
X034401Y013651D01*
X034401Y013494D01*
X034512Y013383D01*
X034669Y013383D01*
X034779Y013518D02*
X038019Y013518D01*
X038055Y013481D02*
X038212Y013481D01*
X038323Y013592D01*
X038323Y013749D01*
X038212Y013860D01*
X038055Y013860D01*
X037944Y013749D01*
X037944Y013592D01*
X038055Y013481D01*
X037944Y013615D02*
X034779Y013615D01*
X034718Y013712D02*
X035561Y013712D01*
X035484Y013809D02*
X033409Y013809D01*
X033409Y013906D02*
X035484Y013906D01*
X035540Y014003D02*
X033409Y014003D01*
X033409Y014100D02*
X035695Y014100D01*
X035792Y014197D02*
X033409Y014197D01*
X033409Y014294D02*
X035820Y014294D01*
X035820Y014390D02*
X033409Y014390D01*
X033409Y014487D02*
X035820Y014487D01*
X035820Y014584D02*
X033409Y014584D01*
X033409Y014681D02*
X035674Y014681D01*
X035582Y014778D02*
X033409Y014778D01*
X033409Y014875D02*
X035582Y014875D01*
X035624Y014972D02*
X035274Y014972D01*
X035259Y014958D02*
X035370Y015069D01*
X035820Y015069D01*
X035820Y015166D02*
X035370Y015166D01*
X035370Y015225D02*
X035259Y015336D01*
X035102Y015336D01*
X034992Y015225D01*
X034992Y015069D01*
X033409Y015069D01*
X033409Y014972D02*
X035088Y014972D01*
X035102Y014958D02*
X035259Y014958D01*
X035102Y014958D02*
X034992Y015069D01*
X034992Y015166D02*
X033409Y015166D01*
X033409Y015263D02*
X035029Y015263D01*
X035332Y015263D02*
X035820Y015263D01*
X035820Y015360D02*
X033409Y015360D01*
X033409Y015457D02*
X035820Y015457D01*
X035820Y015554D02*
X033409Y015554D01*
X033409Y015651D02*
X035820Y015651D01*
X035820Y015748D02*
X033409Y015748D01*
X033409Y015845D02*
X035820Y015845D01*
X035820Y015942D02*
X033409Y015942D01*
X033409Y016039D02*
X035820Y016039D01*
X035820Y016136D02*
X033409Y016136D01*
X033409Y016233D02*
X035820Y016233D01*
X035820Y016330D02*
X033409Y016330D01*
X033409Y016427D02*
X035758Y016427D01*
X035661Y016524D02*
X033409Y016524D01*
X033409Y016621D02*
X035506Y016621D01*
X035484Y016718D02*
X033409Y016718D01*
X033409Y016815D02*
X035498Y016815D01*
X035673Y016722D02*
X035968Y016427D01*
X035968Y014163D01*
X035673Y013868D01*
X035785Y013712D02*
X035856Y013712D01*
X035968Y013868D02*
X036165Y014064D01*
X036165Y016722D01*
X035976Y016718D02*
X035887Y016718D01*
X035848Y016815D02*
X035990Y016815D01*
X035984Y016621D02*
X035999Y016621D01*
X036313Y016524D02*
X040543Y016524D01*
X040525Y016506D02*
X040424Y016263D01*
X040424Y016000D01*
X040525Y015756D01*
X040711Y015570D01*
X040955Y015470D01*
X041218Y015470D01*
X041461Y015570D01*
X041647Y015756D01*
X041748Y016000D01*
X041748Y016263D01*
X041647Y016506D01*
X041461Y016692D01*
X041218Y016793D01*
X040955Y016793D01*
X040711Y016692D01*
X040525Y016506D01*
X040492Y016427D02*
X036313Y016427D01*
X036313Y016330D02*
X040452Y016330D01*
X040424Y016233D02*
X036313Y016233D01*
X036313Y016136D02*
X040424Y016136D01*
X040424Y016039D02*
X036313Y016039D01*
X036313Y015942D02*
X040448Y015942D01*
X040489Y015845D02*
X038097Y015845D01*
X038126Y015816D02*
X038015Y015927D01*
X037858Y015927D01*
X037747Y015816D01*
X037747Y015659D01*
X037858Y015548D01*
X038015Y015548D01*
X038126Y015659D01*
X038126Y015816D01*
X038126Y015748D02*
X040534Y015748D01*
X040631Y015651D02*
X038118Y015651D01*
X038021Y015554D02*
X040750Y015554D01*
X041422Y015554D02*
X042177Y015554D01*
X042080Y015651D02*
X041542Y015651D01*
X041639Y015748D02*
X042008Y015748D01*
X041967Y015845D02*
X041684Y015845D01*
X041724Y015942D02*
X041927Y015942D01*
X041911Y016039D02*
X041748Y016039D01*
X041748Y016136D02*
X041911Y016136D01*
X041911Y016233D02*
X041748Y016233D01*
X041720Y016330D02*
X041931Y016330D01*
X041971Y016427D02*
X041680Y016427D01*
X041630Y016524D02*
X042011Y016524D01*
X042089Y016621D02*
X041533Y016621D01*
X041400Y016718D02*
X042186Y016718D01*
X042149Y016730D02*
X042260Y016840D01*
X042260Y016997D01*
X042149Y017108D01*
X041992Y017108D01*
X041881Y016997D01*
X041881Y016840D01*
X041992Y016730D01*
X042149Y016730D01*
X042234Y016815D02*
X042350Y016815D01*
X042260Y016912D02*
X043249Y016912D01*
X043249Y017009D02*
X042723Y017009D01*
X042752Y017037D02*
X042641Y016926D01*
X042484Y016926D01*
X042373Y017037D01*
X042373Y017194D01*
X042484Y017305D01*
X042641Y017305D01*
X042752Y017194D01*
X042752Y017037D01*
X042752Y017106D02*
X043249Y017106D01*
X043249Y017203D02*
X042743Y017203D01*
X042646Y017300D02*
X043249Y017300D01*
X043249Y017396D02*
X033135Y017396D01*
X033232Y017300D02*
X042479Y017300D01*
X042382Y017203D02*
X038511Y017203D01*
X038507Y017206D02*
X038350Y017206D01*
X038240Y017096D01*
X038240Y016939D01*
X038350Y016828D01*
X038507Y016828D01*
X038618Y016939D01*
X038618Y017096D01*
X038507Y017206D01*
X038608Y017106D02*
X041990Y017106D01*
X041893Y017009D02*
X038618Y017009D01*
X038591Y016912D02*
X041881Y016912D01*
X041907Y016815D02*
X036821Y016815D01*
X036846Y016840D02*
X036736Y016730D01*
X036579Y016730D01*
X036468Y016840D01*
X036468Y016997D01*
X036579Y017108D01*
X036736Y017108D01*
X036846Y016997D01*
X036846Y016840D01*
X036846Y016912D02*
X038267Y016912D01*
X038240Y017009D02*
X036835Y017009D01*
X036738Y017106D02*
X038250Y017106D01*
X038347Y017203D02*
X033329Y017203D01*
X033372Y017106D02*
X036576Y017106D01*
X036479Y017009D02*
X033409Y017009D01*
X033409Y016912D02*
X036468Y016912D01*
X036494Y016815D02*
X036340Y016815D01*
X036354Y016718D02*
X040773Y016718D01*
X040640Y016621D02*
X036331Y016621D01*
X036313Y015845D02*
X037776Y015845D01*
X037747Y015748D02*
X036313Y015748D01*
X036313Y015651D02*
X037756Y015651D01*
X037853Y015554D02*
X036313Y015554D01*
X036313Y015457D02*
X042328Y015457D01*
X042994Y015457D02*
X043249Y015457D01*
X043249Y015360D02*
X036313Y015360D01*
X036313Y015263D02*
X037687Y015263D01*
X037649Y015225D02*
X037649Y015069D01*
X036806Y015069D01*
X036846Y015029D02*
X036736Y015139D01*
X036579Y015139D01*
X036468Y015029D01*
X036468Y014872D01*
X036579Y014761D01*
X036736Y014761D01*
X036846Y014872D01*
X036846Y015029D01*
X036846Y014972D02*
X037649Y014972D01*
X037649Y015029D02*
X037649Y014872D01*
X037760Y014761D01*
X037917Y014761D01*
X038027Y014872D01*
X038027Y015029D01*
X038007Y015049D01*
X038027Y015069D01*
X043249Y015069D01*
X043249Y014972D02*
X038027Y014972D01*
X038027Y014875D02*
X043249Y014875D01*
X043249Y014778D02*
X037934Y014778D01*
X037743Y014778D02*
X036753Y014778D01*
X036846Y014875D02*
X037649Y014875D01*
X037649Y015029D02*
X037669Y015049D01*
X037649Y015069D01*
X037649Y015166D02*
X036313Y015166D01*
X036313Y015069D02*
X036509Y015069D01*
X036468Y014972D02*
X036313Y014972D01*
X036313Y014875D02*
X036468Y014875D01*
X036561Y014778D02*
X036313Y014778D01*
X036313Y014681D02*
X043249Y014681D01*
X043249Y014584D02*
X036313Y014584D01*
X036313Y014487D02*
X043249Y014487D01*
X043249Y015166D02*
X038027Y015166D01*
X038027Y015225D02*
X037917Y015336D01*
X037760Y015336D01*
X037649Y015225D01*
X037990Y015263D02*
X043249Y015263D01*
X043249Y015554D02*
X043145Y015554D01*
X043242Y015651D02*
X043249Y015651D01*
X043233Y016621D02*
X043249Y016621D01*
X043249Y016718D02*
X043136Y016718D01*
X043249Y016815D02*
X042972Y016815D01*
X042402Y017009D02*
X042248Y017009D01*
X042151Y017106D02*
X042373Y017106D01*
X043249Y017493D02*
X033038Y017493D01*
X032941Y017590D02*
X043263Y017590D01*
X043249Y017559D02*
X043249Y017559D01*
X043249Y017522D02*
X043249Y017522D01*
X043303Y017687D02*
X032844Y017687D01*
X032747Y017784D02*
X043347Y017784D01*
X043446Y017881D02*
X032650Y017881D01*
X032553Y017978D02*
X043593Y017978D01*
X043545Y017959D02*
X043545Y017959D01*
X043511Y017946D02*
X043511Y017946D01*
X043835Y018075D02*
X042117Y018075D01*
X042161Y018120D02*
X042050Y018009D01*
X041894Y018009D01*
X041783Y018120D01*
X041783Y018277D01*
X041894Y018387D01*
X042050Y018387D01*
X042161Y018277D01*
X042161Y018120D01*
X042161Y018172D02*
X044077Y018172D01*
X044320Y018269D02*
X042161Y018269D01*
X042072Y018366D02*
X044562Y018366D01*
X044805Y018463D02*
X033843Y018463D01*
X033894Y018514D02*
X033783Y018403D01*
X033626Y018403D01*
X033515Y018514D01*
X033515Y018577D01*
X033487Y018550D01*
X033331Y018550D01*
X033220Y018660D01*
X033220Y018817D01*
X033331Y018928D01*
X033487Y018928D01*
X033515Y018900D01*
X033515Y018966D01*
X033626Y019076D01*
X033783Y019076D01*
X033894Y018966D01*
X033894Y018809D01*
X033824Y018740D01*
X033894Y018670D01*
X033894Y018514D01*
X033894Y018560D02*
X045047Y018560D01*
X045187Y018657D02*
X033894Y018657D01*
X033839Y018754D02*
X045217Y018754D01*
X045218Y018851D02*
X033894Y018851D01*
X033894Y018948D02*
X045218Y018948D01*
X045218Y019045D02*
X034819Y019045D01*
X034767Y018993D02*
X034878Y019104D01*
X034878Y019261D01*
X034767Y019372D01*
X034610Y019372D01*
X034590Y019352D01*
X034570Y019372D01*
X034413Y019372D01*
X034303Y019261D01*
X034303Y019104D01*
X034413Y018993D01*
X034570Y018993D01*
X034590Y019013D01*
X034610Y018993D01*
X034767Y018993D01*
X034878Y019142D02*
X042040Y019142D01*
X042091Y019092D02*
X042247Y019092D01*
X042358Y019203D01*
X042358Y019359D01*
X042247Y019470D01*
X042091Y019470D01*
X041980Y019359D01*
X041980Y019203D01*
X042091Y019092D01*
X041980Y019239D02*
X034878Y019239D01*
X034803Y019336D02*
X041980Y019336D01*
X042053Y019433D02*
X034714Y019433D01*
X034669Y019387D02*
X034779Y019498D01*
X034779Y019655D01*
X034669Y019765D01*
X034512Y019765D01*
X034401Y019655D01*
X034401Y019498D01*
X034512Y019387D01*
X034669Y019387D01*
X034779Y019530D02*
X045218Y019530D01*
X045218Y019627D02*
X034779Y019627D01*
X034710Y019724D02*
X038900Y019724D01*
X038941Y019682D02*
X039098Y019682D01*
X039209Y019793D01*
X039209Y019950D01*
X039098Y020061D01*
X038941Y020061D01*
X038830Y019950D01*
X038830Y019793D01*
X038941Y019682D01*
X038830Y019821D02*
X029924Y019821D01*
X030021Y019724D02*
X032600Y019724D01*
X032642Y019765D02*
X032531Y019655D01*
X032531Y019498D01*
X032642Y019387D01*
X032799Y019387D01*
X032819Y019407D01*
X032839Y019387D01*
X032995Y019387D01*
X033106Y019498D01*
X033106Y019655D01*
X032995Y019765D01*
X032839Y019765D01*
X032819Y019745D01*
X032799Y019765D01*
X032642Y019765D01*
X032531Y019627D02*
X030117Y019627D01*
X030214Y019530D02*
X032531Y019530D01*
X032596Y019433D02*
X030311Y019433D01*
X030003Y019045D02*
X028685Y019045D01*
X028685Y019142D02*
X029906Y019142D01*
X029809Y019239D02*
X028685Y019239D01*
X028685Y019336D02*
X028854Y019336D01*
X028902Y019289D02*
X029058Y019289D01*
X029169Y019399D01*
X029169Y019556D01*
X029058Y019667D01*
X028902Y019667D01*
X028791Y019556D01*
X028791Y019399D01*
X028902Y019289D01*
X028791Y019433D02*
X028685Y019433D01*
X028685Y019530D02*
X028791Y019530D01*
X028861Y019627D02*
X028685Y019627D01*
X028685Y019724D02*
X029325Y019724D01*
X029422Y019627D02*
X029099Y019627D01*
X029169Y019530D02*
X029519Y019530D01*
X029616Y019433D02*
X029169Y019433D01*
X029106Y019336D02*
X029712Y019336D01*
X030100Y018948D02*
X028685Y018948D01*
X028685Y018851D02*
X030985Y018851D01*
X031082Y018754D02*
X028685Y018754D01*
X028685Y018657D02*
X031179Y018657D01*
X031276Y018560D02*
X028685Y018560D01*
X028685Y018463D02*
X031373Y018463D01*
X031470Y018366D02*
X028685Y018366D01*
X028685Y018269D02*
X031567Y018269D01*
X031664Y018172D02*
X028685Y018172D01*
X028685Y018075D02*
X031760Y018075D01*
X031857Y017978D02*
X029517Y017978D01*
X029501Y017994D02*
X029345Y017994D01*
X029234Y017883D01*
X029234Y017726D01*
X029345Y017615D01*
X029501Y017615D01*
X029612Y017726D01*
X029612Y017883D01*
X029501Y017994D01*
X029612Y017881D02*
X031954Y017881D01*
X032051Y017784D02*
X030646Y017784D01*
X030633Y017797D02*
X030476Y017797D01*
X030366Y017686D01*
X030366Y017529D01*
X030476Y017419D01*
X030633Y017419D01*
X030744Y017529D01*
X030744Y017686D01*
X030633Y017797D01*
X030743Y017687D02*
X032148Y017687D01*
X032245Y017590D02*
X030744Y017590D01*
X030708Y017493D02*
X032342Y017493D01*
X032439Y017396D02*
X024410Y017396D01*
X024445Y017431D02*
X024334Y017320D01*
X024177Y017320D01*
X024066Y017431D01*
X024066Y017588D01*
X024177Y017698D01*
X024334Y017698D01*
X024445Y017588D01*
X024445Y017431D01*
X024445Y017493D02*
X030401Y017493D01*
X030366Y017590D02*
X024442Y017590D01*
X024345Y017687D02*
X029272Y017687D01*
X029234Y017784D02*
X021086Y017784D01*
X020989Y017687D02*
X023182Y017687D01*
X023193Y017698D02*
X023082Y017588D01*
X023082Y017431D01*
X023193Y017320D01*
X023350Y017320D01*
X023461Y017431D01*
X023461Y017588D01*
X023350Y017698D01*
X023193Y017698D01*
X023193Y017812D02*
X023350Y017812D01*
X023461Y017923D01*
X023461Y018080D01*
X023350Y018191D01*
X023193Y018191D01*
X023082Y018080D01*
X023082Y017923D01*
X023193Y017812D01*
X023124Y017881D02*
X021183Y017881D01*
X021280Y017978D02*
X023082Y017978D01*
X023082Y018075D02*
X021377Y018075D01*
X021474Y018172D02*
X023175Y018172D01*
X023368Y018172D02*
X024159Y018172D01*
X024177Y018191D02*
X024066Y018080D01*
X024066Y017923D01*
X024177Y017812D01*
X024334Y017812D01*
X024445Y017923D01*
X024445Y018080D01*
X024334Y018191D01*
X024177Y018191D01*
X024177Y018304D02*
X024334Y018304D01*
X024445Y018415D01*
X024445Y018572D01*
X024334Y018683D01*
X024177Y018683D01*
X024066Y018572D01*
X024066Y018415D01*
X024177Y018304D01*
X024115Y018366D02*
X021668Y018366D01*
X021765Y018463D02*
X024066Y018463D01*
X024066Y018560D02*
X021862Y018560D01*
X021959Y018657D02*
X024152Y018657D01*
X024360Y018657D02*
X026618Y018657D01*
X026618Y018754D02*
X022055Y018754D01*
X022152Y018851D02*
X026618Y018851D01*
X026618Y018948D02*
X025076Y018948D01*
X025023Y018895D02*
X025134Y019006D01*
X025134Y019162D01*
X025023Y019273D01*
X024866Y019273D01*
X024755Y019162D01*
X024755Y019006D01*
X024866Y018895D01*
X025023Y018895D01*
X025134Y019045D02*
X026618Y019045D01*
X026618Y019142D02*
X025134Y019142D01*
X025057Y019239D02*
X026618Y019239D01*
X026563Y019336D02*
X022637Y019336D01*
X022540Y019239D02*
X024832Y019239D01*
X024755Y019142D02*
X022443Y019142D01*
X022346Y019045D02*
X024755Y019045D01*
X024813Y018948D02*
X022249Y018948D01*
X022136Y019045D02*
X019346Y019045D01*
X019314Y019076D02*
X019158Y019076D01*
X019047Y018966D01*
X019047Y018809D01*
X019158Y018698D01*
X019314Y018698D01*
X019425Y018809D01*
X019425Y018966D01*
X019314Y019076D01*
X019425Y018948D02*
X022040Y018948D01*
X021943Y018851D02*
X019425Y018851D01*
X019370Y018754D02*
X021846Y018754D01*
X021749Y018657D02*
X018047Y018657D01*
X018047Y018670D02*
X017936Y018781D01*
X017780Y018781D01*
X017669Y018670D01*
X017669Y018514D01*
X017780Y018403D01*
X017936Y018403D01*
X018047Y018514D01*
X018047Y018670D01*
X018047Y018560D02*
X021652Y018560D01*
X021555Y018463D02*
X017997Y018463D01*
X017719Y018463D02*
X012933Y018463D01*
X012933Y018408D02*
X012823Y018297D01*
X012666Y018297D01*
X012555Y018408D01*
X012555Y018564D01*
X012666Y018675D01*
X012823Y018675D01*
X012933Y018564D01*
X012933Y018408D01*
X012892Y018366D02*
X021458Y018366D01*
X021361Y018269D02*
X017366Y018269D01*
X017346Y018289D02*
X017189Y018289D01*
X017078Y018178D01*
X017078Y018021D01*
X017189Y017911D01*
X017346Y017911D01*
X017457Y018021D01*
X017457Y018178D01*
X017346Y018289D01*
X017457Y018172D02*
X021264Y018172D01*
X021167Y018075D02*
X017457Y018075D01*
X017413Y017978D02*
X021070Y017978D01*
X020973Y017881D02*
X013616Y017881D01*
X013633Y017864D02*
X013523Y017975D01*
X013366Y017975D01*
X013255Y017864D01*
X013255Y017708D01*
X013366Y017597D01*
X013523Y017597D01*
X013633Y017708D01*
X013633Y017864D01*
X013633Y017784D02*
X016783Y017784D01*
X016795Y017797D02*
X016684Y017686D01*
X016684Y017650D01*
X016550Y017650D01*
X016439Y017539D01*
X016439Y017382D01*
X016550Y017272D01*
X016707Y017272D01*
X016818Y017382D01*
X016818Y017419D01*
X016952Y017419D01*
X017063Y017529D01*
X017063Y017686D01*
X016952Y017797D01*
X016795Y017797D01*
X016686Y017687D02*
X013613Y017687D01*
X013681Y017590D02*
X012582Y017590D01*
X012609Y017563D02*
X012498Y017674D01*
X012342Y017674D01*
X012231Y017563D01*
X012231Y017406D01*
X012342Y017295D01*
X012498Y017295D01*
X012609Y017406D01*
X012609Y017563D01*
X012609Y017493D02*
X013605Y017493D01*
X013605Y017514D02*
X013605Y017358D01*
X013716Y017247D01*
X013873Y017247D01*
X013983Y017358D01*
X013983Y017514D01*
X013873Y017625D01*
X013716Y017625D01*
X013605Y017514D01*
X013605Y017396D02*
X012599Y017396D01*
X012502Y017300D02*
X012705Y017300D01*
X012711Y017305D02*
X012600Y017194D01*
X012600Y017037D01*
X012711Y016926D01*
X012867Y016926D01*
X012978Y017037D01*
X012978Y017194D01*
X012867Y017305D01*
X012711Y017305D01*
X012608Y017203D02*
X007758Y017203D01*
X007886Y017300D02*
X012338Y017300D01*
X012241Y017396D02*
X007938Y017396D01*
X007957Y017493D02*
X012231Y017493D01*
X012258Y017590D02*
X007951Y017590D01*
X007911Y017687D02*
X011975Y017687D01*
X012016Y017647D02*
X012173Y017647D01*
X012283Y017758D01*
X012283Y017914D01*
X012173Y018025D01*
X012016Y018025D01*
X011905Y017914D01*
X011905Y017758D01*
X012016Y017647D01*
X011905Y017784D02*
X007821Y017784D01*
X007730Y017978D02*
X011969Y017978D01*
X011905Y017881D02*
X006244Y017881D01*
X006244Y017784D02*
X006438Y017784D01*
X006348Y017687D02*
X006244Y017687D01*
X006244Y017590D02*
X006308Y017590D01*
X006302Y017493D02*
X006244Y017493D01*
X006244Y017396D02*
X006321Y017396D01*
X006373Y017300D02*
X006244Y017300D01*
X006244Y017203D02*
X006501Y017203D01*
X006453Y017009D02*
X006244Y017009D01*
X006244Y017106D02*
X012600Y017106D01*
X012628Y017009D02*
X010654Y017009D01*
X010653Y017009D02*
X010496Y017009D01*
X010385Y016899D01*
X010385Y016742D01*
X010496Y016631D01*
X010653Y016631D01*
X010764Y016742D01*
X010764Y016899D01*
X010653Y017009D01*
X010751Y016912D02*
X013005Y016912D01*
X013054Y016961D02*
X012944Y016850D01*
X012944Y016693D01*
X013054Y016583D01*
X013211Y016583D01*
X013322Y016693D01*
X013322Y016850D01*
X013211Y016961D01*
X013054Y016961D01*
X012950Y017009D02*
X013955Y017009D01*
X013955Y017008D02*
X014066Y016897D01*
X014223Y016897D01*
X014333Y017008D01*
X014333Y017164D01*
X014223Y017275D01*
X014066Y017275D01*
X013955Y017164D01*
X013955Y017008D01*
X013955Y017106D02*
X012978Y017106D01*
X012970Y017203D02*
X013993Y017203D01*
X013925Y017300D02*
X016005Y017300D01*
X016005Y017364D02*
X016005Y017208D01*
X016116Y017097D01*
X016273Y017097D01*
X016383Y017208D01*
X016383Y017364D01*
X016273Y017475D01*
X016116Y017475D01*
X016005Y017364D01*
X016037Y017396D02*
X013983Y017396D01*
X013983Y017493D02*
X016439Y017493D01*
X016439Y017396D02*
X016351Y017396D01*
X016383Y017300D02*
X016522Y017300D01*
X016378Y017203D02*
X017897Y017203D01*
X017866Y017234D02*
X017976Y017123D01*
X018133Y017123D01*
X018244Y017234D01*
X018244Y017391D01*
X018133Y017502D01*
X017976Y017502D01*
X017866Y017391D01*
X017866Y017234D01*
X017866Y017300D02*
X016735Y017300D01*
X016818Y017396D02*
X017871Y017396D01*
X017968Y017493D02*
X017027Y017493D01*
X017063Y017590D02*
X018161Y017590D01*
X018161Y017529D02*
X018272Y017419D01*
X018428Y017419D01*
X018539Y017529D01*
X018539Y017686D01*
X018428Y017797D01*
X018272Y017797D01*
X018161Y017686D01*
X018161Y017529D01*
X018141Y017493D02*
X018197Y017493D01*
X018238Y017396D02*
X020488Y017396D01*
X020391Y017300D02*
X018698Y017300D01*
X018673Y017325D02*
X018783Y017214D01*
X018783Y017058D01*
X018673Y016947D01*
X018516Y016947D01*
X018405Y017058D01*
X018405Y017214D01*
X018516Y017325D01*
X018673Y017325D01*
X018783Y017203D02*
X020294Y017203D01*
X020197Y017106D02*
X018783Y017106D01*
X018734Y017009D02*
X020100Y017009D01*
X020003Y016912D02*
X014237Y016912D01*
X014333Y017009D02*
X018454Y017009D01*
X018405Y017106D02*
X016281Y017106D01*
X016107Y017106D02*
X014333Y017106D01*
X014295Y017203D02*
X016010Y017203D01*
X016490Y017590D02*
X013907Y017590D01*
X013663Y017300D02*
X012873Y017300D01*
X012944Y016815D02*
X010764Y016815D01*
X010739Y016718D02*
X012944Y016718D01*
X013016Y016621D02*
X007943Y016621D01*
X007957Y016718D02*
X010409Y016718D01*
X010385Y016815D02*
X007946Y016815D01*
X007906Y016912D02*
X010398Y016912D01*
X010495Y017009D02*
X007806Y017009D01*
X007898Y016524D02*
X013294Y016524D01*
X013287Y016517D02*
X013287Y016360D01*
X013398Y016249D01*
X013554Y016249D01*
X013665Y016360D01*
X013665Y016517D01*
X013554Y016628D01*
X013398Y016628D01*
X013287Y016517D01*
X013287Y016427D02*
X007786Y016427D01*
X007778Y016233D02*
X013718Y016233D01*
X013750Y016265D02*
X013640Y016154D01*
X013640Y015997D01*
X013750Y015887D01*
X013907Y015887D01*
X014018Y015997D01*
X014018Y016154D01*
X013907Y016265D01*
X013750Y016265D01*
X013635Y016330D02*
X019421Y016330D01*
X019324Y016233D02*
X013939Y016233D01*
X014018Y016136D02*
X019284Y016136D01*
X019284Y016039D02*
X019054Y016039D01*
X019019Y016074D02*
X019130Y015964D01*
X019130Y015807D01*
X019019Y015696D01*
X018862Y015696D01*
X018751Y015807D01*
X018751Y015964D01*
X018862Y016074D01*
X019019Y016074D01*
X019130Y015942D02*
X019284Y015942D01*
X019284Y015845D02*
X019130Y015845D01*
X019071Y015748D02*
X019284Y015748D01*
X019284Y015651D02*
X012043Y015651D01*
X012043Y015718D02*
X011932Y015828D01*
X011776Y015828D01*
X011665Y015718D01*
X011665Y015561D01*
X011776Y015450D01*
X011932Y015450D01*
X012043Y015561D01*
X012043Y015718D01*
X012013Y015748D02*
X018810Y015748D01*
X018751Y015845D02*
X007948Y015845D01*
X007957Y015942D02*
X013695Y015942D01*
X013640Y016039D02*
X007942Y016039D01*
X007895Y016136D02*
X013640Y016136D01*
X013665Y016427D02*
X019518Y016427D01*
X019615Y016524D02*
X018469Y016524D01*
X018428Y016483D02*
X018539Y016594D01*
X018539Y016751D01*
X018428Y016862D01*
X018272Y016862D01*
X018161Y016751D01*
X018161Y016594D01*
X018272Y016483D01*
X018428Y016483D01*
X018539Y016621D02*
X019712Y016621D01*
X019809Y016718D02*
X018539Y016718D01*
X018476Y016815D02*
X019906Y016815D01*
X020019Y016718D02*
X029209Y016718D01*
X029184Y016742D02*
X029295Y016631D01*
X029452Y016631D01*
X029563Y016742D01*
X029563Y016899D01*
X029452Y017009D01*
X029295Y017009D01*
X029184Y016899D01*
X029184Y016742D01*
X029184Y016815D02*
X020116Y016815D01*
X020213Y016912D02*
X020944Y016912D01*
X020917Y016939D02*
X021028Y016828D01*
X021184Y016828D01*
X021295Y016939D01*
X021295Y017096D01*
X021184Y017206D01*
X021028Y017206D01*
X020917Y017096D01*
X020917Y016939D01*
X020917Y017009D02*
X020310Y017009D01*
X020407Y017106D02*
X020927Y017106D01*
X021024Y017203D02*
X020504Y017203D01*
X020601Y017300D02*
X032536Y017300D01*
X032633Y017203D02*
X024338Y017203D01*
X024334Y017206D02*
X024177Y017206D01*
X024066Y017096D01*
X024066Y016939D01*
X024177Y016828D01*
X024334Y016828D01*
X024445Y016939D01*
X024445Y017096D01*
X024334Y017206D01*
X024435Y017106D02*
X030612Y017106D01*
X030663Y017157D02*
X030553Y017046D01*
X030553Y016890D01*
X030663Y016779D01*
X030820Y016779D01*
X030931Y016890D01*
X030931Y017046D01*
X030820Y017157D01*
X030663Y017157D01*
X030553Y017009D02*
X029453Y017009D01*
X029550Y016912D02*
X030553Y016912D01*
X030627Y016815D02*
X029563Y016815D01*
X029539Y016718D02*
X032917Y016718D01*
X032917Y016815D02*
X030856Y016815D01*
X030931Y016912D02*
X032917Y016912D01*
X032827Y017009D02*
X030931Y017009D01*
X030872Y017106D02*
X032730Y017106D01*
X032917Y016621D02*
X024427Y016621D01*
X024445Y016603D02*
X024334Y016714D01*
X024177Y016714D01*
X024066Y016603D01*
X024066Y016447D01*
X024177Y016336D01*
X024334Y016336D01*
X024445Y016447D01*
X024445Y016603D01*
X024445Y016524D02*
X032917Y016524D01*
X032917Y016427D02*
X024425Y016427D01*
X024334Y016222D02*
X024177Y016222D01*
X024066Y016111D01*
X024066Y015955D01*
X024177Y015844D01*
X024334Y015844D01*
X024445Y015955D01*
X024445Y016111D01*
X024334Y016222D01*
X024420Y016136D02*
X032917Y016136D01*
X032917Y016233D02*
X019534Y016233D01*
X019437Y016136D02*
X023107Y016136D01*
X023082Y016111D02*
X023082Y015955D01*
X023193Y015844D01*
X023350Y015844D01*
X023461Y015955D01*
X023461Y016111D01*
X023350Y016222D01*
X023193Y016222D01*
X023082Y016111D01*
X023082Y016039D02*
X019433Y016039D01*
X019433Y015942D02*
X023095Y015942D01*
X023192Y015845D02*
X019433Y015845D01*
X019433Y015748D02*
X020947Y015748D01*
X020917Y015718D02*
X020917Y015561D01*
X021028Y015450D01*
X021184Y015450D01*
X021295Y015561D01*
X021295Y015718D01*
X021184Y015828D01*
X021028Y015828D01*
X020917Y015718D01*
X020917Y015651D02*
X019433Y015651D01*
X019433Y015554D02*
X020924Y015554D01*
X021020Y015457D02*
X019433Y015457D01*
X019351Y015360D02*
X032917Y015360D01*
X032917Y015263D02*
X019254Y015263D01*
X019238Y015457D02*
X011939Y015457D01*
X012036Y015554D02*
X019284Y015554D01*
X018751Y015942D02*
X013963Y015942D01*
X014018Y016039D02*
X018827Y016039D01*
X018231Y016524D02*
X013658Y016524D01*
X013561Y016621D02*
X014345Y016621D01*
X014322Y016644D02*
X014433Y016533D01*
X014590Y016533D01*
X014701Y016644D01*
X014701Y016800D01*
X014590Y016911D01*
X014433Y016911D01*
X014322Y016800D01*
X014322Y016644D01*
X014322Y016718D02*
X013322Y016718D01*
X013322Y016815D02*
X014337Y016815D01*
X014051Y016912D02*
X013261Y016912D01*
X013249Y016621D02*
X013391Y016621D01*
X013317Y016330D02*
X006244Y016330D01*
X006244Y016427D02*
X006473Y016427D01*
X006361Y016524D02*
X006244Y016524D01*
X006244Y016621D02*
X006316Y016621D01*
X006302Y016718D02*
X006244Y016718D01*
X006244Y016815D02*
X006313Y016815D01*
X006353Y016912D02*
X006244Y016912D01*
X006244Y016233D02*
X006481Y016233D01*
X006365Y016136D02*
X006244Y016136D01*
X006244Y016039D02*
X006318Y016039D01*
X006302Y015942D02*
X006244Y015942D01*
X006244Y015845D02*
X006311Y015845D01*
X006352Y015748D02*
X006244Y015748D01*
X006244Y015651D02*
X006446Y015651D01*
X006244Y015554D02*
X011672Y015554D01*
X011665Y015651D02*
X007813Y015651D01*
X007908Y015748D02*
X011695Y015748D01*
X011769Y015457D02*
X007750Y015457D01*
X007883Y015360D02*
X015933Y015360D01*
X015897Y015324D02*
X015897Y015167D01*
X016008Y015056D01*
X016165Y015056D01*
X016275Y015167D01*
X016275Y015324D01*
X016165Y015435D01*
X016008Y015435D01*
X015897Y015324D01*
X015897Y015263D02*
X007937Y015263D01*
X007957Y015166D02*
X015898Y015166D01*
X015995Y015069D02*
X007953Y015069D01*
X007722Y014681D02*
X012649Y014681D01*
X012740Y014584D02*
X007871Y014584D01*
X007419Y014875D02*
X006840Y014875D01*
X006928Y014972D02*
X007331Y014972D01*
X007291Y015069D02*
X006968Y015069D01*
X006973Y015166D02*
X007286Y015166D01*
X007307Y015263D02*
X006952Y015263D01*
X006899Y015360D02*
X007360Y015360D01*
X006530Y017978D02*
X006244Y017978D01*
X006244Y018075D02*
X006384Y018075D01*
X006326Y018172D02*
X006244Y018172D01*
X006244Y018269D02*
X006302Y018269D01*
X006303Y018366D02*
X006244Y018366D01*
X006244Y018463D02*
X006343Y018463D01*
X006427Y018560D02*
X006244Y018560D01*
X006244Y018657D02*
X012648Y018657D01*
X012555Y018560D02*
X007833Y018560D01*
X007916Y018463D02*
X012555Y018463D01*
X012596Y018366D02*
X007956Y018366D01*
X007957Y018269D02*
X012960Y018269D01*
X012905Y018214D02*
X013016Y018325D01*
X013173Y018325D01*
X013283Y018214D01*
X013283Y018058D01*
X013173Y017947D01*
X013016Y017947D01*
X012905Y018058D01*
X012905Y018214D01*
X012905Y018172D02*
X007933Y018172D01*
X007875Y018075D02*
X012905Y018075D01*
X012984Y017978D02*
X012219Y017978D01*
X012283Y017881D02*
X013272Y017881D01*
X013255Y017784D02*
X012283Y017784D01*
X012213Y017687D02*
X013275Y017687D01*
X013204Y017978D02*
X017121Y017978D01*
X017078Y018075D02*
X013283Y018075D01*
X013283Y018172D02*
X017078Y018172D01*
X017169Y018269D02*
X013229Y018269D01*
X012933Y018560D02*
X017669Y018560D01*
X017669Y018657D02*
X012841Y018657D01*
X012142Y018809D02*
X012142Y018966D01*
X012031Y019076D01*
X011874Y019076D01*
X011763Y018966D01*
X011763Y018809D01*
X011874Y018698D01*
X012031Y018698D01*
X012142Y018809D01*
X012142Y018851D02*
X019047Y018851D01*
X019047Y018948D02*
X012142Y018948D01*
X012062Y019045D02*
X019126Y019045D01*
X019101Y018754D02*
X017963Y018754D01*
X017752Y018754D02*
X012087Y018754D01*
X011818Y018754D02*
X007701Y018754D01*
X007863Y018851D02*
X008079Y018851D01*
X008134Y018796D02*
X008023Y018907D01*
X008023Y019064D01*
X008134Y019175D01*
X008291Y019175D01*
X008401Y019064D01*
X008401Y018907D01*
X008291Y018796D01*
X008134Y018796D01*
X008023Y018948D02*
X007928Y018948D01*
X007957Y019045D02*
X008023Y019045D01*
X007957Y019142D02*
X008101Y019142D01*
X008087Y019336D02*
X007844Y019336D01*
X007921Y019239D02*
X018259Y019239D01*
X018259Y019203D02*
X018370Y019092D01*
X018527Y019092D01*
X018638Y019203D01*
X018638Y019359D01*
X018527Y019470D01*
X018370Y019470D01*
X018259Y019359D01*
X018259Y019203D01*
X018320Y019142D02*
X008324Y019142D01*
X008401Y019045D02*
X011843Y019045D01*
X011763Y018948D02*
X008401Y018948D01*
X008345Y018851D02*
X011763Y018851D01*
X009998Y020209D02*
X019911Y020209D01*
X019834Y020306D02*
X010075Y020306D01*
X010075Y020403D02*
X019834Y020403D01*
X019892Y020499D02*
X011482Y020499D01*
X010848Y020499D02*
X010017Y020499D01*
X009754Y020499D02*
X007919Y020499D01*
X007957Y020596D02*
X010727Y020596D01*
X010630Y020693D02*
X007957Y020693D01*
X007930Y020790D02*
X010589Y020790D01*
X010549Y020887D02*
X007868Y020887D01*
X007840Y020403D02*
X009696Y020403D01*
X009419Y020015D02*
X028536Y020015D01*
X028536Y019918D02*
X028119Y019918D01*
X028074Y019962D02*
X027917Y019962D01*
X027807Y019851D01*
X027807Y019695D01*
X027917Y019584D01*
X028074Y019584D01*
X028185Y019695D01*
X028185Y019851D01*
X028074Y019962D01*
X028185Y019821D02*
X028536Y019821D01*
X028536Y019724D02*
X028185Y019724D01*
X028117Y019627D02*
X028536Y019627D01*
X028536Y019530D02*
X027693Y019530D01*
X027693Y019556D02*
X027624Y019625D01*
X027693Y019695D01*
X027693Y019851D01*
X027582Y019962D01*
X027425Y019962D01*
X027314Y019851D01*
X027314Y019695D01*
X027384Y019625D01*
X027314Y019556D01*
X027314Y019399D01*
X027425Y019289D01*
X027582Y019289D01*
X027693Y019399D01*
X027693Y019556D01*
X027625Y019627D02*
X027874Y019627D01*
X027807Y019724D02*
X027693Y019724D01*
X027693Y019821D02*
X027807Y019821D01*
X027873Y019918D02*
X027627Y019918D01*
X027381Y019918D02*
X009484Y019918D01*
X009484Y019821D02*
X026988Y019821D01*
X027032Y019864D02*
X026921Y019753D01*
X026921Y019596D01*
X027032Y019485D01*
X027188Y019485D01*
X027299Y019596D01*
X027299Y019753D01*
X027188Y019864D01*
X027032Y019864D01*
X026921Y019724D02*
X009415Y019724D01*
X008401Y019530D02*
X026987Y019530D01*
X026921Y019627D02*
X008331Y019627D01*
X008401Y019433D02*
X018333Y019433D01*
X018259Y019336D02*
X008338Y019336D01*
X008023Y019433D02*
X006244Y019433D01*
X006244Y019336D02*
X006415Y019336D01*
X006339Y019239D02*
X006244Y019239D01*
X006244Y019142D02*
X006302Y019142D01*
X006302Y019045D02*
X006244Y019045D01*
X006244Y018948D02*
X006331Y018948D01*
X006396Y018851D02*
X006244Y018851D01*
X006244Y018754D02*
X006558Y018754D01*
X006844Y021178D02*
X007415Y021178D01*
X007329Y021275D02*
X006930Y021275D01*
X006970Y021372D02*
X007289Y021372D01*
X007286Y021469D02*
X006973Y021469D01*
X006951Y021566D02*
X007308Y021566D01*
X007364Y021663D02*
X006895Y021663D01*
X006756Y021760D02*
X007503Y021760D01*
X007741Y021760D02*
X017473Y021760D01*
X017484Y021749D02*
X017629Y021749D01*
X017629Y021644D01*
X017740Y021533D01*
X017897Y021533D01*
X018008Y021644D01*
X018008Y021800D01*
X017897Y021911D01*
X017752Y021911D01*
X017752Y022017D01*
X017641Y022128D01*
X017484Y022128D01*
X017373Y022017D01*
X017373Y021860D01*
X017484Y021749D01*
X017376Y021857D02*
X006244Y021857D01*
X006244Y021760D02*
X006519Y021760D01*
X006380Y021663D02*
X006244Y021663D01*
X006244Y021566D02*
X006324Y021566D01*
X006302Y021469D02*
X006244Y021469D01*
X006244Y021372D02*
X006305Y021372D01*
X006345Y021275D02*
X006244Y021275D01*
X006244Y021954D02*
X017373Y021954D01*
X017408Y022051D02*
X006244Y022051D01*
X006244Y022148D02*
X019670Y022148D01*
X019637Y022115D02*
X019637Y021958D01*
X019748Y021848D01*
X019905Y021848D01*
X020016Y021958D01*
X020016Y022115D01*
X019905Y022226D01*
X019748Y022226D01*
X019637Y022115D01*
X019637Y022051D02*
X017718Y022051D01*
X017752Y021954D02*
X019642Y021954D01*
X019739Y021857D02*
X017951Y021857D01*
X018008Y021760D02*
X026993Y021760D01*
X027090Y021663D02*
X023154Y021663D01*
X023357Y021566D02*
X027187Y021566D01*
X027284Y021469D02*
X023454Y021469D01*
X023528Y021372D02*
X026079Y021372D01*
X026369Y021372D02*
X027381Y021372D01*
X027478Y021275D02*
X026413Y021275D01*
X026413Y021178D02*
X027575Y021178D01*
X027672Y021081D02*
X026324Y021081D01*
X026362Y020887D02*
X027866Y020887D01*
X027963Y020790D02*
X026413Y020790D01*
X026413Y020693D02*
X028060Y020693D01*
X028157Y020596D02*
X026331Y020596D01*
X026356Y020499D02*
X028254Y020499D01*
X028351Y020403D02*
X026413Y020403D01*
X026413Y020306D02*
X028447Y020306D01*
X028685Y019918D02*
X029131Y019918D01*
X029228Y019821D02*
X028685Y019821D01*
X028536Y019433D02*
X027693Y019433D01*
X027629Y019336D02*
X028536Y019336D01*
X028536Y019239D02*
X026766Y019239D01*
X026766Y019336D02*
X027378Y019336D01*
X027314Y019433D02*
X026676Y019433D01*
X026766Y019142D02*
X028536Y019142D01*
X028536Y019045D02*
X026766Y019045D01*
X026766Y018948D02*
X028536Y018948D01*
X028536Y018851D02*
X026766Y018851D01*
X026766Y018754D02*
X028536Y018754D01*
X028536Y018657D02*
X027115Y018657D01*
X027090Y018683D02*
X026933Y018683D01*
X026822Y018572D01*
X026822Y018415D01*
X026933Y018304D01*
X027090Y018304D01*
X027201Y018415D01*
X027201Y018572D01*
X027090Y018683D01*
X027201Y018560D02*
X028536Y018560D01*
X028536Y018463D02*
X027201Y018463D01*
X027152Y018366D02*
X028536Y018366D01*
X028536Y018269D02*
X026766Y018269D01*
X026766Y018172D02*
X028536Y018172D01*
X029234Y017881D02*
X024403Y017881D01*
X024445Y017978D02*
X029329Y017978D01*
X029612Y017784D02*
X030464Y017784D01*
X030367Y017687D02*
X029573Y017687D01*
X029294Y017009D02*
X024445Y017009D01*
X024418Y016912D02*
X029197Y016912D01*
X028271Y015189D02*
X028114Y015189D01*
X028003Y015078D01*
X028003Y014921D01*
X028114Y014810D01*
X028271Y014810D01*
X028382Y014921D01*
X028382Y015078D01*
X028271Y015189D01*
X028293Y015166D02*
X030159Y015166D01*
X030181Y015189D02*
X030070Y015078D01*
X030070Y014921D01*
X030181Y014810D01*
X030338Y014810D01*
X030449Y014921D01*
X030449Y015078D01*
X030338Y015189D01*
X030181Y015189D01*
X030070Y015069D02*
X029867Y015069D01*
X029846Y015090D02*
X029957Y014979D01*
X029957Y014823D01*
X029846Y014712D01*
X029689Y014712D01*
X029578Y014823D01*
X029578Y014979D01*
X029689Y015090D01*
X029846Y015090D01*
X029957Y014972D02*
X030070Y014972D01*
X030116Y014875D02*
X029957Y014875D01*
X029912Y014778D02*
X032917Y014778D01*
X032917Y014681D02*
X017097Y014681D01*
X017000Y014584D02*
X032917Y014584D01*
X032917Y014487D02*
X029612Y014487D01*
X029661Y014438D02*
X029550Y014549D01*
X029394Y014549D01*
X029283Y014438D01*
X029283Y014281D01*
X029394Y014170D01*
X029550Y014170D01*
X029661Y014281D01*
X029661Y014438D01*
X029661Y014390D02*
X032917Y014390D01*
X032917Y014294D02*
X029661Y014294D01*
X029577Y014197D02*
X032917Y014197D01*
X032917Y014100D02*
X019622Y014100D01*
X019622Y014003D02*
X032917Y014003D01*
X032917Y013906D02*
X019542Y013906D01*
X019568Y014197D02*
X029368Y014197D01*
X029283Y014294D02*
X016709Y014294D01*
X016806Y014390D02*
X029283Y014390D01*
X029332Y014487D02*
X016903Y014487D01*
X017194Y014778D02*
X029622Y014778D01*
X029578Y014875D02*
X028336Y014875D01*
X028382Y014972D02*
X029578Y014972D01*
X029668Y015069D02*
X028382Y015069D01*
X028092Y015166D02*
X027408Y015166D01*
X027385Y015189D02*
X027228Y015189D01*
X027118Y015078D01*
X027118Y015072D01*
X027011Y015179D01*
X026854Y015179D01*
X026775Y015100D01*
X026696Y015179D01*
X026539Y015179D01*
X026429Y015068D01*
X026429Y014911D01*
X026539Y014800D01*
X026696Y014800D01*
X026775Y014880D01*
X026854Y014800D01*
X027011Y014800D01*
X027122Y014911D01*
X027122Y014917D01*
X027228Y014810D01*
X027385Y014810D01*
X027496Y014921D01*
X027496Y015078D01*
X027385Y015189D01*
X027496Y015069D02*
X028003Y015069D01*
X028003Y014972D02*
X027496Y014972D01*
X027450Y014875D02*
X028049Y014875D01*
X027163Y014875D02*
X027086Y014875D01*
X027024Y015166D02*
X027206Y015166D01*
X026842Y015166D02*
X026709Y015166D01*
X026527Y015166D02*
X026128Y015166D01*
X026167Y015127D02*
X026056Y015238D01*
X025900Y015238D01*
X025789Y015127D01*
X025789Y014970D01*
X025900Y014859D01*
X026056Y014859D01*
X026167Y014970D01*
X026167Y015127D01*
X026167Y015069D02*
X026430Y015069D01*
X026429Y014972D02*
X026167Y014972D01*
X026072Y014875D02*
X026464Y014875D01*
X026771Y014875D02*
X026779Y014875D01*
X025884Y014875D02*
X017291Y014875D01*
X017388Y014972D02*
X025789Y014972D01*
X025789Y015069D02*
X017485Y015069D01*
X017582Y015166D02*
X025828Y015166D01*
X024432Y015942D02*
X032917Y015942D01*
X032917Y016039D02*
X024445Y016039D01*
X024335Y015845D02*
X031674Y015845D01*
X031645Y015816D02*
X031645Y015659D01*
X031756Y015548D01*
X031913Y015548D01*
X032024Y015659D01*
X032024Y015816D01*
X031913Y015927D01*
X031756Y015927D01*
X031645Y015816D01*
X031645Y015748D02*
X021265Y015748D01*
X021295Y015651D02*
X031653Y015651D01*
X031750Y015554D02*
X021288Y015554D01*
X021191Y015457D02*
X032917Y015457D01*
X032917Y015554D02*
X031918Y015554D01*
X032015Y015651D02*
X032917Y015651D01*
X032917Y015748D02*
X032024Y015748D01*
X031994Y015845D02*
X032917Y015845D01*
X032917Y016330D02*
X019631Y016330D01*
X019728Y016427D02*
X023102Y016427D01*
X023082Y016447D02*
X023193Y016336D01*
X023350Y016336D01*
X023461Y016447D01*
X023461Y016603D01*
X023350Y016714D01*
X023193Y016714D01*
X023082Y016603D01*
X023082Y016447D01*
X023082Y016524D02*
X019825Y016524D01*
X019922Y016621D02*
X023099Y016621D01*
X023193Y016828D02*
X023082Y016939D01*
X023082Y017096D01*
X023193Y017206D01*
X023350Y017206D01*
X023461Y017096D01*
X023461Y016939D01*
X023350Y016828D01*
X023193Y016828D01*
X023109Y016912D02*
X021268Y016912D01*
X021295Y017009D02*
X023082Y017009D01*
X023092Y017106D02*
X021285Y017106D01*
X021188Y017203D02*
X023189Y017203D01*
X023353Y017203D02*
X024173Y017203D01*
X024076Y017106D02*
X023450Y017106D01*
X023461Y017009D02*
X024066Y017009D01*
X024094Y016912D02*
X023433Y016912D01*
X023443Y016621D02*
X024084Y016621D01*
X024066Y016524D02*
X023461Y016524D01*
X023441Y016427D02*
X024086Y016427D01*
X024091Y016136D02*
X023436Y016136D01*
X023461Y016039D02*
X024066Y016039D01*
X024079Y015942D02*
X023448Y015942D01*
X023351Y015845D02*
X024176Y015845D01*
X024101Y017396D02*
X023426Y017396D01*
X023461Y017493D02*
X024066Y017493D01*
X024069Y017590D02*
X023458Y017590D01*
X023361Y017687D02*
X024166Y017687D01*
X024108Y017881D02*
X023419Y017881D01*
X023461Y017978D02*
X024066Y017978D01*
X024066Y018075D02*
X023461Y018075D01*
X023085Y017590D02*
X020892Y017590D01*
X020795Y017493D02*
X023082Y017493D01*
X023117Y017396D02*
X020698Y017396D01*
X020585Y017493D02*
X018503Y017493D01*
X018539Y017590D02*
X020682Y017590D01*
X020779Y017687D02*
X018538Y017687D01*
X018441Y017784D02*
X020876Y017784D01*
X021571Y018269D02*
X026476Y018269D01*
X026429Y018366D02*
X024396Y018366D01*
X024445Y018463D02*
X026429Y018463D01*
X026515Y018560D02*
X024445Y018560D01*
X024352Y018172D02*
X026618Y018172D01*
X026618Y018075D02*
X024445Y018075D01*
X022524Y019433D02*
X018564Y019433D01*
X018638Y019336D02*
X022427Y019336D01*
X022330Y019239D02*
X018638Y019239D01*
X018577Y019142D02*
X022233Y019142D01*
X023511Y020693D02*
X026035Y020693D01*
X026035Y020790D02*
X023552Y020790D01*
X023592Y020887D02*
X026087Y020887D01*
X026125Y021081D02*
X023608Y021081D01*
X023608Y020984D02*
X027769Y020984D01*
X026896Y021857D02*
X019914Y021857D01*
X020011Y021954D02*
X026799Y021954D01*
X026702Y022051D02*
X020016Y022051D01*
X019983Y022148D02*
X026605Y022148D01*
X026508Y022245D02*
X006244Y022245D01*
X006244Y022342D02*
X026411Y022342D01*
X026314Y022439D02*
X006244Y022439D01*
X006244Y022536D02*
X026217Y022536D01*
X026120Y022633D02*
X006244Y022633D01*
X006244Y022730D02*
X026023Y022730D01*
X029078Y022730D02*
X030290Y022730D01*
X030193Y022633D02*
X029078Y022633D01*
X029078Y022536D02*
X030143Y022536D01*
X030104Y022439D02*
X029078Y022439D01*
X029078Y022342D02*
X030104Y022342D01*
X030108Y022245D02*
X029078Y022245D01*
X029078Y022148D02*
X030148Y022148D01*
X030205Y022051D02*
X029078Y022051D01*
X029078Y021954D02*
X030302Y021954D01*
X030855Y021954D02*
X041806Y021954D01*
X041826Y021934D02*
X041692Y022067D01*
X041620Y022242D01*
X041620Y022430D01*
X041692Y022605D01*
X041826Y022738D01*
X042000Y022810D01*
X042189Y022810D01*
X042363Y022738D01*
X042496Y022605D01*
X042568Y022430D01*
X042568Y022242D01*
X042496Y022067D01*
X042363Y021934D01*
X042189Y021862D01*
X042000Y021862D01*
X041826Y021934D01*
X041709Y022051D02*
X030952Y022051D01*
X031009Y022148D02*
X041659Y022148D01*
X041620Y022245D02*
X031049Y022245D01*
X031053Y022342D02*
X036281Y022342D01*
X036284Y022340D02*
X036440Y022340D01*
X036551Y022451D01*
X036551Y022607D01*
X036440Y022718D01*
X036284Y022718D01*
X036173Y022607D01*
X036173Y022451D01*
X036284Y022340D01*
X036184Y022439D02*
X031053Y022439D01*
X031014Y022536D02*
X036173Y022536D01*
X036198Y022633D02*
X030964Y022633D01*
X030867Y022730D02*
X041817Y022730D01*
X041720Y022633D02*
X036526Y022633D01*
X036551Y022536D02*
X041664Y022536D01*
X041624Y022439D02*
X036539Y022439D01*
X036442Y022342D02*
X041620Y022342D01*
X042371Y022730D02*
X045187Y022730D01*
X045217Y022633D02*
X042468Y022633D01*
X042525Y022536D02*
X045218Y022536D01*
X045218Y022439D02*
X042565Y022439D01*
X042568Y022342D02*
X045218Y022342D01*
X045218Y022245D02*
X042568Y022245D01*
X042529Y022148D02*
X045218Y022148D01*
X045218Y022051D02*
X042480Y022051D01*
X042383Y021954D02*
X045218Y021954D01*
X045218Y021857D02*
X029078Y021857D01*
X029078Y021760D02*
X045218Y021760D01*
X045218Y021663D02*
X029078Y021663D01*
X029078Y021566D02*
X045218Y021566D01*
X045218Y021469D02*
X029078Y021469D01*
X029078Y021372D02*
X045218Y021372D01*
X045218Y021275D02*
X029078Y021275D01*
X029078Y021178D02*
X031102Y021178D01*
X031055Y021131D02*
X031055Y020974D01*
X031165Y020863D01*
X031322Y020863D01*
X031433Y020974D01*
X031433Y021131D01*
X031322Y021242D01*
X031165Y021242D01*
X031055Y021131D01*
X031055Y021081D02*
X029078Y021081D01*
X029078Y020984D02*
X031055Y020984D01*
X031141Y020887D02*
X029078Y020887D01*
X029078Y020790D02*
X035287Y020790D01*
X035287Y020777D02*
X035331Y020733D01*
X035287Y020689D01*
X035287Y020532D01*
X035398Y020421D01*
X035554Y020421D01*
X035665Y020532D01*
X035665Y020689D01*
X035621Y020733D01*
X035665Y020777D01*
X035665Y020934D01*
X035554Y021045D01*
X035398Y021045D01*
X035287Y020934D01*
X035287Y020777D01*
X035291Y020693D02*
X029078Y020693D01*
X029078Y020596D02*
X035287Y020596D01*
X035319Y020499D02*
X029078Y020499D01*
X029320Y020403D02*
X036074Y020403D01*
X036074Y020442D02*
X036074Y020285D01*
X036144Y020216D01*
X036074Y020147D01*
X036074Y019990D01*
X036185Y019879D01*
X036342Y019879D01*
X036453Y019990D01*
X036453Y020147D01*
X036383Y020216D01*
X036453Y020285D01*
X036453Y020442D01*
X036383Y020511D01*
X036453Y020581D01*
X036453Y020737D01*
X036342Y020848D01*
X036185Y020848D01*
X036074Y020737D01*
X036074Y020581D01*
X036144Y020511D01*
X036074Y020442D01*
X036132Y020499D02*
X035633Y020499D01*
X035665Y020596D02*
X036074Y020596D01*
X036074Y020693D02*
X035661Y020693D01*
X035665Y020790D02*
X036127Y020790D01*
X036399Y020790D02*
X040110Y020790D01*
X040110Y020777D02*
X040221Y020667D01*
X040377Y020667D01*
X040488Y020777D01*
X040488Y020934D01*
X040377Y021045D01*
X040221Y021045D01*
X040110Y020934D01*
X040110Y020777D01*
X040110Y020887D02*
X035665Y020887D01*
X035615Y020984D02*
X040160Y020984D01*
X040438Y020984D02*
X040947Y020984D01*
X040897Y020934D02*
X040897Y020777D01*
X041008Y020667D01*
X041165Y020667D01*
X041275Y020777D01*
X041275Y020934D01*
X041165Y021045D01*
X041008Y021045D01*
X040897Y020934D01*
X040897Y020887D02*
X040488Y020887D01*
X040488Y020790D02*
X040897Y020790D01*
X040981Y020693D02*
X040404Y020693D01*
X040194Y020693D02*
X036453Y020693D01*
X036453Y020596D02*
X045218Y020596D01*
X045218Y020499D02*
X036395Y020499D01*
X036453Y020403D02*
X045218Y020403D01*
X045218Y020306D02*
X036453Y020306D01*
X036391Y020209D02*
X045218Y020209D01*
X045218Y020112D02*
X036453Y020112D01*
X036453Y020015D02*
X038895Y020015D01*
X038830Y019918D02*
X036380Y019918D01*
X036147Y019918D02*
X029827Y019918D01*
X029730Y020015D02*
X036074Y020015D01*
X036074Y020112D02*
X029633Y020112D01*
X029536Y020209D02*
X036136Y020209D01*
X036074Y020306D02*
X029439Y020306D01*
X031151Y019336D02*
X032704Y019336D01*
X032740Y019372D02*
X032629Y019261D01*
X032629Y019104D01*
X032740Y018993D01*
X032897Y018993D01*
X033008Y019104D01*
X033008Y019261D01*
X032897Y019372D01*
X032740Y019372D01*
X032629Y019239D02*
X031293Y019239D01*
X031390Y019142D02*
X032629Y019142D01*
X032689Y019045D02*
X031487Y019045D01*
X031584Y018948D02*
X033515Y018948D01*
X033595Y019045D02*
X032949Y019045D01*
X033008Y019142D02*
X034303Y019142D01*
X034303Y019239D02*
X033008Y019239D01*
X032933Y019336D02*
X034378Y019336D01*
X034466Y019433D02*
X033041Y019433D01*
X033106Y019530D02*
X034401Y019530D01*
X034401Y019627D02*
X033106Y019627D01*
X033037Y019724D02*
X034470Y019724D01*
X034362Y019045D02*
X033814Y019045D01*
X033515Y018560D02*
X033498Y018560D01*
X033566Y018463D02*
X032069Y018463D01*
X032165Y018366D02*
X040396Y018366D01*
X040417Y018387D02*
X040307Y018277D01*
X040307Y018120D01*
X040417Y018009D01*
X040574Y018009D01*
X040685Y018120D01*
X040685Y018277D01*
X040574Y018387D01*
X040417Y018387D01*
X040307Y018269D02*
X032262Y018269D01*
X032359Y018172D02*
X040307Y018172D01*
X040351Y018075D02*
X032456Y018075D01*
X031972Y018560D02*
X033320Y018560D01*
X033223Y018657D02*
X031875Y018657D01*
X031778Y018754D02*
X033220Y018754D01*
X033254Y018851D02*
X031681Y018851D01*
X031346Y020887D02*
X035287Y020887D01*
X035337Y020984D02*
X031433Y020984D01*
X031433Y021081D02*
X045218Y021081D01*
X045218Y020984D02*
X041225Y020984D01*
X041275Y020887D02*
X045218Y020887D01*
X045218Y020790D02*
X041275Y020790D01*
X041192Y020693D02*
X045218Y020693D01*
X045218Y021178D02*
X031386Y021178D01*
X027314Y019821D02*
X027231Y019821D01*
X027299Y019724D02*
X027314Y019724D01*
X027299Y019627D02*
X027382Y019627D01*
X027314Y019530D02*
X027233Y019530D01*
X026907Y018657D02*
X026766Y018657D01*
X026766Y018560D02*
X026822Y018560D01*
X026822Y018463D02*
X026807Y018463D01*
X026807Y018366D02*
X026871Y018366D01*
X022384Y021275D02*
X016901Y021275D01*
X016983Y021372D02*
X022424Y021372D01*
X022498Y021469D02*
X016983Y021469D01*
X016932Y021566D02*
X017707Y021566D01*
X017629Y021663D02*
X011343Y021663D01*
X011546Y021566D02*
X016657Y021566D01*
X017930Y021566D02*
X022595Y021566D01*
X022798Y021663D02*
X018008Y021663D01*
X018259Y017784D02*
X016965Y017784D01*
X017062Y017687D02*
X018162Y017687D01*
X018244Y017300D02*
X018490Y017300D01*
X018405Y017203D02*
X018212Y017203D01*
X018225Y016815D02*
X014686Y016815D01*
X014701Y016718D02*
X018161Y016718D01*
X018161Y016621D02*
X014678Y016621D01*
X016239Y015360D02*
X017566Y015360D01*
X017469Y015263D02*
X016275Y015263D01*
X016275Y015166D02*
X017372Y015166D01*
X017275Y015069D02*
X016178Y015069D01*
X018775Y013809D02*
X031506Y013809D01*
X031276Y013712D02*
X018835Y013712D01*
X018073Y011094D02*
X023281Y011094D01*
X023184Y010997D02*
X018170Y010997D01*
X018135Y010512D02*
X018891Y010512D01*
X018891Y010609D02*
X016365Y010609D01*
X016374Y010512D02*
X017975Y010512D01*
X017878Y010415D02*
X016346Y010415D01*
X016167Y009639D02*
X014635Y009639D01*
X014289Y009639D02*
X012634Y009639D01*
X012631Y009736D02*
X014273Y009736D01*
X014232Y009542D02*
X016143Y009542D01*
X016157Y009445D02*
X014307Y009445D01*
X014307Y009348D02*
X016254Y009348D01*
X017374Y009348D02*
X023192Y009348D01*
X023200Y009833D02*
X019039Y009833D01*
X018891Y010221D02*
X018219Y010221D01*
X018244Y010318D02*
X018891Y010318D01*
X018891Y010415D02*
X018232Y010415D01*
X019039Y010415D02*
X019145Y010415D01*
X019145Y010344D02*
X019256Y010233D01*
X019413Y010233D01*
X019524Y010344D01*
X019524Y010501D01*
X019413Y010612D01*
X019256Y010612D01*
X019145Y010501D01*
X019145Y010344D01*
X019172Y010318D02*
X019039Y010318D01*
X019039Y010512D02*
X019156Y010512D01*
X019253Y010609D02*
X019039Y010609D01*
X019416Y010609D02*
X023288Y010609D01*
X023191Y010512D02*
X019513Y010512D01*
X019524Y010415D02*
X023181Y010415D01*
X023207Y010318D02*
X019497Y010318D01*
X016980Y008378D02*
X016967Y008378D01*
X016780Y008378D02*
X016413Y008378D01*
X016501Y008475D02*
X016684Y008475D01*
X016684Y008572D02*
X016598Y008572D01*
X016250Y007700D02*
X017820Y007700D01*
X017747Y007603D02*
X017541Y007603D01*
X017485Y007659D02*
X017613Y007531D01*
X017613Y007351D01*
X017485Y007223D01*
X017304Y007223D01*
X017177Y007351D01*
X017177Y007531D01*
X017304Y007659D01*
X017485Y007659D01*
X017613Y007506D02*
X017747Y007506D01*
X017809Y007409D02*
X017613Y007409D01*
X017574Y007312D02*
X017897Y007312D01*
X017800Y007215D02*
X016735Y007215D01*
X016638Y007312D02*
X017216Y007312D01*
X017177Y007409D02*
X016541Y007409D01*
X016499Y007506D02*
X017177Y007506D01*
X017248Y007603D02*
X016428Y007603D01*
X016234Y007506D02*
X007863Y007506D01*
X007906Y007463D02*
X007812Y007557D01*
X007688Y007608D01*
X007555Y007608D01*
X007432Y007557D01*
X007337Y007463D01*
X007286Y007340D01*
X007286Y007206D01*
X007337Y007083D01*
X007432Y006989D01*
X007555Y006938D01*
X007688Y006938D01*
X007812Y006989D01*
X007906Y007083D01*
X007957Y007206D01*
X007957Y007340D01*
X007906Y007463D01*
X007929Y007409D02*
X016331Y007409D01*
X016428Y007312D02*
X007957Y007312D01*
X007957Y007215D02*
X016525Y007215D01*
X016622Y007118D02*
X007920Y007118D01*
X007844Y007021D02*
X016719Y007021D01*
X016816Y006924D02*
X006802Y006924D01*
X006930Y007021D02*
X007400Y007021D01*
X007323Y007118D02*
X006990Y007118D01*
X007019Y007215D02*
X007286Y007215D01*
X007286Y007312D02*
X007023Y007312D01*
X006998Y007409D02*
X007315Y007409D01*
X007380Y007506D02*
X006946Y007506D01*
X006838Y007603D02*
X007541Y007603D01*
X007702Y007603D02*
X016137Y007603D01*
X016832Y007118D02*
X017703Y007118D01*
X017606Y007021D02*
X017010Y007021D01*
X017056Y006924D02*
X017509Y006924D01*
X017412Y006827D02*
X017123Y006827D01*
X017220Y006730D02*
X017315Y006730D01*
X017428Y006633D02*
X020355Y006633D01*
X020258Y006730D02*
X017525Y006730D01*
X017622Y006827D02*
X020161Y006827D01*
X020064Y006924D02*
X017719Y006924D01*
X017816Y007021D02*
X019967Y007021D01*
X019870Y007118D02*
X017913Y007118D01*
X018010Y007215D02*
X018042Y007215D01*
X018382Y007215D02*
X019773Y007215D01*
X019676Y007312D02*
X018401Y007312D01*
X018384Y007409D02*
X019579Y007409D01*
X019482Y007506D02*
X018300Y007506D01*
X018188Y007603D02*
X018126Y007603D01*
X018053Y007700D02*
X026514Y007700D01*
X026721Y007700D02*
X027056Y007700D01*
X026970Y007797D02*
X026807Y007797D01*
X026807Y007894D02*
X026970Y007894D01*
X027019Y007991D02*
X026758Y007991D01*
X026082Y008088D02*
X024944Y008088D01*
X025035Y008184D02*
X031761Y008184D01*
X031665Y008088D02*
X028385Y008088D01*
X028480Y007991D02*
X031568Y007991D01*
X031858Y008281D02*
X025035Y008281D01*
X024993Y008378D02*
X031955Y008378D01*
X033777Y007700D02*
X040392Y007700D01*
X040599Y007700D02*
X045187Y007700D01*
X045217Y007603D02*
X033874Y007603D01*
X033971Y007506D02*
X037606Y007506D01*
X037661Y007561D02*
X037551Y007450D01*
X037551Y007293D01*
X037661Y007182D01*
X037818Y007182D01*
X037929Y007293D01*
X037929Y007450D01*
X037818Y007561D01*
X037661Y007561D01*
X037551Y007409D02*
X034068Y007409D01*
X034165Y007312D02*
X037551Y007312D01*
X037629Y007215D02*
X035605Y007215D01*
X035554Y007265D02*
X035398Y007265D01*
X035287Y007155D01*
X035287Y006998D01*
X035398Y006887D01*
X035554Y006887D01*
X035665Y006998D01*
X035665Y007155D01*
X035554Y007265D01*
X035665Y007118D02*
X041192Y007118D01*
X041192Y007096D02*
X041192Y007253D01*
X041303Y007364D01*
X041460Y007364D01*
X041571Y007253D01*
X041571Y007096D01*
X041460Y006985D01*
X041303Y006985D01*
X041192Y007096D01*
X041268Y007021D02*
X035665Y007021D01*
X035591Y006924D02*
X041783Y006924D01*
X041783Y006899D02*
X041894Y006789D01*
X042050Y006789D01*
X042071Y006809D01*
X042091Y006789D01*
X042247Y006789D01*
X042358Y006899D01*
X042358Y007056D01*
X042247Y007167D01*
X042091Y007167D01*
X042071Y007147D01*
X042050Y007167D01*
X041894Y007167D01*
X041783Y007056D01*
X041783Y006899D01*
X041855Y006827D02*
X034650Y006827D01*
X034727Y006730D02*
X045218Y006730D01*
X045218Y006827D02*
X042286Y006827D01*
X042358Y006924D02*
X045218Y006924D01*
X045218Y007021D02*
X042358Y007021D01*
X042296Y007118D02*
X045218Y007118D01*
X045218Y007215D02*
X041571Y007215D01*
X041571Y007118D02*
X041845Y007118D01*
X041783Y007021D02*
X041495Y007021D01*
X041512Y007312D02*
X045218Y007312D01*
X045218Y007409D02*
X037929Y007409D01*
X037929Y007312D02*
X041251Y007312D01*
X041192Y007215D02*
X037851Y007215D01*
X037873Y007506D02*
X045218Y007506D01*
X045048Y007797D02*
X040685Y007797D01*
X040685Y007894D02*
X044806Y007894D01*
X045019Y007808D02*
X045019Y007808D01*
X045218Y006633D02*
X034767Y006633D01*
X034787Y006536D02*
X045218Y006536D01*
X045218Y006439D02*
X034787Y006439D01*
X034786Y006342D02*
X045218Y006342D01*
X045218Y006245D02*
X034786Y006245D01*
X034785Y006148D02*
X045218Y006148D01*
X045218Y006051D02*
X036867Y006051D01*
X036834Y006084D02*
X036677Y006084D01*
X036566Y005973D01*
X036566Y005817D01*
X036677Y005706D01*
X036834Y005706D01*
X036945Y005817D01*
X036945Y005973D01*
X036834Y006084D01*
X036945Y005954D02*
X045218Y005954D01*
X045218Y005857D02*
X036945Y005857D01*
X036888Y005760D02*
X045218Y005760D01*
X045218Y005663D02*
X034782Y005663D01*
X034781Y005566D02*
X045218Y005566D01*
X045218Y005469D02*
X034781Y005469D01*
X034780Y005372D02*
X035276Y005372D01*
X035299Y005395D02*
X035188Y005284D01*
X035188Y005128D01*
X035299Y005017D01*
X035456Y005017D01*
X035567Y005128D01*
X035567Y005284D01*
X035456Y005395D01*
X035299Y005395D01*
X035188Y005275D02*
X034779Y005275D01*
X034779Y005178D02*
X035188Y005178D01*
X035235Y005081D02*
X034778Y005081D01*
X034778Y004985D02*
X038136Y004985D01*
X038154Y005002D02*
X038043Y004891D01*
X038043Y004734D01*
X038154Y004623D01*
X038310Y004623D01*
X038380Y004693D01*
X038449Y004623D01*
X038606Y004623D01*
X038716Y004734D01*
X038716Y004891D01*
X038606Y005002D01*
X038449Y005002D01*
X038380Y004932D01*
X038310Y005002D01*
X038154Y005002D01*
X038043Y004888D02*
X034777Y004888D01*
X034776Y004791D02*
X038043Y004791D01*
X038083Y004694D02*
X034776Y004694D01*
X034775Y004597D02*
X045218Y004597D01*
X045218Y004694D02*
X038676Y004694D01*
X038716Y004791D02*
X045218Y004791D01*
X045218Y004888D02*
X038716Y004888D01*
X038623Y004985D02*
X045218Y004985D01*
X045218Y005081D02*
X041623Y005081D01*
X041669Y005128D02*
X041558Y005017D01*
X041402Y005017D01*
X041291Y005128D01*
X041291Y005284D01*
X041402Y005395D01*
X041558Y005395D01*
X041669Y005284D01*
X041669Y005128D01*
X041669Y005178D02*
X045218Y005178D01*
X045218Y005275D02*
X041669Y005275D01*
X041581Y005372D02*
X045218Y005372D01*
X045218Y004500D02*
X034775Y004500D01*
X034774Y004403D02*
X039982Y004403D01*
X039803Y004306D02*
X034773Y004306D01*
X034773Y004209D02*
X039707Y004209D01*
X039667Y004112D02*
X034772Y004112D01*
X034772Y004015D02*
X039636Y004015D01*
X039636Y003918D02*
X038607Y003918D01*
X038606Y003919D02*
X038449Y003919D01*
X038380Y003850D01*
X038310Y003919D01*
X038154Y003919D01*
X038043Y003808D01*
X038043Y003651D01*
X038154Y003541D01*
X038310Y003541D01*
X038380Y003610D01*
X038449Y003541D01*
X038606Y003541D01*
X038716Y003651D01*
X038716Y003808D01*
X038606Y003919D01*
X038704Y003821D02*
X039647Y003821D01*
X039687Y003724D02*
X038716Y003724D01*
X038692Y003627D02*
X039755Y003627D01*
X040465Y003627D02*
X045187Y003627D01*
X045217Y003724D02*
X040533Y003724D01*
X040573Y003821D02*
X045218Y003821D01*
X045218Y003918D02*
X040584Y003918D01*
X040584Y004015D02*
X045218Y004015D01*
X045218Y004112D02*
X040553Y004112D01*
X040513Y004209D02*
X045218Y004209D01*
X045218Y004306D02*
X040417Y004306D01*
X040238Y004403D02*
X045218Y004403D01*
X041337Y005081D02*
X039458Y005081D01*
X039504Y005128D02*
X039393Y005017D01*
X039236Y005017D01*
X039125Y005128D01*
X039125Y005284D01*
X039236Y005395D01*
X039393Y005395D01*
X039504Y005284D01*
X039504Y005128D01*
X039504Y005178D02*
X041291Y005178D01*
X041291Y005275D02*
X039504Y005275D01*
X039416Y005372D02*
X041379Y005372D01*
X039213Y005372D02*
X035479Y005372D01*
X035567Y005275D02*
X039125Y005275D01*
X039125Y005178D02*
X035567Y005178D01*
X035521Y005081D02*
X039172Y005081D01*
X038432Y004985D02*
X038327Y004985D01*
X036623Y005760D02*
X034782Y005760D01*
X034783Y005857D02*
X036566Y005857D01*
X036566Y005954D02*
X034784Y005954D01*
X034784Y006051D02*
X036644Y006051D01*
X035361Y006924D02*
X034553Y006924D01*
X034456Y007021D02*
X035287Y007021D01*
X035287Y007118D02*
X034359Y007118D01*
X034262Y007215D02*
X035347Y007215D01*
X034245Y006536D02*
X033598Y006536D01*
X033598Y006506D02*
X033487Y006395D01*
X033331Y006395D01*
X033220Y006506D01*
X033220Y006662D01*
X033331Y006773D01*
X033487Y006773D01*
X033598Y006662D01*
X033598Y006506D01*
X033532Y006439D02*
X034295Y006439D01*
X034294Y006342D02*
X032122Y006342D01*
X032122Y006245D02*
X034293Y006245D01*
X034293Y006148D02*
X032060Y006148D01*
X032050Y006439D02*
X033287Y006439D01*
X033220Y006536D02*
X030646Y006536D01*
X030646Y006439D02*
X031815Y006439D01*
X031744Y006342D02*
X030580Y006342D01*
X030577Y006633D02*
X033220Y006633D01*
X033287Y006730D02*
X032051Y006730D01*
X032122Y006827D02*
X033954Y006827D01*
X034051Y006730D02*
X033531Y006730D01*
X033598Y006633D02*
X034148Y006633D01*
X033857Y006924D02*
X032122Y006924D01*
X032059Y007021D02*
X033760Y007021D01*
X031724Y005954D02*
X028954Y005954D01*
X028857Y005857D02*
X031645Y005857D01*
X031645Y005760D02*
X028890Y005760D01*
X028972Y005663D02*
X031700Y005663D01*
X031645Y005178D02*
X030456Y005178D01*
X030547Y005081D02*
X031645Y005081D01*
X029132Y006342D02*
X025946Y006342D01*
X026020Y006245D02*
X029035Y006245D01*
X028465Y006536D02*
X025361Y006536D01*
X025318Y006493D02*
X025429Y006604D01*
X025429Y006761D01*
X025318Y006872D01*
X025161Y006872D01*
X025051Y006761D01*
X025051Y006604D01*
X025161Y006493D01*
X025318Y006493D01*
X025429Y006633D02*
X027778Y006633D01*
X027819Y006592D02*
X027708Y006703D01*
X027708Y006859D01*
X027819Y006970D01*
X027976Y006970D01*
X028086Y006859D01*
X028086Y006703D01*
X027976Y006592D01*
X027819Y006592D01*
X027708Y006730D02*
X027130Y006730D01*
X027090Y006690D02*
X027201Y006801D01*
X027201Y006958D01*
X027090Y007069D01*
X026933Y007069D01*
X026905Y007041D01*
X026905Y007056D01*
X026795Y007167D01*
X026638Y007167D01*
X026527Y007056D01*
X026527Y006899D01*
X026638Y006789D01*
X026795Y006789D01*
X026822Y006816D01*
X026822Y006801D01*
X026933Y006690D01*
X027090Y006690D01*
X027201Y006827D02*
X027708Y006827D01*
X027773Y006924D02*
X027201Y006924D01*
X027138Y007021D02*
X028263Y007021D01*
X028200Y006924D02*
X028022Y006924D01*
X028086Y006827D02*
X028200Y006827D01*
X028271Y006730D02*
X028086Y006730D01*
X028017Y006633D02*
X028397Y006633D01*
X028579Y006924D02*
X030501Y006924D01*
X030598Y007021D02*
X028515Y007021D01*
X029332Y007312D02*
X019886Y007312D01*
X019789Y007409D02*
X029332Y007409D01*
X029388Y007506D02*
X019692Y007506D01*
X019595Y007603D02*
X029269Y007603D01*
X029410Y007215D02*
X019983Y007215D01*
X020080Y007118D02*
X026589Y007118D01*
X026527Y007021D02*
X020177Y007021D01*
X020274Y006924D02*
X026527Y006924D01*
X026599Y006827D02*
X025363Y006827D01*
X025429Y006730D02*
X026893Y006730D01*
X026844Y007118D02*
X030695Y007118D01*
X028594Y005566D02*
X028566Y005566D01*
X028646Y005469D02*
X028469Y005469D01*
X026035Y005857D02*
X025152Y005857D01*
X025179Y005566D02*
X025825Y005566D01*
X025119Y006536D02*
X020662Y006536D01*
X020565Y006633D02*
X025051Y006633D01*
X025051Y006730D02*
X020468Y006730D01*
X020371Y006827D02*
X025117Y006827D01*
X024748Y008088D02*
X024649Y008088D01*
X024697Y008378D02*
X024700Y008378D01*
X020743Y006245D02*
X019312Y006245D01*
X019265Y006198D02*
X019376Y006309D01*
X019376Y006466D01*
X019265Y006576D01*
X019108Y006576D01*
X018997Y006466D01*
X018997Y006309D01*
X019108Y006198D01*
X019265Y006198D01*
X019376Y006342D02*
X020646Y006342D01*
X020549Y006439D02*
X019376Y006439D01*
X019305Y006536D02*
X020452Y006536D01*
X020840Y006148D02*
X009878Y006148D01*
X009878Y006112D02*
X009767Y006001D01*
X009610Y006001D01*
X009499Y006112D01*
X009499Y006269D01*
X009610Y006380D01*
X009767Y006380D01*
X009878Y006269D01*
X009878Y006112D01*
X009817Y006051D02*
X017648Y006051D01*
X017681Y006084D02*
X017570Y005973D01*
X017570Y005817D01*
X017681Y005706D01*
X017838Y005706D01*
X017949Y005817D01*
X017949Y005973D01*
X017838Y006084D01*
X017681Y006084D01*
X017570Y005954D02*
X013637Y005954D01*
X013606Y005986D02*
X013449Y005986D01*
X013338Y005875D01*
X013338Y005718D01*
X013449Y005607D01*
X013606Y005607D01*
X013716Y005718D01*
X013716Y005875D01*
X013606Y005986D01*
X013716Y005857D02*
X017570Y005857D01*
X017627Y005760D02*
X013716Y005760D01*
X013661Y005663D02*
X017260Y005663D01*
X017177Y005566D02*
X013126Y005566D01*
X013126Y005521D02*
X013126Y005678D01*
X013015Y005789D01*
X012858Y005789D01*
X012747Y005678D01*
X012747Y005521D01*
X012858Y005411D01*
X013015Y005411D01*
X013126Y005521D01*
X013074Y005469D02*
X017177Y005469D01*
X017227Y005372D02*
X011797Y005372D01*
X011781Y005469D02*
X012800Y005469D01*
X012747Y005566D02*
X011741Y005566D01*
X011700Y005663D02*
X012747Y005663D01*
X012830Y005760D02*
X011603Y005760D01*
X011483Y005857D02*
X013338Y005857D01*
X013338Y005760D02*
X013044Y005760D01*
X013126Y005663D02*
X013393Y005663D01*
X013417Y005954D02*
X009799Y005954D01*
X009767Y005986D02*
X009878Y005875D01*
X009878Y005718D01*
X009767Y005607D01*
X009610Y005607D01*
X009499Y005718D01*
X009499Y005875D01*
X009610Y005986D01*
X009767Y005986D01*
X009878Y005857D02*
X010847Y005857D01*
X010727Y005760D02*
X009878Y005760D01*
X009823Y005663D02*
X010630Y005663D01*
X010589Y005566D02*
X007930Y005566D01*
X007906Y005508D02*
X007957Y005631D01*
X007957Y005765D01*
X007906Y005888D01*
X007812Y005983D01*
X007688Y006034D01*
X007555Y006034D01*
X007432Y005983D01*
X007337Y005888D01*
X007286Y005765D01*
X007286Y005631D01*
X007337Y005508D01*
X007432Y005414D01*
X007555Y005363D01*
X007688Y005363D01*
X007812Y005414D01*
X007906Y005508D01*
X007867Y005469D02*
X010549Y005469D01*
X010533Y005372D02*
X007712Y005372D01*
X007532Y005372D02*
X006727Y005372D01*
X006704Y005363D02*
X006827Y005414D01*
X006922Y005508D01*
X006973Y005631D01*
X006973Y005765D01*
X006922Y005888D01*
X006827Y005983D01*
X006704Y006034D01*
X006571Y006034D01*
X006447Y005983D01*
X006353Y005888D01*
X006302Y005765D01*
X006302Y005631D01*
X006353Y005508D01*
X006447Y005414D01*
X006571Y005363D01*
X006704Y005363D01*
X006548Y005372D02*
X006145Y005372D01*
X006145Y005469D02*
X006392Y005469D01*
X006329Y005566D02*
X006145Y005566D01*
X006145Y005663D02*
X006302Y005663D01*
X006302Y005760D02*
X006145Y005760D01*
X006145Y005857D02*
X006340Y005857D01*
X006419Y005954D02*
X006145Y005954D01*
X006145Y006051D02*
X009560Y006051D01*
X009579Y005954D02*
X007840Y005954D01*
X007919Y005857D02*
X009499Y005857D01*
X009499Y005760D02*
X007957Y005760D01*
X007957Y005663D02*
X009554Y005663D01*
X009499Y006148D02*
X006145Y006148D01*
X006145Y006245D02*
X006404Y006245D01*
X006334Y006342D02*
X006145Y006342D01*
X006145Y006439D02*
X006302Y006439D01*
X006302Y006536D02*
X006145Y006536D01*
X006145Y006633D02*
X006335Y006633D01*
X006407Y006730D02*
X006145Y006730D01*
X006145Y006827D02*
X016913Y006827D01*
X017010Y006730D02*
X007852Y006730D01*
X007812Y006770D02*
X007688Y006821D01*
X007555Y006821D01*
X007432Y006770D01*
X007337Y006676D01*
X007286Y006552D01*
X007286Y006419D01*
X007337Y006296D01*
X007432Y006201D01*
X007555Y006150D01*
X007688Y006150D01*
X007812Y006201D01*
X007906Y006296D01*
X007957Y006419D01*
X007957Y006552D01*
X007906Y006676D01*
X007812Y006770D01*
X007924Y006633D02*
X014047Y006633D01*
X014089Y006675D02*
X013978Y006564D01*
X013978Y006407D01*
X014089Y006296D01*
X014245Y006296D01*
X014356Y006407D01*
X014356Y006564D01*
X014245Y006675D01*
X014089Y006675D01*
X013978Y006536D02*
X007957Y006536D01*
X007957Y006439D02*
X013978Y006439D01*
X014043Y006342D02*
X009804Y006342D01*
X009878Y006245D02*
X019061Y006245D01*
X018997Y006342D02*
X018373Y006342D01*
X018390Y006359D02*
X018279Y006248D01*
X018122Y006248D01*
X018012Y006359D01*
X018012Y006516D01*
X018122Y006626D01*
X018279Y006626D01*
X018390Y006516D01*
X018390Y006359D01*
X018390Y006439D02*
X018997Y006439D01*
X019068Y006536D02*
X018370Y006536D01*
X018032Y006536D02*
X017331Y006536D01*
X017204Y006536D02*
X014356Y006536D01*
X014356Y006439D02*
X018012Y006439D01*
X018028Y006342D02*
X014291Y006342D01*
X014287Y006633D02*
X017107Y006633D01*
X017871Y006051D02*
X020937Y006051D01*
X021034Y005954D02*
X017949Y005954D01*
X017949Y005857D02*
X021131Y005857D01*
X021228Y005760D02*
X017892Y005760D01*
X017555Y005566D02*
X021422Y005566D01*
X021325Y005663D02*
X017471Y005663D01*
X018982Y005372D02*
X018987Y005372D01*
X017592Y003919D02*
X017435Y003919D01*
X017324Y003808D01*
X017324Y003651D01*
X017435Y003541D01*
X017592Y003541D01*
X017703Y003651D01*
X017703Y003808D01*
X017592Y003919D01*
X017593Y003918D02*
X034279Y003918D01*
X034278Y003821D02*
X017690Y003821D01*
X017703Y003724D02*
X034278Y003724D01*
X034277Y003627D02*
X017678Y003627D01*
X017349Y003627D02*
X006145Y003627D01*
X006145Y003724D02*
X017324Y003724D01*
X017337Y003821D02*
X006145Y003821D01*
X006145Y003918D02*
X017434Y003918D01*
X015927Y004015D02*
X009552Y004015D01*
X009583Y004045D02*
X009472Y003934D01*
X009315Y003934D01*
X009204Y004045D01*
X009204Y004202D01*
X009315Y004313D01*
X009472Y004313D01*
X009583Y004202D01*
X009583Y004045D01*
X009583Y004112D02*
X015848Y004112D01*
X015848Y004209D02*
X009576Y004209D01*
X009479Y004306D02*
X015903Y004306D01*
X009308Y004306D02*
X006145Y004306D01*
X006145Y004403D02*
X024751Y004403D01*
X024654Y004500D02*
X006145Y004500D01*
X006145Y004209D02*
X009211Y004209D01*
X009204Y004112D02*
X006145Y004112D01*
X006145Y004015D02*
X009234Y004015D01*
X009245Y004694D02*
X007879Y004694D01*
X007935Y004791D02*
X009204Y004791D01*
X009204Y004888D02*
X007957Y004888D01*
X007954Y004985D02*
X009298Y004985D01*
X009499Y006245D02*
X007856Y006245D01*
X007925Y006342D02*
X009573Y006342D01*
X007388Y006245D02*
X006871Y006245D01*
X006941Y006342D02*
X007318Y006342D01*
X007286Y006439D02*
X006973Y006439D01*
X006973Y006536D02*
X007286Y006536D01*
X007320Y006633D02*
X006940Y006633D01*
X006868Y006730D02*
X007392Y006730D01*
X007403Y005954D02*
X006856Y005954D01*
X006935Y005857D02*
X007325Y005857D01*
X007286Y005760D02*
X006973Y005760D01*
X006973Y005663D02*
X007286Y005663D01*
X007313Y005566D02*
X006946Y005566D01*
X006883Y005469D02*
X007376Y005469D01*
X007415Y005178D02*
X006844Y005178D01*
X006930Y005081D02*
X007329Y005081D01*
X007289Y004985D02*
X006970Y004985D01*
X006973Y004888D02*
X007286Y004888D01*
X007308Y004791D02*
X006951Y004791D01*
X006895Y004694D02*
X007365Y004694D01*
X007411Y007797D02*
X006848Y007797D01*
X006931Y007894D02*
X007328Y007894D01*
X007288Y007991D02*
X006972Y007991D01*
X006973Y008088D02*
X007286Y008088D01*
X007310Y008184D02*
X006949Y008184D01*
X006891Y008281D02*
X007368Y008281D01*
X007513Y008378D02*
X006746Y008378D01*
X006836Y008572D02*
X007423Y008572D01*
X007333Y008669D02*
X006927Y008669D01*
X006348Y008669D02*
X006145Y008669D01*
X006244Y010706D02*
X006446Y010706D01*
X006887Y011772D02*
X007372Y011772D01*
X007312Y011869D02*
X006947Y011869D01*
X006973Y011966D02*
X007286Y011966D01*
X007286Y012063D02*
X006973Y012063D01*
X006933Y012160D02*
X007326Y012160D01*
X007407Y012257D02*
X006852Y012257D01*
X012599Y009542D02*
X014003Y009542D01*
X023518Y011287D02*
X024206Y011287D01*
X024165Y011384D02*
X023559Y011384D01*
X023559Y011481D02*
X024165Y011481D01*
X024258Y011578D02*
X023466Y011578D01*
X026668Y011094D02*
X028733Y011094D01*
X028733Y011191D02*
X027210Y011191D01*
X027188Y011169D02*
X027299Y011279D01*
X027299Y011436D01*
X027188Y011547D01*
X027032Y011547D01*
X026921Y011436D01*
X026921Y011279D01*
X027032Y011169D01*
X027188Y011169D01*
X027299Y011287D02*
X028733Y011287D01*
X028733Y011384D02*
X027299Y011384D01*
X027254Y011481D02*
X028733Y011481D01*
X028882Y011481D02*
X032917Y011481D01*
X032917Y011384D02*
X028882Y011384D01*
X028882Y011287D02*
X032917Y011287D01*
X032917Y011191D02*
X028882Y011191D01*
X028882Y011094D02*
X032917Y011094D01*
X032917Y010997D02*
X028882Y010997D01*
X028882Y011578D02*
X032917Y011578D01*
X032917Y011675D02*
X028882Y011675D01*
X028882Y011772D02*
X032917Y011772D01*
X032917Y011869D02*
X028882Y011869D01*
X028882Y011966D02*
X032917Y011966D01*
X032917Y012063D02*
X028882Y012063D01*
X028882Y012160D02*
X032917Y012160D01*
X032917Y012257D02*
X028882Y012257D01*
X028882Y012354D02*
X032917Y012354D01*
X032917Y012451D02*
X028882Y012451D01*
X028882Y012548D02*
X031507Y012548D01*
X031277Y012645D02*
X028882Y012645D01*
X028882Y012742D02*
X031180Y012742D01*
X031094Y012839D02*
X028882Y012839D01*
X028882Y012936D02*
X031054Y012936D01*
X031013Y013033D02*
X028882Y013033D01*
X029100Y013130D02*
X029352Y013130D01*
X029593Y013130D02*
X031005Y013130D01*
X031053Y013421D02*
X029596Y013421D01*
X029348Y013421D02*
X029104Y013421D01*
X028856Y013421D02*
X028119Y013421D01*
X027807Y013227D02*
X027624Y013227D01*
X027693Y013130D02*
X027875Y013130D01*
X027383Y013227D02*
X027132Y013227D01*
X027201Y013130D02*
X027314Y013130D01*
X027314Y013033D02*
X027201Y013033D01*
X027135Y012936D02*
X027380Y012936D01*
X026966Y011481D02*
X026860Y011481D01*
X026905Y011384D02*
X026921Y011384D01*
X026921Y011287D02*
X026905Y011287D01*
X026817Y011191D02*
X027010Y011191D01*
X031767Y012548D02*
X032917Y012548D01*
X032917Y012645D02*
X031998Y012645D01*
X032095Y012742D02*
X032917Y012742D01*
X032917Y012839D02*
X032181Y012839D01*
X032221Y012936D02*
X032917Y012936D01*
X032917Y013033D02*
X032261Y013033D01*
X032270Y013130D02*
X032917Y013130D01*
X032917Y013421D02*
X032221Y013421D01*
X032181Y013518D02*
X032917Y013518D01*
X032917Y013615D02*
X032095Y013615D01*
X031999Y013712D02*
X032917Y013712D01*
X032917Y013809D02*
X031768Y013809D01*
X033409Y013712D02*
X034462Y013712D01*
X034401Y013615D02*
X033409Y013615D01*
X033409Y013518D02*
X034401Y013518D01*
X034474Y013421D02*
X033409Y013421D01*
X033409Y013324D02*
X040656Y013324D01*
X040633Y013227D02*
X033409Y013227D01*
X033409Y013130D02*
X040633Y013130D01*
X040656Y013033D02*
X033409Y013033D01*
X033409Y012936D02*
X040300Y012936D01*
X040133Y012867D01*
X040006Y012740D01*
X039937Y012573D01*
X039937Y012392D01*
X039937Y012548D02*
X033409Y012548D01*
X033409Y012645D02*
X039967Y012645D01*
X040008Y012742D02*
X033409Y012742D01*
X033409Y012839D02*
X040105Y012839D01*
X040300Y012936D02*
X040481Y012936D01*
X040609Y013421D02*
X040696Y013421D01*
X040746Y013518D02*
X040784Y013518D01*
X040823Y013615D02*
X040954Y013615D01*
X040867Y013712D02*
X041359Y013712D01*
X041401Y013615D02*
X041218Y013615D01*
X041388Y013518D02*
X041498Y013518D01*
X040035Y013518D02*
X038248Y013518D01*
X038323Y013615D02*
X039958Y013615D01*
X039914Y013712D02*
X038323Y013712D01*
X038263Y013809D02*
X039891Y013809D01*
X038004Y013809D02*
X036453Y013809D01*
X036375Y013712D02*
X037944Y013712D01*
X036152Y013712D02*
X036080Y013712D01*
X035370Y015069D02*
X035370Y015225D01*
X032917Y015166D02*
X030360Y015166D01*
X030449Y015069D02*
X032917Y015069D01*
X032917Y014972D02*
X030449Y014972D01*
X030403Y014875D02*
X032917Y014875D01*
X034889Y011966D02*
X036960Y011966D01*
X037010Y011869D02*
X034976Y011869D01*
X034976Y011772D02*
X039027Y011772D01*
X039027Y011869D02*
X037289Y011869D01*
X037338Y011966D02*
X039114Y011966D01*
X039074Y011675D02*
X034929Y011675D01*
X034090Y011191D02*
X035779Y011191D01*
X035683Y011094D02*
X034187Y011094D01*
X034189Y010997D02*
X035681Y010997D01*
X035716Y010900D02*
X034154Y010900D01*
X035960Y011191D02*
X036075Y011191D01*
X039762Y008766D02*
X040442Y008766D01*
X040405Y008669D02*
X039799Y008669D01*
X039799Y008572D02*
X040405Y008572D01*
X040502Y008475D02*
X039702Y008475D01*
X037535Y008281D02*
X042275Y008281D01*
X042275Y008184D02*
X037535Y008184D01*
X037444Y008088D02*
X042366Y008088D01*
X042318Y008378D02*
X037493Y008378D01*
X037248Y008088D02*
X036945Y008088D01*
X036899Y008184D02*
X037157Y008184D01*
X038153Y003918D02*
X034771Y003918D01*
X034770Y003821D02*
X038056Y003821D01*
X038043Y003724D02*
X034770Y003724D01*
X034769Y003627D02*
X038067Y003627D01*
X038311Y003918D02*
X038448Y003918D01*
X038027Y015069D02*
X038027Y015225D01*
X040640Y018075D02*
X041828Y018075D01*
X041783Y018172D02*
X040685Y018172D01*
X040685Y018269D02*
X041783Y018269D01*
X041872Y018366D02*
X040595Y018366D01*
X042298Y019142D02*
X045218Y019142D01*
X045218Y019239D02*
X042358Y019239D01*
X042358Y019336D02*
X045218Y019336D01*
X045218Y019433D02*
X042285Y019433D01*
X045218Y019724D02*
X039139Y019724D01*
X039209Y019821D02*
X045218Y019821D01*
X045218Y019918D02*
X039209Y019918D01*
X039144Y020015D02*
X045218Y020015D01*
X010987Y021663D02*
X007879Y021663D01*
X007935Y021566D02*
X010784Y021566D01*
X010687Y021469D02*
X007957Y021469D01*
X007954Y021372D02*
X010613Y021372D01*
D17*
X041382Y006486D02*
X041382Y006387D01*
D18*
X040110Y003942D03*
X041094Y022336D03*
X042094Y022336D03*
X030578Y022348D03*
M02*
