G75*
G70*
%OFA0B0*%
%FSLAX24Y24*%
%IPPOS*%
%LPD*%
%AMOC8*
5,1,8,0,0,1.08239X$1,22.5*
%
%ADD10R,0.0610X0.0098*%
%ADD11R,0.2047X0.2047*%
%ADD12R,0.0433X0.0394*%
%ADD13R,0.0512X0.0591*%
%ADD14R,0.0098X0.0610*%
%ADD15R,0.2047X0.2047*%
%ADD16R,0.0394X0.0433*%
%ADD17R,0.0630X0.0118*%
%ADD18R,0.0118X0.0630*%
%ADD19R,0.0787X0.0236*%
%ADD20R,0.0315X0.0315*%
%ADD21R,0.0290X0.1100*%
%ADD22R,0.0870X0.0472*%
%ADD23R,0.0299X0.0630*%
%ADD24R,0.0394X0.0591*%
%ADD25R,0.1299X0.0591*%
%ADD26R,0.0276X0.0354*%
%ADD27R,0.0354X0.0276*%
%ADD28R,0.0630X0.1063*%
D10*
G36*
X013930Y006545D02*
X013499Y006114D01*
X013430Y006183D01*
X013861Y006614D01*
X013930Y006545D01*
G37*
G36*
X014069Y006406D02*
X013638Y005975D01*
X013569Y006044D01*
X014000Y006475D01*
X014069Y006406D01*
G37*
G36*
X014209Y006267D02*
X013778Y005836D01*
X013709Y005905D01*
X014140Y006336D01*
X014209Y006267D01*
G37*
G36*
X014348Y006128D02*
X013917Y005697D01*
X013848Y005766D01*
X014279Y006197D01*
X014348Y006128D01*
G37*
G36*
X014487Y005989D02*
X014056Y005558D01*
X013987Y005627D01*
X014418Y006058D01*
X014487Y005989D01*
G37*
G36*
X014626Y005849D02*
X014195Y005418D01*
X014126Y005487D01*
X014557Y005918D01*
X014626Y005849D01*
G37*
G36*
X014765Y005710D02*
X014334Y005279D01*
X014265Y005348D01*
X014696Y005779D01*
X014765Y005710D01*
G37*
G36*
X014905Y005571D02*
X014474Y005140D01*
X014405Y005209D01*
X014836Y005640D01*
X014905Y005571D01*
G37*
G36*
X015044Y005432D02*
X014613Y005001D01*
X014544Y005070D01*
X014975Y005501D01*
X015044Y005432D01*
G37*
G36*
X015183Y005293D02*
X014752Y004862D01*
X014683Y004931D01*
X015114Y005362D01*
X015183Y005293D01*
G37*
G36*
X015322Y005153D02*
X014891Y004722D01*
X014822Y004791D01*
X015253Y005222D01*
X015322Y005153D01*
G37*
G36*
X015461Y005014D02*
X015030Y004583D01*
X014961Y004652D01*
X015392Y005083D01*
X015461Y005014D01*
G37*
G36*
X015601Y004875D02*
X015170Y004444D01*
X015101Y004513D01*
X015532Y004944D01*
X015601Y004875D01*
G37*
G36*
X015740Y004736D02*
X015309Y004305D01*
X015240Y004374D01*
X015671Y004805D01*
X015740Y004736D01*
G37*
G36*
X015879Y004597D02*
X015448Y004166D01*
X015379Y004235D01*
X015810Y004666D01*
X015879Y004597D01*
G37*
G36*
X016018Y004457D02*
X015587Y004026D01*
X015518Y004095D01*
X015949Y004526D01*
X016018Y004457D01*
G37*
G36*
X016617Y004526D02*
X017048Y004095D01*
X016979Y004026D01*
X016548Y004457D01*
X016617Y004526D01*
G37*
G36*
X016756Y004666D02*
X017187Y004235D01*
X017118Y004166D01*
X016687Y004597D01*
X016756Y004666D01*
G37*
G36*
X016896Y004805D02*
X017327Y004374D01*
X017258Y004305D01*
X016827Y004736D01*
X016896Y004805D01*
G37*
G36*
X017035Y004944D02*
X017466Y004513D01*
X017397Y004444D01*
X016966Y004875D01*
X017035Y004944D01*
G37*
G36*
X017174Y005083D02*
X017605Y004652D01*
X017536Y004583D01*
X017105Y005014D01*
X017174Y005083D01*
G37*
G36*
X017313Y005222D02*
X017744Y004791D01*
X017675Y004722D01*
X017244Y005153D01*
X017313Y005222D01*
G37*
G36*
X017452Y005362D02*
X017883Y004931D01*
X017814Y004862D01*
X017383Y005293D01*
X017452Y005362D01*
G37*
G36*
X017592Y005501D02*
X018023Y005070D01*
X017954Y005001D01*
X017523Y005432D01*
X017592Y005501D01*
G37*
G36*
X017731Y005640D02*
X018162Y005209D01*
X018093Y005140D01*
X017662Y005571D01*
X017731Y005640D01*
G37*
G36*
X017870Y005779D02*
X018301Y005348D01*
X018232Y005279D01*
X017801Y005710D01*
X017870Y005779D01*
G37*
G36*
X018009Y005918D02*
X018440Y005487D01*
X018371Y005418D01*
X017940Y005849D01*
X018009Y005918D01*
G37*
G36*
X018148Y006058D02*
X018579Y005627D01*
X018510Y005558D01*
X018079Y005989D01*
X018148Y006058D01*
G37*
G36*
X018287Y006197D02*
X018718Y005766D01*
X018649Y005697D01*
X018218Y006128D01*
X018287Y006197D01*
G37*
G36*
X018427Y006336D02*
X018858Y005905D01*
X018789Y005836D01*
X018358Y006267D01*
X018427Y006336D01*
G37*
G36*
X018566Y006475D02*
X018997Y006044D01*
X018928Y005975D01*
X018497Y006406D01*
X018566Y006475D01*
G37*
G36*
X018705Y006614D02*
X019136Y006183D01*
X019067Y006114D01*
X018636Y006545D01*
X018705Y006614D01*
G37*
G36*
X018636Y007213D02*
X019067Y007644D01*
X019136Y007575D01*
X018705Y007144D01*
X018636Y007213D01*
G37*
G36*
X018497Y007353D02*
X018928Y007784D01*
X018997Y007715D01*
X018566Y007284D01*
X018497Y007353D01*
G37*
G36*
X018358Y007492D02*
X018789Y007923D01*
X018858Y007854D01*
X018427Y007423D01*
X018358Y007492D01*
G37*
G36*
X018218Y007631D02*
X018649Y008062D01*
X018718Y007993D01*
X018287Y007562D01*
X018218Y007631D01*
G37*
G36*
X018079Y007770D02*
X018510Y008201D01*
X018579Y008132D01*
X018148Y007701D01*
X018079Y007770D01*
G37*
G36*
X017940Y007909D02*
X018371Y008340D01*
X018440Y008271D01*
X018009Y007840D01*
X017940Y007909D01*
G37*
G36*
X017801Y008049D02*
X018232Y008480D01*
X018301Y008411D01*
X017870Y007980D01*
X017801Y008049D01*
G37*
G36*
X017662Y008188D02*
X018093Y008619D01*
X018162Y008550D01*
X017731Y008119D01*
X017662Y008188D01*
G37*
G36*
X017523Y008327D02*
X017954Y008758D01*
X018023Y008689D01*
X017592Y008258D01*
X017523Y008327D01*
G37*
G36*
X017383Y008466D02*
X017814Y008897D01*
X017883Y008828D01*
X017452Y008397D01*
X017383Y008466D01*
G37*
G36*
X017244Y008605D02*
X017675Y009036D01*
X017744Y008967D01*
X017313Y008536D01*
X017244Y008605D01*
G37*
G36*
X017105Y008745D02*
X017536Y009176D01*
X017605Y009107D01*
X017174Y008676D01*
X017105Y008745D01*
G37*
G36*
X016966Y008884D02*
X017397Y009315D01*
X017466Y009246D01*
X017035Y008815D01*
X016966Y008884D01*
G37*
G36*
X016827Y009023D02*
X017258Y009454D01*
X017327Y009385D01*
X016896Y008954D01*
X016827Y009023D01*
G37*
G36*
X016687Y009162D02*
X017118Y009593D01*
X017187Y009524D01*
X016756Y009093D01*
X016687Y009162D01*
G37*
G36*
X016548Y009301D02*
X016979Y009732D01*
X017048Y009663D01*
X016617Y009232D01*
X016548Y009301D01*
G37*
G36*
X015949Y009232D02*
X015518Y009663D01*
X015587Y009732D01*
X016018Y009301D01*
X015949Y009232D01*
G37*
G36*
X015810Y009093D02*
X015379Y009524D01*
X015448Y009593D01*
X015879Y009162D01*
X015810Y009093D01*
G37*
G36*
X015671Y008954D02*
X015240Y009385D01*
X015309Y009454D01*
X015740Y009023D01*
X015671Y008954D01*
G37*
G36*
X015532Y008815D02*
X015101Y009246D01*
X015170Y009315D01*
X015601Y008884D01*
X015532Y008815D01*
G37*
G36*
X015392Y008676D02*
X014961Y009107D01*
X015030Y009176D01*
X015461Y008745D01*
X015392Y008676D01*
G37*
G36*
X015253Y008536D02*
X014822Y008967D01*
X014891Y009036D01*
X015322Y008605D01*
X015253Y008536D01*
G37*
G36*
X015114Y008397D02*
X014683Y008828D01*
X014752Y008897D01*
X015183Y008466D01*
X015114Y008397D01*
G37*
G36*
X014975Y008258D02*
X014544Y008689D01*
X014613Y008758D01*
X015044Y008327D01*
X014975Y008258D01*
G37*
G36*
X014836Y008119D02*
X014405Y008550D01*
X014474Y008619D01*
X014905Y008188D01*
X014836Y008119D01*
G37*
G36*
X014696Y007980D02*
X014265Y008411D01*
X014334Y008480D01*
X014765Y008049D01*
X014696Y007980D01*
G37*
G36*
X014557Y007840D02*
X014126Y008271D01*
X014195Y008340D01*
X014626Y007909D01*
X014557Y007840D01*
G37*
G36*
X014418Y007701D02*
X013987Y008132D01*
X014056Y008201D01*
X014487Y007770D01*
X014418Y007701D01*
G37*
G36*
X014279Y007562D02*
X013848Y007993D01*
X013917Y008062D01*
X014348Y007631D01*
X014279Y007562D01*
G37*
G36*
X014140Y007423D02*
X013709Y007854D01*
X013778Y007923D01*
X014209Y007492D01*
X014140Y007423D01*
G37*
G36*
X014000Y007284D02*
X013569Y007715D01*
X013638Y007784D01*
X014069Y007353D01*
X014000Y007284D01*
G37*
G36*
X013861Y007144D02*
X013430Y007575D01*
X013499Y007644D01*
X013930Y007213D01*
X013861Y007144D01*
G37*
X025496Y008159D03*
X025496Y008356D03*
X025496Y008553D03*
X025496Y008749D03*
X025496Y008946D03*
X025496Y009143D03*
X025496Y009340D03*
X025496Y009537D03*
X025496Y009734D03*
X025496Y009931D03*
X025496Y010127D03*
X025496Y010324D03*
X025496Y010521D03*
X025496Y010718D03*
X025496Y010915D03*
X025496Y011112D03*
X029905Y011112D03*
X029905Y010915D03*
X029905Y010718D03*
X029905Y010521D03*
X029905Y010324D03*
X029905Y010127D03*
X029905Y009931D03*
X029905Y009734D03*
X029905Y009537D03*
X029905Y009340D03*
X029905Y009143D03*
X029905Y008946D03*
X029905Y008749D03*
X029905Y008553D03*
X029905Y008356D03*
X029905Y008159D03*
X029905Y015246D03*
X029905Y015442D03*
X029905Y015639D03*
X029905Y015836D03*
X029905Y016033D03*
X029905Y016230D03*
X029905Y016427D03*
X029905Y016623D03*
X029905Y016820D03*
X029905Y017017D03*
X029905Y017214D03*
X029905Y017411D03*
X029905Y017608D03*
X029905Y017805D03*
X029905Y018001D03*
X029905Y018198D03*
X025496Y018198D03*
X025496Y018001D03*
X025496Y017805D03*
X025496Y017608D03*
X025496Y017411D03*
X025496Y017214D03*
X025496Y017017D03*
X025496Y016820D03*
X025496Y016623D03*
X025496Y016427D03*
X025496Y016230D03*
X025496Y016033D03*
X025496Y015836D03*
X025496Y015639D03*
X025496Y015442D03*
X025496Y015246D03*
G36*
X018705Y019213D02*
X019136Y018782D01*
X019067Y018713D01*
X018636Y019144D01*
X018705Y019213D01*
G37*
G36*
X018566Y019074D02*
X018997Y018643D01*
X018928Y018574D01*
X018497Y019005D01*
X018566Y019074D01*
G37*
G36*
X018427Y018934D02*
X018858Y018503D01*
X018789Y018434D01*
X018358Y018865D01*
X018427Y018934D01*
G37*
G36*
X018287Y018795D02*
X018718Y018364D01*
X018649Y018295D01*
X018218Y018726D01*
X018287Y018795D01*
G37*
G36*
X018148Y018656D02*
X018579Y018225D01*
X018510Y018156D01*
X018079Y018587D01*
X018148Y018656D01*
G37*
G36*
X018009Y018517D02*
X018440Y018086D01*
X018371Y018017D01*
X017940Y018448D01*
X018009Y018517D01*
G37*
G36*
X017870Y018378D02*
X018301Y017947D01*
X018232Y017878D01*
X017801Y018309D01*
X017870Y018378D01*
G37*
G36*
X017731Y018238D02*
X018162Y017807D01*
X018093Y017738D01*
X017662Y018169D01*
X017731Y018238D01*
G37*
G36*
X017592Y018099D02*
X018023Y017668D01*
X017954Y017599D01*
X017523Y018030D01*
X017592Y018099D01*
G37*
G36*
X017452Y017960D02*
X017883Y017529D01*
X017814Y017460D01*
X017383Y017891D01*
X017452Y017960D01*
G37*
G36*
X017313Y017821D02*
X017744Y017390D01*
X017675Y017321D01*
X017244Y017752D01*
X017313Y017821D01*
G37*
G36*
X017174Y017682D02*
X017605Y017251D01*
X017536Y017182D01*
X017105Y017613D01*
X017174Y017682D01*
G37*
G36*
X017035Y017542D02*
X017466Y017111D01*
X017397Y017042D01*
X016966Y017473D01*
X017035Y017542D01*
G37*
G36*
X016896Y017403D02*
X017327Y016972D01*
X017258Y016903D01*
X016827Y017334D01*
X016896Y017403D01*
G37*
G36*
X016756Y017264D02*
X017187Y016833D01*
X017118Y016764D01*
X016687Y017195D01*
X016756Y017264D01*
G37*
G36*
X016617Y017125D02*
X017048Y016694D01*
X016979Y016625D01*
X016548Y017056D01*
X016617Y017125D01*
G37*
G36*
X016018Y017056D02*
X015587Y016625D01*
X015518Y016694D01*
X015949Y017125D01*
X016018Y017056D01*
G37*
G36*
X015879Y017195D02*
X015448Y016764D01*
X015379Y016833D01*
X015810Y017264D01*
X015879Y017195D01*
G37*
G36*
X015740Y017334D02*
X015309Y016903D01*
X015240Y016972D01*
X015671Y017403D01*
X015740Y017334D01*
G37*
G36*
X015601Y017473D02*
X015170Y017042D01*
X015101Y017111D01*
X015532Y017542D01*
X015601Y017473D01*
G37*
G36*
X015461Y017613D02*
X015030Y017182D01*
X014961Y017251D01*
X015392Y017682D01*
X015461Y017613D01*
G37*
G36*
X015322Y017752D02*
X014891Y017321D01*
X014822Y017390D01*
X015253Y017821D01*
X015322Y017752D01*
G37*
G36*
X015183Y017891D02*
X014752Y017460D01*
X014683Y017529D01*
X015114Y017960D01*
X015183Y017891D01*
G37*
G36*
X015044Y018030D02*
X014613Y017599D01*
X014544Y017668D01*
X014975Y018099D01*
X015044Y018030D01*
G37*
G36*
X014905Y018169D02*
X014474Y017738D01*
X014405Y017807D01*
X014836Y018238D01*
X014905Y018169D01*
G37*
G36*
X014765Y018309D02*
X014334Y017878D01*
X014265Y017947D01*
X014696Y018378D01*
X014765Y018309D01*
G37*
G36*
X014626Y018448D02*
X014195Y018017D01*
X014126Y018086D01*
X014557Y018517D01*
X014626Y018448D01*
G37*
G36*
X014487Y018587D02*
X014056Y018156D01*
X013987Y018225D01*
X014418Y018656D01*
X014487Y018587D01*
G37*
G36*
X014348Y018726D02*
X013917Y018295D01*
X013848Y018364D01*
X014279Y018795D01*
X014348Y018726D01*
G37*
G36*
X014209Y018865D02*
X013778Y018434D01*
X013709Y018503D01*
X014140Y018934D01*
X014209Y018865D01*
G37*
G36*
X014069Y019005D02*
X013638Y018574D01*
X013569Y018643D01*
X014000Y019074D01*
X014069Y019005D01*
G37*
G36*
X013930Y019144D02*
X013499Y018713D01*
X013430Y018782D01*
X013861Y019213D01*
X013930Y019144D01*
G37*
G36*
X013861Y019743D02*
X013430Y020174D01*
X013499Y020243D01*
X013930Y019812D01*
X013861Y019743D01*
G37*
G36*
X014000Y019882D02*
X013569Y020313D01*
X013638Y020382D01*
X014069Y019951D01*
X014000Y019882D01*
G37*
G36*
X014140Y020021D02*
X013709Y020452D01*
X013778Y020521D01*
X014209Y020090D01*
X014140Y020021D01*
G37*
G36*
X014279Y020160D02*
X013848Y020591D01*
X013917Y020660D01*
X014348Y020229D01*
X014279Y020160D01*
G37*
G36*
X014418Y020300D02*
X013987Y020731D01*
X014056Y020800D01*
X014487Y020369D01*
X014418Y020300D01*
G37*
G36*
X014557Y020439D02*
X014126Y020870D01*
X014195Y020939D01*
X014626Y020508D01*
X014557Y020439D01*
G37*
G36*
X014696Y020578D02*
X014265Y021009D01*
X014334Y021078D01*
X014765Y020647D01*
X014696Y020578D01*
G37*
G36*
X014836Y020717D02*
X014405Y021148D01*
X014474Y021217D01*
X014905Y020786D01*
X014836Y020717D01*
G37*
G36*
X014975Y020856D02*
X014544Y021287D01*
X014613Y021356D01*
X015044Y020925D01*
X014975Y020856D01*
G37*
G36*
X015114Y020996D02*
X014683Y021427D01*
X014752Y021496D01*
X015183Y021065D01*
X015114Y020996D01*
G37*
G36*
X015253Y021135D02*
X014822Y021566D01*
X014891Y021635D01*
X015322Y021204D01*
X015253Y021135D01*
G37*
G36*
X015392Y021274D02*
X014961Y021705D01*
X015030Y021774D01*
X015461Y021343D01*
X015392Y021274D01*
G37*
G36*
X015532Y021413D02*
X015101Y021844D01*
X015170Y021913D01*
X015601Y021482D01*
X015532Y021413D01*
G37*
G36*
X015671Y021552D02*
X015240Y021983D01*
X015309Y022052D01*
X015740Y021621D01*
X015671Y021552D01*
G37*
G36*
X015810Y021691D02*
X015379Y022122D01*
X015448Y022191D01*
X015879Y021760D01*
X015810Y021691D01*
G37*
G36*
X015949Y021831D02*
X015518Y022262D01*
X015587Y022331D01*
X016018Y021900D01*
X015949Y021831D01*
G37*
G36*
X016548Y021900D02*
X016979Y022331D01*
X017048Y022262D01*
X016617Y021831D01*
X016548Y021900D01*
G37*
G36*
X016687Y021760D02*
X017118Y022191D01*
X017187Y022122D01*
X016756Y021691D01*
X016687Y021760D01*
G37*
G36*
X016827Y021621D02*
X017258Y022052D01*
X017327Y021983D01*
X016896Y021552D01*
X016827Y021621D01*
G37*
G36*
X016966Y021482D02*
X017397Y021913D01*
X017466Y021844D01*
X017035Y021413D01*
X016966Y021482D01*
G37*
G36*
X017105Y021343D02*
X017536Y021774D01*
X017605Y021705D01*
X017174Y021274D01*
X017105Y021343D01*
G37*
G36*
X017244Y021204D02*
X017675Y021635D01*
X017744Y021566D01*
X017313Y021135D01*
X017244Y021204D01*
G37*
G36*
X017383Y021065D02*
X017814Y021496D01*
X017883Y021427D01*
X017452Y020996D01*
X017383Y021065D01*
G37*
G36*
X017523Y020925D02*
X017954Y021356D01*
X018023Y021287D01*
X017592Y020856D01*
X017523Y020925D01*
G37*
G36*
X017662Y020786D02*
X018093Y021217D01*
X018162Y021148D01*
X017731Y020717D01*
X017662Y020786D01*
G37*
G36*
X017801Y020647D02*
X018232Y021078D01*
X018301Y021009D01*
X017870Y020578D01*
X017801Y020647D01*
G37*
G36*
X017940Y020508D02*
X018371Y020939D01*
X018440Y020870D01*
X018009Y020439D01*
X017940Y020508D01*
G37*
G36*
X018079Y020369D02*
X018510Y020800D01*
X018579Y020731D01*
X018148Y020300D01*
X018079Y020369D01*
G37*
G36*
X018218Y020229D02*
X018649Y020660D01*
X018718Y020591D01*
X018287Y020160D01*
X018218Y020229D01*
G37*
G36*
X018358Y020090D02*
X018789Y020521D01*
X018858Y020452D01*
X018427Y020021D01*
X018358Y020090D01*
G37*
G36*
X018497Y019951D02*
X018928Y020382D01*
X018997Y020313D01*
X018566Y019882D01*
X018497Y019951D01*
G37*
G36*
X018636Y019812D02*
X019067Y020243D01*
X019136Y020174D01*
X018705Y019743D01*
X018636Y019812D01*
G37*
D11*
G36*
X017729Y019478D02*
X016283Y018032D01*
X014837Y019478D01*
X016283Y020924D01*
X017729Y019478D01*
G37*
G36*
X016283Y005433D02*
X014837Y006879D01*
X016283Y008325D01*
X017729Y006879D01*
X016283Y005433D01*
G37*
D12*
X008409Y005265D03*
X009000Y005265D03*
X009000Y005934D03*
X008409Y005934D03*
X012307Y006190D03*
X012307Y006683D03*
X012976Y006683D03*
X012976Y006190D03*
G36*
X014378Y005017D02*
X014683Y004712D01*
X014404Y004433D01*
X014099Y004738D01*
X014378Y005017D01*
G37*
G36*
X014851Y004544D02*
X015156Y004239D01*
X014877Y003960D01*
X014572Y004265D01*
X014851Y004544D01*
G37*
G36*
X019534Y005707D02*
X019229Y005402D01*
X018950Y005681D01*
X019255Y005986D01*
X019534Y005707D01*
G37*
G36*
X019882Y005359D02*
X019577Y005054D01*
X019298Y005333D01*
X019603Y005638D01*
X019882Y005359D01*
G37*
G36*
X020355Y005833D02*
X020050Y005528D01*
X019771Y005807D01*
X020076Y006112D01*
X020355Y005833D01*
G37*
G36*
X020007Y006181D02*
X019702Y005876D01*
X019423Y006155D01*
X019728Y006460D01*
X020007Y006181D01*
G37*
X022543Y008946D03*
X022543Y009438D03*
X022543Y009931D03*
X022543Y010423D03*
X022543Y010915D03*
X022543Y011407D03*
X023212Y011407D03*
X023212Y010915D03*
X023823Y010915D03*
X023823Y011407D03*
X024492Y011407D03*
X024492Y010915D03*
X024492Y010423D03*
X024492Y009931D03*
X023823Y009931D03*
X023823Y010423D03*
X023212Y010423D03*
X023212Y009931D03*
X023212Y009438D03*
X023823Y009438D03*
X024492Y009438D03*
X024492Y008946D03*
X023823Y008946D03*
X023212Y008946D03*
X024511Y007667D03*
X024511Y007175D03*
X025181Y007175D03*
X025181Y007667D03*
X029728Y007175D03*
X030397Y007175D03*
X030712Y004005D03*
X031382Y004005D03*
X031332Y010521D03*
X031332Y011013D03*
X030663Y011013D03*
X030663Y010521D03*
X025378Y012490D03*
X024708Y012490D03*
X024807Y013868D03*
X025476Y013868D03*
X025476Y014360D03*
X024807Y014360D03*
X024492Y016033D03*
X023823Y016033D03*
X023823Y016525D03*
X024492Y016525D03*
X024492Y017017D03*
X024492Y017509D03*
X023823Y017509D03*
X023823Y017017D03*
X023114Y017017D03*
X023114Y017509D03*
X022445Y017509D03*
X022445Y017017D03*
X022445Y016525D03*
X023114Y016525D03*
X023114Y016033D03*
X022445Y016033D03*
X022287Y014005D03*
X022287Y013336D03*
G36*
X017220Y010496D02*
X017525Y010191D01*
X017246Y009912D01*
X016941Y010217D01*
X017220Y010496D01*
G37*
G36*
X016746Y010969D02*
X017051Y010664D01*
X016772Y010385D01*
X016467Y010690D01*
X016746Y010969D01*
G37*
G36*
X015311Y010555D02*
X015616Y010250D01*
X015337Y009971D01*
X015032Y010276D01*
X015311Y010555D01*
G37*
G36*
X014838Y011028D02*
X015143Y010723D01*
X014864Y010444D01*
X014559Y010749D01*
X014838Y011028D01*
G37*
G36*
X014336Y011529D02*
X014641Y011224D01*
X014362Y010945D01*
X014057Y011250D01*
X014336Y011529D01*
G37*
G36*
X013863Y012002D02*
X014168Y011697D01*
X013889Y011418D01*
X013584Y011723D01*
X013863Y012002D01*
G37*
G36*
X013515Y011654D02*
X013820Y011349D01*
X013541Y011070D01*
X013236Y011375D01*
X013515Y011654D01*
G37*
G36*
X013167Y011306D02*
X013472Y011001D01*
X013193Y010722D01*
X012888Y011027D01*
X013167Y011306D01*
G37*
G36*
X012819Y010958D02*
X013124Y010653D01*
X012845Y010374D01*
X012540Y010679D01*
X012819Y010958D01*
G37*
G36*
X012471Y010610D02*
X012776Y010305D01*
X012497Y010026D01*
X012192Y010331D01*
X012471Y010610D01*
G37*
G36*
X012123Y010262D02*
X012428Y009957D01*
X012149Y009678D01*
X011844Y009983D01*
X012123Y010262D01*
G37*
G36*
X012945Y010137D02*
X013250Y009832D01*
X012971Y009553D01*
X012666Y009858D01*
X012945Y010137D01*
G37*
G36*
X013292Y010485D02*
X013597Y010180D01*
X013318Y009901D01*
X013013Y010206D01*
X013292Y010485D01*
G37*
G36*
X013640Y010833D02*
X013945Y010528D01*
X013666Y010249D01*
X013361Y010554D01*
X013640Y010833D01*
G37*
G36*
X013988Y011181D02*
X014293Y010876D01*
X014014Y010597D01*
X013709Y010902D01*
X013988Y011181D01*
G37*
G36*
X014490Y010680D02*
X014795Y010375D01*
X014516Y010096D01*
X014211Y010401D01*
X014490Y010680D01*
G37*
G36*
X014142Y010332D02*
X014447Y010027D01*
X014168Y009748D01*
X013863Y010053D01*
X014142Y010332D01*
G37*
G36*
X013794Y009984D02*
X014099Y009679D01*
X013820Y009400D01*
X013515Y009705D01*
X013794Y009984D01*
G37*
G36*
X013446Y009636D02*
X013751Y009331D01*
X013472Y009052D01*
X013167Y009357D01*
X013446Y009636D01*
G37*
G36*
X013098Y009288D02*
X013403Y008983D01*
X013124Y008704D01*
X012819Y009009D01*
X013098Y009288D01*
G37*
G36*
X012597Y009789D02*
X012902Y009484D01*
X012623Y009205D01*
X012318Y009510D01*
X012597Y009789D01*
G37*
G36*
X013919Y009163D02*
X014224Y008858D01*
X013945Y008579D01*
X013640Y008884D01*
X013919Y009163D01*
G37*
G36*
X014267Y009511D02*
X014572Y009206D01*
X014293Y008927D01*
X013988Y009232D01*
X014267Y009511D01*
G37*
G36*
X014615Y009859D02*
X014920Y009554D01*
X014641Y009275D01*
X014336Y009580D01*
X014615Y009859D01*
G37*
G36*
X014963Y010207D02*
X015268Y009902D01*
X014989Y009623D01*
X014684Y009928D01*
X014963Y010207D01*
G37*
G36*
X013571Y008815D02*
X013876Y008510D01*
X013597Y008231D01*
X013292Y008536D01*
X013571Y008815D01*
G37*
G36*
X012960Y015486D02*
X013265Y015791D01*
X013544Y015512D01*
X013239Y015207D01*
X012960Y015486D01*
G37*
G36*
X012612Y015834D02*
X012917Y016139D01*
X013196Y015860D01*
X012891Y015555D01*
X012612Y015834D01*
G37*
G36*
X012264Y016182D02*
X012569Y016487D01*
X012848Y016208D01*
X012543Y015903D01*
X012264Y016182D01*
G37*
G36*
X011916Y016530D02*
X012221Y016835D01*
X012500Y016556D01*
X012195Y016251D01*
X011916Y016530D01*
G37*
G36*
X011568Y016878D02*
X011873Y017183D01*
X012152Y016904D01*
X011847Y016599D01*
X011568Y016878D01*
G37*
G36*
X011220Y017226D02*
X011525Y017531D01*
X011804Y017252D01*
X011499Y016947D01*
X011220Y017226D01*
G37*
G36*
X011693Y017699D02*
X011998Y018004D01*
X012277Y017725D01*
X011972Y017420D01*
X011693Y017699D01*
G37*
G36*
X012041Y017351D02*
X012346Y017656D01*
X012625Y017377D01*
X012320Y017072D01*
X012041Y017351D01*
G37*
G36*
X012389Y017003D02*
X012694Y017308D01*
X012973Y017029D01*
X012668Y016724D01*
X012389Y017003D01*
G37*
G36*
X012821Y017435D02*
X013126Y017740D01*
X013405Y017461D01*
X013100Y017156D01*
X012821Y017435D01*
G37*
G36*
X012473Y017783D02*
X012778Y018088D01*
X013057Y017809D01*
X012752Y017504D01*
X012473Y017783D01*
G37*
G36*
X012125Y018131D02*
X012430Y018436D01*
X012709Y018157D01*
X012404Y017852D01*
X012125Y018131D01*
G37*
G36*
X012598Y018604D02*
X012903Y018909D01*
X013182Y018630D01*
X012877Y018325D01*
X012598Y018604D01*
G37*
G36*
X012946Y018256D02*
X013251Y018561D01*
X013530Y018282D01*
X013225Y017977D01*
X012946Y018256D01*
G37*
G36*
X013294Y017908D02*
X013599Y018213D01*
X013878Y017934D01*
X013573Y017629D01*
X013294Y017908D01*
G37*
G36*
X013642Y017560D02*
X013947Y017865D01*
X014226Y017586D01*
X013921Y017281D01*
X013642Y017560D01*
G37*
G36*
X013169Y017087D02*
X013474Y017392D01*
X013753Y017113D01*
X013448Y016808D01*
X013169Y017087D01*
G37*
G36*
X013517Y016739D02*
X013822Y017044D01*
X014101Y016765D01*
X013796Y016460D01*
X013517Y016739D01*
G37*
G36*
X012737Y016655D02*
X013042Y016960D01*
X013321Y016681D01*
X013016Y016376D01*
X012737Y016655D01*
G37*
G36*
X013085Y016307D02*
X013390Y016612D01*
X013669Y016333D01*
X013364Y016028D01*
X013085Y016307D01*
G37*
G36*
X013433Y015959D02*
X013738Y016264D01*
X014017Y015985D01*
X013712Y015680D01*
X013433Y015959D01*
G37*
G36*
X013865Y016391D02*
X014170Y016696D01*
X014449Y016417D01*
X014144Y016112D01*
X013865Y016391D01*
G37*
G36*
X014338Y016864D02*
X014643Y017169D01*
X014922Y016890D01*
X014617Y016585D01*
X014338Y016864D01*
G37*
G36*
X013990Y017212D02*
X014295Y017517D01*
X014574Y017238D01*
X014269Y016933D01*
X013990Y017212D01*
G37*
G36*
X015895Y015797D02*
X016200Y016102D01*
X016479Y015823D01*
X016174Y015518D01*
X015895Y015797D01*
G37*
G36*
X016214Y015478D02*
X016519Y015783D01*
X016798Y015504D01*
X016493Y015199D01*
X016214Y015478D01*
G37*
G36*
X016687Y015951D02*
X016992Y016256D01*
X017271Y015977D01*
X016966Y015672D01*
X016687Y015951D01*
G37*
G36*
X016368Y016271D02*
X016673Y016576D01*
X016952Y016297D01*
X016647Y015992D01*
X016368Y016271D01*
G37*
G36*
X019741Y019204D02*
X019436Y018899D01*
X019157Y019178D01*
X019462Y019483D01*
X019741Y019204D01*
G37*
G36*
X020215Y019677D02*
X019910Y019372D01*
X019631Y019651D01*
X019936Y019956D01*
X020215Y019677D01*
G37*
X022445Y018494D03*
X022445Y018001D03*
X023114Y018001D03*
X023114Y018494D03*
X023823Y018494D03*
X023823Y018001D03*
X024492Y018001D03*
X024492Y018494D03*
X024708Y019576D03*
X025378Y019576D03*
X018980Y021938D03*
X018980Y022431D03*
X018311Y022431D03*
X018311Y021938D03*
G36*
X012192Y019997D02*
X012497Y020302D01*
X012776Y020023D01*
X012471Y019718D01*
X012192Y019997D01*
G37*
G36*
X011719Y019523D02*
X012024Y019828D01*
X012303Y019549D01*
X011998Y019244D01*
X011719Y019523D01*
G37*
X009295Y020324D03*
X008704Y020324D03*
X008704Y020994D03*
X009295Y020994D03*
X030023Y014360D03*
X030693Y014360D03*
X034059Y018690D03*
X034728Y018690D03*
D13*
X024580Y015049D03*
X023832Y015049D03*
G36*
X015052Y016079D02*
X015414Y016441D01*
X015830Y016025D01*
X015468Y015663D01*
X015052Y016079D01*
G37*
G36*
X014523Y015550D02*
X014885Y015912D01*
X015301Y015496D01*
X014939Y015134D01*
X014523Y015550D01*
G37*
X012899Y007336D03*
X012151Y007336D03*
D14*
X026224Y007431D03*
X026421Y007431D03*
X026618Y007431D03*
X026815Y007431D03*
X027011Y007431D03*
X027208Y007431D03*
X027405Y007431D03*
X027602Y007431D03*
X027799Y007431D03*
X027996Y007431D03*
X028193Y007431D03*
X028389Y007431D03*
X028586Y007431D03*
X028783Y007431D03*
X028980Y007431D03*
X029177Y007431D03*
X029177Y011840D03*
X028980Y011840D03*
X028783Y011840D03*
X028586Y011840D03*
X028389Y011840D03*
X028193Y011840D03*
X027996Y011840D03*
X027799Y011840D03*
X027602Y011840D03*
X027405Y011840D03*
X027208Y011840D03*
X027011Y011840D03*
X026815Y011840D03*
X026618Y011840D03*
X026421Y011840D03*
X026224Y011840D03*
X026224Y014517D03*
X026421Y014517D03*
X026618Y014517D03*
X026815Y014517D03*
X027011Y014517D03*
X027208Y014517D03*
X027405Y014517D03*
X027602Y014517D03*
X027799Y014517D03*
X027996Y014517D03*
X028193Y014517D03*
X028389Y014517D03*
X028586Y014517D03*
X028783Y014517D03*
X028980Y014517D03*
X029177Y014517D03*
X029177Y018927D03*
X028980Y018927D03*
X028783Y018927D03*
X028586Y018927D03*
X028389Y018927D03*
X028193Y018927D03*
X027996Y018927D03*
X027799Y018927D03*
X027602Y018927D03*
X027405Y018927D03*
X027208Y018927D03*
X027011Y018927D03*
X026815Y018927D03*
X026618Y018927D03*
X026421Y018927D03*
X026224Y018927D03*
D15*
X027700Y016722D03*
X027700Y009635D03*
D16*
X025378Y011997D03*
X024708Y011997D03*
X023665Y012982D03*
X023665Y013651D03*
X020161Y016309D03*
X020161Y016978D03*
X024708Y019084D03*
X025378Y019084D03*
X031096Y017696D03*
X031588Y017696D03*
X031588Y017027D03*
X031096Y017027D03*
X031736Y020423D03*
X031736Y021092D03*
G36*
X015469Y011542D02*
X015748Y011263D01*
X015443Y010958D01*
X015164Y011237D01*
X015469Y011542D01*
G37*
G36*
X015942Y011069D02*
X016221Y010790D01*
X015916Y010485D01*
X015637Y010764D01*
X015942Y011069D01*
G37*
G36*
X012697Y019130D02*
X012418Y018851D01*
X012113Y019156D01*
X012392Y019435D01*
X012697Y019130D01*
G37*
G36*
X013170Y019603D02*
X012891Y019324D01*
X012586Y019629D01*
X012865Y019908D01*
X013170Y019603D01*
G37*
X031145Y007923D03*
X031145Y007253D03*
X031382Y006486D03*
X031382Y005895D03*
X030712Y005895D03*
X030712Y006486D03*
X030712Y005305D03*
X031382Y005305D03*
X031382Y004714D03*
X030712Y004714D03*
X037149Y004753D03*
X037149Y004084D03*
D17*
X038567Y009931D03*
X038567Y010127D03*
X038567Y010324D03*
X038567Y010521D03*
X038567Y010718D03*
X038567Y010915D03*
X038567Y011112D03*
X038567Y011309D03*
X038567Y011505D03*
X038567Y011702D03*
X038567Y011899D03*
X038567Y012096D03*
X038567Y012293D03*
X038567Y012490D03*
X038567Y012686D03*
X038567Y012883D03*
X038567Y013080D03*
X038567Y013277D03*
X038567Y013474D03*
X038567Y013671D03*
X033370Y013671D03*
X033370Y013474D03*
X033370Y013277D03*
X033370Y013080D03*
X033370Y012883D03*
X033370Y012686D03*
X033370Y012490D03*
X033370Y012293D03*
X033370Y012096D03*
X033370Y011899D03*
X033370Y011702D03*
X033370Y011505D03*
X033370Y011309D03*
X033370Y011112D03*
X033370Y010915D03*
X033370Y010718D03*
X033370Y010521D03*
X033370Y010324D03*
X033370Y010127D03*
X033370Y009931D03*
D18*
X034098Y009202D03*
X034295Y009202D03*
X034492Y009202D03*
X034689Y009202D03*
X034886Y009202D03*
X035082Y009202D03*
X035279Y009202D03*
X035476Y009202D03*
X035673Y009202D03*
X035870Y009202D03*
X036067Y009202D03*
X036263Y009202D03*
X036460Y009202D03*
X036657Y009202D03*
X036854Y009202D03*
X037051Y009202D03*
X037248Y009202D03*
X037445Y009202D03*
X037641Y009202D03*
X037838Y009202D03*
X037838Y014399D03*
X037641Y014399D03*
X037445Y014399D03*
X037248Y014399D03*
X037051Y014399D03*
X036854Y014399D03*
X036657Y014399D03*
X036460Y014399D03*
X036263Y014399D03*
X036067Y014399D03*
X035870Y014399D03*
X035673Y014399D03*
X035476Y014399D03*
X035279Y014399D03*
X035082Y014399D03*
X034886Y014399D03*
X034689Y014399D03*
X034492Y014399D03*
X034295Y014399D03*
X034098Y014399D03*
D19*
X032471Y007624D03*
X032471Y007124D03*
X032471Y006624D03*
X032471Y006124D03*
X032471Y005624D03*
X032471Y005124D03*
X032471Y004624D03*
X032471Y004124D03*
X036133Y004124D03*
X036133Y004624D03*
X036133Y005124D03*
X036133Y005624D03*
X036133Y006124D03*
X036133Y006624D03*
X036133Y007124D03*
X036133Y007624D03*
D20*
X040791Y008257D03*
X041382Y008257D03*
X041382Y018198D03*
X040791Y018198D03*
X018941Y016328D03*
X018350Y016328D03*
X018350Y014360D03*
X018941Y014360D03*
X018941Y012391D03*
X018350Y012391D03*
X018350Y010423D03*
X018941Y010423D03*
D21*
X034665Y016020D03*
X035165Y016020D03*
X035665Y016020D03*
X036165Y016020D03*
X037165Y016020D03*
X037665Y016020D03*
X037665Y017620D03*
X037165Y017620D03*
X036665Y017620D03*
X036165Y017620D03*
X035665Y017620D03*
X035165Y017620D03*
X034665Y017620D03*
D22*
X039531Y019871D03*
X039531Y020856D03*
X042445Y020856D03*
X042445Y019871D03*
D23*
X040647Y007190D03*
X040147Y007190D03*
X040147Y005190D03*
X040647Y005190D03*
D24*
X034590Y019419D03*
X034000Y019419D03*
X033409Y019419D03*
X032819Y019419D03*
D25*
X033704Y021899D03*
D26*
X026578Y021249D03*
X026578Y020757D03*
X026067Y020757D03*
X026067Y021249D03*
X026067Y020265D03*
X026578Y020265D03*
X026578Y019773D03*
X026067Y019773D03*
X026283Y006781D03*
X026067Y006328D03*
X026067Y005875D03*
X026578Y005875D03*
X026578Y006328D03*
X025771Y006781D03*
X026067Y005423D03*
X026578Y005423D03*
D27*
X026519Y012923D03*
X026027Y012923D03*
X026027Y013434D03*
X026519Y013434D03*
X027011Y013434D03*
X027504Y013434D03*
X027996Y013434D03*
X028488Y013434D03*
X028980Y013434D03*
X029472Y013434D03*
X029472Y012923D03*
X028980Y012923D03*
X028488Y012923D03*
X027996Y012923D03*
X027504Y012923D03*
X027011Y012923D03*
D28*
X035909Y020462D03*
X037011Y020462D03*
X037011Y021643D03*
X035909Y021643D03*
M02*
