G75*
G70*
%OFA0B0*%
%FSLAX24Y24*%
%IPPOS*%
%LPD*%
%AMOC8*
5,1,8,0,0,1.08239X$1,22.5*
%
%ADD10C,0.0946*%
%ADD11R,0.2559X0.2559*%
%ADD12C,0.0098*%
%ADD13R,0.0690X0.0178*%
%ADD14R,0.0513X0.0474*%
%ADD15R,0.0592X0.0671*%
%ADD16R,0.0178X0.0690*%
%ADD17R,0.0474X0.0513*%
%ADD18R,0.0710X0.0198*%
%ADD19R,0.0198X0.0710*%
%ADD20R,0.0867X0.0316*%
%ADD21R,0.0395X0.0395*%
%ADD22R,0.0370X0.1180*%
%ADD23C,0.0552*%
%ADD24R,0.0950X0.0552*%
%ADD25R,0.0379X0.0710*%
%ADD26C,0.0789*%
%ADD27C,0.1005*%
%ADD28C,0.1182*%
%ADD29C,0.0848*%
%ADD30R,0.0474X0.0671*%
%ADD31R,0.1379X0.0671*%
%ADD32R,0.0356X0.0434*%
%ADD33R,0.0434X0.0356*%
%ADD34R,0.0710X0.1143*%
%ADD35C,0.0430*%
%ADD36C,0.0830*%
D10*
X011165Y005305D03*
X022976Y005305D03*
X031637Y013179D03*
X022976Y021053D03*
X011165Y021053D03*
X011165Y013179D03*
D11*
X027700Y016722D03*
X027700Y009635D03*
D12*
X018055Y006879D02*
X016283Y008651D01*
X014511Y006879D01*
X016283Y005108D01*
X018055Y006879D01*
X018010Y006924D02*
X014556Y006924D01*
X014564Y006827D02*
X018002Y006827D01*
X017905Y006730D02*
X014661Y006730D01*
X014758Y006633D02*
X017808Y006633D01*
X017711Y006536D02*
X014855Y006536D01*
X014952Y006439D02*
X017614Y006439D01*
X017518Y006342D02*
X015049Y006342D01*
X015146Y006245D02*
X017421Y006245D01*
X017324Y006148D02*
X015243Y006148D01*
X015340Y006051D02*
X017227Y006051D01*
X017130Y005954D02*
X015437Y005954D01*
X015534Y005857D02*
X017033Y005857D01*
X016936Y005760D02*
X015631Y005760D01*
X015728Y005663D02*
X016839Y005663D01*
X016742Y005566D02*
X015825Y005566D01*
X015921Y005469D02*
X016645Y005469D01*
X016548Y005372D02*
X016018Y005372D01*
X016115Y005275D02*
X016451Y005275D01*
X016354Y005178D02*
X016212Y005178D01*
X014653Y007021D02*
X017913Y007021D01*
X017816Y007118D02*
X014750Y007118D01*
X014847Y007215D02*
X017719Y007215D01*
X017622Y007312D02*
X014944Y007312D01*
X015041Y007409D02*
X017525Y007409D01*
X017428Y007506D02*
X015138Y007506D01*
X015235Y007603D02*
X017331Y007603D01*
X017235Y007700D02*
X015332Y007700D01*
X015429Y007797D02*
X017138Y007797D01*
X017041Y007894D02*
X015526Y007894D01*
X015623Y007991D02*
X016944Y007991D01*
X016847Y008088D02*
X015720Y008088D01*
X015817Y008184D02*
X016750Y008184D01*
X016653Y008281D02*
X015914Y008281D01*
X016011Y008378D02*
X016556Y008378D01*
X016459Y008475D02*
X016108Y008475D01*
X016204Y008572D02*
X016362Y008572D01*
X016283Y017706D02*
X018055Y019478D01*
X016283Y021249D01*
X014511Y019478D01*
X016283Y017706D01*
X016205Y017784D02*
X016361Y017784D01*
X016458Y017881D02*
X016108Y017881D01*
X016011Y017978D02*
X016555Y017978D01*
X016652Y018075D02*
X015914Y018075D01*
X015817Y018172D02*
X016749Y018172D01*
X016846Y018269D02*
X015720Y018269D01*
X015623Y018366D02*
X016943Y018366D01*
X017040Y018463D02*
X015526Y018463D01*
X015429Y018560D02*
X017137Y018560D01*
X017234Y018657D02*
X015332Y018657D01*
X015235Y018754D02*
X017331Y018754D01*
X017428Y018851D02*
X015138Y018851D01*
X015041Y018948D02*
X017525Y018948D01*
X017622Y019045D02*
X014944Y019045D01*
X014847Y019142D02*
X017719Y019142D01*
X017816Y019239D02*
X014750Y019239D01*
X014653Y019336D02*
X017913Y019336D01*
X018010Y019433D02*
X014556Y019433D01*
X014564Y019530D02*
X018003Y019530D01*
X017906Y019627D02*
X014660Y019627D01*
X014757Y019724D02*
X017809Y019724D01*
X017712Y019821D02*
X014854Y019821D01*
X014951Y019918D02*
X017615Y019918D01*
X017518Y020015D02*
X015048Y020015D01*
X015145Y020112D02*
X017421Y020112D01*
X017324Y020209D02*
X015242Y020209D01*
X015339Y020306D02*
X017227Y020306D01*
X017130Y020403D02*
X015436Y020403D01*
X015533Y020499D02*
X017033Y020499D01*
X016936Y020596D02*
X015630Y020596D01*
X015727Y020693D02*
X016839Y020693D01*
X016742Y020790D02*
X015824Y020790D01*
X015921Y020887D02*
X016645Y020887D01*
X016548Y020984D02*
X016018Y020984D01*
X016115Y021081D02*
X016451Y021081D01*
X016354Y021178D02*
X016212Y021178D01*
D13*
G36*
X015671Y021496D02*
X015184Y021983D01*
X015309Y022108D01*
X015796Y021621D01*
X015671Y021496D01*
G37*
G36*
X015532Y021357D02*
X015045Y021844D01*
X015170Y021969D01*
X015657Y021482D01*
X015532Y021357D01*
G37*
G36*
X015392Y021218D02*
X014905Y021705D01*
X015030Y021830D01*
X015517Y021343D01*
X015392Y021218D01*
G37*
G36*
X015253Y021079D02*
X014766Y021566D01*
X014891Y021691D01*
X015378Y021204D01*
X015253Y021079D01*
G37*
G36*
X015114Y020940D02*
X014627Y021427D01*
X014752Y021552D01*
X015239Y021065D01*
X015114Y020940D01*
G37*
G36*
X014975Y020800D02*
X014488Y021287D01*
X014613Y021412D01*
X015100Y020925D01*
X014975Y020800D01*
G37*
G36*
X014836Y020661D02*
X014349Y021148D01*
X014474Y021273D01*
X014961Y020786D01*
X014836Y020661D01*
G37*
G36*
X014696Y020522D02*
X014209Y021009D01*
X014334Y021134D01*
X014821Y020647D01*
X014696Y020522D01*
G37*
G36*
X014557Y020383D02*
X014070Y020870D01*
X014195Y020995D01*
X014682Y020508D01*
X014557Y020383D01*
G37*
G36*
X014418Y020244D02*
X013931Y020731D01*
X014056Y020856D01*
X014543Y020369D01*
X014418Y020244D01*
G37*
G36*
X014279Y020104D02*
X013792Y020591D01*
X013917Y020716D01*
X014404Y020229D01*
X014279Y020104D01*
G37*
G36*
X014140Y019965D02*
X013653Y020452D01*
X013778Y020577D01*
X014265Y020090D01*
X014140Y019965D01*
G37*
G36*
X014000Y019826D02*
X013513Y020313D01*
X013638Y020438D01*
X014125Y019951D01*
X014000Y019826D01*
G37*
G36*
X013861Y019687D02*
X013374Y020174D01*
X013499Y020299D01*
X013986Y019812D01*
X013861Y019687D01*
G37*
G36*
X013986Y019144D02*
X013499Y018657D01*
X013374Y018782D01*
X013861Y019269D01*
X013986Y019144D01*
G37*
G36*
X014125Y019005D02*
X013638Y018518D01*
X013513Y018643D01*
X014000Y019130D01*
X014125Y019005D01*
G37*
G36*
X014265Y018865D02*
X013778Y018378D01*
X013653Y018503D01*
X014140Y018990D01*
X014265Y018865D01*
G37*
G36*
X014404Y018726D02*
X013917Y018239D01*
X013792Y018364D01*
X014279Y018851D01*
X014404Y018726D01*
G37*
G36*
X014543Y018587D02*
X014056Y018100D01*
X013931Y018225D01*
X014418Y018712D01*
X014543Y018587D01*
G37*
G36*
X014682Y018448D02*
X014195Y017961D01*
X014070Y018086D01*
X014557Y018573D01*
X014682Y018448D01*
G37*
G36*
X014821Y018309D02*
X014334Y017822D01*
X014209Y017947D01*
X014696Y018434D01*
X014821Y018309D01*
G37*
G36*
X014961Y018169D02*
X014474Y017682D01*
X014349Y017807D01*
X014836Y018294D01*
X014961Y018169D01*
G37*
G36*
X015100Y018030D02*
X014613Y017543D01*
X014488Y017668D01*
X014975Y018155D01*
X015100Y018030D01*
G37*
G36*
X015239Y017891D02*
X014752Y017404D01*
X014627Y017529D01*
X015114Y018016D01*
X015239Y017891D01*
G37*
G36*
X015378Y017752D02*
X014891Y017265D01*
X014766Y017390D01*
X015253Y017877D01*
X015378Y017752D01*
G37*
G36*
X015517Y017613D02*
X015030Y017126D01*
X014905Y017251D01*
X015392Y017738D01*
X015517Y017613D01*
G37*
G36*
X015657Y017473D02*
X015170Y016986D01*
X015045Y017111D01*
X015532Y017598D01*
X015657Y017473D01*
G37*
G36*
X015796Y017334D02*
X015309Y016847D01*
X015184Y016972D01*
X015671Y017459D01*
X015796Y017334D01*
G37*
G36*
X015935Y017195D02*
X015448Y016708D01*
X015323Y016833D01*
X015810Y017320D01*
X015935Y017195D01*
G37*
G36*
X016074Y017056D02*
X015587Y016569D01*
X015462Y016694D01*
X015949Y017181D01*
X016074Y017056D01*
G37*
G36*
X016617Y017181D02*
X017104Y016694D01*
X016979Y016569D01*
X016492Y017056D01*
X016617Y017181D01*
G37*
G36*
X016756Y017320D02*
X017243Y016833D01*
X017118Y016708D01*
X016631Y017195D01*
X016756Y017320D01*
G37*
G36*
X016896Y017459D02*
X017383Y016972D01*
X017258Y016847D01*
X016771Y017334D01*
X016896Y017459D01*
G37*
G36*
X017035Y017598D02*
X017522Y017111D01*
X017397Y016986D01*
X016910Y017473D01*
X017035Y017598D01*
G37*
G36*
X017174Y017738D02*
X017661Y017251D01*
X017536Y017126D01*
X017049Y017613D01*
X017174Y017738D01*
G37*
G36*
X017313Y017877D02*
X017800Y017390D01*
X017675Y017265D01*
X017188Y017752D01*
X017313Y017877D01*
G37*
G36*
X017452Y018016D02*
X017939Y017529D01*
X017814Y017404D01*
X017327Y017891D01*
X017452Y018016D01*
G37*
G36*
X017592Y018155D02*
X018079Y017668D01*
X017954Y017543D01*
X017467Y018030D01*
X017592Y018155D01*
G37*
G36*
X017731Y018294D02*
X018218Y017807D01*
X018093Y017682D01*
X017606Y018169D01*
X017731Y018294D01*
G37*
G36*
X017870Y018434D02*
X018357Y017947D01*
X018232Y017822D01*
X017745Y018309D01*
X017870Y018434D01*
G37*
G36*
X018009Y018573D02*
X018496Y018086D01*
X018371Y017961D01*
X017884Y018448D01*
X018009Y018573D01*
G37*
G36*
X018148Y018712D02*
X018635Y018225D01*
X018510Y018100D01*
X018023Y018587D01*
X018148Y018712D01*
G37*
G36*
X018287Y018851D02*
X018774Y018364D01*
X018649Y018239D01*
X018162Y018726D01*
X018287Y018851D01*
G37*
G36*
X018427Y018990D02*
X018914Y018503D01*
X018789Y018378D01*
X018302Y018865D01*
X018427Y018990D01*
G37*
G36*
X018566Y019130D02*
X019053Y018643D01*
X018928Y018518D01*
X018441Y019005D01*
X018566Y019130D01*
G37*
G36*
X018705Y019269D02*
X019192Y018782D01*
X019067Y018657D01*
X018580Y019144D01*
X018705Y019269D01*
G37*
G36*
X018580Y019812D02*
X019067Y020299D01*
X019192Y020174D01*
X018705Y019687D01*
X018580Y019812D01*
G37*
G36*
X018441Y019951D02*
X018928Y020438D01*
X019053Y020313D01*
X018566Y019826D01*
X018441Y019951D01*
G37*
G36*
X018302Y020090D02*
X018789Y020577D01*
X018914Y020452D01*
X018427Y019965D01*
X018302Y020090D01*
G37*
G36*
X018162Y020229D02*
X018649Y020716D01*
X018774Y020591D01*
X018287Y020104D01*
X018162Y020229D01*
G37*
G36*
X018023Y020369D02*
X018510Y020856D01*
X018635Y020731D01*
X018148Y020244D01*
X018023Y020369D01*
G37*
G36*
X017884Y020508D02*
X018371Y020995D01*
X018496Y020870D01*
X018009Y020383D01*
X017884Y020508D01*
G37*
G36*
X017745Y020647D02*
X018232Y021134D01*
X018357Y021009D01*
X017870Y020522D01*
X017745Y020647D01*
G37*
G36*
X017606Y020786D02*
X018093Y021273D01*
X018218Y021148D01*
X017731Y020661D01*
X017606Y020786D01*
G37*
G36*
X017467Y020925D02*
X017954Y021412D01*
X018079Y021287D01*
X017592Y020800D01*
X017467Y020925D01*
G37*
G36*
X017327Y021065D02*
X017814Y021552D01*
X017939Y021427D01*
X017452Y020940D01*
X017327Y021065D01*
G37*
G36*
X017188Y021204D02*
X017675Y021691D01*
X017800Y021566D01*
X017313Y021079D01*
X017188Y021204D01*
G37*
G36*
X017049Y021343D02*
X017536Y021830D01*
X017661Y021705D01*
X017174Y021218D01*
X017049Y021343D01*
G37*
G36*
X016910Y021482D02*
X017397Y021969D01*
X017522Y021844D01*
X017035Y021357D01*
X016910Y021482D01*
G37*
G36*
X016771Y021621D02*
X017258Y022108D01*
X017383Y021983D01*
X016896Y021496D01*
X016771Y021621D01*
G37*
G36*
X016631Y021760D02*
X017118Y022247D01*
X017243Y022122D01*
X016756Y021635D01*
X016631Y021760D01*
G37*
G36*
X016492Y021900D02*
X016979Y022387D01*
X017104Y022262D01*
X016617Y021775D01*
X016492Y021900D01*
G37*
G36*
X015949Y021775D02*
X015462Y022262D01*
X015587Y022387D01*
X016074Y021900D01*
X015949Y021775D01*
G37*
G36*
X015810Y021635D02*
X015323Y022122D01*
X015448Y022247D01*
X015935Y021760D01*
X015810Y021635D01*
G37*
X025496Y018198D03*
X025496Y018001D03*
X025496Y017805D03*
X025496Y017608D03*
X025496Y017411D03*
X025496Y017214D03*
X025496Y017017D03*
X025496Y016820D03*
X025496Y016623D03*
X025496Y016427D03*
X025496Y016230D03*
X025496Y016033D03*
X025496Y015836D03*
X025496Y015639D03*
X025496Y015442D03*
X025496Y015246D03*
X029905Y015246D03*
X029905Y015442D03*
X029905Y015639D03*
X029905Y015836D03*
X029905Y016033D03*
X029905Y016230D03*
X029905Y016427D03*
X029905Y016623D03*
X029905Y016820D03*
X029905Y017017D03*
X029905Y017214D03*
X029905Y017411D03*
X029905Y017608D03*
X029905Y017805D03*
X029905Y018001D03*
X029905Y018198D03*
X029905Y011112D03*
X029905Y010915D03*
X029905Y010718D03*
X029905Y010521D03*
X029905Y010324D03*
X029905Y010127D03*
X029905Y009931D03*
X029905Y009734D03*
X029905Y009537D03*
X029905Y009340D03*
X029905Y009143D03*
X029905Y008946D03*
X029905Y008749D03*
X029905Y008553D03*
X029905Y008356D03*
X029905Y008159D03*
X025496Y008159D03*
X025496Y008356D03*
X025496Y008553D03*
X025496Y008749D03*
X025496Y008946D03*
X025496Y009143D03*
X025496Y009340D03*
X025496Y009537D03*
X025496Y009734D03*
X025496Y009931D03*
X025496Y010127D03*
X025496Y010324D03*
X025496Y010521D03*
X025496Y010718D03*
X025496Y010915D03*
X025496Y011112D03*
G36*
X018580Y007213D02*
X019067Y007700D01*
X019192Y007575D01*
X018705Y007088D01*
X018580Y007213D01*
G37*
G36*
X018441Y007353D02*
X018928Y007840D01*
X019053Y007715D01*
X018566Y007228D01*
X018441Y007353D01*
G37*
G36*
X018302Y007492D02*
X018789Y007979D01*
X018914Y007854D01*
X018427Y007367D01*
X018302Y007492D01*
G37*
G36*
X018162Y007631D02*
X018649Y008118D01*
X018774Y007993D01*
X018287Y007506D01*
X018162Y007631D01*
G37*
G36*
X018023Y007770D02*
X018510Y008257D01*
X018635Y008132D01*
X018148Y007645D01*
X018023Y007770D01*
G37*
G36*
X017884Y007909D02*
X018371Y008396D01*
X018496Y008271D01*
X018009Y007784D01*
X017884Y007909D01*
G37*
G36*
X017745Y008049D02*
X018232Y008536D01*
X018357Y008411D01*
X017870Y007924D01*
X017745Y008049D01*
G37*
G36*
X017606Y008188D02*
X018093Y008675D01*
X018218Y008550D01*
X017731Y008063D01*
X017606Y008188D01*
G37*
G36*
X017467Y008327D02*
X017954Y008814D01*
X018079Y008689D01*
X017592Y008202D01*
X017467Y008327D01*
G37*
G36*
X017327Y008466D02*
X017814Y008953D01*
X017939Y008828D01*
X017452Y008341D01*
X017327Y008466D01*
G37*
G36*
X017188Y008605D02*
X017675Y009092D01*
X017800Y008967D01*
X017313Y008480D01*
X017188Y008605D01*
G37*
G36*
X017049Y008745D02*
X017536Y009232D01*
X017661Y009107D01*
X017174Y008620D01*
X017049Y008745D01*
G37*
G36*
X016910Y008884D02*
X017397Y009371D01*
X017522Y009246D01*
X017035Y008759D01*
X016910Y008884D01*
G37*
G36*
X016771Y009023D02*
X017258Y009510D01*
X017383Y009385D01*
X016896Y008898D01*
X016771Y009023D01*
G37*
G36*
X016631Y009162D02*
X017118Y009649D01*
X017243Y009524D01*
X016756Y009037D01*
X016631Y009162D01*
G37*
G36*
X016492Y009301D02*
X016979Y009788D01*
X017104Y009663D01*
X016617Y009176D01*
X016492Y009301D01*
G37*
G36*
X015949Y009176D02*
X015462Y009663D01*
X015587Y009788D01*
X016074Y009301D01*
X015949Y009176D01*
G37*
G36*
X015810Y009037D02*
X015323Y009524D01*
X015448Y009649D01*
X015935Y009162D01*
X015810Y009037D01*
G37*
G36*
X015671Y008898D02*
X015184Y009385D01*
X015309Y009510D01*
X015796Y009023D01*
X015671Y008898D01*
G37*
G36*
X015532Y008759D02*
X015045Y009246D01*
X015170Y009371D01*
X015657Y008884D01*
X015532Y008759D01*
G37*
G36*
X015392Y008620D02*
X014905Y009107D01*
X015030Y009232D01*
X015517Y008745D01*
X015392Y008620D01*
G37*
G36*
X015253Y008480D02*
X014766Y008967D01*
X014891Y009092D01*
X015378Y008605D01*
X015253Y008480D01*
G37*
G36*
X015114Y008341D02*
X014627Y008828D01*
X014752Y008953D01*
X015239Y008466D01*
X015114Y008341D01*
G37*
G36*
X014975Y008202D02*
X014488Y008689D01*
X014613Y008814D01*
X015100Y008327D01*
X014975Y008202D01*
G37*
G36*
X014836Y008063D02*
X014349Y008550D01*
X014474Y008675D01*
X014961Y008188D01*
X014836Y008063D01*
G37*
G36*
X014696Y007924D02*
X014209Y008411D01*
X014334Y008536D01*
X014821Y008049D01*
X014696Y007924D01*
G37*
G36*
X014557Y007784D02*
X014070Y008271D01*
X014195Y008396D01*
X014682Y007909D01*
X014557Y007784D01*
G37*
G36*
X014418Y007645D02*
X013931Y008132D01*
X014056Y008257D01*
X014543Y007770D01*
X014418Y007645D01*
G37*
G36*
X014279Y007506D02*
X013792Y007993D01*
X013917Y008118D01*
X014404Y007631D01*
X014279Y007506D01*
G37*
G36*
X014140Y007367D02*
X013653Y007854D01*
X013778Y007979D01*
X014265Y007492D01*
X014140Y007367D01*
G37*
G36*
X014000Y007228D02*
X013513Y007715D01*
X013638Y007840D01*
X014125Y007353D01*
X014000Y007228D01*
G37*
G36*
X013861Y007088D02*
X013374Y007575D01*
X013499Y007700D01*
X013986Y007213D01*
X013861Y007088D01*
G37*
G36*
X013986Y006545D02*
X013499Y006058D01*
X013374Y006183D01*
X013861Y006670D01*
X013986Y006545D01*
G37*
G36*
X014125Y006406D02*
X013638Y005919D01*
X013513Y006044D01*
X014000Y006531D01*
X014125Y006406D01*
G37*
G36*
X014265Y006267D02*
X013778Y005780D01*
X013653Y005905D01*
X014140Y006392D01*
X014265Y006267D01*
G37*
G36*
X014404Y006128D02*
X013917Y005641D01*
X013792Y005766D01*
X014279Y006253D01*
X014404Y006128D01*
G37*
G36*
X014543Y005989D02*
X014056Y005502D01*
X013931Y005627D01*
X014418Y006114D01*
X014543Y005989D01*
G37*
G36*
X014682Y005849D02*
X014195Y005362D01*
X014070Y005487D01*
X014557Y005974D01*
X014682Y005849D01*
G37*
G36*
X014821Y005710D02*
X014334Y005223D01*
X014209Y005348D01*
X014696Y005835D01*
X014821Y005710D01*
G37*
G36*
X014961Y005571D02*
X014474Y005084D01*
X014349Y005209D01*
X014836Y005696D01*
X014961Y005571D01*
G37*
G36*
X015100Y005432D02*
X014613Y004945D01*
X014488Y005070D01*
X014975Y005557D01*
X015100Y005432D01*
G37*
G36*
X015239Y005293D02*
X014752Y004806D01*
X014627Y004931D01*
X015114Y005418D01*
X015239Y005293D01*
G37*
G36*
X015378Y005153D02*
X014891Y004666D01*
X014766Y004791D01*
X015253Y005278D01*
X015378Y005153D01*
G37*
G36*
X015517Y005014D02*
X015030Y004527D01*
X014905Y004652D01*
X015392Y005139D01*
X015517Y005014D01*
G37*
G36*
X015657Y004875D02*
X015170Y004388D01*
X015045Y004513D01*
X015532Y005000D01*
X015657Y004875D01*
G37*
G36*
X015796Y004736D02*
X015309Y004249D01*
X015184Y004374D01*
X015671Y004861D01*
X015796Y004736D01*
G37*
G36*
X015935Y004597D02*
X015448Y004110D01*
X015323Y004235D01*
X015810Y004722D01*
X015935Y004597D01*
G37*
G36*
X016074Y004457D02*
X015587Y003970D01*
X015462Y004095D01*
X015949Y004582D01*
X016074Y004457D01*
G37*
G36*
X016617Y004582D02*
X017104Y004095D01*
X016979Y003970D01*
X016492Y004457D01*
X016617Y004582D01*
G37*
G36*
X016756Y004722D02*
X017243Y004235D01*
X017118Y004110D01*
X016631Y004597D01*
X016756Y004722D01*
G37*
G36*
X016896Y004861D02*
X017383Y004374D01*
X017258Y004249D01*
X016771Y004736D01*
X016896Y004861D01*
G37*
G36*
X017035Y005000D02*
X017522Y004513D01*
X017397Y004388D01*
X016910Y004875D01*
X017035Y005000D01*
G37*
G36*
X017174Y005139D02*
X017661Y004652D01*
X017536Y004527D01*
X017049Y005014D01*
X017174Y005139D01*
G37*
G36*
X017313Y005278D02*
X017800Y004791D01*
X017675Y004666D01*
X017188Y005153D01*
X017313Y005278D01*
G37*
G36*
X017452Y005418D02*
X017939Y004931D01*
X017814Y004806D01*
X017327Y005293D01*
X017452Y005418D01*
G37*
G36*
X017592Y005557D02*
X018079Y005070D01*
X017954Y004945D01*
X017467Y005432D01*
X017592Y005557D01*
G37*
G36*
X017731Y005696D02*
X018218Y005209D01*
X018093Y005084D01*
X017606Y005571D01*
X017731Y005696D01*
G37*
G36*
X017870Y005835D02*
X018357Y005348D01*
X018232Y005223D01*
X017745Y005710D01*
X017870Y005835D01*
G37*
G36*
X018009Y005974D02*
X018496Y005487D01*
X018371Y005362D01*
X017884Y005849D01*
X018009Y005974D01*
G37*
G36*
X018148Y006114D02*
X018635Y005627D01*
X018510Y005502D01*
X018023Y005989D01*
X018148Y006114D01*
G37*
G36*
X018287Y006253D02*
X018774Y005766D01*
X018649Y005641D01*
X018162Y006128D01*
X018287Y006253D01*
G37*
G36*
X018427Y006392D02*
X018914Y005905D01*
X018789Y005780D01*
X018302Y006267D01*
X018427Y006392D01*
G37*
G36*
X018566Y006531D02*
X019053Y006044D01*
X018928Y005919D01*
X018441Y006406D01*
X018566Y006531D01*
G37*
G36*
X018705Y006670D02*
X019192Y006183D01*
X019067Y006058D01*
X018580Y006545D01*
X018705Y006670D01*
G37*
D14*
G36*
X020063Y006181D02*
X019702Y005820D01*
X019367Y006155D01*
X019728Y006516D01*
X020063Y006181D01*
G37*
G36*
X020411Y005833D02*
X020050Y005472D01*
X019715Y005807D01*
X020076Y006168D01*
X020411Y005833D01*
G37*
G36*
X019938Y005359D02*
X019577Y004998D01*
X019242Y005333D01*
X019603Y005694D01*
X019938Y005359D01*
G37*
G36*
X019590Y005707D02*
X019229Y005346D01*
X018894Y005681D01*
X019255Y006042D01*
X019590Y005707D01*
G37*
X024511Y007175D03*
X024511Y007667D03*
X025181Y007667D03*
X025181Y007175D03*
X024492Y008946D03*
X023823Y008946D03*
X023212Y008946D03*
X023212Y009438D03*
X023823Y009438D03*
X024492Y009438D03*
X024492Y009931D03*
X024492Y010423D03*
X023823Y010423D03*
X023823Y009931D03*
X023212Y009931D03*
X023212Y010423D03*
X023212Y010915D03*
X023212Y011407D03*
X023823Y011407D03*
X023823Y010915D03*
X024492Y010915D03*
X024492Y011407D03*
X024708Y012490D03*
X025378Y012490D03*
X025476Y013868D03*
X024807Y013868D03*
X024807Y014360D03*
X025476Y014360D03*
X024492Y016033D03*
X023823Y016033D03*
X023823Y016525D03*
X024492Y016525D03*
X024492Y017017D03*
X024492Y017509D03*
X023823Y017509D03*
X023823Y017017D03*
X023114Y017017D03*
X023114Y017509D03*
X022445Y017509D03*
X022445Y017017D03*
X022445Y016525D03*
X023114Y016525D03*
X023114Y016033D03*
X022445Y016033D03*
X022287Y014005D03*
X022287Y013336D03*
X022543Y011407D03*
X022543Y010915D03*
X022543Y010423D03*
X022543Y009931D03*
X022543Y009438D03*
X022543Y008946D03*
G36*
X017220Y010552D02*
X017581Y010191D01*
X017246Y009856D01*
X016885Y010217D01*
X017220Y010552D01*
G37*
G36*
X016746Y011025D02*
X017107Y010664D01*
X016772Y010329D01*
X016411Y010690D01*
X016746Y011025D01*
G37*
G36*
X015311Y010611D02*
X015672Y010250D01*
X015337Y009915D01*
X014976Y010276D01*
X015311Y010611D01*
G37*
G36*
X014838Y011084D02*
X015199Y010723D01*
X014864Y010388D01*
X014503Y010749D01*
X014838Y011084D01*
G37*
G36*
X014336Y011585D02*
X014697Y011224D01*
X014362Y010889D01*
X014001Y011250D01*
X014336Y011585D01*
G37*
G36*
X013863Y012058D02*
X014224Y011697D01*
X013889Y011362D01*
X013528Y011723D01*
X013863Y012058D01*
G37*
G36*
X013515Y011710D02*
X013876Y011349D01*
X013541Y011014D01*
X013180Y011375D01*
X013515Y011710D01*
G37*
G36*
X013167Y011362D02*
X013528Y011001D01*
X013193Y010666D01*
X012832Y011027D01*
X013167Y011362D01*
G37*
G36*
X012819Y011014D02*
X013180Y010653D01*
X012845Y010318D01*
X012484Y010679D01*
X012819Y011014D01*
G37*
G36*
X012471Y010666D02*
X012832Y010305D01*
X012497Y009970D01*
X012136Y010331D01*
X012471Y010666D01*
G37*
G36*
X012123Y010318D02*
X012484Y009957D01*
X012149Y009622D01*
X011788Y009983D01*
X012123Y010318D01*
G37*
G36*
X012945Y010193D02*
X013306Y009832D01*
X012971Y009497D01*
X012610Y009858D01*
X012945Y010193D01*
G37*
G36*
X013292Y010541D02*
X013653Y010180D01*
X013318Y009845D01*
X012957Y010206D01*
X013292Y010541D01*
G37*
G36*
X013640Y010889D02*
X014001Y010528D01*
X013666Y010193D01*
X013305Y010554D01*
X013640Y010889D01*
G37*
G36*
X013988Y011237D02*
X014349Y010876D01*
X014014Y010541D01*
X013653Y010902D01*
X013988Y011237D01*
G37*
G36*
X014490Y010736D02*
X014851Y010375D01*
X014516Y010040D01*
X014155Y010401D01*
X014490Y010736D01*
G37*
G36*
X014142Y010388D02*
X014503Y010027D01*
X014168Y009692D01*
X013807Y010053D01*
X014142Y010388D01*
G37*
G36*
X013794Y010040D02*
X014155Y009679D01*
X013820Y009344D01*
X013459Y009705D01*
X013794Y010040D01*
G37*
G36*
X013446Y009692D02*
X013807Y009331D01*
X013472Y008996D01*
X013111Y009357D01*
X013446Y009692D01*
G37*
G36*
X013098Y009344D02*
X013459Y008983D01*
X013124Y008648D01*
X012763Y009009D01*
X013098Y009344D01*
G37*
G36*
X012597Y009845D02*
X012958Y009484D01*
X012623Y009149D01*
X012262Y009510D01*
X012597Y009845D01*
G37*
G36*
X013919Y009219D02*
X014280Y008858D01*
X013945Y008523D01*
X013584Y008884D01*
X013919Y009219D01*
G37*
G36*
X014267Y009567D02*
X014628Y009206D01*
X014293Y008871D01*
X013932Y009232D01*
X014267Y009567D01*
G37*
G36*
X014615Y009915D02*
X014976Y009554D01*
X014641Y009219D01*
X014280Y009580D01*
X014615Y009915D01*
G37*
G36*
X014963Y010263D02*
X015324Y009902D01*
X014989Y009567D01*
X014628Y009928D01*
X014963Y010263D01*
G37*
G36*
X013571Y008871D02*
X013932Y008510D01*
X013597Y008175D01*
X013236Y008536D01*
X013571Y008871D01*
G37*
X012976Y006683D03*
X012976Y006190D03*
X012307Y006190D03*
X012307Y006683D03*
G36*
X014378Y005073D02*
X014739Y004712D01*
X014404Y004377D01*
X014043Y004738D01*
X014378Y005073D01*
G37*
G36*
X014851Y004600D02*
X015212Y004239D01*
X014877Y003904D01*
X014516Y004265D01*
X014851Y004600D01*
G37*
X009000Y005265D03*
X008409Y005265D03*
X008409Y005934D03*
X009000Y005934D03*
G36*
X012904Y015486D02*
X013265Y015847D01*
X013600Y015512D01*
X013239Y015151D01*
X012904Y015486D01*
G37*
G36*
X012556Y015834D02*
X012917Y016195D01*
X013252Y015860D01*
X012891Y015499D01*
X012556Y015834D01*
G37*
G36*
X012208Y016182D02*
X012569Y016543D01*
X012904Y016208D01*
X012543Y015847D01*
X012208Y016182D01*
G37*
G36*
X011860Y016530D02*
X012221Y016891D01*
X012556Y016556D01*
X012195Y016195D01*
X011860Y016530D01*
G37*
G36*
X011512Y016878D02*
X011873Y017239D01*
X012208Y016904D01*
X011847Y016543D01*
X011512Y016878D01*
G37*
G36*
X011164Y017226D02*
X011525Y017587D01*
X011860Y017252D01*
X011499Y016891D01*
X011164Y017226D01*
G37*
G36*
X011637Y017699D02*
X011998Y018060D01*
X012333Y017725D01*
X011972Y017364D01*
X011637Y017699D01*
G37*
G36*
X011985Y017351D02*
X012346Y017712D01*
X012681Y017377D01*
X012320Y017016D01*
X011985Y017351D01*
G37*
G36*
X012333Y017003D02*
X012694Y017364D01*
X013029Y017029D01*
X012668Y016668D01*
X012333Y017003D01*
G37*
G36*
X012681Y016655D02*
X013042Y017016D01*
X013377Y016681D01*
X013016Y016320D01*
X012681Y016655D01*
G37*
G36*
X013029Y016307D02*
X013390Y016668D01*
X013725Y016333D01*
X013364Y015972D01*
X013029Y016307D01*
G37*
G36*
X013377Y015959D02*
X013738Y016320D01*
X014073Y015985D01*
X013712Y015624D01*
X013377Y015959D01*
G37*
G36*
X013809Y016391D02*
X014170Y016752D01*
X014505Y016417D01*
X014144Y016056D01*
X013809Y016391D01*
G37*
G36*
X013461Y016739D02*
X013822Y017100D01*
X014157Y016765D01*
X013796Y016404D01*
X013461Y016739D01*
G37*
G36*
X013113Y017087D02*
X013474Y017448D01*
X013809Y017113D01*
X013448Y016752D01*
X013113Y017087D01*
G37*
G36*
X012765Y017435D02*
X013126Y017796D01*
X013461Y017461D01*
X013100Y017100D01*
X012765Y017435D01*
G37*
G36*
X012417Y017783D02*
X012778Y018144D01*
X013113Y017809D01*
X012752Y017448D01*
X012417Y017783D01*
G37*
G36*
X012069Y018131D02*
X012430Y018492D01*
X012765Y018157D01*
X012404Y017796D01*
X012069Y018131D01*
G37*
G36*
X012542Y018604D02*
X012903Y018965D01*
X013238Y018630D01*
X012877Y018269D01*
X012542Y018604D01*
G37*
G36*
X012890Y018256D02*
X013251Y018617D01*
X013586Y018282D01*
X013225Y017921D01*
X012890Y018256D01*
G37*
G36*
X013238Y017908D02*
X013599Y018269D01*
X013934Y017934D01*
X013573Y017573D01*
X013238Y017908D01*
G37*
G36*
X013586Y017560D02*
X013947Y017921D01*
X014282Y017586D01*
X013921Y017225D01*
X013586Y017560D01*
G37*
G36*
X013934Y017212D02*
X014295Y017573D01*
X014630Y017238D01*
X014269Y016877D01*
X013934Y017212D01*
G37*
G36*
X014282Y016864D02*
X014643Y017225D01*
X014978Y016890D01*
X014617Y016529D01*
X014282Y016864D01*
G37*
G36*
X015839Y015797D02*
X016200Y016158D01*
X016535Y015823D01*
X016174Y015462D01*
X015839Y015797D01*
G37*
G36*
X016158Y015478D02*
X016519Y015839D01*
X016854Y015504D01*
X016493Y015143D01*
X016158Y015478D01*
G37*
G36*
X016631Y015951D02*
X016992Y016312D01*
X017327Y015977D01*
X016966Y015616D01*
X016631Y015951D01*
G37*
G36*
X016312Y016271D02*
X016673Y016632D01*
X017008Y016297D01*
X016647Y015936D01*
X016312Y016271D01*
G37*
G36*
X019797Y019204D02*
X019436Y018843D01*
X019101Y019178D01*
X019462Y019539D01*
X019797Y019204D01*
G37*
G36*
X020271Y019677D02*
X019910Y019316D01*
X019575Y019651D01*
X019936Y020012D01*
X020271Y019677D01*
G37*
X022445Y018494D03*
X022445Y018001D03*
X023114Y018001D03*
X023114Y018494D03*
X023823Y018494D03*
X023823Y018001D03*
X024492Y018001D03*
X024492Y018494D03*
X024708Y019576D03*
X025378Y019576D03*
X018980Y021938D03*
X018980Y022431D03*
X018311Y022431D03*
X018311Y021938D03*
G36*
X012136Y019997D02*
X012497Y020358D01*
X012832Y020023D01*
X012471Y019662D01*
X012136Y019997D01*
G37*
G36*
X011663Y019523D02*
X012024Y019884D01*
X012359Y019549D01*
X011998Y019188D01*
X011663Y019523D01*
G37*
X009295Y020324D03*
X008704Y020324D03*
X008704Y020994D03*
X009295Y020994D03*
X030023Y014360D03*
X030693Y014360D03*
X030663Y011013D03*
X030663Y010521D03*
X031332Y010521D03*
X031332Y011013D03*
X030397Y007175D03*
X029728Y007175D03*
X030712Y004005D03*
X031382Y004005D03*
X034059Y018690D03*
X034728Y018690D03*
D15*
X024580Y015049D03*
X023832Y015049D03*
G36*
X014995Y016079D02*
X015414Y016498D01*
X015887Y016025D01*
X015468Y015606D01*
X014995Y016079D01*
G37*
G36*
X014466Y015550D02*
X014885Y015969D01*
X015358Y015496D01*
X014939Y015077D01*
X014466Y015550D01*
G37*
X012899Y007336D03*
X012151Y007336D03*
D16*
X026224Y007431D03*
X026421Y007431D03*
X026618Y007431D03*
X026815Y007431D03*
X027011Y007431D03*
X027208Y007431D03*
X027405Y007431D03*
X027602Y007431D03*
X027799Y007431D03*
X027996Y007431D03*
X028193Y007431D03*
X028389Y007431D03*
X028586Y007431D03*
X028783Y007431D03*
X028980Y007431D03*
X029177Y007431D03*
X029177Y011840D03*
X028980Y011840D03*
X028783Y011840D03*
X028586Y011840D03*
X028389Y011840D03*
X028193Y011840D03*
X027996Y011840D03*
X027799Y011840D03*
X027602Y011840D03*
X027405Y011840D03*
X027208Y011840D03*
X027011Y011840D03*
X026815Y011840D03*
X026618Y011840D03*
X026421Y011840D03*
X026224Y011840D03*
X026224Y014517D03*
X026421Y014517D03*
X026618Y014517D03*
X026815Y014517D03*
X027011Y014517D03*
X027208Y014517D03*
X027405Y014517D03*
X027602Y014517D03*
X027799Y014517D03*
X027996Y014517D03*
X028193Y014517D03*
X028389Y014517D03*
X028586Y014517D03*
X028783Y014517D03*
X028980Y014517D03*
X029177Y014517D03*
X029177Y018927D03*
X028980Y018927D03*
X028783Y018927D03*
X028586Y018927D03*
X028389Y018927D03*
X028193Y018927D03*
X027996Y018927D03*
X027799Y018927D03*
X027602Y018927D03*
X027405Y018927D03*
X027208Y018927D03*
X027011Y018927D03*
X026815Y018927D03*
X026618Y018927D03*
X026421Y018927D03*
X026224Y018927D03*
D17*
X025378Y019084D03*
X024708Y019084D03*
X020161Y016978D03*
X020161Y016309D03*
X023665Y013651D03*
X023665Y012982D03*
X024708Y011997D03*
X025378Y011997D03*
X031145Y007923D03*
X031145Y007253D03*
X031382Y006486D03*
X031382Y005895D03*
X030712Y005895D03*
X030712Y006486D03*
X030712Y005305D03*
X031382Y005305D03*
X031382Y004714D03*
X030712Y004714D03*
X037149Y004753D03*
X037149Y004084D03*
X031588Y017027D03*
X031096Y017027D03*
X031096Y017696D03*
X031588Y017696D03*
X031736Y020423D03*
X031736Y021092D03*
G36*
X015469Y011598D02*
X015804Y011263D01*
X015443Y010902D01*
X015108Y011237D01*
X015469Y011598D01*
G37*
G36*
X015942Y011125D02*
X016277Y010790D01*
X015916Y010429D01*
X015581Y010764D01*
X015942Y011125D01*
G37*
G36*
X012753Y019130D02*
X012418Y018795D01*
X012057Y019156D01*
X012392Y019491D01*
X012753Y019130D01*
G37*
G36*
X013226Y019603D02*
X012891Y019268D01*
X012530Y019629D01*
X012865Y019964D01*
X013226Y019603D01*
G37*
D18*
X033370Y013671D03*
X033370Y013474D03*
X033370Y013277D03*
X033370Y013080D03*
X033370Y012883D03*
X033370Y012686D03*
X033370Y012490D03*
X033370Y012293D03*
X033370Y012096D03*
X033370Y011899D03*
X033370Y011702D03*
X033370Y011505D03*
X033370Y011309D03*
X033370Y011112D03*
X033370Y010915D03*
X033370Y010718D03*
X033370Y010521D03*
X033370Y010324D03*
X033370Y010127D03*
X033370Y009931D03*
X038567Y009931D03*
X038567Y010127D03*
X038567Y010324D03*
X038567Y010521D03*
X038567Y010718D03*
X038567Y010915D03*
X038567Y011112D03*
X038567Y011309D03*
X038567Y011505D03*
X038567Y011702D03*
X038567Y011899D03*
X038567Y012096D03*
X038567Y012293D03*
X038567Y012490D03*
X038567Y012686D03*
X038567Y012883D03*
X038567Y013080D03*
X038567Y013277D03*
X038567Y013474D03*
X038567Y013671D03*
D19*
X037838Y014399D03*
X037641Y014399D03*
X037445Y014399D03*
X037248Y014399D03*
X037051Y014399D03*
X036854Y014399D03*
X036657Y014399D03*
X036460Y014399D03*
X036263Y014399D03*
X036067Y014399D03*
X035870Y014399D03*
X035673Y014399D03*
X035476Y014399D03*
X035279Y014399D03*
X035082Y014399D03*
X034886Y014399D03*
X034689Y014399D03*
X034492Y014399D03*
X034295Y014399D03*
X034098Y014399D03*
X034098Y009202D03*
X034295Y009202D03*
X034492Y009202D03*
X034689Y009202D03*
X034886Y009202D03*
X035082Y009202D03*
X035279Y009202D03*
X035476Y009202D03*
X035673Y009202D03*
X035870Y009202D03*
X036067Y009202D03*
X036263Y009202D03*
X036460Y009202D03*
X036657Y009202D03*
X036854Y009202D03*
X037051Y009202D03*
X037248Y009202D03*
X037445Y009202D03*
X037641Y009202D03*
X037838Y009202D03*
D20*
X036133Y007624D03*
X036133Y007124D03*
X036133Y006624D03*
X036133Y006124D03*
X036133Y005624D03*
X036133Y005124D03*
X036133Y004624D03*
X036133Y004124D03*
X032471Y004124D03*
X032471Y004624D03*
X032471Y005124D03*
X032471Y005624D03*
X032471Y006124D03*
X032471Y006624D03*
X032471Y007124D03*
X032471Y007624D03*
D21*
X040791Y008257D03*
X041382Y008257D03*
X041382Y018198D03*
X040791Y018198D03*
X018941Y016328D03*
X018350Y016328D03*
X018350Y014360D03*
X018941Y014360D03*
X018941Y012391D03*
X018350Y012391D03*
X018350Y010423D03*
X018941Y010423D03*
D22*
X034665Y016020D03*
X035165Y016020D03*
X035665Y016020D03*
X036165Y016020D03*
X037165Y016020D03*
X037665Y016020D03*
X037665Y017620D03*
X037165Y017620D03*
X036665Y017620D03*
X036165Y017620D03*
X035665Y017620D03*
X035165Y017620D03*
X034665Y017620D03*
D23*
X006637Y004911D03*
X007622Y004911D03*
X007622Y005698D03*
X007622Y006486D03*
X006637Y006486D03*
X006637Y005698D03*
X006637Y007273D03*
X007622Y007273D03*
X007622Y008060D03*
X007622Y008848D03*
X006637Y008848D03*
X006637Y008060D03*
X006637Y009635D03*
X006637Y010423D03*
X007622Y010423D03*
X007622Y009635D03*
X007622Y011210D03*
X007622Y011997D03*
X006637Y011997D03*
X006637Y011210D03*
X006637Y014360D03*
X007622Y014360D03*
X007622Y015147D03*
X007622Y015934D03*
X006637Y015934D03*
X006637Y015147D03*
X006637Y016722D03*
X006637Y017509D03*
X007622Y017509D03*
X007622Y016722D03*
X007622Y018297D03*
X007622Y019084D03*
X006637Y019084D03*
X006637Y018297D03*
X006637Y019871D03*
X006637Y020659D03*
X007622Y020659D03*
X007622Y019871D03*
X007622Y021446D03*
X006637Y021446D03*
D24*
X039531Y020856D03*
X039531Y019871D03*
X042445Y019871D03*
X042445Y020856D03*
D25*
X040647Y007190D03*
X040147Y007190D03*
X040147Y005190D03*
X040647Y005190D03*
D26*
X040390Y012483D03*
X041086Y013179D03*
X040390Y013875D03*
X041782Y013875D03*
X041782Y012483D03*
D27*
X041086Y010226D03*
X041086Y016131D03*
D28*
X042661Y016131D03*
X042661Y010226D03*
D29*
X042661Y013179D03*
D30*
X034590Y019419D03*
X034000Y019419D03*
X033409Y019419D03*
X032819Y019419D03*
D31*
X033704Y021899D03*
D32*
X026578Y021249D03*
X026578Y020757D03*
X026067Y020757D03*
X026067Y021249D03*
X026067Y020265D03*
X026578Y020265D03*
X026578Y019773D03*
X026067Y019773D03*
X026283Y006781D03*
X026067Y006328D03*
X026067Y005875D03*
X026578Y005875D03*
X026578Y006328D03*
X025771Y006781D03*
X026067Y005423D03*
X026578Y005423D03*
D33*
X026519Y012923D03*
X026027Y012923D03*
X026027Y013434D03*
X026519Y013434D03*
X027011Y013434D03*
X027504Y013434D03*
X027996Y013434D03*
X028488Y013434D03*
X028980Y013434D03*
X029472Y013434D03*
X029472Y012923D03*
X028980Y012923D03*
X028488Y012923D03*
X027996Y012923D03*
X027504Y012923D03*
X027011Y012923D03*
D34*
X035909Y020462D03*
X037011Y020462D03*
X037011Y021643D03*
X035909Y021643D03*
D35*
X039118Y021840D03*
X031539Y019576D03*
X032326Y016427D03*
X031539Y016131D03*
X032326Y015541D03*
X031539Y015246D03*
X032326Y009537D03*
X031539Y009242D03*
X032326Y008749D03*
X031539Y008454D03*
X034295Y008454D03*
X035181Y008454D03*
X038626Y006978D03*
X039118Y007864D03*
X038626Y005403D03*
X041972Y004616D03*
X030161Y003927D03*
X028882Y004714D03*
X020319Y004714D03*
X018350Y004123D03*
X011067Y007667D03*
X009000Y006781D03*
X010082Y004123D03*
X017071Y011899D03*
X017760Y013868D03*
X019334Y015344D03*
X020712Y013572D03*
X019531Y020659D03*
X020319Y021053D03*
X020319Y021840D03*
X019531Y021446D03*
X008606Y014655D03*
D36*
X030578Y022348D03*
X041094Y022336D03*
X042094Y022336D03*
X040110Y003942D03*
M02*
