G75*
G70*
%OFA0B0*%
%FSLAX24Y24*%
%IPPOS*%
%LPD*%
%AMOC8*
5,1,8,0,0,1.08239X$1,22.5*
%
%ADD10C,0.0040*%
%ADD11C,0.0070*%
%ADD12C,0.0060*%
%ADD13C,0.0160*%
%ADD14C,0.0090*%
%ADD15C,0.0098*%
%ADD16C,0.0039*%
%ADD17C,0.0120*%
%ADD18C,0.0050*%
%ADD19C,0.0059*%
%ADD20R,0.0118X0.0059*%
%ADD21R,0.0118X0.0118*%
%ADD22C,0.0236*%
%ADD23C,0.0020*%
%ADD24C,0.0295*%
D10*
X029830Y022044D02*
X030000Y022044D01*
X029915Y021958D02*
X029915Y022129D01*
X029915Y022230D02*
X029872Y022315D01*
X029872Y022358D01*
X029915Y022401D01*
X030000Y022401D01*
X030043Y022358D01*
X030043Y022273D01*
X030000Y022230D01*
X029915Y022230D02*
X029787Y022230D01*
X029787Y022401D01*
X029787Y022502D02*
X029958Y022502D01*
X030043Y022587D01*
X029958Y022672D01*
X029787Y022672D01*
X040220Y022630D02*
X040220Y022502D01*
X040476Y022502D01*
X040476Y022630D01*
X040433Y022672D01*
X040263Y022672D01*
X040220Y022630D01*
X040220Y022401D02*
X040476Y022401D01*
X040220Y022230D01*
X040476Y022230D01*
X040433Y022129D02*
X040348Y022129D01*
X040348Y022044D01*
X040263Y022129D02*
X040220Y022086D01*
X040220Y022001D01*
X040263Y021958D01*
X040433Y021958D01*
X040476Y022001D01*
X040476Y022086D01*
X040433Y022129D01*
X042779Y022217D02*
X043035Y022217D01*
X043035Y022132D02*
X043035Y022302D01*
X043035Y022404D02*
X042864Y022574D01*
X042822Y022574D01*
X042779Y022531D01*
X042779Y022446D01*
X042822Y022404D01*
X042779Y022217D02*
X042864Y022132D01*
X042907Y022030D02*
X042907Y021860D01*
X042822Y021945D02*
X042992Y021945D01*
X043035Y022404D02*
X043035Y022574D01*
X042950Y022676D02*
X043035Y022761D01*
X042950Y022846D01*
X042779Y022846D01*
X042779Y022676D02*
X042950Y022676D01*
X041947Y017883D02*
X041777Y017628D01*
X041947Y017628D02*
X041777Y017883D01*
X041675Y017883D02*
X041505Y017883D01*
X041590Y017883D02*
X041590Y017628D01*
X041131Y017628D02*
X041131Y017883D01*
X040961Y017883D02*
X041131Y017628D01*
X040961Y017628D02*
X040961Y017883D01*
X040859Y017798D02*
X040859Y017628D01*
X040859Y017755D02*
X040689Y017755D01*
X040689Y017798D02*
X040774Y017883D01*
X040859Y017798D01*
X040689Y017798D02*
X040689Y017628D01*
X040588Y017670D02*
X040545Y017628D01*
X040460Y017628D01*
X040417Y017670D01*
X040417Y017841D01*
X040460Y017883D01*
X040545Y017883D01*
X040588Y017841D01*
X039393Y005865D02*
X039138Y005865D01*
X039138Y005695D02*
X039393Y005865D01*
X039393Y005695D02*
X039138Y005695D01*
X039180Y005593D02*
X039138Y005551D01*
X039138Y005466D01*
X039180Y005423D01*
X039351Y005423D01*
X039393Y005466D01*
X039393Y005551D01*
X039351Y005593D01*
X039180Y005593D01*
X039377Y004539D02*
X039420Y004539D01*
X039462Y004496D01*
X039505Y004539D01*
X039547Y004539D01*
X039590Y004496D01*
X039590Y004411D01*
X039547Y004368D01*
X039505Y004267D02*
X039334Y004267D01*
X039377Y004368D02*
X039334Y004411D01*
X039334Y004496D01*
X039377Y004539D01*
X039462Y004496D02*
X039462Y004454D01*
X039505Y004267D02*
X039590Y004182D01*
X039505Y004097D01*
X039334Y004097D01*
X039377Y003995D02*
X039420Y003995D01*
X039462Y003952D01*
X039505Y003995D01*
X039547Y003995D01*
X039590Y003952D01*
X039590Y003867D01*
X039547Y003825D01*
X039462Y003910D02*
X039462Y003952D01*
X039377Y003995D02*
X039334Y003952D01*
X039334Y003867D01*
X039377Y003825D01*
X039462Y003723D02*
X039462Y003553D01*
X039377Y003638D02*
X039547Y003638D01*
D11*
X042105Y005438D02*
X042105Y005654D01*
X042105Y005546D02*
X042429Y005546D01*
X042429Y005800D02*
X042105Y005800D01*
X042105Y006016D01*
X042105Y006163D02*
X042105Y006325D01*
X042159Y006379D01*
X042267Y006379D01*
X042321Y006325D01*
X042321Y006163D01*
X042321Y006271D02*
X042429Y006379D01*
X042429Y006525D02*
X042105Y006525D01*
X042213Y006633D01*
X042105Y006741D01*
X042429Y006741D01*
X041937Y006576D02*
X041613Y006576D01*
X041613Y006360D02*
X041937Y006576D01*
X041937Y006360D02*
X041613Y006360D01*
X041721Y006213D02*
X041613Y006105D01*
X041721Y005997D01*
X041937Y005997D01*
X041883Y005851D02*
X041937Y005797D01*
X041937Y005689D01*
X041883Y005635D01*
X041667Y005635D01*
X041613Y005689D01*
X041613Y005797D01*
X041667Y005851D01*
X041775Y005997D02*
X041775Y006213D01*
X041721Y006213D02*
X041937Y006213D01*
X042105Y006163D02*
X042429Y006163D01*
X042429Y006016D02*
X042429Y005800D01*
X042267Y005800D02*
X042267Y005908D01*
D12*
X033422Y016161D02*
X033478Y016217D01*
X033478Y016273D01*
X033422Y016328D01*
X033144Y016328D01*
X033144Y016273D02*
X033144Y016384D01*
X033144Y016524D02*
X033144Y016746D01*
X033144Y016635D02*
X033478Y016635D01*
X033478Y016886D02*
X033255Y016886D01*
X033144Y016998D01*
X033255Y017109D01*
X033478Y017109D01*
X033422Y017249D02*
X033478Y017304D01*
X033478Y017416D01*
X033422Y017471D01*
X033311Y017471D01*
X033311Y017360D01*
X033422Y017249D02*
X033199Y017249D01*
X033144Y017304D01*
X033144Y017416D01*
X033199Y017471D01*
X033311Y017109D02*
X033311Y016886D01*
X019685Y016525D02*
X019463Y016525D01*
X019630Y016692D01*
X019630Y016358D01*
X019715Y014527D02*
X019827Y014527D01*
X019882Y014471D01*
X019882Y014415D01*
X019827Y014360D01*
X019882Y014304D01*
X019882Y014248D01*
X019827Y014193D01*
X019715Y014193D01*
X019660Y014248D01*
X019771Y014360D02*
X019827Y014360D01*
X019660Y014471D02*
X019715Y014527D01*
X019715Y012558D02*
X019660Y012503D01*
X019715Y012558D02*
X019827Y012558D01*
X019882Y012503D01*
X019882Y012447D01*
X019660Y012224D01*
X019882Y012224D01*
X019820Y010639D02*
X019820Y010305D01*
X019709Y010305D02*
X019931Y010305D01*
X019709Y010528D02*
X019820Y010639D01*
X013119Y014193D02*
X012896Y014193D01*
X012896Y014527D01*
X013119Y014527D01*
X013007Y014360D02*
X012896Y014360D01*
X012756Y014360D02*
X012645Y014360D01*
X012756Y014360D02*
X012756Y014248D01*
X012701Y014193D01*
X012589Y014193D01*
X012534Y014248D01*
X012534Y014471D01*
X012589Y014527D01*
X012701Y014527D01*
X012756Y014471D01*
X012394Y014415D02*
X012394Y014193D01*
X012394Y014360D02*
X012171Y014360D01*
X012171Y014415D02*
X012282Y014527D01*
X012394Y014415D01*
X012171Y014415D02*
X012171Y014193D01*
X011920Y014193D02*
X011920Y014527D01*
X011809Y014527D02*
X012031Y014527D01*
X011446Y014527D02*
X011446Y014193D01*
X011669Y014193D01*
X011306Y014248D02*
X011306Y014471D01*
X011251Y014527D01*
X011139Y014527D01*
X011084Y014471D01*
X011084Y014248D01*
X011139Y014193D01*
X011251Y014193D01*
X011306Y014248D01*
X010944Y014304D02*
X010944Y014527D01*
X010721Y014527D02*
X010721Y014304D01*
X010833Y014193D01*
X010944Y014304D01*
X010219Y014360D02*
X009996Y014360D01*
X009856Y014360D02*
X009745Y014360D01*
X009856Y014360D02*
X009856Y014248D01*
X009801Y014193D01*
X009689Y014193D01*
X009634Y014248D01*
X009634Y014471D01*
X009689Y014527D01*
X009801Y014527D01*
X009856Y014471D01*
X009996Y014527D02*
X009996Y014193D01*
X010219Y014193D02*
X010219Y014527D01*
X009503Y014527D02*
X009392Y014527D01*
X009448Y014527D02*
X009448Y014193D01*
X009503Y014193D02*
X009392Y014193D01*
X009252Y014193D02*
X009252Y014527D01*
X009252Y014360D02*
X009030Y014360D01*
X009030Y014193D02*
X009030Y014527D01*
D13*
X039099Y014077D02*
X039099Y013867D01*
X039204Y013763D01*
X039099Y013456D02*
X039518Y013456D01*
X039727Y013247D01*
X039518Y013038D01*
X039099Y013038D01*
X039099Y012731D02*
X039727Y012731D01*
X039099Y012313D01*
X039727Y012313D01*
X039413Y013038D02*
X039413Y013456D01*
X039623Y013763D02*
X039727Y013867D01*
X039727Y014077D01*
X039623Y014181D01*
X039204Y014181D01*
X039099Y014077D01*
D14*
X009447Y016555D02*
X009447Y016722D01*
X009363Y016806D01*
X009447Y017015D02*
X008946Y017015D01*
X008946Y017349D01*
X008946Y017559D02*
X009447Y017559D01*
X009447Y017893D01*
X009447Y018103D02*
X008946Y018103D01*
X009447Y018103D02*
X009447Y018437D01*
X009363Y018647D02*
X009447Y018730D01*
X009447Y018897D01*
X009363Y018981D01*
X009280Y018981D01*
X009196Y018897D01*
X009196Y018730D01*
X009113Y018647D01*
X009029Y018647D01*
X008946Y018730D01*
X008946Y018897D01*
X009029Y018981D01*
X009447Y017349D02*
X009447Y017015D01*
X009196Y017015D02*
X009196Y017182D01*
X009029Y016806D02*
X008946Y016722D01*
X008946Y016555D01*
X009029Y016472D01*
X009363Y016472D01*
X009447Y016555D01*
X009363Y009925D02*
X009447Y009842D01*
X009447Y009675D01*
X009363Y009591D01*
X009196Y009675D02*
X009196Y009842D01*
X009280Y009925D01*
X009363Y009925D01*
X009196Y009675D02*
X009113Y009591D01*
X009029Y009591D01*
X008946Y009675D01*
X008946Y009842D01*
X009029Y009925D01*
X009447Y009382D02*
X009447Y009048D01*
X008946Y009048D01*
X009447Y008838D02*
X009447Y008504D01*
X008946Y008504D01*
X008946Y008294D02*
X008946Y007960D01*
X009447Y007960D01*
X009447Y008294D01*
X009196Y008127D02*
X009196Y007960D01*
X009029Y007750D02*
X008946Y007667D01*
X008946Y007500D01*
X009029Y007416D01*
X009363Y007416D01*
X009447Y007500D01*
X009447Y007667D01*
X009363Y007750D01*
D15*
X039069Y006338D02*
X039265Y006092D01*
X039462Y006338D01*
X039265Y006092D02*
X039265Y007224D01*
D16*
X008114Y006112D02*
X008114Y005088D01*
X008704Y005088D02*
X008704Y006112D01*
X009295Y006112D02*
X009295Y005088D01*
X012169Y005934D02*
X013193Y005934D01*
X013153Y006427D02*
X012130Y006427D01*
X012130Y006938D02*
X013153Y006938D01*
X016112Y009023D02*
X016114Y009041D01*
X016120Y009059D01*
X016129Y009075D01*
X016141Y009088D01*
X016156Y009099D01*
X016173Y009107D01*
X016191Y009111D01*
X016209Y009111D01*
X016227Y009107D01*
X016244Y009099D01*
X016259Y009088D01*
X016271Y009075D01*
X016280Y009059D01*
X016286Y009041D01*
X016288Y009023D01*
X016286Y009005D01*
X016280Y008987D01*
X016271Y008971D01*
X016259Y008958D01*
X016244Y008947D01*
X016227Y008939D01*
X016209Y008935D01*
X016191Y008935D01*
X016173Y008939D01*
X016156Y008947D01*
X016141Y008958D01*
X016129Y008971D01*
X016120Y008987D01*
X016114Y009005D01*
X016112Y009023D01*
X018980Y005797D02*
X019649Y006466D01*
X019964Y006072D02*
X019295Y005403D01*
X019649Y005029D02*
X020319Y005698D01*
X024334Y006919D02*
X025358Y006919D01*
X025358Y007431D02*
X024334Y007431D01*
X024334Y007923D02*
X025358Y007923D01*
X026038Y011092D02*
X026040Y011110D01*
X026046Y011128D01*
X026055Y011144D01*
X026067Y011157D01*
X026082Y011168D01*
X026099Y011176D01*
X026117Y011180D01*
X026135Y011180D01*
X026153Y011176D01*
X026170Y011168D01*
X026185Y011157D01*
X026197Y011144D01*
X026206Y011128D01*
X026212Y011110D01*
X026214Y011092D01*
X026212Y011074D01*
X026206Y011056D01*
X026197Y011040D01*
X026185Y011027D01*
X026170Y011016D01*
X026153Y011008D01*
X026135Y011004D01*
X026117Y011004D01*
X026099Y011008D01*
X026082Y011016D01*
X026067Y011027D01*
X026055Y011040D01*
X026046Y011056D01*
X026040Y011074D01*
X026038Y011092D01*
X025555Y011742D02*
X024531Y011742D01*
X024531Y012253D02*
X025555Y012253D01*
X025555Y012726D02*
X024531Y012726D01*
X024630Y013612D02*
X025653Y013612D01*
X025653Y014123D02*
X024630Y014123D01*
X024630Y014596D02*
X025653Y014596D01*
X030811Y016840D02*
X030811Y017903D01*
X031342Y017903D02*
X031342Y016840D01*
X031854Y016840D02*
X031854Y017903D01*
X035614Y019832D02*
X037346Y019832D01*
X037386Y021053D02*
X035653Y021053D01*
X037346Y022234D02*
X037346Y022273D01*
X035614Y022273D01*
X026038Y018179D02*
X026040Y018197D01*
X026046Y018215D01*
X026055Y018231D01*
X026067Y018244D01*
X026082Y018255D01*
X026099Y018263D01*
X026117Y018267D01*
X026135Y018267D01*
X026153Y018263D01*
X026170Y018255D01*
X026185Y018244D01*
X026197Y018231D01*
X026206Y018215D01*
X026212Y018197D01*
X026214Y018179D01*
X026212Y018161D01*
X026206Y018143D01*
X026197Y018127D01*
X026185Y018114D01*
X026170Y018103D01*
X026153Y018095D01*
X026135Y018091D01*
X026117Y018091D01*
X026099Y018095D01*
X026082Y018103D01*
X026067Y018114D01*
X026055Y018127D01*
X026046Y018143D01*
X026040Y018161D01*
X026038Y018179D01*
X025574Y018809D02*
X024511Y018809D01*
X024511Y019340D02*
X025574Y019340D01*
X025574Y019812D02*
X024511Y019812D01*
X019177Y021663D02*
X018153Y021663D01*
X018134Y022194D02*
X019157Y022194D01*
X019177Y022686D02*
X018153Y022686D01*
X013271Y019537D02*
X012523Y018828D01*
X012051Y019222D02*
X012799Y019931D01*
X012445Y020324D02*
X011697Y019616D01*
X009590Y020108D02*
X009590Y021210D01*
X009000Y021210D02*
X009000Y020108D01*
X008409Y020108D02*
X008409Y021210D01*
X014052Y019394D02*
X014054Y019412D01*
X014060Y019430D01*
X014069Y019446D01*
X014081Y019459D01*
X014096Y019470D01*
X014113Y019478D01*
X014131Y019482D01*
X014149Y019482D01*
X014167Y019478D01*
X014184Y019470D01*
X014199Y019459D01*
X014211Y019446D01*
X014220Y019430D01*
X014226Y019412D01*
X014228Y019394D01*
X014226Y019376D01*
X014220Y019358D01*
X014211Y019342D01*
X014199Y019329D01*
X014184Y019318D01*
X014167Y019310D01*
X014149Y019306D01*
X014131Y019306D01*
X014113Y019310D01*
X014096Y019318D01*
X014081Y019329D01*
X014069Y019342D01*
X014060Y019358D01*
X014054Y019376D01*
X014052Y019394D01*
X016578Y016545D02*
X015830Y015836D01*
X016145Y015482D02*
X016893Y016190D01*
X017287Y015875D02*
X016539Y015167D01*
X014511Y014458D02*
X014216Y013474D01*
X014610Y013769D01*
X014413Y012883D01*
X014590Y012942D01*
X014315Y012490D01*
X014177Y012982D01*
X014315Y012883D01*
X014315Y013375D01*
X014019Y013179D01*
X014019Y014458D01*
X014511Y014458D01*
X014507Y014445D02*
X014019Y014445D01*
X014019Y014407D02*
X014496Y014407D01*
X014485Y014369D02*
X014019Y014369D01*
X014019Y014331D02*
X014473Y014331D01*
X014462Y014293D02*
X014019Y014293D01*
X014019Y014255D02*
X014451Y014255D01*
X014439Y014217D02*
X014019Y014217D01*
X014019Y014179D02*
X014428Y014179D01*
X014416Y014141D02*
X014019Y014141D01*
X014019Y014103D02*
X014405Y014103D01*
X014394Y014066D02*
X014019Y014066D01*
X014019Y014028D02*
X014382Y014028D01*
X014371Y013990D02*
X014019Y013990D01*
X014019Y013952D02*
X014360Y013952D01*
X014348Y013914D02*
X014019Y013914D01*
X014019Y013876D02*
X014337Y013876D01*
X014326Y013838D02*
X014019Y013838D01*
X014019Y013800D02*
X014314Y013800D01*
X014303Y013762D02*
X014019Y013762D01*
X014019Y013724D02*
X014291Y013724D01*
X014280Y013686D02*
X014019Y013686D01*
X014019Y013649D02*
X014269Y013649D01*
X014257Y013611D02*
X014019Y013611D01*
X014019Y013573D02*
X014246Y013573D01*
X014235Y013535D02*
X014019Y013535D01*
X014019Y013497D02*
X014223Y013497D01*
X014247Y013497D02*
X014549Y013497D01*
X014558Y013535D02*
X014297Y013535D01*
X014348Y013573D02*
X014566Y013573D01*
X014575Y013611D02*
X014399Y013611D01*
X014449Y013649D02*
X014583Y013649D01*
X014592Y013686D02*
X014500Y013686D01*
X014550Y013724D02*
X014600Y013724D01*
X014601Y013762D02*
X014608Y013762D01*
X014541Y013459D02*
X014019Y013459D01*
X014019Y013421D02*
X014533Y013421D01*
X014524Y013383D02*
X014019Y013383D01*
X014019Y013345D02*
X014269Y013345D01*
X014315Y013345D02*
X014516Y013345D01*
X014507Y013307D02*
X014315Y013307D01*
X014315Y013269D02*
X014499Y013269D01*
X014490Y013231D02*
X014315Y013231D01*
X014315Y013194D02*
X014482Y013194D01*
X014474Y013156D02*
X014315Y013156D01*
X014315Y013118D02*
X014465Y013118D01*
X014457Y013080D02*
X014315Y013080D01*
X014315Y013042D02*
X014448Y013042D01*
X014440Y013004D02*
X014315Y013004D01*
X014315Y012966D02*
X014431Y012966D01*
X014423Y012928D02*
X014315Y012928D01*
X014315Y012890D02*
X014415Y012890D01*
X014434Y012890D02*
X014559Y012890D01*
X014548Y012928D02*
X014582Y012928D01*
X014535Y012852D02*
X014213Y012852D01*
X014224Y012814D02*
X014512Y012814D01*
X014489Y012776D02*
X014234Y012776D01*
X014245Y012739D02*
X014466Y012739D01*
X014443Y012701D02*
X014256Y012701D01*
X014266Y012663D02*
X014420Y012663D01*
X014397Y012625D02*
X014277Y012625D01*
X014287Y012587D02*
X014374Y012587D01*
X014351Y012549D02*
X014298Y012549D01*
X014309Y012511D02*
X014328Y012511D01*
X014305Y012890D02*
X014202Y012890D01*
X014192Y012928D02*
X014252Y012928D01*
X014199Y012966D02*
X014181Y012966D01*
X014042Y013194D02*
X014019Y013194D01*
X014019Y013231D02*
X014099Y013231D01*
X014156Y013269D02*
X014019Y013269D01*
X014019Y013307D02*
X014212Y013307D01*
X030476Y011269D02*
X031500Y011269D01*
X031500Y010777D02*
X030476Y010777D01*
X030476Y010265D02*
X031500Y010265D01*
X031559Y006210D02*
X030535Y006210D01*
X030535Y005600D02*
X031559Y005600D01*
X031559Y005009D02*
X030535Y005009D01*
X030535Y004340D02*
X031559Y004340D01*
D17*
X012486Y014715D02*
X012329Y014872D01*
X012408Y014872D02*
X012172Y014872D01*
X012172Y014715D02*
X012172Y015186D01*
X012408Y015186D01*
X012486Y015107D01*
X012486Y014950D01*
X012408Y014872D01*
X011942Y014715D02*
X011628Y014715D01*
X011628Y015186D01*
X011942Y015186D01*
X011785Y014950D02*
X011628Y014950D01*
X011399Y014950D02*
X011242Y014950D01*
X011399Y014950D02*
X011399Y014793D01*
X011320Y014715D01*
X011163Y014715D01*
X011085Y014793D01*
X011085Y015107D01*
X011163Y015186D01*
X011320Y015186D01*
X011399Y015107D01*
X010855Y015186D02*
X010855Y014715D01*
X010541Y015186D01*
X010541Y014715D01*
X010311Y014715D02*
X010311Y015029D01*
X010154Y015186D01*
X009997Y015029D01*
X009997Y014715D01*
X009997Y014950D02*
X010311Y014950D01*
X009767Y014793D02*
X009767Y015107D01*
X009689Y015186D01*
X009453Y015186D01*
X009453Y014715D01*
X009689Y014715D01*
X009767Y014793D01*
D18*
X037543Y010029D02*
X037545Y010056D01*
X037551Y010083D01*
X037560Y010109D01*
X037573Y010133D01*
X037589Y010156D01*
X037608Y010175D01*
X037630Y010192D01*
X037654Y010206D01*
X037679Y010216D01*
X037706Y010223D01*
X037733Y010226D01*
X037761Y010225D01*
X037788Y010220D01*
X037814Y010212D01*
X037838Y010200D01*
X037861Y010184D01*
X037882Y010166D01*
X037899Y010145D01*
X037914Y010121D01*
X037925Y010096D01*
X037933Y010070D01*
X037937Y010043D01*
X037937Y010015D01*
X037933Y009988D01*
X037925Y009962D01*
X037914Y009937D01*
X037899Y009913D01*
X037882Y009892D01*
X037861Y009874D01*
X037839Y009858D01*
X037814Y009846D01*
X037788Y009838D01*
X037761Y009833D01*
X037733Y009832D01*
X037706Y009835D01*
X037679Y009842D01*
X037654Y009852D01*
X037630Y009866D01*
X037608Y009883D01*
X037589Y009902D01*
X037573Y009925D01*
X037560Y009949D01*
X037551Y009975D01*
X037545Y010002D01*
X037543Y010029D01*
X039649Y007175D02*
X039649Y007057D01*
X039649Y007175D02*
X039767Y007175D01*
X040909Y007175D02*
X041145Y006938D01*
X041145Y007175D01*
X040909Y007175D01*
X041145Y005324D02*
X041145Y005206D01*
X041027Y005206D01*
X039767Y005206D02*
X039649Y005206D01*
X039649Y005324D01*
X039988Y019364D02*
X039988Y021364D01*
X041988Y021364D01*
X041988Y019364D01*
X039988Y019364D01*
D19*
X035483Y007744D02*
X035483Y004004D01*
D20*
X041027Y008110D03*
X041027Y008405D03*
X041027Y018051D03*
X041027Y018346D03*
X018586Y016476D03*
X018586Y016181D03*
X018586Y014507D03*
X018586Y014212D03*
X018586Y012539D03*
X018586Y012244D03*
X018586Y010570D03*
X018586Y010275D03*
D21*
X018586Y010423D03*
X018586Y012391D03*
X018586Y014360D03*
X018586Y016328D03*
X041027Y018198D03*
X041027Y008257D03*
D22*
X041370Y019864D02*
X041372Y019885D01*
X041378Y019905D01*
X041387Y019925D01*
X041399Y019942D01*
X041414Y019956D01*
X041432Y019968D01*
X041452Y019976D01*
X041472Y019981D01*
X041493Y019982D01*
X041514Y019979D01*
X041534Y019973D01*
X041553Y019962D01*
X041570Y019949D01*
X041583Y019933D01*
X041594Y019915D01*
X041602Y019895D01*
X041606Y019875D01*
X041606Y019853D01*
X041602Y019833D01*
X041594Y019813D01*
X041583Y019795D01*
X041570Y019779D01*
X041553Y019766D01*
X041534Y019755D01*
X041514Y019749D01*
X041493Y019746D01*
X041472Y019747D01*
X041452Y019752D01*
X041432Y019760D01*
X041414Y019772D01*
X041399Y019786D01*
X041387Y019803D01*
X041378Y019823D01*
X041372Y019843D01*
X041370Y019864D01*
X041370Y020864D02*
X041372Y020885D01*
X041378Y020905D01*
X041387Y020925D01*
X041399Y020942D01*
X041414Y020956D01*
X041432Y020968D01*
X041452Y020976D01*
X041472Y020981D01*
X041493Y020982D01*
X041514Y020979D01*
X041534Y020973D01*
X041553Y020962D01*
X041570Y020949D01*
X041583Y020933D01*
X041594Y020915D01*
X041602Y020895D01*
X041606Y020875D01*
X041606Y020853D01*
X041602Y020833D01*
X041594Y020813D01*
X041583Y020795D01*
X041570Y020779D01*
X041553Y020766D01*
X041534Y020755D01*
X041514Y020749D01*
X041493Y020746D01*
X041472Y020747D01*
X041452Y020752D01*
X041432Y020760D01*
X041414Y020772D01*
X041399Y020786D01*
X041387Y020803D01*
X041378Y020823D01*
X041372Y020843D01*
X041370Y020864D01*
D23*
X038923Y021633D02*
X038864Y021574D01*
X038805Y021633D01*
X038805Y021751D01*
X038805Y021811D02*
X038923Y021929D01*
X038923Y021958D01*
X038894Y021988D01*
X038835Y021988D01*
X038805Y021958D01*
X038742Y021958D02*
X038742Y021929D01*
X038713Y021899D01*
X038742Y021870D01*
X038742Y021840D01*
X038713Y021811D01*
X038654Y021811D01*
X038624Y021840D01*
X038683Y021899D02*
X038713Y021899D01*
X038742Y021958D02*
X038713Y021988D01*
X038654Y021988D01*
X038624Y021958D01*
X038561Y021958D02*
X038561Y021899D01*
X038531Y021870D01*
X038443Y021870D01*
X038443Y021811D02*
X038443Y021988D01*
X038531Y021988D01*
X038561Y021958D01*
X038380Y021988D02*
X038262Y021988D01*
X038321Y021988D02*
X038321Y021811D01*
X038321Y021722D02*
X038321Y021604D01*
X038262Y021663D02*
X038380Y021663D01*
X038443Y021692D02*
X038502Y021751D01*
X038502Y021574D01*
X038443Y021574D02*
X038561Y021574D01*
X038624Y021574D02*
X038742Y021692D01*
X038742Y021722D01*
X038713Y021751D01*
X038654Y021751D01*
X038624Y021722D01*
X038624Y021574D02*
X038742Y021574D01*
X038923Y021633D02*
X038923Y021751D01*
X038923Y021811D02*
X038805Y021811D01*
X031289Y019763D02*
X031289Y019645D01*
X031230Y019586D01*
X031171Y019645D01*
X031171Y019763D01*
X031108Y019763D02*
X030990Y019763D01*
X030990Y019675D01*
X031049Y019704D01*
X031078Y019704D01*
X031108Y019675D01*
X031108Y019616D01*
X031078Y019586D01*
X031019Y019586D01*
X030990Y019616D01*
X030926Y019675D02*
X030808Y019675D01*
X030867Y019734D02*
X030867Y019616D01*
X030897Y019527D02*
X030808Y019527D01*
X030808Y019350D01*
X030808Y019409D02*
X030897Y019409D01*
X030926Y019438D01*
X030926Y019497D01*
X030897Y019527D01*
X030990Y019497D02*
X031019Y019527D01*
X031078Y019527D01*
X031108Y019497D01*
X031108Y019468D01*
X031078Y019438D01*
X031108Y019409D01*
X031108Y019379D01*
X031078Y019350D01*
X031019Y019350D01*
X030990Y019379D01*
X031049Y019438D02*
X031078Y019438D01*
X031171Y019468D02*
X031230Y019527D01*
X031230Y019350D01*
X031171Y019350D02*
X031289Y019350D01*
X030745Y019527D02*
X030627Y019527D01*
X030686Y019527D02*
X030686Y019350D01*
X032633Y016440D02*
X032716Y016357D01*
X032674Y016399D02*
X032549Y016274D01*
X032487Y016252D02*
X032528Y016211D01*
X032528Y016169D01*
X032507Y016148D01*
X032466Y016148D01*
X032466Y016106D01*
X032445Y016086D01*
X032403Y016086D01*
X032361Y016127D01*
X032361Y016169D01*
X032445Y016169D02*
X032466Y016148D01*
X032531Y016083D02*
X032615Y015999D01*
X032701Y015996D02*
X032618Y015913D01*
X032618Y015871D01*
X032659Y015829D01*
X032701Y015829D01*
X032746Y015785D02*
X032746Y015743D01*
X032787Y015701D01*
X032829Y015701D01*
X032850Y015722D01*
X032850Y015764D01*
X032808Y015805D01*
X032808Y015847D01*
X032829Y015868D01*
X032871Y015868D01*
X032913Y015826D01*
X032913Y015785D01*
X032954Y015868D02*
X032913Y015910D01*
X032913Y015952D01*
X032954Y015993D02*
X033017Y015972D01*
X033038Y015952D01*
X033038Y015910D01*
X032996Y015868D01*
X032954Y015868D01*
X032954Y015993D02*
X033017Y016056D01*
X033100Y015972D01*
X032931Y016142D02*
X032806Y016017D01*
X032847Y015975D02*
X032764Y016059D01*
X032743Y015996D02*
X032701Y015996D01*
X032743Y015996D02*
X032784Y015954D01*
X032784Y015913D01*
X032847Y016142D02*
X032931Y016142D01*
X032823Y016208D02*
X032782Y016166D01*
X032740Y016166D01*
X032677Y016229D01*
X032636Y016187D02*
X032761Y016312D01*
X032823Y016250D01*
X032823Y016208D01*
X032487Y016252D02*
X032445Y016252D01*
X032633Y015555D02*
X032716Y015471D01*
X032674Y015513D02*
X032549Y015388D01*
X032487Y015367D02*
X032528Y015325D01*
X032528Y015283D01*
X032507Y015262D01*
X032466Y015262D01*
X032466Y015221D01*
X032445Y015200D01*
X032403Y015200D01*
X032361Y015241D01*
X032361Y015283D01*
X032445Y015283D02*
X032466Y015262D01*
X032531Y015197D02*
X032615Y015113D01*
X032680Y015089D02*
X032680Y015048D01*
X032722Y015006D01*
X032722Y014964D01*
X032701Y014943D01*
X032659Y014944D01*
X032618Y014985D01*
X032618Y015027D01*
X032680Y015089D02*
X032701Y015110D01*
X032743Y015110D01*
X032784Y015069D01*
X032784Y015027D01*
X032850Y015003D02*
X032913Y014940D01*
X032913Y014899D01*
X032829Y014815D01*
X032787Y014815D01*
X032725Y014878D01*
X032850Y015003D01*
X032913Y015024D02*
X032954Y014982D01*
X032996Y014982D01*
X033017Y015003D01*
X033017Y015045D01*
X032954Y015107D01*
X032913Y015066D01*
X032913Y015024D01*
X032847Y015090D02*
X032764Y015173D01*
X032806Y015131D02*
X032931Y015257D01*
X032847Y015257D01*
X032782Y015280D02*
X032823Y015322D01*
X032823Y015364D01*
X032761Y015426D01*
X032636Y015301D01*
X032677Y015343D02*
X032740Y015280D01*
X032782Y015280D01*
X032954Y015107D02*
X033038Y015108D01*
X033100Y015087D01*
X032999Y014854D02*
X032957Y014854D01*
X032874Y014771D01*
X032874Y014729D01*
X032916Y014687D01*
X032957Y014687D01*
X033041Y014771D01*
X033041Y014812D01*
X032999Y014854D01*
X032960Y014601D02*
X033044Y014517D01*
X033109Y014493D02*
X033234Y014619D01*
X033172Y014556D02*
X033255Y014473D01*
X033318Y014535D02*
X033193Y014410D01*
X032658Y014112D02*
X032533Y013987D01*
X032596Y014049D02*
X032512Y014133D01*
X032450Y014070D02*
X032575Y014195D01*
X032384Y014094D02*
X032301Y014177D01*
X032277Y014243D02*
X032277Y014368D01*
X032235Y014368D02*
X032402Y014368D01*
X032319Y014451D02*
X032194Y014326D01*
X032149Y014371D02*
X032066Y014454D01*
X032191Y014580D01*
X032125Y014603D02*
X032125Y014645D01*
X032083Y014687D01*
X032042Y014687D01*
X031958Y014603D01*
X031958Y014562D01*
X032000Y014520D01*
X032042Y014520D01*
X031914Y014648D02*
X031872Y014648D01*
X031830Y014690D01*
X031830Y014732D01*
X031893Y014752D02*
X031934Y014711D01*
X031934Y014669D01*
X031914Y014648D01*
X031893Y014752D02*
X031893Y014794D01*
X031914Y014815D01*
X031955Y014815D01*
X031997Y014773D01*
X031997Y014732D01*
X032060Y014794D02*
X031976Y014878D01*
X032018Y014836D02*
X032143Y014961D01*
X032060Y014961D01*
X031994Y014985D02*
X031953Y014985D01*
X031890Y015048D01*
X031848Y015006D02*
X031973Y015131D01*
X032036Y015069D01*
X032036Y015027D01*
X031994Y014985D01*
X031929Y015176D02*
X031845Y015259D01*
X031887Y015218D02*
X031762Y015092D01*
X031741Y015030D02*
X031741Y014988D01*
X031720Y014967D01*
X031678Y014967D01*
X031678Y014925D01*
X031657Y014904D01*
X031616Y014905D01*
X031574Y014946D01*
X031574Y014988D01*
X031657Y014988D02*
X031678Y014967D01*
X031741Y015030D02*
X031699Y015071D01*
X031657Y015071D01*
X031744Y014901D02*
X031827Y014818D01*
X032125Y014771D02*
X032146Y014791D01*
X032188Y014791D01*
X032230Y014750D01*
X032230Y014708D01*
X032209Y014687D01*
X032167Y014687D01*
X032125Y014729D01*
X032125Y014771D01*
X032188Y014791D02*
X032188Y014833D01*
X032209Y014854D01*
X032251Y014854D01*
X032292Y014812D01*
X032292Y014771D01*
X032271Y014750D01*
X032230Y014750D01*
X032445Y015367D02*
X032487Y015367D01*
X032832Y015615D02*
X032916Y015531D01*
X032981Y015507D02*
X033106Y015633D01*
X033044Y015570D02*
X033127Y015487D01*
X033190Y015549D02*
X033065Y015424D01*
X031439Y015711D02*
X031418Y015732D01*
X031418Y015899D01*
X031397Y015919D01*
X031313Y015836D01*
X031271Y015878D02*
X031146Y016003D01*
X031209Y015940D02*
X031292Y016024D01*
X031230Y016086D02*
X031355Y015961D01*
X031248Y015812D02*
X031164Y015729D01*
X031227Y015750D02*
X031352Y015624D01*
X031310Y015583D02*
X031394Y015666D01*
X031227Y015666D02*
X031227Y015750D01*
X031161Y015642D02*
X031203Y015601D01*
X031203Y015559D01*
X031141Y015496D01*
X031182Y015455D02*
X031057Y015580D01*
X031120Y015642D01*
X031161Y015642D01*
X031100Y015706D02*
X031058Y015664D01*
X031079Y015685D02*
X030954Y015810D01*
X030933Y015789D02*
X030974Y015831D01*
X030909Y015724D02*
X030867Y015724D01*
X030805Y015661D01*
X030930Y015536D01*
X030992Y015599D01*
X030992Y015640D01*
X030909Y015724D01*
X030781Y015596D02*
X030739Y015596D01*
X030697Y015554D01*
X030697Y015512D01*
X030718Y015491D01*
X030760Y015491D01*
X030802Y015533D01*
X030843Y015533D01*
X030864Y015512D01*
X030864Y015471D01*
X030822Y015429D01*
X030781Y015429D01*
X030694Y015426D02*
X030611Y015342D01*
X030587Y015277D02*
X030608Y015256D01*
X030608Y015214D01*
X030566Y015173D01*
X030525Y015173D01*
X030525Y015256D02*
X030545Y015277D01*
X030587Y015277D01*
X030545Y015277D02*
X030545Y015319D01*
X030525Y015340D01*
X030483Y015339D01*
X030441Y015298D01*
X030441Y015256D01*
X030929Y015452D02*
X031012Y015535D01*
X030971Y015493D02*
X031096Y015368D01*
X032336Y010768D02*
X032513Y010768D01*
X032425Y010768D02*
X032425Y010650D01*
X032513Y010650D02*
X032336Y010650D01*
X032543Y010587D02*
X032543Y010469D01*
X032484Y010405D02*
X032513Y010376D01*
X032513Y010317D01*
X032484Y010287D01*
X032484Y010224D02*
X032513Y010195D01*
X032513Y010136D01*
X032484Y010106D01*
X032366Y010106D01*
X032336Y010136D01*
X032336Y010195D01*
X032366Y010224D01*
X032366Y010287D02*
X032395Y010287D01*
X032425Y010317D01*
X032425Y010376D01*
X032454Y010405D01*
X032484Y010405D01*
X032366Y010405D02*
X032336Y010376D01*
X032336Y010317D01*
X032366Y010287D01*
X032277Y010317D02*
X032277Y010376D01*
X032248Y010405D01*
X032130Y010405D01*
X032100Y010376D01*
X032100Y010317D01*
X032130Y010287D01*
X032159Y010287D01*
X032189Y010317D01*
X032189Y010405D01*
X032277Y010317D02*
X032248Y010287D01*
X032277Y010224D02*
X032277Y010106D01*
X032277Y010165D02*
X032100Y010165D01*
X032159Y010106D01*
X032130Y010043D02*
X032189Y010043D01*
X032218Y010013D01*
X032218Y009925D01*
X032277Y009925D02*
X032100Y009925D01*
X032100Y010013D01*
X032130Y010043D01*
X032100Y009862D02*
X032100Y009744D01*
X032100Y009803D02*
X032277Y009803D01*
X032336Y009832D02*
X032336Y009773D01*
X032366Y009744D01*
X032336Y009832D02*
X032366Y009862D01*
X032395Y009862D01*
X032513Y009744D01*
X032513Y009862D01*
X032425Y009925D02*
X032425Y010043D01*
X033248Y009657D02*
X033374Y009532D01*
X033350Y009467D02*
X033266Y009383D01*
X033180Y009380D02*
X033096Y009464D01*
X033055Y009464D01*
X033013Y009422D01*
X033013Y009380D01*
X033096Y009297D01*
X033138Y009297D01*
X033180Y009339D01*
X033180Y009380D01*
X033052Y009252D02*
X032968Y009336D01*
X032927Y009336D01*
X032864Y009273D01*
X032989Y009148D01*
X033052Y009210D01*
X033052Y009252D01*
X032924Y009124D02*
X032924Y009082D01*
X032882Y009041D01*
X032840Y009041D01*
X032819Y009103D02*
X032861Y009145D01*
X032903Y009145D01*
X032924Y009124D01*
X032819Y009103D02*
X032778Y009103D01*
X032757Y009124D01*
X032757Y009166D01*
X032798Y009207D01*
X032840Y009208D01*
X032777Y009270D02*
X032694Y009187D01*
X032694Y009354D01*
X032673Y009375D01*
X032631Y009374D01*
X032590Y009333D01*
X032590Y009291D01*
X032545Y009246D02*
X032587Y009205D01*
X032587Y009163D01*
X032524Y009100D01*
X032566Y009059D02*
X032441Y009184D01*
X032503Y009246D01*
X032545Y009246D01*
X032396Y009139D02*
X032313Y009056D01*
X032354Y009097D02*
X032479Y008972D01*
X032501Y008910D02*
X032501Y008868D01*
X032501Y008910D02*
X032542Y008951D01*
X032584Y008951D01*
X032605Y008930D01*
X032605Y008764D01*
X032688Y008847D01*
X032670Y008954D02*
X032754Y009038D01*
X032801Y009336D02*
X032801Y009503D01*
X032885Y009419D01*
X032885Y009377D01*
X032843Y009336D01*
X032801Y009336D01*
X032718Y009419D01*
X032718Y009461D01*
X032760Y009503D01*
X032801Y009503D01*
X033311Y009595D02*
X033394Y009678D01*
X033332Y009741D02*
X033457Y009616D01*
X035388Y008681D02*
X035506Y008681D01*
X035447Y008681D02*
X035447Y008504D01*
X035476Y008444D02*
X035506Y008415D01*
X035506Y008385D01*
X035476Y008356D01*
X035388Y008356D01*
X035476Y008356D02*
X035506Y008326D01*
X035506Y008297D01*
X035476Y008267D01*
X035388Y008267D01*
X035388Y008444D01*
X035476Y008444D01*
X035569Y008415D02*
X035569Y008297D01*
X035598Y008267D01*
X035657Y008267D01*
X035687Y008297D01*
X035687Y008415D01*
X035657Y008444D01*
X035598Y008444D01*
X035569Y008415D01*
X035569Y008504D02*
X035569Y008681D01*
X035657Y008681D01*
X035687Y008651D01*
X035687Y008592D01*
X035657Y008563D01*
X035569Y008563D01*
X035750Y008504D02*
X035868Y008622D01*
X035868Y008651D01*
X035839Y008681D01*
X035780Y008681D01*
X035750Y008651D01*
X035750Y008504D02*
X035868Y008504D01*
X035931Y008504D02*
X035931Y008533D01*
X036049Y008651D01*
X036049Y008681D01*
X035931Y008681D01*
X035961Y008444D02*
X035931Y008415D01*
X035931Y008385D01*
X035961Y008356D01*
X036020Y008356D01*
X036049Y008326D01*
X036049Y008297D01*
X036020Y008267D01*
X035961Y008267D01*
X035931Y008297D01*
X035868Y008238D02*
X035750Y008238D01*
X035687Y008267D02*
X035628Y008326D01*
X035961Y008444D02*
X036020Y008444D01*
X036049Y008415D01*
X036113Y008444D02*
X036201Y008444D01*
X036231Y008415D01*
X036231Y008297D01*
X036201Y008267D01*
X036113Y008267D01*
X036113Y008444D01*
X036294Y008444D02*
X036353Y008444D01*
X036323Y008444D02*
X036323Y008267D01*
X036294Y008267D02*
X036353Y008267D01*
X037170Y007165D02*
X037259Y007165D01*
X037288Y007135D01*
X037288Y007106D01*
X037259Y007076D01*
X037170Y007076D01*
X037170Y006988D02*
X037259Y006988D01*
X037288Y007017D01*
X037288Y007047D01*
X037259Y007076D01*
X037351Y007017D02*
X037381Y006988D01*
X037440Y006988D01*
X037469Y007017D01*
X037469Y007135D01*
X037440Y007165D01*
X037381Y007165D01*
X037351Y007135D01*
X037351Y007017D01*
X037410Y007047D02*
X037469Y006988D01*
X037532Y006958D02*
X037650Y006958D01*
X037714Y007017D02*
X037743Y006988D01*
X037802Y006988D01*
X037832Y007017D01*
X037832Y007047D01*
X037802Y007076D01*
X037743Y007076D01*
X037714Y007106D01*
X037714Y007135D01*
X037743Y007165D01*
X037802Y007165D01*
X037832Y007135D01*
X037895Y007135D02*
X037895Y007017D01*
X037924Y006988D01*
X037983Y006988D01*
X038013Y007017D01*
X038076Y006988D02*
X038194Y006988D01*
X038257Y006988D02*
X038257Y007165D01*
X038287Y007076D02*
X038375Y006988D01*
X038346Y006929D02*
X038287Y006929D01*
X038258Y006899D01*
X038194Y006899D02*
X038194Y006840D01*
X038165Y006811D01*
X038076Y006811D01*
X038076Y006752D02*
X038076Y006929D01*
X038165Y006929D01*
X038194Y006899D01*
X038076Y006988D02*
X038076Y007165D01*
X038013Y007135D02*
X037983Y007165D01*
X037924Y007165D01*
X037895Y007135D01*
X037895Y006929D02*
X038013Y006929D01*
X037954Y006929D02*
X037954Y006752D01*
X038258Y006752D02*
X038376Y006870D01*
X038376Y006899D01*
X038346Y006929D01*
X038257Y007047D02*
X038375Y007165D01*
X038376Y006752D02*
X038258Y006752D01*
X037170Y006988D02*
X037170Y007165D01*
X039325Y007677D02*
X039413Y007677D01*
X039443Y007706D01*
X039443Y007736D01*
X039413Y007765D01*
X039325Y007765D01*
X039413Y007765D02*
X039443Y007795D01*
X039443Y007824D01*
X039413Y007854D01*
X039325Y007854D01*
X039325Y007677D01*
X039506Y007706D02*
X039535Y007677D01*
X039594Y007677D01*
X039624Y007706D01*
X039624Y007824D01*
X039594Y007854D01*
X039535Y007854D01*
X039506Y007824D01*
X039506Y007706D01*
X039565Y007736D02*
X039624Y007677D01*
X039687Y007647D02*
X039805Y007647D01*
X039868Y007706D02*
X039898Y007677D01*
X039957Y007677D01*
X039986Y007706D01*
X040050Y007706D02*
X040079Y007677D01*
X040138Y007677D01*
X040168Y007706D01*
X040168Y007736D01*
X040138Y007765D01*
X040079Y007765D01*
X040050Y007795D01*
X040050Y007824D01*
X040079Y007854D01*
X040138Y007854D01*
X040168Y007824D01*
X039986Y007824D02*
X039957Y007854D01*
X039898Y007854D01*
X039868Y007824D01*
X039868Y007706D01*
X039805Y007913D02*
X039687Y007913D01*
X039746Y007913D02*
X039746Y008090D01*
X039687Y008031D01*
X039624Y008060D02*
X039624Y008001D01*
X039594Y007972D01*
X039506Y007972D01*
X039506Y007913D02*
X039506Y008090D01*
X039594Y008090D01*
X039624Y008060D01*
X039443Y008090D02*
X039325Y008090D01*
X039384Y008090D02*
X039384Y007913D01*
X038346Y005590D02*
X038258Y005590D01*
X038258Y005413D01*
X038346Y005413D01*
X038376Y005442D01*
X038376Y005560D01*
X038346Y005590D01*
X038194Y005590D02*
X038194Y005413D01*
X038076Y005590D01*
X038076Y005413D01*
X038106Y005354D02*
X038076Y005324D01*
X038106Y005354D02*
X038165Y005354D01*
X038194Y005324D01*
X038194Y005295D01*
X038165Y005265D01*
X038194Y005236D01*
X038194Y005206D01*
X038165Y005177D01*
X038106Y005177D01*
X038076Y005206D01*
X038135Y005265D02*
X038165Y005265D01*
X038257Y005206D02*
X038375Y005324D01*
X038375Y005206D01*
X038346Y005177D01*
X038287Y005177D01*
X038257Y005206D01*
X038257Y005324D01*
X038287Y005354D01*
X038346Y005354D01*
X038375Y005324D01*
X038013Y005324D02*
X038013Y005265D01*
X037984Y005236D01*
X037895Y005236D01*
X037895Y005177D02*
X037895Y005354D01*
X037984Y005354D01*
X038013Y005324D01*
X037984Y005413D02*
X038013Y005442D01*
X038013Y005501D01*
X037954Y005501D01*
X037895Y005442D02*
X037925Y005413D01*
X037984Y005413D01*
X037895Y005442D02*
X037895Y005560D01*
X037925Y005590D01*
X037984Y005590D01*
X038013Y005560D01*
X037832Y005354D02*
X037714Y005354D01*
X037773Y005354D02*
X037773Y005177D01*
X038279Y004645D02*
X038338Y004645D01*
X038367Y004616D01*
X038367Y004586D01*
X038338Y004557D01*
X038367Y004527D01*
X038367Y004498D01*
X038338Y004468D01*
X038279Y004468D01*
X038249Y004498D01*
X038308Y004557D02*
X038338Y004557D01*
X038431Y004527D02*
X038490Y004468D01*
X038549Y004527D01*
X038549Y004645D01*
X038612Y004616D02*
X038641Y004645D01*
X038700Y004645D01*
X038730Y004616D01*
X038730Y004586D01*
X038700Y004557D01*
X038730Y004527D01*
X038730Y004498D01*
X038700Y004468D01*
X038641Y004468D01*
X038612Y004498D01*
X038671Y004557D02*
X038700Y004557D01*
X038700Y004409D02*
X038641Y004409D01*
X038612Y004379D01*
X038612Y004350D01*
X038641Y004320D01*
X038730Y004320D01*
X038730Y004261D02*
X038730Y004379D01*
X038700Y004409D01*
X038730Y004261D02*
X038700Y004232D01*
X038641Y004232D01*
X038612Y004261D01*
X038549Y004232D02*
X038431Y004232D01*
X038549Y004350D01*
X038549Y004379D01*
X038519Y004409D01*
X038460Y004409D01*
X038431Y004379D01*
X038367Y004379D02*
X038367Y004320D01*
X038338Y004291D01*
X038249Y004291D01*
X038249Y004232D02*
X038249Y004409D01*
X038338Y004409D01*
X038367Y004379D01*
X038431Y004527D02*
X038431Y004645D01*
X038279Y004645D02*
X038249Y004616D01*
X038186Y004557D02*
X038068Y004557D01*
X038127Y004616D02*
X038127Y004498D01*
X038127Y004409D02*
X038127Y004232D01*
X038068Y004409D02*
X038186Y004409D01*
X034045Y008257D02*
X034015Y008228D01*
X033956Y008228D01*
X033927Y008257D01*
X033927Y008287D01*
X033956Y008316D01*
X034015Y008316D01*
X034045Y008287D01*
X034045Y008257D01*
X034015Y008316D02*
X034045Y008346D01*
X034045Y008375D01*
X034015Y008405D01*
X033956Y008405D01*
X033927Y008375D01*
X033927Y008346D01*
X033956Y008316D01*
X033864Y008346D02*
X033746Y008228D01*
X033864Y008228D01*
X033864Y008346D02*
X033864Y008375D01*
X033834Y008405D01*
X033775Y008405D01*
X033746Y008375D01*
X033682Y008375D02*
X033682Y008316D01*
X033653Y008287D01*
X033564Y008287D01*
X033564Y008228D02*
X033564Y008405D01*
X033653Y008405D01*
X033682Y008375D01*
X033653Y008464D02*
X033594Y008464D01*
X033564Y008494D01*
X033594Y008553D02*
X033653Y008553D01*
X033682Y008523D01*
X033682Y008494D01*
X033653Y008464D01*
X033745Y008464D02*
X033834Y008464D01*
X033863Y008494D01*
X033863Y008612D01*
X033834Y008641D01*
X033745Y008641D01*
X033745Y008464D01*
X033682Y008612D02*
X033653Y008641D01*
X033594Y008641D01*
X033564Y008612D01*
X033564Y008582D01*
X033594Y008553D01*
X033501Y008435D02*
X033383Y008435D01*
X033383Y008405D02*
X033501Y008405D01*
X033442Y008405D02*
X033442Y008228D01*
X033320Y008464D02*
X033261Y008523D01*
X033290Y008464D02*
X033231Y008464D01*
X033202Y008494D01*
X033202Y008612D01*
X033231Y008641D01*
X033290Y008641D01*
X033320Y008612D01*
X033320Y008494D01*
X033290Y008464D01*
X033139Y008494D02*
X033109Y008464D01*
X033021Y008464D01*
X033021Y008641D01*
X033109Y008641D01*
X033139Y008612D01*
X033139Y008582D01*
X033109Y008553D01*
X033021Y008553D01*
X033109Y008553D02*
X033139Y008523D01*
X033139Y008494D01*
X033927Y008494D02*
X033956Y008464D01*
X034015Y008464D01*
X034045Y008494D01*
X034045Y008612D01*
X034015Y008641D01*
X033956Y008641D01*
X033927Y008612D01*
X033927Y008494D01*
X031494Y008763D02*
X031369Y008638D01*
X031306Y008617D02*
X031265Y008659D01*
X031223Y008659D01*
X031178Y008703D02*
X031178Y008745D01*
X031136Y008787D01*
X031095Y008787D01*
X031136Y008829D02*
X031220Y008745D01*
X031178Y008703D02*
X031157Y008683D01*
X030991Y008683D01*
X031074Y008599D01*
X031119Y008554D02*
X031285Y008554D01*
X031306Y008575D01*
X031306Y008617D01*
X031285Y008722D02*
X031411Y008847D01*
X031348Y008784D02*
X031431Y008701D01*
X031202Y008471D02*
X031119Y008554D01*
X031008Y008790D02*
X030967Y008790D01*
X030904Y008852D01*
X030862Y008811D02*
X030988Y008936D01*
X031050Y008873D01*
X031050Y008832D01*
X031008Y008790D01*
X031113Y008894D02*
X031113Y009020D01*
X031071Y009020D02*
X031238Y009020D01*
X031154Y009103D02*
X031029Y008978D01*
X030985Y009023D02*
X030901Y009106D01*
X031026Y009231D01*
X030961Y009255D02*
X030961Y009297D01*
X030919Y009338D01*
X030877Y009338D01*
X030794Y009255D01*
X030794Y009213D01*
X030836Y009172D01*
X030877Y009172D01*
X030859Y009064D02*
X030943Y008981D01*
X030901Y009022D02*
X030776Y008897D01*
X031202Y009258D02*
X031119Y009342D01*
X031160Y009300D02*
X031285Y009425D01*
X031202Y009425D01*
X031157Y009470D02*
X031178Y009491D01*
X031178Y009533D01*
X031136Y009574D01*
X031095Y009574D01*
X031137Y009616D02*
X031220Y009533D01*
X031286Y009509D02*
X031411Y009634D01*
X031348Y009571D02*
X031431Y009488D01*
X031369Y009425D02*
X031494Y009551D01*
X031157Y009470D02*
X030991Y009470D01*
X031074Y009387D01*
X031008Y009577D02*
X030967Y009577D01*
X030904Y009640D01*
X030862Y009598D02*
X030988Y009723D01*
X031050Y009661D01*
X031050Y009619D01*
X031008Y009577D01*
X031114Y009681D02*
X031072Y009723D01*
X031093Y009702D02*
X031218Y009827D01*
X031197Y009848D02*
X031239Y009806D01*
X031132Y009872D02*
X031132Y009913D01*
X031069Y009976D01*
X030944Y009851D01*
X031006Y009788D01*
X031048Y009788D01*
X031132Y009872D01*
X031003Y010000D02*
X031003Y010041D01*
X030962Y010083D01*
X030920Y010083D01*
X030899Y010062D01*
X030899Y010021D01*
X030941Y009979D01*
X030941Y009937D01*
X030920Y009916D01*
X030878Y009916D01*
X030837Y009958D01*
X030837Y010000D01*
X030834Y010086D02*
X030750Y010170D01*
X030726Y010235D02*
X030747Y010256D01*
X030747Y010298D01*
X030706Y010339D01*
X030664Y010339D01*
X030726Y010235D02*
X030560Y010235D01*
X030643Y010152D01*
X030859Y009851D02*
X030943Y009768D01*
X030901Y009810D02*
X030776Y009685D01*
X030576Y009681D02*
X030535Y009723D01*
X030493Y009723D01*
X030576Y009681D02*
X030576Y009639D01*
X030556Y009619D01*
X030389Y009619D01*
X030472Y009535D01*
X030579Y009553D02*
X030663Y009470D01*
X030728Y009446D02*
X030728Y009404D01*
X030770Y009362D01*
X030770Y009321D01*
X030749Y009300D01*
X030707Y009300D01*
X030666Y009341D01*
X030666Y009383D01*
X030728Y009446D02*
X030749Y009467D01*
X030791Y009467D01*
X030833Y009425D01*
X030833Y009383D01*
X028631Y004901D02*
X028631Y004724D01*
X028602Y004665D02*
X028513Y004576D01*
X028631Y004576D01*
X028602Y004488D02*
X028602Y004665D01*
X028513Y004724D02*
X028513Y004901D01*
X028513Y004812D02*
X028631Y004812D01*
X028450Y004695D02*
X028332Y004695D01*
X028362Y004665D02*
X028332Y004635D01*
X028362Y004665D02*
X028421Y004665D01*
X028450Y004635D01*
X028450Y004606D01*
X028332Y004488D01*
X028450Y004488D01*
X028269Y004576D02*
X028269Y004635D01*
X028239Y004665D01*
X028151Y004665D01*
X028151Y004488D01*
X028151Y004547D02*
X028239Y004547D01*
X028269Y004576D01*
X028239Y004724D02*
X028269Y004754D01*
X028269Y004871D01*
X028239Y004901D01*
X028180Y004901D01*
X028151Y004871D01*
X028151Y004754D01*
X028180Y004724D01*
X028239Y004724D01*
X028088Y004754D02*
X028088Y004871D01*
X028058Y004901D01*
X027970Y004901D01*
X027970Y004724D01*
X028058Y004724D01*
X028088Y004754D01*
X028088Y004665D02*
X027970Y004665D01*
X028029Y004665D02*
X028029Y004488D01*
X027877Y004724D02*
X027818Y004724D01*
X027788Y004754D01*
X027818Y004812D02*
X027788Y004842D01*
X027788Y004871D01*
X027818Y004901D01*
X027877Y004901D01*
X027906Y004871D01*
X027877Y004812D02*
X027906Y004783D01*
X027906Y004754D01*
X027877Y004724D01*
X027877Y004812D02*
X027818Y004812D01*
X027725Y004812D02*
X027607Y004812D01*
X027544Y004724D02*
X027426Y004724D01*
X027485Y004724D02*
X027485Y004901D01*
X027426Y004842D01*
X028766Y004055D02*
X028825Y004114D01*
X028825Y003937D01*
X028766Y003937D02*
X028884Y003937D01*
X028947Y004025D02*
X029065Y004025D01*
X029128Y004055D02*
X029158Y004025D01*
X029217Y004025D01*
X029246Y003996D01*
X029246Y003966D01*
X029217Y003937D01*
X029158Y003937D01*
X029128Y003966D01*
X029128Y004055D02*
X029128Y004084D01*
X029158Y004114D01*
X029217Y004114D01*
X029246Y004084D01*
X029310Y004114D02*
X029398Y004114D01*
X029428Y004084D01*
X029428Y003966D01*
X029398Y003937D01*
X029310Y003937D01*
X029310Y004114D01*
X029491Y004114D02*
X029550Y004114D01*
X029520Y004114D02*
X029520Y003937D01*
X029491Y003937D02*
X029550Y003937D01*
X029519Y003877D02*
X029548Y003848D01*
X029548Y003789D01*
X029519Y003759D01*
X029430Y003759D01*
X029430Y003700D02*
X029430Y003877D01*
X029519Y003877D01*
X029612Y003848D02*
X029641Y003877D01*
X029700Y003877D01*
X029730Y003848D01*
X029730Y003818D01*
X029612Y003700D01*
X029730Y003700D01*
X029793Y003730D02*
X029822Y003700D01*
X029881Y003700D01*
X029911Y003730D01*
X029911Y003789D01*
X029881Y003818D01*
X029852Y003818D01*
X029793Y003789D01*
X029793Y003877D01*
X029911Y003877D01*
X029911Y003937D02*
X029911Y004114D01*
X029911Y004025D02*
X029793Y004025D01*
X029793Y003937D02*
X029793Y004114D01*
X029730Y003907D02*
X029612Y003907D01*
X029367Y003877D02*
X029249Y003877D01*
X029308Y003877D02*
X029308Y003700D01*
X021550Y004527D02*
X021550Y004704D01*
X021550Y004616D02*
X021432Y004616D01*
X021432Y004704D02*
X021432Y004527D01*
X021368Y004498D02*
X021250Y004498D01*
X021187Y004557D02*
X021158Y004527D01*
X021099Y004527D01*
X021069Y004557D01*
X021006Y004557D02*
X020976Y004527D01*
X020917Y004527D01*
X020888Y004557D01*
X020888Y004675D01*
X020917Y004704D01*
X020976Y004704D01*
X021006Y004675D01*
X021069Y004675D02*
X021069Y004645D01*
X021099Y004616D01*
X021158Y004616D01*
X021187Y004586D01*
X021187Y004557D01*
X021187Y004675D02*
X021158Y004704D01*
X021099Y004704D01*
X021069Y004675D01*
X021099Y004763D02*
X021069Y004793D01*
X021099Y004763D02*
X021158Y004763D01*
X021187Y004793D01*
X021187Y004822D01*
X021158Y004852D01*
X021128Y004852D01*
X021158Y004852D02*
X021187Y004881D01*
X021187Y004911D01*
X021158Y004940D01*
X021099Y004940D01*
X021069Y004911D01*
X021006Y004911D02*
X020976Y004940D01*
X020917Y004940D01*
X020888Y004911D01*
X020825Y004911D02*
X020825Y004852D01*
X020795Y004822D01*
X020707Y004822D01*
X020707Y004763D02*
X020707Y004940D01*
X020795Y004940D01*
X020825Y004911D01*
X020888Y004763D02*
X021006Y004881D01*
X021006Y004911D01*
X021006Y004763D02*
X020888Y004763D01*
X020825Y004616D02*
X020707Y004616D01*
X020643Y004527D02*
X020525Y004527D01*
X020584Y004527D02*
X020584Y004704D01*
X020525Y004645D01*
X020584Y004763D02*
X020584Y004940D01*
X020525Y004940D02*
X020643Y004940D01*
X019943Y004114D02*
X019943Y003937D01*
X019943Y004025D02*
X019825Y004025D01*
X019825Y003937D02*
X019825Y004114D01*
X019762Y003907D02*
X019644Y003907D01*
X019581Y003937D02*
X019493Y004025D01*
X019463Y003996D02*
X019581Y004114D01*
X019463Y004114D02*
X019463Y003937D01*
X019400Y003937D02*
X019282Y003937D01*
X019282Y004114D01*
X019219Y004084D02*
X019189Y004114D01*
X019130Y004114D01*
X019101Y004084D01*
X019101Y003966D01*
X019130Y003937D01*
X019189Y003937D01*
X019219Y003966D01*
X019037Y003966D02*
X019008Y003937D01*
X018949Y003937D01*
X018919Y003966D01*
X018949Y004025D02*
X019008Y004025D01*
X019037Y003996D01*
X019037Y003966D01*
X018949Y004025D02*
X018919Y004055D01*
X018919Y004084D01*
X018949Y004114D01*
X019008Y004114D01*
X019037Y004084D01*
X019037Y004173D02*
X018919Y004173D01*
X019037Y004291D01*
X019037Y004320D01*
X019008Y004350D01*
X018949Y004350D01*
X018919Y004320D01*
X018856Y004320D02*
X018856Y004261D01*
X018827Y004232D01*
X018738Y004232D01*
X018738Y004173D02*
X018738Y004350D01*
X018827Y004350D01*
X018856Y004320D01*
X018675Y004350D02*
X018557Y004350D01*
X018616Y004350D02*
X018616Y004173D01*
X018616Y004114D02*
X018616Y003937D01*
X018557Y003937D02*
X018675Y003937D01*
X018738Y004025D02*
X018856Y004025D01*
X018616Y004114D02*
X018557Y004055D01*
X019101Y004202D02*
X019130Y004173D01*
X019189Y004173D01*
X019219Y004202D01*
X019219Y004232D01*
X019189Y004261D01*
X019101Y004261D01*
X019101Y004202D01*
X019101Y004261D02*
X019160Y004320D01*
X019219Y004350D01*
X012785Y004517D02*
X012755Y004488D01*
X012696Y004488D01*
X012667Y004517D01*
X012785Y004635D01*
X012785Y004517D01*
X012667Y004517D02*
X012667Y004635D01*
X012696Y004665D01*
X012755Y004665D01*
X012785Y004635D01*
X012755Y004724D02*
X012696Y004724D01*
X012667Y004754D01*
X012785Y004871D01*
X012785Y004754D01*
X012755Y004724D01*
X012667Y004754D02*
X012667Y004871D01*
X012696Y004901D01*
X012755Y004901D01*
X012785Y004871D01*
X012604Y004901D02*
X012486Y004901D01*
X012486Y004812D01*
X012545Y004842D01*
X012574Y004842D01*
X012604Y004812D01*
X012604Y004754D01*
X012574Y004724D01*
X012515Y004724D01*
X012486Y004754D01*
X012422Y004754D02*
X012422Y004812D01*
X012363Y004812D01*
X012304Y004754D02*
X012334Y004724D01*
X012393Y004724D01*
X012422Y004754D01*
X012393Y004665D02*
X012422Y004635D01*
X012422Y004576D01*
X012393Y004547D01*
X012304Y004547D01*
X012304Y004488D02*
X012304Y004665D01*
X012393Y004665D01*
X012486Y004606D02*
X012545Y004665D01*
X012545Y004488D01*
X012486Y004488D02*
X012604Y004488D01*
X012304Y004754D02*
X012304Y004871D01*
X012334Y004901D01*
X012393Y004901D01*
X012422Y004871D01*
X012241Y004901D02*
X012123Y004901D01*
X012123Y004724D01*
X012241Y004724D01*
X012241Y004665D02*
X012123Y004665D01*
X012182Y004665D02*
X012182Y004488D01*
X012060Y004724D02*
X012001Y004783D01*
X012030Y004783D02*
X011942Y004783D01*
X011942Y004724D02*
X011942Y004901D01*
X012030Y004901D01*
X012060Y004871D01*
X012060Y004812D01*
X012030Y004783D01*
X012123Y004812D02*
X012182Y004812D01*
X011879Y004812D02*
X011761Y004812D01*
X011697Y004724D02*
X011579Y004724D01*
X011638Y004724D02*
X011638Y004901D01*
X011579Y004842D01*
X011563Y006594D02*
X011504Y006594D01*
X011475Y006624D01*
X011593Y006742D01*
X011593Y006624D01*
X011563Y006594D01*
X011475Y006624D02*
X011475Y006742D01*
X011504Y006771D01*
X011563Y006771D01*
X011593Y006742D01*
X011412Y006771D02*
X011294Y006771D01*
X011294Y006683D01*
X011353Y006712D01*
X011382Y006712D01*
X011412Y006683D01*
X011412Y006624D01*
X011382Y006594D01*
X011323Y006594D01*
X011294Y006624D01*
X011231Y006624D02*
X011231Y006683D01*
X011171Y006683D01*
X011113Y006742D02*
X011113Y006624D01*
X011142Y006594D01*
X011201Y006594D01*
X011231Y006624D01*
X011231Y006742D02*
X011201Y006771D01*
X011142Y006771D01*
X011113Y006742D01*
X011049Y006771D02*
X010931Y006771D01*
X010931Y006594D01*
X011049Y006594D01*
X010990Y006683D02*
X010931Y006683D01*
X010868Y006683D02*
X010839Y006653D01*
X010750Y006653D01*
X010750Y006594D02*
X010750Y006771D01*
X010839Y006771D01*
X010868Y006742D01*
X010868Y006683D01*
X010809Y006653D02*
X010868Y006594D01*
X010687Y006683D02*
X010569Y006683D01*
X010506Y006712D02*
X010506Y006742D01*
X010476Y006771D01*
X010417Y006771D01*
X010388Y006742D01*
X010447Y006830D02*
X010447Y007007D01*
X010388Y007007D02*
X010506Y007007D01*
X010569Y007007D02*
X010657Y007007D01*
X010687Y006978D01*
X010687Y006919D01*
X010657Y006889D01*
X010569Y006889D01*
X010569Y006830D02*
X010569Y007007D01*
X010750Y006978D02*
X010750Y006948D01*
X010780Y006919D01*
X010868Y006919D01*
X010868Y006978D02*
X010839Y007007D01*
X010780Y007007D01*
X010750Y006978D01*
X010868Y006978D02*
X010868Y006860D01*
X010839Y006830D01*
X010780Y006830D01*
X010750Y006860D01*
X010506Y006712D02*
X010388Y006594D01*
X010506Y006594D01*
X010821Y007854D02*
X010821Y007972D01*
X010821Y007913D02*
X010998Y007913D01*
X011057Y007913D02*
X011234Y007913D01*
X011234Y007854D02*
X011234Y007972D01*
X011145Y008035D02*
X011145Y008153D01*
X011175Y008216D02*
X011234Y008275D01*
X011175Y008334D01*
X011057Y008334D01*
X010998Y008305D02*
X010968Y008334D01*
X010939Y008334D01*
X010909Y008305D01*
X010909Y008216D01*
X010968Y008216D01*
X010998Y008246D01*
X010998Y008305D01*
X011057Y008216D02*
X011175Y008216D01*
X011204Y008398D02*
X011234Y008427D01*
X011234Y008486D01*
X011204Y008516D01*
X011175Y008516D01*
X011145Y008486D01*
X011145Y008427D01*
X011116Y008398D01*
X011086Y008398D01*
X011057Y008427D01*
X011057Y008486D01*
X011086Y008516D01*
X011086Y008579D02*
X011116Y008579D01*
X011145Y008608D01*
X011145Y008667D01*
X011175Y008697D01*
X011204Y008697D01*
X011234Y008667D01*
X011234Y008608D01*
X011204Y008579D01*
X011086Y008579D02*
X011057Y008608D01*
X011057Y008667D01*
X011086Y008697D01*
X010821Y008334D02*
X010850Y008275D01*
X010909Y008216D01*
X010909Y008153D02*
X010939Y008124D01*
X010939Y008035D01*
X010998Y008035D02*
X010821Y008035D01*
X010821Y008124D01*
X010850Y008153D01*
X010909Y008153D01*
X011057Y007913D02*
X011116Y007854D01*
X017277Y011712D02*
X017395Y011830D01*
X017395Y011860D01*
X017366Y011889D01*
X017307Y011889D01*
X017277Y011860D01*
X017336Y011948D02*
X017336Y012125D01*
X017277Y012125D02*
X017395Y012125D01*
X017459Y012125D02*
X017547Y012125D01*
X017577Y012096D01*
X017577Y012037D01*
X017547Y012007D01*
X017459Y012007D01*
X017459Y011948D02*
X017459Y012125D01*
X017640Y012125D02*
X017640Y012037D01*
X017699Y012066D01*
X017728Y012066D01*
X017758Y012037D01*
X017758Y011978D01*
X017728Y011948D01*
X017669Y011948D01*
X017640Y011978D01*
X017640Y011889D02*
X017640Y011771D01*
X017699Y011712D01*
X017758Y011771D01*
X017758Y011889D01*
X017821Y011860D02*
X017821Y011830D01*
X017851Y011801D01*
X017910Y011801D01*
X017939Y011771D01*
X017939Y011742D01*
X017910Y011712D01*
X017851Y011712D01*
X017821Y011742D01*
X017821Y011860D02*
X017851Y011889D01*
X017910Y011889D01*
X017939Y011860D01*
X018002Y011860D02*
X018002Y011830D01*
X018032Y011801D01*
X018091Y011801D01*
X018120Y011771D01*
X018120Y011742D01*
X018091Y011712D01*
X018032Y011712D01*
X018002Y011742D01*
X018002Y011860D02*
X018032Y011889D01*
X018091Y011889D01*
X018120Y011860D01*
X017758Y012125D02*
X017640Y012125D01*
X017577Y011801D02*
X017459Y011801D01*
X017395Y011712D02*
X017277Y011712D01*
X017996Y013681D02*
X017966Y013710D01*
X017996Y013681D02*
X018055Y013681D01*
X018084Y013710D01*
X018084Y013740D01*
X018055Y013769D01*
X018025Y013769D01*
X018055Y013769D02*
X018084Y013799D01*
X018084Y013828D01*
X018055Y013858D01*
X017996Y013858D01*
X017966Y013828D01*
X018025Y013917D02*
X018025Y014094D01*
X017966Y014094D02*
X018084Y014094D01*
X018148Y014094D02*
X018236Y014094D01*
X018266Y014064D01*
X018266Y014005D01*
X018236Y013976D01*
X018148Y013976D01*
X018148Y013917D02*
X018148Y014094D01*
X018329Y014005D02*
X018447Y014005D01*
X018417Y013917D02*
X018417Y014094D01*
X018329Y014005D01*
X018329Y013858D02*
X018329Y013740D01*
X018388Y013681D01*
X018447Y013740D01*
X018447Y013858D01*
X018510Y013828D02*
X018510Y013799D01*
X018540Y013769D01*
X018599Y013769D01*
X018628Y013740D01*
X018628Y013710D01*
X018599Y013681D01*
X018540Y013681D01*
X018510Y013710D01*
X018510Y013828D02*
X018540Y013858D01*
X018599Y013858D01*
X018628Y013828D01*
X018691Y013828D02*
X018691Y013799D01*
X018721Y013769D01*
X018780Y013769D01*
X018809Y013740D01*
X018809Y013710D01*
X018780Y013681D01*
X018721Y013681D01*
X018691Y013710D01*
X018691Y013828D02*
X018721Y013858D01*
X018780Y013858D01*
X018809Y013828D01*
X018266Y013769D02*
X018148Y013769D01*
X019541Y015246D02*
X019659Y015246D01*
X019722Y015246D02*
X019840Y015246D01*
X019904Y015216D02*
X019992Y015216D01*
X020022Y015246D01*
X020022Y015305D01*
X019992Y015334D01*
X019904Y015334D01*
X019904Y015157D01*
X019963Y015216D02*
X020022Y015157D01*
X020085Y015157D02*
X020203Y015157D01*
X020266Y015187D02*
X020296Y015157D01*
X020355Y015157D01*
X020384Y015187D01*
X020384Y015246D01*
X020325Y015246D01*
X020266Y015305D02*
X020266Y015187D01*
X020266Y015305D02*
X020296Y015334D01*
X020355Y015334D01*
X020384Y015305D01*
X020447Y015334D02*
X020447Y015246D01*
X020506Y015275D01*
X020536Y015275D01*
X020565Y015246D01*
X020565Y015187D01*
X020536Y015157D01*
X020477Y015157D01*
X020447Y015187D01*
X020447Y015334D02*
X020565Y015334D01*
X020629Y015305D02*
X020658Y015334D01*
X020717Y015334D01*
X020746Y015305D01*
X020629Y015187D01*
X020658Y015157D01*
X020717Y015157D01*
X020746Y015187D01*
X020746Y015305D01*
X020629Y015305D02*
X020629Y015187D01*
X020203Y015334D02*
X020085Y015334D01*
X020085Y015157D01*
X020085Y015246D02*
X020144Y015246D01*
X019904Y015393D02*
X019904Y015423D01*
X020022Y015541D01*
X020022Y015570D01*
X019904Y015570D01*
X019840Y015541D02*
X019840Y015482D01*
X019811Y015452D01*
X019722Y015452D01*
X019722Y015393D02*
X019722Y015570D01*
X019811Y015570D01*
X019840Y015541D01*
X019659Y015570D02*
X019541Y015570D01*
X019600Y015570D02*
X019600Y015393D01*
X019630Y015334D02*
X019541Y015246D01*
X019630Y015157D02*
X019630Y015334D01*
X020919Y013799D02*
X021037Y013799D01*
X020978Y013799D02*
X020978Y013622D01*
X020949Y013562D02*
X021008Y013562D01*
X021037Y013533D01*
X021037Y013503D01*
X021008Y013474D01*
X021037Y013444D01*
X021037Y013415D01*
X021008Y013385D01*
X020949Y013385D01*
X020919Y013415D01*
X020978Y013474D02*
X021008Y013474D01*
X021100Y013474D02*
X021218Y013474D01*
X021282Y013444D02*
X021370Y013444D01*
X021400Y013474D01*
X021400Y013533D01*
X021370Y013562D01*
X021282Y013562D01*
X021282Y013385D01*
X021341Y013444D02*
X021400Y013385D01*
X021463Y013385D02*
X021581Y013385D01*
X021644Y013415D02*
X021674Y013385D01*
X021732Y013385D01*
X021762Y013415D01*
X021762Y013474D01*
X021703Y013474D01*
X021644Y013533D02*
X021644Y013415D01*
X021644Y013533D02*
X021674Y013562D01*
X021732Y013562D01*
X021762Y013533D01*
X021825Y013562D02*
X021825Y013474D01*
X021884Y013503D01*
X021914Y013503D01*
X021943Y013474D01*
X021943Y013415D01*
X021914Y013385D01*
X021855Y013385D01*
X021825Y013415D01*
X021825Y013562D02*
X021943Y013562D01*
X022006Y013533D02*
X022036Y013562D01*
X022095Y013562D01*
X022124Y013533D01*
X022006Y013415D01*
X022036Y013385D01*
X022095Y013385D01*
X022124Y013415D01*
X022124Y013533D01*
X022006Y013533D02*
X022006Y013415D01*
X021581Y013562D02*
X021463Y013562D01*
X021463Y013385D01*
X021463Y013474D02*
X021522Y013474D01*
X021370Y013622D02*
X021311Y013622D01*
X021282Y013651D01*
X021282Y013681D01*
X021311Y013710D01*
X021370Y013710D01*
X021400Y013681D01*
X021400Y013651D01*
X021370Y013622D01*
X021370Y013710D02*
X021400Y013740D01*
X021400Y013769D01*
X021370Y013799D01*
X021311Y013799D01*
X021282Y013769D01*
X021282Y013740D01*
X021311Y013710D01*
X021218Y013710D02*
X021189Y013681D01*
X021100Y013681D01*
X021100Y013622D02*
X021100Y013799D01*
X021189Y013799D01*
X021218Y013769D01*
X021218Y013710D01*
X020949Y013562D02*
X020919Y013533D01*
X011609Y016220D02*
X011491Y016220D01*
X011550Y016220D02*
X011550Y016043D01*
X011427Y016043D02*
X011427Y016161D01*
X011368Y016220D01*
X011309Y016161D01*
X011309Y016043D01*
X011246Y016072D02*
X011217Y016043D01*
X011128Y016043D01*
X011128Y016220D01*
X011217Y016220D01*
X011246Y016190D01*
X011246Y016161D01*
X011217Y016131D01*
X011128Y016131D01*
X011065Y016102D02*
X011065Y016220D01*
X011035Y016279D02*
X010976Y016279D01*
X010947Y016309D01*
X011006Y016368D02*
X011035Y016368D01*
X011065Y016338D01*
X011065Y016309D01*
X011035Y016279D01*
X011035Y016368D02*
X011065Y016397D01*
X011065Y016427D01*
X011035Y016456D01*
X010976Y016456D01*
X010947Y016427D01*
X010884Y016427D02*
X010884Y016368D01*
X010854Y016338D01*
X010766Y016338D01*
X010766Y016279D02*
X010766Y016456D01*
X010854Y016456D01*
X010884Y016427D01*
X010702Y016456D02*
X010584Y016456D01*
X010643Y016456D02*
X010643Y016279D01*
X010673Y016220D02*
X010584Y016131D01*
X010702Y016131D01*
X010766Y016131D02*
X010884Y016131D01*
X010947Y016102D02*
X011006Y016043D01*
X011065Y016102D01*
X010947Y016102D02*
X010947Y016220D01*
X010673Y016220D02*
X010673Y016043D01*
X011217Y016131D02*
X011246Y016102D01*
X011246Y016072D01*
X011309Y016131D02*
X011427Y016131D01*
X019738Y020561D02*
X019856Y020561D01*
X019919Y020561D02*
X020037Y020561D01*
X020100Y020590D02*
X020130Y020561D01*
X020189Y020561D01*
X020218Y020531D01*
X020218Y020502D01*
X020189Y020472D01*
X020130Y020472D01*
X020100Y020502D01*
X020100Y020590D02*
X020100Y020620D01*
X020130Y020649D01*
X020189Y020649D01*
X020218Y020620D01*
X020282Y020620D02*
X020282Y020502D01*
X020311Y020472D01*
X020370Y020472D01*
X020400Y020502D01*
X020463Y020472D02*
X020581Y020472D01*
X020644Y020472D02*
X020644Y020649D01*
X020674Y020561D02*
X020762Y020472D01*
X020825Y020443D02*
X020943Y020443D01*
X021007Y020472D02*
X021007Y020649D01*
X021007Y020561D02*
X021125Y020561D01*
X021125Y020649D02*
X021125Y020472D01*
X021047Y020866D02*
X021047Y021043D01*
X020959Y020954D01*
X021076Y020954D01*
X021140Y020954D02*
X021258Y020954D01*
X021321Y020984D02*
X021350Y020954D01*
X021409Y020954D01*
X021439Y020925D01*
X021439Y020895D01*
X021409Y020866D01*
X021350Y020866D01*
X021321Y020895D01*
X021321Y020984D02*
X021321Y021013D01*
X021350Y021043D01*
X021409Y021043D01*
X021439Y021013D01*
X021502Y021043D02*
X021591Y021043D01*
X021620Y021013D01*
X021620Y020895D01*
X021591Y020866D01*
X021502Y020866D01*
X021502Y021043D01*
X021502Y021102D02*
X021620Y021220D01*
X021620Y021249D01*
X021591Y021279D01*
X021532Y021279D01*
X021502Y021249D01*
X021380Y021279D02*
X021380Y021102D01*
X021321Y021102D02*
X021439Y021102D01*
X021502Y021102D02*
X021620Y021102D01*
X021683Y021013D02*
X021683Y020895D01*
X021713Y020866D01*
X021772Y020866D01*
X021801Y020895D01*
X021801Y021013D01*
X021772Y021043D01*
X021713Y021043D01*
X021683Y021013D01*
X021865Y020836D02*
X021983Y020836D01*
X022046Y020866D02*
X022046Y021043D01*
X022046Y020954D02*
X022164Y020954D01*
X022164Y020866D02*
X022164Y021043D01*
X021380Y021279D02*
X021321Y021220D01*
X021258Y021249D02*
X021258Y021190D01*
X021228Y021161D01*
X021140Y021161D01*
X021140Y021102D02*
X021140Y021279D01*
X021228Y021279D01*
X021258Y021249D01*
X021076Y021279D02*
X020959Y021279D01*
X021017Y021279D02*
X021017Y021102D01*
X020844Y021417D02*
X020844Y021594D01*
X020844Y021505D02*
X020726Y021505D01*
X020726Y021417D02*
X020726Y021594D01*
X020662Y021387D02*
X020544Y021387D01*
X020483Y021417D02*
X020424Y021417D01*
X020453Y021417D02*
X020453Y021594D01*
X020424Y021594D02*
X020483Y021594D01*
X020360Y021564D02*
X020331Y021594D01*
X020242Y021594D01*
X020242Y021417D01*
X020331Y021417D01*
X020360Y021446D01*
X020360Y021564D01*
X020331Y021653D02*
X020272Y021653D01*
X020242Y021683D01*
X020179Y021653D02*
X020061Y021653D01*
X020120Y021653D02*
X020120Y021830D01*
X020061Y021771D01*
X019998Y021742D02*
X019968Y021712D01*
X019880Y021712D01*
X019880Y021653D02*
X019880Y021830D01*
X019968Y021830D01*
X019998Y021801D01*
X019998Y021742D01*
X020091Y021594D02*
X020061Y021564D01*
X020061Y021535D01*
X020091Y021505D01*
X020150Y021505D01*
X020179Y021476D01*
X020179Y021446D01*
X020150Y021417D01*
X020091Y021417D01*
X020061Y021446D01*
X019998Y021505D02*
X019880Y021505D01*
X019817Y021505D02*
X019699Y021505D01*
X019787Y021594D01*
X019787Y021417D01*
X019758Y021653D02*
X019758Y021830D01*
X019699Y021830D02*
X019817Y021830D01*
X020091Y021594D02*
X020150Y021594D01*
X020179Y021564D01*
X020331Y021653D02*
X020360Y021683D01*
X020360Y021712D01*
X020331Y021742D01*
X020301Y021742D01*
X020331Y021742D02*
X020360Y021771D01*
X020360Y021801D01*
X020331Y021830D01*
X020272Y021830D01*
X020242Y021801D01*
X020959Y021938D02*
X021076Y021938D01*
X021140Y021938D02*
X021258Y021938D01*
X021321Y021997D02*
X021321Y021879D01*
X021350Y021850D01*
X021409Y021850D01*
X021439Y021879D01*
X021502Y021879D02*
X021532Y021850D01*
X021591Y021850D01*
X021620Y021879D01*
X021620Y021909D01*
X021591Y021938D01*
X021532Y021938D01*
X021502Y021968D01*
X021502Y021997D01*
X021532Y022027D01*
X021591Y022027D01*
X021620Y021997D01*
X021620Y022086D02*
X021502Y022086D01*
X021561Y022086D02*
X021561Y022263D01*
X021502Y022204D01*
X021439Y022086D02*
X021321Y022086D01*
X021380Y022086D02*
X021380Y022263D01*
X021321Y022204D01*
X021258Y022175D02*
X021228Y022145D01*
X021140Y022145D01*
X021140Y022086D02*
X021140Y022263D01*
X021228Y022263D01*
X021258Y022234D01*
X021258Y022175D01*
X021350Y022027D02*
X021321Y021997D01*
X021350Y022027D02*
X021409Y022027D01*
X021439Y021997D01*
X021683Y021821D02*
X021801Y021821D01*
X021865Y021850D02*
X021865Y022027D01*
X021865Y021938D02*
X021983Y021938D01*
X021983Y021850D02*
X021983Y022027D01*
X021047Y022027D02*
X021047Y021850D01*
X020959Y021938D02*
X021047Y022027D01*
X021017Y022086D02*
X021017Y022263D01*
X020959Y022263D02*
X021076Y022263D01*
X020370Y020885D02*
X020282Y020797D01*
X020400Y020797D01*
X020370Y020885D02*
X020370Y020708D01*
X020370Y020649D02*
X020311Y020649D01*
X020282Y020620D01*
X020370Y020649D02*
X020400Y020620D01*
X020463Y020649D02*
X020463Y020472D01*
X020644Y020531D02*
X020762Y020649D01*
X020218Y020708D02*
X020100Y020708D01*
X020159Y020708D02*
X020159Y020885D01*
X020100Y020826D01*
X020037Y020797D02*
X020008Y020767D01*
X019919Y020767D01*
X019919Y020708D02*
X019919Y020885D01*
X020008Y020885D01*
X020037Y020856D01*
X020037Y020797D01*
X019856Y020885D02*
X019738Y020885D01*
X019797Y020885D02*
X019797Y020708D01*
X019826Y020649D02*
X019738Y020561D01*
X019826Y020649D02*
X019826Y020472D01*
D24*
X014641Y015059D02*
X016163Y012809D01*
X016183Y012776D01*
X016200Y012741D01*
X016213Y012704D01*
X016223Y012667D01*
X016229Y012628D01*
X016231Y012590D01*
X016229Y012551D01*
X016224Y012513D01*
X016214Y012475D01*
X016201Y012438D01*
X016185Y012403D01*
X016165Y012370D01*
X016142Y012339D01*
X016116Y012310D01*
X016088Y012284D01*
X016056Y012261D01*
X016023Y012241D01*
X015988Y012224D01*
X015952Y012211D01*
X015914Y012202D01*
X015876Y012196D01*
X015837Y012194D01*
X012793Y012194D01*
X012754Y012196D01*
X012716Y012202D01*
X012678Y012211D01*
X012642Y012224D01*
X012607Y012241D01*
X012574Y012261D01*
X012542Y012284D01*
X012514Y012310D01*
X012488Y012339D01*
X012465Y012370D01*
X012445Y012403D01*
X012429Y012438D01*
X012416Y012475D01*
X012406Y012513D01*
X012401Y012551D01*
X012399Y012590D01*
X012401Y012628D01*
X012407Y012667D01*
X012417Y012704D01*
X012430Y012741D01*
X012447Y012776D01*
X012467Y012809D01*
X012466Y012809D02*
X013989Y015059D01*
X014012Y015090D01*
X014038Y015118D01*
X014066Y015144D01*
X014097Y015166D01*
X014130Y015186D01*
X014165Y015202D01*
X014201Y015215D01*
X014239Y015225D01*
X014277Y015230D01*
X014315Y015232D01*
X014353Y015230D01*
X014391Y015225D01*
X014429Y015215D01*
X014465Y015202D01*
X014500Y015186D01*
X014533Y015166D01*
X014564Y015144D01*
X014592Y015118D01*
X014618Y015090D01*
X014641Y015059D01*
M02*
