G75*
G70*
%OFA0B0*%
%FSLAX24Y24*%
%IPPOS*%
%LPD*%
%AMOC8*
5,1,8,0,0,1.08239X$1,22.5*
%
%ADD10C,0.0000*%
D10*
X010181Y005929D02*
X010179Y005968D01*
X010173Y006006D01*
X010164Y006043D01*
X010151Y006080D01*
X010134Y006115D01*
X010115Y006148D01*
X010092Y006179D01*
X010066Y006208D01*
X010065Y006207D02*
X009902Y006370D01*
X009787Y006649D02*
X009787Y006913D01*
X009902Y007192D02*
X010065Y007355D01*
X010181Y007633D02*
X010181Y015622D01*
X010180Y015622D02*
X010178Y015653D01*
X010173Y015684D01*
X010164Y015714D01*
X010152Y015743D01*
X010137Y015770D01*
X010119Y015795D01*
X010099Y015819D01*
X009984Y016098D02*
X009984Y016410D01*
X009986Y016441D01*
X009991Y016472D01*
X010000Y016502D01*
X010012Y016531D01*
X010027Y016558D01*
X010045Y016583D01*
X010065Y016607D01*
X010181Y016885D02*
X010181Y022627D01*
X036857Y022627D01*
X037043Y022597D02*
X038061Y022258D01*
X038061Y022259D02*
X038105Y022242D01*
X038147Y022222D01*
X038187Y022199D01*
X038226Y022173D01*
X038262Y022143D01*
X038296Y022111D01*
X038328Y022077D01*
X038356Y022040D01*
X038382Y022001D01*
X038404Y021960D01*
X038423Y021917D01*
X038439Y021873D01*
X038451Y021828D01*
X038459Y021782D01*
X038464Y021735D01*
X038465Y021689D01*
X038462Y021642D01*
X038456Y021596D01*
X038446Y021550D01*
X038433Y021505D01*
X038416Y021462D01*
X038395Y021420D01*
X037316Y019397D01*
X037293Y019357D01*
X037267Y019320D01*
X037239Y019285D01*
X037207Y019252D01*
X037173Y019221D01*
X037137Y019193D01*
X037099Y019168D01*
X037059Y019146D01*
X037018Y019127D01*
X036975Y019112D01*
X036931Y019100D01*
X036886Y019091D01*
X036841Y019086D01*
X036795Y019084D01*
X033606Y019084D01*
X033606Y019085D02*
X033560Y019083D01*
X033514Y019078D01*
X033468Y019069D01*
X033423Y019056D01*
X033380Y019040D01*
X033338Y019021D01*
X033297Y018998D01*
X033259Y018972D01*
X033222Y018943D01*
X033188Y018912D01*
X033157Y018878D01*
X033128Y018841D01*
X033102Y018803D01*
X033079Y018762D01*
X033060Y018720D01*
X033044Y018677D01*
X033031Y018632D01*
X033022Y018586D01*
X033017Y018540D01*
X033015Y018494D01*
X033015Y015344D01*
X033017Y015298D01*
X033022Y015252D01*
X033031Y015206D01*
X033044Y015161D01*
X033060Y015118D01*
X033079Y015076D01*
X033102Y015035D01*
X033128Y014997D01*
X033157Y014960D01*
X033188Y014926D01*
X033222Y014895D01*
X033259Y014866D01*
X033297Y014840D01*
X033338Y014817D01*
X033380Y014798D01*
X033423Y014782D01*
X033468Y014769D01*
X033514Y014760D01*
X033560Y014755D01*
X033606Y014753D01*
X038921Y014753D01*
X038921Y014754D02*
X038967Y014752D01*
X039013Y014747D01*
X039059Y014738D01*
X039104Y014725D01*
X039147Y014709D01*
X039189Y014690D01*
X039230Y014667D01*
X039268Y014641D01*
X039305Y014612D01*
X039339Y014581D01*
X039370Y014547D01*
X039399Y014510D01*
X039425Y014472D01*
X039448Y014431D01*
X039467Y014389D01*
X039483Y014346D01*
X039496Y014301D01*
X039505Y014255D01*
X039510Y014209D01*
X039512Y014163D01*
X039511Y014163D02*
X039511Y004320D01*
X039512Y004320D02*
X039510Y004274D01*
X039505Y004228D01*
X039496Y004182D01*
X039483Y004137D01*
X039467Y004094D01*
X039448Y004052D01*
X039425Y004011D01*
X039399Y003973D01*
X039370Y003936D01*
X039339Y003902D01*
X039305Y003871D01*
X039268Y003842D01*
X039230Y003816D01*
X039189Y003793D01*
X039147Y003774D01*
X039104Y003758D01*
X039059Y003745D01*
X039013Y003736D01*
X038967Y003731D01*
X038921Y003729D01*
X038921Y003730D02*
X030769Y003730D01*
X030769Y003729D02*
X030738Y003727D01*
X030707Y003722D01*
X030677Y003713D01*
X030648Y003701D01*
X030621Y003686D01*
X030596Y003668D01*
X030572Y003648D01*
X030293Y003533D02*
X030029Y003533D01*
X029990Y003535D01*
X029952Y003541D01*
X029915Y003550D01*
X029878Y003563D01*
X029843Y003580D01*
X029810Y003599D01*
X029779Y003622D01*
X029750Y003648D01*
X029554Y003730D02*
X010181Y003730D01*
X010181Y005929D01*
X009902Y006370D02*
X009876Y006399D01*
X009853Y006430D01*
X009834Y006463D01*
X009817Y006498D01*
X009804Y006535D01*
X009795Y006572D01*
X009789Y006610D01*
X009787Y006649D01*
X009787Y006913D02*
X009789Y006952D01*
X009795Y006990D01*
X009804Y007027D01*
X009817Y007064D01*
X009834Y007099D01*
X009853Y007132D01*
X009876Y007163D01*
X009902Y007192D01*
X010066Y007354D02*
X010092Y007383D01*
X010115Y007414D01*
X010134Y007447D01*
X010151Y007482D01*
X010164Y007519D01*
X010173Y007556D01*
X010179Y007594D01*
X010181Y007633D01*
X010732Y005305D02*
X010734Y005346D01*
X010740Y005387D01*
X010750Y005427D01*
X010763Y005466D01*
X010780Y005503D01*
X010801Y005539D01*
X010825Y005573D01*
X010852Y005604D01*
X010881Y005632D01*
X010914Y005658D01*
X010948Y005680D01*
X010985Y005699D01*
X011023Y005714D01*
X011063Y005726D01*
X011103Y005734D01*
X011144Y005738D01*
X011186Y005738D01*
X011227Y005734D01*
X011267Y005726D01*
X011307Y005714D01*
X011345Y005699D01*
X011381Y005680D01*
X011416Y005658D01*
X011449Y005632D01*
X011478Y005604D01*
X011505Y005573D01*
X011529Y005539D01*
X011550Y005503D01*
X011567Y005466D01*
X011580Y005427D01*
X011590Y005387D01*
X011596Y005346D01*
X011598Y005305D01*
X011596Y005264D01*
X011590Y005223D01*
X011580Y005183D01*
X011567Y005144D01*
X011550Y005107D01*
X011529Y005071D01*
X011505Y005037D01*
X011478Y005006D01*
X011449Y004978D01*
X011416Y004952D01*
X011382Y004930D01*
X011345Y004911D01*
X011307Y004896D01*
X011267Y004884D01*
X011227Y004876D01*
X011186Y004872D01*
X011144Y004872D01*
X011103Y004876D01*
X011063Y004884D01*
X011023Y004896D01*
X010985Y004911D01*
X010949Y004930D01*
X010914Y004952D01*
X010881Y004978D01*
X010852Y005006D01*
X010825Y005037D01*
X010801Y005071D01*
X010780Y005107D01*
X010763Y005144D01*
X010750Y005183D01*
X010740Y005223D01*
X010734Y005264D01*
X010732Y005305D01*
X018153Y010423D02*
X018155Y010467D01*
X018161Y010511D01*
X018171Y010554D01*
X018184Y010596D01*
X018202Y010636D01*
X018223Y010675D01*
X018247Y010712D01*
X018274Y010747D01*
X018305Y010779D01*
X018338Y010808D01*
X018374Y010834D01*
X018412Y010856D01*
X018452Y010875D01*
X018493Y010891D01*
X018536Y010903D01*
X018579Y010911D01*
X018623Y010915D01*
X018667Y010915D01*
X018711Y010911D01*
X018754Y010903D01*
X018797Y010891D01*
X018838Y010875D01*
X018878Y010856D01*
X018916Y010834D01*
X018952Y010808D01*
X018985Y010779D01*
X019016Y010747D01*
X019043Y010712D01*
X019067Y010675D01*
X019088Y010636D01*
X019106Y010596D01*
X019119Y010554D01*
X019129Y010511D01*
X019135Y010467D01*
X019137Y010423D01*
X019135Y010379D01*
X019129Y010335D01*
X019119Y010292D01*
X019106Y010250D01*
X019088Y010210D01*
X019067Y010171D01*
X019043Y010134D01*
X019016Y010099D01*
X018985Y010067D01*
X018952Y010038D01*
X018916Y010012D01*
X018878Y009990D01*
X018838Y009971D01*
X018797Y009955D01*
X018754Y009943D01*
X018711Y009935D01*
X018667Y009931D01*
X018623Y009931D01*
X018579Y009935D01*
X018536Y009943D01*
X018493Y009955D01*
X018452Y009971D01*
X018412Y009990D01*
X018374Y010012D01*
X018338Y010038D01*
X018305Y010067D01*
X018274Y010099D01*
X018247Y010134D01*
X018223Y010171D01*
X018202Y010210D01*
X018184Y010250D01*
X018171Y010292D01*
X018161Y010335D01*
X018155Y010379D01*
X018153Y010423D01*
X018153Y012391D02*
X018155Y012435D01*
X018161Y012479D01*
X018171Y012522D01*
X018184Y012564D01*
X018202Y012604D01*
X018223Y012643D01*
X018247Y012680D01*
X018274Y012715D01*
X018305Y012747D01*
X018338Y012776D01*
X018374Y012802D01*
X018412Y012824D01*
X018452Y012843D01*
X018493Y012859D01*
X018536Y012871D01*
X018579Y012879D01*
X018623Y012883D01*
X018667Y012883D01*
X018711Y012879D01*
X018754Y012871D01*
X018797Y012859D01*
X018838Y012843D01*
X018878Y012824D01*
X018916Y012802D01*
X018952Y012776D01*
X018985Y012747D01*
X019016Y012715D01*
X019043Y012680D01*
X019067Y012643D01*
X019088Y012604D01*
X019106Y012564D01*
X019119Y012522D01*
X019129Y012479D01*
X019135Y012435D01*
X019137Y012391D01*
X019135Y012347D01*
X019129Y012303D01*
X019119Y012260D01*
X019106Y012218D01*
X019088Y012178D01*
X019067Y012139D01*
X019043Y012102D01*
X019016Y012067D01*
X018985Y012035D01*
X018952Y012006D01*
X018916Y011980D01*
X018878Y011958D01*
X018838Y011939D01*
X018797Y011923D01*
X018754Y011911D01*
X018711Y011903D01*
X018667Y011899D01*
X018623Y011899D01*
X018579Y011903D01*
X018536Y011911D01*
X018493Y011923D01*
X018452Y011939D01*
X018412Y011958D01*
X018374Y011980D01*
X018338Y012006D01*
X018305Y012035D01*
X018274Y012067D01*
X018247Y012102D01*
X018223Y012139D01*
X018202Y012178D01*
X018184Y012218D01*
X018171Y012260D01*
X018161Y012303D01*
X018155Y012347D01*
X018153Y012391D01*
X018153Y014360D02*
X018155Y014404D01*
X018161Y014448D01*
X018171Y014491D01*
X018184Y014533D01*
X018202Y014573D01*
X018223Y014612D01*
X018247Y014649D01*
X018274Y014684D01*
X018305Y014716D01*
X018338Y014745D01*
X018374Y014771D01*
X018412Y014793D01*
X018452Y014812D01*
X018493Y014828D01*
X018536Y014840D01*
X018579Y014848D01*
X018623Y014852D01*
X018667Y014852D01*
X018711Y014848D01*
X018754Y014840D01*
X018797Y014828D01*
X018838Y014812D01*
X018878Y014793D01*
X018916Y014771D01*
X018952Y014745D01*
X018985Y014716D01*
X019016Y014684D01*
X019043Y014649D01*
X019067Y014612D01*
X019088Y014573D01*
X019106Y014533D01*
X019119Y014491D01*
X019129Y014448D01*
X019135Y014404D01*
X019137Y014360D01*
X019135Y014316D01*
X019129Y014272D01*
X019119Y014229D01*
X019106Y014187D01*
X019088Y014147D01*
X019067Y014108D01*
X019043Y014071D01*
X019016Y014036D01*
X018985Y014004D01*
X018952Y013975D01*
X018916Y013949D01*
X018878Y013927D01*
X018838Y013908D01*
X018797Y013892D01*
X018754Y013880D01*
X018711Y013872D01*
X018667Y013868D01*
X018623Y013868D01*
X018579Y013872D01*
X018536Y013880D01*
X018493Y013892D01*
X018452Y013908D01*
X018412Y013927D01*
X018374Y013949D01*
X018338Y013975D01*
X018305Y014004D01*
X018274Y014036D01*
X018247Y014071D01*
X018223Y014108D01*
X018202Y014147D01*
X018184Y014187D01*
X018171Y014229D01*
X018161Y014272D01*
X018155Y014316D01*
X018153Y014360D01*
X018153Y016328D02*
X018155Y016372D01*
X018161Y016416D01*
X018171Y016459D01*
X018184Y016501D01*
X018202Y016541D01*
X018223Y016580D01*
X018247Y016617D01*
X018274Y016652D01*
X018305Y016684D01*
X018338Y016713D01*
X018374Y016739D01*
X018412Y016761D01*
X018452Y016780D01*
X018493Y016796D01*
X018536Y016808D01*
X018579Y016816D01*
X018623Y016820D01*
X018667Y016820D01*
X018711Y016816D01*
X018754Y016808D01*
X018797Y016796D01*
X018838Y016780D01*
X018878Y016761D01*
X018916Y016739D01*
X018952Y016713D01*
X018985Y016684D01*
X019016Y016652D01*
X019043Y016617D01*
X019067Y016580D01*
X019088Y016541D01*
X019106Y016501D01*
X019119Y016459D01*
X019129Y016416D01*
X019135Y016372D01*
X019137Y016328D01*
X019135Y016284D01*
X019129Y016240D01*
X019119Y016197D01*
X019106Y016155D01*
X019088Y016115D01*
X019067Y016076D01*
X019043Y016039D01*
X019016Y016004D01*
X018985Y015972D01*
X018952Y015943D01*
X018916Y015917D01*
X018878Y015895D01*
X018838Y015876D01*
X018797Y015860D01*
X018754Y015848D01*
X018711Y015840D01*
X018667Y015836D01*
X018623Y015836D01*
X018579Y015840D01*
X018536Y015848D01*
X018493Y015860D01*
X018452Y015876D01*
X018412Y015895D01*
X018374Y015917D01*
X018338Y015943D01*
X018305Y015972D01*
X018274Y016004D01*
X018247Y016039D01*
X018223Y016076D01*
X018202Y016115D01*
X018184Y016155D01*
X018171Y016197D01*
X018161Y016240D01*
X018155Y016284D01*
X018153Y016328D01*
X010732Y013179D02*
X010734Y013220D01*
X010740Y013261D01*
X010750Y013301D01*
X010763Y013340D01*
X010780Y013377D01*
X010801Y013413D01*
X010825Y013447D01*
X010852Y013478D01*
X010881Y013506D01*
X010914Y013532D01*
X010948Y013554D01*
X010985Y013573D01*
X011023Y013588D01*
X011063Y013600D01*
X011103Y013608D01*
X011144Y013612D01*
X011186Y013612D01*
X011227Y013608D01*
X011267Y013600D01*
X011307Y013588D01*
X011345Y013573D01*
X011381Y013554D01*
X011416Y013532D01*
X011449Y013506D01*
X011478Y013478D01*
X011505Y013447D01*
X011529Y013413D01*
X011550Y013377D01*
X011567Y013340D01*
X011580Y013301D01*
X011590Y013261D01*
X011596Y013220D01*
X011598Y013179D01*
X011596Y013138D01*
X011590Y013097D01*
X011580Y013057D01*
X011567Y013018D01*
X011550Y012981D01*
X011529Y012945D01*
X011505Y012911D01*
X011478Y012880D01*
X011449Y012852D01*
X011416Y012826D01*
X011382Y012804D01*
X011345Y012785D01*
X011307Y012770D01*
X011267Y012758D01*
X011227Y012750D01*
X011186Y012746D01*
X011144Y012746D01*
X011103Y012750D01*
X011063Y012758D01*
X011023Y012770D01*
X010985Y012785D01*
X010949Y012804D01*
X010914Y012826D01*
X010881Y012852D01*
X010852Y012880D01*
X010825Y012911D01*
X010801Y012945D01*
X010780Y012981D01*
X010763Y013018D01*
X010750Y013057D01*
X010740Y013097D01*
X010734Y013138D01*
X010732Y013179D01*
X010099Y015819D02*
X010073Y015848D01*
X010050Y015879D01*
X010031Y015912D01*
X010014Y015947D01*
X010001Y015984D01*
X009992Y016021D01*
X009986Y016059D01*
X009984Y016098D01*
X010066Y016606D02*
X010092Y016635D01*
X010115Y016666D01*
X010134Y016699D01*
X010151Y016734D01*
X010164Y016771D01*
X010173Y016808D01*
X010179Y016846D01*
X010181Y016885D01*
X010732Y021053D02*
X010734Y021094D01*
X010740Y021135D01*
X010750Y021175D01*
X010763Y021214D01*
X010780Y021251D01*
X010801Y021287D01*
X010825Y021321D01*
X010852Y021352D01*
X010881Y021380D01*
X010914Y021406D01*
X010948Y021428D01*
X010985Y021447D01*
X011023Y021462D01*
X011063Y021474D01*
X011103Y021482D01*
X011144Y021486D01*
X011186Y021486D01*
X011227Y021482D01*
X011267Y021474D01*
X011307Y021462D01*
X011345Y021447D01*
X011381Y021428D01*
X011416Y021406D01*
X011449Y021380D01*
X011478Y021352D01*
X011505Y021321D01*
X011529Y021287D01*
X011550Y021251D01*
X011567Y021214D01*
X011580Y021175D01*
X011590Y021135D01*
X011596Y021094D01*
X011598Y021053D01*
X011596Y021012D01*
X011590Y020971D01*
X011580Y020931D01*
X011567Y020892D01*
X011550Y020855D01*
X011529Y020819D01*
X011505Y020785D01*
X011478Y020754D01*
X011449Y020726D01*
X011416Y020700D01*
X011382Y020678D01*
X011345Y020659D01*
X011307Y020644D01*
X011267Y020632D01*
X011227Y020624D01*
X011186Y020620D01*
X011144Y020620D01*
X011103Y020624D01*
X011063Y020632D01*
X011023Y020644D01*
X010985Y020659D01*
X010949Y020678D01*
X010914Y020700D01*
X010881Y020726D01*
X010852Y020754D01*
X010825Y020785D01*
X010801Y020819D01*
X010780Y020855D01*
X010763Y020892D01*
X010750Y020931D01*
X010740Y020971D01*
X010734Y021012D01*
X010732Y021053D01*
X022543Y021053D02*
X022545Y021094D01*
X022551Y021135D01*
X022561Y021175D01*
X022574Y021214D01*
X022591Y021251D01*
X022612Y021287D01*
X022636Y021321D01*
X022663Y021352D01*
X022692Y021380D01*
X022725Y021406D01*
X022759Y021428D01*
X022796Y021447D01*
X022834Y021462D01*
X022874Y021474D01*
X022914Y021482D01*
X022955Y021486D01*
X022997Y021486D01*
X023038Y021482D01*
X023078Y021474D01*
X023118Y021462D01*
X023156Y021447D01*
X023192Y021428D01*
X023227Y021406D01*
X023260Y021380D01*
X023289Y021352D01*
X023316Y021321D01*
X023340Y021287D01*
X023361Y021251D01*
X023378Y021214D01*
X023391Y021175D01*
X023401Y021135D01*
X023407Y021094D01*
X023409Y021053D01*
X023407Y021012D01*
X023401Y020971D01*
X023391Y020931D01*
X023378Y020892D01*
X023361Y020855D01*
X023340Y020819D01*
X023316Y020785D01*
X023289Y020754D01*
X023260Y020726D01*
X023227Y020700D01*
X023193Y020678D01*
X023156Y020659D01*
X023118Y020644D01*
X023078Y020632D01*
X023038Y020624D01*
X022997Y020620D01*
X022955Y020620D01*
X022914Y020624D01*
X022874Y020632D01*
X022834Y020644D01*
X022796Y020659D01*
X022760Y020678D01*
X022725Y020700D01*
X022692Y020726D01*
X022663Y020754D01*
X022636Y020785D01*
X022612Y020819D01*
X022591Y020855D01*
X022574Y020892D01*
X022561Y020931D01*
X022551Y020971D01*
X022545Y021012D01*
X022543Y021053D01*
X025141Y021348D02*
X025141Y019970D01*
X025138Y019934D01*
X025139Y019898D01*
X025143Y019861D01*
X025151Y019826D01*
X025163Y019791D01*
X025178Y019758D01*
X025197Y019727D01*
X025219Y019698D01*
X025244Y019671D01*
X025271Y019647D01*
X025301Y019626D01*
X025333Y019609D01*
X025366Y019594D01*
X025401Y019584D01*
X025437Y019576D01*
X027405Y019576D01*
X027441Y019584D01*
X027476Y019594D01*
X027509Y019609D01*
X027541Y019626D01*
X027571Y019647D01*
X027598Y019671D01*
X027623Y019698D01*
X027645Y019727D01*
X027664Y019758D01*
X027679Y019791D01*
X027691Y019826D01*
X027699Y019861D01*
X027703Y019898D01*
X027704Y019934D01*
X027701Y019970D01*
X027700Y019970D02*
X027700Y021348D01*
X027698Y021381D01*
X027693Y021414D01*
X027683Y021445D01*
X027671Y021476D01*
X027655Y021505D01*
X027636Y021532D01*
X027614Y021557D01*
X027589Y021579D01*
X027562Y021598D01*
X027533Y021614D01*
X027502Y021626D01*
X027471Y021636D01*
X027438Y021641D01*
X027405Y021643D01*
X025437Y021643D01*
X025404Y021641D01*
X025371Y021636D01*
X025340Y021626D01*
X025309Y021614D01*
X025280Y021598D01*
X025253Y021579D01*
X025228Y021557D01*
X025206Y021532D01*
X025187Y021505D01*
X025171Y021476D01*
X025159Y021445D01*
X025149Y021414D01*
X025144Y021381D01*
X025142Y021348D01*
X036857Y022628D02*
X036905Y022626D01*
X036952Y022620D01*
X036998Y022611D01*
X037044Y022598D01*
X030260Y013572D02*
X028094Y013572D01*
X028068Y013570D01*
X028043Y013565D01*
X028019Y013557D01*
X027995Y013546D01*
X027974Y013531D01*
X027955Y013514D01*
X027938Y013495D01*
X027923Y013474D01*
X027912Y013450D01*
X027904Y013426D01*
X027899Y013401D01*
X027897Y013375D01*
X027895Y013321D01*
X027890Y013268D01*
X027881Y013215D01*
X027868Y013163D01*
X027852Y013111D01*
X027832Y013061D01*
X027809Y013013D01*
X027782Y012966D01*
X027753Y012921D01*
X027720Y012878D01*
X027685Y012838D01*
X027647Y012800D01*
X027607Y012765D01*
X027564Y012732D01*
X027519Y012703D01*
X027472Y012676D01*
X027424Y012653D01*
X027374Y012633D01*
X027322Y012617D01*
X027270Y012604D01*
X027217Y012595D01*
X027164Y012590D01*
X027110Y012588D01*
X027110Y012194D01*
X027112Y012168D01*
X027117Y012143D01*
X027125Y012119D01*
X027136Y012096D01*
X027151Y012074D01*
X027168Y012055D01*
X027187Y012038D01*
X027208Y012023D01*
X027232Y012012D01*
X027256Y012004D01*
X027281Y011999D01*
X027307Y011997D01*
X030260Y011997D01*
X030286Y011999D01*
X030311Y012004D01*
X030335Y012012D01*
X030358Y012023D01*
X030380Y012038D01*
X030399Y012055D01*
X030416Y012074D01*
X030431Y012095D01*
X030442Y012119D01*
X030450Y012143D01*
X030455Y012168D01*
X030457Y012194D01*
X030456Y012194D02*
X030456Y013375D01*
X030457Y013375D02*
X030455Y013401D01*
X030450Y013426D01*
X030442Y013450D01*
X030431Y013473D01*
X030416Y013495D01*
X030399Y013514D01*
X030380Y013531D01*
X030359Y013546D01*
X030335Y013557D01*
X030311Y013565D01*
X030286Y013570D01*
X030260Y013572D01*
X031204Y013179D02*
X031206Y013220D01*
X031212Y013261D01*
X031222Y013301D01*
X031235Y013340D01*
X031252Y013377D01*
X031273Y013413D01*
X031297Y013447D01*
X031324Y013478D01*
X031353Y013506D01*
X031386Y013532D01*
X031420Y013554D01*
X031457Y013573D01*
X031495Y013588D01*
X031535Y013600D01*
X031575Y013608D01*
X031616Y013612D01*
X031658Y013612D01*
X031699Y013608D01*
X031739Y013600D01*
X031779Y013588D01*
X031817Y013573D01*
X031853Y013554D01*
X031888Y013532D01*
X031921Y013506D01*
X031950Y013478D01*
X031977Y013447D01*
X032001Y013413D01*
X032022Y013377D01*
X032039Y013340D01*
X032052Y013301D01*
X032062Y013261D01*
X032068Y013220D01*
X032070Y013179D01*
X032068Y013138D01*
X032062Y013097D01*
X032052Y013057D01*
X032039Y013018D01*
X032022Y012981D01*
X032001Y012945D01*
X031977Y012911D01*
X031950Y012880D01*
X031921Y012852D01*
X031888Y012826D01*
X031854Y012804D01*
X031817Y012785D01*
X031779Y012770D01*
X031739Y012758D01*
X031699Y012750D01*
X031658Y012746D01*
X031616Y012746D01*
X031575Y012750D01*
X031535Y012758D01*
X031495Y012770D01*
X031457Y012785D01*
X031421Y012804D01*
X031386Y012826D01*
X031353Y012852D01*
X031324Y012880D01*
X031297Y012911D01*
X031273Y012945D01*
X031252Y012981D01*
X031235Y013018D01*
X031222Y013057D01*
X031212Y013097D01*
X031206Y013138D01*
X031204Y013179D01*
X022543Y005305D02*
X022545Y005346D01*
X022551Y005387D01*
X022561Y005427D01*
X022574Y005466D01*
X022591Y005503D01*
X022612Y005539D01*
X022636Y005573D01*
X022663Y005604D01*
X022692Y005632D01*
X022725Y005658D01*
X022759Y005680D01*
X022796Y005699D01*
X022834Y005714D01*
X022874Y005726D01*
X022914Y005734D01*
X022955Y005738D01*
X022997Y005738D01*
X023038Y005734D01*
X023078Y005726D01*
X023118Y005714D01*
X023156Y005699D01*
X023192Y005680D01*
X023227Y005658D01*
X023260Y005632D01*
X023289Y005604D01*
X023316Y005573D01*
X023340Y005539D01*
X023361Y005503D01*
X023378Y005466D01*
X023391Y005427D01*
X023401Y005387D01*
X023407Y005346D01*
X023409Y005305D01*
X023407Y005264D01*
X023401Y005223D01*
X023391Y005183D01*
X023378Y005144D01*
X023361Y005107D01*
X023340Y005071D01*
X023316Y005037D01*
X023289Y005006D01*
X023260Y004978D01*
X023227Y004952D01*
X023193Y004930D01*
X023156Y004911D01*
X023118Y004896D01*
X023078Y004884D01*
X023038Y004876D01*
X022997Y004872D01*
X022955Y004872D01*
X022914Y004876D01*
X022874Y004884D01*
X022834Y004896D01*
X022796Y004911D01*
X022760Y004930D01*
X022725Y004952D01*
X022692Y004978D01*
X022663Y005006D01*
X022636Y005037D01*
X022612Y005071D01*
X022591Y005107D01*
X022574Y005144D01*
X022561Y005183D01*
X022551Y005223D01*
X022545Y005264D01*
X022543Y005305D01*
X029554Y003729D02*
X029585Y003727D01*
X029616Y003722D01*
X029646Y003713D01*
X029675Y003701D01*
X029702Y003686D01*
X029727Y003668D01*
X029751Y003648D01*
X030293Y003533D02*
X030332Y003535D01*
X030370Y003541D01*
X030407Y003550D01*
X030444Y003563D01*
X030479Y003580D01*
X030512Y003599D01*
X030543Y003622D01*
X030572Y003648D01*
M02*
