%
M48
M72
T01C0.0200
T02C0.0236
T03C0.0400
T04C0.0866
T05C0.0984
%
T01
X10181Y6781
X11047Y7647
X13035Y4714
X18350Y4123
X20319Y4714
X28882Y4714
X30161Y3927
X31539Y8454
X31539Y9242
X32326Y9537
X32326Y8749
X34295Y8454
X35181Y8454
X38626Y6978
X39118Y7864
X38626Y5403
X38980Y4458
X23685Y13769
X20712Y13572
X19334Y15344
X17760Y13868
X17071Y11899
X10378Y16230
X19531Y20659
X20752Y21053
X19492Y21604
X20752Y22037
X31539Y19576
X32326Y16427
X31539Y16131
X32326Y15541
X31539Y15246
X38055Y21761
T02
X34984Y20265
X33409Y20265
X31047Y18789
T03
X29094Y18336
X29094Y17336
X29094Y16336
X29094Y15336
X29094Y14336
X27094Y13336
X29094Y11336
X29094Y10336
X29094Y9336
X29094Y8336
X29094Y7336
X27094Y6336
X33094Y5336
X34094Y5336
X35094Y5336
X36094Y5336
X37094Y5336
X36094Y13336
X34094Y13336
X38094Y13336
X20094Y6336
X19094Y6336
X18094Y6336
X17094Y6336
X16094Y6336
X14094Y8336
X15307Y17336
X17307Y17549
X17307Y18549
X17307Y19549
X17307Y20549
X17307Y21549
X11094Y18336
T04
X11165Y21053
X22976Y21053
X31637Y13179
X22976Y5305
X11165Y5305
X11165Y13179
T05
X18645Y12391
X18645Y14360
X18645Y16328
X18645Y10423
M30
